G04 #@! TF.GenerationSoftware,KiCad,Pcbnew,(5.1.10)-1*
G04 #@! TF.CreationDate,2021-08-02T23:12:01-04:00*
G04 #@! TF.ProjectId,entropy r3,656e7472-6f70-4792-9072-332e6b696361,rev?*
G04 #@! TF.SameCoordinates,Original*
G04 #@! TF.FileFunction,Soldermask,Top*
G04 #@! TF.FilePolarity,Negative*
%FSLAX46Y46*%
G04 Gerber Fmt 4.6, Leading zero omitted, Abs format (unit mm)*
G04 Created by KiCad (PCBNEW (5.1.10)-1) date 2021-08-02 23:12:01*
%MOMM*%
%LPD*%
G01*
G04 APERTURE LIST*
%ADD10C,1.000000*%
%ADD11R,1.200000X0.900000*%
%ADD12R,1.060000X0.650000*%
%ADD13R,0.300000X0.800000*%
%ADD14R,1.700000X1.700000*%
%ADD15O,1.700000X1.700000*%
%ADD16R,0.800000X0.900000*%
G04 APERTURE END LIST*
G36*
G01*
X149698000Y-64569999D02*
X149698000Y-65470001D01*
G75*
G02*
X149448001Y-65720000I-249999J0D01*
G01*
X148797999Y-65720000D01*
G75*
G02*
X148548000Y-65470001I0J249999D01*
G01*
X148548000Y-64569999D01*
G75*
G02*
X148797999Y-64320000I249999J0D01*
G01*
X149448001Y-64320000D01*
G75*
G02*
X149698000Y-64569999I0J-249999D01*
G01*
G37*
G36*
G01*
X147648000Y-64569999D02*
X147648000Y-65470001D01*
G75*
G02*
X147398001Y-65720000I-249999J0D01*
G01*
X146747999Y-65720000D01*
G75*
G02*
X146498000Y-65470001I0J249999D01*
G01*
X146498000Y-64569999D01*
G75*
G02*
X146747999Y-64320000I249999J0D01*
G01*
X147398001Y-64320000D01*
G75*
G02*
X147648000Y-64569999I0J-249999D01*
G01*
G37*
D10*
X147066000Y-67564000D03*
D11*
X146558000Y-62610000D03*
X146558000Y-59310000D03*
G36*
G01*
X146447500Y-72895000D02*
X146922500Y-72895000D01*
G75*
G02*
X147160000Y-73132500I0J-237500D01*
G01*
X147160000Y-73707500D01*
G75*
G02*
X146922500Y-73945000I-237500J0D01*
G01*
X146447500Y-73945000D01*
G75*
G02*
X146210000Y-73707500I0J237500D01*
G01*
X146210000Y-73132500D01*
G75*
G02*
X146447500Y-72895000I237500J0D01*
G01*
G37*
G36*
G01*
X146447500Y-74645000D02*
X146922500Y-74645000D01*
G75*
G02*
X147160000Y-74882500I0J-237500D01*
G01*
X147160000Y-75457500D01*
G75*
G02*
X146922500Y-75695000I-237500J0D01*
G01*
X146447500Y-75695000D01*
G75*
G02*
X146210000Y-75457500I0J237500D01*
G01*
X146210000Y-74882500D01*
G75*
G02*
X146447500Y-74645000I237500J0D01*
G01*
G37*
G36*
G01*
X134857500Y-81283000D02*
X134382500Y-81283000D01*
G75*
G02*
X134145000Y-81045500I0J237500D01*
G01*
X134145000Y-80470500D01*
G75*
G02*
X134382500Y-80233000I237500J0D01*
G01*
X134857500Y-80233000D01*
G75*
G02*
X135095000Y-80470500I0J-237500D01*
G01*
X135095000Y-81045500D01*
G75*
G02*
X134857500Y-81283000I-237500J0D01*
G01*
G37*
G36*
G01*
X134857500Y-79533000D02*
X134382500Y-79533000D01*
G75*
G02*
X134145000Y-79295500I0J237500D01*
G01*
X134145000Y-78720500D01*
G75*
G02*
X134382500Y-78483000I237500J0D01*
G01*
X134857500Y-78483000D01*
G75*
G02*
X135095000Y-78720500I0J-237500D01*
G01*
X135095000Y-79295500D01*
G75*
G02*
X134857500Y-79533000I-237500J0D01*
G01*
G37*
G36*
G01*
X141875500Y-70073000D02*
X142350500Y-70073000D01*
G75*
G02*
X142588000Y-70310500I0J-237500D01*
G01*
X142588000Y-70885500D01*
G75*
G02*
X142350500Y-71123000I-237500J0D01*
G01*
X141875500Y-71123000D01*
G75*
G02*
X141638000Y-70885500I0J237500D01*
G01*
X141638000Y-70310500D01*
G75*
G02*
X141875500Y-70073000I237500J0D01*
G01*
G37*
G36*
G01*
X141875500Y-68323000D02*
X142350500Y-68323000D01*
G75*
G02*
X142588000Y-68560500I0J-237500D01*
G01*
X142588000Y-69135500D01*
G75*
G02*
X142350500Y-69373000I-237500J0D01*
G01*
X141875500Y-69373000D01*
G75*
G02*
X141638000Y-69135500I0J237500D01*
G01*
X141638000Y-68560500D01*
G75*
G02*
X141875500Y-68323000I237500J0D01*
G01*
G37*
G36*
G01*
X138487999Y-64458000D02*
X139388001Y-64458000D01*
G75*
G02*
X139638000Y-64707999I0J-249999D01*
G01*
X139638000Y-65358001D01*
G75*
G02*
X139388001Y-65608000I-249999J0D01*
G01*
X138487999Y-65608000D01*
G75*
G02*
X138238000Y-65358001I0J249999D01*
G01*
X138238000Y-64707999D01*
G75*
G02*
X138487999Y-64458000I249999J0D01*
G01*
G37*
G36*
G01*
X138487999Y-62408000D02*
X139388001Y-62408000D01*
G75*
G02*
X139638000Y-62657999I0J-249999D01*
G01*
X139638000Y-63308001D01*
G75*
G02*
X139388001Y-63558000I-249999J0D01*
G01*
X138487999Y-63558000D01*
G75*
G02*
X138238000Y-63308001I0J249999D01*
G01*
X138238000Y-62657999D01*
G75*
G02*
X138487999Y-62408000I249999J0D01*
G01*
G37*
G36*
G01*
X151621500Y-79483000D02*
X151146500Y-79483000D01*
G75*
G02*
X150909000Y-79245500I0J237500D01*
G01*
X150909000Y-78670500D01*
G75*
G02*
X151146500Y-78433000I237500J0D01*
G01*
X151621500Y-78433000D01*
G75*
G02*
X151859000Y-78670500I0J-237500D01*
G01*
X151859000Y-79245500D01*
G75*
G02*
X151621500Y-79483000I-237500J0D01*
G01*
G37*
G36*
G01*
X151621500Y-81233000D02*
X151146500Y-81233000D01*
G75*
G02*
X150909000Y-80995500I0J237500D01*
G01*
X150909000Y-80420500D01*
G75*
G02*
X151146500Y-80183000I237500J0D01*
G01*
X151621500Y-80183000D01*
G75*
G02*
X151859000Y-80420500I0J-237500D01*
G01*
X151859000Y-80995500D01*
G75*
G02*
X151621500Y-81233000I-237500J0D01*
G01*
G37*
G36*
G01*
X151275500Y-63380000D02*
X150800500Y-63380000D01*
G75*
G02*
X150563000Y-63142500I0J237500D01*
G01*
X150563000Y-62567500D01*
G75*
G02*
X150800500Y-62330000I237500J0D01*
G01*
X151275500Y-62330000D01*
G75*
G02*
X151513000Y-62567500I0J-237500D01*
G01*
X151513000Y-63142500D01*
G75*
G02*
X151275500Y-63380000I-237500J0D01*
G01*
G37*
G36*
G01*
X151275500Y-61630000D02*
X150800500Y-61630000D01*
G75*
G02*
X150563000Y-61392500I0J237500D01*
G01*
X150563000Y-60817500D01*
G75*
G02*
X150800500Y-60580000I237500J0D01*
G01*
X151275500Y-60580000D01*
G75*
G02*
X151513000Y-60817500I0J-237500D01*
G01*
X151513000Y-61392500D01*
G75*
G02*
X151275500Y-61630000I-237500J0D01*
G01*
G37*
G36*
G01*
X140386000Y-64966001D02*
X140386000Y-64065999D01*
G75*
G02*
X140635999Y-63816000I249999J0D01*
G01*
X141286001Y-63816000D01*
G75*
G02*
X141536000Y-64065999I0J-249999D01*
G01*
X141536000Y-64966001D01*
G75*
G02*
X141286001Y-65216000I-249999J0D01*
G01*
X140635999Y-65216000D01*
G75*
G02*
X140386000Y-64966001I0J249999D01*
G01*
G37*
G36*
G01*
X142436000Y-64966001D02*
X142436000Y-64065999D01*
G75*
G02*
X142685999Y-63816000I249999J0D01*
G01*
X143336001Y-63816000D01*
G75*
G02*
X143586000Y-64065999I0J-249999D01*
G01*
X143586000Y-64966001D01*
G75*
G02*
X143336001Y-65216000I-249999J0D01*
G01*
X142685999Y-65216000D01*
G75*
G02*
X142436000Y-64966001I0J249999D01*
G01*
G37*
G36*
G01*
X135286000Y-76978500D02*
X135286000Y-77453500D01*
G75*
G02*
X135048500Y-77691000I-237500J0D01*
G01*
X134473500Y-77691000D01*
G75*
G02*
X134236000Y-77453500I0J237500D01*
G01*
X134236000Y-76978500D01*
G75*
G02*
X134473500Y-76741000I237500J0D01*
G01*
X135048500Y-76741000D01*
G75*
G02*
X135286000Y-76978500I0J-237500D01*
G01*
G37*
G36*
G01*
X137036000Y-76978500D02*
X137036000Y-77453500D01*
G75*
G02*
X136798500Y-77691000I-237500J0D01*
G01*
X136223500Y-77691000D01*
G75*
G02*
X135986000Y-77453500I0J237500D01*
G01*
X135986000Y-76978500D01*
G75*
G02*
X136223500Y-76741000I237500J0D01*
G01*
X136798500Y-76741000D01*
G75*
G02*
X137036000Y-76978500I0J-237500D01*
G01*
G37*
G36*
G01*
X136414500Y-78483000D02*
X136889500Y-78483000D01*
G75*
G02*
X137127000Y-78720500I0J-237500D01*
G01*
X137127000Y-79295500D01*
G75*
G02*
X136889500Y-79533000I-237500J0D01*
G01*
X136414500Y-79533000D01*
G75*
G02*
X136177000Y-79295500I0J237500D01*
G01*
X136177000Y-78720500D01*
G75*
G02*
X136414500Y-78483000I237500J0D01*
G01*
G37*
G36*
G01*
X136414500Y-80233000D02*
X136889500Y-80233000D01*
G75*
G02*
X137127000Y-80470500I0J-237500D01*
G01*
X137127000Y-81045500D01*
G75*
G02*
X136889500Y-81283000I-237500J0D01*
G01*
X136414500Y-81283000D01*
G75*
G02*
X136177000Y-81045500I0J237500D01*
G01*
X136177000Y-80470500D01*
G75*
G02*
X136414500Y-80233000I237500J0D01*
G01*
G37*
G36*
G01*
X138827500Y-72895000D02*
X139302500Y-72895000D01*
G75*
G02*
X139540000Y-73132500I0J-237500D01*
G01*
X139540000Y-73707500D01*
G75*
G02*
X139302500Y-73945000I-237500J0D01*
G01*
X138827500Y-73945000D01*
G75*
G02*
X138590000Y-73707500I0J237500D01*
G01*
X138590000Y-73132500D01*
G75*
G02*
X138827500Y-72895000I237500J0D01*
G01*
G37*
G36*
G01*
X138827500Y-74645000D02*
X139302500Y-74645000D01*
G75*
G02*
X139540000Y-74882500I0J-237500D01*
G01*
X139540000Y-75457500D01*
G75*
G02*
X139302500Y-75695000I-237500J0D01*
G01*
X138827500Y-75695000D01*
G75*
G02*
X138590000Y-75457500I0J237500D01*
G01*
X138590000Y-74882500D01*
G75*
G02*
X138827500Y-74645000I237500J0D01*
G01*
G37*
G36*
G01*
X140050000Y-77453500D02*
X140050000Y-76978500D01*
G75*
G02*
X140287500Y-76741000I237500J0D01*
G01*
X140862500Y-76741000D01*
G75*
G02*
X141100000Y-76978500I0J-237500D01*
G01*
X141100000Y-77453500D01*
G75*
G02*
X140862500Y-77691000I-237500J0D01*
G01*
X140287500Y-77691000D01*
G75*
G02*
X140050000Y-77453500I0J237500D01*
G01*
G37*
G36*
G01*
X138300000Y-77453500D02*
X138300000Y-76978500D01*
G75*
G02*
X138537500Y-76741000I237500J0D01*
G01*
X139112500Y-76741000D01*
G75*
G02*
X139350000Y-76978500I0J-237500D01*
G01*
X139350000Y-77453500D01*
G75*
G02*
X139112500Y-77691000I-237500J0D01*
G01*
X138537500Y-77691000D01*
G75*
G02*
X138300000Y-77453500I0J237500D01*
G01*
G37*
G36*
G01*
X142002500Y-76832000D02*
X142477500Y-76832000D01*
G75*
G02*
X142715000Y-77069500I0J-237500D01*
G01*
X142715000Y-77644500D01*
G75*
G02*
X142477500Y-77882000I-237500J0D01*
G01*
X142002500Y-77882000D01*
G75*
G02*
X141765000Y-77644500I0J237500D01*
G01*
X141765000Y-77069500D01*
G75*
G02*
X142002500Y-76832000I237500J0D01*
G01*
G37*
G36*
G01*
X142002500Y-78582000D02*
X142477500Y-78582000D01*
G75*
G02*
X142715000Y-78819500I0J-237500D01*
G01*
X142715000Y-79394500D01*
G75*
G02*
X142477500Y-79632000I-237500J0D01*
G01*
X142002500Y-79632000D01*
G75*
G02*
X141765000Y-79394500I0J237500D01*
G01*
X141765000Y-78819500D01*
G75*
G02*
X142002500Y-78582000I237500J0D01*
G01*
G37*
G36*
G01*
X150718000Y-77453500D02*
X150718000Y-76978500D01*
G75*
G02*
X150955500Y-76741000I237500J0D01*
G01*
X151530500Y-76741000D01*
G75*
G02*
X151768000Y-76978500I0J-237500D01*
G01*
X151768000Y-77453500D01*
G75*
G02*
X151530500Y-77691000I-237500J0D01*
G01*
X150955500Y-77691000D01*
G75*
G02*
X150718000Y-77453500I0J237500D01*
G01*
G37*
G36*
G01*
X148968000Y-77453500D02*
X148968000Y-76978500D01*
G75*
G02*
X149205500Y-76741000I237500J0D01*
G01*
X149780500Y-76741000D01*
G75*
G02*
X150018000Y-76978500I0J-237500D01*
G01*
X150018000Y-77453500D01*
G75*
G02*
X149780500Y-77691000I-237500J0D01*
G01*
X149205500Y-77691000D01*
G75*
G02*
X148968000Y-77453500I0J237500D01*
G01*
G37*
G36*
G01*
X149114500Y-80183000D02*
X149589500Y-80183000D01*
G75*
G02*
X149827000Y-80420500I0J-237500D01*
G01*
X149827000Y-80995500D01*
G75*
G02*
X149589500Y-81233000I-237500J0D01*
G01*
X149114500Y-81233000D01*
G75*
G02*
X148877000Y-80995500I0J237500D01*
G01*
X148877000Y-80420500D01*
G75*
G02*
X149114500Y-80183000I237500J0D01*
G01*
G37*
G36*
G01*
X149114500Y-78433000D02*
X149589500Y-78433000D01*
G75*
G02*
X149827000Y-78670500I0J-237500D01*
G01*
X149827000Y-79245500D01*
G75*
G02*
X149589500Y-79483000I-237500J0D01*
G01*
X149114500Y-79483000D01*
G75*
G02*
X148877000Y-79245500I0J237500D01*
G01*
X148877000Y-78670500D01*
G75*
G02*
X149114500Y-78433000I237500J0D01*
G01*
G37*
G36*
G01*
X149435500Y-61640000D02*
X148960500Y-61640000D01*
G75*
G02*
X148723000Y-61402500I0J237500D01*
G01*
X148723000Y-60827500D01*
G75*
G02*
X148960500Y-60590000I237500J0D01*
G01*
X149435500Y-60590000D01*
G75*
G02*
X149673000Y-60827500I0J-237500D01*
G01*
X149673000Y-61402500D01*
G75*
G02*
X149435500Y-61640000I-237500J0D01*
G01*
G37*
G36*
G01*
X149435500Y-63390000D02*
X148960500Y-63390000D01*
G75*
G02*
X148723000Y-63152500I0J237500D01*
G01*
X148723000Y-62577500D01*
G75*
G02*
X148960500Y-62340000I237500J0D01*
G01*
X149435500Y-62340000D01*
G75*
G02*
X149673000Y-62577500I0J-237500D01*
G01*
X149673000Y-63152500D01*
G75*
G02*
X149435500Y-63390000I-237500J0D01*
G01*
G37*
G36*
G01*
X148714000Y-59673500D02*
X148714000Y-59198500D01*
G75*
G02*
X148951500Y-58961000I237500J0D01*
G01*
X149526500Y-58961000D01*
G75*
G02*
X149764000Y-59198500I0J-237500D01*
G01*
X149764000Y-59673500D01*
G75*
G02*
X149526500Y-59911000I-237500J0D01*
G01*
X148951500Y-59911000D01*
G75*
G02*
X148714000Y-59673500I0J237500D01*
G01*
G37*
G36*
G01*
X150464000Y-59673500D02*
X150464000Y-59198500D01*
G75*
G02*
X150701500Y-58961000I237500J0D01*
G01*
X151276500Y-58961000D01*
G75*
G02*
X151514000Y-59198500I0J-237500D01*
G01*
X151514000Y-59673500D01*
G75*
G02*
X151276500Y-59911000I-237500J0D01*
G01*
X150701500Y-59911000D01*
G75*
G02*
X150464000Y-59673500I0J237500D01*
G01*
G37*
G36*
G01*
X151275500Y-66850000D02*
X150800500Y-66850000D01*
G75*
G02*
X150563000Y-66612500I0J237500D01*
G01*
X150563000Y-66037500D01*
G75*
G02*
X150800500Y-65800000I237500J0D01*
G01*
X151275500Y-65800000D01*
G75*
G02*
X151513000Y-66037500I0J-237500D01*
G01*
X151513000Y-66612500D01*
G75*
G02*
X151275500Y-66850000I-237500J0D01*
G01*
G37*
G36*
G01*
X151275500Y-65100000D02*
X150800500Y-65100000D01*
G75*
G02*
X150563000Y-64862500I0J237500D01*
G01*
X150563000Y-64287500D01*
G75*
G02*
X150800500Y-64050000I237500J0D01*
G01*
X151275500Y-64050000D01*
G75*
G02*
X151513000Y-64287500I0J-237500D01*
G01*
X151513000Y-64862500D01*
G75*
G02*
X151275500Y-65100000I-237500J0D01*
G01*
G37*
G36*
G01*
X147704000Y-76978500D02*
X147704000Y-77453500D01*
G75*
G02*
X147466500Y-77691000I-237500J0D01*
G01*
X146891500Y-77691000D01*
G75*
G02*
X146654000Y-77453500I0J237500D01*
G01*
X146654000Y-76978500D01*
G75*
G02*
X146891500Y-76741000I237500J0D01*
G01*
X147466500Y-76741000D01*
G75*
G02*
X147704000Y-76978500I0J-237500D01*
G01*
G37*
G36*
G01*
X145954000Y-76978500D02*
X145954000Y-77453500D01*
G75*
G02*
X145716500Y-77691000I-237500J0D01*
G01*
X145141500Y-77691000D01*
G75*
G02*
X144904000Y-77453500I0J237500D01*
G01*
X144904000Y-76978500D01*
G75*
G02*
X145141500Y-76741000I237500J0D01*
G01*
X145716500Y-76741000D01*
G75*
G02*
X145954000Y-76978500I0J-237500D01*
G01*
G37*
G36*
G01*
X143526500Y-78582000D02*
X144001500Y-78582000D01*
G75*
G02*
X144239000Y-78819500I0J-237500D01*
G01*
X144239000Y-79394500D01*
G75*
G02*
X144001500Y-79632000I-237500J0D01*
G01*
X143526500Y-79632000D01*
G75*
G02*
X143289000Y-79394500I0J237500D01*
G01*
X143289000Y-78819500D01*
G75*
G02*
X143526500Y-78582000I237500J0D01*
G01*
G37*
G36*
G01*
X143526500Y-76832000D02*
X144001500Y-76832000D01*
G75*
G02*
X144239000Y-77069500I0J-237500D01*
G01*
X144239000Y-77644500D01*
G75*
G02*
X144001500Y-77882000I-237500J0D01*
G01*
X143526500Y-77882000D01*
G75*
G02*
X143289000Y-77644500I0J237500D01*
G01*
X143289000Y-77069500D01*
G75*
G02*
X143526500Y-76832000I237500J0D01*
G01*
G37*
D12*
X141775000Y-73345000D03*
X141775000Y-74295000D03*
X141775000Y-75245000D03*
X143975000Y-75245000D03*
X143975000Y-73345000D03*
D13*
X138823000Y-71273000D03*
X139323000Y-71273000D03*
X139823000Y-71273000D03*
X140323000Y-71273000D03*
X140323000Y-68173000D03*
X139823000Y-68173000D03*
X139323000Y-68173000D03*
X138823000Y-68173000D03*
D12*
X141140000Y-61402000D03*
X141140000Y-59502000D03*
X143340000Y-59502000D03*
X143340000Y-60452000D03*
X143340000Y-61402000D03*
D14*
X135636000Y-65786000D03*
D15*
X135636000Y-63246000D03*
X135636000Y-60706000D03*
X135636000Y-58166000D03*
D16*
X135636000Y-68850000D03*
X136586000Y-70850000D03*
X134686000Y-70850000D03*
X134686000Y-75168000D03*
X136586000Y-75168000D03*
X135636000Y-73168000D03*
X138750000Y-80756000D03*
X140650000Y-80756000D03*
X139700000Y-78756000D03*
X150114000Y-68850000D03*
X151064000Y-70850000D03*
X149164000Y-70850000D03*
X149164000Y-75168000D03*
X151064000Y-75168000D03*
X150114000Y-73168000D03*
X146304000Y-78756000D03*
X147254000Y-80756000D03*
X145354000Y-80756000D03*
G36*
G01*
X139175500Y-61598000D02*
X138700500Y-61598000D01*
G75*
G02*
X138463000Y-61360500I0J237500D01*
G01*
X138463000Y-60785500D01*
G75*
G02*
X138700500Y-60548000I237500J0D01*
G01*
X139175500Y-60548000D01*
G75*
G02*
X139413000Y-60785500I0J-237500D01*
G01*
X139413000Y-61360500D01*
G75*
G02*
X139175500Y-61598000I-237500J0D01*
G01*
G37*
G36*
G01*
X139175500Y-59848000D02*
X138700500Y-59848000D01*
G75*
G02*
X138463000Y-59610500I0J237500D01*
G01*
X138463000Y-59035500D01*
G75*
G02*
X138700500Y-58798000I237500J0D01*
G01*
X139175500Y-58798000D01*
G75*
G02*
X139413000Y-59035500I0J-237500D01*
G01*
X139413000Y-59610500D01*
G75*
G02*
X139175500Y-59848000I-237500J0D01*
G01*
G37*
M02*
