M48
INCH,TZ
T1C0.0157
T2C0.0197
T3C0.0394
%
G90
G05
T1
X52559Y-22047
X52559Y-32283
X52677Y-24488
X52677Y-25354
X54016Y-24488
X54016Y-25354
X54094Y-28976
X54144Y-30456
X54409Y-31102
X55245Y-27505
X55433Y-32323
X55551Y-26535
X55906Y-23780
X55906Y-24764
X55945Y-28386
X56024Y-22756
X56024Y-31693
X56614Y-31693
X57047Y-26693
X57244Y-29646
X57323Y-25551
X57992Y-32283
X58110Y-23937
X58307Y-28386
X58344Y-30456
X58346Y-29961
X59961Y-22126
X60000Y-23386
X60039Y-29606
X60079Y-32244
T2
X57900Y-26600
T3
X53400Y-22900
X53400Y-23900
X53400Y-24900
X53400Y-25900
T0
M30
