G04 #@! TF.GenerationSoftware,KiCad,Pcbnew,(5.1.10)-1*
G04 #@! TF.CreationDate,2021-08-02T23:12:01-04:00*
G04 #@! TF.ProjectId,entropy r3,656e7472-6f70-4792-9072-332e6b696361,rev?*
G04 #@! TF.SameCoordinates,Original*
G04 #@! TF.FileFunction,Copper,L1,Top*
G04 #@! TF.FilePolarity,Positive*
%FSLAX46Y46*%
G04 Gerber Fmt 4.6, Leading zero omitted, Abs format (unit mm)*
G04 Created by KiCad (PCBNEW (5.1.10)-1) date 2021-08-02 23:12:01*
%MOMM*%
%LPD*%
G01*
G04 APERTURE LIST*
G04 #@! TA.AperFunction,ComponentPad*
%ADD10C,1.000000*%
G04 #@! TD*
G04 #@! TA.AperFunction,SMDPad,CuDef*
%ADD11R,1.200000X0.900000*%
G04 #@! TD*
G04 #@! TA.AperFunction,SMDPad,CuDef*
%ADD12R,1.060000X0.650000*%
G04 #@! TD*
G04 #@! TA.AperFunction,SMDPad,CuDef*
%ADD13R,0.300000X0.800000*%
G04 #@! TD*
G04 #@! TA.AperFunction,ComponentPad*
%ADD14R,1.700000X1.700000*%
G04 #@! TD*
G04 #@! TA.AperFunction,ComponentPad*
%ADD15O,1.700000X1.700000*%
G04 #@! TD*
G04 #@! TA.AperFunction,SMDPad,CuDef*
%ADD16R,0.800000X0.900000*%
G04 #@! TD*
G04 #@! TA.AperFunction,ViaPad*
%ADD17C,0.800000*%
G04 #@! TD*
G04 #@! TA.AperFunction,Conductor*
%ADD18C,0.250000*%
G04 #@! TD*
G04 #@! TA.AperFunction,Conductor*
%ADD19C,0.406400*%
G04 #@! TD*
G04 #@! TA.AperFunction,Conductor*
%ADD20C,0.609600*%
G04 #@! TD*
G04 #@! TA.AperFunction,Conductor*
%ADD21C,0.254000*%
G04 #@! TD*
G04 #@! TA.AperFunction,Conductor*
%ADD22C,0.100000*%
G04 #@! TD*
G04 APERTURE END LIST*
G04 #@! TA.AperFunction,SMDPad,CuDef*
G36*
G01*
X149698000Y-64569999D02*
X149698000Y-65470001D01*
G75*
G02*
X149448001Y-65720000I-249999J0D01*
G01*
X148797999Y-65720000D01*
G75*
G02*
X148548000Y-65470001I0J249999D01*
G01*
X148548000Y-64569999D01*
G75*
G02*
X148797999Y-64320000I249999J0D01*
G01*
X149448001Y-64320000D01*
G75*
G02*
X149698000Y-64569999I0J-249999D01*
G01*
G37*
G04 #@! TD.AperFunction*
G04 #@! TA.AperFunction,SMDPad,CuDef*
G36*
G01*
X147648000Y-64569999D02*
X147648000Y-65470001D01*
G75*
G02*
X147398001Y-65720000I-249999J0D01*
G01*
X146747999Y-65720000D01*
G75*
G02*
X146498000Y-65470001I0J249999D01*
G01*
X146498000Y-64569999D01*
G75*
G02*
X146747999Y-64320000I249999J0D01*
G01*
X147398001Y-64320000D01*
G75*
G02*
X147648000Y-64569999I0J-249999D01*
G01*
G37*
G04 #@! TD.AperFunction*
D10*
X147066000Y-67564000D03*
D11*
X146558000Y-62610000D03*
X146558000Y-59310000D03*
G04 #@! TA.AperFunction,SMDPad,CuDef*
G36*
G01*
X146447500Y-72895000D02*
X146922500Y-72895000D01*
G75*
G02*
X147160000Y-73132500I0J-237500D01*
G01*
X147160000Y-73707500D01*
G75*
G02*
X146922500Y-73945000I-237500J0D01*
G01*
X146447500Y-73945000D01*
G75*
G02*
X146210000Y-73707500I0J237500D01*
G01*
X146210000Y-73132500D01*
G75*
G02*
X146447500Y-72895000I237500J0D01*
G01*
G37*
G04 #@! TD.AperFunction*
G04 #@! TA.AperFunction,SMDPad,CuDef*
G36*
G01*
X146447500Y-74645000D02*
X146922500Y-74645000D01*
G75*
G02*
X147160000Y-74882500I0J-237500D01*
G01*
X147160000Y-75457500D01*
G75*
G02*
X146922500Y-75695000I-237500J0D01*
G01*
X146447500Y-75695000D01*
G75*
G02*
X146210000Y-75457500I0J237500D01*
G01*
X146210000Y-74882500D01*
G75*
G02*
X146447500Y-74645000I237500J0D01*
G01*
G37*
G04 #@! TD.AperFunction*
G04 #@! TA.AperFunction,SMDPad,CuDef*
G36*
G01*
X134857500Y-81283000D02*
X134382500Y-81283000D01*
G75*
G02*
X134145000Y-81045500I0J237500D01*
G01*
X134145000Y-80470500D01*
G75*
G02*
X134382500Y-80233000I237500J0D01*
G01*
X134857500Y-80233000D01*
G75*
G02*
X135095000Y-80470500I0J-237500D01*
G01*
X135095000Y-81045500D01*
G75*
G02*
X134857500Y-81283000I-237500J0D01*
G01*
G37*
G04 #@! TD.AperFunction*
G04 #@! TA.AperFunction,SMDPad,CuDef*
G36*
G01*
X134857500Y-79533000D02*
X134382500Y-79533000D01*
G75*
G02*
X134145000Y-79295500I0J237500D01*
G01*
X134145000Y-78720500D01*
G75*
G02*
X134382500Y-78483000I237500J0D01*
G01*
X134857500Y-78483000D01*
G75*
G02*
X135095000Y-78720500I0J-237500D01*
G01*
X135095000Y-79295500D01*
G75*
G02*
X134857500Y-79533000I-237500J0D01*
G01*
G37*
G04 #@! TD.AperFunction*
G04 #@! TA.AperFunction,SMDPad,CuDef*
G36*
G01*
X141875500Y-70073000D02*
X142350500Y-70073000D01*
G75*
G02*
X142588000Y-70310500I0J-237500D01*
G01*
X142588000Y-70885500D01*
G75*
G02*
X142350500Y-71123000I-237500J0D01*
G01*
X141875500Y-71123000D01*
G75*
G02*
X141638000Y-70885500I0J237500D01*
G01*
X141638000Y-70310500D01*
G75*
G02*
X141875500Y-70073000I237500J0D01*
G01*
G37*
G04 #@! TD.AperFunction*
G04 #@! TA.AperFunction,SMDPad,CuDef*
G36*
G01*
X141875500Y-68323000D02*
X142350500Y-68323000D01*
G75*
G02*
X142588000Y-68560500I0J-237500D01*
G01*
X142588000Y-69135500D01*
G75*
G02*
X142350500Y-69373000I-237500J0D01*
G01*
X141875500Y-69373000D01*
G75*
G02*
X141638000Y-69135500I0J237500D01*
G01*
X141638000Y-68560500D01*
G75*
G02*
X141875500Y-68323000I237500J0D01*
G01*
G37*
G04 #@! TD.AperFunction*
G04 #@! TA.AperFunction,SMDPad,CuDef*
G36*
G01*
X138487999Y-64458000D02*
X139388001Y-64458000D01*
G75*
G02*
X139638000Y-64707999I0J-249999D01*
G01*
X139638000Y-65358001D01*
G75*
G02*
X139388001Y-65608000I-249999J0D01*
G01*
X138487999Y-65608000D01*
G75*
G02*
X138238000Y-65358001I0J249999D01*
G01*
X138238000Y-64707999D01*
G75*
G02*
X138487999Y-64458000I249999J0D01*
G01*
G37*
G04 #@! TD.AperFunction*
G04 #@! TA.AperFunction,SMDPad,CuDef*
G36*
G01*
X138487999Y-62408000D02*
X139388001Y-62408000D01*
G75*
G02*
X139638000Y-62657999I0J-249999D01*
G01*
X139638000Y-63308001D01*
G75*
G02*
X139388001Y-63558000I-249999J0D01*
G01*
X138487999Y-63558000D01*
G75*
G02*
X138238000Y-63308001I0J249999D01*
G01*
X138238000Y-62657999D01*
G75*
G02*
X138487999Y-62408000I249999J0D01*
G01*
G37*
G04 #@! TD.AperFunction*
G04 #@! TA.AperFunction,SMDPad,CuDef*
G36*
G01*
X151621500Y-79483000D02*
X151146500Y-79483000D01*
G75*
G02*
X150909000Y-79245500I0J237500D01*
G01*
X150909000Y-78670500D01*
G75*
G02*
X151146500Y-78433000I237500J0D01*
G01*
X151621500Y-78433000D01*
G75*
G02*
X151859000Y-78670500I0J-237500D01*
G01*
X151859000Y-79245500D01*
G75*
G02*
X151621500Y-79483000I-237500J0D01*
G01*
G37*
G04 #@! TD.AperFunction*
G04 #@! TA.AperFunction,SMDPad,CuDef*
G36*
G01*
X151621500Y-81233000D02*
X151146500Y-81233000D01*
G75*
G02*
X150909000Y-80995500I0J237500D01*
G01*
X150909000Y-80420500D01*
G75*
G02*
X151146500Y-80183000I237500J0D01*
G01*
X151621500Y-80183000D01*
G75*
G02*
X151859000Y-80420500I0J-237500D01*
G01*
X151859000Y-80995500D01*
G75*
G02*
X151621500Y-81233000I-237500J0D01*
G01*
G37*
G04 #@! TD.AperFunction*
G04 #@! TA.AperFunction,SMDPad,CuDef*
G36*
G01*
X151275500Y-63380000D02*
X150800500Y-63380000D01*
G75*
G02*
X150563000Y-63142500I0J237500D01*
G01*
X150563000Y-62567500D01*
G75*
G02*
X150800500Y-62330000I237500J0D01*
G01*
X151275500Y-62330000D01*
G75*
G02*
X151513000Y-62567500I0J-237500D01*
G01*
X151513000Y-63142500D01*
G75*
G02*
X151275500Y-63380000I-237500J0D01*
G01*
G37*
G04 #@! TD.AperFunction*
G04 #@! TA.AperFunction,SMDPad,CuDef*
G36*
G01*
X151275500Y-61630000D02*
X150800500Y-61630000D01*
G75*
G02*
X150563000Y-61392500I0J237500D01*
G01*
X150563000Y-60817500D01*
G75*
G02*
X150800500Y-60580000I237500J0D01*
G01*
X151275500Y-60580000D01*
G75*
G02*
X151513000Y-60817500I0J-237500D01*
G01*
X151513000Y-61392500D01*
G75*
G02*
X151275500Y-61630000I-237500J0D01*
G01*
G37*
G04 #@! TD.AperFunction*
G04 #@! TA.AperFunction,SMDPad,CuDef*
G36*
G01*
X140386000Y-64966001D02*
X140386000Y-64065999D01*
G75*
G02*
X140635999Y-63816000I249999J0D01*
G01*
X141286001Y-63816000D01*
G75*
G02*
X141536000Y-64065999I0J-249999D01*
G01*
X141536000Y-64966001D01*
G75*
G02*
X141286001Y-65216000I-249999J0D01*
G01*
X140635999Y-65216000D01*
G75*
G02*
X140386000Y-64966001I0J249999D01*
G01*
G37*
G04 #@! TD.AperFunction*
G04 #@! TA.AperFunction,SMDPad,CuDef*
G36*
G01*
X142436000Y-64966001D02*
X142436000Y-64065999D01*
G75*
G02*
X142685999Y-63816000I249999J0D01*
G01*
X143336001Y-63816000D01*
G75*
G02*
X143586000Y-64065999I0J-249999D01*
G01*
X143586000Y-64966001D01*
G75*
G02*
X143336001Y-65216000I-249999J0D01*
G01*
X142685999Y-65216000D01*
G75*
G02*
X142436000Y-64966001I0J249999D01*
G01*
G37*
G04 #@! TD.AperFunction*
G04 #@! TA.AperFunction,SMDPad,CuDef*
G36*
G01*
X135286000Y-76978500D02*
X135286000Y-77453500D01*
G75*
G02*
X135048500Y-77691000I-237500J0D01*
G01*
X134473500Y-77691000D01*
G75*
G02*
X134236000Y-77453500I0J237500D01*
G01*
X134236000Y-76978500D01*
G75*
G02*
X134473500Y-76741000I237500J0D01*
G01*
X135048500Y-76741000D01*
G75*
G02*
X135286000Y-76978500I0J-237500D01*
G01*
G37*
G04 #@! TD.AperFunction*
G04 #@! TA.AperFunction,SMDPad,CuDef*
G36*
G01*
X137036000Y-76978500D02*
X137036000Y-77453500D01*
G75*
G02*
X136798500Y-77691000I-237500J0D01*
G01*
X136223500Y-77691000D01*
G75*
G02*
X135986000Y-77453500I0J237500D01*
G01*
X135986000Y-76978500D01*
G75*
G02*
X136223500Y-76741000I237500J0D01*
G01*
X136798500Y-76741000D01*
G75*
G02*
X137036000Y-76978500I0J-237500D01*
G01*
G37*
G04 #@! TD.AperFunction*
G04 #@! TA.AperFunction,SMDPad,CuDef*
G36*
G01*
X136414500Y-78483000D02*
X136889500Y-78483000D01*
G75*
G02*
X137127000Y-78720500I0J-237500D01*
G01*
X137127000Y-79295500D01*
G75*
G02*
X136889500Y-79533000I-237500J0D01*
G01*
X136414500Y-79533000D01*
G75*
G02*
X136177000Y-79295500I0J237500D01*
G01*
X136177000Y-78720500D01*
G75*
G02*
X136414500Y-78483000I237500J0D01*
G01*
G37*
G04 #@! TD.AperFunction*
G04 #@! TA.AperFunction,SMDPad,CuDef*
G36*
G01*
X136414500Y-80233000D02*
X136889500Y-80233000D01*
G75*
G02*
X137127000Y-80470500I0J-237500D01*
G01*
X137127000Y-81045500D01*
G75*
G02*
X136889500Y-81283000I-237500J0D01*
G01*
X136414500Y-81283000D01*
G75*
G02*
X136177000Y-81045500I0J237500D01*
G01*
X136177000Y-80470500D01*
G75*
G02*
X136414500Y-80233000I237500J0D01*
G01*
G37*
G04 #@! TD.AperFunction*
G04 #@! TA.AperFunction,SMDPad,CuDef*
G36*
G01*
X138827500Y-72895000D02*
X139302500Y-72895000D01*
G75*
G02*
X139540000Y-73132500I0J-237500D01*
G01*
X139540000Y-73707500D01*
G75*
G02*
X139302500Y-73945000I-237500J0D01*
G01*
X138827500Y-73945000D01*
G75*
G02*
X138590000Y-73707500I0J237500D01*
G01*
X138590000Y-73132500D01*
G75*
G02*
X138827500Y-72895000I237500J0D01*
G01*
G37*
G04 #@! TD.AperFunction*
G04 #@! TA.AperFunction,SMDPad,CuDef*
G36*
G01*
X138827500Y-74645000D02*
X139302500Y-74645000D01*
G75*
G02*
X139540000Y-74882500I0J-237500D01*
G01*
X139540000Y-75457500D01*
G75*
G02*
X139302500Y-75695000I-237500J0D01*
G01*
X138827500Y-75695000D01*
G75*
G02*
X138590000Y-75457500I0J237500D01*
G01*
X138590000Y-74882500D01*
G75*
G02*
X138827500Y-74645000I237500J0D01*
G01*
G37*
G04 #@! TD.AperFunction*
G04 #@! TA.AperFunction,SMDPad,CuDef*
G36*
G01*
X140050000Y-77453500D02*
X140050000Y-76978500D01*
G75*
G02*
X140287500Y-76741000I237500J0D01*
G01*
X140862500Y-76741000D01*
G75*
G02*
X141100000Y-76978500I0J-237500D01*
G01*
X141100000Y-77453500D01*
G75*
G02*
X140862500Y-77691000I-237500J0D01*
G01*
X140287500Y-77691000D01*
G75*
G02*
X140050000Y-77453500I0J237500D01*
G01*
G37*
G04 #@! TD.AperFunction*
G04 #@! TA.AperFunction,SMDPad,CuDef*
G36*
G01*
X138300000Y-77453500D02*
X138300000Y-76978500D01*
G75*
G02*
X138537500Y-76741000I237500J0D01*
G01*
X139112500Y-76741000D01*
G75*
G02*
X139350000Y-76978500I0J-237500D01*
G01*
X139350000Y-77453500D01*
G75*
G02*
X139112500Y-77691000I-237500J0D01*
G01*
X138537500Y-77691000D01*
G75*
G02*
X138300000Y-77453500I0J237500D01*
G01*
G37*
G04 #@! TD.AperFunction*
G04 #@! TA.AperFunction,SMDPad,CuDef*
G36*
G01*
X142002500Y-76832000D02*
X142477500Y-76832000D01*
G75*
G02*
X142715000Y-77069500I0J-237500D01*
G01*
X142715000Y-77644500D01*
G75*
G02*
X142477500Y-77882000I-237500J0D01*
G01*
X142002500Y-77882000D01*
G75*
G02*
X141765000Y-77644500I0J237500D01*
G01*
X141765000Y-77069500D01*
G75*
G02*
X142002500Y-76832000I237500J0D01*
G01*
G37*
G04 #@! TD.AperFunction*
G04 #@! TA.AperFunction,SMDPad,CuDef*
G36*
G01*
X142002500Y-78582000D02*
X142477500Y-78582000D01*
G75*
G02*
X142715000Y-78819500I0J-237500D01*
G01*
X142715000Y-79394500D01*
G75*
G02*
X142477500Y-79632000I-237500J0D01*
G01*
X142002500Y-79632000D01*
G75*
G02*
X141765000Y-79394500I0J237500D01*
G01*
X141765000Y-78819500D01*
G75*
G02*
X142002500Y-78582000I237500J0D01*
G01*
G37*
G04 #@! TD.AperFunction*
G04 #@! TA.AperFunction,SMDPad,CuDef*
G36*
G01*
X150718000Y-77453500D02*
X150718000Y-76978500D01*
G75*
G02*
X150955500Y-76741000I237500J0D01*
G01*
X151530500Y-76741000D01*
G75*
G02*
X151768000Y-76978500I0J-237500D01*
G01*
X151768000Y-77453500D01*
G75*
G02*
X151530500Y-77691000I-237500J0D01*
G01*
X150955500Y-77691000D01*
G75*
G02*
X150718000Y-77453500I0J237500D01*
G01*
G37*
G04 #@! TD.AperFunction*
G04 #@! TA.AperFunction,SMDPad,CuDef*
G36*
G01*
X148968000Y-77453500D02*
X148968000Y-76978500D01*
G75*
G02*
X149205500Y-76741000I237500J0D01*
G01*
X149780500Y-76741000D01*
G75*
G02*
X150018000Y-76978500I0J-237500D01*
G01*
X150018000Y-77453500D01*
G75*
G02*
X149780500Y-77691000I-237500J0D01*
G01*
X149205500Y-77691000D01*
G75*
G02*
X148968000Y-77453500I0J237500D01*
G01*
G37*
G04 #@! TD.AperFunction*
G04 #@! TA.AperFunction,SMDPad,CuDef*
G36*
G01*
X149114500Y-80183000D02*
X149589500Y-80183000D01*
G75*
G02*
X149827000Y-80420500I0J-237500D01*
G01*
X149827000Y-80995500D01*
G75*
G02*
X149589500Y-81233000I-237500J0D01*
G01*
X149114500Y-81233000D01*
G75*
G02*
X148877000Y-80995500I0J237500D01*
G01*
X148877000Y-80420500D01*
G75*
G02*
X149114500Y-80183000I237500J0D01*
G01*
G37*
G04 #@! TD.AperFunction*
G04 #@! TA.AperFunction,SMDPad,CuDef*
G36*
G01*
X149114500Y-78433000D02*
X149589500Y-78433000D01*
G75*
G02*
X149827000Y-78670500I0J-237500D01*
G01*
X149827000Y-79245500D01*
G75*
G02*
X149589500Y-79483000I-237500J0D01*
G01*
X149114500Y-79483000D01*
G75*
G02*
X148877000Y-79245500I0J237500D01*
G01*
X148877000Y-78670500D01*
G75*
G02*
X149114500Y-78433000I237500J0D01*
G01*
G37*
G04 #@! TD.AperFunction*
G04 #@! TA.AperFunction,SMDPad,CuDef*
G36*
G01*
X149435500Y-61640000D02*
X148960500Y-61640000D01*
G75*
G02*
X148723000Y-61402500I0J237500D01*
G01*
X148723000Y-60827500D01*
G75*
G02*
X148960500Y-60590000I237500J0D01*
G01*
X149435500Y-60590000D01*
G75*
G02*
X149673000Y-60827500I0J-237500D01*
G01*
X149673000Y-61402500D01*
G75*
G02*
X149435500Y-61640000I-237500J0D01*
G01*
G37*
G04 #@! TD.AperFunction*
G04 #@! TA.AperFunction,SMDPad,CuDef*
G36*
G01*
X149435500Y-63390000D02*
X148960500Y-63390000D01*
G75*
G02*
X148723000Y-63152500I0J237500D01*
G01*
X148723000Y-62577500D01*
G75*
G02*
X148960500Y-62340000I237500J0D01*
G01*
X149435500Y-62340000D01*
G75*
G02*
X149673000Y-62577500I0J-237500D01*
G01*
X149673000Y-63152500D01*
G75*
G02*
X149435500Y-63390000I-237500J0D01*
G01*
G37*
G04 #@! TD.AperFunction*
G04 #@! TA.AperFunction,SMDPad,CuDef*
G36*
G01*
X148714000Y-59673500D02*
X148714000Y-59198500D01*
G75*
G02*
X148951500Y-58961000I237500J0D01*
G01*
X149526500Y-58961000D01*
G75*
G02*
X149764000Y-59198500I0J-237500D01*
G01*
X149764000Y-59673500D01*
G75*
G02*
X149526500Y-59911000I-237500J0D01*
G01*
X148951500Y-59911000D01*
G75*
G02*
X148714000Y-59673500I0J237500D01*
G01*
G37*
G04 #@! TD.AperFunction*
G04 #@! TA.AperFunction,SMDPad,CuDef*
G36*
G01*
X150464000Y-59673500D02*
X150464000Y-59198500D01*
G75*
G02*
X150701500Y-58961000I237500J0D01*
G01*
X151276500Y-58961000D01*
G75*
G02*
X151514000Y-59198500I0J-237500D01*
G01*
X151514000Y-59673500D01*
G75*
G02*
X151276500Y-59911000I-237500J0D01*
G01*
X150701500Y-59911000D01*
G75*
G02*
X150464000Y-59673500I0J237500D01*
G01*
G37*
G04 #@! TD.AperFunction*
G04 #@! TA.AperFunction,SMDPad,CuDef*
G36*
G01*
X151275500Y-66850000D02*
X150800500Y-66850000D01*
G75*
G02*
X150563000Y-66612500I0J237500D01*
G01*
X150563000Y-66037500D01*
G75*
G02*
X150800500Y-65800000I237500J0D01*
G01*
X151275500Y-65800000D01*
G75*
G02*
X151513000Y-66037500I0J-237500D01*
G01*
X151513000Y-66612500D01*
G75*
G02*
X151275500Y-66850000I-237500J0D01*
G01*
G37*
G04 #@! TD.AperFunction*
G04 #@! TA.AperFunction,SMDPad,CuDef*
G36*
G01*
X151275500Y-65100000D02*
X150800500Y-65100000D01*
G75*
G02*
X150563000Y-64862500I0J237500D01*
G01*
X150563000Y-64287500D01*
G75*
G02*
X150800500Y-64050000I237500J0D01*
G01*
X151275500Y-64050000D01*
G75*
G02*
X151513000Y-64287500I0J-237500D01*
G01*
X151513000Y-64862500D01*
G75*
G02*
X151275500Y-65100000I-237500J0D01*
G01*
G37*
G04 #@! TD.AperFunction*
G04 #@! TA.AperFunction,SMDPad,CuDef*
G36*
G01*
X147704000Y-76978500D02*
X147704000Y-77453500D01*
G75*
G02*
X147466500Y-77691000I-237500J0D01*
G01*
X146891500Y-77691000D01*
G75*
G02*
X146654000Y-77453500I0J237500D01*
G01*
X146654000Y-76978500D01*
G75*
G02*
X146891500Y-76741000I237500J0D01*
G01*
X147466500Y-76741000D01*
G75*
G02*
X147704000Y-76978500I0J-237500D01*
G01*
G37*
G04 #@! TD.AperFunction*
G04 #@! TA.AperFunction,SMDPad,CuDef*
G36*
G01*
X145954000Y-76978500D02*
X145954000Y-77453500D01*
G75*
G02*
X145716500Y-77691000I-237500J0D01*
G01*
X145141500Y-77691000D01*
G75*
G02*
X144904000Y-77453500I0J237500D01*
G01*
X144904000Y-76978500D01*
G75*
G02*
X145141500Y-76741000I237500J0D01*
G01*
X145716500Y-76741000D01*
G75*
G02*
X145954000Y-76978500I0J-237500D01*
G01*
G37*
G04 #@! TD.AperFunction*
G04 #@! TA.AperFunction,SMDPad,CuDef*
G36*
G01*
X143526500Y-78582000D02*
X144001500Y-78582000D01*
G75*
G02*
X144239000Y-78819500I0J-237500D01*
G01*
X144239000Y-79394500D01*
G75*
G02*
X144001500Y-79632000I-237500J0D01*
G01*
X143526500Y-79632000D01*
G75*
G02*
X143289000Y-79394500I0J237500D01*
G01*
X143289000Y-78819500D01*
G75*
G02*
X143526500Y-78582000I237500J0D01*
G01*
G37*
G04 #@! TD.AperFunction*
G04 #@! TA.AperFunction,SMDPad,CuDef*
G36*
G01*
X143526500Y-76832000D02*
X144001500Y-76832000D01*
G75*
G02*
X144239000Y-77069500I0J-237500D01*
G01*
X144239000Y-77644500D01*
G75*
G02*
X144001500Y-77882000I-237500J0D01*
G01*
X143526500Y-77882000D01*
G75*
G02*
X143289000Y-77644500I0J237500D01*
G01*
X143289000Y-77069500D01*
G75*
G02*
X143526500Y-76832000I237500J0D01*
G01*
G37*
G04 #@! TD.AperFunction*
D12*
X141775000Y-73345000D03*
X141775000Y-74295000D03*
X141775000Y-75245000D03*
X143975000Y-75245000D03*
X143975000Y-73345000D03*
D13*
X138823000Y-71273000D03*
X139323000Y-71273000D03*
X139823000Y-71273000D03*
X140323000Y-71273000D03*
X140323000Y-68173000D03*
X139823000Y-68173000D03*
X139323000Y-68173000D03*
X138823000Y-68173000D03*
D12*
X141140000Y-61402000D03*
X141140000Y-59502000D03*
X143340000Y-59502000D03*
X143340000Y-60452000D03*
X143340000Y-61402000D03*
D14*
X135636000Y-65786000D03*
D15*
X135636000Y-63246000D03*
X135636000Y-60706000D03*
X135636000Y-58166000D03*
D16*
X135636000Y-68850000D03*
X136586000Y-70850000D03*
X134686000Y-70850000D03*
X134686000Y-75168000D03*
X136586000Y-75168000D03*
X135636000Y-73168000D03*
X138750000Y-80756000D03*
X140650000Y-80756000D03*
X139700000Y-78756000D03*
X150114000Y-68850000D03*
X151064000Y-70850000D03*
X149164000Y-70850000D03*
X149164000Y-75168000D03*
X151064000Y-75168000D03*
X150114000Y-73168000D03*
X146304000Y-78756000D03*
X147254000Y-80756000D03*
X145354000Y-80756000D03*
G04 #@! TA.AperFunction,SMDPad,CuDef*
G36*
G01*
X139175500Y-61598000D02*
X138700500Y-61598000D01*
G75*
G02*
X138463000Y-61360500I0J237500D01*
G01*
X138463000Y-60785500D01*
G75*
G02*
X138700500Y-60548000I237500J0D01*
G01*
X139175500Y-60548000D01*
G75*
G02*
X139413000Y-60785500I0J-237500D01*
G01*
X139413000Y-61360500D01*
G75*
G02*
X139175500Y-61598000I-237500J0D01*
G01*
G37*
G04 #@! TD.AperFunction*
G04 #@! TA.AperFunction,SMDPad,CuDef*
G36*
G01*
X139175500Y-59848000D02*
X138700500Y-59848000D01*
G75*
G02*
X138463000Y-59610500I0J237500D01*
G01*
X138463000Y-59035500D01*
G75*
G02*
X138700500Y-58798000I237500J0D01*
G01*
X139175500Y-58798000D01*
G75*
G02*
X139413000Y-59035500I0J-237500D01*
G01*
X139413000Y-59610500D01*
G75*
G02*
X139175500Y-59848000I-237500J0D01*
G01*
G37*
G04 #@! TD.AperFunction*
D17*
X147600000Y-60800000D03*
X142000000Y-62900000D03*
X152300000Y-56200000D03*
X142300000Y-57800000D03*
X133500000Y-56000000D03*
X133500000Y-82000000D03*
X152600000Y-81900000D03*
X137200000Y-62200000D03*
X137200000Y-64400000D03*
X133800000Y-62200000D03*
X133800000Y-64400000D03*
X152400000Y-59400000D03*
X145600000Y-64900000D03*
X142100000Y-72100000D03*
X137400000Y-73600000D03*
X140800000Y-82100000D03*
X142300000Y-80500000D03*
X143800000Y-80500000D03*
X147300000Y-82000000D03*
X152500000Y-75200000D03*
X145400000Y-75300000D03*
X148100000Y-72100000D03*
X142000000Y-60400000D03*
X144900000Y-67800000D03*
X148200000Y-76100000D03*
X138200000Y-79000000D03*
X140323000Y-69862000D03*
X141100000Y-67400000D03*
X137527000Y-77357000D03*
X148195000Y-77357000D03*
D18*
X139823000Y-68173000D02*
X139323000Y-68173000D01*
X139323000Y-68173000D02*
X138823000Y-68173000D01*
D19*
X146610000Y-73345000D02*
X146685000Y-73420000D01*
X143975000Y-73345000D02*
X146610000Y-73345000D01*
D18*
X139823000Y-68173000D02*
X139823000Y-68703000D01*
X142062999Y-68898001D02*
X142113000Y-68848000D01*
X140018001Y-68898001D02*
X142062999Y-68898001D01*
X139823000Y-68703000D02*
X140018001Y-68898001D01*
D19*
X140961000Y-61581000D02*
X141140000Y-61402000D01*
X140961000Y-64516000D02*
X140961000Y-61581000D01*
D20*
X140673000Y-64804000D02*
X140961000Y-64516000D01*
X138938000Y-62983000D02*
X138938000Y-61073000D01*
D19*
X139267000Y-61402000D02*
X138938000Y-61073000D01*
X141140000Y-61402000D02*
X139267000Y-61402000D01*
D20*
X138571000Y-60706000D02*
X138938000Y-61073000D01*
X135636000Y-60706000D02*
X138571000Y-60706000D01*
D19*
X142113000Y-68848000D02*
X142762000Y-68848000D01*
X143975000Y-70061000D02*
X143975000Y-73345000D01*
X142762000Y-68848000D02*
X143975000Y-70061000D01*
D20*
X140961000Y-64516000D02*
X140961000Y-65777000D01*
X142113000Y-66929000D02*
X142113000Y-68848000D01*
X140961000Y-65777000D02*
X142113000Y-66929000D01*
D18*
X140323000Y-71273000D02*
X140323000Y-69862000D01*
X140323000Y-71273000D02*
X140323000Y-72378000D01*
X140323000Y-69862000D02*
X140323000Y-69862000D01*
D20*
X134620000Y-80758000D02*
X136652000Y-80758000D01*
X136735000Y-80675000D02*
X136652000Y-80758000D01*
D19*
X136654000Y-80756000D02*
X136652000Y-80758000D01*
X138750000Y-80756000D02*
X136654000Y-80756000D01*
D20*
X134620000Y-77357000D02*
X134761000Y-77216000D01*
X134620000Y-79008000D02*
X134620000Y-77357000D01*
X134686000Y-77141000D02*
X134761000Y-77216000D01*
D19*
X136586000Y-72218000D02*
X135636000Y-73168000D01*
X136586000Y-70850000D02*
X136586000Y-72218000D01*
X135636000Y-76341000D02*
X134761000Y-77216000D01*
X135636000Y-73168000D02*
X135636000Y-76341000D01*
D20*
X151384000Y-77357000D02*
X151243000Y-77216000D01*
X151384000Y-78958000D02*
X151384000Y-77357000D01*
D19*
X151414201Y-77044799D02*
X151243000Y-77216000D01*
X151064000Y-72218000D02*
X150114000Y-73168000D01*
X151064000Y-70850000D02*
X151064000Y-72218000D01*
X151243000Y-76922762D02*
X151243000Y-77216000D01*
X150114000Y-75793762D02*
X151243000Y-76922762D01*
X150114000Y-73168000D02*
X150114000Y-75793762D01*
D20*
X149319000Y-80675000D02*
X149352000Y-80708000D01*
X149352000Y-80708000D02*
X151384000Y-80708000D01*
D19*
X148546799Y-79902799D02*
X149352000Y-80708000D01*
X146207201Y-79902799D02*
X148546799Y-79902799D01*
X145354000Y-80756000D02*
X146207201Y-79902799D01*
D20*
X149208000Y-62855000D02*
X149198000Y-62865000D01*
X151041583Y-62855000D02*
X149208000Y-62855000D01*
X148943000Y-62610000D02*
X149198000Y-62865000D01*
X146558000Y-62610000D02*
X148943000Y-62610000D01*
X151038000Y-62855000D02*
X151038000Y-64575000D01*
X143340000Y-59502000D02*
X143340000Y-59098000D01*
X143340000Y-59098000D02*
X144526000Y-57912000D01*
X147715000Y-57912000D02*
X149239000Y-59436000D01*
X144526000Y-57912000D02*
X147715000Y-57912000D01*
X149239000Y-61074000D02*
X149198000Y-61115000D01*
X149239000Y-59436000D02*
X149239000Y-61074000D01*
X151031583Y-61115000D02*
X151041583Y-61105000D01*
X149198000Y-61115000D02*
X151031583Y-61115000D01*
X136652000Y-79008000D02*
X136652000Y-77357000D01*
X136652000Y-77357000D02*
X136511000Y-77216000D01*
X149352000Y-77357000D02*
X149493000Y-77216000D01*
X149352000Y-78958000D02*
X149352000Y-77357000D01*
X137527000Y-77357000D02*
X136652000Y-77357000D01*
X148195000Y-77357000D02*
X149352000Y-77357000D01*
X149123000Y-65020000D02*
X149123000Y-65430000D01*
X150018000Y-66325000D02*
X151038000Y-66325000D01*
X149123000Y-65430000D02*
X150018000Y-66325000D01*
X149123000Y-65507000D02*
X147066000Y-67564000D01*
X149123000Y-65020000D02*
X149123000Y-65507000D01*
X138684000Y-77357000D02*
X138825000Y-77216000D01*
X137527000Y-77357000D02*
X138684000Y-77357000D01*
X147320000Y-77357000D02*
X147179000Y-77216000D01*
X148195000Y-77357000D02*
X147320000Y-77357000D01*
X144466000Y-61402000D02*
X146558000Y-59310000D01*
X143340000Y-61402000D02*
X144466000Y-61402000D01*
D19*
X143011000Y-61731000D02*
X143340000Y-61402000D01*
X143011000Y-64516000D02*
X143011000Y-61731000D01*
D18*
X140323000Y-68173000D02*
X140323000Y-67171000D01*
X140323000Y-67171000D02*
X139954000Y-66802000D01*
X136652000Y-66802000D02*
X135636000Y-65786000D01*
X139954000Y-66802000D02*
X136652000Y-66802000D01*
D19*
X134686000Y-75168000D02*
X134686000Y-70850000D01*
X140575000Y-77216000D02*
X142099000Y-77216000D01*
X140575000Y-77881000D02*
X139700000Y-78756000D01*
X140575000Y-77216000D02*
X140575000Y-77881000D01*
X142240000Y-75710000D02*
X141775000Y-75245000D01*
X142240000Y-77357000D02*
X142240000Y-75710000D01*
X143764000Y-75456000D02*
X143975000Y-75245000D01*
X143764000Y-77357000D02*
X143764000Y-75456000D01*
X143905000Y-77216000D02*
X143764000Y-77357000D01*
X145429000Y-77216000D02*
X143905000Y-77216000D01*
X145429000Y-77881000D02*
X146304000Y-78756000D01*
X145429000Y-77216000D02*
X145429000Y-77881000D01*
X139140000Y-73345000D02*
X139065000Y-73420000D01*
D18*
X138823000Y-73178000D02*
X139065000Y-73420000D01*
X138823000Y-71273000D02*
X138823000Y-73178000D01*
X139063000Y-75172000D02*
X139065000Y-75170000D01*
D20*
X140890000Y-73345000D02*
X139065000Y-75170000D01*
X141775000Y-73345000D02*
X140890000Y-73345000D01*
D18*
X139823000Y-71273000D02*
X139323000Y-71273000D01*
D19*
X139117000Y-59502000D02*
X138938000Y-59323000D01*
X141140000Y-59502000D02*
X139117000Y-59502000D01*
D20*
X137781000Y-58166000D02*
X138938000Y-59323000D01*
X135636000Y-58166000D02*
X137781000Y-58166000D01*
D19*
X149164000Y-70850000D02*
X149164000Y-75168000D01*
D21*
X152614994Y-55419222D02*
X152725614Y-55452620D01*
X152827639Y-55506868D01*
X152917179Y-55579895D01*
X152990833Y-55668925D01*
X153045792Y-55770572D01*
X153079960Y-55880949D01*
X153094000Y-56014528D01*
X153094001Y-81980136D01*
X153080778Y-82114994D01*
X153047379Y-82225615D01*
X152993132Y-82327639D01*
X152920106Y-82417179D01*
X152831072Y-82490834D01*
X152729428Y-82545792D01*
X152619051Y-82579960D01*
X152485472Y-82594000D01*
X133519854Y-82594000D01*
X133385006Y-82580778D01*
X133274385Y-82547379D01*
X133172361Y-82493132D01*
X133082821Y-82420106D01*
X133009166Y-82331072D01*
X132954208Y-82229428D01*
X132920040Y-82119051D01*
X132906000Y-81985472D01*
X132906000Y-78720500D01*
X133762157Y-78720500D01*
X133762157Y-79295500D01*
X133774077Y-79416523D01*
X133809378Y-79532895D01*
X133866704Y-79640144D01*
X133943851Y-79734149D01*
X134037856Y-79811296D01*
X134145105Y-79868622D01*
X134192503Y-79883000D01*
X134145105Y-79897378D01*
X134037856Y-79954704D01*
X133943851Y-80031851D01*
X133866704Y-80125856D01*
X133809378Y-80233105D01*
X133774077Y-80349477D01*
X133762157Y-80470500D01*
X133762157Y-81045500D01*
X133774077Y-81166523D01*
X133809378Y-81282895D01*
X133866704Y-81390144D01*
X133943851Y-81484149D01*
X134037856Y-81561296D01*
X134145105Y-81618622D01*
X134261477Y-81653923D01*
X134382500Y-81665843D01*
X134857500Y-81665843D01*
X134978523Y-81653923D01*
X135094895Y-81618622D01*
X135202144Y-81561296D01*
X135296149Y-81484149D01*
X135329262Y-81443800D01*
X135942738Y-81443800D01*
X135975851Y-81484149D01*
X136069856Y-81561296D01*
X136177105Y-81618622D01*
X136293477Y-81653923D01*
X136414500Y-81665843D01*
X136889500Y-81665843D01*
X137010523Y-81653923D01*
X137126895Y-81618622D01*
X137234144Y-81561296D01*
X137328149Y-81484149D01*
X137405296Y-81390144D01*
X137431992Y-81340200D01*
X137992565Y-81340200D01*
X137996299Y-81352508D01*
X138031678Y-81418696D01*
X138079289Y-81476711D01*
X138137304Y-81524322D01*
X138203492Y-81559701D01*
X138275311Y-81581487D01*
X138350000Y-81588843D01*
X139150000Y-81588843D01*
X139224689Y-81581487D01*
X139296508Y-81559701D01*
X139362696Y-81524322D01*
X139420711Y-81476711D01*
X139468322Y-81418696D01*
X139503701Y-81352508D01*
X139525487Y-81280689D01*
X139532843Y-81206000D01*
X139611928Y-81206000D01*
X139624188Y-81330482D01*
X139660498Y-81450180D01*
X139719463Y-81560494D01*
X139798815Y-81657185D01*
X139895506Y-81736537D01*
X140005820Y-81795502D01*
X140125518Y-81831812D01*
X140250000Y-81844072D01*
X140364250Y-81841000D01*
X140523000Y-81682250D01*
X140523000Y-80883000D01*
X140777000Y-80883000D01*
X140777000Y-81682250D01*
X140935750Y-81841000D01*
X141050000Y-81844072D01*
X141174482Y-81831812D01*
X141294180Y-81795502D01*
X141404494Y-81736537D01*
X141501185Y-81657185D01*
X141580537Y-81560494D01*
X141639502Y-81450180D01*
X141675812Y-81330482D01*
X141688072Y-81206000D01*
X141685000Y-81041750D01*
X141526250Y-80883000D01*
X140777000Y-80883000D01*
X140523000Y-80883000D01*
X139773750Y-80883000D01*
X139615000Y-81041750D01*
X139611928Y-81206000D01*
X139532843Y-81206000D01*
X139532843Y-80306000D01*
X139611928Y-80306000D01*
X139615000Y-80470250D01*
X139773750Y-80629000D01*
X140523000Y-80629000D01*
X140523000Y-79829750D01*
X140777000Y-79829750D01*
X140777000Y-80629000D01*
X141526250Y-80629000D01*
X141685000Y-80470250D01*
X141688072Y-80306000D01*
X141683745Y-80262069D01*
X141765000Y-80270072D01*
X141954250Y-80267000D01*
X142113000Y-80108250D01*
X142113000Y-79234000D01*
X142367000Y-79234000D01*
X142367000Y-80108250D01*
X142525750Y-80267000D01*
X142715000Y-80270072D01*
X142839482Y-80257812D01*
X142959180Y-80221502D01*
X143002000Y-80198614D01*
X143044820Y-80221502D01*
X143164518Y-80257812D01*
X143289000Y-80270072D01*
X143478250Y-80267000D01*
X143637000Y-80108250D01*
X143637000Y-79234000D01*
X142367000Y-79234000D01*
X142113000Y-79234000D01*
X141288750Y-79234000D01*
X141130000Y-79392750D01*
X141126928Y-79632000D01*
X141131255Y-79675931D01*
X141050000Y-79667928D01*
X140935750Y-79671000D01*
X140777000Y-79829750D01*
X140523000Y-79829750D01*
X140364250Y-79671000D01*
X140250000Y-79667928D01*
X140125518Y-79680188D01*
X140005820Y-79716498D01*
X139895506Y-79775463D01*
X139798815Y-79854815D01*
X139719463Y-79951506D01*
X139660498Y-80061820D01*
X139624188Y-80181518D01*
X139611928Y-80306000D01*
X139532843Y-80306000D01*
X139525487Y-80231311D01*
X139503701Y-80159492D01*
X139468322Y-80093304D01*
X139420711Y-80035289D01*
X139362696Y-79987678D01*
X139296508Y-79952299D01*
X139224689Y-79930513D01*
X139150000Y-79923157D01*
X138350000Y-79923157D01*
X138275311Y-79930513D01*
X138203492Y-79952299D01*
X138137304Y-79987678D01*
X138079289Y-80035289D01*
X138031678Y-80093304D01*
X137996299Y-80159492D01*
X137992565Y-80171800D01*
X137429854Y-80171800D01*
X137405296Y-80125856D01*
X137328149Y-80031851D01*
X137234144Y-79954704D01*
X137126895Y-79897378D01*
X137079497Y-79883000D01*
X137126895Y-79868622D01*
X137234144Y-79811296D01*
X137328149Y-79734149D01*
X137405296Y-79640144D01*
X137462622Y-79532895D01*
X137497923Y-79416523D01*
X137509843Y-79295500D01*
X137509843Y-78720500D01*
X137497923Y-78599477D01*
X137462622Y-78483105D01*
X137405296Y-78375856D01*
X137337800Y-78293611D01*
X137337800Y-78115667D01*
X137450078Y-78138000D01*
X137603922Y-78138000D01*
X137754809Y-78107987D01*
X137896942Y-78049113D01*
X137906390Y-78042800D01*
X138353437Y-78042800D01*
X138416477Y-78061923D01*
X138537500Y-78073843D01*
X138997649Y-78073843D01*
X138981678Y-78093304D01*
X138946299Y-78159492D01*
X138924513Y-78231311D01*
X138917157Y-78306000D01*
X138917157Y-79206000D01*
X138924513Y-79280689D01*
X138946299Y-79352508D01*
X138981678Y-79418696D01*
X139029289Y-79476711D01*
X139087304Y-79524322D01*
X139153492Y-79559701D01*
X139225311Y-79581487D01*
X139300000Y-79588843D01*
X140100000Y-79588843D01*
X140174689Y-79581487D01*
X140246508Y-79559701D01*
X140312696Y-79524322D01*
X140370711Y-79476711D01*
X140418322Y-79418696D01*
X140453701Y-79352508D01*
X140475487Y-79280689D01*
X140482843Y-79206000D01*
X140482843Y-78799340D01*
X140967806Y-78314378D01*
X140990090Y-78296090D01*
X141008381Y-78273803D01*
X141042809Y-78231851D01*
X141063094Y-78207134D01*
X141117341Y-78105645D01*
X141149327Y-78000200D01*
X141207144Y-77969296D01*
X141301149Y-77892149D01*
X141376609Y-77800200D01*
X141404596Y-77800200D01*
X141429378Y-77881895D01*
X141486704Y-77989144D01*
X141499020Y-78004151D01*
X141410506Y-78051463D01*
X141313815Y-78130815D01*
X141234463Y-78227506D01*
X141175498Y-78337820D01*
X141139188Y-78457518D01*
X141126928Y-78582000D01*
X141130000Y-78821250D01*
X141288750Y-78980000D01*
X142113000Y-78980000D01*
X142113000Y-78960000D01*
X142367000Y-78960000D01*
X142367000Y-78980000D01*
X143637000Y-78980000D01*
X143637000Y-78960000D01*
X143891000Y-78960000D01*
X143891000Y-78980000D01*
X144715250Y-78980000D01*
X144874000Y-78821250D01*
X144877072Y-78582000D01*
X144864812Y-78457518D01*
X144828502Y-78337820D01*
X144769537Y-78227506D01*
X144690185Y-78130815D01*
X144593494Y-78051463D01*
X144504980Y-78004151D01*
X144517296Y-77989144D01*
X144574622Y-77881895D01*
X144599404Y-77800200D01*
X144627391Y-77800200D01*
X144702851Y-77892149D01*
X144796856Y-77969296D01*
X144854673Y-78000200D01*
X144886659Y-78105645D01*
X144940907Y-78207134D01*
X144961192Y-78231851D01*
X144995620Y-78273803D01*
X144995621Y-78273804D01*
X145013911Y-78296090D01*
X145036194Y-78314377D01*
X145521157Y-78799341D01*
X145521157Y-79206000D01*
X145528513Y-79280689D01*
X145550299Y-79352508D01*
X145585678Y-79418696D01*
X145633289Y-79476711D01*
X145691304Y-79524322D01*
X145735742Y-79548075D01*
X145360660Y-79923157D01*
X144954000Y-79923157D01*
X144879311Y-79930513D01*
X144807492Y-79952299D01*
X144779944Y-79967024D01*
X144828502Y-79876180D01*
X144864812Y-79756482D01*
X144877072Y-79632000D01*
X144874000Y-79392750D01*
X144715250Y-79234000D01*
X143891000Y-79234000D01*
X143891000Y-80108250D01*
X144049750Y-80267000D01*
X144239000Y-80270072D01*
X144363482Y-80257812D01*
X144483180Y-80221502D01*
X144593494Y-80162537D01*
X144602717Y-80154968D01*
X144600299Y-80159492D01*
X144578513Y-80231311D01*
X144571157Y-80306000D01*
X144571157Y-81206000D01*
X144578513Y-81280689D01*
X144600299Y-81352508D01*
X144635678Y-81418696D01*
X144683289Y-81476711D01*
X144741304Y-81524322D01*
X144807492Y-81559701D01*
X144879311Y-81581487D01*
X144954000Y-81588843D01*
X145754000Y-81588843D01*
X145828689Y-81581487D01*
X145900508Y-81559701D01*
X145966696Y-81524322D01*
X146024711Y-81476711D01*
X146072322Y-81418696D01*
X146107701Y-81352508D01*
X146129487Y-81280689D01*
X146136843Y-81206000D01*
X146215928Y-81206000D01*
X146228188Y-81330482D01*
X146264498Y-81450180D01*
X146323463Y-81560494D01*
X146402815Y-81657185D01*
X146499506Y-81736537D01*
X146609820Y-81795502D01*
X146729518Y-81831812D01*
X146854000Y-81844072D01*
X146968250Y-81841000D01*
X147127000Y-81682250D01*
X147127000Y-80883000D01*
X147381000Y-80883000D01*
X147381000Y-81682250D01*
X147539750Y-81841000D01*
X147654000Y-81844072D01*
X147778482Y-81831812D01*
X147898180Y-81795502D01*
X148008494Y-81736537D01*
X148105185Y-81657185D01*
X148184537Y-81560494D01*
X148243502Y-81450180D01*
X148279812Y-81330482D01*
X148292072Y-81206000D01*
X148289000Y-81041750D01*
X148130250Y-80883000D01*
X147381000Y-80883000D01*
X147127000Y-80883000D01*
X146377750Y-80883000D01*
X146219000Y-81041750D01*
X146215928Y-81206000D01*
X146136843Y-81206000D01*
X146136843Y-80799340D01*
X146342467Y-80593717D01*
X146377750Y-80629000D01*
X147127000Y-80629000D01*
X147127000Y-80609000D01*
X147381000Y-80609000D01*
X147381000Y-80629000D01*
X148130250Y-80629000D01*
X148272251Y-80486999D01*
X148304816Y-80486999D01*
X148494157Y-80676340D01*
X148494157Y-80995500D01*
X148506077Y-81116523D01*
X148541378Y-81232895D01*
X148598704Y-81340144D01*
X148675851Y-81434149D01*
X148769856Y-81511296D01*
X148877105Y-81568622D01*
X148993477Y-81603923D01*
X149114500Y-81615843D01*
X149589500Y-81615843D01*
X149710523Y-81603923D01*
X149826895Y-81568622D01*
X149934144Y-81511296D01*
X150028149Y-81434149D01*
X150061262Y-81393800D01*
X150674738Y-81393800D01*
X150707851Y-81434149D01*
X150801856Y-81511296D01*
X150909105Y-81568622D01*
X151025477Y-81603923D01*
X151146500Y-81615843D01*
X151621500Y-81615843D01*
X151742523Y-81603923D01*
X151858895Y-81568622D01*
X151966144Y-81511296D01*
X152060149Y-81434149D01*
X152137296Y-81340144D01*
X152194622Y-81232895D01*
X152229923Y-81116523D01*
X152241843Y-80995500D01*
X152241843Y-80420500D01*
X152229923Y-80299477D01*
X152194622Y-80183105D01*
X152137296Y-80075856D01*
X152060149Y-79981851D01*
X151966144Y-79904704D01*
X151858895Y-79847378D01*
X151811497Y-79833000D01*
X151858895Y-79818622D01*
X151966144Y-79761296D01*
X152060149Y-79684149D01*
X152137296Y-79590144D01*
X152194622Y-79482895D01*
X152229923Y-79366523D01*
X152241843Y-79245500D01*
X152241843Y-78670500D01*
X152229923Y-78549477D01*
X152194622Y-78433105D01*
X152137296Y-78325856D01*
X152069800Y-78243611D01*
X152069800Y-77754171D01*
X152103622Y-77690895D01*
X152138923Y-77574523D01*
X152150843Y-77453500D01*
X152150843Y-76978500D01*
X152138923Y-76857477D01*
X152103622Y-76741105D01*
X152046296Y-76633856D01*
X151969149Y-76539851D01*
X151875144Y-76462704D01*
X151767895Y-76405378D01*
X151651523Y-76370077D01*
X151530500Y-76358157D01*
X151504579Y-76358157D01*
X151400794Y-76254372D01*
X151464000Y-76256072D01*
X151588482Y-76243812D01*
X151708180Y-76207502D01*
X151818494Y-76148537D01*
X151915185Y-76069185D01*
X151994537Y-75972494D01*
X152053502Y-75862180D01*
X152089812Y-75742482D01*
X152102072Y-75618000D01*
X152099000Y-75453750D01*
X151940250Y-75295000D01*
X151191000Y-75295000D01*
X151191000Y-75315000D01*
X150937000Y-75315000D01*
X150937000Y-75295000D01*
X150917000Y-75295000D01*
X150917000Y-75041000D01*
X150937000Y-75041000D01*
X150937000Y-74241750D01*
X151191000Y-74241750D01*
X151191000Y-75041000D01*
X151940250Y-75041000D01*
X152099000Y-74882250D01*
X152102072Y-74718000D01*
X152089812Y-74593518D01*
X152053502Y-74473820D01*
X151994537Y-74363506D01*
X151915185Y-74266815D01*
X151818494Y-74187463D01*
X151708180Y-74128498D01*
X151588482Y-74092188D01*
X151464000Y-74079928D01*
X151349750Y-74083000D01*
X151191000Y-74241750D01*
X150937000Y-74241750D01*
X150778250Y-74083000D01*
X150698200Y-74080848D01*
X150698200Y-73951554D01*
X150726696Y-73936322D01*
X150784711Y-73888711D01*
X150832322Y-73830696D01*
X150867701Y-73764508D01*
X150889487Y-73692689D01*
X150896843Y-73618000D01*
X150896843Y-73211340D01*
X151456806Y-72651378D01*
X151479090Y-72633090D01*
X151552094Y-72544134D01*
X151606341Y-72442645D01*
X151639746Y-72332523D01*
X151648200Y-72246692D01*
X151648200Y-72246684D01*
X151651025Y-72218000D01*
X151648200Y-72189316D01*
X151648200Y-71633554D01*
X151676696Y-71618322D01*
X151734711Y-71570711D01*
X151782322Y-71512696D01*
X151817701Y-71446508D01*
X151839487Y-71374689D01*
X151846843Y-71300000D01*
X151846843Y-70400000D01*
X151839487Y-70325311D01*
X151817701Y-70253492D01*
X151782322Y-70187304D01*
X151734711Y-70129289D01*
X151676696Y-70081678D01*
X151610508Y-70046299D01*
X151538689Y-70024513D01*
X151464000Y-70017157D01*
X150664000Y-70017157D01*
X150589311Y-70024513D01*
X150517492Y-70046299D01*
X150451304Y-70081678D01*
X150393289Y-70129289D01*
X150345678Y-70187304D01*
X150310299Y-70253492D01*
X150288513Y-70325311D01*
X150281157Y-70400000D01*
X150281157Y-71300000D01*
X150288513Y-71374689D01*
X150310299Y-71446508D01*
X150345678Y-71512696D01*
X150393289Y-71570711D01*
X150451304Y-71618322D01*
X150479801Y-71633554D01*
X150479801Y-71976015D01*
X150120660Y-72335157D01*
X149748200Y-72335157D01*
X149748200Y-71633554D01*
X149776696Y-71618322D01*
X149834711Y-71570711D01*
X149882322Y-71512696D01*
X149917701Y-71446508D01*
X149939487Y-71374689D01*
X149946843Y-71300000D01*
X149946843Y-70400000D01*
X149939487Y-70325311D01*
X149917701Y-70253492D01*
X149882322Y-70187304D01*
X149834711Y-70129289D01*
X149776696Y-70081678D01*
X149710508Y-70046299D01*
X149638689Y-70024513D01*
X149564000Y-70017157D01*
X148764000Y-70017157D01*
X148689311Y-70024513D01*
X148617492Y-70046299D01*
X148551304Y-70081678D01*
X148493289Y-70129289D01*
X148445678Y-70187304D01*
X148410299Y-70253492D01*
X148388513Y-70325311D01*
X148381157Y-70400000D01*
X148381157Y-71300000D01*
X148388513Y-71374689D01*
X148410299Y-71446508D01*
X148445678Y-71512696D01*
X148493289Y-71570711D01*
X148551304Y-71618322D01*
X148579800Y-71633554D01*
X148579801Y-74384446D01*
X148551304Y-74399678D01*
X148493289Y-74447289D01*
X148445678Y-74505304D01*
X148410299Y-74571492D01*
X148388513Y-74643311D01*
X148381157Y-74718000D01*
X148381157Y-75618000D01*
X148388513Y-75692689D01*
X148410299Y-75764508D01*
X148445678Y-75830696D01*
X148493289Y-75888711D01*
X148551304Y-75936322D01*
X148617492Y-75971701D01*
X148689311Y-75993487D01*
X148764000Y-76000843D01*
X149564000Y-76000843D01*
X149566264Y-76000620D01*
X149571659Y-76018406D01*
X149588276Y-76049494D01*
X149625907Y-76119896D01*
X149630169Y-76125089D01*
X149680620Y-76186565D01*
X149680623Y-76186568D01*
X149698911Y-76208852D01*
X149721194Y-76227139D01*
X149860047Y-76365992D01*
X149780500Y-76358157D01*
X149205500Y-76358157D01*
X149084477Y-76370077D01*
X148968105Y-76405378D01*
X148860856Y-76462704D01*
X148766851Y-76539851D01*
X148689704Y-76633856D01*
X148669743Y-76671200D01*
X148574390Y-76671200D01*
X148564942Y-76664887D01*
X148422809Y-76606013D01*
X148271922Y-76576000D01*
X148118078Y-76576000D01*
X147967191Y-76606013D01*
X147961411Y-76608407D01*
X147905149Y-76539851D01*
X147811144Y-76462704D01*
X147703895Y-76405378D01*
X147587523Y-76370077D01*
X147466500Y-76358157D01*
X146891500Y-76358157D01*
X146770477Y-76370077D01*
X146654105Y-76405378D01*
X146546856Y-76462704D01*
X146452851Y-76539851D01*
X146375704Y-76633856D01*
X146318378Y-76741105D01*
X146304000Y-76788503D01*
X146289622Y-76741105D01*
X146232296Y-76633856D01*
X146155149Y-76539851D01*
X146061144Y-76462704D01*
X145953895Y-76405378D01*
X145837523Y-76370077D01*
X145716500Y-76358157D01*
X145141500Y-76358157D01*
X145020477Y-76370077D01*
X144904105Y-76405378D01*
X144796856Y-76462704D01*
X144702851Y-76539851D01*
X144627391Y-76631800D01*
X144440928Y-76631800D01*
X144440149Y-76630851D01*
X144348200Y-76555391D01*
X144348200Y-75952843D01*
X144505000Y-75952843D01*
X144579689Y-75945487D01*
X144651508Y-75923701D01*
X144717696Y-75888322D01*
X144775711Y-75840711D01*
X144823322Y-75782696D01*
X144858701Y-75716508D01*
X144865225Y-75695000D01*
X145571928Y-75695000D01*
X145584188Y-75819482D01*
X145620498Y-75939180D01*
X145679463Y-76049494D01*
X145758815Y-76146185D01*
X145855506Y-76225537D01*
X145965820Y-76284502D01*
X146085518Y-76320812D01*
X146210000Y-76333072D01*
X146399250Y-76330000D01*
X146558000Y-76171250D01*
X146558000Y-75297000D01*
X146812000Y-75297000D01*
X146812000Y-76171250D01*
X146970750Y-76330000D01*
X147160000Y-76333072D01*
X147284482Y-76320812D01*
X147404180Y-76284502D01*
X147514494Y-76225537D01*
X147611185Y-76146185D01*
X147690537Y-76049494D01*
X147749502Y-75939180D01*
X147785812Y-75819482D01*
X147798072Y-75695000D01*
X147795000Y-75455750D01*
X147636250Y-75297000D01*
X146812000Y-75297000D01*
X146558000Y-75297000D01*
X145733750Y-75297000D01*
X145575000Y-75455750D01*
X145571928Y-75695000D01*
X144865225Y-75695000D01*
X144880487Y-75644689D01*
X144887843Y-75570000D01*
X144887843Y-74920000D01*
X144880487Y-74845311D01*
X144858701Y-74773492D01*
X144823322Y-74707304D01*
X144775711Y-74649289D01*
X144717696Y-74601678D01*
X144651508Y-74566299D01*
X144579689Y-74544513D01*
X144505000Y-74537157D01*
X143445000Y-74537157D01*
X143370311Y-74544513D01*
X143298492Y-74566299D01*
X143232304Y-74601678D01*
X143174289Y-74649289D01*
X143126678Y-74707304D01*
X143091299Y-74773492D01*
X143069513Y-74845311D01*
X143062157Y-74920000D01*
X143062157Y-75570000D01*
X143069513Y-75644689D01*
X143091299Y-75716508D01*
X143126678Y-75782696D01*
X143174289Y-75840711D01*
X143179801Y-75845234D01*
X143179800Y-76555391D01*
X143087851Y-76630851D01*
X143010704Y-76724856D01*
X143002000Y-76741140D01*
X142993296Y-76724856D01*
X142916149Y-76630851D01*
X142824200Y-76555391D01*
X142824200Y-75738681D01*
X142827025Y-75709999D01*
X142824200Y-75681317D01*
X142824200Y-75681308D01*
X142815746Y-75595477D01*
X142782341Y-75485355D01*
X142728094Y-75383866D01*
X142687843Y-75334820D01*
X142687843Y-75127272D01*
X142756185Y-75071185D01*
X142835537Y-74974494D01*
X142894502Y-74864180D01*
X142930812Y-74744482D01*
X142943072Y-74620000D01*
X142940000Y-74580750D01*
X142781250Y-74422000D01*
X141902000Y-74422000D01*
X141902000Y-74442000D01*
X141648000Y-74442000D01*
X141648000Y-74422000D01*
X141628000Y-74422000D01*
X141628000Y-74168000D01*
X141648000Y-74168000D01*
X141648000Y-74148000D01*
X141902000Y-74148000D01*
X141902000Y-74168000D01*
X142781250Y-74168000D01*
X142940000Y-74009250D01*
X142943072Y-73970000D01*
X142930812Y-73845518D01*
X142894502Y-73725820D01*
X142835537Y-73615506D01*
X142756185Y-73518815D01*
X142687843Y-73462728D01*
X142687843Y-73020000D01*
X142680487Y-72945311D01*
X142658701Y-72873492D01*
X142623322Y-72807304D01*
X142575711Y-72749289D01*
X142517696Y-72701678D01*
X142451508Y-72666299D01*
X142379689Y-72644513D01*
X142305000Y-72637157D01*
X141245000Y-72637157D01*
X141170311Y-72644513D01*
X141121894Y-72659200D01*
X140923686Y-72659200D01*
X140890000Y-72655882D01*
X140856314Y-72659200D01*
X140856311Y-72659200D01*
X140755560Y-72669123D01*
X140626286Y-72708338D01*
X140507147Y-72772019D01*
X140402720Y-72857720D01*
X140381242Y-72883891D01*
X139922843Y-73342290D01*
X139922843Y-73132500D01*
X139910923Y-73011477D01*
X139875622Y-72895105D01*
X139818296Y-72787856D01*
X139741149Y-72693851D01*
X139647144Y-72616704D01*
X139539895Y-72559378D01*
X139423523Y-72524077D01*
X139329000Y-72514767D01*
X139329000Y-72055843D01*
X139473000Y-72055843D01*
X139547689Y-72048487D01*
X139573000Y-72040809D01*
X139598311Y-72048487D01*
X139665693Y-72055123D01*
X139711945Y-72114094D01*
X139806857Y-72195566D01*
X139915840Y-72256956D01*
X140034706Y-72295905D01*
X140141250Y-72308000D01*
X140300000Y-72149250D01*
X140300000Y-71869461D01*
X140326701Y-71819508D01*
X140346000Y-71755888D01*
X140346000Y-72149250D01*
X140504750Y-72308000D01*
X140611294Y-72295905D01*
X140730160Y-72256956D01*
X140839143Y-72195566D01*
X140934055Y-72114094D01*
X141011249Y-72015672D01*
X141067759Y-71904080D01*
X141101412Y-71783608D01*
X141110916Y-71658886D01*
X141108000Y-71558750D01*
X140949252Y-71400002D01*
X141066042Y-71400002D01*
X141107463Y-71477494D01*
X141186815Y-71574185D01*
X141283506Y-71653537D01*
X141393820Y-71712502D01*
X141513518Y-71748812D01*
X141638000Y-71761072D01*
X141827250Y-71758000D01*
X141986000Y-71599250D01*
X141986000Y-70725000D01*
X142240000Y-70725000D01*
X142240000Y-71599250D01*
X142398750Y-71758000D01*
X142588000Y-71761072D01*
X142712482Y-71748812D01*
X142832180Y-71712502D01*
X142942494Y-71653537D01*
X143039185Y-71574185D01*
X143118537Y-71477494D01*
X143177502Y-71367180D01*
X143213812Y-71247482D01*
X143226072Y-71123000D01*
X143223000Y-70883750D01*
X143064250Y-70725000D01*
X142240000Y-70725000D01*
X141986000Y-70725000D01*
X141966000Y-70725000D01*
X141966000Y-70471000D01*
X141986000Y-70471000D01*
X141986000Y-70451000D01*
X142240000Y-70451000D01*
X142240000Y-70471000D01*
X143064250Y-70471000D01*
X143223000Y-70312250D01*
X143225245Y-70137428D01*
X143390800Y-70302984D01*
X143390801Y-72642495D01*
X143370311Y-72644513D01*
X143298492Y-72666299D01*
X143232304Y-72701678D01*
X143174289Y-72749289D01*
X143126678Y-72807304D01*
X143091299Y-72873492D01*
X143069513Y-72945311D01*
X143062157Y-73020000D01*
X143062157Y-73670000D01*
X143069513Y-73744689D01*
X143091299Y-73816508D01*
X143126678Y-73882696D01*
X143174289Y-73940711D01*
X143232304Y-73988322D01*
X143298492Y-74023701D01*
X143370311Y-74045487D01*
X143445000Y-74052843D01*
X144505000Y-74052843D01*
X144579689Y-74045487D01*
X144651508Y-74023701D01*
X144717696Y-73988322D01*
X144775711Y-73940711D01*
X144785158Y-73929200D01*
X145869617Y-73929200D01*
X145874378Y-73944895D01*
X145931704Y-74052144D01*
X145944020Y-74067151D01*
X145855506Y-74114463D01*
X145758815Y-74193815D01*
X145679463Y-74290506D01*
X145620498Y-74400820D01*
X145584188Y-74520518D01*
X145571928Y-74645000D01*
X145575000Y-74884250D01*
X145733750Y-75043000D01*
X146558000Y-75043000D01*
X146558000Y-75023000D01*
X146812000Y-75023000D01*
X146812000Y-75043000D01*
X147636250Y-75043000D01*
X147795000Y-74884250D01*
X147798072Y-74645000D01*
X147785812Y-74520518D01*
X147749502Y-74400820D01*
X147690537Y-74290506D01*
X147611185Y-74193815D01*
X147514494Y-74114463D01*
X147425980Y-74067151D01*
X147438296Y-74052144D01*
X147495622Y-73944895D01*
X147530923Y-73828523D01*
X147542843Y-73707500D01*
X147542843Y-73132500D01*
X147530923Y-73011477D01*
X147495622Y-72895105D01*
X147438296Y-72787856D01*
X147361149Y-72693851D01*
X147267144Y-72616704D01*
X147159895Y-72559378D01*
X147043523Y-72524077D01*
X146922500Y-72512157D01*
X146447500Y-72512157D01*
X146326477Y-72524077D01*
X146210105Y-72559378D01*
X146102856Y-72616704D01*
X146008851Y-72693851D01*
X145953908Y-72760800D01*
X144785158Y-72760800D01*
X144775711Y-72749289D01*
X144717696Y-72701678D01*
X144651508Y-72666299D01*
X144579689Y-72644513D01*
X144559200Y-72642495D01*
X144559200Y-70089683D01*
X144562025Y-70060999D01*
X144559200Y-70032315D01*
X144559200Y-70032308D01*
X144550746Y-69946477D01*
X144517341Y-69836355D01*
X144463094Y-69734866D01*
X144390090Y-69645910D01*
X144367807Y-69627623D01*
X143195382Y-68455199D01*
X143177090Y-68432910D01*
X143088134Y-68359906D01*
X142986645Y-68305659D01*
X142900296Y-68279465D01*
X142866296Y-68215856D01*
X142798800Y-68133611D01*
X142798800Y-66962678D01*
X142802117Y-66928999D01*
X142798800Y-66895320D01*
X142798800Y-66895311D01*
X142788877Y-66794560D01*
X142749662Y-66665286D01*
X142685981Y-66546147D01*
X142664130Y-66519522D01*
X142621755Y-66467887D01*
X142621749Y-66467881D01*
X142600279Y-66441720D01*
X142574119Y-66420251D01*
X141873868Y-65720000D01*
X145859928Y-65720000D01*
X145872188Y-65844482D01*
X145908498Y-65964180D01*
X145967463Y-66074494D01*
X146046815Y-66171185D01*
X146143506Y-66250537D01*
X146253820Y-66309502D01*
X146373518Y-66345812D01*
X146498000Y-66358072D01*
X146787250Y-66355000D01*
X146946000Y-66196250D01*
X146946000Y-65147000D01*
X146021750Y-65147000D01*
X145863000Y-65305750D01*
X145859928Y-65720000D01*
X141873868Y-65720000D01*
X141646800Y-65492933D01*
X141646800Y-65484631D01*
X141733488Y-65413488D01*
X141812190Y-65317589D01*
X141870671Y-65208179D01*
X141906683Y-65089462D01*
X141918843Y-64966001D01*
X141918843Y-64065999D01*
X142053157Y-64065999D01*
X142053157Y-64966001D01*
X142065317Y-65089462D01*
X142101329Y-65208179D01*
X142159810Y-65317589D01*
X142238512Y-65413488D01*
X142334411Y-65492190D01*
X142443821Y-65550671D01*
X142562538Y-65586683D01*
X142685999Y-65598843D01*
X143336001Y-65598843D01*
X143459462Y-65586683D01*
X143578179Y-65550671D01*
X143687589Y-65492190D01*
X143783488Y-65413488D01*
X143862190Y-65317589D01*
X143920671Y-65208179D01*
X143956683Y-65089462D01*
X143968843Y-64966001D01*
X143968843Y-64320000D01*
X145859928Y-64320000D01*
X145863000Y-64734250D01*
X146021750Y-64893000D01*
X146946000Y-64893000D01*
X146946000Y-63843750D01*
X146787250Y-63685000D01*
X146498000Y-63681928D01*
X146373518Y-63694188D01*
X146253820Y-63730498D01*
X146143506Y-63789463D01*
X146046815Y-63868815D01*
X145967463Y-63965506D01*
X145908498Y-64075820D01*
X145872188Y-64195518D01*
X145859928Y-64320000D01*
X143968843Y-64320000D01*
X143968843Y-64065999D01*
X143956683Y-63942538D01*
X143920671Y-63823821D01*
X143862190Y-63714411D01*
X143783488Y-63618512D01*
X143687589Y-63539810D01*
X143595200Y-63490427D01*
X143595200Y-62109843D01*
X143870000Y-62109843D01*
X143944689Y-62102487D01*
X143993106Y-62087800D01*
X144432321Y-62087800D01*
X144466000Y-62091117D01*
X144499679Y-62087800D01*
X144499689Y-62087800D01*
X144600440Y-62077877D01*
X144729714Y-62038662D01*
X144848853Y-61974981D01*
X144953280Y-61889280D01*
X144974758Y-61863109D01*
X146695024Y-60142843D01*
X147158000Y-60142843D01*
X147232689Y-60135487D01*
X147304508Y-60113701D01*
X147370696Y-60078322D01*
X147428711Y-60030711D01*
X147476322Y-59972696D01*
X147511701Y-59906508D01*
X147533487Y-59834689D01*
X147540843Y-59760000D01*
X147540843Y-58860000D01*
X147533487Y-58785311D01*
X147511701Y-58713492D01*
X147476322Y-58647304D01*
X147457492Y-58624359D01*
X148331157Y-59498025D01*
X148331157Y-59673500D01*
X148343077Y-59794523D01*
X148378378Y-59910895D01*
X148435704Y-60018144D01*
X148512851Y-60112149D01*
X148553200Y-60145263D01*
X148553201Y-60363123D01*
X148521851Y-60388851D01*
X148444704Y-60482856D01*
X148387378Y-60590105D01*
X148352077Y-60706477D01*
X148340157Y-60827500D01*
X148340157Y-61402500D01*
X148352077Y-61523523D01*
X148387378Y-61639895D01*
X148444704Y-61747144D01*
X148521851Y-61841149D01*
X148615856Y-61918296D01*
X148626902Y-61924200D01*
X147457361Y-61924200D01*
X147428711Y-61889289D01*
X147370696Y-61841678D01*
X147304508Y-61806299D01*
X147232689Y-61784513D01*
X147158000Y-61777157D01*
X145958000Y-61777157D01*
X145883311Y-61784513D01*
X145811492Y-61806299D01*
X145745304Y-61841678D01*
X145687289Y-61889289D01*
X145639678Y-61947304D01*
X145604299Y-62013492D01*
X145582513Y-62085311D01*
X145575157Y-62160000D01*
X145575157Y-63060000D01*
X145582513Y-63134689D01*
X145604299Y-63206508D01*
X145639678Y-63272696D01*
X145687289Y-63330711D01*
X145745304Y-63378322D01*
X145811492Y-63413701D01*
X145883311Y-63435487D01*
X145958000Y-63442843D01*
X147158000Y-63442843D01*
X147232689Y-63435487D01*
X147304508Y-63413701D01*
X147370696Y-63378322D01*
X147428711Y-63330711D01*
X147457361Y-63295800D01*
X148358835Y-63295800D01*
X148387378Y-63389895D01*
X148444704Y-63497144D01*
X148521851Y-63591149D01*
X148615856Y-63668296D01*
X148723105Y-63725622D01*
X148839477Y-63760923D01*
X148960500Y-63772843D01*
X149435500Y-63772843D01*
X149556523Y-63760923D01*
X149672895Y-63725622D01*
X149780144Y-63668296D01*
X149874149Y-63591149D01*
X149915469Y-63540800D01*
X150328738Y-63540800D01*
X150352200Y-63569390D01*
X150352201Y-63860610D01*
X150284704Y-63942856D01*
X150227378Y-64050105D01*
X150192077Y-64166477D01*
X150180157Y-64287500D01*
X150180157Y-64862500D01*
X150192077Y-64983523D01*
X150227378Y-65099895D01*
X150284704Y-65207144D01*
X150361851Y-65301149D01*
X150455856Y-65378296D01*
X150563105Y-65435622D01*
X150610503Y-65450000D01*
X150563105Y-65464378D01*
X150455856Y-65521704D01*
X150361851Y-65598851D01*
X150328738Y-65639200D01*
X150302068Y-65639200D01*
X150080843Y-65417975D01*
X150080843Y-64569999D01*
X150068683Y-64446538D01*
X150032671Y-64327821D01*
X149974190Y-64218411D01*
X149895488Y-64122512D01*
X149799589Y-64043810D01*
X149690179Y-63985329D01*
X149571462Y-63949317D01*
X149448001Y-63937157D01*
X148797999Y-63937157D01*
X148674538Y-63949317D01*
X148555821Y-63985329D01*
X148446411Y-64043810D01*
X148350512Y-64122512D01*
X148275611Y-64213780D01*
X148273812Y-64195518D01*
X148237502Y-64075820D01*
X148178537Y-63965506D01*
X148099185Y-63868815D01*
X148002494Y-63789463D01*
X147892180Y-63730498D01*
X147772482Y-63694188D01*
X147648000Y-63681928D01*
X147358750Y-63685000D01*
X147200000Y-63843750D01*
X147200000Y-64893000D01*
X147220000Y-64893000D01*
X147220000Y-65147000D01*
X147200000Y-65147000D01*
X147200000Y-66196250D01*
X147331941Y-66328191D01*
X146976612Y-66683520D01*
X146809022Y-66716856D01*
X146648690Y-66783268D01*
X146504395Y-66879682D01*
X146381682Y-67002395D01*
X146285268Y-67146690D01*
X146218856Y-67307022D01*
X146185000Y-67477229D01*
X146185000Y-67650771D01*
X146218856Y-67820978D01*
X146285268Y-67981310D01*
X146381682Y-68125605D01*
X146504395Y-68248318D01*
X146648690Y-68344732D01*
X146809022Y-68411144D01*
X146979229Y-68445000D01*
X147152771Y-68445000D01*
X147322978Y-68411144D01*
X147349881Y-68400000D01*
X149331157Y-68400000D01*
X149331157Y-69300000D01*
X149338513Y-69374689D01*
X149360299Y-69446508D01*
X149395678Y-69512696D01*
X149443289Y-69570711D01*
X149501304Y-69618322D01*
X149567492Y-69653701D01*
X149639311Y-69675487D01*
X149714000Y-69682843D01*
X150514000Y-69682843D01*
X150588689Y-69675487D01*
X150660508Y-69653701D01*
X150726696Y-69618322D01*
X150784711Y-69570711D01*
X150832322Y-69512696D01*
X150867701Y-69446508D01*
X150889487Y-69374689D01*
X150896843Y-69300000D01*
X150896843Y-68400000D01*
X150889487Y-68325311D01*
X150867701Y-68253492D01*
X150832322Y-68187304D01*
X150784711Y-68129289D01*
X150726696Y-68081678D01*
X150660508Y-68046299D01*
X150588689Y-68024513D01*
X150514000Y-68017157D01*
X149714000Y-68017157D01*
X149639311Y-68024513D01*
X149567492Y-68046299D01*
X149501304Y-68081678D01*
X149443289Y-68129289D01*
X149395678Y-68187304D01*
X149360299Y-68253492D01*
X149338513Y-68325311D01*
X149331157Y-68400000D01*
X147349881Y-68400000D01*
X147483310Y-68344732D01*
X147627605Y-68248318D01*
X147750318Y-68125605D01*
X147846732Y-67981310D01*
X147913144Y-67820978D01*
X147946480Y-67653388D01*
X149161500Y-66438368D01*
X149509246Y-66786114D01*
X149530720Y-66812280D01*
X149635147Y-66897981D01*
X149754286Y-66961662D01*
X149883560Y-67000877D01*
X149984311Y-67010800D01*
X149984320Y-67010800D01*
X150017999Y-67014117D01*
X150051678Y-67010800D01*
X150328738Y-67010800D01*
X150361851Y-67051149D01*
X150455856Y-67128296D01*
X150563105Y-67185622D01*
X150679477Y-67220923D01*
X150800500Y-67232843D01*
X151275500Y-67232843D01*
X151396523Y-67220923D01*
X151512895Y-67185622D01*
X151620144Y-67128296D01*
X151714149Y-67051149D01*
X151791296Y-66957144D01*
X151848622Y-66849895D01*
X151883923Y-66733523D01*
X151895843Y-66612500D01*
X151895843Y-66037500D01*
X151883923Y-65916477D01*
X151848622Y-65800105D01*
X151791296Y-65692856D01*
X151714149Y-65598851D01*
X151620144Y-65521704D01*
X151512895Y-65464378D01*
X151465497Y-65450000D01*
X151512895Y-65435622D01*
X151620144Y-65378296D01*
X151714149Y-65301149D01*
X151791296Y-65207144D01*
X151848622Y-65099895D01*
X151883923Y-64983523D01*
X151895843Y-64862500D01*
X151895843Y-64287500D01*
X151883923Y-64166477D01*
X151848622Y-64050105D01*
X151791296Y-63942856D01*
X151723800Y-63860611D01*
X151723800Y-63569389D01*
X151791296Y-63487144D01*
X151848622Y-63379895D01*
X151883923Y-63263523D01*
X151895843Y-63142500D01*
X151895843Y-62567500D01*
X151883923Y-62446477D01*
X151848622Y-62330105D01*
X151791296Y-62222856D01*
X151714149Y-62128851D01*
X151620144Y-62051704D01*
X151512895Y-61994378D01*
X151465497Y-61980000D01*
X151512895Y-61965622D01*
X151620144Y-61908296D01*
X151714149Y-61831149D01*
X151791296Y-61737144D01*
X151848622Y-61629895D01*
X151883923Y-61513523D01*
X151895843Y-61392500D01*
X151895843Y-60817500D01*
X151883923Y-60696477D01*
X151848622Y-60580105D01*
X151795430Y-60480591D01*
X151868494Y-60441537D01*
X151965185Y-60362185D01*
X152044537Y-60265494D01*
X152103502Y-60155180D01*
X152139812Y-60035482D01*
X152152072Y-59911000D01*
X152149000Y-59721750D01*
X151990250Y-59563000D01*
X151116000Y-59563000D01*
X151116000Y-59583000D01*
X150862000Y-59583000D01*
X150862000Y-59563000D01*
X150842000Y-59563000D01*
X150842000Y-59309000D01*
X150862000Y-59309000D01*
X150862000Y-58484750D01*
X151116000Y-58484750D01*
X151116000Y-59309000D01*
X151990250Y-59309000D01*
X152149000Y-59150250D01*
X152152072Y-58961000D01*
X152139812Y-58836518D01*
X152103502Y-58716820D01*
X152044537Y-58606506D01*
X151965185Y-58509815D01*
X151868494Y-58430463D01*
X151758180Y-58371498D01*
X151638482Y-58335188D01*
X151514000Y-58322928D01*
X151274750Y-58326000D01*
X151116000Y-58484750D01*
X150862000Y-58484750D01*
X150703250Y-58326000D01*
X150464000Y-58322928D01*
X150339518Y-58335188D01*
X150219820Y-58371498D01*
X150109506Y-58430463D01*
X150012815Y-58509815D01*
X149933463Y-58606506D01*
X149886151Y-58695020D01*
X149871144Y-58682704D01*
X149763895Y-58625378D01*
X149647523Y-58590077D01*
X149526500Y-58578157D01*
X149351025Y-58578157D01*
X148223758Y-57450891D01*
X148202280Y-57424720D01*
X148097853Y-57339019D01*
X147978714Y-57275338D01*
X147849440Y-57236123D01*
X147748689Y-57226200D01*
X147748679Y-57226200D01*
X147715000Y-57222883D01*
X147681321Y-57226200D01*
X144559678Y-57226200D01*
X144525999Y-57222883D01*
X144492320Y-57226200D01*
X144492311Y-57226200D01*
X144391560Y-57236123D01*
X144262286Y-57275338D01*
X144143147Y-57339019D01*
X144038720Y-57424720D01*
X144017247Y-57450886D01*
X142878886Y-58589247D01*
X142852721Y-58610720D01*
X142767019Y-58715147D01*
X142718058Y-58806747D01*
X142663492Y-58823299D01*
X142597304Y-58858678D01*
X142539289Y-58906289D01*
X142491678Y-58964304D01*
X142456299Y-59030492D01*
X142434513Y-59102311D01*
X142427157Y-59177000D01*
X142427157Y-59619728D01*
X142358815Y-59675815D01*
X142279463Y-59772506D01*
X142220498Y-59882820D01*
X142184188Y-60002518D01*
X142171928Y-60127000D01*
X142175000Y-60166250D01*
X142333750Y-60325000D01*
X143213000Y-60325000D01*
X143213000Y-60305000D01*
X143467000Y-60305000D01*
X143467000Y-60325000D01*
X143487000Y-60325000D01*
X143487000Y-60579000D01*
X143467000Y-60579000D01*
X143467000Y-60599000D01*
X143213000Y-60599000D01*
X143213000Y-60579000D01*
X142333750Y-60579000D01*
X142175000Y-60737750D01*
X142171928Y-60777000D01*
X142184188Y-60901482D01*
X142220498Y-61021180D01*
X142279463Y-61131494D01*
X142358815Y-61228185D01*
X142427157Y-61284272D01*
X142427157Y-61698691D01*
X142423975Y-61731000D01*
X142426801Y-61759694D01*
X142426800Y-63490427D01*
X142334411Y-63539810D01*
X142238512Y-63618512D01*
X142159810Y-63714411D01*
X142101329Y-63823821D01*
X142065317Y-63942538D01*
X142053157Y-64065999D01*
X141918843Y-64065999D01*
X141906683Y-63942538D01*
X141870671Y-63823821D01*
X141812190Y-63714411D01*
X141733488Y-63618512D01*
X141637589Y-63539810D01*
X141545200Y-63490427D01*
X141545200Y-62109843D01*
X141670000Y-62109843D01*
X141744689Y-62102487D01*
X141816508Y-62080701D01*
X141882696Y-62045322D01*
X141940711Y-61997711D01*
X141988322Y-61939696D01*
X142023701Y-61873508D01*
X142045487Y-61801689D01*
X142052843Y-61727000D01*
X142052843Y-61077000D01*
X142045487Y-61002311D01*
X142023701Y-60930492D01*
X141988322Y-60864304D01*
X141940711Y-60806289D01*
X141882696Y-60758678D01*
X141816508Y-60723299D01*
X141744689Y-60701513D01*
X141670000Y-60694157D01*
X140610000Y-60694157D01*
X140535311Y-60701513D01*
X140463492Y-60723299D01*
X140397304Y-60758678D01*
X140339289Y-60806289D01*
X140329842Y-60817800D01*
X139795843Y-60817800D01*
X139795843Y-60785500D01*
X139783923Y-60664477D01*
X139748622Y-60548105D01*
X139691296Y-60440856D01*
X139614149Y-60346851D01*
X139520144Y-60269704D01*
X139412895Y-60212378D01*
X139365497Y-60198000D01*
X139412895Y-60183622D01*
X139520144Y-60126296D01*
X139569002Y-60086200D01*
X140329842Y-60086200D01*
X140339289Y-60097711D01*
X140397304Y-60145322D01*
X140463492Y-60180701D01*
X140535311Y-60202487D01*
X140610000Y-60209843D01*
X141670000Y-60209843D01*
X141744689Y-60202487D01*
X141816508Y-60180701D01*
X141882696Y-60145322D01*
X141940711Y-60097711D01*
X141988322Y-60039696D01*
X142023701Y-59973508D01*
X142045487Y-59901689D01*
X142052843Y-59827000D01*
X142052843Y-59177000D01*
X142045487Y-59102311D01*
X142023701Y-59030492D01*
X141988322Y-58964304D01*
X141940711Y-58906289D01*
X141882696Y-58858678D01*
X141816508Y-58823299D01*
X141744689Y-58801513D01*
X141670000Y-58794157D01*
X140610000Y-58794157D01*
X140535311Y-58801513D01*
X140463492Y-58823299D01*
X140397304Y-58858678D01*
X140339289Y-58906289D01*
X140329842Y-58917800D01*
X139784250Y-58917800D01*
X139783923Y-58914477D01*
X139748622Y-58798105D01*
X139691296Y-58690856D01*
X139614149Y-58596851D01*
X139520144Y-58519704D01*
X139412895Y-58462378D01*
X139296523Y-58427077D01*
X139175500Y-58415157D01*
X139000025Y-58415157D01*
X138289758Y-57704891D01*
X138268280Y-57678720D01*
X138163853Y-57593019D01*
X138044714Y-57529338D01*
X137915440Y-57490123D01*
X137814689Y-57480200D01*
X137814679Y-57480200D01*
X137781000Y-57476883D01*
X137747321Y-57480200D01*
X136658274Y-57480200D01*
X136592180Y-57381283D01*
X136420717Y-57209820D01*
X136219097Y-57075102D01*
X135995069Y-56982307D01*
X135757243Y-56935000D01*
X135514757Y-56935000D01*
X135276931Y-56982307D01*
X135052903Y-57075102D01*
X134851283Y-57209820D01*
X134679820Y-57381283D01*
X134545102Y-57582903D01*
X134452307Y-57806931D01*
X134405000Y-58044757D01*
X134405000Y-58287243D01*
X134452307Y-58525069D01*
X134545102Y-58749097D01*
X134679820Y-58950717D01*
X134851283Y-59122180D01*
X135052903Y-59256898D01*
X135276931Y-59349693D01*
X135514757Y-59397000D01*
X135757243Y-59397000D01*
X135995069Y-59349693D01*
X136219097Y-59256898D01*
X136420717Y-59122180D01*
X136592180Y-58950717D01*
X136658274Y-58851800D01*
X137496933Y-58851800D01*
X138080157Y-59435025D01*
X138080157Y-59610500D01*
X138092077Y-59731523D01*
X138127378Y-59847895D01*
X138184704Y-59955144D01*
X138238093Y-60020200D01*
X136658274Y-60020200D01*
X136592180Y-59921283D01*
X136420717Y-59749820D01*
X136219097Y-59615102D01*
X135995069Y-59522307D01*
X135757243Y-59475000D01*
X135514757Y-59475000D01*
X135276931Y-59522307D01*
X135052903Y-59615102D01*
X134851283Y-59749820D01*
X134679820Y-59921283D01*
X134545102Y-60122903D01*
X134452307Y-60346931D01*
X134405000Y-60584757D01*
X134405000Y-60827243D01*
X134452307Y-61065069D01*
X134545102Y-61289097D01*
X134679820Y-61490717D01*
X134851283Y-61662180D01*
X135052903Y-61796898D01*
X135167168Y-61844228D01*
X135004748Y-61901843D01*
X134754645Y-62050822D01*
X134538412Y-62245731D01*
X134364359Y-62479080D01*
X134239175Y-62741901D01*
X134194524Y-62889110D01*
X134315845Y-63119000D01*
X135509000Y-63119000D01*
X135509000Y-63099000D01*
X135763000Y-63099000D01*
X135763000Y-63119000D01*
X136956155Y-63119000D01*
X137077476Y-62889110D01*
X137032825Y-62741901D01*
X136907641Y-62479080D01*
X136733588Y-62245731D01*
X136517355Y-62050822D01*
X136267252Y-61901843D01*
X136104832Y-61844228D01*
X136219097Y-61796898D01*
X136420717Y-61662180D01*
X136592180Y-61490717D01*
X136658274Y-61391800D01*
X138083240Y-61391800D01*
X138092077Y-61481523D01*
X138127378Y-61597895D01*
X138184704Y-61705144D01*
X138252201Y-61787390D01*
X138252200Y-62071394D01*
X138245821Y-62073329D01*
X138136411Y-62131810D01*
X138040512Y-62210512D01*
X137961810Y-62306411D01*
X137903329Y-62415821D01*
X137867317Y-62534538D01*
X137855157Y-62657999D01*
X137855157Y-63308001D01*
X137867317Y-63431462D01*
X137903329Y-63550179D01*
X137961810Y-63659589D01*
X138040512Y-63755488D01*
X138131780Y-63830389D01*
X138113518Y-63832188D01*
X137993820Y-63868498D01*
X137883506Y-63927463D01*
X137786815Y-64006815D01*
X137707463Y-64103506D01*
X137648498Y-64213820D01*
X137612188Y-64333518D01*
X137599928Y-64458000D01*
X137603000Y-64747250D01*
X137761750Y-64906000D01*
X138811000Y-64906000D01*
X138811000Y-64886000D01*
X139065000Y-64886000D01*
X139065000Y-64906000D01*
X139085000Y-64906000D01*
X139085000Y-65160000D01*
X139065000Y-65160000D01*
X139065000Y-66084250D01*
X139223750Y-66243000D01*
X139638000Y-66246072D01*
X139762482Y-66233812D01*
X139882180Y-66197502D01*
X139992494Y-66138537D01*
X140089185Y-66059185D01*
X140168537Y-65962494D01*
X140227502Y-65852180D01*
X140263812Y-65732482D01*
X140275201Y-65616845D01*
X140275201Y-65743312D01*
X140271883Y-65777000D01*
X140275201Y-65810689D01*
X140282539Y-65885192D01*
X140285124Y-65911440D01*
X140324339Y-66040714D01*
X140388020Y-66159853D01*
X140448717Y-66233812D01*
X140473721Y-66264280D01*
X140499886Y-66285753D01*
X141427200Y-67213068D01*
X141427201Y-68133610D01*
X141359704Y-68215856D01*
X141302378Y-68323105D01*
X141281479Y-68392001D01*
X140855843Y-68392001D01*
X140855843Y-67773000D01*
X140848487Y-67698311D01*
X140829000Y-67634071D01*
X140829000Y-67195854D01*
X140831448Y-67171000D01*
X140821678Y-67071807D01*
X140792745Y-66976425D01*
X140782439Y-66957144D01*
X140745759Y-66888521D01*
X140682527Y-66811473D01*
X140663220Y-66795628D01*
X140329376Y-66461785D01*
X140313527Y-66442473D01*
X140236479Y-66379241D01*
X140148575Y-66332255D01*
X140053193Y-66303322D01*
X139978854Y-66296000D01*
X139978846Y-66296000D01*
X139954000Y-66293553D01*
X139929154Y-66296000D01*
X136868843Y-66296000D01*
X136868843Y-65608000D01*
X137599928Y-65608000D01*
X137612188Y-65732482D01*
X137648498Y-65852180D01*
X137707463Y-65962494D01*
X137786815Y-66059185D01*
X137883506Y-66138537D01*
X137993820Y-66197502D01*
X138113518Y-66233812D01*
X138238000Y-66246072D01*
X138652250Y-66243000D01*
X138811000Y-66084250D01*
X138811000Y-65160000D01*
X137761750Y-65160000D01*
X137603000Y-65318750D01*
X137599928Y-65608000D01*
X136868843Y-65608000D01*
X136868843Y-64936000D01*
X136861487Y-64861311D01*
X136839701Y-64789492D01*
X136804322Y-64723304D01*
X136756711Y-64665289D01*
X136698696Y-64617678D01*
X136632508Y-64582299D01*
X136560689Y-64560513D01*
X136486000Y-64553157D01*
X136329367Y-64553157D01*
X136517355Y-64441178D01*
X136733588Y-64246269D01*
X136907641Y-64012920D01*
X137032825Y-63750099D01*
X137077476Y-63602890D01*
X136956155Y-63373000D01*
X135763000Y-63373000D01*
X135763000Y-63393000D01*
X135509000Y-63393000D01*
X135509000Y-63373000D01*
X134315845Y-63373000D01*
X134194524Y-63602890D01*
X134239175Y-63750099D01*
X134364359Y-64012920D01*
X134538412Y-64246269D01*
X134754645Y-64441178D01*
X134942633Y-64553157D01*
X134786000Y-64553157D01*
X134711311Y-64560513D01*
X134639492Y-64582299D01*
X134573304Y-64617678D01*
X134515289Y-64665289D01*
X134467678Y-64723304D01*
X134432299Y-64789492D01*
X134410513Y-64861311D01*
X134403157Y-64936000D01*
X134403157Y-66636000D01*
X134410513Y-66710689D01*
X134432299Y-66782508D01*
X134467678Y-66848696D01*
X134515289Y-66906711D01*
X134573304Y-66954322D01*
X134639492Y-66989701D01*
X134711311Y-67011487D01*
X134786000Y-67018843D01*
X136153251Y-67018843D01*
X136276628Y-67142220D01*
X136292473Y-67161527D01*
X136369521Y-67224759D01*
X136457425Y-67271745D01*
X136552807Y-67300678D01*
X136627146Y-67308000D01*
X136627154Y-67308000D01*
X136652000Y-67310447D01*
X136676846Y-67308000D01*
X139744409Y-67308000D01*
X139817001Y-67380592D01*
X139817001Y-67390157D01*
X139673000Y-67390157D01*
X139598311Y-67397513D01*
X139573000Y-67405191D01*
X139547689Y-67397513D01*
X139473000Y-67390157D01*
X139173000Y-67390157D01*
X139098311Y-67397513D01*
X139073000Y-67405191D01*
X139047689Y-67397513D01*
X138973000Y-67390157D01*
X138673000Y-67390157D01*
X138598311Y-67397513D01*
X138526492Y-67419299D01*
X138460304Y-67454678D01*
X138402289Y-67502289D01*
X138354678Y-67560304D01*
X138319299Y-67626492D01*
X138297513Y-67698311D01*
X138290157Y-67773000D01*
X138290157Y-68573000D01*
X138297513Y-68647689D01*
X138319299Y-68719508D01*
X138354678Y-68785696D01*
X138402289Y-68843711D01*
X138460304Y-68891322D01*
X138526492Y-68926701D01*
X138598311Y-68948487D01*
X138673000Y-68955843D01*
X138973000Y-68955843D01*
X139047689Y-68948487D01*
X139073000Y-68940809D01*
X139098311Y-68948487D01*
X139173000Y-68955843D01*
X139384401Y-68955843D01*
X139400242Y-68985479D01*
X139463474Y-69062527D01*
X139482781Y-69078372D01*
X139642625Y-69238216D01*
X139658474Y-69257528D01*
X139735522Y-69320760D01*
X139823426Y-69367746D01*
X139918808Y-69396679D01*
X139993147Y-69404001D01*
X139993154Y-69404001D01*
X140018000Y-69406448D01*
X140042846Y-69404001D01*
X141319005Y-69404001D01*
X141359704Y-69480144D01*
X141372020Y-69495151D01*
X141283506Y-69542463D01*
X141186815Y-69621815D01*
X141107463Y-69718506D01*
X141048498Y-69828820D01*
X141012188Y-69948518D01*
X140999928Y-70073000D01*
X141003000Y-70312250D01*
X141161748Y-70470998D01*
X141003000Y-70470998D01*
X141003000Y-70519811D01*
X140934055Y-70431906D01*
X140839143Y-70350434D01*
X140730160Y-70289044D01*
X140611294Y-70250095D01*
X140504750Y-70238000D01*
X140346000Y-70396750D01*
X140346000Y-70790112D01*
X140326701Y-70726492D01*
X140300000Y-70676539D01*
X140300000Y-70396750D01*
X140141250Y-70238000D01*
X140034706Y-70250095D01*
X139915840Y-70289044D01*
X139806857Y-70350434D01*
X139711945Y-70431906D01*
X139665693Y-70490877D01*
X139598311Y-70497513D01*
X139573000Y-70505191D01*
X139547689Y-70497513D01*
X139473000Y-70490157D01*
X139173000Y-70490157D01*
X139098311Y-70497513D01*
X139073000Y-70505191D01*
X139047689Y-70497513D01*
X138973000Y-70490157D01*
X138673000Y-70490157D01*
X138598311Y-70497513D01*
X138526492Y-70519299D01*
X138460304Y-70554678D01*
X138402289Y-70602289D01*
X138354678Y-70660304D01*
X138319299Y-70726492D01*
X138297513Y-70798311D01*
X138290157Y-70873000D01*
X138290157Y-71673000D01*
X138297513Y-71747689D01*
X138317000Y-71811930D01*
X138317001Y-72781402D01*
X138311704Y-72787856D01*
X138254378Y-72895105D01*
X138219077Y-73011477D01*
X138207157Y-73132500D01*
X138207157Y-73707500D01*
X138219077Y-73828523D01*
X138254378Y-73944895D01*
X138311704Y-74052144D01*
X138388851Y-74146149D01*
X138482856Y-74223296D01*
X138590105Y-74280622D01*
X138637503Y-74295000D01*
X138590105Y-74309378D01*
X138482856Y-74366704D01*
X138388851Y-74443851D01*
X138311704Y-74537856D01*
X138254378Y-74645105D01*
X138219077Y-74761477D01*
X138207157Y-74882500D01*
X138207157Y-75457500D01*
X138219077Y-75578523D01*
X138254378Y-75694895D01*
X138311704Y-75802144D01*
X138388851Y-75896149D01*
X138482856Y-75973296D01*
X138590105Y-76030622D01*
X138706477Y-76065923D01*
X138827500Y-76077843D01*
X139302500Y-76077843D01*
X139423523Y-76065923D01*
X139539895Y-76030622D01*
X139647144Y-75973296D01*
X139741149Y-75896149D01*
X139818296Y-75802144D01*
X139875622Y-75694895D01*
X139910923Y-75578523D01*
X139922843Y-75457500D01*
X139922843Y-75282024D01*
X140608801Y-74596066D01*
X140606928Y-74620000D01*
X140619188Y-74744482D01*
X140655498Y-74864180D01*
X140714463Y-74974494D01*
X140793815Y-75071185D01*
X140862157Y-75127272D01*
X140862157Y-75570000D01*
X140869513Y-75644689D01*
X140891299Y-75716508D01*
X140926678Y-75782696D01*
X140974289Y-75840711D01*
X141032304Y-75888322D01*
X141098492Y-75923701D01*
X141170311Y-75945487D01*
X141245000Y-75952843D01*
X141655801Y-75952843D01*
X141655800Y-76555391D01*
X141563851Y-76630851D01*
X141563072Y-76631800D01*
X141376609Y-76631800D01*
X141301149Y-76539851D01*
X141207144Y-76462704D01*
X141099895Y-76405378D01*
X140983523Y-76370077D01*
X140862500Y-76358157D01*
X140287500Y-76358157D01*
X140166477Y-76370077D01*
X140050105Y-76405378D01*
X139942856Y-76462704D01*
X139848851Y-76539851D01*
X139771704Y-76633856D01*
X139714378Y-76741105D01*
X139700000Y-76788503D01*
X139685622Y-76741105D01*
X139628296Y-76633856D01*
X139551149Y-76539851D01*
X139457144Y-76462704D01*
X139349895Y-76405378D01*
X139233523Y-76370077D01*
X139112500Y-76358157D01*
X138537500Y-76358157D01*
X138416477Y-76370077D01*
X138300105Y-76405378D01*
X138192856Y-76462704D01*
X138098851Y-76539851D01*
X138021704Y-76633856D01*
X138001743Y-76671200D01*
X137906390Y-76671200D01*
X137896942Y-76664887D01*
X137754809Y-76606013D01*
X137603922Y-76576000D01*
X137450078Y-76576000D01*
X137299191Y-76606013D01*
X137293411Y-76608407D01*
X137237149Y-76539851D01*
X137143144Y-76462704D01*
X137035895Y-76405378D01*
X136919523Y-76370077D01*
X136798500Y-76358157D01*
X136223500Y-76358157D01*
X136221315Y-76358372D01*
X136223026Y-76341000D01*
X136220200Y-76312308D01*
X136220200Y-76255152D01*
X136300250Y-76253000D01*
X136459000Y-76094250D01*
X136459000Y-75295000D01*
X136713000Y-75295000D01*
X136713000Y-76094250D01*
X136871750Y-76253000D01*
X136986000Y-76256072D01*
X137110482Y-76243812D01*
X137230180Y-76207502D01*
X137340494Y-76148537D01*
X137437185Y-76069185D01*
X137516537Y-75972494D01*
X137575502Y-75862180D01*
X137611812Y-75742482D01*
X137624072Y-75618000D01*
X137621000Y-75453750D01*
X137462250Y-75295000D01*
X136713000Y-75295000D01*
X136459000Y-75295000D01*
X136439000Y-75295000D01*
X136439000Y-75041000D01*
X136459000Y-75041000D01*
X136459000Y-74241750D01*
X136713000Y-74241750D01*
X136713000Y-75041000D01*
X137462250Y-75041000D01*
X137621000Y-74882250D01*
X137624072Y-74718000D01*
X137611812Y-74593518D01*
X137575502Y-74473820D01*
X137516537Y-74363506D01*
X137437185Y-74266815D01*
X137340494Y-74187463D01*
X137230180Y-74128498D01*
X137110482Y-74092188D01*
X136986000Y-74079928D01*
X136871750Y-74083000D01*
X136713000Y-74241750D01*
X136459000Y-74241750D01*
X136300250Y-74083000D01*
X136220200Y-74080848D01*
X136220200Y-73951554D01*
X136248696Y-73936322D01*
X136306711Y-73888711D01*
X136354322Y-73830696D01*
X136389701Y-73764508D01*
X136411487Y-73692689D01*
X136418843Y-73618000D01*
X136418843Y-73211340D01*
X136978806Y-72651378D01*
X137001090Y-72633090D01*
X137074094Y-72544134D01*
X137128341Y-72442645D01*
X137161746Y-72332523D01*
X137170200Y-72246692D01*
X137170200Y-72246684D01*
X137173025Y-72218000D01*
X137170200Y-72189316D01*
X137170200Y-71633554D01*
X137198696Y-71618322D01*
X137256711Y-71570711D01*
X137304322Y-71512696D01*
X137339701Y-71446508D01*
X137361487Y-71374689D01*
X137368843Y-71300000D01*
X137368843Y-70400000D01*
X137361487Y-70325311D01*
X137339701Y-70253492D01*
X137304322Y-70187304D01*
X137256711Y-70129289D01*
X137198696Y-70081678D01*
X137132508Y-70046299D01*
X137060689Y-70024513D01*
X136986000Y-70017157D01*
X136186000Y-70017157D01*
X136111311Y-70024513D01*
X136039492Y-70046299D01*
X135973304Y-70081678D01*
X135915289Y-70129289D01*
X135867678Y-70187304D01*
X135832299Y-70253492D01*
X135810513Y-70325311D01*
X135803157Y-70400000D01*
X135803157Y-71300000D01*
X135810513Y-71374689D01*
X135832299Y-71446508D01*
X135867678Y-71512696D01*
X135915289Y-71570711D01*
X135973304Y-71618322D01*
X136001801Y-71633554D01*
X136001801Y-71976015D01*
X135642660Y-72335157D01*
X135270200Y-72335157D01*
X135270200Y-71633554D01*
X135298696Y-71618322D01*
X135356711Y-71570711D01*
X135404322Y-71512696D01*
X135439701Y-71446508D01*
X135461487Y-71374689D01*
X135468843Y-71300000D01*
X135468843Y-70400000D01*
X135461487Y-70325311D01*
X135439701Y-70253492D01*
X135404322Y-70187304D01*
X135356711Y-70129289D01*
X135298696Y-70081678D01*
X135232508Y-70046299D01*
X135160689Y-70024513D01*
X135086000Y-70017157D01*
X134286000Y-70017157D01*
X134211311Y-70024513D01*
X134139492Y-70046299D01*
X134073304Y-70081678D01*
X134015289Y-70129289D01*
X133967678Y-70187304D01*
X133932299Y-70253492D01*
X133910513Y-70325311D01*
X133903157Y-70400000D01*
X133903157Y-71300000D01*
X133910513Y-71374689D01*
X133932299Y-71446508D01*
X133967678Y-71512696D01*
X134015289Y-71570711D01*
X134073304Y-71618322D01*
X134101801Y-71633554D01*
X134101800Y-74384446D01*
X134073304Y-74399678D01*
X134015289Y-74447289D01*
X133967678Y-74505304D01*
X133932299Y-74571492D01*
X133910513Y-74643311D01*
X133903157Y-74718000D01*
X133903157Y-75618000D01*
X133910513Y-75692689D01*
X133932299Y-75764508D01*
X133967678Y-75830696D01*
X134015289Y-75888711D01*
X134073304Y-75936322D01*
X134139492Y-75971701D01*
X134211311Y-75993487D01*
X134286000Y-76000843D01*
X135051801Y-76000843D01*
X135051801Y-76099015D01*
X134792659Y-76358157D01*
X134473500Y-76358157D01*
X134352477Y-76370077D01*
X134236105Y-76405378D01*
X134128856Y-76462704D01*
X134034851Y-76539851D01*
X133957704Y-76633856D01*
X133900378Y-76741105D01*
X133865077Y-76857477D01*
X133853157Y-76978500D01*
X133853157Y-77453500D01*
X133865077Y-77574523D01*
X133900378Y-77690895D01*
X133934201Y-77754173D01*
X133934200Y-78293610D01*
X133866704Y-78375856D01*
X133809378Y-78483105D01*
X133774077Y-78599477D01*
X133762157Y-78720500D01*
X132906000Y-78720500D01*
X132906000Y-68400000D01*
X134853157Y-68400000D01*
X134853157Y-69300000D01*
X134860513Y-69374689D01*
X134882299Y-69446508D01*
X134917678Y-69512696D01*
X134965289Y-69570711D01*
X135023304Y-69618322D01*
X135089492Y-69653701D01*
X135161311Y-69675487D01*
X135236000Y-69682843D01*
X136036000Y-69682843D01*
X136110689Y-69675487D01*
X136182508Y-69653701D01*
X136248696Y-69618322D01*
X136306711Y-69570711D01*
X136354322Y-69512696D01*
X136389701Y-69446508D01*
X136411487Y-69374689D01*
X136418843Y-69300000D01*
X136418843Y-68400000D01*
X136411487Y-68325311D01*
X136389701Y-68253492D01*
X136354322Y-68187304D01*
X136306711Y-68129289D01*
X136248696Y-68081678D01*
X136182508Y-68046299D01*
X136110689Y-68024513D01*
X136036000Y-68017157D01*
X135236000Y-68017157D01*
X135161311Y-68024513D01*
X135089492Y-68046299D01*
X135023304Y-68081678D01*
X134965289Y-68129289D01*
X134917678Y-68187304D01*
X134882299Y-68253492D01*
X134860513Y-68325311D01*
X134853157Y-68400000D01*
X132906000Y-68400000D01*
X132906000Y-56019854D01*
X132919222Y-55885006D01*
X132952620Y-55774386D01*
X133006868Y-55672361D01*
X133079895Y-55582821D01*
X133168925Y-55509167D01*
X133270572Y-55454208D01*
X133380949Y-55420040D01*
X133514528Y-55406000D01*
X152480146Y-55406000D01*
X152614994Y-55419222D01*
G04 #@! TA.AperFunction,Conductor*
D22*
G36*
X152614994Y-55419222D02*
G01*
X152725614Y-55452620D01*
X152827639Y-55506868D01*
X152917179Y-55579895D01*
X152990833Y-55668925D01*
X153045792Y-55770572D01*
X153079960Y-55880949D01*
X153094000Y-56014528D01*
X153094001Y-81980136D01*
X153080778Y-82114994D01*
X153047379Y-82225615D01*
X152993132Y-82327639D01*
X152920106Y-82417179D01*
X152831072Y-82490834D01*
X152729428Y-82545792D01*
X152619051Y-82579960D01*
X152485472Y-82594000D01*
X133519854Y-82594000D01*
X133385006Y-82580778D01*
X133274385Y-82547379D01*
X133172361Y-82493132D01*
X133082821Y-82420106D01*
X133009166Y-82331072D01*
X132954208Y-82229428D01*
X132920040Y-82119051D01*
X132906000Y-81985472D01*
X132906000Y-78720500D01*
X133762157Y-78720500D01*
X133762157Y-79295500D01*
X133774077Y-79416523D01*
X133809378Y-79532895D01*
X133866704Y-79640144D01*
X133943851Y-79734149D01*
X134037856Y-79811296D01*
X134145105Y-79868622D01*
X134192503Y-79883000D01*
X134145105Y-79897378D01*
X134037856Y-79954704D01*
X133943851Y-80031851D01*
X133866704Y-80125856D01*
X133809378Y-80233105D01*
X133774077Y-80349477D01*
X133762157Y-80470500D01*
X133762157Y-81045500D01*
X133774077Y-81166523D01*
X133809378Y-81282895D01*
X133866704Y-81390144D01*
X133943851Y-81484149D01*
X134037856Y-81561296D01*
X134145105Y-81618622D01*
X134261477Y-81653923D01*
X134382500Y-81665843D01*
X134857500Y-81665843D01*
X134978523Y-81653923D01*
X135094895Y-81618622D01*
X135202144Y-81561296D01*
X135296149Y-81484149D01*
X135329262Y-81443800D01*
X135942738Y-81443800D01*
X135975851Y-81484149D01*
X136069856Y-81561296D01*
X136177105Y-81618622D01*
X136293477Y-81653923D01*
X136414500Y-81665843D01*
X136889500Y-81665843D01*
X137010523Y-81653923D01*
X137126895Y-81618622D01*
X137234144Y-81561296D01*
X137328149Y-81484149D01*
X137405296Y-81390144D01*
X137431992Y-81340200D01*
X137992565Y-81340200D01*
X137996299Y-81352508D01*
X138031678Y-81418696D01*
X138079289Y-81476711D01*
X138137304Y-81524322D01*
X138203492Y-81559701D01*
X138275311Y-81581487D01*
X138350000Y-81588843D01*
X139150000Y-81588843D01*
X139224689Y-81581487D01*
X139296508Y-81559701D01*
X139362696Y-81524322D01*
X139420711Y-81476711D01*
X139468322Y-81418696D01*
X139503701Y-81352508D01*
X139525487Y-81280689D01*
X139532843Y-81206000D01*
X139611928Y-81206000D01*
X139624188Y-81330482D01*
X139660498Y-81450180D01*
X139719463Y-81560494D01*
X139798815Y-81657185D01*
X139895506Y-81736537D01*
X140005820Y-81795502D01*
X140125518Y-81831812D01*
X140250000Y-81844072D01*
X140364250Y-81841000D01*
X140523000Y-81682250D01*
X140523000Y-80883000D01*
X140777000Y-80883000D01*
X140777000Y-81682250D01*
X140935750Y-81841000D01*
X141050000Y-81844072D01*
X141174482Y-81831812D01*
X141294180Y-81795502D01*
X141404494Y-81736537D01*
X141501185Y-81657185D01*
X141580537Y-81560494D01*
X141639502Y-81450180D01*
X141675812Y-81330482D01*
X141688072Y-81206000D01*
X141685000Y-81041750D01*
X141526250Y-80883000D01*
X140777000Y-80883000D01*
X140523000Y-80883000D01*
X139773750Y-80883000D01*
X139615000Y-81041750D01*
X139611928Y-81206000D01*
X139532843Y-81206000D01*
X139532843Y-80306000D01*
X139611928Y-80306000D01*
X139615000Y-80470250D01*
X139773750Y-80629000D01*
X140523000Y-80629000D01*
X140523000Y-79829750D01*
X140777000Y-79829750D01*
X140777000Y-80629000D01*
X141526250Y-80629000D01*
X141685000Y-80470250D01*
X141688072Y-80306000D01*
X141683745Y-80262069D01*
X141765000Y-80270072D01*
X141954250Y-80267000D01*
X142113000Y-80108250D01*
X142113000Y-79234000D01*
X142367000Y-79234000D01*
X142367000Y-80108250D01*
X142525750Y-80267000D01*
X142715000Y-80270072D01*
X142839482Y-80257812D01*
X142959180Y-80221502D01*
X143002000Y-80198614D01*
X143044820Y-80221502D01*
X143164518Y-80257812D01*
X143289000Y-80270072D01*
X143478250Y-80267000D01*
X143637000Y-80108250D01*
X143637000Y-79234000D01*
X142367000Y-79234000D01*
X142113000Y-79234000D01*
X141288750Y-79234000D01*
X141130000Y-79392750D01*
X141126928Y-79632000D01*
X141131255Y-79675931D01*
X141050000Y-79667928D01*
X140935750Y-79671000D01*
X140777000Y-79829750D01*
X140523000Y-79829750D01*
X140364250Y-79671000D01*
X140250000Y-79667928D01*
X140125518Y-79680188D01*
X140005820Y-79716498D01*
X139895506Y-79775463D01*
X139798815Y-79854815D01*
X139719463Y-79951506D01*
X139660498Y-80061820D01*
X139624188Y-80181518D01*
X139611928Y-80306000D01*
X139532843Y-80306000D01*
X139525487Y-80231311D01*
X139503701Y-80159492D01*
X139468322Y-80093304D01*
X139420711Y-80035289D01*
X139362696Y-79987678D01*
X139296508Y-79952299D01*
X139224689Y-79930513D01*
X139150000Y-79923157D01*
X138350000Y-79923157D01*
X138275311Y-79930513D01*
X138203492Y-79952299D01*
X138137304Y-79987678D01*
X138079289Y-80035289D01*
X138031678Y-80093304D01*
X137996299Y-80159492D01*
X137992565Y-80171800D01*
X137429854Y-80171800D01*
X137405296Y-80125856D01*
X137328149Y-80031851D01*
X137234144Y-79954704D01*
X137126895Y-79897378D01*
X137079497Y-79883000D01*
X137126895Y-79868622D01*
X137234144Y-79811296D01*
X137328149Y-79734149D01*
X137405296Y-79640144D01*
X137462622Y-79532895D01*
X137497923Y-79416523D01*
X137509843Y-79295500D01*
X137509843Y-78720500D01*
X137497923Y-78599477D01*
X137462622Y-78483105D01*
X137405296Y-78375856D01*
X137337800Y-78293611D01*
X137337800Y-78115667D01*
X137450078Y-78138000D01*
X137603922Y-78138000D01*
X137754809Y-78107987D01*
X137896942Y-78049113D01*
X137906390Y-78042800D01*
X138353437Y-78042800D01*
X138416477Y-78061923D01*
X138537500Y-78073843D01*
X138997649Y-78073843D01*
X138981678Y-78093304D01*
X138946299Y-78159492D01*
X138924513Y-78231311D01*
X138917157Y-78306000D01*
X138917157Y-79206000D01*
X138924513Y-79280689D01*
X138946299Y-79352508D01*
X138981678Y-79418696D01*
X139029289Y-79476711D01*
X139087304Y-79524322D01*
X139153492Y-79559701D01*
X139225311Y-79581487D01*
X139300000Y-79588843D01*
X140100000Y-79588843D01*
X140174689Y-79581487D01*
X140246508Y-79559701D01*
X140312696Y-79524322D01*
X140370711Y-79476711D01*
X140418322Y-79418696D01*
X140453701Y-79352508D01*
X140475487Y-79280689D01*
X140482843Y-79206000D01*
X140482843Y-78799340D01*
X140967806Y-78314378D01*
X140990090Y-78296090D01*
X141008381Y-78273803D01*
X141042809Y-78231851D01*
X141063094Y-78207134D01*
X141117341Y-78105645D01*
X141149327Y-78000200D01*
X141207144Y-77969296D01*
X141301149Y-77892149D01*
X141376609Y-77800200D01*
X141404596Y-77800200D01*
X141429378Y-77881895D01*
X141486704Y-77989144D01*
X141499020Y-78004151D01*
X141410506Y-78051463D01*
X141313815Y-78130815D01*
X141234463Y-78227506D01*
X141175498Y-78337820D01*
X141139188Y-78457518D01*
X141126928Y-78582000D01*
X141130000Y-78821250D01*
X141288750Y-78980000D01*
X142113000Y-78980000D01*
X142113000Y-78960000D01*
X142367000Y-78960000D01*
X142367000Y-78980000D01*
X143637000Y-78980000D01*
X143637000Y-78960000D01*
X143891000Y-78960000D01*
X143891000Y-78980000D01*
X144715250Y-78980000D01*
X144874000Y-78821250D01*
X144877072Y-78582000D01*
X144864812Y-78457518D01*
X144828502Y-78337820D01*
X144769537Y-78227506D01*
X144690185Y-78130815D01*
X144593494Y-78051463D01*
X144504980Y-78004151D01*
X144517296Y-77989144D01*
X144574622Y-77881895D01*
X144599404Y-77800200D01*
X144627391Y-77800200D01*
X144702851Y-77892149D01*
X144796856Y-77969296D01*
X144854673Y-78000200D01*
X144886659Y-78105645D01*
X144940907Y-78207134D01*
X144961192Y-78231851D01*
X144995620Y-78273803D01*
X144995621Y-78273804D01*
X145013911Y-78296090D01*
X145036194Y-78314377D01*
X145521157Y-78799341D01*
X145521157Y-79206000D01*
X145528513Y-79280689D01*
X145550299Y-79352508D01*
X145585678Y-79418696D01*
X145633289Y-79476711D01*
X145691304Y-79524322D01*
X145735742Y-79548075D01*
X145360660Y-79923157D01*
X144954000Y-79923157D01*
X144879311Y-79930513D01*
X144807492Y-79952299D01*
X144779944Y-79967024D01*
X144828502Y-79876180D01*
X144864812Y-79756482D01*
X144877072Y-79632000D01*
X144874000Y-79392750D01*
X144715250Y-79234000D01*
X143891000Y-79234000D01*
X143891000Y-80108250D01*
X144049750Y-80267000D01*
X144239000Y-80270072D01*
X144363482Y-80257812D01*
X144483180Y-80221502D01*
X144593494Y-80162537D01*
X144602717Y-80154968D01*
X144600299Y-80159492D01*
X144578513Y-80231311D01*
X144571157Y-80306000D01*
X144571157Y-81206000D01*
X144578513Y-81280689D01*
X144600299Y-81352508D01*
X144635678Y-81418696D01*
X144683289Y-81476711D01*
X144741304Y-81524322D01*
X144807492Y-81559701D01*
X144879311Y-81581487D01*
X144954000Y-81588843D01*
X145754000Y-81588843D01*
X145828689Y-81581487D01*
X145900508Y-81559701D01*
X145966696Y-81524322D01*
X146024711Y-81476711D01*
X146072322Y-81418696D01*
X146107701Y-81352508D01*
X146129487Y-81280689D01*
X146136843Y-81206000D01*
X146215928Y-81206000D01*
X146228188Y-81330482D01*
X146264498Y-81450180D01*
X146323463Y-81560494D01*
X146402815Y-81657185D01*
X146499506Y-81736537D01*
X146609820Y-81795502D01*
X146729518Y-81831812D01*
X146854000Y-81844072D01*
X146968250Y-81841000D01*
X147127000Y-81682250D01*
X147127000Y-80883000D01*
X147381000Y-80883000D01*
X147381000Y-81682250D01*
X147539750Y-81841000D01*
X147654000Y-81844072D01*
X147778482Y-81831812D01*
X147898180Y-81795502D01*
X148008494Y-81736537D01*
X148105185Y-81657185D01*
X148184537Y-81560494D01*
X148243502Y-81450180D01*
X148279812Y-81330482D01*
X148292072Y-81206000D01*
X148289000Y-81041750D01*
X148130250Y-80883000D01*
X147381000Y-80883000D01*
X147127000Y-80883000D01*
X146377750Y-80883000D01*
X146219000Y-81041750D01*
X146215928Y-81206000D01*
X146136843Y-81206000D01*
X146136843Y-80799340D01*
X146342467Y-80593717D01*
X146377750Y-80629000D01*
X147127000Y-80629000D01*
X147127000Y-80609000D01*
X147381000Y-80609000D01*
X147381000Y-80629000D01*
X148130250Y-80629000D01*
X148272251Y-80486999D01*
X148304816Y-80486999D01*
X148494157Y-80676340D01*
X148494157Y-80995500D01*
X148506077Y-81116523D01*
X148541378Y-81232895D01*
X148598704Y-81340144D01*
X148675851Y-81434149D01*
X148769856Y-81511296D01*
X148877105Y-81568622D01*
X148993477Y-81603923D01*
X149114500Y-81615843D01*
X149589500Y-81615843D01*
X149710523Y-81603923D01*
X149826895Y-81568622D01*
X149934144Y-81511296D01*
X150028149Y-81434149D01*
X150061262Y-81393800D01*
X150674738Y-81393800D01*
X150707851Y-81434149D01*
X150801856Y-81511296D01*
X150909105Y-81568622D01*
X151025477Y-81603923D01*
X151146500Y-81615843D01*
X151621500Y-81615843D01*
X151742523Y-81603923D01*
X151858895Y-81568622D01*
X151966144Y-81511296D01*
X152060149Y-81434149D01*
X152137296Y-81340144D01*
X152194622Y-81232895D01*
X152229923Y-81116523D01*
X152241843Y-80995500D01*
X152241843Y-80420500D01*
X152229923Y-80299477D01*
X152194622Y-80183105D01*
X152137296Y-80075856D01*
X152060149Y-79981851D01*
X151966144Y-79904704D01*
X151858895Y-79847378D01*
X151811497Y-79833000D01*
X151858895Y-79818622D01*
X151966144Y-79761296D01*
X152060149Y-79684149D01*
X152137296Y-79590144D01*
X152194622Y-79482895D01*
X152229923Y-79366523D01*
X152241843Y-79245500D01*
X152241843Y-78670500D01*
X152229923Y-78549477D01*
X152194622Y-78433105D01*
X152137296Y-78325856D01*
X152069800Y-78243611D01*
X152069800Y-77754171D01*
X152103622Y-77690895D01*
X152138923Y-77574523D01*
X152150843Y-77453500D01*
X152150843Y-76978500D01*
X152138923Y-76857477D01*
X152103622Y-76741105D01*
X152046296Y-76633856D01*
X151969149Y-76539851D01*
X151875144Y-76462704D01*
X151767895Y-76405378D01*
X151651523Y-76370077D01*
X151530500Y-76358157D01*
X151504579Y-76358157D01*
X151400794Y-76254372D01*
X151464000Y-76256072D01*
X151588482Y-76243812D01*
X151708180Y-76207502D01*
X151818494Y-76148537D01*
X151915185Y-76069185D01*
X151994537Y-75972494D01*
X152053502Y-75862180D01*
X152089812Y-75742482D01*
X152102072Y-75618000D01*
X152099000Y-75453750D01*
X151940250Y-75295000D01*
X151191000Y-75295000D01*
X151191000Y-75315000D01*
X150937000Y-75315000D01*
X150937000Y-75295000D01*
X150917000Y-75295000D01*
X150917000Y-75041000D01*
X150937000Y-75041000D01*
X150937000Y-74241750D01*
X151191000Y-74241750D01*
X151191000Y-75041000D01*
X151940250Y-75041000D01*
X152099000Y-74882250D01*
X152102072Y-74718000D01*
X152089812Y-74593518D01*
X152053502Y-74473820D01*
X151994537Y-74363506D01*
X151915185Y-74266815D01*
X151818494Y-74187463D01*
X151708180Y-74128498D01*
X151588482Y-74092188D01*
X151464000Y-74079928D01*
X151349750Y-74083000D01*
X151191000Y-74241750D01*
X150937000Y-74241750D01*
X150778250Y-74083000D01*
X150698200Y-74080848D01*
X150698200Y-73951554D01*
X150726696Y-73936322D01*
X150784711Y-73888711D01*
X150832322Y-73830696D01*
X150867701Y-73764508D01*
X150889487Y-73692689D01*
X150896843Y-73618000D01*
X150896843Y-73211340D01*
X151456806Y-72651378D01*
X151479090Y-72633090D01*
X151552094Y-72544134D01*
X151606341Y-72442645D01*
X151639746Y-72332523D01*
X151648200Y-72246692D01*
X151648200Y-72246684D01*
X151651025Y-72218000D01*
X151648200Y-72189316D01*
X151648200Y-71633554D01*
X151676696Y-71618322D01*
X151734711Y-71570711D01*
X151782322Y-71512696D01*
X151817701Y-71446508D01*
X151839487Y-71374689D01*
X151846843Y-71300000D01*
X151846843Y-70400000D01*
X151839487Y-70325311D01*
X151817701Y-70253492D01*
X151782322Y-70187304D01*
X151734711Y-70129289D01*
X151676696Y-70081678D01*
X151610508Y-70046299D01*
X151538689Y-70024513D01*
X151464000Y-70017157D01*
X150664000Y-70017157D01*
X150589311Y-70024513D01*
X150517492Y-70046299D01*
X150451304Y-70081678D01*
X150393289Y-70129289D01*
X150345678Y-70187304D01*
X150310299Y-70253492D01*
X150288513Y-70325311D01*
X150281157Y-70400000D01*
X150281157Y-71300000D01*
X150288513Y-71374689D01*
X150310299Y-71446508D01*
X150345678Y-71512696D01*
X150393289Y-71570711D01*
X150451304Y-71618322D01*
X150479801Y-71633554D01*
X150479801Y-71976015D01*
X150120660Y-72335157D01*
X149748200Y-72335157D01*
X149748200Y-71633554D01*
X149776696Y-71618322D01*
X149834711Y-71570711D01*
X149882322Y-71512696D01*
X149917701Y-71446508D01*
X149939487Y-71374689D01*
X149946843Y-71300000D01*
X149946843Y-70400000D01*
X149939487Y-70325311D01*
X149917701Y-70253492D01*
X149882322Y-70187304D01*
X149834711Y-70129289D01*
X149776696Y-70081678D01*
X149710508Y-70046299D01*
X149638689Y-70024513D01*
X149564000Y-70017157D01*
X148764000Y-70017157D01*
X148689311Y-70024513D01*
X148617492Y-70046299D01*
X148551304Y-70081678D01*
X148493289Y-70129289D01*
X148445678Y-70187304D01*
X148410299Y-70253492D01*
X148388513Y-70325311D01*
X148381157Y-70400000D01*
X148381157Y-71300000D01*
X148388513Y-71374689D01*
X148410299Y-71446508D01*
X148445678Y-71512696D01*
X148493289Y-71570711D01*
X148551304Y-71618322D01*
X148579800Y-71633554D01*
X148579801Y-74384446D01*
X148551304Y-74399678D01*
X148493289Y-74447289D01*
X148445678Y-74505304D01*
X148410299Y-74571492D01*
X148388513Y-74643311D01*
X148381157Y-74718000D01*
X148381157Y-75618000D01*
X148388513Y-75692689D01*
X148410299Y-75764508D01*
X148445678Y-75830696D01*
X148493289Y-75888711D01*
X148551304Y-75936322D01*
X148617492Y-75971701D01*
X148689311Y-75993487D01*
X148764000Y-76000843D01*
X149564000Y-76000843D01*
X149566264Y-76000620D01*
X149571659Y-76018406D01*
X149588276Y-76049494D01*
X149625907Y-76119896D01*
X149630169Y-76125089D01*
X149680620Y-76186565D01*
X149680623Y-76186568D01*
X149698911Y-76208852D01*
X149721194Y-76227139D01*
X149860047Y-76365992D01*
X149780500Y-76358157D01*
X149205500Y-76358157D01*
X149084477Y-76370077D01*
X148968105Y-76405378D01*
X148860856Y-76462704D01*
X148766851Y-76539851D01*
X148689704Y-76633856D01*
X148669743Y-76671200D01*
X148574390Y-76671200D01*
X148564942Y-76664887D01*
X148422809Y-76606013D01*
X148271922Y-76576000D01*
X148118078Y-76576000D01*
X147967191Y-76606013D01*
X147961411Y-76608407D01*
X147905149Y-76539851D01*
X147811144Y-76462704D01*
X147703895Y-76405378D01*
X147587523Y-76370077D01*
X147466500Y-76358157D01*
X146891500Y-76358157D01*
X146770477Y-76370077D01*
X146654105Y-76405378D01*
X146546856Y-76462704D01*
X146452851Y-76539851D01*
X146375704Y-76633856D01*
X146318378Y-76741105D01*
X146304000Y-76788503D01*
X146289622Y-76741105D01*
X146232296Y-76633856D01*
X146155149Y-76539851D01*
X146061144Y-76462704D01*
X145953895Y-76405378D01*
X145837523Y-76370077D01*
X145716500Y-76358157D01*
X145141500Y-76358157D01*
X145020477Y-76370077D01*
X144904105Y-76405378D01*
X144796856Y-76462704D01*
X144702851Y-76539851D01*
X144627391Y-76631800D01*
X144440928Y-76631800D01*
X144440149Y-76630851D01*
X144348200Y-76555391D01*
X144348200Y-75952843D01*
X144505000Y-75952843D01*
X144579689Y-75945487D01*
X144651508Y-75923701D01*
X144717696Y-75888322D01*
X144775711Y-75840711D01*
X144823322Y-75782696D01*
X144858701Y-75716508D01*
X144865225Y-75695000D01*
X145571928Y-75695000D01*
X145584188Y-75819482D01*
X145620498Y-75939180D01*
X145679463Y-76049494D01*
X145758815Y-76146185D01*
X145855506Y-76225537D01*
X145965820Y-76284502D01*
X146085518Y-76320812D01*
X146210000Y-76333072D01*
X146399250Y-76330000D01*
X146558000Y-76171250D01*
X146558000Y-75297000D01*
X146812000Y-75297000D01*
X146812000Y-76171250D01*
X146970750Y-76330000D01*
X147160000Y-76333072D01*
X147284482Y-76320812D01*
X147404180Y-76284502D01*
X147514494Y-76225537D01*
X147611185Y-76146185D01*
X147690537Y-76049494D01*
X147749502Y-75939180D01*
X147785812Y-75819482D01*
X147798072Y-75695000D01*
X147795000Y-75455750D01*
X147636250Y-75297000D01*
X146812000Y-75297000D01*
X146558000Y-75297000D01*
X145733750Y-75297000D01*
X145575000Y-75455750D01*
X145571928Y-75695000D01*
X144865225Y-75695000D01*
X144880487Y-75644689D01*
X144887843Y-75570000D01*
X144887843Y-74920000D01*
X144880487Y-74845311D01*
X144858701Y-74773492D01*
X144823322Y-74707304D01*
X144775711Y-74649289D01*
X144717696Y-74601678D01*
X144651508Y-74566299D01*
X144579689Y-74544513D01*
X144505000Y-74537157D01*
X143445000Y-74537157D01*
X143370311Y-74544513D01*
X143298492Y-74566299D01*
X143232304Y-74601678D01*
X143174289Y-74649289D01*
X143126678Y-74707304D01*
X143091299Y-74773492D01*
X143069513Y-74845311D01*
X143062157Y-74920000D01*
X143062157Y-75570000D01*
X143069513Y-75644689D01*
X143091299Y-75716508D01*
X143126678Y-75782696D01*
X143174289Y-75840711D01*
X143179801Y-75845234D01*
X143179800Y-76555391D01*
X143087851Y-76630851D01*
X143010704Y-76724856D01*
X143002000Y-76741140D01*
X142993296Y-76724856D01*
X142916149Y-76630851D01*
X142824200Y-76555391D01*
X142824200Y-75738681D01*
X142827025Y-75709999D01*
X142824200Y-75681317D01*
X142824200Y-75681308D01*
X142815746Y-75595477D01*
X142782341Y-75485355D01*
X142728094Y-75383866D01*
X142687843Y-75334820D01*
X142687843Y-75127272D01*
X142756185Y-75071185D01*
X142835537Y-74974494D01*
X142894502Y-74864180D01*
X142930812Y-74744482D01*
X142943072Y-74620000D01*
X142940000Y-74580750D01*
X142781250Y-74422000D01*
X141902000Y-74422000D01*
X141902000Y-74442000D01*
X141648000Y-74442000D01*
X141648000Y-74422000D01*
X141628000Y-74422000D01*
X141628000Y-74168000D01*
X141648000Y-74168000D01*
X141648000Y-74148000D01*
X141902000Y-74148000D01*
X141902000Y-74168000D01*
X142781250Y-74168000D01*
X142940000Y-74009250D01*
X142943072Y-73970000D01*
X142930812Y-73845518D01*
X142894502Y-73725820D01*
X142835537Y-73615506D01*
X142756185Y-73518815D01*
X142687843Y-73462728D01*
X142687843Y-73020000D01*
X142680487Y-72945311D01*
X142658701Y-72873492D01*
X142623322Y-72807304D01*
X142575711Y-72749289D01*
X142517696Y-72701678D01*
X142451508Y-72666299D01*
X142379689Y-72644513D01*
X142305000Y-72637157D01*
X141245000Y-72637157D01*
X141170311Y-72644513D01*
X141121894Y-72659200D01*
X140923686Y-72659200D01*
X140890000Y-72655882D01*
X140856314Y-72659200D01*
X140856311Y-72659200D01*
X140755560Y-72669123D01*
X140626286Y-72708338D01*
X140507147Y-72772019D01*
X140402720Y-72857720D01*
X140381242Y-72883891D01*
X139922843Y-73342290D01*
X139922843Y-73132500D01*
X139910923Y-73011477D01*
X139875622Y-72895105D01*
X139818296Y-72787856D01*
X139741149Y-72693851D01*
X139647144Y-72616704D01*
X139539895Y-72559378D01*
X139423523Y-72524077D01*
X139329000Y-72514767D01*
X139329000Y-72055843D01*
X139473000Y-72055843D01*
X139547689Y-72048487D01*
X139573000Y-72040809D01*
X139598311Y-72048487D01*
X139665693Y-72055123D01*
X139711945Y-72114094D01*
X139806857Y-72195566D01*
X139915840Y-72256956D01*
X140034706Y-72295905D01*
X140141250Y-72308000D01*
X140300000Y-72149250D01*
X140300000Y-71869461D01*
X140326701Y-71819508D01*
X140346000Y-71755888D01*
X140346000Y-72149250D01*
X140504750Y-72308000D01*
X140611294Y-72295905D01*
X140730160Y-72256956D01*
X140839143Y-72195566D01*
X140934055Y-72114094D01*
X141011249Y-72015672D01*
X141067759Y-71904080D01*
X141101412Y-71783608D01*
X141110916Y-71658886D01*
X141108000Y-71558750D01*
X140949252Y-71400002D01*
X141066042Y-71400002D01*
X141107463Y-71477494D01*
X141186815Y-71574185D01*
X141283506Y-71653537D01*
X141393820Y-71712502D01*
X141513518Y-71748812D01*
X141638000Y-71761072D01*
X141827250Y-71758000D01*
X141986000Y-71599250D01*
X141986000Y-70725000D01*
X142240000Y-70725000D01*
X142240000Y-71599250D01*
X142398750Y-71758000D01*
X142588000Y-71761072D01*
X142712482Y-71748812D01*
X142832180Y-71712502D01*
X142942494Y-71653537D01*
X143039185Y-71574185D01*
X143118537Y-71477494D01*
X143177502Y-71367180D01*
X143213812Y-71247482D01*
X143226072Y-71123000D01*
X143223000Y-70883750D01*
X143064250Y-70725000D01*
X142240000Y-70725000D01*
X141986000Y-70725000D01*
X141966000Y-70725000D01*
X141966000Y-70471000D01*
X141986000Y-70471000D01*
X141986000Y-70451000D01*
X142240000Y-70451000D01*
X142240000Y-70471000D01*
X143064250Y-70471000D01*
X143223000Y-70312250D01*
X143225245Y-70137428D01*
X143390800Y-70302984D01*
X143390801Y-72642495D01*
X143370311Y-72644513D01*
X143298492Y-72666299D01*
X143232304Y-72701678D01*
X143174289Y-72749289D01*
X143126678Y-72807304D01*
X143091299Y-72873492D01*
X143069513Y-72945311D01*
X143062157Y-73020000D01*
X143062157Y-73670000D01*
X143069513Y-73744689D01*
X143091299Y-73816508D01*
X143126678Y-73882696D01*
X143174289Y-73940711D01*
X143232304Y-73988322D01*
X143298492Y-74023701D01*
X143370311Y-74045487D01*
X143445000Y-74052843D01*
X144505000Y-74052843D01*
X144579689Y-74045487D01*
X144651508Y-74023701D01*
X144717696Y-73988322D01*
X144775711Y-73940711D01*
X144785158Y-73929200D01*
X145869617Y-73929200D01*
X145874378Y-73944895D01*
X145931704Y-74052144D01*
X145944020Y-74067151D01*
X145855506Y-74114463D01*
X145758815Y-74193815D01*
X145679463Y-74290506D01*
X145620498Y-74400820D01*
X145584188Y-74520518D01*
X145571928Y-74645000D01*
X145575000Y-74884250D01*
X145733750Y-75043000D01*
X146558000Y-75043000D01*
X146558000Y-75023000D01*
X146812000Y-75023000D01*
X146812000Y-75043000D01*
X147636250Y-75043000D01*
X147795000Y-74884250D01*
X147798072Y-74645000D01*
X147785812Y-74520518D01*
X147749502Y-74400820D01*
X147690537Y-74290506D01*
X147611185Y-74193815D01*
X147514494Y-74114463D01*
X147425980Y-74067151D01*
X147438296Y-74052144D01*
X147495622Y-73944895D01*
X147530923Y-73828523D01*
X147542843Y-73707500D01*
X147542843Y-73132500D01*
X147530923Y-73011477D01*
X147495622Y-72895105D01*
X147438296Y-72787856D01*
X147361149Y-72693851D01*
X147267144Y-72616704D01*
X147159895Y-72559378D01*
X147043523Y-72524077D01*
X146922500Y-72512157D01*
X146447500Y-72512157D01*
X146326477Y-72524077D01*
X146210105Y-72559378D01*
X146102856Y-72616704D01*
X146008851Y-72693851D01*
X145953908Y-72760800D01*
X144785158Y-72760800D01*
X144775711Y-72749289D01*
X144717696Y-72701678D01*
X144651508Y-72666299D01*
X144579689Y-72644513D01*
X144559200Y-72642495D01*
X144559200Y-70089683D01*
X144562025Y-70060999D01*
X144559200Y-70032315D01*
X144559200Y-70032308D01*
X144550746Y-69946477D01*
X144517341Y-69836355D01*
X144463094Y-69734866D01*
X144390090Y-69645910D01*
X144367807Y-69627623D01*
X143195382Y-68455199D01*
X143177090Y-68432910D01*
X143088134Y-68359906D01*
X142986645Y-68305659D01*
X142900296Y-68279465D01*
X142866296Y-68215856D01*
X142798800Y-68133611D01*
X142798800Y-66962678D01*
X142802117Y-66928999D01*
X142798800Y-66895320D01*
X142798800Y-66895311D01*
X142788877Y-66794560D01*
X142749662Y-66665286D01*
X142685981Y-66546147D01*
X142664130Y-66519522D01*
X142621755Y-66467887D01*
X142621749Y-66467881D01*
X142600279Y-66441720D01*
X142574119Y-66420251D01*
X141873868Y-65720000D01*
X145859928Y-65720000D01*
X145872188Y-65844482D01*
X145908498Y-65964180D01*
X145967463Y-66074494D01*
X146046815Y-66171185D01*
X146143506Y-66250537D01*
X146253820Y-66309502D01*
X146373518Y-66345812D01*
X146498000Y-66358072D01*
X146787250Y-66355000D01*
X146946000Y-66196250D01*
X146946000Y-65147000D01*
X146021750Y-65147000D01*
X145863000Y-65305750D01*
X145859928Y-65720000D01*
X141873868Y-65720000D01*
X141646800Y-65492933D01*
X141646800Y-65484631D01*
X141733488Y-65413488D01*
X141812190Y-65317589D01*
X141870671Y-65208179D01*
X141906683Y-65089462D01*
X141918843Y-64966001D01*
X141918843Y-64065999D01*
X142053157Y-64065999D01*
X142053157Y-64966001D01*
X142065317Y-65089462D01*
X142101329Y-65208179D01*
X142159810Y-65317589D01*
X142238512Y-65413488D01*
X142334411Y-65492190D01*
X142443821Y-65550671D01*
X142562538Y-65586683D01*
X142685999Y-65598843D01*
X143336001Y-65598843D01*
X143459462Y-65586683D01*
X143578179Y-65550671D01*
X143687589Y-65492190D01*
X143783488Y-65413488D01*
X143862190Y-65317589D01*
X143920671Y-65208179D01*
X143956683Y-65089462D01*
X143968843Y-64966001D01*
X143968843Y-64320000D01*
X145859928Y-64320000D01*
X145863000Y-64734250D01*
X146021750Y-64893000D01*
X146946000Y-64893000D01*
X146946000Y-63843750D01*
X146787250Y-63685000D01*
X146498000Y-63681928D01*
X146373518Y-63694188D01*
X146253820Y-63730498D01*
X146143506Y-63789463D01*
X146046815Y-63868815D01*
X145967463Y-63965506D01*
X145908498Y-64075820D01*
X145872188Y-64195518D01*
X145859928Y-64320000D01*
X143968843Y-64320000D01*
X143968843Y-64065999D01*
X143956683Y-63942538D01*
X143920671Y-63823821D01*
X143862190Y-63714411D01*
X143783488Y-63618512D01*
X143687589Y-63539810D01*
X143595200Y-63490427D01*
X143595200Y-62109843D01*
X143870000Y-62109843D01*
X143944689Y-62102487D01*
X143993106Y-62087800D01*
X144432321Y-62087800D01*
X144466000Y-62091117D01*
X144499679Y-62087800D01*
X144499689Y-62087800D01*
X144600440Y-62077877D01*
X144729714Y-62038662D01*
X144848853Y-61974981D01*
X144953280Y-61889280D01*
X144974758Y-61863109D01*
X146695024Y-60142843D01*
X147158000Y-60142843D01*
X147232689Y-60135487D01*
X147304508Y-60113701D01*
X147370696Y-60078322D01*
X147428711Y-60030711D01*
X147476322Y-59972696D01*
X147511701Y-59906508D01*
X147533487Y-59834689D01*
X147540843Y-59760000D01*
X147540843Y-58860000D01*
X147533487Y-58785311D01*
X147511701Y-58713492D01*
X147476322Y-58647304D01*
X147457492Y-58624359D01*
X148331157Y-59498025D01*
X148331157Y-59673500D01*
X148343077Y-59794523D01*
X148378378Y-59910895D01*
X148435704Y-60018144D01*
X148512851Y-60112149D01*
X148553200Y-60145263D01*
X148553201Y-60363123D01*
X148521851Y-60388851D01*
X148444704Y-60482856D01*
X148387378Y-60590105D01*
X148352077Y-60706477D01*
X148340157Y-60827500D01*
X148340157Y-61402500D01*
X148352077Y-61523523D01*
X148387378Y-61639895D01*
X148444704Y-61747144D01*
X148521851Y-61841149D01*
X148615856Y-61918296D01*
X148626902Y-61924200D01*
X147457361Y-61924200D01*
X147428711Y-61889289D01*
X147370696Y-61841678D01*
X147304508Y-61806299D01*
X147232689Y-61784513D01*
X147158000Y-61777157D01*
X145958000Y-61777157D01*
X145883311Y-61784513D01*
X145811492Y-61806299D01*
X145745304Y-61841678D01*
X145687289Y-61889289D01*
X145639678Y-61947304D01*
X145604299Y-62013492D01*
X145582513Y-62085311D01*
X145575157Y-62160000D01*
X145575157Y-63060000D01*
X145582513Y-63134689D01*
X145604299Y-63206508D01*
X145639678Y-63272696D01*
X145687289Y-63330711D01*
X145745304Y-63378322D01*
X145811492Y-63413701D01*
X145883311Y-63435487D01*
X145958000Y-63442843D01*
X147158000Y-63442843D01*
X147232689Y-63435487D01*
X147304508Y-63413701D01*
X147370696Y-63378322D01*
X147428711Y-63330711D01*
X147457361Y-63295800D01*
X148358835Y-63295800D01*
X148387378Y-63389895D01*
X148444704Y-63497144D01*
X148521851Y-63591149D01*
X148615856Y-63668296D01*
X148723105Y-63725622D01*
X148839477Y-63760923D01*
X148960500Y-63772843D01*
X149435500Y-63772843D01*
X149556523Y-63760923D01*
X149672895Y-63725622D01*
X149780144Y-63668296D01*
X149874149Y-63591149D01*
X149915469Y-63540800D01*
X150328738Y-63540800D01*
X150352200Y-63569390D01*
X150352201Y-63860610D01*
X150284704Y-63942856D01*
X150227378Y-64050105D01*
X150192077Y-64166477D01*
X150180157Y-64287500D01*
X150180157Y-64862500D01*
X150192077Y-64983523D01*
X150227378Y-65099895D01*
X150284704Y-65207144D01*
X150361851Y-65301149D01*
X150455856Y-65378296D01*
X150563105Y-65435622D01*
X150610503Y-65450000D01*
X150563105Y-65464378D01*
X150455856Y-65521704D01*
X150361851Y-65598851D01*
X150328738Y-65639200D01*
X150302068Y-65639200D01*
X150080843Y-65417975D01*
X150080843Y-64569999D01*
X150068683Y-64446538D01*
X150032671Y-64327821D01*
X149974190Y-64218411D01*
X149895488Y-64122512D01*
X149799589Y-64043810D01*
X149690179Y-63985329D01*
X149571462Y-63949317D01*
X149448001Y-63937157D01*
X148797999Y-63937157D01*
X148674538Y-63949317D01*
X148555821Y-63985329D01*
X148446411Y-64043810D01*
X148350512Y-64122512D01*
X148275611Y-64213780D01*
X148273812Y-64195518D01*
X148237502Y-64075820D01*
X148178537Y-63965506D01*
X148099185Y-63868815D01*
X148002494Y-63789463D01*
X147892180Y-63730498D01*
X147772482Y-63694188D01*
X147648000Y-63681928D01*
X147358750Y-63685000D01*
X147200000Y-63843750D01*
X147200000Y-64893000D01*
X147220000Y-64893000D01*
X147220000Y-65147000D01*
X147200000Y-65147000D01*
X147200000Y-66196250D01*
X147331941Y-66328191D01*
X146976612Y-66683520D01*
X146809022Y-66716856D01*
X146648690Y-66783268D01*
X146504395Y-66879682D01*
X146381682Y-67002395D01*
X146285268Y-67146690D01*
X146218856Y-67307022D01*
X146185000Y-67477229D01*
X146185000Y-67650771D01*
X146218856Y-67820978D01*
X146285268Y-67981310D01*
X146381682Y-68125605D01*
X146504395Y-68248318D01*
X146648690Y-68344732D01*
X146809022Y-68411144D01*
X146979229Y-68445000D01*
X147152771Y-68445000D01*
X147322978Y-68411144D01*
X147349881Y-68400000D01*
X149331157Y-68400000D01*
X149331157Y-69300000D01*
X149338513Y-69374689D01*
X149360299Y-69446508D01*
X149395678Y-69512696D01*
X149443289Y-69570711D01*
X149501304Y-69618322D01*
X149567492Y-69653701D01*
X149639311Y-69675487D01*
X149714000Y-69682843D01*
X150514000Y-69682843D01*
X150588689Y-69675487D01*
X150660508Y-69653701D01*
X150726696Y-69618322D01*
X150784711Y-69570711D01*
X150832322Y-69512696D01*
X150867701Y-69446508D01*
X150889487Y-69374689D01*
X150896843Y-69300000D01*
X150896843Y-68400000D01*
X150889487Y-68325311D01*
X150867701Y-68253492D01*
X150832322Y-68187304D01*
X150784711Y-68129289D01*
X150726696Y-68081678D01*
X150660508Y-68046299D01*
X150588689Y-68024513D01*
X150514000Y-68017157D01*
X149714000Y-68017157D01*
X149639311Y-68024513D01*
X149567492Y-68046299D01*
X149501304Y-68081678D01*
X149443289Y-68129289D01*
X149395678Y-68187304D01*
X149360299Y-68253492D01*
X149338513Y-68325311D01*
X149331157Y-68400000D01*
X147349881Y-68400000D01*
X147483310Y-68344732D01*
X147627605Y-68248318D01*
X147750318Y-68125605D01*
X147846732Y-67981310D01*
X147913144Y-67820978D01*
X147946480Y-67653388D01*
X149161500Y-66438368D01*
X149509246Y-66786114D01*
X149530720Y-66812280D01*
X149635147Y-66897981D01*
X149754286Y-66961662D01*
X149883560Y-67000877D01*
X149984311Y-67010800D01*
X149984320Y-67010800D01*
X150017999Y-67014117D01*
X150051678Y-67010800D01*
X150328738Y-67010800D01*
X150361851Y-67051149D01*
X150455856Y-67128296D01*
X150563105Y-67185622D01*
X150679477Y-67220923D01*
X150800500Y-67232843D01*
X151275500Y-67232843D01*
X151396523Y-67220923D01*
X151512895Y-67185622D01*
X151620144Y-67128296D01*
X151714149Y-67051149D01*
X151791296Y-66957144D01*
X151848622Y-66849895D01*
X151883923Y-66733523D01*
X151895843Y-66612500D01*
X151895843Y-66037500D01*
X151883923Y-65916477D01*
X151848622Y-65800105D01*
X151791296Y-65692856D01*
X151714149Y-65598851D01*
X151620144Y-65521704D01*
X151512895Y-65464378D01*
X151465497Y-65450000D01*
X151512895Y-65435622D01*
X151620144Y-65378296D01*
X151714149Y-65301149D01*
X151791296Y-65207144D01*
X151848622Y-65099895D01*
X151883923Y-64983523D01*
X151895843Y-64862500D01*
X151895843Y-64287500D01*
X151883923Y-64166477D01*
X151848622Y-64050105D01*
X151791296Y-63942856D01*
X151723800Y-63860611D01*
X151723800Y-63569389D01*
X151791296Y-63487144D01*
X151848622Y-63379895D01*
X151883923Y-63263523D01*
X151895843Y-63142500D01*
X151895843Y-62567500D01*
X151883923Y-62446477D01*
X151848622Y-62330105D01*
X151791296Y-62222856D01*
X151714149Y-62128851D01*
X151620144Y-62051704D01*
X151512895Y-61994378D01*
X151465497Y-61980000D01*
X151512895Y-61965622D01*
X151620144Y-61908296D01*
X151714149Y-61831149D01*
X151791296Y-61737144D01*
X151848622Y-61629895D01*
X151883923Y-61513523D01*
X151895843Y-61392500D01*
X151895843Y-60817500D01*
X151883923Y-60696477D01*
X151848622Y-60580105D01*
X151795430Y-60480591D01*
X151868494Y-60441537D01*
X151965185Y-60362185D01*
X152044537Y-60265494D01*
X152103502Y-60155180D01*
X152139812Y-60035482D01*
X152152072Y-59911000D01*
X152149000Y-59721750D01*
X151990250Y-59563000D01*
X151116000Y-59563000D01*
X151116000Y-59583000D01*
X150862000Y-59583000D01*
X150862000Y-59563000D01*
X150842000Y-59563000D01*
X150842000Y-59309000D01*
X150862000Y-59309000D01*
X150862000Y-58484750D01*
X151116000Y-58484750D01*
X151116000Y-59309000D01*
X151990250Y-59309000D01*
X152149000Y-59150250D01*
X152152072Y-58961000D01*
X152139812Y-58836518D01*
X152103502Y-58716820D01*
X152044537Y-58606506D01*
X151965185Y-58509815D01*
X151868494Y-58430463D01*
X151758180Y-58371498D01*
X151638482Y-58335188D01*
X151514000Y-58322928D01*
X151274750Y-58326000D01*
X151116000Y-58484750D01*
X150862000Y-58484750D01*
X150703250Y-58326000D01*
X150464000Y-58322928D01*
X150339518Y-58335188D01*
X150219820Y-58371498D01*
X150109506Y-58430463D01*
X150012815Y-58509815D01*
X149933463Y-58606506D01*
X149886151Y-58695020D01*
X149871144Y-58682704D01*
X149763895Y-58625378D01*
X149647523Y-58590077D01*
X149526500Y-58578157D01*
X149351025Y-58578157D01*
X148223758Y-57450891D01*
X148202280Y-57424720D01*
X148097853Y-57339019D01*
X147978714Y-57275338D01*
X147849440Y-57236123D01*
X147748689Y-57226200D01*
X147748679Y-57226200D01*
X147715000Y-57222883D01*
X147681321Y-57226200D01*
X144559678Y-57226200D01*
X144525999Y-57222883D01*
X144492320Y-57226200D01*
X144492311Y-57226200D01*
X144391560Y-57236123D01*
X144262286Y-57275338D01*
X144143147Y-57339019D01*
X144038720Y-57424720D01*
X144017247Y-57450886D01*
X142878886Y-58589247D01*
X142852721Y-58610720D01*
X142767019Y-58715147D01*
X142718058Y-58806747D01*
X142663492Y-58823299D01*
X142597304Y-58858678D01*
X142539289Y-58906289D01*
X142491678Y-58964304D01*
X142456299Y-59030492D01*
X142434513Y-59102311D01*
X142427157Y-59177000D01*
X142427157Y-59619728D01*
X142358815Y-59675815D01*
X142279463Y-59772506D01*
X142220498Y-59882820D01*
X142184188Y-60002518D01*
X142171928Y-60127000D01*
X142175000Y-60166250D01*
X142333750Y-60325000D01*
X143213000Y-60325000D01*
X143213000Y-60305000D01*
X143467000Y-60305000D01*
X143467000Y-60325000D01*
X143487000Y-60325000D01*
X143487000Y-60579000D01*
X143467000Y-60579000D01*
X143467000Y-60599000D01*
X143213000Y-60599000D01*
X143213000Y-60579000D01*
X142333750Y-60579000D01*
X142175000Y-60737750D01*
X142171928Y-60777000D01*
X142184188Y-60901482D01*
X142220498Y-61021180D01*
X142279463Y-61131494D01*
X142358815Y-61228185D01*
X142427157Y-61284272D01*
X142427157Y-61698691D01*
X142423975Y-61731000D01*
X142426801Y-61759694D01*
X142426800Y-63490427D01*
X142334411Y-63539810D01*
X142238512Y-63618512D01*
X142159810Y-63714411D01*
X142101329Y-63823821D01*
X142065317Y-63942538D01*
X142053157Y-64065999D01*
X141918843Y-64065999D01*
X141906683Y-63942538D01*
X141870671Y-63823821D01*
X141812190Y-63714411D01*
X141733488Y-63618512D01*
X141637589Y-63539810D01*
X141545200Y-63490427D01*
X141545200Y-62109843D01*
X141670000Y-62109843D01*
X141744689Y-62102487D01*
X141816508Y-62080701D01*
X141882696Y-62045322D01*
X141940711Y-61997711D01*
X141988322Y-61939696D01*
X142023701Y-61873508D01*
X142045487Y-61801689D01*
X142052843Y-61727000D01*
X142052843Y-61077000D01*
X142045487Y-61002311D01*
X142023701Y-60930492D01*
X141988322Y-60864304D01*
X141940711Y-60806289D01*
X141882696Y-60758678D01*
X141816508Y-60723299D01*
X141744689Y-60701513D01*
X141670000Y-60694157D01*
X140610000Y-60694157D01*
X140535311Y-60701513D01*
X140463492Y-60723299D01*
X140397304Y-60758678D01*
X140339289Y-60806289D01*
X140329842Y-60817800D01*
X139795843Y-60817800D01*
X139795843Y-60785500D01*
X139783923Y-60664477D01*
X139748622Y-60548105D01*
X139691296Y-60440856D01*
X139614149Y-60346851D01*
X139520144Y-60269704D01*
X139412895Y-60212378D01*
X139365497Y-60198000D01*
X139412895Y-60183622D01*
X139520144Y-60126296D01*
X139569002Y-60086200D01*
X140329842Y-60086200D01*
X140339289Y-60097711D01*
X140397304Y-60145322D01*
X140463492Y-60180701D01*
X140535311Y-60202487D01*
X140610000Y-60209843D01*
X141670000Y-60209843D01*
X141744689Y-60202487D01*
X141816508Y-60180701D01*
X141882696Y-60145322D01*
X141940711Y-60097711D01*
X141988322Y-60039696D01*
X142023701Y-59973508D01*
X142045487Y-59901689D01*
X142052843Y-59827000D01*
X142052843Y-59177000D01*
X142045487Y-59102311D01*
X142023701Y-59030492D01*
X141988322Y-58964304D01*
X141940711Y-58906289D01*
X141882696Y-58858678D01*
X141816508Y-58823299D01*
X141744689Y-58801513D01*
X141670000Y-58794157D01*
X140610000Y-58794157D01*
X140535311Y-58801513D01*
X140463492Y-58823299D01*
X140397304Y-58858678D01*
X140339289Y-58906289D01*
X140329842Y-58917800D01*
X139784250Y-58917800D01*
X139783923Y-58914477D01*
X139748622Y-58798105D01*
X139691296Y-58690856D01*
X139614149Y-58596851D01*
X139520144Y-58519704D01*
X139412895Y-58462378D01*
X139296523Y-58427077D01*
X139175500Y-58415157D01*
X139000025Y-58415157D01*
X138289758Y-57704891D01*
X138268280Y-57678720D01*
X138163853Y-57593019D01*
X138044714Y-57529338D01*
X137915440Y-57490123D01*
X137814689Y-57480200D01*
X137814679Y-57480200D01*
X137781000Y-57476883D01*
X137747321Y-57480200D01*
X136658274Y-57480200D01*
X136592180Y-57381283D01*
X136420717Y-57209820D01*
X136219097Y-57075102D01*
X135995069Y-56982307D01*
X135757243Y-56935000D01*
X135514757Y-56935000D01*
X135276931Y-56982307D01*
X135052903Y-57075102D01*
X134851283Y-57209820D01*
X134679820Y-57381283D01*
X134545102Y-57582903D01*
X134452307Y-57806931D01*
X134405000Y-58044757D01*
X134405000Y-58287243D01*
X134452307Y-58525069D01*
X134545102Y-58749097D01*
X134679820Y-58950717D01*
X134851283Y-59122180D01*
X135052903Y-59256898D01*
X135276931Y-59349693D01*
X135514757Y-59397000D01*
X135757243Y-59397000D01*
X135995069Y-59349693D01*
X136219097Y-59256898D01*
X136420717Y-59122180D01*
X136592180Y-58950717D01*
X136658274Y-58851800D01*
X137496933Y-58851800D01*
X138080157Y-59435025D01*
X138080157Y-59610500D01*
X138092077Y-59731523D01*
X138127378Y-59847895D01*
X138184704Y-59955144D01*
X138238093Y-60020200D01*
X136658274Y-60020200D01*
X136592180Y-59921283D01*
X136420717Y-59749820D01*
X136219097Y-59615102D01*
X135995069Y-59522307D01*
X135757243Y-59475000D01*
X135514757Y-59475000D01*
X135276931Y-59522307D01*
X135052903Y-59615102D01*
X134851283Y-59749820D01*
X134679820Y-59921283D01*
X134545102Y-60122903D01*
X134452307Y-60346931D01*
X134405000Y-60584757D01*
X134405000Y-60827243D01*
X134452307Y-61065069D01*
X134545102Y-61289097D01*
X134679820Y-61490717D01*
X134851283Y-61662180D01*
X135052903Y-61796898D01*
X135167168Y-61844228D01*
X135004748Y-61901843D01*
X134754645Y-62050822D01*
X134538412Y-62245731D01*
X134364359Y-62479080D01*
X134239175Y-62741901D01*
X134194524Y-62889110D01*
X134315845Y-63119000D01*
X135509000Y-63119000D01*
X135509000Y-63099000D01*
X135763000Y-63099000D01*
X135763000Y-63119000D01*
X136956155Y-63119000D01*
X137077476Y-62889110D01*
X137032825Y-62741901D01*
X136907641Y-62479080D01*
X136733588Y-62245731D01*
X136517355Y-62050822D01*
X136267252Y-61901843D01*
X136104832Y-61844228D01*
X136219097Y-61796898D01*
X136420717Y-61662180D01*
X136592180Y-61490717D01*
X136658274Y-61391800D01*
X138083240Y-61391800D01*
X138092077Y-61481523D01*
X138127378Y-61597895D01*
X138184704Y-61705144D01*
X138252201Y-61787390D01*
X138252200Y-62071394D01*
X138245821Y-62073329D01*
X138136411Y-62131810D01*
X138040512Y-62210512D01*
X137961810Y-62306411D01*
X137903329Y-62415821D01*
X137867317Y-62534538D01*
X137855157Y-62657999D01*
X137855157Y-63308001D01*
X137867317Y-63431462D01*
X137903329Y-63550179D01*
X137961810Y-63659589D01*
X138040512Y-63755488D01*
X138131780Y-63830389D01*
X138113518Y-63832188D01*
X137993820Y-63868498D01*
X137883506Y-63927463D01*
X137786815Y-64006815D01*
X137707463Y-64103506D01*
X137648498Y-64213820D01*
X137612188Y-64333518D01*
X137599928Y-64458000D01*
X137603000Y-64747250D01*
X137761750Y-64906000D01*
X138811000Y-64906000D01*
X138811000Y-64886000D01*
X139065000Y-64886000D01*
X139065000Y-64906000D01*
X139085000Y-64906000D01*
X139085000Y-65160000D01*
X139065000Y-65160000D01*
X139065000Y-66084250D01*
X139223750Y-66243000D01*
X139638000Y-66246072D01*
X139762482Y-66233812D01*
X139882180Y-66197502D01*
X139992494Y-66138537D01*
X140089185Y-66059185D01*
X140168537Y-65962494D01*
X140227502Y-65852180D01*
X140263812Y-65732482D01*
X140275201Y-65616845D01*
X140275201Y-65743312D01*
X140271883Y-65777000D01*
X140275201Y-65810689D01*
X140282539Y-65885192D01*
X140285124Y-65911440D01*
X140324339Y-66040714D01*
X140388020Y-66159853D01*
X140448717Y-66233812D01*
X140473721Y-66264280D01*
X140499886Y-66285753D01*
X141427200Y-67213068D01*
X141427201Y-68133610D01*
X141359704Y-68215856D01*
X141302378Y-68323105D01*
X141281479Y-68392001D01*
X140855843Y-68392001D01*
X140855843Y-67773000D01*
X140848487Y-67698311D01*
X140829000Y-67634071D01*
X140829000Y-67195854D01*
X140831448Y-67171000D01*
X140821678Y-67071807D01*
X140792745Y-66976425D01*
X140782439Y-66957144D01*
X140745759Y-66888521D01*
X140682527Y-66811473D01*
X140663220Y-66795628D01*
X140329376Y-66461785D01*
X140313527Y-66442473D01*
X140236479Y-66379241D01*
X140148575Y-66332255D01*
X140053193Y-66303322D01*
X139978854Y-66296000D01*
X139978846Y-66296000D01*
X139954000Y-66293553D01*
X139929154Y-66296000D01*
X136868843Y-66296000D01*
X136868843Y-65608000D01*
X137599928Y-65608000D01*
X137612188Y-65732482D01*
X137648498Y-65852180D01*
X137707463Y-65962494D01*
X137786815Y-66059185D01*
X137883506Y-66138537D01*
X137993820Y-66197502D01*
X138113518Y-66233812D01*
X138238000Y-66246072D01*
X138652250Y-66243000D01*
X138811000Y-66084250D01*
X138811000Y-65160000D01*
X137761750Y-65160000D01*
X137603000Y-65318750D01*
X137599928Y-65608000D01*
X136868843Y-65608000D01*
X136868843Y-64936000D01*
X136861487Y-64861311D01*
X136839701Y-64789492D01*
X136804322Y-64723304D01*
X136756711Y-64665289D01*
X136698696Y-64617678D01*
X136632508Y-64582299D01*
X136560689Y-64560513D01*
X136486000Y-64553157D01*
X136329367Y-64553157D01*
X136517355Y-64441178D01*
X136733588Y-64246269D01*
X136907641Y-64012920D01*
X137032825Y-63750099D01*
X137077476Y-63602890D01*
X136956155Y-63373000D01*
X135763000Y-63373000D01*
X135763000Y-63393000D01*
X135509000Y-63393000D01*
X135509000Y-63373000D01*
X134315845Y-63373000D01*
X134194524Y-63602890D01*
X134239175Y-63750099D01*
X134364359Y-64012920D01*
X134538412Y-64246269D01*
X134754645Y-64441178D01*
X134942633Y-64553157D01*
X134786000Y-64553157D01*
X134711311Y-64560513D01*
X134639492Y-64582299D01*
X134573304Y-64617678D01*
X134515289Y-64665289D01*
X134467678Y-64723304D01*
X134432299Y-64789492D01*
X134410513Y-64861311D01*
X134403157Y-64936000D01*
X134403157Y-66636000D01*
X134410513Y-66710689D01*
X134432299Y-66782508D01*
X134467678Y-66848696D01*
X134515289Y-66906711D01*
X134573304Y-66954322D01*
X134639492Y-66989701D01*
X134711311Y-67011487D01*
X134786000Y-67018843D01*
X136153251Y-67018843D01*
X136276628Y-67142220D01*
X136292473Y-67161527D01*
X136369521Y-67224759D01*
X136457425Y-67271745D01*
X136552807Y-67300678D01*
X136627146Y-67308000D01*
X136627154Y-67308000D01*
X136652000Y-67310447D01*
X136676846Y-67308000D01*
X139744409Y-67308000D01*
X139817001Y-67380592D01*
X139817001Y-67390157D01*
X139673000Y-67390157D01*
X139598311Y-67397513D01*
X139573000Y-67405191D01*
X139547689Y-67397513D01*
X139473000Y-67390157D01*
X139173000Y-67390157D01*
X139098311Y-67397513D01*
X139073000Y-67405191D01*
X139047689Y-67397513D01*
X138973000Y-67390157D01*
X138673000Y-67390157D01*
X138598311Y-67397513D01*
X138526492Y-67419299D01*
X138460304Y-67454678D01*
X138402289Y-67502289D01*
X138354678Y-67560304D01*
X138319299Y-67626492D01*
X138297513Y-67698311D01*
X138290157Y-67773000D01*
X138290157Y-68573000D01*
X138297513Y-68647689D01*
X138319299Y-68719508D01*
X138354678Y-68785696D01*
X138402289Y-68843711D01*
X138460304Y-68891322D01*
X138526492Y-68926701D01*
X138598311Y-68948487D01*
X138673000Y-68955843D01*
X138973000Y-68955843D01*
X139047689Y-68948487D01*
X139073000Y-68940809D01*
X139098311Y-68948487D01*
X139173000Y-68955843D01*
X139384401Y-68955843D01*
X139400242Y-68985479D01*
X139463474Y-69062527D01*
X139482781Y-69078372D01*
X139642625Y-69238216D01*
X139658474Y-69257528D01*
X139735522Y-69320760D01*
X139823426Y-69367746D01*
X139918808Y-69396679D01*
X139993147Y-69404001D01*
X139993154Y-69404001D01*
X140018000Y-69406448D01*
X140042846Y-69404001D01*
X141319005Y-69404001D01*
X141359704Y-69480144D01*
X141372020Y-69495151D01*
X141283506Y-69542463D01*
X141186815Y-69621815D01*
X141107463Y-69718506D01*
X141048498Y-69828820D01*
X141012188Y-69948518D01*
X140999928Y-70073000D01*
X141003000Y-70312250D01*
X141161748Y-70470998D01*
X141003000Y-70470998D01*
X141003000Y-70519811D01*
X140934055Y-70431906D01*
X140839143Y-70350434D01*
X140730160Y-70289044D01*
X140611294Y-70250095D01*
X140504750Y-70238000D01*
X140346000Y-70396750D01*
X140346000Y-70790112D01*
X140326701Y-70726492D01*
X140300000Y-70676539D01*
X140300000Y-70396750D01*
X140141250Y-70238000D01*
X140034706Y-70250095D01*
X139915840Y-70289044D01*
X139806857Y-70350434D01*
X139711945Y-70431906D01*
X139665693Y-70490877D01*
X139598311Y-70497513D01*
X139573000Y-70505191D01*
X139547689Y-70497513D01*
X139473000Y-70490157D01*
X139173000Y-70490157D01*
X139098311Y-70497513D01*
X139073000Y-70505191D01*
X139047689Y-70497513D01*
X138973000Y-70490157D01*
X138673000Y-70490157D01*
X138598311Y-70497513D01*
X138526492Y-70519299D01*
X138460304Y-70554678D01*
X138402289Y-70602289D01*
X138354678Y-70660304D01*
X138319299Y-70726492D01*
X138297513Y-70798311D01*
X138290157Y-70873000D01*
X138290157Y-71673000D01*
X138297513Y-71747689D01*
X138317000Y-71811930D01*
X138317001Y-72781402D01*
X138311704Y-72787856D01*
X138254378Y-72895105D01*
X138219077Y-73011477D01*
X138207157Y-73132500D01*
X138207157Y-73707500D01*
X138219077Y-73828523D01*
X138254378Y-73944895D01*
X138311704Y-74052144D01*
X138388851Y-74146149D01*
X138482856Y-74223296D01*
X138590105Y-74280622D01*
X138637503Y-74295000D01*
X138590105Y-74309378D01*
X138482856Y-74366704D01*
X138388851Y-74443851D01*
X138311704Y-74537856D01*
X138254378Y-74645105D01*
X138219077Y-74761477D01*
X138207157Y-74882500D01*
X138207157Y-75457500D01*
X138219077Y-75578523D01*
X138254378Y-75694895D01*
X138311704Y-75802144D01*
X138388851Y-75896149D01*
X138482856Y-75973296D01*
X138590105Y-76030622D01*
X138706477Y-76065923D01*
X138827500Y-76077843D01*
X139302500Y-76077843D01*
X139423523Y-76065923D01*
X139539895Y-76030622D01*
X139647144Y-75973296D01*
X139741149Y-75896149D01*
X139818296Y-75802144D01*
X139875622Y-75694895D01*
X139910923Y-75578523D01*
X139922843Y-75457500D01*
X139922843Y-75282024D01*
X140608801Y-74596066D01*
X140606928Y-74620000D01*
X140619188Y-74744482D01*
X140655498Y-74864180D01*
X140714463Y-74974494D01*
X140793815Y-75071185D01*
X140862157Y-75127272D01*
X140862157Y-75570000D01*
X140869513Y-75644689D01*
X140891299Y-75716508D01*
X140926678Y-75782696D01*
X140974289Y-75840711D01*
X141032304Y-75888322D01*
X141098492Y-75923701D01*
X141170311Y-75945487D01*
X141245000Y-75952843D01*
X141655801Y-75952843D01*
X141655800Y-76555391D01*
X141563851Y-76630851D01*
X141563072Y-76631800D01*
X141376609Y-76631800D01*
X141301149Y-76539851D01*
X141207144Y-76462704D01*
X141099895Y-76405378D01*
X140983523Y-76370077D01*
X140862500Y-76358157D01*
X140287500Y-76358157D01*
X140166477Y-76370077D01*
X140050105Y-76405378D01*
X139942856Y-76462704D01*
X139848851Y-76539851D01*
X139771704Y-76633856D01*
X139714378Y-76741105D01*
X139700000Y-76788503D01*
X139685622Y-76741105D01*
X139628296Y-76633856D01*
X139551149Y-76539851D01*
X139457144Y-76462704D01*
X139349895Y-76405378D01*
X139233523Y-76370077D01*
X139112500Y-76358157D01*
X138537500Y-76358157D01*
X138416477Y-76370077D01*
X138300105Y-76405378D01*
X138192856Y-76462704D01*
X138098851Y-76539851D01*
X138021704Y-76633856D01*
X138001743Y-76671200D01*
X137906390Y-76671200D01*
X137896942Y-76664887D01*
X137754809Y-76606013D01*
X137603922Y-76576000D01*
X137450078Y-76576000D01*
X137299191Y-76606013D01*
X137293411Y-76608407D01*
X137237149Y-76539851D01*
X137143144Y-76462704D01*
X137035895Y-76405378D01*
X136919523Y-76370077D01*
X136798500Y-76358157D01*
X136223500Y-76358157D01*
X136221315Y-76358372D01*
X136223026Y-76341000D01*
X136220200Y-76312308D01*
X136220200Y-76255152D01*
X136300250Y-76253000D01*
X136459000Y-76094250D01*
X136459000Y-75295000D01*
X136713000Y-75295000D01*
X136713000Y-76094250D01*
X136871750Y-76253000D01*
X136986000Y-76256072D01*
X137110482Y-76243812D01*
X137230180Y-76207502D01*
X137340494Y-76148537D01*
X137437185Y-76069185D01*
X137516537Y-75972494D01*
X137575502Y-75862180D01*
X137611812Y-75742482D01*
X137624072Y-75618000D01*
X137621000Y-75453750D01*
X137462250Y-75295000D01*
X136713000Y-75295000D01*
X136459000Y-75295000D01*
X136439000Y-75295000D01*
X136439000Y-75041000D01*
X136459000Y-75041000D01*
X136459000Y-74241750D01*
X136713000Y-74241750D01*
X136713000Y-75041000D01*
X137462250Y-75041000D01*
X137621000Y-74882250D01*
X137624072Y-74718000D01*
X137611812Y-74593518D01*
X137575502Y-74473820D01*
X137516537Y-74363506D01*
X137437185Y-74266815D01*
X137340494Y-74187463D01*
X137230180Y-74128498D01*
X137110482Y-74092188D01*
X136986000Y-74079928D01*
X136871750Y-74083000D01*
X136713000Y-74241750D01*
X136459000Y-74241750D01*
X136300250Y-74083000D01*
X136220200Y-74080848D01*
X136220200Y-73951554D01*
X136248696Y-73936322D01*
X136306711Y-73888711D01*
X136354322Y-73830696D01*
X136389701Y-73764508D01*
X136411487Y-73692689D01*
X136418843Y-73618000D01*
X136418843Y-73211340D01*
X136978806Y-72651378D01*
X137001090Y-72633090D01*
X137074094Y-72544134D01*
X137128341Y-72442645D01*
X137161746Y-72332523D01*
X137170200Y-72246692D01*
X137170200Y-72246684D01*
X137173025Y-72218000D01*
X137170200Y-72189316D01*
X137170200Y-71633554D01*
X137198696Y-71618322D01*
X137256711Y-71570711D01*
X137304322Y-71512696D01*
X137339701Y-71446508D01*
X137361487Y-71374689D01*
X137368843Y-71300000D01*
X137368843Y-70400000D01*
X137361487Y-70325311D01*
X137339701Y-70253492D01*
X137304322Y-70187304D01*
X137256711Y-70129289D01*
X137198696Y-70081678D01*
X137132508Y-70046299D01*
X137060689Y-70024513D01*
X136986000Y-70017157D01*
X136186000Y-70017157D01*
X136111311Y-70024513D01*
X136039492Y-70046299D01*
X135973304Y-70081678D01*
X135915289Y-70129289D01*
X135867678Y-70187304D01*
X135832299Y-70253492D01*
X135810513Y-70325311D01*
X135803157Y-70400000D01*
X135803157Y-71300000D01*
X135810513Y-71374689D01*
X135832299Y-71446508D01*
X135867678Y-71512696D01*
X135915289Y-71570711D01*
X135973304Y-71618322D01*
X136001801Y-71633554D01*
X136001801Y-71976015D01*
X135642660Y-72335157D01*
X135270200Y-72335157D01*
X135270200Y-71633554D01*
X135298696Y-71618322D01*
X135356711Y-71570711D01*
X135404322Y-71512696D01*
X135439701Y-71446508D01*
X135461487Y-71374689D01*
X135468843Y-71300000D01*
X135468843Y-70400000D01*
X135461487Y-70325311D01*
X135439701Y-70253492D01*
X135404322Y-70187304D01*
X135356711Y-70129289D01*
X135298696Y-70081678D01*
X135232508Y-70046299D01*
X135160689Y-70024513D01*
X135086000Y-70017157D01*
X134286000Y-70017157D01*
X134211311Y-70024513D01*
X134139492Y-70046299D01*
X134073304Y-70081678D01*
X134015289Y-70129289D01*
X133967678Y-70187304D01*
X133932299Y-70253492D01*
X133910513Y-70325311D01*
X133903157Y-70400000D01*
X133903157Y-71300000D01*
X133910513Y-71374689D01*
X133932299Y-71446508D01*
X133967678Y-71512696D01*
X134015289Y-71570711D01*
X134073304Y-71618322D01*
X134101801Y-71633554D01*
X134101800Y-74384446D01*
X134073304Y-74399678D01*
X134015289Y-74447289D01*
X133967678Y-74505304D01*
X133932299Y-74571492D01*
X133910513Y-74643311D01*
X133903157Y-74718000D01*
X133903157Y-75618000D01*
X133910513Y-75692689D01*
X133932299Y-75764508D01*
X133967678Y-75830696D01*
X134015289Y-75888711D01*
X134073304Y-75936322D01*
X134139492Y-75971701D01*
X134211311Y-75993487D01*
X134286000Y-76000843D01*
X135051801Y-76000843D01*
X135051801Y-76099015D01*
X134792659Y-76358157D01*
X134473500Y-76358157D01*
X134352477Y-76370077D01*
X134236105Y-76405378D01*
X134128856Y-76462704D01*
X134034851Y-76539851D01*
X133957704Y-76633856D01*
X133900378Y-76741105D01*
X133865077Y-76857477D01*
X133853157Y-76978500D01*
X133853157Y-77453500D01*
X133865077Y-77574523D01*
X133900378Y-77690895D01*
X133934201Y-77754173D01*
X133934200Y-78293610D01*
X133866704Y-78375856D01*
X133809378Y-78483105D01*
X133774077Y-78599477D01*
X133762157Y-78720500D01*
X132906000Y-78720500D01*
X132906000Y-68400000D01*
X134853157Y-68400000D01*
X134853157Y-69300000D01*
X134860513Y-69374689D01*
X134882299Y-69446508D01*
X134917678Y-69512696D01*
X134965289Y-69570711D01*
X135023304Y-69618322D01*
X135089492Y-69653701D01*
X135161311Y-69675487D01*
X135236000Y-69682843D01*
X136036000Y-69682843D01*
X136110689Y-69675487D01*
X136182508Y-69653701D01*
X136248696Y-69618322D01*
X136306711Y-69570711D01*
X136354322Y-69512696D01*
X136389701Y-69446508D01*
X136411487Y-69374689D01*
X136418843Y-69300000D01*
X136418843Y-68400000D01*
X136411487Y-68325311D01*
X136389701Y-68253492D01*
X136354322Y-68187304D01*
X136306711Y-68129289D01*
X136248696Y-68081678D01*
X136182508Y-68046299D01*
X136110689Y-68024513D01*
X136036000Y-68017157D01*
X135236000Y-68017157D01*
X135161311Y-68024513D01*
X135089492Y-68046299D01*
X135023304Y-68081678D01*
X134965289Y-68129289D01*
X134917678Y-68187304D01*
X134882299Y-68253492D01*
X134860513Y-68325311D01*
X134853157Y-68400000D01*
X132906000Y-68400000D01*
X132906000Y-56019854D01*
X132919222Y-55885006D01*
X132952620Y-55774386D01*
X133006868Y-55672361D01*
X133079895Y-55582821D01*
X133168925Y-55509167D01*
X133270572Y-55454208D01*
X133380949Y-55420040D01*
X133514528Y-55406000D01*
X152480146Y-55406000D01*
X152614994Y-55419222D01*
G37*
G04 #@! TD.AperFunction*
D21*
X140470000Y-71400000D02*
X140355843Y-71400000D01*
X140355843Y-71146000D01*
X140470000Y-71146000D01*
X140470000Y-71400000D01*
G04 #@! TA.AperFunction,Conductor*
D22*
G36*
X140470000Y-71400000D02*
G01*
X140355843Y-71400000D01*
X140355843Y-71146000D01*
X140470000Y-71146000D01*
X140470000Y-71400000D01*
G37*
G04 #@! TD.AperFunction*
M02*
