G04 #@! TF.GenerationSoftware,KiCad,Pcbnew,5.1.6-c6e7f7d~87~ubuntu18.04.1*
G04 #@! TF.CreationDate,2021-01-10T20:40:06-05:00*
G04 #@! TF.ProjectId,dicecalc,64696365-6361-46c6-932e-6b696361645f,rev?*
G04 #@! TF.SameCoordinates,Original*
G04 #@! TF.FileFunction,Legend,Top*
G04 #@! TF.FilePolarity,Positive*
%FSLAX46Y46*%
G04 Gerber Fmt 4.6, Leading zero omitted, Abs format (unit mm)*
G04 Created by KiCad (PCBNEW 5.1.6-c6e7f7d~87~ubuntu18.04.1) date 2021-01-10 20:40:06*
%MOMM*%
%LPD*%
G01*
G04 APERTURE LIST*
%ADD10C,0.150000*%
%ADD11C,0.120000*%
G04 APERTURE END LIST*
D10*
X119471428Y-87207142D02*
X118328571Y-87207142D01*
X118614285Y-87492857D02*
X118328571Y-87207142D01*
X118614285Y-86921428D01*
X109114285Y-87552380D02*
X109114285Y-86552380D01*
X109114285Y-87504761D02*
X109019047Y-87552380D01*
X108828571Y-87552380D01*
X108733333Y-87504761D01*
X108685714Y-87457142D01*
X108638095Y-87361904D01*
X108638095Y-87076190D01*
X108685714Y-86980952D01*
X108733333Y-86933333D01*
X108828571Y-86885714D01*
X109019047Y-86885714D01*
X109114285Y-86933333D01*
X97685714Y-87552380D02*
X97685714Y-86552380D01*
X97685714Y-87504761D02*
X97590476Y-87552380D01*
X97400000Y-87552380D01*
X97304761Y-87504761D01*
X97257142Y-87457142D01*
X97209523Y-87361904D01*
X97209523Y-87076190D01*
X97257142Y-86980952D01*
X97304761Y-86933333D01*
X97400000Y-86885714D01*
X97590476Y-86885714D01*
X97685714Y-86933333D01*
X98685714Y-87552380D02*
X98114285Y-87552380D01*
X98400000Y-87552380D02*
X98400000Y-86552380D01*
X98304761Y-86695238D01*
X98209523Y-86790476D01*
X98114285Y-86838095D01*
X99304761Y-86552380D02*
X99400000Y-86552380D01*
X99495238Y-86600000D01*
X99542857Y-86647619D01*
X99590476Y-86742857D01*
X99638095Y-86933333D01*
X99638095Y-87171428D01*
X99590476Y-87361904D01*
X99542857Y-87457142D01*
X99495238Y-87504761D01*
X99400000Y-87552380D01*
X99304761Y-87552380D01*
X99209523Y-87504761D01*
X99161904Y-87457142D01*
X99114285Y-87361904D01*
X99066666Y-87171428D01*
X99066666Y-86933333D01*
X99114285Y-86742857D01*
X99161904Y-86647619D01*
X99209523Y-86600000D01*
X99304761Y-86552380D01*
X100257142Y-86552380D02*
X100352380Y-86552380D01*
X100447619Y-86600000D01*
X100495238Y-86647619D01*
X100542857Y-86742857D01*
X100590476Y-86933333D01*
X100590476Y-87171428D01*
X100542857Y-87361904D01*
X100495238Y-87457142D01*
X100447619Y-87504761D01*
X100352380Y-87552380D01*
X100257142Y-87552380D01*
X100161904Y-87504761D01*
X100114285Y-87457142D01*
X100066666Y-87361904D01*
X100019047Y-87171428D01*
X100019047Y-86933333D01*
X100066666Y-86742857D01*
X100114285Y-86647619D01*
X100161904Y-86600000D01*
X100257142Y-86552380D01*
X88161904Y-87552380D02*
X88161904Y-86552380D01*
X88161904Y-87504761D02*
X88066666Y-87552380D01*
X87876190Y-87552380D01*
X87780952Y-87504761D01*
X87733333Y-87457142D01*
X87685714Y-87361904D01*
X87685714Y-87076190D01*
X87733333Y-86980952D01*
X87780952Y-86933333D01*
X87876190Y-86885714D01*
X88066666Y-86885714D01*
X88161904Y-86933333D01*
X88590476Y-86647619D02*
X88638095Y-86600000D01*
X88733333Y-86552380D01*
X88971428Y-86552380D01*
X89066666Y-86600000D01*
X89114285Y-86647619D01*
X89161904Y-86742857D01*
X89161904Y-86838095D01*
X89114285Y-86980952D01*
X88542857Y-87552380D01*
X89161904Y-87552380D01*
X89780952Y-86552380D02*
X89876190Y-86552380D01*
X89971428Y-86600000D01*
X90019047Y-86647619D01*
X90066666Y-86742857D01*
X90114285Y-86933333D01*
X90114285Y-87171428D01*
X90066666Y-87361904D01*
X90019047Y-87457142D01*
X89971428Y-87504761D01*
X89876190Y-87552380D01*
X89780952Y-87552380D01*
X89685714Y-87504761D01*
X89638095Y-87457142D01*
X89590476Y-87361904D01*
X89542857Y-87171428D01*
X89542857Y-86933333D01*
X89590476Y-86742857D01*
X89638095Y-86647619D01*
X89685714Y-86600000D01*
X89780952Y-86552380D01*
X78161904Y-87552380D02*
X78161904Y-86552380D01*
X78161904Y-87504761D02*
X78066666Y-87552380D01*
X77876190Y-87552380D01*
X77780952Y-87504761D01*
X77733333Y-87457142D01*
X77685714Y-87361904D01*
X77685714Y-87076190D01*
X77733333Y-86980952D01*
X77780952Y-86933333D01*
X77876190Y-86885714D01*
X78066666Y-86885714D01*
X78161904Y-86933333D01*
X79161904Y-87552380D02*
X78590476Y-87552380D01*
X78876190Y-87552380D02*
X78876190Y-86552380D01*
X78780952Y-86695238D01*
X78685714Y-86790476D01*
X78590476Y-86838095D01*
X79542857Y-86647619D02*
X79590476Y-86600000D01*
X79685714Y-86552380D01*
X79923809Y-86552380D01*
X80019047Y-86600000D01*
X80066666Y-86647619D01*
X80114285Y-86742857D01*
X80114285Y-86838095D01*
X80066666Y-86980952D01*
X79495238Y-87552380D01*
X80114285Y-87552380D01*
X119471428Y-99207142D02*
X118328571Y-99207142D01*
X118900000Y-99564285D02*
X118971428Y-99635714D01*
X118900000Y-99707142D01*
X118828571Y-99635714D01*
X118900000Y-99564285D01*
X118900000Y-99707142D01*
X118900000Y-98707142D02*
X118971428Y-98778571D01*
X118900000Y-98850000D01*
X118828571Y-98778571D01*
X118900000Y-98707142D01*
X118900000Y-98850000D01*
X108161904Y-99552380D02*
X108161904Y-98552380D01*
X108161904Y-99504761D02*
X108066666Y-99552380D01*
X107876190Y-99552380D01*
X107780952Y-99504761D01*
X107733333Y-99457142D01*
X107685714Y-99361904D01*
X107685714Y-99076190D01*
X107733333Y-98980952D01*
X107780952Y-98933333D01*
X107876190Y-98885714D01*
X108066666Y-98885714D01*
X108161904Y-98933333D01*
X109161904Y-99552380D02*
X108590476Y-99552380D01*
X108876190Y-99552380D02*
X108876190Y-98552380D01*
X108780952Y-98695238D01*
X108685714Y-98790476D01*
X108590476Y-98838095D01*
X109780952Y-98552380D02*
X109876190Y-98552380D01*
X109971428Y-98600000D01*
X110019047Y-98647619D01*
X110066666Y-98742857D01*
X110114285Y-98933333D01*
X110114285Y-99171428D01*
X110066666Y-99361904D01*
X110019047Y-99457142D01*
X109971428Y-99504761D01*
X109876190Y-99552380D01*
X109780952Y-99552380D01*
X109685714Y-99504761D01*
X109638095Y-99457142D01*
X109590476Y-99361904D01*
X109542857Y-99171428D01*
X109542857Y-98933333D01*
X109590476Y-98742857D01*
X109638095Y-98647619D01*
X109685714Y-98600000D01*
X109780952Y-98552380D01*
X98638095Y-99552380D02*
X98638095Y-98552380D01*
X98638095Y-99504761D02*
X98542857Y-99552380D01*
X98352380Y-99552380D01*
X98257142Y-99504761D01*
X98209523Y-99457142D01*
X98161904Y-99361904D01*
X98161904Y-99076190D01*
X98209523Y-98980952D01*
X98257142Y-98933333D01*
X98352380Y-98885714D01*
X98542857Y-98885714D01*
X98638095Y-98933333D01*
X99257142Y-98980952D02*
X99161904Y-98933333D01*
X99114285Y-98885714D01*
X99066666Y-98790476D01*
X99066666Y-98742857D01*
X99114285Y-98647619D01*
X99161904Y-98600000D01*
X99257142Y-98552380D01*
X99447619Y-98552380D01*
X99542857Y-98600000D01*
X99590476Y-98647619D01*
X99638095Y-98742857D01*
X99638095Y-98790476D01*
X99590476Y-98885714D01*
X99542857Y-98933333D01*
X99447619Y-98980952D01*
X99257142Y-98980952D01*
X99161904Y-99028571D01*
X99114285Y-99076190D01*
X99066666Y-99171428D01*
X99066666Y-99361904D01*
X99114285Y-99457142D01*
X99161904Y-99504761D01*
X99257142Y-99552380D01*
X99447619Y-99552380D01*
X99542857Y-99504761D01*
X99590476Y-99457142D01*
X99638095Y-99361904D01*
X99638095Y-99171428D01*
X99590476Y-99076190D01*
X99542857Y-99028571D01*
X99447619Y-98980952D01*
X88638095Y-99552380D02*
X88638095Y-98552380D01*
X88638095Y-99504761D02*
X88542857Y-99552380D01*
X88352380Y-99552380D01*
X88257142Y-99504761D01*
X88209523Y-99457142D01*
X88161904Y-99361904D01*
X88161904Y-99076190D01*
X88209523Y-98980952D01*
X88257142Y-98933333D01*
X88352380Y-98885714D01*
X88542857Y-98885714D01*
X88638095Y-98933333D01*
X89542857Y-98552380D02*
X89352380Y-98552380D01*
X89257142Y-98600000D01*
X89209523Y-98647619D01*
X89114285Y-98790476D01*
X89066666Y-98980952D01*
X89066666Y-99361904D01*
X89114285Y-99457142D01*
X89161904Y-99504761D01*
X89257142Y-99552380D01*
X89447619Y-99552380D01*
X89542857Y-99504761D01*
X89590476Y-99457142D01*
X89638095Y-99361904D01*
X89638095Y-99123809D01*
X89590476Y-99028571D01*
X89542857Y-98980952D01*
X89447619Y-98933333D01*
X89257142Y-98933333D01*
X89161904Y-98980952D01*
X89114285Y-99028571D01*
X89066666Y-99123809D01*
X78638095Y-99552380D02*
X78638095Y-98552380D01*
X78638095Y-99504761D02*
X78542857Y-99552380D01*
X78352380Y-99552380D01*
X78257142Y-99504761D01*
X78209523Y-99457142D01*
X78161904Y-99361904D01*
X78161904Y-99076190D01*
X78209523Y-98980952D01*
X78257142Y-98933333D01*
X78352380Y-98885714D01*
X78542857Y-98885714D01*
X78638095Y-98933333D01*
X79542857Y-98885714D02*
X79542857Y-99552380D01*
X79304761Y-98504761D02*
X79066666Y-99219047D01*
X79685714Y-99219047D01*
X118507142Y-111778571D02*
X119292857Y-110778571D01*
X118507142Y-110778571D02*
X119292857Y-111778571D01*
X108614285Y-111778571D02*
X108900000Y-111778571D01*
X109042857Y-111707142D01*
X109114285Y-111635714D01*
X109257142Y-111421428D01*
X109328571Y-111135714D01*
X109328571Y-110564285D01*
X109257142Y-110421428D01*
X109185714Y-110350000D01*
X109042857Y-110278571D01*
X108757142Y-110278571D01*
X108614285Y-110350000D01*
X108542857Y-110421428D01*
X108471428Y-110564285D01*
X108471428Y-110921428D01*
X108542857Y-111064285D01*
X108614285Y-111135714D01*
X108757142Y-111207142D01*
X109042857Y-111207142D01*
X109185714Y-111135714D01*
X109257142Y-111064285D01*
X109328571Y-110921428D01*
X98757142Y-110921428D02*
X98614285Y-110850000D01*
X98542857Y-110778571D01*
X98471428Y-110635714D01*
X98471428Y-110564285D01*
X98542857Y-110421428D01*
X98614285Y-110350000D01*
X98757142Y-110278571D01*
X99042857Y-110278571D01*
X99185714Y-110350000D01*
X99257142Y-110421428D01*
X99328571Y-110564285D01*
X99328571Y-110635714D01*
X99257142Y-110778571D01*
X99185714Y-110850000D01*
X99042857Y-110921428D01*
X98757142Y-110921428D01*
X98614285Y-110992857D01*
X98542857Y-111064285D01*
X98471428Y-111207142D01*
X98471428Y-111492857D01*
X98542857Y-111635714D01*
X98614285Y-111707142D01*
X98757142Y-111778571D01*
X99042857Y-111778571D01*
X99185714Y-111707142D01*
X99257142Y-111635714D01*
X99328571Y-111492857D01*
X99328571Y-111207142D01*
X99257142Y-111064285D01*
X99185714Y-110992857D01*
X99042857Y-110921428D01*
X88400000Y-110278571D02*
X89400000Y-110278571D01*
X88757142Y-111778571D01*
X78400000Y-110992857D02*
X77900000Y-110992857D01*
X77900000Y-111778571D02*
X77900000Y-110278571D01*
X78614285Y-110278571D01*
X79971428Y-111778571D02*
X79114285Y-111778571D01*
X79542857Y-111778571D02*
X79542857Y-110278571D01*
X79400000Y-110492857D01*
X79257142Y-110635714D01*
X79114285Y-110707142D01*
X118328571Y-123207142D02*
X119471428Y-123207142D01*
X109185714Y-122278571D02*
X108900000Y-122278571D01*
X108757142Y-122350000D01*
X108685714Y-122421428D01*
X108542857Y-122635714D01*
X108471428Y-122921428D01*
X108471428Y-123492857D01*
X108542857Y-123635714D01*
X108614285Y-123707142D01*
X108757142Y-123778571D01*
X109042857Y-123778571D01*
X109185714Y-123707142D01*
X109257142Y-123635714D01*
X109328571Y-123492857D01*
X109328571Y-123135714D01*
X109257142Y-122992857D01*
X109185714Y-122921428D01*
X109042857Y-122850000D01*
X108757142Y-122850000D01*
X108614285Y-122921428D01*
X108542857Y-122992857D01*
X108471428Y-123135714D01*
X99257142Y-122278571D02*
X98542857Y-122278571D01*
X98471428Y-122992857D01*
X98542857Y-122921428D01*
X98685714Y-122850000D01*
X99042857Y-122850000D01*
X99185714Y-122921428D01*
X99257142Y-122992857D01*
X99328571Y-123135714D01*
X99328571Y-123492857D01*
X99257142Y-123635714D01*
X99185714Y-123707142D01*
X99042857Y-123778571D01*
X98685714Y-123778571D01*
X98542857Y-123707142D01*
X98471428Y-123635714D01*
X89185714Y-122778571D02*
X89185714Y-123778571D01*
X88828571Y-122207142D02*
X88471428Y-123278571D01*
X89400000Y-123278571D01*
X78400000Y-122992857D02*
X77900000Y-122992857D01*
X77900000Y-123778571D02*
X77900000Y-122278571D01*
X78614285Y-122278571D01*
X79114285Y-122421428D02*
X79185714Y-122350000D01*
X79328571Y-122278571D01*
X79685714Y-122278571D01*
X79828571Y-122350000D01*
X79900000Y-122421428D01*
X79971428Y-122564285D01*
X79971428Y-122707142D01*
X79900000Y-122921428D01*
X79042857Y-123778571D01*
X79971428Y-123778571D01*
X118328571Y-135207142D02*
X119471428Y-135207142D01*
X118900000Y-135778571D02*
X118900000Y-134635714D01*
X108400000Y-134278571D02*
X109328571Y-134278571D01*
X108828571Y-134850000D01*
X109042857Y-134850000D01*
X109185714Y-134921428D01*
X109257142Y-134992857D01*
X109328571Y-135135714D01*
X109328571Y-135492857D01*
X109257142Y-135635714D01*
X109185714Y-135707142D01*
X109042857Y-135778571D01*
X108614285Y-135778571D01*
X108471428Y-135707142D01*
X108400000Y-135635714D01*
X98471428Y-134421428D02*
X98542857Y-134350000D01*
X98685714Y-134278571D01*
X99042857Y-134278571D01*
X99185714Y-134350000D01*
X99257142Y-134421428D01*
X99328571Y-134564285D01*
X99328571Y-134707142D01*
X99257142Y-134921428D01*
X98400000Y-135778571D01*
X99328571Y-135778571D01*
X89328571Y-135778571D02*
X88471428Y-135778571D01*
X88900000Y-135778571D02*
X88900000Y-134278571D01*
X88757142Y-134492857D01*
X88614285Y-134635714D01*
X88471428Y-134707142D01*
X78400000Y-134992857D02*
X77900000Y-134992857D01*
X77900000Y-135778571D02*
X77900000Y-134278571D01*
X78614285Y-134278571D01*
X79042857Y-134278571D02*
X79971428Y-134278571D01*
X79471428Y-134850000D01*
X79685714Y-134850000D01*
X79828571Y-134921428D01*
X79900000Y-134992857D01*
X79971428Y-135135714D01*
X79971428Y-135492857D01*
X79900000Y-135635714D01*
X79828571Y-135707142D01*
X79685714Y-135778571D01*
X79257142Y-135778571D01*
X79114285Y-135707142D01*
X79042857Y-135635714D01*
X118328571Y-146992857D02*
X119471428Y-146992857D01*
X119471428Y-147421428D02*
X118328571Y-147421428D01*
X108685714Y-147635714D02*
X108614285Y-147707142D01*
X108400000Y-147778571D01*
X108257142Y-147778571D01*
X108042857Y-147707142D01*
X107900000Y-147564285D01*
X107828571Y-147421428D01*
X107757142Y-147135714D01*
X107757142Y-146921428D01*
X107828571Y-146635714D01*
X107900000Y-146492857D01*
X108042857Y-146350000D01*
X108257142Y-146278571D01*
X108400000Y-146278571D01*
X108614285Y-146350000D01*
X108685714Y-146421428D01*
X109328571Y-146992857D02*
X109828571Y-146992857D01*
X110042857Y-147778571D02*
X109328571Y-147778571D01*
X109328571Y-146278571D01*
X110042857Y-146278571D01*
X99364285Y-147635714D02*
X99292857Y-147707142D01*
X99078571Y-147778571D01*
X98935714Y-147778571D01*
X98721428Y-147707142D01*
X98578571Y-147564285D01*
X98507142Y-147421428D01*
X98435714Y-147135714D01*
X98435714Y-146921428D01*
X98507142Y-146635714D01*
X98578571Y-146492857D01*
X98721428Y-146350000D01*
X98935714Y-146278571D01*
X99078571Y-146278571D01*
X99292857Y-146350000D01*
X99364285Y-146421428D01*
X88828571Y-146278571D02*
X88971428Y-146278571D01*
X89114285Y-146350000D01*
X89185714Y-146421428D01*
X89257142Y-146564285D01*
X89328571Y-146850000D01*
X89328571Y-147207142D01*
X89257142Y-147492857D01*
X89185714Y-147635714D01*
X89114285Y-147707142D01*
X88971428Y-147778571D01*
X88828571Y-147778571D01*
X88685714Y-147707142D01*
X88614285Y-147635714D01*
X88542857Y-147492857D01*
X88471428Y-147207142D01*
X88471428Y-146850000D01*
X88542857Y-146564285D01*
X88614285Y-146421428D01*
X88685714Y-146350000D01*
X88828571Y-146278571D01*
X78400000Y-146992857D02*
X77900000Y-146992857D01*
X77900000Y-147778571D02*
X77900000Y-146278571D01*
X78614285Y-146278571D01*
X79828571Y-146778571D02*
X79828571Y-147778571D01*
X79471428Y-146207142D02*
X79114285Y-147278571D01*
X80042857Y-147278571D01*
D11*
X115670000Y-137870000D02*
X115670000Y-144330000D01*
X120200000Y-137870000D02*
X117600000Y-137870000D01*
X122130000Y-137870000D02*
X122130000Y-144330000D01*
X120200000Y-144330000D02*
X117600000Y-144330000D01*
X122100000Y-137870000D02*
X122130000Y-137870000D01*
X115670000Y-137870000D02*
X115700000Y-137870000D01*
X115670000Y-144330000D02*
X115700000Y-144330000D01*
X122130000Y-144330000D02*
X122100000Y-144330000D01*
X65570000Y-113370000D02*
X68230000Y-113370000D01*
X65570000Y-113370000D02*
X65570000Y-159150000D01*
X65570000Y-159150000D02*
X68230000Y-159150000D01*
X68230000Y-113370000D02*
X68230000Y-159150000D01*
X68230000Y-110770000D02*
X68230000Y-112100000D01*
X66900000Y-110770000D02*
X68230000Y-110770000D01*
X69440000Y-110770000D02*
X70770000Y-110770000D01*
X70770000Y-110770000D02*
X70770000Y-112100000D01*
X70770000Y-113370000D02*
X70770000Y-159150000D01*
X68110000Y-159150000D02*
X70770000Y-159150000D01*
X68110000Y-113370000D02*
X68110000Y-159150000D01*
X68110000Y-113370000D02*
X70770000Y-113370000D01*
X126570000Y-113370000D02*
X129230000Y-113370000D01*
X126570000Y-113370000D02*
X126570000Y-159150000D01*
X126570000Y-159150000D02*
X129230000Y-159150000D01*
X129230000Y-113370000D02*
X129230000Y-159150000D01*
X129230000Y-110770000D02*
X129230000Y-112100000D01*
X127900000Y-110770000D02*
X129230000Y-110770000D01*
X130440000Y-110770000D02*
X131770000Y-110770000D01*
X131770000Y-110770000D02*
X131770000Y-112100000D01*
X131770000Y-113370000D02*
X131770000Y-159150000D01*
X129110000Y-159150000D02*
X131770000Y-159150000D01*
X129110000Y-113370000D02*
X129110000Y-159150000D01*
X129110000Y-113370000D02*
X131770000Y-113370000D01*
X85670000Y-149870000D02*
X85700000Y-149870000D01*
X92130000Y-149870000D02*
X92100000Y-149870000D01*
X92130000Y-156330000D02*
X92100000Y-156330000D01*
X85700000Y-156330000D02*
X85670000Y-156330000D01*
X87600000Y-149870000D02*
X90200000Y-149870000D01*
X85670000Y-156330000D02*
X85670000Y-149870000D01*
X87600000Y-156330000D02*
X90200000Y-156330000D01*
X92130000Y-156330000D02*
X92130000Y-149870000D01*
X92130000Y-144330000D02*
X92130000Y-137870000D01*
X87600000Y-144330000D02*
X90200000Y-144330000D01*
X85670000Y-144330000D02*
X85670000Y-137870000D01*
X87600000Y-137870000D02*
X90200000Y-137870000D01*
X85700000Y-144330000D02*
X85670000Y-144330000D01*
X92130000Y-144330000D02*
X92100000Y-144330000D01*
X92130000Y-137870000D02*
X92100000Y-137870000D01*
X85670000Y-137870000D02*
X85700000Y-137870000D01*
X95670000Y-137870000D02*
X95670000Y-144330000D01*
X100200000Y-137870000D02*
X97600000Y-137870000D01*
X102130000Y-137870000D02*
X102130000Y-144330000D01*
X100200000Y-144330000D02*
X97600000Y-144330000D01*
X102100000Y-137870000D02*
X102130000Y-137870000D01*
X95670000Y-137870000D02*
X95700000Y-137870000D01*
X95670000Y-144330000D02*
X95700000Y-144330000D01*
X102130000Y-144330000D02*
X102100000Y-144330000D01*
X105670000Y-137870000D02*
X105670000Y-144330000D01*
X110200000Y-137870000D02*
X107600000Y-137870000D01*
X112130000Y-137870000D02*
X112130000Y-144330000D01*
X110200000Y-144330000D02*
X107600000Y-144330000D01*
X112100000Y-137870000D02*
X112130000Y-137870000D01*
X105670000Y-137870000D02*
X105700000Y-137870000D01*
X105670000Y-144330000D02*
X105700000Y-144330000D01*
X112130000Y-144330000D02*
X112100000Y-144330000D01*
X92130000Y-132330000D02*
X92130000Y-125870000D01*
X87600000Y-132330000D02*
X90200000Y-132330000D01*
X85670000Y-132330000D02*
X85670000Y-125870000D01*
X87600000Y-125870000D02*
X90200000Y-125870000D01*
X85700000Y-132330000D02*
X85670000Y-132330000D01*
X92130000Y-132330000D02*
X92100000Y-132330000D01*
X92130000Y-125870000D02*
X92100000Y-125870000D01*
X85670000Y-125870000D02*
X85700000Y-125870000D01*
X102130000Y-132330000D02*
X102100000Y-132330000D01*
X95670000Y-132330000D02*
X95700000Y-132330000D01*
X95670000Y-125870000D02*
X95700000Y-125870000D01*
X102100000Y-125870000D02*
X102130000Y-125870000D01*
X100200000Y-132330000D02*
X97600000Y-132330000D01*
X102130000Y-125870000D02*
X102130000Y-132330000D01*
X100200000Y-125870000D02*
X97600000Y-125870000D01*
X95670000Y-125870000D02*
X95670000Y-132330000D01*
X105670000Y-125870000D02*
X105670000Y-132330000D01*
X110200000Y-125870000D02*
X107600000Y-125870000D01*
X112130000Y-125870000D02*
X112130000Y-132330000D01*
X110200000Y-132330000D02*
X107600000Y-132330000D01*
X112100000Y-125870000D02*
X112130000Y-125870000D01*
X105670000Y-125870000D02*
X105700000Y-125870000D01*
X105670000Y-132330000D02*
X105700000Y-132330000D01*
X112130000Y-132330000D02*
X112100000Y-132330000D01*
X92130000Y-120330000D02*
X92130000Y-113870000D01*
X87600000Y-120330000D02*
X90200000Y-120330000D01*
X85670000Y-120330000D02*
X85670000Y-113870000D01*
X87600000Y-113870000D02*
X90200000Y-113870000D01*
X85700000Y-120330000D02*
X85670000Y-120330000D01*
X92130000Y-120330000D02*
X92100000Y-120330000D01*
X92130000Y-113870000D02*
X92100000Y-113870000D01*
X85670000Y-113870000D02*
X85700000Y-113870000D01*
X102130000Y-120330000D02*
X102130000Y-113870000D01*
X97600000Y-120330000D02*
X100200000Y-120330000D01*
X95670000Y-120330000D02*
X95670000Y-113870000D01*
X97600000Y-113870000D02*
X100200000Y-113870000D01*
X95700000Y-120330000D02*
X95670000Y-120330000D01*
X102130000Y-120330000D02*
X102100000Y-120330000D01*
X102130000Y-113870000D02*
X102100000Y-113870000D01*
X95670000Y-113870000D02*
X95700000Y-113870000D01*
X112130000Y-120330000D02*
X112100000Y-120330000D01*
X105670000Y-120330000D02*
X105700000Y-120330000D01*
X105670000Y-113870000D02*
X105700000Y-113870000D01*
X112100000Y-113870000D02*
X112130000Y-113870000D01*
X110200000Y-120330000D02*
X107600000Y-120330000D01*
X112130000Y-113870000D02*
X112130000Y-120330000D01*
X110200000Y-113870000D02*
X107600000Y-113870000D01*
X105670000Y-113870000D02*
X105670000Y-120330000D01*
X115670000Y-125870000D02*
X115670000Y-132330000D01*
X120200000Y-125870000D02*
X117600000Y-125870000D01*
X122130000Y-125870000D02*
X122130000Y-132330000D01*
X120200000Y-132330000D02*
X117600000Y-132330000D01*
X122100000Y-125870000D02*
X122130000Y-125870000D01*
X115670000Y-125870000D02*
X115700000Y-125870000D01*
X115670000Y-132330000D02*
X115700000Y-132330000D01*
X122130000Y-132330000D02*
X122100000Y-132330000D01*
X122130000Y-120330000D02*
X122100000Y-120330000D01*
X115670000Y-120330000D02*
X115700000Y-120330000D01*
X115670000Y-113870000D02*
X115700000Y-113870000D01*
X122100000Y-113870000D02*
X122130000Y-113870000D01*
X120200000Y-120330000D02*
X117600000Y-120330000D01*
X122130000Y-113870000D02*
X122130000Y-120330000D01*
X120200000Y-113870000D02*
X117600000Y-113870000D01*
X115670000Y-113870000D02*
X115670000Y-120330000D01*
X122130000Y-108330000D02*
X122100000Y-108330000D01*
X115670000Y-108330000D02*
X115700000Y-108330000D01*
X115670000Y-101870000D02*
X115700000Y-101870000D01*
X122100000Y-101870000D02*
X122130000Y-101870000D01*
X120200000Y-108330000D02*
X117600000Y-108330000D01*
X122130000Y-101870000D02*
X122130000Y-108330000D01*
X120200000Y-101870000D02*
X117600000Y-101870000D01*
X115670000Y-101870000D02*
X115670000Y-108330000D01*
X112130000Y-96330000D02*
X112100000Y-96330000D01*
X105670000Y-96330000D02*
X105700000Y-96330000D01*
X105670000Y-89870000D02*
X105700000Y-89870000D01*
X112100000Y-89870000D02*
X112130000Y-89870000D01*
X110200000Y-96330000D02*
X107600000Y-96330000D01*
X112130000Y-89870000D02*
X112130000Y-96330000D01*
X110200000Y-89870000D02*
X107600000Y-89870000D01*
X105670000Y-89870000D02*
X105670000Y-96330000D01*
X82130000Y-108330000D02*
X82130000Y-101870000D01*
X77600000Y-108330000D02*
X80200000Y-108330000D01*
X75670000Y-108330000D02*
X75670000Y-101870000D01*
X77600000Y-101870000D02*
X80200000Y-101870000D01*
X75700000Y-108330000D02*
X75670000Y-108330000D01*
X82130000Y-108330000D02*
X82100000Y-108330000D01*
X82130000Y-101870000D02*
X82100000Y-101870000D01*
X75670000Y-101870000D02*
X75700000Y-101870000D01*
X92130000Y-108330000D02*
X92130000Y-101870000D01*
X87600000Y-108330000D02*
X90200000Y-108330000D01*
X85670000Y-108330000D02*
X85670000Y-101870000D01*
X87600000Y-101870000D02*
X90200000Y-101870000D01*
X85700000Y-108330000D02*
X85670000Y-108330000D01*
X92130000Y-108330000D02*
X92100000Y-108330000D01*
X92130000Y-101870000D02*
X92100000Y-101870000D01*
X85670000Y-101870000D02*
X85700000Y-101870000D01*
X102130000Y-108330000D02*
X102130000Y-101870000D01*
X97600000Y-108330000D02*
X100200000Y-108330000D01*
X95670000Y-108330000D02*
X95670000Y-101870000D01*
X97600000Y-101870000D02*
X100200000Y-101870000D01*
X95700000Y-108330000D02*
X95670000Y-108330000D01*
X102130000Y-108330000D02*
X102100000Y-108330000D01*
X102130000Y-101870000D02*
X102100000Y-101870000D01*
X95670000Y-101870000D02*
X95700000Y-101870000D01*
X105670000Y-101870000D02*
X105670000Y-108330000D01*
X110200000Y-101870000D02*
X107600000Y-101870000D01*
X112130000Y-101870000D02*
X112130000Y-108330000D01*
X110200000Y-108330000D02*
X107600000Y-108330000D01*
X112100000Y-101870000D02*
X112130000Y-101870000D01*
X105670000Y-101870000D02*
X105700000Y-101870000D01*
X105670000Y-108330000D02*
X105700000Y-108330000D01*
X112130000Y-108330000D02*
X112100000Y-108330000D01*
X75670000Y-89870000D02*
X75700000Y-89870000D01*
X82130000Y-89870000D02*
X82100000Y-89870000D01*
X82130000Y-96330000D02*
X82100000Y-96330000D01*
X75700000Y-96330000D02*
X75670000Y-96330000D01*
X77600000Y-89870000D02*
X80200000Y-89870000D01*
X75670000Y-96330000D02*
X75670000Y-89870000D01*
X77600000Y-96330000D02*
X80200000Y-96330000D01*
X82130000Y-96330000D02*
X82130000Y-89870000D01*
X85670000Y-89870000D02*
X85700000Y-89870000D01*
X92130000Y-89870000D02*
X92100000Y-89870000D01*
X92130000Y-96330000D02*
X92100000Y-96330000D01*
X85700000Y-96330000D02*
X85670000Y-96330000D01*
X87600000Y-89870000D02*
X90200000Y-89870000D01*
X85670000Y-96330000D02*
X85670000Y-89870000D01*
X87600000Y-96330000D02*
X90200000Y-96330000D01*
X92130000Y-96330000D02*
X92130000Y-89870000D01*
X102130000Y-96330000D02*
X102130000Y-89870000D01*
X97600000Y-96330000D02*
X100200000Y-96330000D01*
X95670000Y-96330000D02*
X95670000Y-89870000D01*
X97600000Y-89870000D02*
X100200000Y-89870000D01*
X95700000Y-96330000D02*
X95670000Y-96330000D01*
X102130000Y-96330000D02*
X102100000Y-96330000D01*
X102130000Y-89870000D02*
X102100000Y-89870000D01*
X95670000Y-89870000D02*
X95700000Y-89870000D01*
X122130000Y-156330000D02*
X122100000Y-156330000D01*
X115670000Y-156330000D02*
X115700000Y-156330000D01*
X115670000Y-149870000D02*
X115700000Y-149870000D01*
X122100000Y-149870000D02*
X122130000Y-149870000D01*
X120200000Y-156330000D02*
X117600000Y-156330000D01*
X122130000Y-149870000D02*
X122130000Y-156330000D01*
X120200000Y-149870000D02*
X117600000Y-149870000D01*
X115670000Y-149870000D02*
X115670000Y-156330000D01*
X115670000Y-89870000D02*
X115670000Y-96330000D01*
X120200000Y-89870000D02*
X117600000Y-89870000D01*
X122130000Y-89870000D02*
X122130000Y-96330000D01*
X120200000Y-96330000D02*
X117600000Y-96330000D01*
X122100000Y-89870000D02*
X122130000Y-89870000D01*
X115670000Y-89870000D02*
X115700000Y-89870000D01*
X115670000Y-96330000D02*
X115700000Y-96330000D01*
X122130000Y-96330000D02*
X122100000Y-96330000D01*
X102130000Y-156330000D02*
X102100000Y-156330000D01*
X95670000Y-156330000D02*
X95700000Y-156330000D01*
X95670000Y-149870000D02*
X95700000Y-149870000D01*
X102100000Y-149870000D02*
X102130000Y-149870000D01*
X100200000Y-156330000D02*
X97600000Y-156330000D01*
X102130000Y-149870000D02*
X102130000Y-156330000D01*
X100200000Y-149870000D02*
X97600000Y-149870000D01*
X95670000Y-149870000D02*
X95670000Y-156330000D01*
X112130000Y-156330000D02*
X112100000Y-156330000D01*
X105670000Y-156330000D02*
X105700000Y-156330000D01*
X105670000Y-149870000D02*
X105700000Y-149870000D01*
X112100000Y-149870000D02*
X112130000Y-149870000D01*
X110200000Y-156330000D02*
X107600000Y-156330000D01*
X112130000Y-149870000D02*
X112130000Y-156330000D01*
X110200000Y-149870000D02*
X107600000Y-149870000D01*
X105670000Y-149870000D02*
X105670000Y-156330000D01*
X75670000Y-113870000D02*
X75700000Y-113870000D01*
X82130000Y-113870000D02*
X82100000Y-113870000D01*
X82130000Y-120330000D02*
X82100000Y-120330000D01*
X75700000Y-120330000D02*
X75670000Y-120330000D01*
X77600000Y-113870000D02*
X80200000Y-113870000D01*
X75670000Y-120330000D02*
X75670000Y-113870000D01*
X77600000Y-120330000D02*
X80200000Y-120330000D01*
X82130000Y-120330000D02*
X82130000Y-113870000D01*
X75670000Y-125870000D02*
X75700000Y-125870000D01*
X82130000Y-125870000D02*
X82100000Y-125870000D01*
X82130000Y-132330000D02*
X82100000Y-132330000D01*
X75700000Y-132330000D02*
X75670000Y-132330000D01*
X77600000Y-125870000D02*
X80200000Y-125870000D01*
X75670000Y-132330000D02*
X75670000Y-125870000D01*
X77600000Y-132330000D02*
X80200000Y-132330000D01*
X82130000Y-132330000D02*
X82130000Y-125870000D01*
X75670000Y-137870000D02*
X75700000Y-137870000D01*
X82130000Y-137870000D02*
X82100000Y-137870000D01*
X82130000Y-144330000D02*
X82100000Y-144330000D01*
X75700000Y-144330000D02*
X75670000Y-144330000D01*
X77600000Y-137870000D02*
X80200000Y-137870000D01*
X75670000Y-144330000D02*
X75670000Y-137870000D01*
X77600000Y-144330000D02*
X80200000Y-144330000D01*
X82130000Y-144330000D02*
X82130000Y-137870000D01*
X75670000Y-149870000D02*
X75700000Y-149870000D01*
X82130000Y-149870000D02*
X82100000Y-149870000D01*
X82130000Y-156330000D02*
X82100000Y-156330000D01*
X75700000Y-156330000D02*
X75670000Y-156330000D01*
X77600000Y-149870000D02*
X80200000Y-149870000D01*
X75670000Y-156330000D02*
X75670000Y-149870000D01*
X77600000Y-156330000D02*
X80200000Y-156330000D01*
X82130000Y-156330000D02*
X82130000Y-149870000D01*
X130440000Y-86570000D02*
X131770000Y-86570000D01*
X131770000Y-86570000D02*
X131770000Y-87900000D01*
X131770000Y-89170000D02*
X131770000Y-109550000D01*
X129110000Y-109550000D02*
X131770000Y-109550000D01*
X129110000Y-89170000D02*
X129110000Y-109550000D01*
X129110000Y-89170000D02*
X131770000Y-89170000D01*
X66900000Y-96920000D02*
X68230000Y-96920000D01*
X68230000Y-96920000D02*
X68230000Y-98250000D01*
X68230000Y-99520000D02*
X68230000Y-107200000D01*
X65570000Y-107200000D02*
X68230000Y-107200000D01*
X65570000Y-99520000D02*
X65570000Y-107200000D01*
X65570000Y-99520000D02*
X68230000Y-99520000D01*
D10*
X130106666Y-84582380D02*
X130106666Y-85296666D01*
X130059047Y-85439523D01*
X129963809Y-85534761D01*
X129820952Y-85582380D01*
X129725714Y-85582380D01*
X131059047Y-84582380D02*
X130582857Y-84582380D01*
X130535238Y-85058571D01*
X130582857Y-85010952D01*
X130678095Y-84963333D01*
X130916190Y-84963333D01*
X131011428Y-85010952D01*
X131059047Y-85058571D01*
X131106666Y-85153809D01*
X131106666Y-85391904D01*
X131059047Y-85487142D01*
X131011428Y-85534761D01*
X130916190Y-85582380D01*
X130678095Y-85582380D01*
X130582857Y-85534761D01*
X130535238Y-85487142D01*
X66566666Y-94932380D02*
X66566666Y-95646666D01*
X66519047Y-95789523D01*
X66423809Y-95884761D01*
X66280952Y-95932380D01*
X66185714Y-95932380D01*
X67471428Y-94932380D02*
X67280952Y-94932380D01*
X67185714Y-94980000D01*
X67138095Y-95027619D01*
X67042857Y-95170476D01*
X66995238Y-95360952D01*
X66995238Y-95741904D01*
X67042857Y-95837142D01*
X67090476Y-95884761D01*
X67185714Y-95932380D01*
X67376190Y-95932380D01*
X67471428Y-95884761D01*
X67519047Y-95837142D01*
X67566666Y-95741904D01*
X67566666Y-95503809D01*
X67519047Y-95408571D01*
X67471428Y-95360952D01*
X67376190Y-95313333D01*
X67185714Y-95313333D01*
X67090476Y-95360952D01*
X67042857Y-95408571D01*
X66995238Y-95503809D01*
M02*
