G04 #@! TF.GenerationSoftware,KiCad,Pcbnew,5.1.6-c6e7f7d~87~ubuntu18.04.1*
G04 #@! TF.CreationDate,2021-01-10T20:40:06-05:00*
G04 #@! TF.ProjectId,dicecalc,64696365-6361-46c6-932e-6b696361645f,rev?*
G04 #@! TF.SameCoordinates,Original*
G04 #@! TF.FileFunction,Soldermask,Top*
G04 #@! TF.FilePolarity,Negative*
%FSLAX46Y46*%
G04 Gerber Fmt 4.6, Leading zero omitted, Abs format (unit mm)*
G04 Created by KiCad (PCBNEW 5.1.6-c6e7f7d~87~ubuntu18.04.1) date 2021-01-10 20:40:06*
%MOMM*%
%LPD*%
G01*
G04 APERTURE LIST*
%ADD10R,1.400000X1.650000*%
%ADD11R,1.800000X1.800000*%
%ADD12O,1.800000X1.800000*%
G04 APERTURE END LIST*
D10*
X116650000Y-145075000D03*
X121150000Y-145075000D03*
X121150000Y-137125000D03*
X116650000Y-137125000D03*
D11*
X66900000Y-112100000D03*
D12*
X66900000Y-114640000D03*
X66900000Y-117180000D03*
X66900000Y-119720000D03*
X66900000Y-122260000D03*
X66900000Y-124800000D03*
X66900000Y-127340000D03*
X66900000Y-129880000D03*
X66900000Y-132420000D03*
X66900000Y-134960000D03*
X66900000Y-137500000D03*
X66900000Y-140040000D03*
X66900000Y-142580000D03*
X66900000Y-145120000D03*
X66900000Y-147660000D03*
X66900000Y-150200000D03*
X66900000Y-152740000D03*
X66900000Y-155280000D03*
X66900000Y-157820000D03*
X69440000Y-157820000D03*
X69440000Y-155280000D03*
X69440000Y-152740000D03*
X69440000Y-150200000D03*
X69440000Y-147660000D03*
X69440000Y-145120000D03*
X69440000Y-142580000D03*
X69440000Y-140040000D03*
X69440000Y-137500000D03*
X69440000Y-134960000D03*
X69440000Y-132420000D03*
X69440000Y-129880000D03*
X69440000Y-127340000D03*
X69440000Y-124800000D03*
X69440000Y-122260000D03*
X69440000Y-119720000D03*
X69440000Y-117180000D03*
X69440000Y-114640000D03*
D11*
X69440000Y-112100000D03*
X127900000Y-112100000D03*
D12*
X127900000Y-114640000D03*
X127900000Y-117180000D03*
X127900000Y-119720000D03*
X127900000Y-122260000D03*
X127900000Y-124800000D03*
X127900000Y-127340000D03*
X127900000Y-129880000D03*
X127900000Y-132420000D03*
X127900000Y-134960000D03*
X127900000Y-137500000D03*
X127900000Y-140040000D03*
X127900000Y-142580000D03*
X127900000Y-145120000D03*
X127900000Y-147660000D03*
X127900000Y-150200000D03*
X127900000Y-152740000D03*
X127900000Y-155280000D03*
X127900000Y-157820000D03*
X130440000Y-157820000D03*
X130440000Y-155280000D03*
X130440000Y-152740000D03*
X130440000Y-150200000D03*
X130440000Y-147660000D03*
X130440000Y-145120000D03*
X130440000Y-142580000D03*
X130440000Y-140040000D03*
X130440000Y-137500000D03*
X130440000Y-134960000D03*
X130440000Y-132420000D03*
X130440000Y-129880000D03*
X130440000Y-127340000D03*
X130440000Y-124800000D03*
X130440000Y-122260000D03*
X130440000Y-119720000D03*
X130440000Y-117180000D03*
X130440000Y-114640000D03*
D11*
X130440000Y-112100000D03*
D10*
X91150000Y-157075000D03*
X86650000Y-157075000D03*
X86650000Y-149125000D03*
X91150000Y-149125000D03*
X91150000Y-137125000D03*
X86650000Y-137125000D03*
X86650000Y-145075000D03*
X91150000Y-145075000D03*
X96650000Y-145075000D03*
X101150000Y-145075000D03*
X101150000Y-137125000D03*
X96650000Y-137125000D03*
X106650000Y-145075000D03*
X111150000Y-145075000D03*
X111150000Y-137125000D03*
X106650000Y-137125000D03*
X91150000Y-125125000D03*
X86650000Y-125125000D03*
X86650000Y-133075000D03*
X91150000Y-133075000D03*
X96650000Y-125125000D03*
X101150000Y-125125000D03*
X101150000Y-133075000D03*
X96650000Y-133075000D03*
X106650000Y-133075000D03*
X111150000Y-133075000D03*
X111150000Y-125125000D03*
X106650000Y-125125000D03*
X91150000Y-113125000D03*
X86650000Y-113125000D03*
X86650000Y-121075000D03*
X91150000Y-121075000D03*
X101150000Y-113125000D03*
X96650000Y-113125000D03*
X96650000Y-121075000D03*
X101150000Y-121075000D03*
X106650000Y-113125000D03*
X111150000Y-113125000D03*
X111150000Y-121075000D03*
X106650000Y-121075000D03*
X116650000Y-133075000D03*
X121150000Y-133075000D03*
X121150000Y-125125000D03*
X116650000Y-125125000D03*
X116650000Y-113125000D03*
X121150000Y-113125000D03*
X121150000Y-121075000D03*
X116650000Y-121075000D03*
X116650000Y-101125000D03*
X121150000Y-101125000D03*
X121150000Y-109075000D03*
X116650000Y-109075000D03*
X106650000Y-89125000D03*
X111150000Y-89125000D03*
X111150000Y-97075000D03*
X106650000Y-97075000D03*
X81150000Y-101125000D03*
X76650000Y-101125000D03*
X76650000Y-109075000D03*
X81150000Y-109075000D03*
X91150000Y-101125000D03*
X86650000Y-101125000D03*
X86650000Y-109075000D03*
X91150000Y-109075000D03*
X101150000Y-101125000D03*
X96650000Y-101125000D03*
X96650000Y-109075000D03*
X101150000Y-109075000D03*
X106650000Y-109075000D03*
X111150000Y-109075000D03*
X111150000Y-101125000D03*
X106650000Y-101125000D03*
X81150000Y-97075000D03*
X76650000Y-97075000D03*
X76650000Y-89125000D03*
X81150000Y-89125000D03*
X91150000Y-97075000D03*
X86650000Y-97075000D03*
X86650000Y-89125000D03*
X91150000Y-89125000D03*
X101150000Y-89125000D03*
X96650000Y-89125000D03*
X96650000Y-97075000D03*
X101150000Y-97075000D03*
X116650000Y-149125000D03*
X121150000Y-149125000D03*
X121150000Y-157075000D03*
X116650000Y-157075000D03*
X116650000Y-97075000D03*
X121150000Y-97075000D03*
X121150000Y-89125000D03*
X116650000Y-89125000D03*
X96650000Y-149125000D03*
X101150000Y-149125000D03*
X101150000Y-157075000D03*
X96650000Y-157075000D03*
X106650000Y-149125000D03*
X111150000Y-149125000D03*
X111150000Y-157075000D03*
X106650000Y-157075000D03*
X81150000Y-121075000D03*
X76650000Y-121075000D03*
X76650000Y-113125000D03*
X81150000Y-113125000D03*
X81150000Y-133075000D03*
X76650000Y-133075000D03*
X76650000Y-125125000D03*
X81150000Y-125125000D03*
X81150000Y-145075000D03*
X76650000Y-145075000D03*
X76650000Y-137125000D03*
X81150000Y-137125000D03*
X81150000Y-157075000D03*
X76650000Y-157075000D03*
X76650000Y-149125000D03*
X81150000Y-149125000D03*
D11*
X130440000Y-87900000D03*
D12*
X130440000Y-90440000D03*
X130440000Y-92980000D03*
X130440000Y-95520000D03*
X130440000Y-98060000D03*
X130440000Y-100600000D03*
X130440000Y-103140000D03*
X130440000Y-105680000D03*
X130380000Y-108220000D03*
D11*
X66900000Y-98250000D03*
D12*
X66900000Y-100790000D03*
X66900000Y-103330000D03*
X66900000Y-105870000D03*
M02*
