G04 #@! TF.GenerationSoftware,KiCad,Pcbnew,5.1.6-c6e7f7d~87~ubuntu18.04.1*
G04 #@! TF.CreationDate,2021-01-10T20:40:06-05:00*
G04 #@! TF.ProjectId,dicecalc,64696365-6361-46c6-932e-6b696361645f,rev?*
G04 #@! TF.SameCoordinates,Original*
G04 #@! TF.FileFunction,Paste,Bot*
G04 #@! TF.FilePolarity,Positive*
%FSLAX46Y46*%
G04 Gerber Fmt 4.6, Leading zero omitted, Abs format (unit mm)*
G04 Created by KiCad (PCBNEW 5.1.6-c6e7f7d~87~ubuntu18.04.1) date 2021-01-10 20:40:06*
%MOMM*%
%LPD*%
G01*
G04 APERTURE LIST*
G04 APERTURE END LIST*
G36*
G01*
X89250000Y-155337500D02*
X89250000Y-154862500D01*
G75*
G02*
X89487500Y-154625000I237500J0D01*
G01*
X90062500Y-154625000D01*
G75*
G02*
X90300000Y-154862500I0J-237500D01*
G01*
X90300000Y-155337500D01*
G75*
G02*
X90062500Y-155575000I-237500J0D01*
G01*
X89487500Y-155575000D01*
G75*
G02*
X89250000Y-155337500I0J237500D01*
G01*
G37*
G36*
G01*
X87500000Y-155337500D02*
X87500000Y-154862500D01*
G75*
G02*
X87737500Y-154625000I237500J0D01*
G01*
X88312500Y-154625000D01*
G75*
G02*
X88550000Y-154862500I0J-237500D01*
G01*
X88550000Y-155337500D01*
G75*
G02*
X88312500Y-155575000I-237500J0D01*
G01*
X87737500Y-155575000D01*
G75*
G02*
X87500000Y-155337500I0J237500D01*
G01*
G37*
G36*
G01*
X87500000Y-143337500D02*
X87500000Y-142862500D01*
G75*
G02*
X87737500Y-142625000I237500J0D01*
G01*
X88312500Y-142625000D01*
G75*
G02*
X88550000Y-142862500I0J-237500D01*
G01*
X88550000Y-143337500D01*
G75*
G02*
X88312500Y-143575000I-237500J0D01*
G01*
X87737500Y-143575000D01*
G75*
G02*
X87500000Y-143337500I0J237500D01*
G01*
G37*
G36*
G01*
X89250000Y-143337500D02*
X89250000Y-142862500D01*
G75*
G02*
X89487500Y-142625000I237500J0D01*
G01*
X90062500Y-142625000D01*
G75*
G02*
X90300000Y-142862500I0J-237500D01*
G01*
X90300000Y-143337500D01*
G75*
G02*
X90062500Y-143575000I-237500J0D01*
G01*
X89487500Y-143575000D01*
G75*
G02*
X89250000Y-143337500I0J237500D01*
G01*
G37*
G36*
G01*
X100300000Y-142862500D02*
X100300000Y-143337500D01*
G75*
G02*
X100062500Y-143575000I-237500J0D01*
G01*
X99487500Y-143575000D01*
G75*
G02*
X99250000Y-143337500I0J237500D01*
G01*
X99250000Y-142862500D01*
G75*
G02*
X99487500Y-142625000I237500J0D01*
G01*
X100062500Y-142625000D01*
G75*
G02*
X100300000Y-142862500I0J-237500D01*
G01*
G37*
G36*
G01*
X98550000Y-142862500D02*
X98550000Y-143337500D01*
G75*
G02*
X98312500Y-143575000I-237500J0D01*
G01*
X97737500Y-143575000D01*
G75*
G02*
X97500000Y-143337500I0J237500D01*
G01*
X97500000Y-142862500D01*
G75*
G02*
X97737500Y-142625000I237500J0D01*
G01*
X98312500Y-142625000D01*
G75*
G02*
X98550000Y-142862500I0J-237500D01*
G01*
G37*
G36*
G01*
X110300000Y-142862500D02*
X110300000Y-143337500D01*
G75*
G02*
X110062500Y-143575000I-237500J0D01*
G01*
X109487500Y-143575000D01*
G75*
G02*
X109250000Y-143337500I0J237500D01*
G01*
X109250000Y-142862500D01*
G75*
G02*
X109487500Y-142625000I237500J0D01*
G01*
X110062500Y-142625000D01*
G75*
G02*
X110300000Y-142862500I0J-237500D01*
G01*
G37*
G36*
G01*
X108550000Y-142862500D02*
X108550000Y-143337500D01*
G75*
G02*
X108312500Y-143575000I-237500J0D01*
G01*
X107737500Y-143575000D01*
G75*
G02*
X107500000Y-143337500I0J237500D01*
G01*
X107500000Y-142862500D01*
G75*
G02*
X107737500Y-142625000I237500J0D01*
G01*
X108312500Y-142625000D01*
G75*
G02*
X108550000Y-142862500I0J-237500D01*
G01*
G37*
G36*
G01*
X87500000Y-131337500D02*
X87500000Y-130862500D01*
G75*
G02*
X87737500Y-130625000I237500J0D01*
G01*
X88312500Y-130625000D01*
G75*
G02*
X88550000Y-130862500I0J-237500D01*
G01*
X88550000Y-131337500D01*
G75*
G02*
X88312500Y-131575000I-237500J0D01*
G01*
X87737500Y-131575000D01*
G75*
G02*
X87500000Y-131337500I0J237500D01*
G01*
G37*
G36*
G01*
X89250000Y-131337500D02*
X89250000Y-130862500D01*
G75*
G02*
X89487500Y-130625000I237500J0D01*
G01*
X90062500Y-130625000D01*
G75*
G02*
X90300000Y-130862500I0J-237500D01*
G01*
X90300000Y-131337500D01*
G75*
G02*
X90062500Y-131575000I-237500J0D01*
G01*
X89487500Y-131575000D01*
G75*
G02*
X89250000Y-131337500I0J237500D01*
G01*
G37*
G36*
G01*
X100300000Y-130862500D02*
X100300000Y-131337500D01*
G75*
G02*
X100062500Y-131575000I-237500J0D01*
G01*
X99487500Y-131575000D01*
G75*
G02*
X99250000Y-131337500I0J237500D01*
G01*
X99250000Y-130862500D01*
G75*
G02*
X99487500Y-130625000I237500J0D01*
G01*
X100062500Y-130625000D01*
G75*
G02*
X100300000Y-130862500I0J-237500D01*
G01*
G37*
G36*
G01*
X98550000Y-130862500D02*
X98550000Y-131337500D01*
G75*
G02*
X98312500Y-131575000I-237500J0D01*
G01*
X97737500Y-131575000D01*
G75*
G02*
X97500000Y-131337500I0J237500D01*
G01*
X97500000Y-130862500D01*
G75*
G02*
X97737500Y-130625000I237500J0D01*
G01*
X98312500Y-130625000D01*
G75*
G02*
X98550000Y-130862500I0J-237500D01*
G01*
G37*
G36*
G01*
X110300000Y-130862500D02*
X110300000Y-131337500D01*
G75*
G02*
X110062500Y-131575000I-237500J0D01*
G01*
X109487500Y-131575000D01*
G75*
G02*
X109250000Y-131337500I0J237500D01*
G01*
X109250000Y-130862500D01*
G75*
G02*
X109487500Y-130625000I237500J0D01*
G01*
X110062500Y-130625000D01*
G75*
G02*
X110300000Y-130862500I0J-237500D01*
G01*
G37*
G36*
G01*
X108550000Y-130862500D02*
X108550000Y-131337500D01*
G75*
G02*
X108312500Y-131575000I-237500J0D01*
G01*
X107737500Y-131575000D01*
G75*
G02*
X107500000Y-131337500I0J237500D01*
G01*
X107500000Y-130862500D01*
G75*
G02*
X107737500Y-130625000I237500J0D01*
G01*
X108312500Y-130625000D01*
G75*
G02*
X108550000Y-130862500I0J-237500D01*
G01*
G37*
G36*
G01*
X87500000Y-119337500D02*
X87500000Y-118862500D01*
G75*
G02*
X87737500Y-118625000I237500J0D01*
G01*
X88312500Y-118625000D01*
G75*
G02*
X88550000Y-118862500I0J-237500D01*
G01*
X88550000Y-119337500D01*
G75*
G02*
X88312500Y-119575000I-237500J0D01*
G01*
X87737500Y-119575000D01*
G75*
G02*
X87500000Y-119337500I0J237500D01*
G01*
G37*
G36*
G01*
X89250000Y-119337500D02*
X89250000Y-118862500D01*
G75*
G02*
X89487500Y-118625000I237500J0D01*
G01*
X90062500Y-118625000D01*
G75*
G02*
X90300000Y-118862500I0J-237500D01*
G01*
X90300000Y-119337500D01*
G75*
G02*
X90062500Y-119575000I-237500J0D01*
G01*
X89487500Y-119575000D01*
G75*
G02*
X89250000Y-119337500I0J237500D01*
G01*
G37*
G36*
G01*
X99250000Y-119337500D02*
X99250000Y-118862500D01*
G75*
G02*
X99487500Y-118625000I237500J0D01*
G01*
X100062500Y-118625000D01*
G75*
G02*
X100300000Y-118862500I0J-237500D01*
G01*
X100300000Y-119337500D01*
G75*
G02*
X100062500Y-119575000I-237500J0D01*
G01*
X99487500Y-119575000D01*
G75*
G02*
X99250000Y-119337500I0J237500D01*
G01*
G37*
G36*
G01*
X97500000Y-119337500D02*
X97500000Y-118862500D01*
G75*
G02*
X97737500Y-118625000I237500J0D01*
G01*
X98312500Y-118625000D01*
G75*
G02*
X98550000Y-118862500I0J-237500D01*
G01*
X98550000Y-119337500D01*
G75*
G02*
X98312500Y-119575000I-237500J0D01*
G01*
X97737500Y-119575000D01*
G75*
G02*
X97500000Y-119337500I0J237500D01*
G01*
G37*
G36*
G01*
X108550000Y-118862500D02*
X108550000Y-119337500D01*
G75*
G02*
X108312500Y-119575000I-237500J0D01*
G01*
X107737500Y-119575000D01*
G75*
G02*
X107500000Y-119337500I0J237500D01*
G01*
X107500000Y-118862500D01*
G75*
G02*
X107737500Y-118625000I237500J0D01*
G01*
X108312500Y-118625000D01*
G75*
G02*
X108550000Y-118862500I0J-237500D01*
G01*
G37*
G36*
G01*
X110300000Y-118862500D02*
X110300000Y-119337500D01*
G75*
G02*
X110062500Y-119575000I-237500J0D01*
G01*
X109487500Y-119575000D01*
G75*
G02*
X109250000Y-119337500I0J237500D01*
G01*
X109250000Y-118862500D01*
G75*
G02*
X109487500Y-118625000I237500J0D01*
G01*
X110062500Y-118625000D01*
G75*
G02*
X110300000Y-118862500I0J-237500D01*
G01*
G37*
G36*
G01*
X118550000Y-142862500D02*
X118550000Y-143337500D01*
G75*
G02*
X118312500Y-143575000I-237500J0D01*
G01*
X117737500Y-143575000D01*
G75*
G02*
X117500000Y-143337500I0J237500D01*
G01*
X117500000Y-142862500D01*
G75*
G02*
X117737500Y-142625000I237500J0D01*
G01*
X118312500Y-142625000D01*
G75*
G02*
X118550000Y-142862500I0J-237500D01*
G01*
G37*
G36*
G01*
X120300000Y-142862500D02*
X120300000Y-143337500D01*
G75*
G02*
X120062500Y-143575000I-237500J0D01*
G01*
X119487500Y-143575000D01*
G75*
G02*
X119250000Y-143337500I0J237500D01*
G01*
X119250000Y-142862500D01*
G75*
G02*
X119487500Y-142625000I237500J0D01*
G01*
X120062500Y-142625000D01*
G75*
G02*
X120300000Y-142862500I0J-237500D01*
G01*
G37*
G36*
G01*
X118550000Y-130862500D02*
X118550000Y-131337500D01*
G75*
G02*
X118312500Y-131575000I-237500J0D01*
G01*
X117737500Y-131575000D01*
G75*
G02*
X117500000Y-131337500I0J237500D01*
G01*
X117500000Y-130862500D01*
G75*
G02*
X117737500Y-130625000I237500J0D01*
G01*
X118312500Y-130625000D01*
G75*
G02*
X118550000Y-130862500I0J-237500D01*
G01*
G37*
G36*
G01*
X120300000Y-130862500D02*
X120300000Y-131337500D01*
G75*
G02*
X120062500Y-131575000I-237500J0D01*
G01*
X119487500Y-131575000D01*
G75*
G02*
X119250000Y-131337500I0J237500D01*
G01*
X119250000Y-130862500D01*
G75*
G02*
X119487500Y-130625000I237500J0D01*
G01*
X120062500Y-130625000D01*
G75*
G02*
X120300000Y-130862500I0J-237500D01*
G01*
G37*
G36*
G01*
X120300000Y-118862500D02*
X120300000Y-119337500D01*
G75*
G02*
X120062500Y-119575000I-237500J0D01*
G01*
X119487500Y-119575000D01*
G75*
G02*
X119250000Y-119337500I0J237500D01*
G01*
X119250000Y-118862500D01*
G75*
G02*
X119487500Y-118625000I237500J0D01*
G01*
X120062500Y-118625000D01*
G75*
G02*
X120300000Y-118862500I0J-237500D01*
G01*
G37*
G36*
G01*
X118550000Y-118862500D02*
X118550000Y-119337500D01*
G75*
G02*
X118312500Y-119575000I-237500J0D01*
G01*
X117737500Y-119575000D01*
G75*
G02*
X117500000Y-119337500I0J237500D01*
G01*
X117500000Y-118862500D01*
G75*
G02*
X117737500Y-118625000I237500J0D01*
G01*
X118312500Y-118625000D01*
G75*
G02*
X118550000Y-118862500I0J-237500D01*
G01*
G37*
G36*
G01*
X118550000Y-106862500D02*
X118550000Y-107337500D01*
G75*
G02*
X118312500Y-107575000I-237500J0D01*
G01*
X117737500Y-107575000D01*
G75*
G02*
X117500000Y-107337500I0J237500D01*
G01*
X117500000Y-106862500D01*
G75*
G02*
X117737500Y-106625000I237500J0D01*
G01*
X118312500Y-106625000D01*
G75*
G02*
X118550000Y-106862500I0J-237500D01*
G01*
G37*
G36*
G01*
X120300000Y-106862500D02*
X120300000Y-107337500D01*
G75*
G02*
X120062500Y-107575000I-237500J0D01*
G01*
X119487500Y-107575000D01*
G75*
G02*
X119250000Y-107337500I0J237500D01*
G01*
X119250000Y-106862500D01*
G75*
G02*
X119487500Y-106625000I237500J0D01*
G01*
X120062500Y-106625000D01*
G75*
G02*
X120300000Y-106862500I0J-237500D01*
G01*
G37*
G36*
G01*
X110300000Y-94862500D02*
X110300000Y-95337500D01*
G75*
G02*
X110062500Y-95575000I-237500J0D01*
G01*
X109487500Y-95575000D01*
G75*
G02*
X109250000Y-95337500I0J237500D01*
G01*
X109250000Y-94862500D01*
G75*
G02*
X109487500Y-94625000I237500J0D01*
G01*
X110062500Y-94625000D01*
G75*
G02*
X110300000Y-94862500I0J-237500D01*
G01*
G37*
G36*
G01*
X108550000Y-94862500D02*
X108550000Y-95337500D01*
G75*
G02*
X108312500Y-95575000I-237500J0D01*
G01*
X107737500Y-95575000D01*
G75*
G02*
X107500000Y-95337500I0J237500D01*
G01*
X107500000Y-94862500D01*
G75*
G02*
X107737500Y-94625000I237500J0D01*
G01*
X108312500Y-94625000D01*
G75*
G02*
X108550000Y-94862500I0J-237500D01*
G01*
G37*
G36*
G01*
X77500000Y-107337500D02*
X77500000Y-106862500D01*
G75*
G02*
X77737500Y-106625000I237500J0D01*
G01*
X78312500Y-106625000D01*
G75*
G02*
X78550000Y-106862500I0J-237500D01*
G01*
X78550000Y-107337500D01*
G75*
G02*
X78312500Y-107575000I-237500J0D01*
G01*
X77737500Y-107575000D01*
G75*
G02*
X77500000Y-107337500I0J237500D01*
G01*
G37*
G36*
G01*
X79250000Y-107337500D02*
X79250000Y-106862500D01*
G75*
G02*
X79487500Y-106625000I237500J0D01*
G01*
X80062500Y-106625000D01*
G75*
G02*
X80300000Y-106862500I0J-237500D01*
G01*
X80300000Y-107337500D01*
G75*
G02*
X80062500Y-107575000I-237500J0D01*
G01*
X79487500Y-107575000D01*
G75*
G02*
X79250000Y-107337500I0J237500D01*
G01*
G37*
G36*
G01*
X87500000Y-107337500D02*
X87500000Y-106862500D01*
G75*
G02*
X87737500Y-106625000I237500J0D01*
G01*
X88312500Y-106625000D01*
G75*
G02*
X88550000Y-106862500I0J-237500D01*
G01*
X88550000Y-107337500D01*
G75*
G02*
X88312500Y-107575000I-237500J0D01*
G01*
X87737500Y-107575000D01*
G75*
G02*
X87500000Y-107337500I0J237500D01*
G01*
G37*
G36*
G01*
X89250000Y-107337500D02*
X89250000Y-106862500D01*
G75*
G02*
X89487500Y-106625000I237500J0D01*
G01*
X90062500Y-106625000D01*
G75*
G02*
X90300000Y-106862500I0J-237500D01*
G01*
X90300000Y-107337500D01*
G75*
G02*
X90062500Y-107575000I-237500J0D01*
G01*
X89487500Y-107575000D01*
G75*
G02*
X89250000Y-107337500I0J237500D01*
G01*
G37*
G36*
G01*
X99250000Y-107337500D02*
X99250000Y-106862500D01*
G75*
G02*
X99487500Y-106625000I237500J0D01*
G01*
X100062500Y-106625000D01*
G75*
G02*
X100300000Y-106862500I0J-237500D01*
G01*
X100300000Y-107337500D01*
G75*
G02*
X100062500Y-107575000I-237500J0D01*
G01*
X99487500Y-107575000D01*
G75*
G02*
X99250000Y-107337500I0J237500D01*
G01*
G37*
G36*
G01*
X97500000Y-107337500D02*
X97500000Y-106862500D01*
G75*
G02*
X97737500Y-106625000I237500J0D01*
G01*
X98312500Y-106625000D01*
G75*
G02*
X98550000Y-106862500I0J-237500D01*
G01*
X98550000Y-107337500D01*
G75*
G02*
X98312500Y-107575000I-237500J0D01*
G01*
X97737500Y-107575000D01*
G75*
G02*
X97500000Y-107337500I0J237500D01*
G01*
G37*
G36*
G01*
X110300000Y-106862500D02*
X110300000Y-107337500D01*
G75*
G02*
X110062500Y-107575000I-237500J0D01*
G01*
X109487500Y-107575000D01*
G75*
G02*
X109250000Y-107337500I0J237500D01*
G01*
X109250000Y-106862500D01*
G75*
G02*
X109487500Y-106625000I237500J0D01*
G01*
X110062500Y-106625000D01*
G75*
G02*
X110300000Y-106862500I0J-237500D01*
G01*
G37*
G36*
G01*
X108550000Y-106862500D02*
X108550000Y-107337500D01*
G75*
G02*
X108312500Y-107575000I-237500J0D01*
G01*
X107737500Y-107575000D01*
G75*
G02*
X107500000Y-107337500I0J237500D01*
G01*
X107500000Y-106862500D01*
G75*
G02*
X107737500Y-106625000I237500J0D01*
G01*
X108312500Y-106625000D01*
G75*
G02*
X108550000Y-106862500I0J-237500D01*
G01*
G37*
G36*
G01*
X79250000Y-95337500D02*
X79250000Y-94862500D01*
G75*
G02*
X79487500Y-94625000I237500J0D01*
G01*
X80062500Y-94625000D01*
G75*
G02*
X80300000Y-94862500I0J-237500D01*
G01*
X80300000Y-95337500D01*
G75*
G02*
X80062500Y-95575000I-237500J0D01*
G01*
X79487500Y-95575000D01*
G75*
G02*
X79250000Y-95337500I0J237500D01*
G01*
G37*
G36*
G01*
X77500000Y-95337500D02*
X77500000Y-94862500D01*
G75*
G02*
X77737500Y-94625000I237500J0D01*
G01*
X78312500Y-94625000D01*
G75*
G02*
X78550000Y-94862500I0J-237500D01*
G01*
X78550000Y-95337500D01*
G75*
G02*
X78312500Y-95575000I-237500J0D01*
G01*
X77737500Y-95575000D01*
G75*
G02*
X77500000Y-95337500I0J237500D01*
G01*
G37*
G36*
G01*
X89250000Y-95337500D02*
X89250000Y-94862500D01*
G75*
G02*
X89487500Y-94625000I237500J0D01*
G01*
X90062500Y-94625000D01*
G75*
G02*
X90300000Y-94862500I0J-237500D01*
G01*
X90300000Y-95337500D01*
G75*
G02*
X90062500Y-95575000I-237500J0D01*
G01*
X89487500Y-95575000D01*
G75*
G02*
X89250000Y-95337500I0J237500D01*
G01*
G37*
G36*
G01*
X87500000Y-95337500D02*
X87500000Y-94862500D01*
G75*
G02*
X87737500Y-94625000I237500J0D01*
G01*
X88312500Y-94625000D01*
G75*
G02*
X88550000Y-94862500I0J-237500D01*
G01*
X88550000Y-95337500D01*
G75*
G02*
X88312500Y-95575000I-237500J0D01*
G01*
X87737500Y-95575000D01*
G75*
G02*
X87500000Y-95337500I0J237500D01*
G01*
G37*
G36*
G01*
X97500000Y-95337500D02*
X97500000Y-94862500D01*
G75*
G02*
X97737500Y-94625000I237500J0D01*
G01*
X98312500Y-94625000D01*
G75*
G02*
X98550000Y-94862500I0J-237500D01*
G01*
X98550000Y-95337500D01*
G75*
G02*
X98312500Y-95575000I-237500J0D01*
G01*
X97737500Y-95575000D01*
G75*
G02*
X97500000Y-95337500I0J237500D01*
G01*
G37*
G36*
G01*
X99250000Y-95337500D02*
X99250000Y-94862500D01*
G75*
G02*
X99487500Y-94625000I237500J0D01*
G01*
X100062500Y-94625000D01*
G75*
G02*
X100300000Y-94862500I0J-237500D01*
G01*
X100300000Y-95337500D01*
G75*
G02*
X100062500Y-95575000I-237500J0D01*
G01*
X99487500Y-95575000D01*
G75*
G02*
X99250000Y-95337500I0J237500D01*
G01*
G37*
G36*
G01*
X120300000Y-154862500D02*
X120300000Y-155337500D01*
G75*
G02*
X120062500Y-155575000I-237500J0D01*
G01*
X119487500Y-155575000D01*
G75*
G02*
X119250000Y-155337500I0J237500D01*
G01*
X119250000Y-154862500D01*
G75*
G02*
X119487500Y-154625000I237500J0D01*
G01*
X120062500Y-154625000D01*
G75*
G02*
X120300000Y-154862500I0J-237500D01*
G01*
G37*
G36*
G01*
X118550000Y-154862500D02*
X118550000Y-155337500D01*
G75*
G02*
X118312500Y-155575000I-237500J0D01*
G01*
X117737500Y-155575000D01*
G75*
G02*
X117500000Y-155337500I0J237500D01*
G01*
X117500000Y-154862500D01*
G75*
G02*
X117737500Y-154625000I237500J0D01*
G01*
X118312500Y-154625000D01*
G75*
G02*
X118550000Y-154862500I0J-237500D01*
G01*
G37*
G36*
G01*
X120300000Y-94862500D02*
X120300000Y-95337500D01*
G75*
G02*
X120062500Y-95575000I-237500J0D01*
G01*
X119487500Y-95575000D01*
G75*
G02*
X119250000Y-95337500I0J237500D01*
G01*
X119250000Y-94862500D01*
G75*
G02*
X119487500Y-94625000I237500J0D01*
G01*
X120062500Y-94625000D01*
G75*
G02*
X120300000Y-94862500I0J-237500D01*
G01*
G37*
G36*
G01*
X118550000Y-94862500D02*
X118550000Y-95337500D01*
G75*
G02*
X118312500Y-95575000I-237500J0D01*
G01*
X117737500Y-95575000D01*
G75*
G02*
X117500000Y-95337500I0J237500D01*
G01*
X117500000Y-94862500D01*
G75*
G02*
X117737500Y-94625000I237500J0D01*
G01*
X118312500Y-94625000D01*
G75*
G02*
X118550000Y-94862500I0J-237500D01*
G01*
G37*
G36*
G01*
X98550000Y-154862500D02*
X98550000Y-155337500D01*
G75*
G02*
X98312500Y-155575000I-237500J0D01*
G01*
X97737500Y-155575000D01*
G75*
G02*
X97500000Y-155337500I0J237500D01*
G01*
X97500000Y-154862500D01*
G75*
G02*
X97737500Y-154625000I237500J0D01*
G01*
X98312500Y-154625000D01*
G75*
G02*
X98550000Y-154862500I0J-237500D01*
G01*
G37*
G36*
G01*
X100300000Y-154862500D02*
X100300000Y-155337500D01*
G75*
G02*
X100062500Y-155575000I-237500J0D01*
G01*
X99487500Y-155575000D01*
G75*
G02*
X99250000Y-155337500I0J237500D01*
G01*
X99250000Y-154862500D01*
G75*
G02*
X99487500Y-154625000I237500J0D01*
G01*
X100062500Y-154625000D01*
G75*
G02*
X100300000Y-154862500I0J-237500D01*
G01*
G37*
G36*
G01*
X108550000Y-154862500D02*
X108550000Y-155337500D01*
G75*
G02*
X108312500Y-155575000I-237500J0D01*
G01*
X107737500Y-155575000D01*
G75*
G02*
X107500000Y-155337500I0J237500D01*
G01*
X107500000Y-154862500D01*
G75*
G02*
X107737500Y-154625000I237500J0D01*
G01*
X108312500Y-154625000D01*
G75*
G02*
X108550000Y-154862500I0J-237500D01*
G01*
G37*
G36*
G01*
X110300000Y-154862500D02*
X110300000Y-155337500D01*
G75*
G02*
X110062500Y-155575000I-237500J0D01*
G01*
X109487500Y-155575000D01*
G75*
G02*
X109250000Y-155337500I0J237500D01*
G01*
X109250000Y-154862500D01*
G75*
G02*
X109487500Y-154625000I237500J0D01*
G01*
X110062500Y-154625000D01*
G75*
G02*
X110300000Y-154862500I0J-237500D01*
G01*
G37*
G36*
G01*
X79250000Y-119337500D02*
X79250000Y-118862500D01*
G75*
G02*
X79487500Y-118625000I237500J0D01*
G01*
X80062500Y-118625000D01*
G75*
G02*
X80300000Y-118862500I0J-237500D01*
G01*
X80300000Y-119337500D01*
G75*
G02*
X80062500Y-119575000I-237500J0D01*
G01*
X79487500Y-119575000D01*
G75*
G02*
X79250000Y-119337500I0J237500D01*
G01*
G37*
G36*
G01*
X77500000Y-119337500D02*
X77500000Y-118862500D01*
G75*
G02*
X77737500Y-118625000I237500J0D01*
G01*
X78312500Y-118625000D01*
G75*
G02*
X78550000Y-118862500I0J-237500D01*
G01*
X78550000Y-119337500D01*
G75*
G02*
X78312500Y-119575000I-237500J0D01*
G01*
X77737500Y-119575000D01*
G75*
G02*
X77500000Y-119337500I0J237500D01*
G01*
G37*
G36*
G01*
X79250000Y-131337500D02*
X79250000Y-130862500D01*
G75*
G02*
X79487500Y-130625000I237500J0D01*
G01*
X80062500Y-130625000D01*
G75*
G02*
X80300000Y-130862500I0J-237500D01*
G01*
X80300000Y-131337500D01*
G75*
G02*
X80062500Y-131575000I-237500J0D01*
G01*
X79487500Y-131575000D01*
G75*
G02*
X79250000Y-131337500I0J237500D01*
G01*
G37*
G36*
G01*
X77500000Y-131337500D02*
X77500000Y-130862500D01*
G75*
G02*
X77737500Y-130625000I237500J0D01*
G01*
X78312500Y-130625000D01*
G75*
G02*
X78550000Y-130862500I0J-237500D01*
G01*
X78550000Y-131337500D01*
G75*
G02*
X78312500Y-131575000I-237500J0D01*
G01*
X77737500Y-131575000D01*
G75*
G02*
X77500000Y-131337500I0J237500D01*
G01*
G37*
G36*
G01*
X79250000Y-143337500D02*
X79250000Y-142862500D01*
G75*
G02*
X79487500Y-142625000I237500J0D01*
G01*
X80062500Y-142625000D01*
G75*
G02*
X80300000Y-142862500I0J-237500D01*
G01*
X80300000Y-143337500D01*
G75*
G02*
X80062500Y-143575000I-237500J0D01*
G01*
X79487500Y-143575000D01*
G75*
G02*
X79250000Y-143337500I0J237500D01*
G01*
G37*
G36*
G01*
X77500000Y-143337500D02*
X77500000Y-142862500D01*
G75*
G02*
X77737500Y-142625000I237500J0D01*
G01*
X78312500Y-142625000D01*
G75*
G02*
X78550000Y-142862500I0J-237500D01*
G01*
X78550000Y-143337500D01*
G75*
G02*
X78312500Y-143575000I-237500J0D01*
G01*
X77737500Y-143575000D01*
G75*
G02*
X77500000Y-143337500I0J237500D01*
G01*
G37*
G36*
G01*
X79250000Y-155337500D02*
X79250000Y-154862500D01*
G75*
G02*
X79487500Y-154625000I237500J0D01*
G01*
X80062500Y-154625000D01*
G75*
G02*
X80300000Y-154862500I0J-237500D01*
G01*
X80300000Y-155337500D01*
G75*
G02*
X80062500Y-155575000I-237500J0D01*
G01*
X79487500Y-155575000D01*
G75*
G02*
X79250000Y-155337500I0J237500D01*
G01*
G37*
G36*
G01*
X77500000Y-155337500D02*
X77500000Y-154862500D01*
G75*
G02*
X77737500Y-154625000I237500J0D01*
G01*
X78312500Y-154625000D01*
G75*
G02*
X78550000Y-154862500I0J-237500D01*
G01*
X78550000Y-155337500D01*
G75*
G02*
X78312500Y-155575000I-237500J0D01*
G01*
X77737500Y-155575000D01*
G75*
G02*
X77500000Y-155337500I0J237500D01*
G01*
G37*
G36*
G01*
X89250000Y-151337500D02*
X89250000Y-150862500D01*
G75*
G02*
X89487500Y-150625000I237500J0D01*
G01*
X90062500Y-150625000D01*
G75*
G02*
X90300000Y-150862500I0J-237500D01*
G01*
X90300000Y-151337500D01*
G75*
G02*
X90062500Y-151575000I-237500J0D01*
G01*
X89487500Y-151575000D01*
G75*
G02*
X89250000Y-151337500I0J237500D01*
G01*
G37*
G36*
G01*
X87500000Y-151337500D02*
X87500000Y-150862500D01*
G75*
G02*
X87737500Y-150625000I237500J0D01*
G01*
X88312500Y-150625000D01*
G75*
G02*
X88550000Y-150862500I0J-237500D01*
G01*
X88550000Y-151337500D01*
G75*
G02*
X88312500Y-151575000I-237500J0D01*
G01*
X87737500Y-151575000D01*
G75*
G02*
X87500000Y-151337500I0J237500D01*
G01*
G37*
G36*
G01*
X87500000Y-139337500D02*
X87500000Y-138862500D01*
G75*
G02*
X87737500Y-138625000I237500J0D01*
G01*
X88312500Y-138625000D01*
G75*
G02*
X88550000Y-138862500I0J-237500D01*
G01*
X88550000Y-139337500D01*
G75*
G02*
X88312500Y-139575000I-237500J0D01*
G01*
X87737500Y-139575000D01*
G75*
G02*
X87500000Y-139337500I0J237500D01*
G01*
G37*
G36*
G01*
X89250000Y-139337500D02*
X89250000Y-138862500D01*
G75*
G02*
X89487500Y-138625000I237500J0D01*
G01*
X90062500Y-138625000D01*
G75*
G02*
X90300000Y-138862500I0J-237500D01*
G01*
X90300000Y-139337500D01*
G75*
G02*
X90062500Y-139575000I-237500J0D01*
G01*
X89487500Y-139575000D01*
G75*
G02*
X89250000Y-139337500I0J237500D01*
G01*
G37*
G36*
G01*
X100300000Y-138862500D02*
X100300000Y-139337500D01*
G75*
G02*
X100062500Y-139575000I-237500J0D01*
G01*
X99487500Y-139575000D01*
G75*
G02*
X99250000Y-139337500I0J237500D01*
G01*
X99250000Y-138862500D01*
G75*
G02*
X99487500Y-138625000I237500J0D01*
G01*
X100062500Y-138625000D01*
G75*
G02*
X100300000Y-138862500I0J-237500D01*
G01*
G37*
G36*
G01*
X98550000Y-138862500D02*
X98550000Y-139337500D01*
G75*
G02*
X98312500Y-139575000I-237500J0D01*
G01*
X97737500Y-139575000D01*
G75*
G02*
X97500000Y-139337500I0J237500D01*
G01*
X97500000Y-138862500D01*
G75*
G02*
X97737500Y-138625000I237500J0D01*
G01*
X98312500Y-138625000D01*
G75*
G02*
X98550000Y-138862500I0J-237500D01*
G01*
G37*
G36*
G01*
X110300000Y-138862500D02*
X110300000Y-139337500D01*
G75*
G02*
X110062500Y-139575000I-237500J0D01*
G01*
X109487500Y-139575000D01*
G75*
G02*
X109250000Y-139337500I0J237500D01*
G01*
X109250000Y-138862500D01*
G75*
G02*
X109487500Y-138625000I237500J0D01*
G01*
X110062500Y-138625000D01*
G75*
G02*
X110300000Y-138862500I0J-237500D01*
G01*
G37*
G36*
G01*
X108550000Y-138862500D02*
X108550000Y-139337500D01*
G75*
G02*
X108312500Y-139575000I-237500J0D01*
G01*
X107737500Y-139575000D01*
G75*
G02*
X107500000Y-139337500I0J237500D01*
G01*
X107500000Y-138862500D01*
G75*
G02*
X107737500Y-138625000I237500J0D01*
G01*
X108312500Y-138625000D01*
G75*
G02*
X108550000Y-138862500I0J-237500D01*
G01*
G37*
G36*
G01*
X89250000Y-127337500D02*
X89250000Y-126862500D01*
G75*
G02*
X89487500Y-126625000I237500J0D01*
G01*
X90062500Y-126625000D01*
G75*
G02*
X90300000Y-126862500I0J-237500D01*
G01*
X90300000Y-127337500D01*
G75*
G02*
X90062500Y-127575000I-237500J0D01*
G01*
X89487500Y-127575000D01*
G75*
G02*
X89250000Y-127337500I0J237500D01*
G01*
G37*
G36*
G01*
X87500000Y-127337500D02*
X87500000Y-126862500D01*
G75*
G02*
X87737500Y-126625000I237500J0D01*
G01*
X88312500Y-126625000D01*
G75*
G02*
X88550000Y-126862500I0J-237500D01*
G01*
X88550000Y-127337500D01*
G75*
G02*
X88312500Y-127575000I-237500J0D01*
G01*
X87737500Y-127575000D01*
G75*
G02*
X87500000Y-127337500I0J237500D01*
G01*
G37*
G36*
G01*
X90300000Y-152862500D02*
X90300000Y-153337500D01*
G75*
G02*
X90062500Y-153575000I-237500J0D01*
G01*
X89487500Y-153575000D01*
G75*
G02*
X89250000Y-153337500I0J237500D01*
G01*
X89250000Y-152862500D01*
G75*
G02*
X89487500Y-152625000I237500J0D01*
G01*
X90062500Y-152625000D01*
G75*
G02*
X90300000Y-152862500I0J-237500D01*
G01*
G37*
G36*
G01*
X88550000Y-152862500D02*
X88550000Y-153337500D01*
G75*
G02*
X88312500Y-153575000I-237500J0D01*
G01*
X87737500Y-153575000D01*
G75*
G02*
X87500000Y-153337500I0J237500D01*
G01*
X87500000Y-152862500D01*
G75*
G02*
X87737500Y-152625000I237500J0D01*
G01*
X88312500Y-152625000D01*
G75*
G02*
X88550000Y-152862500I0J-237500D01*
G01*
G37*
G36*
G01*
X88550000Y-140862500D02*
X88550000Y-141337500D01*
G75*
G02*
X88312500Y-141575000I-237500J0D01*
G01*
X87737500Y-141575000D01*
G75*
G02*
X87500000Y-141337500I0J237500D01*
G01*
X87500000Y-140862500D01*
G75*
G02*
X87737500Y-140625000I237500J0D01*
G01*
X88312500Y-140625000D01*
G75*
G02*
X88550000Y-140862500I0J-237500D01*
G01*
G37*
G36*
G01*
X90300000Y-140862500D02*
X90300000Y-141337500D01*
G75*
G02*
X90062500Y-141575000I-237500J0D01*
G01*
X89487500Y-141575000D01*
G75*
G02*
X89250000Y-141337500I0J237500D01*
G01*
X89250000Y-140862500D01*
G75*
G02*
X89487500Y-140625000I237500J0D01*
G01*
X90062500Y-140625000D01*
G75*
G02*
X90300000Y-140862500I0J-237500D01*
G01*
G37*
G36*
G01*
X99250000Y-141337500D02*
X99250000Y-140862500D01*
G75*
G02*
X99487500Y-140625000I237500J0D01*
G01*
X100062500Y-140625000D01*
G75*
G02*
X100300000Y-140862500I0J-237500D01*
G01*
X100300000Y-141337500D01*
G75*
G02*
X100062500Y-141575000I-237500J0D01*
G01*
X99487500Y-141575000D01*
G75*
G02*
X99250000Y-141337500I0J237500D01*
G01*
G37*
G36*
G01*
X97500000Y-141337500D02*
X97500000Y-140862500D01*
G75*
G02*
X97737500Y-140625000I237500J0D01*
G01*
X98312500Y-140625000D01*
G75*
G02*
X98550000Y-140862500I0J-237500D01*
G01*
X98550000Y-141337500D01*
G75*
G02*
X98312500Y-141575000I-237500J0D01*
G01*
X97737500Y-141575000D01*
G75*
G02*
X97500000Y-141337500I0J237500D01*
G01*
G37*
G36*
G01*
X109250000Y-141337500D02*
X109250000Y-140862500D01*
G75*
G02*
X109487500Y-140625000I237500J0D01*
G01*
X110062500Y-140625000D01*
G75*
G02*
X110300000Y-140862500I0J-237500D01*
G01*
X110300000Y-141337500D01*
G75*
G02*
X110062500Y-141575000I-237500J0D01*
G01*
X109487500Y-141575000D01*
G75*
G02*
X109250000Y-141337500I0J237500D01*
G01*
G37*
G36*
G01*
X107500000Y-141337500D02*
X107500000Y-140862500D01*
G75*
G02*
X107737500Y-140625000I237500J0D01*
G01*
X108312500Y-140625000D01*
G75*
G02*
X108550000Y-140862500I0J-237500D01*
G01*
X108550000Y-141337500D01*
G75*
G02*
X108312500Y-141575000I-237500J0D01*
G01*
X107737500Y-141575000D01*
G75*
G02*
X107500000Y-141337500I0J237500D01*
G01*
G37*
G36*
G01*
X90300000Y-128862500D02*
X90300000Y-129337500D01*
G75*
G02*
X90062500Y-129575000I-237500J0D01*
G01*
X89487500Y-129575000D01*
G75*
G02*
X89250000Y-129337500I0J237500D01*
G01*
X89250000Y-128862500D01*
G75*
G02*
X89487500Y-128625000I237500J0D01*
G01*
X90062500Y-128625000D01*
G75*
G02*
X90300000Y-128862500I0J-237500D01*
G01*
G37*
G36*
G01*
X88550000Y-128862500D02*
X88550000Y-129337500D01*
G75*
G02*
X88312500Y-129575000I-237500J0D01*
G01*
X87737500Y-129575000D01*
G75*
G02*
X87500000Y-129337500I0J237500D01*
G01*
X87500000Y-128862500D01*
G75*
G02*
X87737500Y-128625000I237500J0D01*
G01*
X88312500Y-128625000D01*
G75*
G02*
X88550000Y-128862500I0J-237500D01*
G01*
G37*
G36*
G01*
X98550000Y-126862500D02*
X98550000Y-127337500D01*
G75*
G02*
X98312500Y-127575000I-237500J0D01*
G01*
X97737500Y-127575000D01*
G75*
G02*
X97500000Y-127337500I0J237500D01*
G01*
X97500000Y-126862500D01*
G75*
G02*
X97737500Y-126625000I237500J0D01*
G01*
X98312500Y-126625000D01*
G75*
G02*
X98550000Y-126862500I0J-237500D01*
G01*
G37*
G36*
G01*
X100300000Y-126862500D02*
X100300000Y-127337500D01*
G75*
G02*
X100062500Y-127575000I-237500J0D01*
G01*
X99487500Y-127575000D01*
G75*
G02*
X99250000Y-127337500I0J237500D01*
G01*
X99250000Y-126862500D01*
G75*
G02*
X99487500Y-126625000I237500J0D01*
G01*
X100062500Y-126625000D01*
G75*
G02*
X100300000Y-126862500I0J-237500D01*
G01*
G37*
G36*
G01*
X108550000Y-126862500D02*
X108550000Y-127337500D01*
G75*
G02*
X108312500Y-127575000I-237500J0D01*
G01*
X107737500Y-127575000D01*
G75*
G02*
X107500000Y-127337500I0J237500D01*
G01*
X107500000Y-126862500D01*
G75*
G02*
X107737500Y-126625000I237500J0D01*
G01*
X108312500Y-126625000D01*
G75*
G02*
X108550000Y-126862500I0J-237500D01*
G01*
G37*
G36*
G01*
X110300000Y-126862500D02*
X110300000Y-127337500D01*
G75*
G02*
X110062500Y-127575000I-237500J0D01*
G01*
X109487500Y-127575000D01*
G75*
G02*
X109250000Y-127337500I0J237500D01*
G01*
X109250000Y-126862500D01*
G75*
G02*
X109487500Y-126625000I237500J0D01*
G01*
X110062500Y-126625000D01*
G75*
G02*
X110300000Y-126862500I0J-237500D01*
G01*
G37*
G36*
G01*
X89250000Y-115337500D02*
X89250000Y-114862500D01*
G75*
G02*
X89487500Y-114625000I237500J0D01*
G01*
X90062500Y-114625000D01*
G75*
G02*
X90300000Y-114862500I0J-237500D01*
G01*
X90300000Y-115337500D01*
G75*
G02*
X90062500Y-115575000I-237500J0D01*
G01*
X89487500Y-115575000D01*
G75*
G02*
X89250000Y-115337500I0J237500D01*
G01*
G37*
G36*
G01*
X87500000Y-115337500D02*
X87500000Y-114862500D01*
G75*
G02*
X87737500Y-114625000I237500J0D01*
G01*
X88312500Y-114625000D01*
G75*
G02*
X88550000Y-114862500I0J-237500D01*
G01*
X88550000Y-115337500D01*
G75*
G02*
X88312500Y-115575000I-237500J0D01*
G01*
X87737500Y-115575000D01*
G75*
G02*
X87500000Y-115337500I0J237500D01*
G01*
G37*
G36*
G01*
X99250000Y-115337500D02*
X99250000Y-114862500D01*
G75*
G02*
X99487500Y-114625000I237500J0D01*
G01*
X100062500Y-114625000D01*
G75*
G02*
X100300000Y-114862500I0J-237500D01*
G01*
X100300000Y-115337500D01*
G75*
G02*
X100062500Y-115575000I-237500J0D01*
G01*
X99487500Y-115575000D01*
G75*
G02*
X99250000Y-115337500I0J237500D01*
G01*
G37*
G36*
G01*
X97500000Y-115337500D02*
X97500000Y-114862500D01*
G75*
G02*
X97737500Y-114625000I237500J0D01*
G01*
X98312500Y-114625000D01*
G75*
G02*
X98550000Y-114862500I0J-237500D01*
G01*
X98550000Y-115337500D01*
G75*
G02*
X98312500Y-115575000I-237500J0D01*
G01*
X97737500Y-115575000D01*
G75*
G02*
X97500000Y-115337500I0J237500D01*
G01*
G37*
G36*
G01*
X108550000Y-114862500D02*
X108550000Y-115337500D01*
G75*
G02*
X108312500Y-115575000I-237500J0D01*
G01*
X107737500Y-115575000D01*
G75*
G02*
X107500000Y-115337500I0J237500D01*
G01*
X107500000Y-114862500D01*
G75*
G02*
X107737500Y-114625000I237500J0D01*
G01*
X108312500Y-114625000D01*
G75*
G02*
X108550000Y-114862500I0J-237500D01*
G01*
G37*
G36*
G01*
X110300000Y-114862500D02*
X110300000Y-115337500D01*
G75*
G02*
X110062500Y-115575000I-237500J0D01*
G01*
X109487500Y-115575000D01*
G75*
G02*
X109250000Y-115337500I0J237500D01*
G01*
X109250000Y-114862500D01*
G75*
G02*
X109487500Y-114625000I237500J0D01*
G01*
X110062500Y-114625000D01*
G75*
G02*
X110300000Y-114862500I0J-237500D01*
G01*
G37*
G36*
G01*
X97500000Y-129337500D02*
X97500000Y-128862500D01*
G75*
G02*
X97737500Y-128625000I237500J0D01*
G01*
X98312500Y-128625000D01*
G75*
G02*
X98550000Y-128862500I0J-237500D01*
G01*
X98550000Y-129337500D01*
G75*
G02*
X98312500Y-129575000I-237500J0D01*
G01*
X97737500Y-129575000D01*
G75*
G02*
X97500000Y-129337500I0J237500D01*
G01*
G37*
G36*
G01*
X99250000Y-129337500D02*
X99250000Y-128862500D01*
G75*
G02*
X99487500Y-128625000I237500J0D01*
G01*
X100062500Y-128625000D01*
G75*
G02*
X100300000Y-128862500I0J-237500D01*
G01*
X100300000Y-129337500D01*
G75*
G02*
X100062500Y-129575000I-237500J0D01*
G01*
X99487500Y-129575000D01*
G75*
G02*
X99250000Y-129337500I0J237500D01*
G01*
G37*
G36*
G01*
X107500000Y-129337500D02*
X107500000Y-128862500D01*
G75*
G02*
X107737500Y-128625000I237500J0D01*
G01*
X108312500Y-128625000D01*
G75*
G02*
X108550000Y-128862500I0J-237500D01*
G01*
X108550000Y-129337500D01*
G75*
G02*
X108312500Y-129575000I-237500J0D01*
G01*
X107737500Y-129575000D01*
G75*
G02*
X107500000Y-129337500I0J237500D01*
G01*
G37*
G36*
G01*
X109250000Y-129337500D02*
X109250000Y-128862500D01*
G75*
G02*
X109487500Y-128625000I237500J0D01*
G01*
X110062500Y-128625000D01*
G75*
G02*
X110300000Y-128862500I0J-237500D01*
G01*
X110300000Y-129337500D01*
G75*
G02*
X110062500Y-129575000I-237500J0D01*
G01*
X109487500Y-129575000D01*
G75*
G02*
X109250000Y-129337500I0J237500D01*
G01*
G37*
G36*
G01*
X90300000Y-116862500D02*
X90300000Y-117337500D01*
G75*
G02*
X90062500Y-117575000I-237500J0D01*
G01*
X89487500Y-117575000D01*
G75*
G02*
X89250000Y-117337500I0J237500D01*
G01*
X89250000Y-116862500D01*
G75*
G02*
X89487500Y-116625000I237500J0D01*
G01*
X90062500Y-116625000D01*
G75*
G02*
X90300000Y-116862500I0J-237500D01*
G01*
G37*
G36*
G01*
X88550000Y-116862500D02*
X88550000Y-117337500D01*
G75*
G02*
X88312500Y-117575000I-237500J0D01*
G01*
X87737500Y-117575000D01*
G75*
G02*
X87500000Y-117337500I0J237500D01*
G01*
X87500000Y-116862500D01*
G75*
G02*
X87737500Y-116625000I237500J0D01*
G01*
X88312500Y-116625000D01*
G75*
G02*
X88550000Y-116862500I0J-237500D01*
G01*
G37*
G36*
G01*
X100300000Y-116862500D02*
X100300000Y-117337500D01*
G75*
G02*
X100062500Y-117575000I-237500J0D01*
G01*
X99487500Y-117575000D01*
G75*
G02*
X99250000Y-117337500I0J237500D01*
G01*
X99250000Y-116862500D01*
G75*
G02*
X99487500Y-116625000I237500J0D01*
G01*
X100062500Y-116625000D01*
G75*
G02*
X100300000Y-116862500I0J-237500D01*
G01*
G37*
G36*
G01*
X98550000Y-116862500D02*
X98550000Y-117337500D01*
G75*
G02*
X98312500Y-117575000I-237500J0D01*
G01*
X97737500Y-117575000D01*
G75*
G02*
X97500000Y-117337500I0J237500D01*
G01*
X97500000Y-116862500D01*
G75*
G02*
X97737500Y-116625000I237500J0D01*
G01*
X98312500Y-116625000D01*
G75*
G02*
X98550000Y-116862500I0J-237500D01*
G01*
G37*
G36*
G01*
X107500000Y-117337500D02*
X107500000Y-116862500D01*
G75*
G02*
X107737500Y-116625000I237500J0D01*
G01*
X108312500Y-116625000D01*
G75*
G02*
X108550000Y-116862500I0J-237500D01*
G01*
X108550000Y-117337500D01*
G75*
G02*
X108312500Y-117575000I-237500J0D01*
G01*
X107737500Y-117575000D01*
G75*
G02*
X107500000Y-117337500I0J237500D01*
G01*
G37*
G36*
G01*
X109250000Y-117337500D02*
X109250000Y-116862500D01*
G75*
G02*
X109487500Y-116625000I237500J0D01*
G01*
X110062500Y-116625000D01*
G75*
G02*
X110300000Y-116862500I0J-237500D01*
G01*
X110300000Y-117337500D01*
G75*
G02*
X110062500Y-117575000I-237500J0D01*
G01*
X109487500Y-117575000D01*
G75*
G02*
X109250000Y-117337500I0J237500D01*
G01*
G37*
G36*
G01*
X118550000Y-138862500D02*
X118550000Y-139337500D01*
G75*
G02*
X118312500Y-139575000I-237500J0D01*
G01*
X117737500Y-139575000D01*
G75*
G02*
X117500000Y-139337500I0J237500D01*
G01*
X117500000Y-138862500D01*
G75*
G02*
X117737500Y-138625000I237500J0D01*
G01*
X118312500Y-138625000D01*
G75*
G02*
X118550000Y-138862500I0J-237500D01*
G01*
G37*
G36*
G01*
X120300000Y-138862500D02*
X120300000Y-139337500D01*
G75*
G02*
X120062500Y-139575000I-237500J0D01*
G01*
X119487500Y-139575000D01*
G75*
G02*
X119250000Y-139337500I0J237500D01*
G01*
X119250000Y-138862500D01*
G75*
G02*
X119487500Y-138625000I237500J0D01*
G01*
X120062500Y-138625000D01*
G75*
G02*
X120300000Y-138862500I0J-237500D01*
G01*
G37*
G36*
G01*
X118550000Y-126862500D02*
X118550000Y-127337500D01*
G75*
G02*
X118312500Y-127575000I-237500J0D01*
G01*
X117737500Y-127575000D01*
G75*
G02*
X117500000Y-127337500I0J237500D01*
G01*
X117500000Y-126862500D01*
G75*
G02*
X117737500Y-126625000I237500J0D01*
G01*
X118312500Y-126625000D01*
G75*
G02*
X118550000Y-126862500I0J-237500D01*
G01*
G37*
G36*
G01*
X120300000Y-126862500D02*
X120300000Y-127337500D01*
G75*
G02*
X120062500Y-127575000I-237500J0D01*
G01*
X119487500Y-127575000D01*
G75*
G02*
X119250000Y-127337500I0J237500D01*
G01*
X119250000Y-126862500D01*
G75*
G02*
X119487500Y-126625000I237500J0D01*
G01*
X120062500Y-126625000D01*
G75*
G02*
X120300000Y-126862500I0J-237500D01*
G01*
G37*
G36*
G01*
X118550000Y-114862500D02*
X118550000Y-115337500D01*
G75*
G02*
X118312500Y-115575000I-237500J0D01*
G01*
X117737500Y-115575000D01*
G75*
G02*
X117500000Y-115337500I0J237500D01*
G01*
X117500000Y-114862500D01*
G75*
G02*
X117737500Y-114625000I237500J0D01*
G01*
X118312500Y-114625000D01*
G75*
G02*
X118550000Y-114862500I0J-237500D01*
G01*
G37*
G36*
G01*
X120300000Y-114862500D02*
X120300000Y-115337500D01*
G75*
G02*
X120062500Y-115575000I-237500J0D01*
G01*
X119487500Y-115575000D01*
G75*
G02*
X119250000Y-115337500I0J237500D01*
G01*
X119250000Y-114862500D01*
G75*
G02*
X119487500Y-114625000I237500J0D01*
G01*
X120062500Y-114625000D01*
G75*
G02*
X120300000Y-114862500I0J-237500D01*
G01*
G37*
G36*
G01*
X118550000Y-102862500D02*
X118550000Y-103337500D01*
G75*
G02*
X118312500Y-103575000I-237500J0D01*
G01*
X117737500Y-103575000D01*
G75*
G02*
X117500000Y-103337500I0J237500D01*
G01*
X117500000Y-102862500D01*
G75*
G02*
X117737500Y-102625000I237500J0D01*
G01*
X118312500Y-102625000D01*
G75*
G02*
X118550000Y-102862500I0J-237500D01*
G01*
G37*
G36*
G01*
X120300000Y-102862500D02*
X120300000Y-103337500D01*
G75*
G02*
X120062500Y-103575000I-237500J0D01*
G01*
X119487500Y-103575000D01*
G75*
G02*
X119250000Y-103337500I0J237500D01*
G01*
X119250000Y-102862500D01*
G75*
G02*
X119487500Y-102625000I237500J0D01*
G01*
X120062500Y-102625000D01*
G75*
G02*
X120300000Y-102862500I0J-237500D01*
G01*
G37*
G36*
G01*
X108550000Y-90862500D02*
X108550000Y-91337500D01*
G75*
G02*
X108312500Y-91575000I-237500J0D01*
G01*
X107737500Y-91575000D01*
G75*
G02*
X107500000Y-91337500I0J237500D01*
G01*
X107500000Y-90862500D01*
G75*
G02*
X107737500Y-90625000I237500J0D01*
G01*
X108312500Y-90625000D01*
G75*
G02*
X108550000Y-90862500I0J-237500D01*
G01*
G37*
G36*
G01*
X110300000Y-90862500D02*
X110300000Y-91337500D01*
G75*
G02*
X110062500Y-91575000I-237500J0D01*
G01*
X109487500Y-91575000D01*
G75*
G02*
X109250000Y-91337500I0J237500D01*
G01*
X109250000Y-90862500D01*
G75*
G02*
X109487500Y-90625000I237500J0D01*
G01*
X110062500Y-90625000D01*
G75*
G02*
X110300000Y-90862500I0J-237500D01*
G01*
G37*
G36*
G01*
X117500000Y-141337500D02*
X117500000Y-140862500D01*
G75*
G02*
X117737500Y-140625000I237500J0D01*
G01*
X118312500Y-140625000D01*
G75*
G02*
X118550000Y-140862500I0J-237500D01*
G01*
X118550000Y-141337500D01*
G75*
G02*
X118312500Y-141575000I-237500J0D01*
G01*
X117737500Y-141575000D01*
G75*
G02*
X117500000Y-141337500I0J237500D01*
G01*
G37*
G36*
G01*
X119250000Y-141337500D02*
X119250000Y-140862500D01*
G75*
G02*
X119487500Y-140625000I237500J0D01*
G01*
X120062500Y-140625000D01*
G75*
G02*
X120300000Y-140862500I0J-237500D01*
G01*
X120300000Y-141337500D01*
G75*
G02*
X120062500Y-141575000I-237500J0D01*
G01*
X119487500Y-141575000D01*
G75*
G02*
X119250000Y-141337500I0J237500D01*
G01*
G37*
G36*
G01*
X117500000Y-129337500D02*
X117500000Y-128862500D01*
G75*
G02*
X117737500Y-128625000I237500J0D01*
G01*
X118312500Y-128625000D01*
G75*
G02*
X118550000Y-128862500I0J-237500D01*
G01*
X118550000Y-129337500D01*
G75*
G02*
X118312500Y-129575000I-237500J0D01*
G01*
X117737500Y-129575000D01*
G75*
G02*
X117500000Y-129337500I0J237500D01*
G01*
G37*
G36*
G01*
X119250000Y-129337500D02*
X119250000Y-128862500D01*
G75*
G02*
X119487500Y-128625000I237500J0D01*
G01*
X120062500Y-128625000D01*
G75*
G02*
X120300000Y-128862500I0J-237500D01*
G01*
X120300000Y-129337500D01*
G75*
G02*
X120062500Y-129575000I-237500J0D01*
G01*
X119487500Y-129575000D01*
G75*
G02*
X119250000Y-129337500I0J237500D01*
G01*
G37*
G36*
G01*
X117500000Y-117337500D02*
X117500000Y-116862500D01*
G75*
G02*
X117737500Y-116625000I237500J0D01*
G01*
X118312500Y-116625000D01*
G75*
G02*
X118550000Y-116862500I0J-237500D01*
G01*
X118550000Y-117337500D01*
G75*
G02*
X118312500Y-117575000I-237500J0D01*
G01*
X117737500Y-117575000D01*
G75*
G02*
X117500000Y-117337500I0J237500D01*
G01*
G37*
G36*
G01*
X119250000Y-117337500D02*
X119250000Y-116862500D01*
G75*
G02*
X119487500Y-116625000I237500J0D01*
G01*
X120062500Y-116625000D01*
G75*
G02*
X120300000Y-116862500I0J-237500D01*
G01*
X120300000Y-117337500D01*
G75*
G02*
X120062500Y-117575000I-237500J0D01*
G01*
X119487500Y-117575000D01*
G75*
G02*
X119250000Y-117337500I0J237500D01*
G01*
G37*
G36*
G01*
X117500000Y-105337500D02*
X117500000Y-104862500D01*
G75*
G02*
X117737500Y-104625000I237500J0D01*
G01*
X118312500Y-104625000D01*
G75*
G02*
X118550000Y-104862500I0J-237500D01*
G01*
X118550000Y-105337500D01*
G75*
G02*
X118312500Y-105575000I-237500J0D01*
G01*
X117737500Y-105575000D01*
G75*
G02*
X117500000Y-105337500I0J237500D01*
G01*
G37*
G36*
G01*
X119250000Y-105337500D02*
X119250000Y-104862500D01*
G75*
G02*
X119487500Y-104625000I237500J0D01*
G01*
X120062500Y-104625000D01*
G75*
G02*
X120300000Y-104862500I0J-237500D01*
G01*
X120300000Y-105337500D01*
G75*
G02*
X120062500Y-105575000I-237500J0D01*
G01*
X119487500Y-105575000D01*
G75*
G02*
X119250000Y-105337500I0J237500D01*
G01*
G37*
G36*
G01*
X107500000Y-93337500D02*
X107500000Y-92862500D01*
G75*
G02*
X107737500Y-92625000I237500J0D01*
G01*
X108312500Y-92625000D01*
G75*
G02*
X108550000Y-92862500I0J-237500D01*
G01*
X108550000Y-93337500D01*
G75*
G02*
X108312500Y-93575000I-237500J0D01*
G01*
X107737500Y-93575000D01*
G75*
G02*
X107500000Y-93337500I0J237500D01*
G01*
G37*
G36*
G01*
X109250000Y-93337500D02*
X109250000Y-92862500D01*
G75*
G02*
X109487500Y-92625000I237500J0D01*
G01*
X110062500Y-92625000D01*
G75*
G02*
X110300000Y-92862500I0J-237500D01*
G01*
X110300000Y-93337500D01*
G75*
G02*
X110062500Y-93575000I-237500J0D01*
G01*
X109487500Y-93575000D01*
G75*
G02*
X109250000Y-93337500I0J237500D01*
G01*
G37*
G36*
G01*
X79250000Y-103337500D02*
X79250000Y-102862500D01*
G75*
G02*
X79487500Y-102625000I237500J0D01*
G01*
X80062500Y-102625000D01*
G75*
G02*
X80300000Y-102862500I0J-237500D01*
G01*
X80300000Y-103337500D01*
G75*
G02*
X80062500Y-103575000I-237500J0D01*
G01*
X79487500Y-103575000D01*
G75*
G02*
X79250000Y-103337500I0J237500D01*
G01*
G37*
G36*
G01*
X77500000Y-103337500D02*
X77500000Y-102862500D01*
G75*
G02*
X77737500Y-102625000I237500J0D01*
G01*
X78312500Y-102625000D01*
G75*
G02*
X78550000Y-102862500I0J-237500D01*
G01*
X78550000Y-103337500D01*
G75*
G02*
X78312500Y-103575000I-237500J0D01*
G01*
X77737500Y-103575000D01*
G75*
G02*
X77500000Y-103337500I0J237500D01*
G01*
G37*
G36*
G01*
X87500000Y-103337500D02*
X87500000Y-102862500D01*
G75*
G02*
X87737500Y-102625000I237500J0D01*
G01*
X88312500Y-102625000D01*
G75*
G02*
X88550000Y-102862500I0J-237500D01*
G01*
X88550000Y-103337500D01*
G75*
G02*
X88312500Y-103575000I-237500J0D01*
G01*
X87737500Y-103575000D01*
G75*
G02*
X87500000Y-103337500I0J237500D01*
G01*
G37*
G36*
G01*
X89250000Y-103337500D02*
X89250000Y-102862500D01*
G75*
G02*
X89487500Y-102625000I237500J0D01*
G01*
X90062500Y-102625000D01*
G75*
G02*
X90300000Y-102862500I0J-237500D01*
G01*
X90300000Y-103337500D01*
G75*
G02*
X90062500Y-103575000I-237500J0D01*
G01*
X89487500Y-103575000D01*
G75*
G02*
X89250000Y-103337500I0J237500D01*
G01*
G37*
G36*
G01*
X97500000Y-103337500D02*
X97500000Y-102862500D01*
G75*
G02*
X97737500Y-102625000I237500J0D01*
G01*
X98312500Y-102625000D01*
G75*
G02*
X98550000Y-102862500I0J-237500D01*
G01*
X98550000Y-103337500D01*
G75*
G02*
X98312500Y-103575000I-237500J0D01*
G01*
X97737500Y-103575000D01*
G75*
G02*
X97500000Y-103337500I0J237500D01*
G01*
G37*
G36*
G01*
X99250000Y-103337500D02*
X99250000Y-102862500D01*
G75*
G02*
X99487500Y-102625000I237500J0D01*
G01*
X100062500Y-102625000D01*
G75*
G02*
X100300000Y-102862500I0J-237500D01*
G01*
X100300000Y-103337500D01*
G75*
G02*
X100062500Y-103575000I-237500J0D01*
G01*
X99487500Y-103575000D01*
G75*
G02*
X99250000Y-103337500I0J237500D01*
G01*
G37*
G36*
G01*
X110300000Y-102862500D02*
X110300000Y-103337500D01*
G75*
G02*
X110062500Y-103575000I-237500J0D01*
G01*
X109487500Y-103575000D01*
G75*
G02*
X109250000Y-103337500I0J237500D01*
G01*
X109250000Y-102862500D01*
G75*
G02*
X109487500Y-102625000I237500J0D01*
G01*
X110062500Y-102625000D01*
G75*
G02*
X110300000Y-102862500I0J-237500D01*
G01*
G37*
G36*
G01*
X108550000Y-102862500D02*
X108550000Y-103337500D01*
G75*
G02*
X108312500Y-103575000I-237500J0D01*
G01*
X107737500Y-103575000D01*
G75*
G02*
X107500000Y-103337500I0J237500D01*
G01*
X107500000Y-102862500D01*
G75*
G02*
X107737500Y-102625000I237500J0D01*
G01*
X108312500Y-102625000D01*
G75*
G02*
X108550000Y-102862500I0J-237500D01*
G01*
G37*
G36*
G01*
X77500000Y-91337500D02*
X77500000Y-90862500D01*
G75*
G02*
X77737500Y-90625000I237500J0D01*
G01*
X78312500Y-90625000D01*
G75*
G02*
X78550000Y-90862500I0J-237500D01*
G01*
X78550000Y-91337500D01*
G75*
G02*
X78312500Y-91575000I-237500J0D01*
G01*
X77737500Y-91575000D01*
G75*
G02*
X77500000Y-91337500I0J237500D01*
G01*
G37*
G36*
G01*
X79250000Y-91337500D02*
X79250000Y-90862500D01*
G75*
G02*
X79487500Y-90625000I237500J0D01*
G01*
X80062500Y-90625000D01*
G75*
G02*
X80300000Y-90862500I0J-237500D01*
G01*
X80300000Y-91337500D01*
G75*
G02*
X80062500Y-91575000I-237500J0D01*
G01*
X79487500Y-91575000D01*
G75*
G02*
X79250000Y-91337500I0J237500D01*
G01*
G37*
G36*
G01*
X80300000Y-104862500D02*
X80300000Y-105337500D01*
G75*
G02*
X80062500Y-105575000I-237500J0D01*
G01*
X79487500Y-105575000D01*
G75*
G02*
X79250000Y-105337500I0J237500D01*
G01*
X79250000Y-104862500D01*
G75*
G02*
X79487500Y-104625000I237500J0D01*
G01*
X80062500Y-104625000D01*
G75*
G02*
X80300000Y-104862500I0J-237500D01*
G01*
G37*
G36*
G01*
X78550000Y-104862500D02*
X78550000Y-105337500D01*
G75*
G02*
X78312500Y-105575000I-237500J0D01*
G01*
X77737500Y-105575000D01*
G75*
G02*
X77500000Y-105337500I0J237500D01*
G01*
X77500000Y-104862500D01*
G75*
G02*
X77737500Y-104625000I237500J0D01*
G01*
X78312500Y-104625000D01*
G75*
G02*
X78550000Y-104862500I0J-237500D01*
G01*
G37*
G36*
G01*
X88550000Y-104862500D02*
X88550000Y-105337500D01*
G75*
G02*
X88312500Y-105575000I-237500J0D01*
G01*
X87737500Y-105575000D01*
G75*
G02*
X87500000Y-105337500I0J237500D01*
G01*
X87500000Y-104862500D01*
G75*
G02*
X87737500Y-104625000I237500J0D01*
G01*
X88312500Y-104625000D01*
G75*
G02*
X88550000Y-104862500I0J-237500D01*
G01*
G37*
G36*
G01*
X90300000Y-104862500D02*
X90300000Y-105337500D01*
G75*
G02*
X90062500Y-105575000I-237500J0D01*
G01*
X89487500Y-105575000D01*
G75*
G02*
X89250000Y-105337500I0J237500D01*
G01*
X89250000Y-104862500D01*
G75*
G02*
X89487500Y-104625000I237500J0D01*
G01*
X90062500Y-104625000D01*
G75*
G02*
X90300000Y-104862500I0J-237500D01*
G01*
G37*
G36*
G01*
X98550000Y-104862500D02*
X98550000Y-105337500D01*
G75*
G02*
X98312500Y-105575000I-237500J0D01*
G01*
X97737500Y-105575000D01*
G75*
G02*
X97500000Y-105337500I0J237500D01*
G01*
X97500000Y-104862500D01*
G75*
G02*
X97737500Y-104625000I237500J0D01*
G01*
X98312500Y-104625000D01*
G75*
G02*
X98550000Y-104862500I0J-237500D01*
G01*
G37*
G36*
G01*
X100300000Y-104862500D02*
X100300000Y-105337500D01*
G75*
G02*
X100062500Y-105575000I-237500J0D01*
G01*
X99487500Y-105575000D01*
G75*
G02*
X99250000Y-105337500I0J237500D01*
G01*
X99250000Y-104862500D01*
G75*
G02*
X99487500Y-104625000I237500J0D01*
G01*
X100062500Y-104625000D01*
G75*
G02*
X100300000Y-104862500I0J-237500D01*
G01*
G37*
G36*
G01*
X109250000Y-105337500D02*
X109250000Y-104862500D01*
G75*
G02*
X109487500Y-104625000I237500J0D01*
G01*
X110062500Y-104625000D01*
G75*
G02*
X110300000Y-104862500I0J-237500D01*
G01*
X110300000Y-105337500D01*
G75*
G02*
X110062500Y-105575000I-237500J0D01*
G01*
X109487500Y-105575000D01*
G75*
G02*
X109250000Y-105337500I0J237500D01*
G01*
G37*
G36*
G01*
X107500000Y-105337500D02*
X107500000Y-104862500D01*
G75*
G02*
X107737500Y-104625000I237500J0D01*
G01*
X108312500Y-104625000D01*
G75*
G02*
X108550000Y-104862500I0J-237500D01*
G01*
X108550000Y-105337500D01*
G75*
G02*
X108312500Y-105575000I-237500J0D01*
G01*
X107737500Y-105575000D01*
G75*
G02*
X107500000Y-105337500I0J237500D01*
G01*
G37*
G36*
G01*
X78550000Y-92862500D02*
X78550000Y-93337500D01*
G75*
G02*
X78312500Y-93575000I-237500J0D01*
G01*
X77737500Y-93575000D01*
G75*
G02*
X77500000Y-93337500I0J237500D01*
G01*
X77500000Y-92862500D01*
G75*
G02*
X77737500Y-92625000I237500J0D01*
G01*
X78312500Y-92625000D01*
G75*
G02*
X78550000Y-92862500I0J-237500D01*
G01*
G37*
G36*
G01*
X80300000Y-92862500D02*
X80300000Y-93337500D01*
G75*
G02*
X80062500Y-93575000I-237500J0D01*
G01*
X79487500Y-93575000D01*
G75*
G02*
X79250000Y-93337500I0J237500D01*
G01*
X79250000Y-92862500D01*
G75*
G02*
X79487500Y-92625000I237500J0D01*
G01*
X80062500Y-92625000D01*
G75*
G02*
X80300000Y-92862500I0J-237500D01*
G01*
G37*
G36*
G01*
X87500000Y-91337500D02*
X87500000Y-90862500D01*
G75*
G02*
X87737500Y-90625000I237500J0D01*
G01*
X88312500Y-90625000D01*
G75*
G02*
X88550000Y-90862500I0J-237500D01*
G01*
X88550000Y-91337500D01*
G75*
G02*
X88312500Y-91575000I-237500J0D01*
G01*
X87737500Y-91575000D01*
G75*
G02*
X87500000Y-91337500I0J237500D01*
G01*
G37*
G36*
G01*
X89250000Y-91337500D02*
X89250000Y-90862500D01*
G75*
G02*
X89487500Y-90625000I237500J0D01*
G01*
X90062500Y-90625000D01*
G75*
G02*
X90300000Y-90862500I0J-237500D01*
G01*
X90300000Y-91337500D01*
G75*
G02*
X90062500Y-91575000I-237500J0D01*
G01*
X89487500Y-91575000D01*
G75*
G02*
X89250000Y-91337500I0J237500D01*
G01*
G37*
G36*
G01*
X97500000Y-91337500D02*
X97500000Y-90862500D01*
G75*
G02*
X97737500Y-90625000I237500J0D01*
G01*
X98312500Y-90625000D01*
G75*
G02*
X98550000Y-90862500I0J-237500D01*
G01*
X98550000Y-91337500D01*
G75*
G02*
X98312500Y-91575000I-237500J0D01*
G01*
X97737500Y-91575000D01*
G75*
G02*
X97500000Y-91337500I0J237500D01*
G01*
G37*
G36*
G01*
X99250000Y-91337500D02*
X99250000Y-90862500D01*
G75*
G02*
X99487500Y-90625000I237500J0D01*
G01*
X100062500Y-90625000D01*
G75*
G02*
X100300000Y-90862500I0J-237500D01*
G01*
X100300000Y-91337500D01*
G75*
G02*
X100062500Y-91575000I-237500J0D01*
G01*
X99487500Y-91575000D01*
G75*
G02*
X99250000Y-91337500I0J237500D01*
G01*
G37*
G36*
G01*
X120300000Y-150862500D02*
X120300000Y-151337500D01*
G75*
G02*
X120062500Y-151575000I-237500J0D01*
G01*
X119487500Y-151575000D01*
G75*
G02*
X119250000Y-151337500I0J237500D01*
G01*
X119250000Y-150862500D01*
G75*
G02*
X119487500Y-150625000I237500J0D01*
G01*
X120062500Y-150625000D01*
G75*
G02*
X120300000Y-150862500I0J-237500D01*
G01*
G37*
G36*
G01*
X118550000Y-150862500D02*
X118550000Y-151337500D01*
G75*
G02*
X118312500Y-151575000I-237500J0D01*
G01*
X117737500Y-151575000D01*
G75*
G02*
X117500000Y-151337500I0J237500D01*
G01*
X117500000Y-150862500D01*
G75*
G02*
X117737500Y-150625000I237500J0D01*
G01*
X118312500Y-150625000D01*
G75*
G02*
X118550000Y-150862500I0J-237500D01*
G01*
G37*
G36*
G01*
X120300000Y-90862500D02*
X120300000Y-91337500D01*
G75*
G02*
X120062500Y-91575000I-237500J0D01*
G01*
X119487500Y-91575000D01*
G75*
G02*
X119250000Y-91337500I0J237500D01*
G01*
X119250000Y-90862500D01*
G75*
G02*
X119487500Y-90625000I237500J0D01*
G01*
X120062500Y-90625000D01*
G75*
G02*
X120300000Y-90862500I0J-237500D01*
G01*
G37*
G36*
G01*
X118550000Y-90862500D02*
X118550000Y-91337500D01*
G75*
G02*
X118312500Y-91575000I-237500J0D01*
G01*
X117737500Y-91575000D01*
G75*
G02*
X117500000Y-91337500I0J237500D01*
G01*
X117500000Y-90862500D01*
G75*
G02*
X117737500Y-90625000I237500J0D01*
G01*
X118312500Y-90625000D01*
G75*
G02*
X118550000Y-90862500I0J-237500D01*
G01*
G37*
G36*
G01*
X100300000Y-150862500D02*
X100300000Y-151337500D01*
G75*
G02*
X100062500Y-151575000I-237500J0D01*
G01*
X99487500Y-151575000D01*
G75*
G02*
X99250000Y-151337500I0J237500D01*
G01*
X99250000Y-150862500D01*
G75*
G02*
X99487500Y-150625000I237500J0D01*
G01*
X100062500Y-150625000D01*
G75*
G02*
X100300000Y-150862500I0J-237500D01*
G01*
G37*
G36*
G01*
X98550000Y-150862500D02*
X98550000Y-151337500D01*
G75*
G02*
X98312500Y-151575000I-237500J0D01*
G01*
X97737500Y-151575000D01*
G75*
G02*
X97500000Y-151337500I0J237500D01*
G01*
X97500000Y-150862500D01*
G75*
G02*
X97737500Y-150625000I237500J0D01*
G01*
X98312500Y-150625000D01*
G75*
G02*
X98550000Y-150862500I0J-237500D01*
G01*
G37*
G36*
G01*
X88550000Y-92862500D02*
X88550000Y-93337500D01*
G75*
G02*
X88312500Y-93575000I-237500J0D01*
G01*
X87737500Y-93575000D01*
G75*
G02*
X87500000Y-93337500I0J237500D01*
G01*
X87500000Y-92862500D01*
G75*
G02*
X87737500Y-92625000I237500J0D01*
G01*
X88312500Y-92625000D01*
G75*
G02*
X88550000Y-92862500I0J-237500D01*
G01*
G37*
G36*
G01*
X90300000Y-92862500D02*
X90300000Y-93337500D01*
G75*
G02*
X90062500Y-93575000I-237500J0D01*
G01*
X89487500Y-93575000D01*
G75*
G02*
X89250000Y-93337500I0J237500D01*
G01*
X89250000Y-92862500D01*
G75*
G02*
X89487500Y-92625000I237500J0D01*
G01*
X90062500Y-92625000D01*
G75*
G02*
X90300000Y-92862500I0J-237500D01*
G01*
G37*
G36*
G01*
X98550000Y-92862500D02*
X98550000Y-93337500D01*
G75*
G02*
X98312500Y-93575000I-237500J0D01*
G01*
X97737500Y-93575000D01*
G75*
G02*
X97500000Y-93337500I0J237500D01*
G01*
X97500000Y-92862500D01*
G75*
G02*
X97737500Y-92625000I237500J0D01*
G01*
X98312500Y-92625000D01*
G75*
G02*
X98550000Y-92862500I0J-237500D01*
G01*
G37*
G36*
G01*
X100300000Y-92862500D02*
X100300000Y-93337500D01*
G75*
G02*
X100062500Y-93575000I-237500J0D01*
G01*
X99487500Y-93575000D01*
G75*
G02*
X99250000Y-93337500I0J237500D01*
G01*
X99250000Y-92862500D01*
G75*
G02*
X99487500Y-92625000I237500J0D01*
G01*
X100062500Y-92625000D01*
G75*
G02*
X100300000Y-92862500I0J-237500D01*
G01*
G37*
G36*
G01*
X119250000Y-153337500D02*
X119250000Y-152862500D01*
G75*
G02*
X119487500Y-152625000I237500J0D01*
G01*
X120062500Y-152625000D01*
G75*
G02*
X120300000Y-152862500I0J-237500D01*
G01*
X120300000Y-153337500D01*
G75*
G02*
X120062500Y-153575000I-237500J0D01*
G01*
X119487500Y-153575000D01*
G75*
G02*
X119250000Y-153337500I0J237500D01*
G01*
G37*
G36*
G01*
X117500000Y-153337500D02*
X117500000Y-152862500D01*
G75*
G02*
X117737500Y-152625000I237500J0D01*
G01*
X118312500Y-152625000D01*
G75*
G02*
X118550000Y-152862500I0J-237500D01*
G01*
X118550000Y-153337500D01*
G75*
G02*
X118312500Y-153575000I-237500J0D01*
G01*
X117737500Y-153575000D01*
G75*
G02*
X117500000Y-153337500I0J237500D01*
G01*
G37*
G36*
G01*
X119250000Y-93337500D02*
X119250000Y-92862500D01*
G75*
G02*
X119487500Y-92625000I237500J0D01*
G01*
X120062500Y-92625000D01*
G75*
G02*
X120300000Y-92862500I0J-237500D01*
G01*
X120300000Y-93337500D01*
G75*
G02*
X120062500Y-93575000I-237500J0D01*
G01*
X119487500Y-93575000D01*
G75*
G02*
X119250000Y-93337500I0J237500D01*
G01*
G37*
G36*
G01*
X117500000Y-93337500D02*
X117500000Y-92862500D01*
G75*
G02*
X117737500Y-92625000I237500J0D01*
G01*
X118312500Y-92625000D01*
G75*
G02*
X118550000Y-92862500I0J-237500D01*
G01*
X118550000Y-93337500D01*
G75*
G02*
X118312500Y-93575000I-237500J0D01*
G01*
X117737500Y-93575000D01*
G75*
G02*
X117500000Y-93337500I0J237500D01*
G01*
G37*
G36*
G01*
X99250000Y-153337500D02*
X99250000Y-152862500D01*
G75*
G02*
X99487500Y-152625000I237500J0D01*
G01*
X100062500Y-152625000D01*
G75*
G02*
X100300000Y-152862500I0J-237500D01*
G01*
X100300000Y-153337500D01*
G75*
G02*
X100062500Y-153575000I-237500J0D01*
G01*
X99487500Y-153575000D01*
G75*
G02*
X99250000Y-153337500I0J237500D01*
G01*
G37*
G36*
G01*
X97500000Y-153337500D02*
X97500000Y-152862500D01*
G75*
G02*
X97737500Y-152625000I237500J0D01*
G01*
X98312500Y-152625000D01*
G75*
G02*
X98550000Y-152862500I0J-237500D01*
G01*
X98550000Y-153337500D01*
G75*
G02*
X98312500Y-153575000I-237500J0D01*
G01*
X97737500Y-153575000D01*
G75*
G02*
X97500000Y-153337500I0J237500D01*
G01*
G37*
G36*
G01*
X110300000Y-150862500D02*
X110300000Y-151337500D01*
G75*
G02*
X110062500Y-151575000I-237500J0D01*
G01*
X109487500Y-151575000D01*
G75*
G02*
X109250000Y-151337500I0J237500D01*
G01*
X109250000Y-150862500D01*
G75*
G02*
X109487500Y-150625000I237500J0D01*
G01*
X110062500Y-150625000D01*
G75*
G02*
X110300000Y-150862500I0J-237500D01*
G01*
G37*
G36*
G01*
X108550000Y-150862500D02*
X108550000Y-151337500D01*
G75*
G02*
X108312500Y-151575000I-237500J0D01*
G01*
X107737500Y-151575000D01*
G75*
G02*
X107500000Y-151337500I0J237500D01*
G01*
X107500000Y-150862500D01*
G75*
G02*
X107737500Y-150625000I237500J0D01*
G01*
X108312500Y-150625000D01*
G75*
G02*
X108550000Y-150862500I0J-237500D01*
G01*
G37*
G36*
G01*
X77500000Y-115337500D02*
X77500000Y-114862500D01*
G75*
G02*
X77737500Y-114625000I237500J0D01*
G01*
X78312500Y-114625000D01*
G75*
G02*
X78550000Y-114862500I0J-237500D01*
G01*
X78550000Y-115337500D01*
G75*
G02*
X78312500Y-115575000I-237500J0D01*
G01*
X77737500Y-115575000D01*
G75*
G02*
X77500000Y-115337500I0J237500D01*
G01*
G37*
G36*
G01*
X79250000Y-115337500D02*
X79250000Y-114862500D01*
G75*
G02*
X79487500Y-114625000I237500J0D01*
G01*
X80062500Y-114625000D01*
G75*
G02*
X80300000Y-114862500I0J-237500D01*
G01*
X80300000Y-115337500D01*
G75*
G02*
X80062500Y-115575000I-237500J0D01*
G01*
X79487500Y-115575000D01*
G75*
G02*
X79250000Y-115337500I0J237500D01*
G01*
G37*
G36*
G01*
X77500000Y-127337500D02*
X77500000Y-126862500D01*
G75*
G02*
X77737500Y-126625000I237500J0D01*
G01*
X78312500Y-126625000D01*
G75*
G02*
X78550000Y-126862500I0J-237500D01*
G01*
X78550000Y-127337500D01*
G75*
G02*
X78312500Y-127575000I-237500J0D01*
G01*
X77737500Y-127575000D01*
G75*
G02*
X77500000Y-127337500I0J237500D01*
G01*
G37*
G36*
G01*
X79250000Y-127337500D02*
X79250000Y-126862500D01*
G75*
G02*
X79487500Y-126625000I237500J0D01*
G01*
X80062500Y-126625000D01*
G75*
G02*
X80300000Y-126862500I0J-237500D01*
G01*
X80300000Y-127337500D01*
G75*
G02*
X80062500Y-127575000I-237500J0D01*
G01*
X79487500Y-127575000D01*
G75*
G02*
X79250000Y-127337500I0J237500D01*
G01*
G37*
G36*
G01*
X79250000Y-139337500D02*
X79250000Y-138862500D01*
G75*
G02*
X79487500Y-138625000I237500J0D01*
G01*
X80062500Y-138625000D01*
G75*
G02*
X80300000Y-138862500I0J-237500D01*
G01*
X80300000Y-139337500D01*
G75*
G02*
X80062500Y-139575000I-237500J0D01*
G01*
X79487500Y-139575000D01*
G75*
G02*
X79250000Y-139337500I0J237500D01*
G01*
G37*
G36*
G01*
X77500000Y-139337500D02*
X77500000Y-138862500D01*
G75*
G02*
X77737500Y-138625000I237500J0D01*
G01*
X78312500Y-138625000D01*
G75*
G02*
X78550000Y-138862500I0J-237500D01*
G01*
X78550000Y-139337500D01*
G75*
G02*
X78312500Y-139575000I-237500J0D01*
G01*
X77737500Y-139575000D01*
G75*
G02*
X77500000Y-139337500I0J237500D01*
G01*
G37*
G36*
G01*
X79250000Y-151337500D02*
X79250000Y-150862500D01*
G75*
G02*
X79487500Y-150625000I237500J0D01*
G01*
X80062500Y-150625000D01*
G75*
G02*
X80300000Y-150862500I0J-237500D01*
G01*
X80300000Y-151337500D01*
G75*
G02*
X80062500Y-151575000I-237500J0D01*
G01*
X79487500Y-151575000D01*
G75*
G02*
X79250000Y-151337500I0J237500D01*
G01*
G37*
G36*
G01*
X77500000Y-151337500D02*
X77500000Y-150862500D01*
G75*
G02*
X77737500Y-150625000I237500J0D01*
G01*
X78312500Y-150625000D01*
G75*
G02*
X78550000Y-150862500I0J-237500D01*
G01*
X78550000Y-151337500D01*
G75*
G02*
X78312500Y-151575000I-237500J0D01*
G01*
X77737500Y-151575000D01*
G75*
G02*
X77500000Y-151337500I0J237500D01*
G01*
G37*
G36*
G01*
X109250000Y-153337500D02*
X109250000Y-152862500D01*
G75*
G02*
X109487500Y-152625000I237500J0D01*
G01*
X110062500Y-152625000D01*
G75*
G02*
X110300000Y-152862500I0J-237500D01*
G01*
X110300000Y-153337500D01*
G75*
G02*
X110062500Y-153575000I-237500J0D01*
G01*
X109487500Y-153575000D01*
G75*
G02*
X109250000Y-153337500I0J237500D01*
G01*
G37*
G36*
G01*
X107500000Y-153337500D02*
X107500000Y-152862500D01*
G75*
G02*
X107737500Y-152625000I237500J0D01*
G01*
X108312500Y-152625000D01*
G75*
G02*
X108550000Y-152862500I0J-237500D01*
G01*
X108550000Y-153337500D01*
G75*
G02*
X108312500Y-153575000I-237500J0D01*
G01*
X107737500Y-153575000D01*
G75*
G02*
X107500000Y-153337500I0J237500D01*
G01*
G37*
G36*
G01*
X78550000Y-116862500D02*
X78550000Y-117337500D01*
G75*
G02*
X78312500Y-117575000I-237500J0D01*
G01*
X77737500Y-117575000D01*
G75*
G02*
X77500000Y-117337500I0J237500D01*
G01*
X77500000Y-116862500D01*
G75*
G02*
X77737500Y-116625000I237500J0D01*
G01*
X78312500Y-116625000D01*
G75*
G02*
X78550000Y-116862500I0J-237500D01*
G01*
G37*
G36*
G01*
X80300000Y-116862500D02*
X80300000Y-117337500D01*
G75*
G02*
X80062500Y-117575000I-237500J0D01*
G01*
X79487500Y-117575000D01*
G75*
G02*
X79250000Y-117337500I0J237500D01*
G01*
X79250000Y-116862500D01*
G75*
G02*
X79487500Y-116625000I237500J0D01*
G01*
X80062500Y-116625000D01*
G75*
G02*
X80300000Y-116862500I0J-237500D01*
G01*
G37*
G36*
G01*
X78550000Y-128862500D02*
X78550000Y-129337500D01*
G75*
G02*
X78312500Y-129575000I-237500J0D01*
G01*
X77737500Y-129575000D01*
G75*
G02*
X77500000Y-129337500I0J237500D01*
G01*
X77500000Y-128862500D01*
G75*
G02*
X77737500Y-128625000I237500J0D01*
G01*
X78312500Y-128625000D01*
G75*
G02*
X78550000Y-128862500I0J-237500D01*
G01*
G37*
G36*
G01*
X80300000Y-128862500D02*
X80300000Y-129337500D01*
G75*
G02*
X80062500Y-129575000I-237500J0D01*
G01*
X79487500Y-129575000D01*
G75*
G02*
X79250000Y-129337500I0J237500D01*
G01*
X79250000Y-128862500D01*
G75*
G02*
X79487500Y-128625000I237500J0D01*
G01*
X80062500Y-128625000D01*
G75*
G02*
X80300000Y-128862500I0J-237500D01*
G01*
G37*
G36*
G01*
X80300000Y-140862500D02*
X80300000Y-141337500D01*
G75*
G02*
X80062500Y-141575000I-237500J0D01*
G01*
X79487500Y-141575000D01*
G75*
G02*
X79250000Y-141337500I0J237500D01*
G01*
X79250000Y-140862500D01*
G75*
G02*
X79487500Y-140625000I237500J0D01*
G01*
X80062500Y-140625000D01*
G75*
G02*
X80300000Y-140862500I0J-237500D01*
G01*
G37*
G36*
G01*
X78550000Y-140862500D02*
X78550000Y-141337500D01*
G75*
G02*
X78312500Y-141575000I-237500J0D01*
G01*
X77737500Y-141575000D01*
G75*
G02*
X77500000Y-141337500I0J237500D01*
G01*
X77500000Y-140862500D01*
G75*
G02*
X77737500Y-140625000I237500J0D01*
G01*
X78312500Y-140625000D01*
G75*
G02*
X78550000Y-140862500I0J-237500D01*
G01*
G37*
G36*
G01*
X80300000Y-152862500D02*
X80300000Y-153337500D01*
G75*
G02*
X80062500Y-153575000I-237500J0D01*
G01*
X79487500Y-153575000D01*
G75*
G02*
X79250000Y-153337500I0J237500D01*
G01*
X79250000Y-152862500D01*
G75*
G02*
X79487500Y-152625000I237500J0D01*
G01*
X80062500Y-152625000D01*
G75*
G02*
X80300000Y-152862500I0J-237500D01*
G01*
G37*
G36*
G01*
X78550000Y-152862500D02*
X78550000Y-153337500D01*
G75*
G02*
X78312500Y-153575000I-237500J0D01*
G01*
X77737500Y-153575000D01*
G75*
G02*
X77500000Y-153337500I0J237500D01*
G01*
X77500000Y-152862500D01*
G75*
G02*
X77737500Y-152625000I237500J0D01*
G01*
X78312500Y-152625000D01*
G75*
G02*
X78550000Y-152862500I0J-237500D01*
G01*
G37*
M02*
