G04 #@! TF.GenerationSoftware,KiCad,Pcbnew,5.1.6-c6e7f7d~87~ubuntu18.04.1*
G04 #@! TF.CreationDate,2021-01-10T20:40:06-05:00*
G04 #@! TF.ProjectId,dicecalc,64696365-6361-46c6-932e-6b696361645f,rev?*
G04 #@! TF.SameCoordinates,Original*
G04 #@! TF.FileFunction,Soldermask,Bot*
G04 #@! TF.FilePolarity,Negative*
%FSLAX46Y46*%
G04 Gerber Fmt 4.6, Leading zero omitted, Abs format (unit mm)*
G04 Created by KiCad (PCBNEW 5.1.6-c6e7f7d~87~ubuntu18.04.1) date 2021-01-10 20:40:06*
%MOMM*%
%LPD*%
G01*
G04 APERTURE LIST*
%ADD10R,1.800000X1.800000*%
%ADD11O,1.800000X1.800000*%
G04 APERTURE END LIST*
G36*
G01*
X89200000Y-155362500D02*
X89200000Y-154837500D01*
G75*
G02*
X89462500Y-154575000I262500J0D01*
G01*
X90087500Y-154575000D01*
G75*
G02*
X90350000Y-154837500I0J-262500D01*
G01*
X90350000Y-155362500D01*
G75*
G02*
X90087500Y-155625000I-262500J0D01*
G01*
X89462500Y-155625000D01*
G75*
G02*
X89200000Y-155362500I0J262500D01*
G01*
G37*
G36*
G01*
X87450000Y-155362500D02*
X87450000Y-154837500D01*
G75*
G02*
X87712500Y-154575000I262500J0D01*
G01*
X88337500Y-154575000D01*
G75*
G02*
X88600000Y-154837500I0J-262500D01*
G01*
X88600000Y-155362500D01*
G75*
G02*
X88337500Y-155625000I-262500J0D01*
G01*
X87712500Y-155625000D01*
G75*
G02*
X87450000Y-155362500I0J262500D01*
G01*
G37*
G36*
G01*
X87450000Y-143362500D02*
X87450000Y-142837500D01*
G75*
G02*
X87712500Y-142575000I262500J0D01*
G01*
X88337500Y-142575000D01*
G75*
G02*
X88600000Y-142837500I0J-262500D01*
G01*
X88600000Y-143362500D01*
G75*
G02*
X88337500Y-143625000I-262500J0D01*
G01*
X87712500Y-143625000D01*
G75*
G02*
X87450000Y-143362500I0J262500D01*
G01*
G37*
G36*
G01*
X89200000Y-143362500D02*
X89200000Y-142837500D01*
G75*
G02*
X89462500Y-142575000I262500J0D01*
G01*
X90087500Y-142575000D01*
G75*
G02*
X90350000Y-142837500I0J-262500D01*
G01*
X90350000Y-143362500D01*
G75*
G02*
X90087500Y-143625000I-262500J0D01*
G01*
X89462500Y-143625000D01*
G75*
G02*
X89200000Y-143362500I0J262500D01*
G01*
G37*
G36*
G01*
X100350000Y-142837500D02*
X100350000Y-143362500D01*
G75*
G02*
X100087500Y-143625000I-262500J0D01*
G01*
X99462500Y-143625000D01*
G75*
G02*
X99200000Y-143362500I0J262500D01*
G01*
X99200000Y-142837500D01*
G75*
G02*
X99462500Y-142575000I262500J0D01*
G01*
X100087500Y-142575000D01*
G75*
G02*
X100350000Y-142837500I0J-262500D01*
G01*
G37*
G36*
G01*
X98600000Y-142837500D02*
X98600000Y-143362500D01*
G75*
G02*
X98337500Y-143625000I-262500J0D01*
G01*
X97712500Y-143625000D01*
G75*
G02*
X97450000Y-143362500I0J262500D01*
G01*
X97450000Y-142837500D01*
G75*
G02*
X97712500Y-142575000I262500J0D01*
G01*
X98337500Y-142575000D01*
G75*
G02*
X98600000Y-142837500I0J-262500D01*
G01*
G37*
G36*
G01*
X110350000Y-142837500D02*
X110350000Y-143362500D01*
G75*
G02*
X110087500Y-143625000I-262500J0D01*
G01*
X109462500Y-143625000D01*
G75*
G02*
X109200000Y-143362500I0J262500D01*
G01*
X109200000Y-142837500D01*
G75*
G02*
X109462500Y-142575000I262500J0D01*
G01*
X110087500Y-142575000D01*
G75*
G02*
X110350000Y-142837500I0J-262500D01*
G01*
G37*
G36*
G01*
X108600000Y-142837500D02*
X108600000Y-143362500D01*
G75*
G02*
X108337500Y-143625000I-262500J0D01*
G01*
X107712500Y-143625000D01*
G75*
G02*
X107450000Y-143362500I0J262500D01*
G01*
X107450000Y-142837500D01*
G75*
G02*
X107712500Y-142575000I262500J0D01*
G01*
X108337500Y-142575000D01*
G75*
G02*
X108600000Y-142837500I0J-262500D01*
G01*
G37*
G36*
G01*
X87450000Y-131362500D02*
X87450000Y-130837500D01*
G75*
G02*
X87712500Y-130575000I262500J0D01*
G01*
X88337500Y-130575000D01*
G75*
G02*
X88600000Y-130837500I0J-262500D01*
G01*
X88600000Y-131362500D01*
G75*
G02*
X88337500Y-131625000I-262500J0D01*
G01*
X87712500Y-131625000D01*
G75*
G02*
X87450000Y-131362500I0J262500D01*
G01*
G37*
G36*
G01*
X89200000Y-131362500D02*
X89200000Y-130837500D01*
G75*
G02*
X89462500Y-130575000I262500J0D01*
G01*
X90087500Y-130575000D01*
G75*
G02*
X90350000Y-130837500I0J-262500D01*
G01*
X90350000Y-131362500D01*
G75*
G02*
X90087500Y-131625000I-262500J0D01*
G01*
X89462500Y-131625000D01*
G75*
G02*
X89200000Y-131362500I0J262500D01*
G01*
G37*
G36*
G01*
X100350000Y-130837500D02*
X100350000Y-131362500D01*
G75*
G02*
X100087500Y-131625000I-262500J0D01*
G01*
X99462500Y-131625000D01*
G75*
G02*
X99200000Y-131362500I0J262500D01*
G01*
X99200000Y-130837500D01*
G75*
G02*
X99462500Y-130575000I262500J0D01*
G01*
X100087500Y-130575000D01*
G75*
G02*
X100350000Y-130837500I0J-262500D01*
G01*
G37*
G36*
G01*
X98600000Y-130837500D02*
X98600000Y-131362500D01*
G75*
G02*
X98337500Y-131625000I-262500J0D01*
G01*
X97712500Y-131625000D01*
G75*
G02*
X97450000Y-131362500I0J262500D01*
G01*
X97450000Y-130837500D01*
G75*
G02*
X97712500Y-130575000I262500J0D01*
G01*
X98337500Y-130575000D01*
G75*
G02*
X98600000Y-130837500I0J-262500D01*
G01*
G37*
G36*
G01*
X110350000Y-130837500D02*
X110350000Y-131362500D01*
G75*
G02*
X110087500Y-131625000I-262500J0D01*
G01*
X109462500Y-131625000D01*
G75*
G02*
X109200000Y-131362500I0J262500D01*
G01*
X109200000Y-130837500D01*
G75*
G02*
X109462500Y-130575000I262500J0D01*
G01*
X110087500Y-130575000D01*
G75*
G02*
X110350000Y-130837500I0J-262500D01*
G01*
G37*
G36*
G01*
X108600000Y-130837500D02*
X108600000Y-131362500D01*
G75*
G02*
X108337500Y-131625000I-262500J0D01*
G01*
X107712500Y-131625000D01*
G75*
G02*
X107450000Y-131362500I0J262500D01*
G01*
X107450000Y-130837500D01*
G75*
G02*
X107712500Y-130575000I262500J0D01*
G01*
X108337500Y-130575000D01*
G75*
G02*
X108600000Y-130837500I0J-262500D01*
G01*
G37*
G36*
G01*
X87450000Y-119362500D02*
X87450000Y-118837500D01*
G75*
G02*
X87712500Y-118575000I262500J0D01*
G01*
X88337500Y-118575000D01*
G75*
G02*
X88600000Y-118837500I0J-262500D01*
G01*
X88600000Y-119362500D01*
G75*
G02*
X88337500Y-119625000I-262500J0D01*
G01*
X87712500Y-119625000D01*
G75*
G02*
X87450000Y-119362500I0J262500D01*
G01*
G37*
G36*
G01*
X89200000Y-119362500D02*
X89200000Y-118837500D01*
G75*
G02*
X89462500Y-118575000I262500J0D01*
G01*
X90087500Y-118575000D01*
G75*
G02*
X90350000Y-118837500I0J-262500D01*
G01*
X90350000Y-119362500D01*
G75*
G02*
X90087500Y-119625000I-262500J0D01*
G01*
X89462500Y-119625000D01*
G75*
G02*
X89200000Y-119362500I0J262500D01*
G01*
G37*
G36*
G01*
X99200000Y-119362500D02*
X99200000Y-118837500D01*
G75*
G02*
X99462500Y-118575000I262500J0D01*
G01*
X100087500Y-118575000D01*
G75*
G02*
X100350000Y-118837500I0J-262500D01*
G01*
X100350000Y-119362500D01*
G75*
G02*
X100087500Y-119625000I-262500J0D01*
G01*
X99462500Y-119625000D01*
G75*
G02*
X99200000Y-119362500I0J262500D01*
G01*
G37*
G36*
G01*
X97450000Y-119362500D02*
X97450000Y-118837500D01*
G75*
G02*
X97712500Y-118575000I262500J0D01*
G01*
X98337500Y-118575000D01*
G75*
G02*
X98600000Y-118837500I0J-262500D01*
G01*
X98600000Y-119362500D01*
G75*
G02*
X98337500Y-119625000I-262500J0D01*
G01*
X97712500Y-119625000D01*
G75*
G02*
X97450000Y-119362500I0J262500D01*
G01*
G37*
G36*
G01*
X108600000Y-118837500D02*
X108600000Y-119362500D01*
G75*
G02*
X108337500Y-119625000I-262500J0D01*
G01*
X107712500Y-119625000D01*
G75*
G02*
X107450000Y-119362500I0J262500D01*
G01*
X107450000Y-118837500D01*
G75*
G02*
X107712500Y-118575000I262500J0D01*
G01*
X108337500Y-118575000D01*
G75*
G02*
X108600000Y-118837500I0J-262500D01*
G01*
G37*
G36*
G01*
X110350000Y-118837500D02*
X110350000Y-119362500D01*
G75*
G02*
X110087500Y-119625000I-262500J0D01*
G01*
X109462500Y-119625000D01*
G75*
G02*
X109200000Y-119362500I0J262500D01*
G01*
X109200000Y-118837500D01*
G75*
G02*
X109462500Y-118575000I262500J0D01*
G01*
X110087500Y-118575000D01*
G75*
G02*
X110350000Y-118837500I0J-262500D01*
G01*
G37*
G36*
G01*
X118600000Y-142837500D02*
X118600000Y-143362500D01*
G75*
G02*
X118337500Y-143625000I-262500J0D01*
G01*
X117712500Y-143625000D01*
G75*
G02*
X117450000Y-143362500I0J262500D01*
G01*
X117450000Y-142837500D01*
G75*
G02*
X117712500Y-142575000I262500J0D01*
G01*
X118337500Y-142575000D01*
G75*
G02*
X118600000Y-142837500I0J-262500D01*
G01*
G37*
G36*
G01*
X120350000Y-142837500D02*
X120350000Y-143362500D01*
G75*
G02*
X120087500Y-143625000I-262500J0D01*
G01*
X119462500Y-143625000D01*
G75*
G02*
X119200000Y-143362500I0J262500D01*
G01*
X119200000Y-142837500D01*
G75*
G02*
X119462500Y-142575000I262500J0D01*
G01*
X120087500Y-142575000D01*
G75*
G02*
X120350000Y-142837500I0J-262500D01*
G01*
G37*
G36*
G01*
X118600000Y-130837500D02*
X118600000Y-131362500D01*
G75*
G02*
X118337500Y-131625000I-262500J0D01*
G01*
X117712500Y-131625000D01*
G75*
G02*
X117450000Y-131362500I0J262500D01*
G01*
X117450000Y-130837500D01*
G75*
G02*
X117712500Y-130575000I262500J0D01*
G01*
X118337500Y-130575000D01*
G75*
G02*
X118600000Y-130837500I0J-262500D01*
G01*
G37*
G36*
G01*
X120350000Y-130837500D02*
X120350000Y-131362500D01*
G75*
G02*
X120087500Y-131625000I-262500J0D01*
G01*
X119462500Y-131625000D01*
G75*
G02*
X119200000Y-131362500I0J262500D01*
G01*
X119200000Y-130837500D01*
G75*
G02*
X119462500Y-130575000I262500J0D01*
G01*
X120087500Y-130575000D01*
G75*
G02*
X120350000Y-130837500I0J-262500D01*
G01*
G37*
G36*
G01*
X120350000Y-118837500D02*
X120350000Y-119362500D01*
G75*
G02*
X120087500Y-119625000I-262500J0D01*
G01*
X119462500Y-119625000D01*
G75*
G02*
X119200000Y-119362500I0J262500D01*
G01*
X119200000Y-118837500D01*
G75*
G02*
X119462500Y-118575000I262500J0D01*
G01*
X120087500Y-118575000D01*
G75*
G02*
X120350000Y-118837500I0J-262500D01*
G01*
G37*
G36*
G01*
X118600000Y-118837500D02*
X118600000Y-119362500D01*
G75*
G02*
X118337500Y-119625000I-262500J0D01*
G01*
X117712500Y-119625000D01*
G75*
G02*
X117450000Y-119362500I0J262500D01*
G01*
X117450000Y-118837500D01*
G75*
G02*
X117712500Y-118575000I262500J0D01*
G01*
X118337500Y-118575000D01*
G75*
G02*
X118600000Y-118837500I0J-262500D01*
G01*
G37*
G36*
G01*
X118600000Y-106837500D02*
X118600000Y-107362500D01*
G75*
G02*
X118337500Y-107625000I-262500J0D01*
G01*
X117712500Y-107625000D01*
G75*
G02*
X117450000Y-107362500I0J262500D01*
G01*
X117450000Y-106837500D01*
G75*
G02*
X117712500Y-106575000I262500J0D01*
G01*
X118337500Y-106575000D01*
G75*
G02*
X118600000Y-106837500I0J-262500D01*
G01*
G37*
G36*
G01*
X120350000Y-106837500D02*
X120350000Y-107362500D01*
G75*
G02*
X120087500Y-107625000I-262500J0D01*
G01*
X119462500Y-107625000D01*
G75*
G02*
X119200000Y-107362500I0J262500D01*
G01*
X119200000Y-106837500D01*
G75*
G02*
X119462500Y-106575000I262500J0D01*
G01*
X120087500Y-106575000D01*
G75*
G02*
X120350000Y-106837500I0J-262500D01*
G01*
G37*
G36*
G01*
X110350000Y-94837500D02*
X110350000Y-95362500D01*
G75*
G02*
X110087500Y-95625000I-262500J0D01*
G01*
X109462500Y-95625000D01*
G75*
G02*
X109200000Y-95362500I0J262500D01*
G01*
X109200000Y-94837500D01*
G75*
G02*
X109462500Y-94575000I262500J0D01*
G01*
X110087500Y-94575000D01*
G75*
G02*
X110350000Y-94837500I0J-262500D01*
G01*
G37*
G36*
G01*
X108600000Y-94837500D02*
X108600000Y-95362500D01*
G75*
G02*
X108337500Y-95625000I-262500J0D01*
G01*
X107712500Y-95625000D01*
G75*
G02*
X107450000Y-95362500I0J262500D01*
G01*
X107450000Y-94837500D01*
G75*
G02*
X107712500Y-94575000I262500J0D01*
G01*
X108337500Y-94575000D01*
G75*
G02*
X108600000Y-94837500I0J-262500D01*
G01*
G37*
G36*
G01*
X77450000Y-107362500D02*
X77450000Y-106837500D01*
G75*
G02*
X77712500Y-106575000I262500J0D01*
G01*
X78337500Y-106575000D01*
G75*
G02*
X78600000Y-106837500I0J-262500D01*
G01*
X78600000Y-107362500D01*
G75*
G02*
X78337500Y-107625000I-262500J0D01*
G01*
X77712500Y-107625000D01*
G75*
G02*
X77450000Y-107362500I0J262500D01*
G01*
G37*
G36*
G01*
X79200000Y-107362500D02*
X79200000Y-106837500D01*
G75*
G02*
X79462500Y-106575000I262500J0D01*
G01*
X80087500Y-106575000D01*
G75*
G02*
X80350000Y-106837500I0J-262500D01*
G01*
X80350000Y-107362500D01*
G75*
G02*
X80087500Y-107625000I-262500J0D01*
G01*
X79462500Y-107625000D01*
G75*
G02*
X79200000Y-107362500I0J262500D01*
G01*
G37*
G36*
G01*
X87450000Y-107362500D02*
X87450000Y-106837500D01*
G75*
G02*
X87712500Y-106575000I262500J0D01*
G01*
X88337500Y-106575000D01*
G75*
G02*
X88600000Y-106837500I0J-262500D01*
G01*
X88600000Y-107362500D01*
G75*
G02*
X88337500Y-107625000I-262500J0D01*
G01*
X87712500Y-107625000D01*
G75*
G02*
X87450000Y-107362500I0J262500D01*
G01*
G37*
G36*
G01*
X89200000Y-107362500D02*
X89200000Y-106837500D01*
G75*
G02*
X89462500Y-106575000I262500J0D01*
G01*
X90087500Y-106575000D01*
G75*
G02*
X90350000Y-106837500I0J-262500D01*
G01*
X90350000Y-107362500D01*
G75*
G02*
X90087500Y-107625000I-262500J0D01*
G01*
X89462500Y-107625000D01*
G75*
G02*
X89200000Y-107362500I0J262500D01*
G01*
G37*
G36*
G01*
X99200000Y-107362500D02*
X99200000Y-106837500D01*
G75*
G02*
X99462500Y-106575000I262500J0D01*
G01*
X100087500Y-106575000D01*
G75*
G02*
X100350000Y-106837500I0J-262500D01*
G01*
X100350000Y-107362500D01*
G75*
G02*
X100087500Y-107625000I-262500J0D01*
G01*
X99462500Y-107625000D01*
G75*
G02*
X99200000Y-107362500I0J262500D01*
G01*
G37*
G36*
G01*
X97450000Y-107362500D02*
X97450000Y-106837500D01*
G75*
G02*
X97712500Y-106575000I262500J0D01*
G01*
X98337500Y-106575000D01*
G75*
G02*
X98600000Y-106837500I0J-262500D01*
G01*
X98600000Y-107362500D01*
G75*
G02*
X98337500Y-107625000I-262500J0D01*
G01*
X97712500Y-107625000D01*
G75*
G02*
X97450000Y-107362500I0J262500D01*
G01*
G37*
G36*
G01*
X110350000Y-106837500D02*
X110350000Y-107362500D01*
G75*
G02*
X110087500Y-107625000I-262500J0D01*
G01*
X109462500Y-107625000D01*
G75*
G02*
X109200000Y-107362500I0J262500D01*
G01*
X109200000Y-106837500D01*
G75*
G02*
X109462500Y-106575000I262500J0D01*
G01*
X110087500Y-106575000D01*
G75*
G02*
X110350000Y-106837500I0J-262500D01*
G01*
G37*
G36*
G01*
X108600000Y-106837500D02*
X108600000Y-107362500D01*
G75*
G02*
X108337500Y-107625000I-262500J0D01*
G01*
X107712500Y-107625000D01*
G75*
G02*
X107450000Y-107362500I0J262500D01*
G01*
X107450000Y-106837500D01*
G75*
G02*
X107712500Y-106575000I262500J0D01*
G01*
X108337500Y-106575000D01*
G75*
G02*
X108600000Y-106837500I0J-262500D01*
G01*
G37*
G36*
G01*
X79200000Y-95362500D02*
X79200000Y-94837500D01*
G75*
G02*
X79462500Y-94575000I262500J0D01*
G01*
X80087500Y-94575000D01*
G75*
G02*
X80350000Y-94837500I0J-262500D01*
G01*
X80350000Y-95362500D01*
G75*
G02*
X80087500Y-95625000I-262500J0D01*
G01*
X79462500Y-95625000D01*
G75*
G02*
X79200000Y-95362500I0J262500D01*
G01*
G37*
G36*
G01*
X77450000Y-95362500D02*
X77450000Y-94837500D01*
G75*
G02*
X77712500Y-94575000I262500J0D01*
G01*
X78337500Y-94575000D01*
G75*
G02*
X78600000Y-94837500I0J-262500D01*
G01*
X78600000Y-95362500D01*
G75*
G02*
X78337500Y-95625000I-262500J0D01*
G01*
X77712500Y-95625000D01*
G75*
G02*
X77450000Y-95362500I0J262500D01*
G01*
G37*
G36*
G01*
X89200000Y-95362500D02*
X89200000Y-94837500D01*
G75*
G02*
X89462500Y-94575000I262500J0D01*
G01*
X90087500Y-94575000D01*
G75*
G02*
X90350000Y-94837500I0J-262500D01*
G01*
X90350000Y-95362500D01*
G75*
G02*
X90087500Y-95625000I-262500J0D01*
G01*
X89462500Y-95625000D01*
G75*
G02*
X89200000Y-95362500I0J262500D01*
G01*
G37*
G36*
G01*
X87450000Y-95362500D02*
X87450000Y-94837500D01*
G75*
G02*
X87712500Y-94575000I262500J0D01*
G01*
X88337500Y-94575000D01*
G75*
G02*
X88600000Y-94837500I0J-262500D01*
G01*
X88600000Y-95362500D01*
G75*
G02*
X88337500Y-95625000I-262500J0D01*
G01*
X87712500Y-95625000D01*
G75*
G02*
X87450000Y-95362500I0J262500D01*
G01*
G37*
G36*
G01*
X97450000Y-95362500D02*
X97450000Y-94837500D01*
G75*
G02*
X97712500Y-94575000I262500J0D01*
G01*
X98337500Y-94575000D01*
G75*
G02*
X98600000Y-94837500I0J-262500D01*
G01*
X98600000Y-95362500D01*
G75*
G02*
X98337500Y-95625000I-262500J0D01*
G01*
X97712500Y-95625000D01*
G75*
G02*
X97450000Y-95362500I0J262500D01*
G01*
G37*
G36*
G01*
X99200000Y-95362500D02*
X99200000Y-94837500D01*
G75*
G02*
X99462500Y-94575000I262500J0D01*
G01*
X100087500Y-94575000D01*
G75*
G02*
X100350000Y-94837500I0J-262500D01*
G01*
X100350000Y-95362500D01*
G75*
G02*
X100087500Y-95625000I-262500J0D01*
G01*
X99462500Y-95625000D01*
G75*
G02*
X99200000Y-95362500I0J262500D01*
G01*
G37*
G36*
G01*
X120350000Y-154837500D02*
X120350000Y-155362500D01*
G75*
G02*
X120087500Y-155625000I-262500J0D01*
G01*
X119462500Y-155625000D01*
G75*
G02*
X119200000Y-155362500I0J262500D01*
G01*
X119200000Y-154837500D01*
G75*
G02*
X119462500Y-154575000I262500J0D01*
G01*
X120087500Y-154575000D01*
G75*
G02*
X120350000Y-154837500I0J-262500D01*
G01*
G37*
G36*
G01*
X118600000Y-154837500D02*
X118600000Y-155362500D01*
G75*
G02*
X118337500Y-155625000I-262500J0D01*
G01*
X117712500Y-155625000D01*
G75*
G02*
X117450000Y-155362500I0J262500D01*
G01*
X117450000Y-154837500D01*
G75*
G02*
X117712500Y-154575000I262500J0D01*
G01*
X118337500Y-154575000D01*
G75*
G02*
X118600000Y-154837500I0J-262500D01*
G01*
G37*
G36*
G01*
X120350000Y-94837500D02*
X120350000Y-95362500D01*
G75*
G02*
X120087500Y-95625000I-262500J0D01*
G01*
X119462500Y-95625000D01*
G75*
G02*
X119200000Y-95362500I0J262500D01*
G01*
X119200000Y-94837500D01*
G75*
G02*
X119462500Y-94575000I262500J0D01*
G01*
X120087500Y-94575000D01*
G75*
G02*
X120350000Y-94837500I0J-262500D01*
G01*
G37*
G36*
G01*
X118600000Y-94837500D02*
X118600000Y-95362500D01*
G75*
G02*
X118337500Y-95625000I-262500J0D01*
G01*
X117712500Y-95625000D01*
G75*
G02*
X117450000Y-95362500I0J262500D01*
G01*
X117450000Y-94837500D01*
G75*
G02*
X117712500Y-94575000I262500J0D01*
G01*
X118337500Y-94575000D01*
G75*
G02*
X118600000Y-94837500I0J-262500D01*
G01*
G37*
G36*
G01*
X98600000Y-154837500D02*
X98600000Y-155362500D01*
G75*
G02*
X98337500Y-155625000I-262500J0D01*
G01*
X97712500Y-155625000D01*
G75*
G02*
X97450000Y-155362500I0J262500D01*
G01*
X97450000Y-154837500D01*
G75*
G02*
X97712500Y-154575000I262500J0D01*
G01*
X98337500Y-154575000D01*
G75*
G02*
X98600000Y-154837500I0J-262500D01*
G01*
G37*
G36*
G01*
X100350000Y-154837500D02*
X100350000Y-155362500D01*
G75*
G02*
X100087500Y-155625000I-262500J0D01*
G01*
X99462500Y-155625000D01*
G75*
G02*
X99200000Y-155362500I0J262500D01*
G01*
X99200000Y-154837500D01*
G75*
G02*
X99462500Y-154575000I262500J0D01*
G01*
X100087500Y-154575000D01*
G75*
G02*
X100350000Y-154837500I0J-262500D01*
G01*
G37*
G36*
G01*
X108600000Y-154837500D02*
X108600000Y-155362500D01*
G75*
G02*
X108337500Y-155625000I-262500J0D01*
G01*
X107712500Y-155625000D01*
G75*
G02*
X107450000Y-155362500I0J262500D01*
G01*
X107450000Y-154837500D01*
G75*
G02*
X107712500Y-154575000I262500J0D01*
G01*
X108337500Y-154575000D01*
G75*
G02*
X108600000Y-154837500I0J-262500D01*
G01*
G37*
G36*
G01*
X110350000Y-154837500D02*
X110350000Y-155362500D01*
G75*
G02*
X110087500Y-155625000I-262500J0D01*
G01*
X109462500Y-155625000D01*
G75*
G02*
X109200000Y-155362500I0J262500D01*
G01*
X109200000Y-154837500D01*
G75*
G02*
X109462500Y-154575000I262500J0D01*
G01*
X110087500Y-154575000D01*
G75*
G02*
X110350000Y-154837500I0J-262500D01*
G01*
G37*
G36*
G01*
X79200000Y-119362500D02*
X79200000Y-118837500D01*
G75*
G02*
X79462500Y-118575000I262500J0D01*
G01*
X80087500Y-118575000D01*
G75*
G02*
X80350000Y-118837500I0J-262500D01*
G01*
X80350000Y-119362500D01*
G75*
G02*
X80087500Y-119625000I-262500J0D01*
G01*
X79462500Y-119625000D01*
G75*
G02*
X79200000Y-119362500I0J262500D01*
G01*
G37*
G36*
G01*
X77450000Y-119362500D02*
X77450000Y-118837500D01*
G75*
G02*
X77712500Y-118575000I262500J0D01*
G01*
X78337500Y-118575000D01*
G75*
G02*
X78600000Y-118837500I0J-262500D01*
G01*
X78600000Y-119362500D01*
G75*
G02*
X78337500Y-119625000I-262500J0D01*
G01*
X77712500Y-119625000D01*
G75*
G02*
X77450000Y-119362500I0J262500D01*
G01*
G37*
G36*
G01*
X79200000Y-131362500D02*
X79200000Y-130837500D01*
G75*
G02*
X79462500Y-130575000I262500J0D01*
G01*
X80087500Y-130575000D01*
G75*
G02*
X80350000Y-130837500I0J-262500D01*
G01*
X80350000Y-131362500D01*
G75*
G02*
X80087500Y-131625000I-262500J0D01*
G01*
X79462500Y-131625000D01*
G75*
G02*
X79200000Y-131362500I0J262500D01*
G01*
G37*
G36*
G01*
X77450000Y-131362500D02*
X77450000Y-130837500D01*
G75*
G02*
X77712500Y-130575000I262500J0D01*
G01*
X78337500Y-130575000D01*
G75*
G02*
X78600000Y-130837500I0J-262500D01*
G01*
X78600000Y-131362500D01*
G75*
G02*
X78337500Y-131625000I-262500J0D01*
G01*
X77712500Y-131625000D01*
G75*
G02*
X77450000Y-131362500I0J262500D01*
G01*
G37*
G36*
G01*
X79200000Y-143362500D02*
X79200000Y-142837500D01*
G75*
G02*
X79462500Y-142575000I262500J0D01*
G01*
X80087500Y-142575000D01*
G75*
G02*
X80350000Y-142837500I0J-262500D01*
G01*
X80350000Y-143362500D01*
G75*
G02*
X80087500Y-143625000I-262500J0D01*
G01*
X79462500Y-143625000D01*
G75*
G02*
X79200000Y-143362500I0J262500D01*
G01*
G37*
G36*
G01*
X77450000Y-143362500D02*
X77450000Y-142837500D01*
G75*
G02*
X77712500Y-142575000I262500J0D01*
G01*
X78337500Y-142575000D01*
G75*
G02*
X78600000Y-142837500I0J-262500D01*
G01*
X78600000Y-143362500D01*
G75*
G02*
X78337500Y-143625000I-262500J0D01*
G01*
X77712500Y-143625000D01*
G75*
G02*
X77450000Y-143362500I0J262500D01*
G01*
G37*
G36*
G01*
X79200000Y-155362500D02*
X79200000Y-154837500D01*
G75*
G02*
X79462500Y-154575000I262500J0D01*
G01*
X80087500Y-154575000D01*
G75*
G02*
X80350000Y-154837500I0J-262500D01*
G01*
X80350000Y-155362500D01*
G75*
G02*
X80087500Y-155625000I-262500J0D01*
G01*
X79462500Y-155625000D01*
G75*
G02*
X79200000Y-155362500I0J262500D01*
G01*
G37*
G36*
G01*
X77450000Y-155362500D02*
X77450000Y-154837500D01*
G75*
G02*
X77712500Y-154575000I262500J0D01*
G01*
X78337500Y-154575000D01*
G75*
G02*
X78600000Y-154837500I0J-262500D01*
G01*
X78600000Y-155362500D01*
G75*
G02*
X78337500Y-155625000I-262500J0D01*
G01*
X77712500Y-155625000D01*
G75*
G02*
X77450000Y-155362500I0J262500D01*
G01*
G37*
D10*
X66900000Y-112100000D03*
D11*
X66900000Y-114640000D03*
X66900000Y-117180000D03*
X66900000Y-119720000D03*
X66900000Y-122260000D03*
X66900000Y-124800000D03*
X66900000Y-127340000D03*
X66900000Y-129880000D03*
X66900000Y-132420000D03*
X66900000Y-134960000D03*
X66900000Y-137500000D03*
X66900000Y-140040000D03*
X66900000Y-142580000D03*
X66900000Y-145120000D03*
X66900000Y-147660000D03*
X66900000Y-150200000D03*
X66900000Y-152740000D03*
X66900000Y-155280000D03*
X66900000Y-157820000D03*
X69440000Y-157820000D03*
X69440000Y-155280000D03*
X69440000Y-152740000D03*
X69440000Y-150200000D03*
X69440000Y-147660000D03*
X69440000Y-145120000D03*
X69440000Y-142580000D03*
X69440000Y-140040000D03*
X69440000Y-137500000D03*
X69440000Y-134960000D03*
X69440000Y-132420000D03*
X69440000Y-129880000D03*
X69440000Y-127340000D03*
X69440000Y-124800000D03*
X69440000Y-122260000D03*
X69440000Y-119720000D03*
X69440000Y-117180000D03*
X69440000Y-114640000D03*
D10*
X69440000Y-112100000D03*
X127900000Y-112100000D03*
D11*
X127900000Y-114640000D03*
X127900000Y-117180000D03*
X127900000Y-119720000D03*
X127900000Y-122260000D03*
X127900000Y-124800000D03*
X127900000Y-127340000D03*
X127900000Y-129880000D03*
X127900000Y-132420000D03*
X127900000Y-134960000D03*
X127900000Y-137500000D03*
X127900000Y-140040000D03*
X127900000Y-142580000D03*
X127900000Y-145120000D03*
X127900000Y-147660000D03*
X127900000Y-150200000D03*
X127900000Y-152740000D03*
X127900000Y-155280000D03*
X127900000Y-157820000D03*
X130440000Y-157820000D03*
X130440000Y-155280000D03*
X130440000Y-152740000D03*
X130440000Y-150200000D03*
X130440000Y-147660000D03*
X130440000Y-145120000D03*
X130440000Y-142580000D03*
X130440000Y-140040000D03*
X130440000Y-137500000D03*
X130440000Y-134960000D03*
X130440000Y-132420000D03*
X130440000Y-129880000D03*
X130440000Y-127340000D03*
X130440000Y-124800000D03*
X130440000Y-122260000D03*
X130440000Y-119720000D03*
X130440000Y-117180000D03*
X130440000Y-114640000D03*
D10*
X130440000Y-112100000D03*
G36*
G01*
X89200000Y-151362500D02*
X89200000Y-150837500D01*
G75*
G02*
X89462500Y-150575000I262500J0D01*
G01*
X90087500Y-150575000D01*
G75*
G02*
X90350000Y-150837500I0J-262500D01*
G01*
X90350000Y-151362500D01*
G75*
G02*
X90087500Y-151625000I-262500J0D01*
G01*
X89462500Y-151625000D01*
G75*
G02*
X89200000Y-151362500I0J262500D01*
G01*
G37*
G36*
G01*
X87450000Y-151362500D02*
X87450000Y-150837500D01*
G75*
G02*
X87712500Y-150575000I262500J0D01*
G01*
X88337500Y-150575000D01*
G75*
G02*
X88600000Y-150837500I0J-262500D01*
G01*
X88600000Y-151362500D01*
G75*
G02*
X88337500Y-151625000I-262500J0D01*
G01*
X87712500Y-151625000D01*
G75*
G02*
X87450000Y-151362500I0J262500D01*
G01*
G37*
G36*
G01*
X87450000Y-139362500D02*
X87450000Y-138837500D01*
G75*
G02*
X87712500Y-138575000I262500J0D01*
G01*
X88337500Y-138575000D01*
G75*
G02*
X88600000Y-138837500I0J-262500D01*
G01*
X88600000Y-139362500D01*
G75*
G02*
X88337500Y-139625000I-262500J0D01*
G01*
X87712500Y-139625000D01*
G75*
G02*
X87450000Y-139362500I0J262500D01*
G01*
G37*
G36*
G01*
X89200000Y-139362500D02*
X89200000Y-138837500D01*
G75*
G02*
X89462500Y-138575000I262500J0D01*
G01*
X90087500Y-138575000D01*
G75*
G02*
X90350000Y-138837500I0J-262500D01*
G01*
X90350000Y-139362500D01*
G75*
G02*
X90087500Y-139625000I-262500J0D01*
G01*
X89462500Y-139625000D01*
G75*
G02*
X89200000Y-139362500I0J262500D01*
G01*
G37*
G36*
G01*
X100350000Y-138837500D02*
X100350000Y-139362500D01*
G75*
G02*
X100087500Y-139625000I-262500J0D01*
G01*
X99462500Y-139625000D01*
G75*
G02*
X99200000Y-139362500I0J262500D01*
G01*
X99200000Y-138837500D01*
G75*
G02*
X99462500Y-138575000I262500J0D01*
G01*
X100087500Y-138575000D01*
G75*
G02*
X100350000Y-138837500I0J-262500D01*
G01*
G37*
G36*
G01*
X98600000Y-138837500D02*
X98600000Y-139362500D01*
G75*
G02*
X98337500Y-139625000I-262500J0D01*
G01*
X97712500Y-139625000D01*
G75*
G02*
X97450000Y-139362500I0J262500D01*
G01*
X97450000Y-138837500D01*
G75*
G02*
X97712500Y-138575000I262500J0D01*
G01*
X98337500Y-138575000D01*
G75*
G02*
X98600000Y-138837500I0J-262500D01*
G01*
G37*
G36*
G01*
X110350000Y-138837500D02*
X110350000Y-139362500D01*
G75*
G02*
X110087500Y-139625000I-262500J0D01*
G01*
X109462500Y-139625000D01*
G75*
G02*
X109200000Y-139362500I0J262500D01*
G01*
X109200000Y-138837500D01*
G75*
G02*
X109462500Y-138575000I262500J0D01*
G01*
X110087500Y-138575000D01*
G75*
G02*
X110350000Y-138837500I0J-262500D01*
G01*
G37*
G36*
G01*
X108600000Y-138837500D02*
X108600000Y-139362500D01*
G75*
G02*
X108337500Y-139625000I-262500J0D01*
G01*
X107712500Y-139625000D01*
G75*
G02*
X107450000Y-139362500I0J262500D01*
G01*
X107450000Y-138837500D01*
G75*
G02*
X107712500Y-138575000I262500J0D01*
G01*
X108337500Y-138575000D01*
G75*
G02*
X108600000Y-138837500I0J-262500D01*
G01*
G37*
G36*
G01*
X89200000Y-127362500D02*
X89200000Y-126837500D01*
G75*
G02*
X89462500Y-126575000I262500J0D01*
G01*
X90087500Y-126575000D01*
G75*
G02*
X90350000Y-126837500I0J-262500D01*
G01*
X90350000Y-127362500D01*
G75*
G02*
X90087500Y-127625000I-262500J0D01*
G01*
X89462500Y-127625000D01*
G75*
G02*
X89200000Y-127362500I0J262500D01*
G01*
G37*
G36*
G01*
X87450000Y-127362500D02*
X87450000Y-126837500D01*
G75*
G02*
X87712500Y-126575000I262500J0D01*
G01*
X88337500Y-126575000D01*
G75*
G02*
X88600000Y-126837500I0J-262500D01*
G01*
X88600000Y-127362500D01*
G75*
G02*
X88337500Y-127625000I-262500J0D01*
G01*
X87712500Y-127625000D01*
G75*
G02*
X87450000Y-127362500I0J262500D01*
G01*
G37*
G36*
G01*
X90350000Y-152837500D02*
X90350000Y-153362500D01*
G75*
G02*
X90087500Y-153625000I-262500J0D01*
G01*
X89462500Y-153625000D01*
G75*
G02*
X89200000Y-153362500I0J262500D01*
G01*
X89200000Y-152837500D01*
G75*
G02*
X89462500Y-152575000I262500J0D01*
G01*
X90087500Y-152575000D01*
G75*
G02*
X90350000Y-152837500I0J-262500D01*
G01*
G37*
G36*
G01*
X88600000Y-152837500D02*
X88600000Y-153362500D01*
G75*
G02*
X88337500Y-153625000I-262500J0D01*
G01*
X87712500Y-153625000D01*
G75*
G02*
X87450000Y-153362500I0J262500D01*
G01*
X87450000Y-152837500D01*
G75*
G02*
X87712500Y-152575000I262500J0D01*
G01*
X88337500Y-152575000D01*
G75*
G02*
X88600000Y-152837500I0J-262500D01*
G01*
G37*
G36*
G01*
X88600000Y-140837500D02*
X88600000Y-141362500D01*
G75*
G02*
X88337500Y-141625000I-262500J0D01*
G01*
X87712500Y-141625000D01*
G75*
G02*
X87450000Y-141362500I0J262500D01*
G01*
X87450000Y-140837500D01*
G75*
G02*
X87712500Y-140575000I262500J0D01*
G01*
X88337500Y-140575000D01*
G75*
G02*
X88600000Y-140837500I0J-262500D01*
G01*
G37*
G36*
G01*
X90350000Y-140837500D02*
X90350000Y-141362500D01*
G75*
G02*
X90087500Y-141625000I-262500J0D01*
G01*
X89462500Y-141625000D01*
G75*
G02*
X89200000Y-141362500I0J262500D01*
G01*
X89200000Y-140837500D01*
G75*
G02*
X89462500Y-140575000I262500J0D01*
G01*
X90087500Y-140575000D01*
G75*
G02*
X90350000Y-140837500I0J-262500D01*
G01*
G37*
G36*
G01*
X99200000Y-141362500D02*
X99200000Y-140837500D01*
G75*
G02*
X99462500Y-140575000I262500J0D01*
G01*
X100087500Y-140575000D01*
G75*
G02*
X100350000Y-140837500I0J-262500D01*
G01*
X100350000Y-141362500D01*
G75*
G02*
X100087500Y-141625000I-262500J0D01*
G01*
X99462500Y-141625000D01*
G75*
G02*
X99200000Y-141362500I0J262500D01*
G01*
G37*
G36*
G01*
X97450000Y-141362500D02*
X97450000Y-140837500D01*
G75*
G02*
X97712500Y-140575000I262500J0D01*
G01*
X98337500Y-140575000D01*
G75*
G02*
X98600000Y-140837500I0J-262500D01*
G01*
X98600000Y-141362500D01*
G75*
G02*
X98337500Y-141625000I-262500J0D01*
G01*
X97712500Y-141625000D01*
G75*
G02*
X97450000Y-141362500I0J262500D01*
G01*
G37*
G36*
G01*
X109200000Y-141362500D02*
X109200000Y-140837500D01*
G75*
G02*
X109462500Y-140575000I262500J0D01*
G01*
X110087500Y-140575000D01*
G75*
G02*
X110350000Y-140837500I0J-262500D01*
G01*
X110350000Y-141362500D01*
G75*
G02*
X110087500Y-141625000I-262500J0D01*
G01*
X109462500Y-141625000D01*
G75*
G02*
X109200000Y-141362500I0J262500D01*
G01*
G37*
G36*
G01*
X107450000Y-141362500D02*
X107450000Y-140837500D01*
G75*
G02*
X107712500Y-140575000I262500J0D01*
G01*
X108337500Y-140575000D01*
G75*
G02*
X108600000Y-140837500I0J-262500D01*
G01*
X108600000Y-141362500D01*
G75*
G02*
X108337500Y-141625000I-262500J0D01*
G01*
X107712500Y-141625000D01*
G75*
G02*
X107450000Y-141362500I0J262500D01*
G01*
G37*
G36*
G01*
X90350000Y-128837500D02*
X90350000Y-129362500D01*
G75*
G02*
X90087500Y-129625000I-262500J0D01*
G01*
X89462500Y-129625000D01*
G75*
G02*
X89200000Y-129362500I0J262500D01*
G01*
X89200000Y-128837500D01*
G75*
G02*
X89462500Y-128575000I262500J0D01*
G01*
X90087500Y-128575000D01*
G75*
G02*
X90350000Y-128837500I0J-262500D01*
G01*
G37*
G36*
G01*
X88600000Y-128837500D02*
X88600000Y-129362500D01*
G75*
G02*
X88337500Y-129625000I-262500J0D01*
G01*
X87712500Y-129625000D01*
G75*
G02*
X87450000Y-129362500I0J262500D01*
G01*
X87450000Y-128837500D01*
G75*
G02*
X87712500Y-128575000I262500J0D01*
G01*
X88337500Y-128575000D01*
G75*
G02*
X88600000Y-128837500I0J-262500D01*
G01*
G37*
G36*
G01*
X98600000Y-126837500D02*
X98600000Y-127362500D01*
G75*
G02*
X98337500Y-127625000I-262500J0D01*
G01*
X97712500Y-127625000D01*
G75*
G02*
X97450000Y-127362500I0J262500D01*
G01*
X97450000Y-126837500D01*
G75*
G02*
X97712500Y-126575000I262500J0D01*
G01*
X98337500Y-126575000D01*
G75*
G02*
X98600000Y-126837500I0J-262500D01*
G01*
G37*
G36*
G01*
X100350000Y-126837500D02*
X100350000Y-127362500D01*
G75*
G02*
X100087500Y-127625000I-262500J0D01*
G01*
X99462500Y-127625000D01*
G75*
G02*
X99200000Y-127362500I0J262500D01*
G01*
X99200000Y-126837500D01*
G75*
G02*
X99462500Y-126575000I262500J0D01*
G01*
X100087500Y-126575000D01*
G75*
G02*
X100350000Y-126837500I0J-262500D01*
G01*
G37*
G36*
G01*
X108600000Y-126837500D02*
X108600000Y-127362500D01*
G75*
G02*
X108337500Y-127625000I-262500J0D01*
G01*
X107712500Y-127625000D01*
G75*
G02*
X107450000Y-127362500I0J262500D01*
G01*
X107450000Y-126837500D01*
G75*
G02*
X107712500Y-126575000I262500J0D01*
G01*
X108337500Y-126575000D01*
G75*
G02*
X108600000Y-126837500I0J-262500D01*
G01*
G37*
G36*
G01*
X110350000Y-126837500D02*
X110350000Y-127362500D01*
G75*
G02*
X110087500Y-127625000I-262500J0D01*
G01*
X109462500Y-127625000D01*
G75*
G02*
X109200000Y-127362500I0J262500D01*
G01*
X109200000Y-126837500D01*
G75*
G02*
X109462500Y-126575000I262500J0D01*
G01*
X110087500Y-126575000D01*
G75*
G02*
X110350000Y-126837500I0J-262500D01*
G01*
G37*
G36*
G01*
X89200000Y-115362500D02*
X89200000Y-114837500D01*
G75*
G02*
X89462500Y-114575000I262500J0D01*
G01*
X90087500Y-114575000D01*
G75*
G02*
X90350000Y-114837500I0J-262500D01*
G01*
X90350000Y-115362500D01*
G75*
G02*
X90087500Y-115625000I-262500J0D01*
G01*
X89462500Y-115625000D01*
G75*
G02*
X89200000Y-115362500I0J262500D01*
G01*
G37*
G36*
G01*
X87450000Y-115362500D02*
X87450000Y-114837500D01*
G75*
G02*
X87712500Y-114575000I262500J0D01*
G01*
X88337500Y-114575000D01*
G75*
G02*
X88600000Y-114837500I0J-262500D01*
G01*
X88600000Y-115362500D01*
G75*
G02*
X88337500Y-115625000I-262500J0D01*
G01*
X87712500Y-115625000D01*
G75*
G02*
X87450000Y-115362500I0J262500D01*
G01*
G37*
G36*
G01*
X99200000Y-115362500D02*
X99200000Y-114837500D01*
G75*
G02*
X99462500Y-114575000I262500J0D01*
G01*
X100087500Y-114575000D01*
G75*
G02*
X100350000Y-114837500I0J-262500D01*
G01*
X100350000Y-115362500D01*
G75*
G02*
X100087500Y-115625000I-262500J0D01*
G01*
X99462500Y-115625000D01*
G75*
G02*
X99200000Y-115362500I0J262500D01*
G01*
G37*
G36*
G01*
X97450000Y-115362500D02*
X97450000Y-114837500D01*
G75*
G02*
X97712500Y-114575000I262500J0D01*
G01*
X98337500Y-114575000D01*
G75*
G02*
X98600000Y-114837500I0J-262500D01*
G01*
X98600000Y-115362500D01*
G75*
G02*
X98337500Y-115625000I-262500J0D01*
G01*
X97712500Y-115625000D01*
G75*
G02*
X97450000Y-115362500I0J262500D01*
G01*
G37*
G36*
G01*
X108600000Y-114837500D02*
X108600000Y-115362500D01*
G75*
G02*
X108337500Y-115625000I-262500J0D01*
G01*
X107712500Y-115625000D01*
G75*
G02*
X107450000Y-115362500I0J262500D01*
G01*
X107450000Y-114837500D01*
G75*
G02*
X107712500Y-114575000I262500J0D01*
G01*
X108337500Y-114575000D01*
G75*
G02*
X108600000Y-114837500I0J-262500D01*
G01*
G37*
G36*
G01*
X110350000Y-114837500D02*
X110350000Y-115362500D01*
G75*
G02*
X110087500Y-115625000I-262500J0D01*
G01*
X109462500Y-115625000D01*
G75*
G02*
X109200000Y-115362500I0J262500D01*
G01*
X109200000Y-114837500D01*
G75*
G02*
X109462500Y-114575000I262500J0D01*
G01*
X110087500Y-114575000D01*
G75*
G02*
X110350000Y-114837500I0J-262500D01*
G01*
G37*
G36*
G01*
X97450000Y-129362500D02*
X97450000Y-128837500D01*
G75*
G02*
X97712500Y-128575000I262500J0D01*
G01*
X98337500Y-128575000D01*
G75*
G02*
X98600000Y-128837500I0J-262500D01*
G01*
X98600000Y-129362500D01*
G75*
G02*
X98337500Y-129625000I-262500J0D01*
G01*
X97712500Y-129625000D01*
G75*
G02*
X97450000Y-129362500I0J262500D01*
G01*
G37*
G36*
G01*
X99200000Y-129362500D02*
X99200000Y-128837500D01*
G75*
G02*
X99462500Y-128575000I262500J0D01*
G01*
X100087500Y-128575000D01*
G75*
G02*
X100350000Y-128837500I0J-262500D01*
G01*
X100350000Y-129362500D01*
G75*
G02*
X100087500Y-129625000I-262500J0D01*
G01*
X99462500Y-129625000D01*
G75*
G02*
X99200000Y-129362500I0J262500D01*
G01*
G37*
G36*
G01*
X107450000Y-129362500D02*
X107450000Y-128837500D01*
G75*
G02*
X107712500Y-128575000I262500J0D01*
G01*
X108337500Y-128575000D01*
G75*
G02*
X108600000Y-128837500I0J-262500D01*
G01*
X108600000Y-129362500D01*
G75*
G02*
X108337500Y-129625000I-262500J0D01*
G01*
X107712500Y-129625000D01*
G75*
G02*
X107450000Y-129362500I0J262500D01*
G01*
G37*
G36*
G01*
X109200000Y-129362500D02*
X109200000Y-128837500D01*
G75*
G02*
X109462500Y-128575000I262500J0D01*
G01*
X110087500Y-128575000D01*
G75*
G02*
X110350000Y-128837500I0J-262500D01*
G01*
X110350000Y-129362500D01*
G75*
G02*
X110087500Y-129625000I-262500J0D01*
G01*
X109462500Y-129625000D01*
G75*
G02*
X109200000Y-129362500I0J262500D01*
G01*
G37*
G36*
G01*
X90350000Y-116837500D02*
X90350000Y-117362500D01*
G75*
G02*
X90087500Y-117625000I-262500J0D01*
G01*
X89462500Y-117625000D01*
G75*
G02*
X89200000Y-117362500I0J262500D01*
G01*
X89200000Y-116837500D01*
G75*
G02*
X89462500Y-116575000I262500J0D01*
G01*
X90087500Y-116575000D01*
G75*
G02*
X90350000Y-116837500I0J-262500D01*
G01*
G37*
G36*
G01*
X88600000Y-116837500D02*
X88600000Y-117362500D01*
G75*
G02*
X88337500Y-117625000I-262500J0D01*
G01*
X87712500Y-117625000D01*
G75*
G02*
X87450000Y-117362500I0J262500D01*
G01*
X87450000Y-116837500D01*
G75*
G02*
X87712500Y-116575000I262500J0D01*
G01*
X88337500Y-116575000D01*
G75*
G02*
X88600000Y-116837500I0J-262500D01*
G01*
G37*
G36*
G01*
X100350000Y-116837500D02*
X100350000Y-117362500D01*
G75*
G02*
X100087500Y-117625000I-262500J0D01*
G01*
X99462500Y-117625000D01*
G75*
G02*
X99200000Y-117362500I0J262500D01*
G01*
X99200000Y-116837500D01*
G75*
G02*
X99462500Y-116575000I262500J0D01*
G01*
X100087500Y-116575000D01*
G75*
G02*
X100350000Y-116837500I0J-262500D01*
G01*
G37*
G36*
G01*
X98600000Y-116837500D02*
X98600000Y-117362500D01*
G75*
G02*
X98337500Y-117625000I-262500J0D01*
G01*
X97712500Y-117625000D01*
G75*
G02*
X97450000Y-117362500I0J262500D01*
G01*
X97450000Y-116837500D01*
G75*
G02*
X97712500Y-116575000I262500J0D01*
G01*
X98337500Y-116575000D01*
G75*
G02*
X98600000Y-116837500I0J-262500D01*
G01*
G37*
G36*
G01*
X107450000Y-117362500D02*
X107450000Y-116837500D01*
G75*
G02*
X107712500Y-116575000I262500J0D01*
G01*
X108337500Y-116575000D01*
G75*
G02*
X108600000Y-116837500I0J-262500D01*
G01*
X108600000Y-117362500D01*
G75*
G02*
X108337500Y-117625000I-262500J0D01*
G01*
X107712500Y-117625000D01*
G75*
G02*
X107450000Y-117362500I0J262500D01*
G01*
G37*
G36*
G01*
X109200000Y-117362500D02*
X109200000Y-116837500D01*
G75*
G02*
X109462500Y-116575000I262500J0D01*
G01*
X110087500Y-116575000D01*
G75*
G02*
X110350000Y-116837500I0J-262500D01*
G01*
X110350000Y-117362500D01*
G75*
G02*
X110087500Y-117625000I-262500J0D01*
G01*
X109462500Y-117625000D01*
G75*
G02*
X109200000Y-117362500I0J262500D01*
G01*
G37*
G36*
G01*
X118600000Y-138837500D02*
X118600000Y-139362500D01*
G75*
G02*
X118337500Y-139625000I-262500J0D01*
G01*
X117712500Y-139625000D01*
G75*
G02*
X117450000Y-139362500I0J262500D01*
G01*
X117450000Y-138837500D01*
G75*
G02*
X117712500Y-138575000I262500J0D01*
G01*
X118337500Y-138575000D01*
G75*
G02*
X118600000Y-138837500I0J-262500D01*
G01*
G37*
G36*
G01*
X120350000Y-138837500D02*
X120350000Y-139362500D01*
G75*
G02*
X120087500Y-139625000I-262500J0D01*
G01*
X119462500Y-139625000D01*
G75*
G02*
X119200000Y-139362500I0J262500D01*
G01*
X119200000Y-138837500D01*
G75*
G02*
X119462500Y-138575000I262500J0D01*
G01*
X120087500Y-138575000D01*
G75*
G02*
X120350000Y-138837500I0J-262500D01*
G01*
G37*
G36*
G01*
X118600000Y-126837500D02*
X118600000Y-127362500D01*
G75*
G02*
X118337500Y-127625000I-262500J0D01*
G01*
X117712500Y-127625000D01*
G75*
G02*
X117450000Y-127362500I0J262500D01*
G01*
X117450000Y-126837500D01*
G75*
G02*
X117712500Y-126575000I262500J0D01*
G01*
X118337500Y-126575000D01*
G75*
G02*
X118600000Y-126837500I0J-262500D01*
G01*
G37*
G36*
G01*
X120350000Y-126837500D02*
X120350000Y-127362500D01*
G75*
G02*
X120087500Y-127625000I-262500J0D01*
G01*
X119462500Y-127625000D01*
G75*
G02*
X119200000Y-127362500I0J262500D01*
G01*
X119200000Y-126837500D01*
G75*
G02*
X119462500Y-126575000I262500J0D01*
G01*
X120087500Y-126575000D01*
G75*
G02*
X120350000Y-126837500I0J-262500D01*
G01*
G37*
G36*
G01*
X118600000Y-114837500D02*
X118600000Y-115362500D01*
G75*
G02*
X118337500Y-115625000I-262500J0D01*
G01*
X117712500Y-115625000D01*
G75*
G02*
X117450000Y-115362500I0J262500D01*
G01*
X117450000Y-114837500D01*
G75*
G02*
X117712500Y-114575000I262500J0D01*
G01*
X118337500Y-114575000D01*
G75*
G02*
X118600000Y-114837500I0J-262500D01*
G01*
G37*
G36*
G01*
X120350000Y-114837500D02*
X120350000Y-115362500D01*
G75*
G02*
X120087500Y-115625000I-262500J0D01*
G01*
X119462500Y-115625000D01*
G75*
G02*
X119200000Y-115362500I0J262500D01*
G01*
X119200000Y-114837500D01*
G75*
G02*
X119462500Y-114575000I262500J0D01*
G01*
X120087500Y-114575000D01*
G75*
G02*
X120350000Y-114837500I0J-262500D01*
G01*
G37*
G36*
G01*
X118600000Y-102837500D02*
X118600000Y-103362500D01*
G75*
G02*
X118337500Y-103625000I-262500J0D01*
G01*
X117712500Y-103625000D01*
G75*
G02*
X117450000Y-103362500I0J262500D01*
G01*
X117450000Y-102837500D01*
G75*
G02*
X117712500Y-102575000I262500J0D01*
G01*
X118337500Y-102575000D01*
G75*
G02*
X118600000Y-102837500I0J-262500D01*
G01*
G37*
G36*
G01*
X120350000Y-102837500D02*
X120350000Y-103362500D01*
G75*
G02*
X120087500Y-103625000I-262500J0D01*
G01*
X119462500Y-103625000D01*
G75*
G02*
X119200000Y-103362500I0J262500D01*
G01*
X119200000Y-102837500D01*
G75*
G02*
X119462500Y-102575000I262500J0D01*
G01*
X120087500Y-102575000D01*
G75*
G02*
X120350000Y-102837500I0J-262500D01*
G01*
G37*
G36*
G01*
X108600000Y-90837500D02*
X108600000Y-91362500D01*
G75*
G02*
X108337500Y-91625000I-262500J0D01*
G01*
X107712500Y-91625000D01*
G75*
G02*
X107450000Y-91362500I0J262500D01*
G01*
X107450000Y-90837500D01*
G75*
G02*
X107712500Y-90575000I262500J0D01*
G01*
X108337500Y-90575000D01*
G75*
G02*
X108600000Y-90837500I0J-262500D01*
G01*
G37*
G36*
G01*
X110350000Y-90837500D02*
X110350000Y-91362500D01*
G75*
G02*
X110087500Y-91625000I-262500J0D01*
G01*
X109462500Y-91625000D01*
G75*
G02*
X109200000Y-91362500I0J262500D01*
G01*
X109200000Y-90837500D01*
G75*
G02*
X109462500Y-90575000I262500J0D01*
G01*
X110087500Y-90575000D01*
G75*
G02*
X110350000Y-90837500I0J-262500D01*
G01*
G37*
G36*
G01*
X117450000Y-141362500D02*
X117450000Y-140837500D01*
G75*
G02*
X117712500Y-140575000I262500J0D01*
G01*
X118337500Y-140575000D01*
G75*
G02*
X118600000Y-140837500I0J-262500D01*
G01*
X118600000Y-141362500D01*
G75*
G02*
X118337500Y-141625000I-262500J0D01*
G01*
X117712500Y-141625000D01*
G75*
G02*
X117450000Y-141362500I0J262500D01*
G01*
G37*
G36*
G01*
X119200000Y-141362500D02*
X119200000Y-140837500D01*
G75*
G02*
X119462500Y-140575000I262500J0D01*
G01*
X120087500Y-140575000D01*
G75*
G02*
X120350000Y-140837500I0J-262500D01*
G01*
X120350000Y-141362500D01*
G75*
G02*
X120087500Y-141625000I-262500J0D01*
G01*
X119462500Y-141625000D01*
G75*
G02*
X119200000Y-141362500I0J262500D01*
G01*
G37*
G36*
G01*
X117450000Y-129362500D02*
X117450000Y-128837500D01*
G75*
G02*
X117712500Y-128575000I262500J0D01*
G01*
X118337500Y-128575000D01*
G75*
G02*
X118600000Y-128837500I0J-262500D01*
G01*
X118600000Y-129362500D01*
G75*
G02*
X118337500Y-129625000I-262500J0D01*
G01*
X117712500Y-129625000D01*
G75*
G02*
X117450000Y-129362500I0J262500D01*
G01*
G37*
G36*
G01*
X119200000Y-129362500D02*
X119200000Y-128837500D01*
G75*
G02*
X119462500Y-128575000I262500J0D01*
G01*
X120087500Y-128575000D01*
G75*
G02*
X120350000Y-128837500I0J-262500D01*
G01*
X120350000Y-129362500D01*
G75*
G02*
X120087500Y-129625000I-262500J0D01*
G01*
X119462500Y-129625000D01*
G75*
G02*
X119200000Y-129362500I0J262500D01*
G01*
G37*
G36*
G01*
X117450000Y-117362500D02*
X117450000Y-116837500D01*
G75*
G02*
X117712500Y-116575000I262500J0D01*
G01*
X118337500Y-116575000D01*
G75*
G02*
X118600000Y-116837500I0J-262500D01*
G01*
X118600000Y-117362500D01*
G75*
G02*
X118337500Y-117625000I-262500J0D01*
G01*
X117712500Y-117625000D01*
G75*
G02*
X117450000Y-117362500I0J262500D01*
G01*
G37*
G36*
G01*
X119200000Y-117362500D02*
X119200000Y-116837500D01*
G75*
G02*
X119462500Y-116575000I262500J0D01*
G01*
X120087500Y-116575000D01*
G75*
G02*
X120350000Y-116837500I0J-262500D01*
G01*
X120350000Y-117362500D01*
G75*
G02*
X120087500Y-117625000I-262500J0D01*
G01*
X119462500Y-117625000D01*
G75*
G02*
X119200000Y-117362500I0J262500D01*
G01*
G37*
G36*
G01*
X117450000Y-105362500D02*
X117450000Y-104837500D01*
G75*
G02*
X117712500Y-104575000I262500J0D01*
G01*
X118337500Y-104575000D01*
G75*
G02*
X118600000Y-104837500I0J-262500D01*
G01*
X118600000Y-105362500D01*
G75*
G02*
X118337500Y-105625000I-262500J0D01*
G01*
X117712500Y-105625000D01*
G75*
G02*
X117450000Y-105362500I0J262500D01*
G01*
G37*
G36*
G01*
X119200000Y-105362500D02*
X119200000Y-104837500D01*
G75*
G02*
X119462500Y-104575000I262500J0D01*
G01*
X120087500Y-104575000D01*
G75*
G02*
X120350000Y-104837500I0J-262500D01*
G01*
X120350000Y-105362500D01*
G75*
G02*
X120087500Y-105625000I-262500J0D01*
G01*
X119462500Y-105625000D01*
G75*
G02*
X119200000Y-105362500I0J262500D01*
G01*
G37*
G36*
G01*
X107450000Y-93362500D02*
X107450000Y-92837500D01*
G75*
G02*
X107712500Y-92575000I262500J0D01*
G01*
X108337500Y-92575000D01*
G75*
G02*
X108600000Y-92837500I0J-262500D01*
G01*
X108600000Y-93362500D01*
G75*
G02*
X108337500Y-93625000I-262500J0D01*
G01*
X107712500Y-93625000D01*
G75*
G02*
X107450000Y-93362500I0J262500D01*
G01*
G37*
G36*
G01*
X109200000Y-93362500D02*
X109200000Y-92837500D01*
G75*
G02*
X109462500Y-92575000I262500J0D01*
G01*
X110087500Y-92575000D01*
G75*
G02*
X110350000Y-92837500I0J-262500D01*
G01*
X110350000Y-93362500D01*
G75*
G02*
X110087500Y-93625000I-262500J0D01*
G01*
X109462500Y-93625000D01*
G75*
G02*
X109200000Y-93362500I0J262500D01*
G01*
G37*
G36*
G01*
X79200000Y-103362500D02*
X79200000Y-102837500D01*
G75*
G02*
X79462500Y-102575000I262500J0D01*
G01*
X80087500Y-102575000D01*
G75*
G02*
X80350000Y-102837500I0J-262500D01*
G01*
X80350000Y-103362500D01*
G75*
G02*
X80087500Y-103625000I-262500J0D01*
G01*
X79462500Y-103625000D01*
G75*
G02*
X79200000Y-103362500I0J262500D01*
G01*
G37*
G36*
G01*
X77450000Y-103362500D02*
X77450000Y-102837500D01*
G75*
G02*
X77712500Y-102575000I262500J0D01*
G01*
X78337500Y-102575000D01*
G75*
G02*
X78600000Y-102837500I0J-262500D01*
G01*
X78600000Y-103362500D01*
G75*
G02*
X78337500Y-103625000I-262500J0D01*
G01*
X77712500Y-103625000D01*
G75*
G02*
X77450000Y-103362500I0J262500D01*
G01*
G37*
G36*
G01*
X87450000Y-103362500D02*
X87450000Y-102837500D01*
G75*
G02*
X87712500Y-102575000I262500J0D01*
G01*
X88337500Y-102575000D01*
G75*
G02*
X88600000Y-102837500I0J-262500D01*
G01*
X88600000Y-103362500D01*
G75*
G02*
X88337500Y-103625000I-262500J0D01*
G01*
X87712500Y-103625000D01*
G75*
G02*
X87450000Y-103362500I0J262500D01*
G01*
G37*
G36*
G01*
X89200000Y-103362500D02*
X89200000Y-102837500D01*
G75*
G02*
X89462500Y-102575000I262500J0D01*
G01*
X90087500Y-102575000D01*
G75*
G02*
X90350000Y-102837500I0J-262500D01*
G01*
X90350000Y-103362500D01*
G75*
G02*
X90087500Y-103625000I-262500J0D01*
G01*
X89462500Y-103625000D01*
G75*
G02*
X89200000Y-103362500I0J262500D01*
G01*
G37*
G36*
G01*
X97450000Y-103362500D02*
X97450000Y-102837500D01*
G75*
G02*
X97712500Y-102575000I262500J0D01*
G01*
X98337500Y-102575000D01*
G75*
G02*
X98600000Y-102837500I0J-262500D01*
G01*
X98600000Y-103362500D01*
G75*
G02*
X98337500Y-103625000I-262500J0D01*
G01*
X97712500Y-103625000D01*
G75*
G02*
X97450000Y-103362500I0J262500D01*
G01*
G37*
G36*
G01*
X99200000Y-103362500D02*
X99200000Y-102837500D01*
G75*
G02*
X99462500Y-102575000I262500J0D01*
G01*
X100087500Y-102575000D01*
G75*
G02*
X100350000Y-102837500I0J-262500D01*
G01*
X100350000Y-103362500D01*
G75*
G02*
X100087500Y-103625000I-262500J0D01*
G01*
X99462500Y-103625000D01*
G75*
G02*
X99200000Y-103362500I0J262500D01*
G01*
G37*
G36*
G01*
X110350000Y-102837500D02*
X110350000Y-103362500D01*
G75*
G02*
X110087500Y-103625000I-262500J0D01*
G01*
X109462500Y-103625000D01*
G75*
G02*
X109200000Y-103362500I0J262500D01*
G01*
X109200000Y-102837500D01*
G75*
G02*
X109462500Y-102575000I262500J0D01*
G01*
X110087500Y-102575000D01*
G75*
G02*
X110350000Y-102837500I0J-262500D01*
G01*
G37*
G36*
G01*
X108600000Y-102837500D02*
X108600000Y-103362500D01*
G75*
G02*
X108337500Y-103625000I-262500J0D01*
G01*
X107712500Y-103625000D01*
G75*
G02*
X107450000Y-103362500I0J262500D01*
G01*
X107450000Y-102837500D01*
G75*
G02*
X107712500Y-102575000I262500J0D01*
G01*
X108337500Y-102575000D01*
G75*
G02*
X108600000Y-102837500I0J-262500D01*
G01*
G37*
G36*
G01*
X77450000Y-91362500D02*
X77450000Y-90837500D01*
G75*
G02*
X77712500Y-90575000I262500J0D01*
G01*
X78337500Y-90575000D01*
G75*
G02*
X78600000Y-90837500I0J-262500D01*
G01*
X78600000Y-91362500D01*
G75*
G02*
X78337500Y-91625000I-262500J0D01*
G01*
X77712500Y-91625000D01*
G75*
G02*
X77450000Y-91362500I0J262500D01*
G01*
G37*
G36*
G01*
X79200000Y-91362500D02*
X79200000Y-90837500D01*
G75*
G02*
X79462500Y-90575000I262500J0D01*
G01*
X80087500Y-90575000D01*
G75*
G02*
X80350000Y-90837500I0J-262500D01*
G01*
X80350000Y-91362500D01*
G75*
G02*
X80087500Y-91625000I-262500J0D01*
G01*
X79462500Y-91625000D01*
G75*
G02*
X79200000Y-91362500I0J262500D01*
G01*
G37*
G36*
G01*
X80350000Y-104837500D02*
X80350000Y-105362500D01*
G75*
G02*
X80087500Y-105625000I-262500J0D01*
G01*
X79462500Y-105625000D01*
G75*
G02*
X79200000Y-105362500I0J262500D01*
G01*
X79200000Y-104837500D01*
G75*
G02*
X79462500Y-104575000I262500J0D01*
G01*
X80087500Y-104575000D01*
G75*
G02*
X80350000Y-104837500I0J-262500D01*
G01*
G37*
G36*
G01*
X78600000Y-104837500D02*
X78600000Y-105362500D01*
G75*
G02*
X78337500Y-105625000I-262500J0D01*
G01*
X77712500Y-105625000D01*
G75*
G02*
X77450000Y-105362500I0J262500D01*
G01*
X77450000Y-104837500D01*
G75*
G02*
X77712500Y-104575000I262500J0D01*
G01*
X78337500Y-104575000D01*
G75*
G02*
X78600000Y-104837500I0J-262500D01*
G01*
G37*
G36*
G01*
X88600000Y-104837500D02*
X88600000Y-105362500D01*
G75*
G02*
X88337500Y-105625000I-262500J0D01*
G01*
X87712500Y-105625000D01*
G75*
G02*
X87450000Y-105362500I0J262500D01*
G01*
X87450000Y-104837500D01*
G75*
G02*
X87712500Y-104575000I262500J0D01*
G01*
X88337500Y-104575000D01*
G75*
G02*
X88600000Y-104837500I0J-262500D01*
G01*
G37*
G36*
G01*
X90350000Y-104837500D02*
X90350000Y-105362500D01*
G75*
G02*
X90087500Y-105625000I-262500J0D01*
G01*
X89462500Y-105625000D01*
G75*
G02*
X89200000Y-105362500I0J262500D01*
G01*
X89200000Y-104837500D01*
G75*
G02*
X89462500Y-104575000I262500J0D01*
G01*
X90087500Y-104575000D01*
G75*
G02*
X90350000Y-104837500I0J-262500D01*
G01*
G37*
G36*
G01*
X98600000Y-104837500D02*
X98600000Y-105362500D01*
G75*
G02*
X98337500Y-105625000I-262500J0D01*
G01*
X97712500Y-105625000D01*
G75*
G02*
X97450000Y-105362500I0J262500D01*
G01*
X97450000Y-104837500D01*
G75*
G02*
X97712500Y-104575000I262500J0D01*
G01*
X98337500Y-104575000D01*
G75*
G02*
X98600000Y-104837500I0J-262500D01*
G01*
G37*
G36*
G01*
X100350000Y-104837500D02*
X100350000Y-105362500D01*
G75*
G02*
X100087500Y-105625000I-262500J0D01*
G01*
X99462500Y-105625000D01*
G75*
G02*
X99200000Y-105362500I0J262500D01*
G01*
X99200000Y-104837500D01*
G75*
G02*
X99462500Y-104575000I262500J0D01*
G01*
X100087500Y-104575000D01*
G75*
G02*
X100350000Y-104837500I0J-262500D01*
G01*
G37*
G36*
G01*
X109200000Y-105362500D02*
X109200000Y-104837500D01*
G75*
G02*
X109462500Y-104575000I262500J0D01*
G01*
X110087500Y-104575000D01*
G75*
G02*
X110350000Y-104837500I0J-262500D01*
G01*
X110350000Y-105362500D01*
G75*
G02*
X110087500Y-105625000I-262500J0D01*
G01*
X109462500Y-105625000D01*
G75*
G02*
X109200000Y-105362500I0J262500D01*
G01*
G37*
G36*
G01*
X107450000Y-105362500D02*
X107450000Y-104837500D01*
G75*
G02*
X107712500Y-104575000I262500J0D01*
G01*
X108337500Y-104575000D01*
G75*
G02*
X108600000Y-104837500I0J-262500D01*
G01*
X108600000Y-105362500D01*
G75*
G02*
X108337500Y-105625000I-262500J0D01*
G01*
X107712500Y-105625000D01*
G75*
G02*
X107450000Y-105362500I0J262500D01*
G01*
G37*
G36*
G01*
X78600000Y-92837500D02*
X78600000Y-93362500D01*
G75*
G02*
X78337500Y-93625000I-262500J0D01*
G01*
X77712500Y-93625000D01*
G75*
G02*
X77450000Y-93362500I0J262500D01*
G01*
X77450000Y-92837500D01*
G75*
G02*
X77712500Y-92575000I262500J0D01*
G01*
X78337500Y-92575000D01*
G75*
G02*
X78600000Y-92837500I0J-262500D01*
G01*
G37*
G36*
G01*
X80350000Y-92837500D02*
X80350000Y-93362500D01*
G75*
G02*
X80087500Y-93625000I-262500J0D01*
G01*
X79462500Y-93625000D01*
G75*
G02*
X79200000Y-93362500I0J262500D01*
G01*
X79200000Y-92837500D01*
G75*
G02*
X79462500Y-92575000I262500J0D01*
G01*
X80087500Y-92575000D01*
G75*
G02*
X80350000Y-92837500I0J-262500D01*
G01*
G37*
G36*
G01*
X87450000Y-91362500D02*
X87450000Y-90837500D01*
G75*
G02*
X87712500Y-90575000I262500J0D01*
G01*
X88337500Y-90575000D01*
G75*
G02*
X88600000Y-90837500I0J-262500D01*
G01*
X88600000Y-91362500D01*
G75*
G02*
X88337500Y-91625000I-262500J0D01*
G01*
X87712500Y-91625000D01*
G75*
G02*
X87450000Y-91362500I0J262500D01*
G01*
G37*
G36*
G01*
X89200000Y-91362500D02*
X89200000Y-90837500D01*
G75*
G02*
X89462500Y-90575000I262500J0D01*
G01*
X90087500Y-90575000D01*
G75*
G02*
X90350000Y-90837500I0J-262500D01*
G01*
X90350000Y-91362500D01*
G75*
G02*
X90087500Y-91625000I-262500J0D01*
G01*
X89462500Y-91625000D01*
G75*
G02*
X89200000Y-91362500I0J262500D01*
G01*
G37*
G36*
G01*
X97450000Y-91362500D02*
X97450000Y-90837500D01*
G75*
G02*
X97712500Y-90575000I262500J0D01*
G01*
X98337500Y-90575000D01*
G75*
G02*
X98600000Y-90837500I0J-262500D01*
G01*
X98600000Y-91362500D01*
G75*
G02*
X98337500Y-91625000I-262500J0D01*
G01*
X97712500Y-91625000D01*
G75*
G02*
X97450000Y-91362500I0J262500D01*
G01*
G37*
G36*
G01*
X99200000Y-91362500D02*
X99200000Y-90837500D01*
G75*
G02*
X99462500Y-90575000I262500J0D01*
G01*
X100087500Y-90575000D01*
G75*
G02*
X100350000Y-90837500I0J-262500D01*
G01*
X100350000Y-91362500D01*
G75*
G02*
X100087500Y-91625000I-262500J0D01*
G01*
X99462500Y-91625000D01*
G75*
G02*
X99200000Y-91362500I0J262500D01*
G01*
G37*
G36*
G01*
X120350000Y-150837500D02*
X120350000Y-151362500D01*
G75*
G02*
X120087500Y-151625000I-262500J0D01*
G01*
X119462500Y-151625000D01*
G75*
G02*
X119200000Y-151362500I0J262500D01*
G01*
X119200000Y-150837500D01*
G75*
G02*
X119462500Y-150575000I262500J0D01*
G01*
X120087500Y-150575000D01*
G75*
G02*
X120350000Y-150837500I0J-262500D01*
G01*
G37*
G36*
G01*
X118600000Y-150837500D02*
X118600000Y-151362500D01*
G75*
G02*
X118337500Y-151625000I-262500J0D01*
G01*
X117712500Y-151625000D01*
G75*
G02*
X117450000Y-151362500I0J262500D01*
G01*
X117450000Y-150837500D01*
G75*
G02*
X117712500Y-150575000I262500J0D01*
G01*
X118337500Y-150575000D01*
G75*
G02*
X118600000Y-150837500I0J-262500D01*
G01*
G37*
G36*
G01*
X120350000Y-90837500D02*
X120350000Y-91362500D01*
G75*
G02*
X120087500Y-91625000I-262500J0D01*
G01*
X119462500Y-91625000D01*
G75*
G02*
X119200000Y-91362500I0J262500D01*
G01*
X119200000Y-90837500D01*
G75*
G02*
X119462500Y-90575000I262500J0D01*
G01*
X120087500Y-90575000D01*
G75*
G02*
X120350000Y-90837500I0J-262500D01*
G01*
G37*
G36*
G01*
X118600000Y-90837500D02*
X118600000Y-91362500D01*
G75*
G02*
X118337500Y-91625000I-262500J0D01*
G01*
X117712500Y-91625000D01*
G75*
G02*
X117450000Y-91362500I0J262500D01*
G01*
X117450000Y-90837500D01*
G75*
G02*
X117712500Y-90575000I262500J0D01*
G01*
X118337500Y-90575000D01*
G75*
G02*
X118600000Y-90837500I0J-262500D01*
G01*
G37*
G36*
G01*
X100350000Y-150837500D02*
X100350000Y-151362500D01*
G75*
G02*
X100087500Y-151625000I-262500J0D01*
G01*
X99462500Y-151625000D01*
G75*
G02*
X99200000Y-151362500I0J262500D01*
G01*
X99200000Y-150837500D01*
G75*
G02*
X99462500Y-150575000I262500J0D01*
G01*
X100087500Y-150575000D01*
G75*
G02*
X100350000Y-150837500I0J-262500D01*
G01*
G37*
G36*
G01*
X98600000Y-150837500D02*
X98600000Y-151362500D01*
G75*
G02*
X98337500Y-151625000I-262500J0D01*
G01*
X97712500Y-151625000D01*
G75*
G02*
X97450000Y-151362500I0J262500D01*
G01*
X97450000Y-150837500D01*
G75*
G02*
X97712500Y-150575000I262500J0D01*
G01*
X98337500Y-150575000D01*
G75*
G02*
X98600000Y-150837500I0J-262500D01*
G01*
G37*
G36*
G01*
X88600000Y-92837500D02*
X88600000Y-93362500D01*
G75*
G02*
X88337500Y-93625000I-262500J0D01*
G01*
X87712500Y-93625000D01*
G75*
G02*
X87450000Y-93362500I0J262500D01*
G01*
X87450000Y-92837500D01*
G75*
G02*
X87712500Y-92575000I262500J0D01*
G01*
X88337500Y-92575000D01*
G75*
G02*
X88600000Y-92837500I0J-262500D01*
G01*
G37*
G36*
G01*
X90350000Y-92837500D02*
X90350000Y-93362500D01*
G75*
G02*
X90087500Y-93625000I-262500J0D01*
G01*
X89462500Y-93625000D01*
G75*
G02*
X89200000Y-93362500I0J262500D01*
G01*
X89200000Y-92837500D01*
G75*
G02*
X89462500Y-92575000I262500J0D01*
G01*
X90087500Y-92575000D01*
G75*
G02*
X90350000Y-92837500I0J-262500D01*
G01*
G37*
G36*
G01*
X98600000Y-92837500D02*
X98600000Y-93362500D01*
G75*
G02*
X98337500Y-93625000I-262500J0D01*
G01*
X97712500Y-93625000D01*
G75*
G02*
X97450000Y-93362500I0J262500D01*
G01*
X97450000Y-92837500D01*
G75*
G02*
X97712500Y-92575000I262500J0D01*
G01*
X98337500Y-92575000D01*
G75*
G02*
X98600000Y-92837500I0J-262500D01*
G01*
G37*
G36*
G01*
X100350000Y-92837500D02*
X100350000Y-93362500D01*
G75*
G02*
X100087500Y-93625000I-262500J0D01*
G01*
X99462500Y-93625000D01*
G75*
G02*
X99200000Y-93362500I0J262500D01*
G01*
X99200000Y-92837500D01*
G75*
G02*
X99462500Y-92575000I262500J0D01*
G01*
X100087500Y-92575000D01*
G75*
G02*
X100350000Y-92837500I0J-262500D01*
G01*
G37*
G36*
G01*
X119200000Y-153362500D02*
X119200000Y-152837500D01*
G75*
G02*
X119462500Y-152575000I262500J0D01*
G01*
X120087500Y-152575000D01*
G75*
G02*
X120350000Y-152837500I0J-262500D01*
G01*
X120350000Y-153362500D01*
G75*
G02*
X120087500Y-153625000I-262500J0D01*
G01*
X119462500Y-153625000D01*
G75*
G02*
X119200000Y-153362500I0J262500D01*
G01*
G37*
G36*
G01*
X117450000Y-153362500D02*
X117450000Y-152837500D01*
G75*
G02*
X117712500Y-152575000I262500J0D01*
G01*
X118337500Y-152575000D01*
G75*
G02*
X118600000Y-152837500I0J-262500D01*
G01*
X118600000Y-153362500D01*
G75*
G02*
X118337500Y-153625000I-262500J0D01*
G01*
X117712500Y-153625000D01*
G75*
G02*
X117450000Y-153362500I0J262500D01*
G01*
G37*
G36*
G01*
X119200000Y-93362500D02*
X119200000Y-92837500D01*
G75*
G02*
X119462500Y-92575000I262500J0D01*
G01*
X120087500Y-92575000D01*
G75*
G02*
X120350000Y-92837500I0J-262500D01*
G01*
X120350000Y-93362500D01*
G75*
G02*
X120087500Y-93625000I-262500J0D01*
G01*
X119462500Y-93625000D01*
G75*
G02*
X119200000Y-93362500I0J262500D01*
G01*
G37*
G36*
G01*
X117450000Y-93362500D02*
X117450000Y-92837500D01*
G75*
G02*
X117712500Y-92575000I262500J0D01*
G01*
X118337500Y-92575000D01*
G75*
G02*
X118600000Y-92837500I0J-262500D01*
G01*
X118600000Y-93362500D01*
G75*
G02*
X118337500Y-93625000I-262500J0D01*
G01*
X117712500Y-93625000D01*
G75*
G02*
X117450000Y-93362500I0J262500D01*
G01*
G37*
G36*
G01*
X99200000Y-153362500D02*
X99200000Y-152837500D01*
G75*
G02*
X99462500Y-152575000I262500J0D01*
G01*
X100087500Y-152575000D01*
G75*
G02*
X100350000Y-152837500I0J-262500D01*
G01*
X100350000Y-153362500D01*
G75*
G02*
X100087500Y-153625000I-262500J0D01*
G01*
X99462500Y-153625000D01*
G75*
G02*
X99200000Y-153362500I0J262500D01*
G01*
G37*
G36*
G01*
X97450000Y-153362500D02*
X97450000Y-152837500D01*
G75*
G02*
X97712500Y-152575000I262500J0D01*
G01*
X98337500Y-152575000D01*
G75*
G02*
X98600000Y-152837500I0J-262500D01*
G01*
X98600000Y-153362500D01*
G75*
G02*
X98337500Y-153625000I-262500J0D01*
G01*
X97712500Y-153625000D01*
G75*
G02*
X97450000Y-153362500I0J262500D01*
G01*
G37*
G36*
G01*
X110350000Y-150837500D02*
X110350000Y-151362500D01*
G75*
G02*
X110087500Y-151625000I-262500J0D01*
G01*
X109462500Y-151625000D01*
G75*
G02*
X109200000Y-151362500I0J262500D01*
G01*
X109200000Y-150837500D01*
G75*
G02*
X109462500Y-150575000I262500J0D01*
G01*
X110087500Y-150575000D01*
G75*
G02*
X110350000Y-150837500I0J-262500D01*
G01*
G37*
G36*
G01*
X108600000Y-150837500D02*
X108600000Y-151362500D01*
G75*
G02*
X108337500Y-151625000I-262500J0D01*
G01*
X107712500Y-151625000D01*
G75*
G02*
X107450000Y-151362500I0J262500D01*
G01*
X107450000Y-150837500D01*
G75*
G02*
X107712500Y-150575000I262500J0D01*
G01*
X108337500Y-150575000D01*
G75*
G02*
X108600000Y-150837500I0J-262500D01*
G01*
G37*
G36*
G01*
X77450000Y-115362500D02*
X77450000Y-114837500D01*
G75*
G02*
X77712500Y-114575000I262500J0D01*
G01*
X78337500Y-114575000D01*
G75*
G02*
X78600000Y-114837500I0J-262500D01*
G01*
X78600000Y-115362500D01*
G75*
G02*
X78337500Y-115625000I-262500J0D01*
G01*
X77712500Y-115625000D01*
G75*
G02*
X77450000Y-115362500I0J262500D01*
G01*
G37*
G36*
G01*
X79200000Y-115362500D02*
X79200000Y-114837500D01*
G75*
G02*
X79462500Y-114575000I262500J0D01*
G01*
X80087500Y-114575000D01*
G75*
G02*
X80350000Y-114837500I0J-262500D01*
G01*
X80350000Y-115362500D01*
G75*
G02*
X80087500Y-115625000I-262500J0D01*
G01*
X79462500Y-115625000D01*
G75*
G02*
X79200000Y-115362500I0J262500D01*
G01*
G37*
G36*
G01*
X77450000Y-127362500D02*
X77450000Y-126837500D01*
G75*
G02*
X77712500Y-126575000I262500J0D01*
G01*
X78337500Y-126575000D01*
G75*
G02*
X78600000Y-126837500I0J-262500D01*
G01*
X78600000Y-127362500D01*
G75*
G02*
X78337500Y-127625000I-262500J0D01*
G01*
X77712500Y-127625000D01*
G75*
G02*
X77450000Y-127362500I0J262500D01*
G01*
G37*
G36*
G01*
X79200000Y-127362500D02*
X79200000Y-126837500D01*
G75*
G02*
X79462500Y-126575000I262500J0D01*
G01*
X80087500Y-126575000D01*
G75*
G02*
X80350000Y-126837500I0J-262500D01*
G01*
X80350000Y-127362500D01*
G75*
G02*
X80087500Y-127625000I-262500J0D01*
G01*
X79462500Y-127625000D01*
G75*
G02*
X79200000Y-127362500I0J262500D01*
G01*
G37*
G36*
G01*
X79200000Y-139362500D02*
X79200000Y-138837500D01*
G75*
G02*
X79462500Y-138575000I262500J0D01*
G01*
X80087500Y-138575000D01*
G75*
G02*
X80350000Y-138837500I0J-262500D01*
G01*
X80350000Y-139362500D01*
G75*
G02*
X80087500Y-139625000I-262500J0D01*
G01*
X79462500Y-139625000D01*
G75*
G02*
X79200000Y-139362500I0J262500D01*
G01*
G37*
G36*
G01*
X77450000Y-139362500D02*
X77450000Y-138837500D01*
G75*
G02*
X77712500Y-138575000I262500J0D01*
G01*
X78337500Y-138575000D01*
G75*
G02*
X78600000Y-138837500I0J-262500D01*
G01*
X78600000Y-139362500D01*
G75*
G02*
X78337500Y-139625000I-262500J0D01*
G01*
X77712500Y-139625000D01*
G75*
G02*
X77450000Y-139362500I0J262500D01*
G01*
G37*
G36*
G01*
X79200000Y-151362500D02*
X79200000Y-150837500D01*
G75*
G02*
X79462500Y-150575000I262500J0D01*
G01*
X80087500Y-150575000D01*
G75*
G02*
X80350000Y-150837500I0J-262500D01*
G01*
X80350000Y-151362500D01*
G75*
G02*
X80087500Y-151625000I-262500J0D01*
G01*
X79462500Y-151625000D01*
G75*
G02*
X79200000Y-151362500I0J262500D01*
G01*
G37*
G36*
G01*
X77450000Y-151362500D02*
X77450000Y-150837500D01*
G75*
G02*
X77712500Y-150575000I262500J0D01*
G01*
X78337500Y-150575000D01*
G75*
G02*
X78600000Y-150837500I0J-262500D01*
G01*
X78600000Y-151362500D01*
G75*
G02*
X78337500Y-151625000I-262500J0D01*
G01*
X77712500Y-151625000D01*
G75*
G02*
X77450000Y-151362500I0J262500D01*
G01*
G37*
G36*
G01*
X109200000Y-153362500D02*
X109200000Y-152837500D01*
G75*
G02*
X109462500Y-152575000I262500J0D01*
G01*
X110087500Y-152575000D01*
G75*
G02*
X110350000Y-152837500I0J-262500D01*
G01*
X110350000Y-153362500D01*
G75*
G02*
X110087500Y-153625000I-262500J0D01*
G01*
X109462500Y-153625000D01*
G75*
G02*
X109200000Y-153362500I0J262500D01*
G01*
G37*
G36*
G01*
X107450000Y-153362500D02*
X107450000Y-152837500D01*
G75*
G02*
X107712500Y-152575000I262500J0D01*
G01*
X108337500Y-152575000D01*
G75*
G02*
X108600000Y-152837500I0J-262500D01*
G01*
X108600000Y-153362500D01*
G75*
G02*
X108337500Y-153625000I-262500J0D01*
G01*
X107712500Y-153625000D01*
G75*
G02*
X107450000Y-153362500I0J262500D01*
G01*
G37*
G36*
G01*
X78600000Y-116837500D02*
X78600000Y-117362500D01*
G75*
G02*
X78337500Y-117625000I-262500J0D01*
G01*
X77712500Y-117625000D01*
G75*
G02*
X77450000Y-117362500I0J262500D01*
G01*
X77450000Y-116837500D01*
G75*
G02*
X77712500Y-116575000I262500J0D01*
G01*
X78337500Y-116575000D01*
G75*
G02*
X78600000Y-116837500I0J-262500D01*
G01*
G37*
G36*
G01*
X80350000Y-116837500D02*
X80350000Y-117362500D01*
G75*
G02*
X80087500Y-117625000I-262500J0D01*
G01*
X79462500Y-117625000D01*
G75*
G02*
X79200000Y-117362500I0J262500D01*
G01*
X79200000Y-116837500D01*
G75*
G02*
X79462500Y-116575000I262500J0D01*
G01*
X80087500Y-116575000D01*
G75*
G02*
X80350000Y-116837500I0J-262500D01*
G01*
G37*
G36*
G01*
X78600000Y-128837500D02*
X78600000Y-129362500D01*
G75*
G02*
X78337500Y-129625000I-262500J0D01*
G01*
X77712500Y-129625000D01*
G75*
G02*
X77450000Y-129362500I0J262500D01*
G01*
X77450000Y-128837500D01*
G75*
G02*
X77712500Y-128575000I262500J0D01*
G01*
X78337500Y-128575000D01*
G75*
G02*
X78600000Y-128837500I0J-262500D01*
G01*
G37*
G36*
G01*
X80350000Y-128837500D02*
X80350000Y-129362500D01*
G75*
G02*
X80087500Y-129625000I-262500J0D01*
G01*
X79462500Y-129625000D01*
G75*
G02*
X79200000Y-129362500I0J262500D01*
G01*
X79200000Y-128837500D01*
G75*
G02*
X79462500Y-128575000I262500J0D01*
G01*
X80087500Y-128575000D01*
G75*
G02*
X80350000Y-128837500I0J-262500D01*
G01*
G37*
G36*
G01*
X80350000Y-140837500D02*
X80350000Y-141362500D01*
G75*
G02*
X80087500Y-141625000I-262500J0D01*
G01*
X79462500Y-141625000D01*
G75*
G02*
X79200000Y-141362500I0J262500D01*
G01*
X79200000Y-140837500D01*
G75*
G02*
X79462500Y-140575000I262500J0D01*
G01*
X80087500Y-140575000D01*
G75*
G02*
X80350000Y-140837500I0J-262500D01*
G01*
G37*
G36*
G01*
X78600000Y-140837500D02*
X78600000Y-141362500D01*
G75*
G02*
X78337500Y-141625000I-262500J0D01*
G01*
X77712500Y-141625000D01*
G75*
G02*
X77450000Y-141362500I0J262500D01*
G01*
X77450000Y-140837500D01*
G75*
G02*
X77712500Y-140575000I262500J0D01*
G01*
X78337500Y-140575000D01*
G75*
G02*
X78600000Y-140837500I0J-262500D01*
G01*
G37*
G36*
G01*
X80350000Y-152837500D02*
X80350000Y-153362500D01*
G75*
G02*
X80087500Y-153625000I-262500J0D01*
G01*
X79462500Y-153625000D01*
G75*
G02*
X79200000Y-153362500I0J262500D01*
G01*
X79200000Y-152837500D01*
G75*
G02*
X79462500Y-152575000I262500J0D01*
G01*
X80087500Y-152575000D01*
G75*
G02*
X80350000Y-152837500I0J-262500D01*
G01*
G37*
G36*
G01*
X78600000Y-152837500D02*
X78600000Y-153362500D01*
G75*
G02*
X78337500Y-153625000I-262500J0D01*
G01*
X77712500Y-153625000D01*
G75*
G02*
X77450000Y-153362500I0J262500D01*
G01*
X77450000Y-152837500D01*
G75*
G02*
X77712500Y-152575000I262500J0D01*
G01*
X78337500Y-152575000D01*
G75*
G02*
X78600000Y-152837500I0J-262500D01*
G01*
G37*
X130440000Y-87900000D03*
D11*
X130440000Y-90440000D03*
X130440000Y-92980000D03*
X130440000Y-95520000D03*
X130440000Y-98060000D03*
X130440000Y-100600000D03*
X130440000Y-103140000D03*
X130440000Y-105680000D03*
X130380000Y-108220000D03*
D10*
X66900000Y-98250000D03*
D11*
X66900000Y-100790000D03*
X66900000Y-103330000D03*
X66900000Y-105870000D03*
M02*
