M48
;Layer_Color=9474304
;FILE_FORMAT=2:4
INCH,TZ
;TYPE=PLATED
T1F00S00C0.0079
T2F00S00C0.0098
T3F00S00C0.0110
T6F00S00C0.0256
T7F00S00C0.0394
T8F00S00C0.0402
T9F00S00C0.1063
%
T01
X-19054Y-2346
X-18838
X-10620Y-7411
X-10364Y-7923
X-10108
Y-8691
X-10374Y-8937
X-10108Y-7156
X-9852
Y-7667
Y-7923
Y-8179
Y-8435
Y-8691
Y-8947
X-9754Y-9518
X-9341Y-8691
X-9085Y-8435
Y-7411
X-9341
Y-7156
X-9262Y-6839
X-6114Y-3496
X-5898
X-5906Y-2274
X-6122
T02
X-18037Y-35544
X-16742Y-35413
X-7933Y-33228
X-6988Y-33681
X-4980Y-34055
X-3618Y-34724
X-3614Y-32311
X-4091Y-30311
X-6988
X-7500Y-29807
X-7578Y-29108
X-7130Y-29252
X-6756
X-5711Y-27382
X-4971Y-27161
X-5165Y-27803
X-4646Y-25157
X-4642Y-24844
Y-24496
X-4665Y-23974
X-5138Y-23722
X-5945Y-23376
X-6447Y-23366
X-5709Y-22963
X-5945Y-21220
X-4646Y-21211
X-4931Y-21634
X-7807Y-21624
X-7807Y-21276
X-7870Y-20508
X-7382Y-20380
X-6900Y-20222
X-8807Y-20508
X-9067Y-20110
X-9037Y-19606
X-9622Y-18878
X-7870Y-18563
X-8230Y-17799
X-8525Y-17321
X-7138Y-17530
X-5709
X-4931Y-18228
X-3622Y-19291
X-3610Y-23976
X-3370Y-24843
X-3819Y-25157
X-9622Y-24720
Y-26575
X-8362Y-31567
X-7933Y-32185
X-7283Y-32756
X-6142Y-31567
X-11551Y-32193
X-12626Y-31303
X-12957Y-30837
X-15894Y-31799
X-15890Y-24283
X-16898Y-24772
X-19894Y-25722
Y-26043
X-20886Y-25096
X-22363Y-25728
X-21866Y-22583
X-22362Y-21289
X-20390Y-20665
X-19878Y-20319
X-19382Y-19835
X-17598Y-20067
X-16886Y-19835
X-15890Y-20091
X-11815Y-20085
X-11165Y-19835
X-11488Y-18878
X-10811Y-18559
X-10551Y-20630
X-10118Y-20315
X-10178Y-21700
Y-22259
X-10217Y-24720
X-10551Y-25089
X-10256Y-26349
X-12331Y-26043
Y-25413
X-12335Y-24783
X-12787Y-25098
X-12772Y-25728
X-12768Y-26352
X-12724Y-27058
X-13585Y-26352
X-12790Y-24283
X-21240Y-19606
X-21390Y-17276
X-20807Y-15512
X-20531
X-20207Y-16102
X-19902Y-15197
X-18760Y-15906
X-18770Y-16663
X-18898Y-17000
X-16594Y-16768
X-16785Y-15567
X-14597Y-15809
X-14109Y-16102
X-13618Y-16768
X-13128Y-15551
X-13130Y-14233
X-13619Y-14075
X-14104Y-14232
X-14597Y-14075
X-15138Y-14075
Y-13642
X-15059Y-12587
X-15823Y-12118
X-15169Y-11386
X-15118Y-10807
X-15630Y-10079
X-15118Y-9559
X-14439Y-9559
X-13356Y-9783
X-12917Y-10476
X-12636Y-11380
X-12146Y-11220
X-11654Y-11378
X-11161Y-11220
X-10669Y-11378
X-10175Y-11378
X-10098Y-10709
X-10250Y-9663
X-11547Y-8642
X-12402Y-8445
X-12441Y-8809
X-13169Y-8593
X-15354Y-8927
X-17223Y-8593
X-17402Y-7963
X-18622Y-8593
X-19734Y-8307
X-19642Y-7299
X-20482Y-6289
X-19980Y-5370
X-21902Y-5262
X-21669Y-5776
X-22346Y-5669
X-22864Y-5610
X-21870Y-4514
Y-7057
X-22244Y-8602
X-20325Y-8878
X-19705Y-9459
X-19665Y-10502
X-20335Y-10335
X-20207Y-11201
X-18789Y-11909
X-18557Y-12539
X-17244Y-12539
Y-12854
Y-13169
X-17333Y-13494
X-17539Y-13760
X-17825Y-13494
X-18179Y-13770
X-19272Y-13169
X-20768Y-12913
X-21157Y-13799
X-22382Y-12461
X-17398Y-12000
X-17215Y-10502
X-16831
X-18248
X-18563Y-3673
X-18087Y-2437
X-19579Y-2429
X-15197Y-3504
X-12811Y-3642
X-11545Y-3878
X-11608Y-4587
X-11496Y-4846
X-11095Y-5620
X-10748Y-5394
X-10547Y-5654
X-10532Y-5945
X-11004Y-6368
X-12122Y-6701
X-13059Y-5602
X-12579Y-2035
X-11280Y-2244
X-10522Y-2894
Y-3209
X-10175Y-12772
X-10669Y-13465
X-10551Y-14311
X-10118Y-14065
X-11161Y-14233
X-11657Y-14075
X-12148Y-14233
X-12636Y-14075
X-11486Y-15807
X-11819Y-16327
Y-17000
X-11161Y-16732
X-10813Y-16102
X-9390Y-16526
X-8781Y-17008
X-6152
X-5138Y-16526
X-5031Y-15809
X-5344Y-15551
X-5650Y-14537
X-5651Y-13799
X-6152Y-13583
Y-12756
X-6614Y-12756
X-6913Y-12106
X-7634Y-12118
Y-11268
X-7493Y-10876
X-7866Y-10945
X-8201Y-11343
X-9115Y-11378
X-9380Y-10709
X-9911Y-9728
X-7157Y-9823
X-6850Y-10051
X-6841Y-9547
X-6152Y-9459
X-5650Y-9459
X-5148Y-9459
X-4646
X-4281
X-3681Y-10417
Y-11370
X-4035Y-11841
X-4311Y-12311
X-4646Y-12756
X-5148
X-5650
X-3819Y-12855
X-4035Y-14065
X-3425Y-15020
X-4085Y-16319
X-6457Y-15807
X-6900Y-15311
X-6614Y-15020
X-7382Y-14783
X-7638Y-14065
X-6917Y-13720
X-8642Y-13516
X-9114Y-13514
X-9400Y-13720
X-8839Y-13190
X-8425Y-12896
X-9035Y-14537
X-7136Y-11374
X-6386Y-11087
X-6260Y-8150
X-6063Y-7224
X-6234Y-6697
X-7057Y-6467
X-7512Y-6693
X-7333Y-7057
X-7717Y-7165
X-8307Y-8435
X-7136Y-8661
X-5157Y-8720
X-5058Y-5911
X-5065Y-5515
X-5066Y-4615
X-5394Y-4276
X-5630Y-3724
X-4675Y-3770
X-3799Y-4150
X-3524
X-3126Y-3415
X-2677Y-3789
X-2047Y-4094
X-748Y-4685
X-374Y-4370
X-472Y-3130
X-1535Y-2697
X-5232Y-2559
X-6654Y-2913
X-7119Y-4107
X-7121Y-5013
X-8209Y-4882
X-8445Y-4882
X-8445Y-5266
X-8720Y-5945
X-9034Y-5658
X-9220Y-6607
X-9685Y-4882
X-9921
X-9819Y-4492
X-9906Y-3532
X-8602Y-3228
X-9744Y-2028
X-4024Y-4921
X-3622Y-6032
X-8957Y-1112
X-8957Y-677
X-11358Y-857
X-12602Y-846
X-12835Y-1055
X-13169
X-14189Y-846
X-15748Y-949
T03
X-19382Y-26677
X-13087Y-19291
Y-16770
X-13189Y-3642
X-12579Y-2614
T06
X-3244Y-9059
X-2744
Y-8559
X-2244
X-1744
X-1244
Y-9059
X-1744
X-2244
X-3244Y-8559
T07
X-18900Y-33967
X-18900Y-32967
X-17900
Y-33967
X-16900
Y-32967
X-15900
Y-33967
X-14900
X-13900
Y-32967
X-14900
X-14890Y-30465
X-15890
X-16890
X-17890
X-18890
X-19890
X-20890
X-13890
X-13900Y-21467
X-14900
X-15900
X-16900
X-17900
X-18900
X-19900
X-20900
X-20890Y-18965
X-19890
X-18890
Y-17965
X-19890
X-20890
X-21890
Y-18965
X-22890
Y-17965
X-17890
Y-18965
X-16890
Y-17965
X-15890
Y-18965
X-14890
Y-17965
X-13890
Y-18965
T08
X-16311Y-37626
Y-36626
X-15311
Y-37626
X-14311
Y-36626
X-13311
Y-37626
X-12311
X-11311
X-10311
Y-36626
X-11311
X-12311
X-9311
X-8311
Y-37626
X-7311
Y-36626
X-9311Y-37626
X-2744Y-34311
Y-33311
X-1744
Y-34311
Y-32311
X-2744
Y-31311
X-1744
Y-30311
Y-29311
Y-28311
Y-27311
Y-26311
Y-25311
X-2744
Y-26311
Y-27311
Y-28311
Y-29311
Y-30311
Y-20311
Y-19311
X-1744
Y-18311
X-2744
Y-17311
X-1744
Y-20311
X-10763Y-28557
Y-29557
X-14447Y-7811
Y-6811
Y-5811
X-16447
Y-6811
Y-7811
X-16248Y-4311
X-15248
X-2744Y-5311
X-1744
Y-6311
X-2744
Y-11311
X-1744
Y-12311
X-2744
Y-13311
X-1744
Y-14311
Y-15311
X-2744
Y-14311
Y-16311
X-1744
T09
X-22697Y-38445
X-925
Y-925
X-22697
M30
