G04 Layer_Physical_Order=1*
G04 Layer_Color=255*
%FSLAX43Y43*%
%MOMM*%
G71*
G01*
G75*
%ADD10C,0.180*%
%ADD11R,0.650X0.800*%
%ADD12R,0.800X0.650*%
%ADD13R,0.500X0.600*%
%ADD14R,0.600X0.900*%
%ADD15R,0.650X0.500*%
%ADD16R,0.900X0.600*%
%ADD17R,0.700X0.700*%
%ADD18R,0.700X0.700*%
%ADD19R,0.762X0.762*%
%ADD20R,0.550X0.600*%
%ADD21R,0.500X0.650*%
%ADD22R,1.000X2.250*%
%ADD23R,1.200X1.200*%
%ADD24R,1.200X1.200*%
G04:AMPARAMS|DCode=25|XSize=1.499mm|YSize=1.575mm|CornerRadius=0.225mm|HoleSize=0mm|Usage=FLASHONLY|Rotation=180.000|XOffset=0mm|YOffset=0mm|HoleType=Round|Shape=RoundedRectangle|*
%AMROUNDEDRECTD25*
21,1,1.499,1.125,0,0,180.0*
21,1,1.049,1.575,0,0,180.0*
1,1,0.450,-0.525,0.563*
1,1,0.450,0.525,0.563*
1,1,0.450,0.525,-0.563*
1,1,0.450,-0.525,-0.563*
%
%ADD25ROUNDEDRECTD25*%
G04:AMPARAMS|DCode=26|XSize=0.406mm|YSize=1.346mm|CornerRadius=0.102mm|HoleSize=0mm|Usage=FLASHONLY|Rotation=180.000|XOffset=0mm|YOffset=0mm|HoleType=Round|Shape=RoundedRectangle|*
%AMROUNDEDRECTD26*
21,1,0.406,1.143,0,0,180.0*
21,1,0.203,1.346,0,0,180.0*
1,1,0.203,-0.102,0.572*
1,1,0.203,0.102,0.572*
1,1,0.203,0.102,-0.572*
1,1,0.203,-0.102,-0.572*
%
%ADD26ROUNDEDRECTD26*%
%ADD27R,0.600X0.550*%
%ADD28R,0.762X0.762*%
%ADD29R,1.300X3.400*%
%ADD30R,1.600X1.400*%
%ADD31R,0.300X0.700*%
%ADD32O,0.500X1.600*%
%ADD33O,1.600X0.500*%
%ADD34R,1.300X1.600*%
%ADD35R,1.550X1.000*%
%ADD36C,0.200*%
%ADD37C,0.300*%
%ADD38C,0.250*%
%ADD39C,0.150*%
%ADD40C,0.400*%
%ADD41C,0.175*%
%ADD42C,0.500*%
%ADD43C,3.600*%
%ADD44R,1.700X1.700*%
%ADD45R,1.700X1.700*%
%ADD46C,1.700*%
%ADD47O,1.250X0.950*%
G04:AMPARAMS|DCode=48|XSize=1.25mm|YSize=0.95mm|CornerRadius=0.475mm|HoleSize=0mm|Usage=FLASHONLY|Rotation=180.000|XOffset=0mm|YOffset=0mm|HoleType=Round|Shape=RoundedRectangle|*
%AMROUNDEDRECTD48*
21,1,1.250,0.000,0,0,180.0*
21,1,0.300,0.950,0,0,180.0*
1,1,0.950,-0.150,0.000*
1,1,0.950,0.150,0.000*
1,1,0.950,0.150,0.000*
1,1,0.950,-0.150,0.000*
%
%ADD48ROUNDEDRECTD48*%
%ADD49O,0.900X1.550*%
%ADD50C,0.850*%
%ADD51C,0.550*%
%ADD52C,0.400*%
%ADD53C,0.559*%
G36*
X-529Y-99471D02*
X-43306D01*
X-43306Y-90537D01*
X-42858D01*
X-42760Y-90518D01*
X-42677Y-90463D01*
X-42607Y-90393D01*
X-42525Y-90409D01*
X-42349Y-90374D01*
X-42201Y-90274D01*
X-42101Y-90126D01*
X-42066Y-89950D01*
X-42101Y-89774D01*
X-42201Y-89626D01*
X-42349Y-89526D01*
X-42525Y-89491D01*
X-42701Y-89526D01*
X-42849Y-89626D01*
X-42949Y-89774D01*
X-42984Y-89950D01*
X-43048Y-90028D01*
X-43306D01*
Y-87760D01*
X-47279D01*
X-47318Y-87560D01*
X-47274Y-87542D01*
X-46971Y-87309D01*
X-46738Y-87006D01*
X-46613Y-86704D01*
X-46448Y-86683D01*
X-46402Y-86693D01*
X-46360Y-86792D01*
X-46196Y-87006D01*
X-45982Y-87170D01*
X-45733Y-87274D01*
X-45465Y-87309D01*
X-45197Y-87274D01*
X-44948Y-87170D01*
X-44734Y-87006D01*
X-44570Y-86792D01*
X-44466Y-86543D01*
X-44431Y-86275D01*
X-44466Y-86007D01*
X-44570Y-85758D01*
X-44734Y-85544D01*
X-44948Y-85380D01*
X-45197Y-85276D01*
X-45465Y-85241D01*
X-45733Y-85276D01*
X-45982Y-85380D01*
X-46196Y-85544D01*
X-46360Y-85758D01*
X-46402Y-85857D01*
X-46448Y-85867D01*
X-46613Y-85846D01*
X-46738Y-85544D01*
X-46971Y-85241D01*
X-47274Y-85008D01*
X-47391Y-84960D01*
X-47351Y-84760D01*
X-46980D01*
Y-82710D01*
X-49030D01*
Y-84760D01*
X-48659D01*
X-48619Y-84960D01*
X-48736Y-85008D01*
X-49039Y-85241D01*
X-49272Y-85544D01*
X-49280Y-85564D01*
X-51618D01*
X-52354Y-84828D01*
Y-78830D01*
X-51610D01*
Y-78578D01*
X-51545Y-78405D01*
X-51410Y-78405D01*
X-49495D01*
Y-76355D01*
X-50240D01*
Y-66497D01*
X-50206Y-66474D01*
X-50106Y-66326D01*
X-50071Y-66150D01*
X-50106Y-65974D01*
X-50206Y-65826D01*
Y-65659D01*
X-50106Y-65511D01*
X-50071Y-65335D01*
X-50106Y-65159D01*
X-50206Y-65011D01*
X-50275Y-64964D01*
Y-55550D01*
X-49520D01*
X-49510Y-55746D01*
Y-67401D01*
X-49558Y-67432D01*
X-49658Y-67583D01*
X-49693Y-67760D01*
X-49658Y-67937D01*
X-49558Y-68088D01*
X-49407Y-68188D01*
X-49230Y-68223D01*
X-49053Y-68188D01*
X-48902Y-68088D01*
X-48802Y-67937D01*
X-48767Y-67760D01*
X-48802Y-67583D01*
X-48902Y-67432D01*
X-48950Y-67401D01*
Y-55550D01*
X-46980D01*
X-46970Y-55746D01*
Y-68004D01*
X-48178Y-69212D01*
X-48239Y-69303D01*
X-48260Y-69410D01*
Y-76355D01*
X-49005D01*
Y-78405D01*
X-46955D01*
Y-76355D01*
X-47700D01*
Y-69526D01*
X-46492Y-68318D01*
X-46431Y-68227D01*
X-46410Y-68120D01*
Y-55550D01*
X-44450D01*
Y-72074D01*
X-45638Y-73262D01*
X-45699Y-73353D01*
X-45720Y-73460D01*
Y-76355D01*
X-46465D01*
Y-78405D01*
X-44415D01*
Y-76355D01*
X-45160D01*
Y-73576D01*
X-43972Y-72388D01*
X-43911Y-72297D01*
X-43890Y-72190D01*
Y-55550D01*
X-43180D01*
Y-62553D01*
X-43244Y-62596D01*
X-43344Y-62744D01*
X-43379Y-62920D01*
X-43344Y-63096D01*
X-43244Y-63244D01*
X-43096Y-63344D01*
X-42920Y-63379D01*
X-42744Y-63344D01*
X-42596Y-63244D01*
X-42496Y-63096D01*
X-42461Y-62920D01*
X-42496Y-62744D01*
X-42596Y-62596D01*
X-42620Y-62580D01*
Y-55550D01*
X-41920D01*
Y-63984D01*
X-43098Y-65162D01*
X-43159Y-65253D01*
X-43180Y-65360D01*
Y-76355D01*
X-43925D01*
Y-78405D01*
X-41875D01*
Y-76355D01*
X-42620D01*
Y-65476D01*
X-41442Y-64298D01*
X-41381Y-64207D01*
X-41360Y-64100D01*
Y-55550D01*
X-40615D01*
Y-61309D01*
X-40684Y-61356D01*
X-40784Y-61504D01*
X-40819Y-61680D01*
X-40784Y-61856D01*
X-40684Y-62004D01*
X-40536Y-62104D01*
X-40360Y-62139D01*
X-40184Y-62104D01*
X-40036Y-62004D01*
X-39936Y-61856D01*
X-39901Y-61680D01*
X-39936Y-61504D01*
X-40036Y-61356D01*
X-40105Y-61309D01*
Y-55550D01*
X-39426D01*
Y-59980D01*
X-39426Y-59980D01*
X-39403Y-60097D01*
X-39336Y-60196D01*
X-38126Y-61407D01*
Y-76355D01*
X-38845D01*
Y-78405D01*
X-38126D01*
Y-81240D01*
X-38126Y-81240D01*
X-38103Y-81357D01*
X-38036Y-81456D01*
X-37526Y-81966D01*
X-37526Y-81966D01*
X-37427Y-82033D01*
X-37310Y-82056D01*
X-29690D01*
X-29664Y-82094D01*
X-29516Y-82194D01*
X-29340Y-82229D01*
X-29164Y-82194D01*
X-29016Y-82094D01*
X-28916Y-81946D01*
X-28881Y-81770D01*
X-28916Y-81594D01*
X-29016Y-81446D01*
X-29164Y-81346D01*
X-29340Y-81311D01*
X-29516Y-81346D01*
X-29662Y-81444D01*
X-37183D01*
X-37514Y-81113D01*
Y-78405D01*
X-36795D01*
Y-76355D01*
X-37514D01*
Y-61280D01*
X-37514Y-61280D01*
X-37537Y-61163D01*
X-37604Y-61064D01*
X-38814Y-59853D01*
Y-55550D01*
X-36820D01*
Y-53500D01*
X-38814D01*
Y-49597D01*
X-38299Y-49081D01*
X-38088Y-49169D01*
X-37820Y-49204D01*
X-37552Y-49169D01*
X-37303Y-49065D01*
X-37089Y-48901D01*
X-36925Y-48687D01*
X-36821Y-48438D01*
X-36786Y-48170D01*
X-36821Y-47902D01*
X-36925Y-47653D01*
X-37089Y-47439D01*
X-37303Y-47275D01*
X-37552Y-47171D01*
X-37820Y-47136D01*
X-38088Y-47171D01*
X-38337Y-47275D01*
X-38551Y-47439D01*
X-38715Y-47653D01*
X-38819Y-47902D01*
X-38854Y-48170D01*
X-38819Y-48438D01*
X-38731Y-48649D01*
X-39336Y-49254D01*
X-39403Y-49353D01*
X-39426Y-49470D01*
X-39426Y-49470D01*
Y-53500D01*
X-40105D01*
Y-51401D01*
X-40036Y-51354D01*
X-39936Y-51206D01*
X-39901Y-51030D01*
X-39936Y-50854D01*
X-40036Y-50706D01*
X-40184Y-50606D01*
X-40360Y-50571D01*
X-40536Y-50606D01*
X-40684Y-50706D01*
X-40784Y-50854D01*
X-40819Y-51030D01*
X-40784Y-51206D01*
X-40684Y-51354D01*
X-40615Y-51401D01*
Y-53500D01*
X-41360D01*
Y-48921D01*
X-41160Y-48853D01*
X-41109Y-48919D01*
X-40890Y-49087D01*
X-40634Y-49193D01*
X-40460Y-49216D01*
Y-48170D01*
Y-47124D01*
X-40634Y-47147D01*
X-40890Y-47253D01*
X-41109Y-47421D01*
X-41160Y-47487D01*
X-41360Y-47419D01*
Y-46890D01*
X-41381Y-46783D01*
X-41442Y-46692D01*
X-41999Y-46134D01*
X-41901Y-45898D01*
X-41866Y-45630D01*
X-41901Y-45362D01*
X-42005Y-45113D01*
X-42169Y-44899D01*
X-42383Y-44735D01*
X-42632Y-44631D01*
X-42645Y-44630D01*
Y-43446D01*
X-42232Y-43033D01*
X-42150Y-43049D01*
X-41974Y-43014D01*
X-41826Y-42914D01*
X-41726Y-42766D01*
X-41691Y-42590D01*
X-41726Y-42414D01*
X-41826Y-42266D01*
X-41974Y-42166D01*
X-42150Y-42131D01*
X-42326Y-42166D01*
X-42474Y-42266D01*
X-42574Y-42414D01*
X-42609Y-42590D01*
X-42592Y-42672D01*
X-43080Y-43160D01*
X-43135Y-43242D01*
X-43155Y-43340D01*
Y-44630D01*
X-43168Y-44631D01*
X-43417Y-44735D01*
X-43631Y-44899D01*
X-43795Y-45113D01*
X-43899Y-45362D01*
X-43934Y-45630D01*
X-43899Y-45898D01*
X-43795Y-46147D01*
X-43631Y-46361D01*
X-43417Y-46525D01*
X-43168Y-46629D01*
X-42900Y-46664D01*
X-42632Y-46629D01*
X-42396Y-46531D01*
X-41920Y-47006D01*
Y-47434D01*
X-42120Y-47502D01*
X-42169Y-47439D01*
X-42383Y-47275D01*
X-42632Y-47171D01*
X-42900Y-47136D01*
X-43168Y-47171D01*
X-43417Y-47275D01*
X-43631Y-47439D01*
X-43795Y-47653D01*
X-43899Y-47902D01*
X-43934Y-48170D01*
X-43899Y-48438D01*
X-43795Y-48687D01*
X-43794Y-48688D01*
X-44898Y-49792D01*
X-44959Y-49883D01*
X-44960Y-49885D01*
X-45160Y-49866D01*
Y-49163D01*
X-44923Y-49065D01*
X-44709Y-48901D01*
X-44545Y-48687D01*
X-44441Y-48438D01*
X-44406Y-48170D01*
X-44441Y-47902D01*
X-44545Y-47653D01*
X-44709Y-47439D01*
X-44923Y-47275D01*
X-45172Y-47171D01*
X-45440Y-47136D01*
X-45708Y-47171D01*
X-45944Y-47269D01*
X-46410Y-46804D01*
Y-46379D01*
X-46210Y-46311D01*
X-46171Y-46361D01*
X-45957Y-46525D01*
X-45708Y-46629D01*
X-45440Y-46664D01*
X-45172Y-46629D01*
X-44923Y-46525D01*
X-44709Y-46361D01*
X-44545Y-46147D01*
X-44441Y-45898D01*
X-44406Y-45630D01*
X-44441Y-45362D01*
X-44545Y-45113D01*
X-44709Y-44899D01*
X-44923Y-44735D01*
X-45160Y-44637D01*
Y-41445D01*
X-44884Y-41170D01*
X-36197D01*
X-36160Y-41224D01*
X-36012Y-41324D01*
X-35836Y-41359D01*
X-35660Y-41324D01*
X-35512Y-41224D01*
X-35412Y-41076D01*
X-35377Y-40900D01*
X-35412Y-40724D01*
X-35512Y-40576D01*
X-35570Y-40536D01*
Y-36521D01*
X-35501Y-36474D01*
X-35401Y-36326D01*
X-35366Y-36150D01*
X-35401Y-35974D01*
X-35501Y-35826D01*
X-35650Y-35726D01*
X-35825Y-35691D01*
X-36001Y-35726D01*
X-36150Y-35826D01*
X-36249Y-35974D01*
X-36284Y-36150D01*
X-36249Y-36326D01*
X-36150Y-36474D01*
X-36080Y-36521D01*
Y-40522D01*
X-36160Y-40576D01*
X-36183Y-40609D01*
X-36612D01*
X-36704Y-40409D01*
X-36651Y-40331D01*
X-36616Y-40155D01*
X-36651Y-39979D01*
X-36751Y-39831D01*
X-36820Y-39784D01*
Y-36121D01*
X-36751Y-36074D01*
X-36651Y-35926D01*
X-36616Y-35750D01*
X-36635Y-35655D01*
X-36509Y-35455D01*
X-35157D01*
X-35031Y-35655D01*
X-35050Y-35750D01*
X-35015Y-35926D01*
X-34915Y-36074D01*
X-34846Y-36121D01*
Y-42220D01*
X-34914Y-42266D01*
X-35014Y-42414D01*
X-35049Y-42590D01*
X-35014Y-42766D01*
X-34914Y-42914D01*
X-34766Y-43014D01*
X-34590Y-43049D01*
X-34414Y-43014D01*
X-34266Y-42914D01*
X-34166Y-42766D01*
X-34131Y-42590D01*
X-34166Y-42414D01*
X-34266Y-42266D01*
X-34336Y-42218D01*
Y-36121D01*
X-34267Y-36074D01*
X-34167Y-35926D01*
X-34132Y-35750D01*
X-34151Y-35655D01*
X-34025Y-35455D01*
X-32662D01*
X-32535Y-35655D01*
X-32554Y-35750D01*
X-32519Y-35925D01*
X-32420Y-36074D01*
X-32376Y-36104D01*
Y-56789D01*
X-34718Y-59132D01*
X-34779Y-59223D01*
X-34800Y-59330D01*
Y-66591D01*
X-34830Y-66610D01*
X-34929Y-66759D01*
X-34964Y-66935D01*
X-34929Y-67110D01*
X-34830Y-67259D01*
X-34800Y-67279D01*
Y-73080D01*
X-34779Y-73187D01*
X-34718Y-73278D01*
X-33190Y-74806D01*
Y-77971D01*
X-33234Y-78001D01*
X-33334Y-78149D01*
X-33369Y-78325D01*
X-33334Y-78501D01*
X-33234Y-78649D01*
X-33086Y-78749D01*
X-32910Y-78784D01*
X-32734Y-78749D01*
X-32586Y-78649D01*
X-32550Y-78597D01*
X-32350Y-78657D01*
Y-79156D01*
X-32394Y-79186D01*
X-32494Y-79334D01*
X-32529Y-79510D01*
X-32494Y-79686D01*
X-32394Y-79834D01*
X-32246Y-79934D01*
X-32070Y-79969D01*
X-31894Y-79934D01*
X-31746Y-79834D01*
X-31646Y-79686D01*
X-31611Y-79510D01*
X-31646Y-79334D01*
X-31746Y-79186D01*
X-31790Y-79156D01*
Y-74320D01*
X-31811Y-74213D01*
X-31872Y-74122D01*
X-33370Y-72624D01*
Y-68035D01*
X-29330D01*
Y-68472D01*
X-31949D01*
X-31996Y-68403D01*
X-32144Y-68303D01*
X-32320Y-68268D01*
X-32496Y-68303D01*
X-32644Y-68403D01*
X-32744Y-68551D01*
X-32779Y-68727D01*
X-32744Y-68903D01*
X-32644Y-69051D01*
X-32496Y-69151D01*
X-32320Y-69186D01*
X-32144Y-69151D01*
X-31996Y-69051D01*
X-31949Y-68982D01*
X-29330D01*
Y-70240D01*
X-25913D01*
X-25837Y-70425D01*
X-26984Y-71572D01*
X-27071Y-71536D01*
X-27339Y-71501D01*
X-27607Y-71536D01*
X-27856Y-71640D01*
X-28070Y-71804D01*
X-28234Y-72018D01*
X-28338Y-72267D01*
X-28373Y-72535D01*
X-28338Y-72803D01*
X-28234Y-73052D01*
X-28070Y-73266D01*
X-27856Y-73430D01*
X-27607Y-73534D01*
X-27339Y-73569D01*
X-27071Y-73534D01*
X-26822Y-73430D01*
X-26608Y-73266D01*
X-26444Y-73052D01*
X-26340Y-72803D01*
X-26305Y-72535D01*
X-26340Y-72267D01*
X-26444Y-72018D01*
X-26465Y-71990D01*
X-25679Y-71204D01*
X-25494Y-71281D01*
Y-71875D01*
X-25469D01*
Y-72950D01*
X-24926D01*
X-24874Y-73005D01*
X-24961Y-73205D01*
X-25255D01*
Y-74774D01*
X-26314D01*
Y-74050D01*
X-28364D01*
Y-76100D01*
X-26314D01*
Y-75386D01*
X-25255D01*
Y-76955D01*
X-23605D01*
Y-73205D01*
X-24124D01*
Y-72988D01*
X-24086Y-72950D01*
X-23419D01*
Y-71875D01*
X-23394D01*
Y-71205D01*
X-23209Y-71128D01*
X-22661Y-71676D01*
Y-73205D01*
X-23155D01*
Y-76955D01*
X-21505D01*
Y-73205D01*
X-21999D01*
Y-71539D01*
X-22005Y-71505D01*
X-21821Y-71407D01*
X-21641Y-71586D01*
X-21542Y-71653D01*
X-21425Y-71676D01*
X-21425Y-71676D01*
X-21376D01*
X-21195Y-71720D01*
Y-72270D01*
X-20195D01*
Y-71720D01*
X-20002Y-71701D01*
X-19803D01*
Y-72053D01*
X-18691D01*
Y-71701D01*
X-18125D01*
Y-72125D01*
X-17075D01*
Y-71075D01*
X-18125D01*
Y-71089D01*
X-18691D01*
Y-70941D01*
X-19803D01*
Y-71089D01*
X-20220D01*
Y-70705D01*
X-14756D01*
X-14630Y-70830D01*
X-14548Y-70885D01*
X-14450Y-70905D01*
X-13471D01*
X-13444Y-70944D01*
X-13375Y-70991D01*
Y-74784D01*
X-13736Y-75145D01*
X-14734D01*
Y-74900D01*
X-15734D01*
X-15884Y-74900D01*
X-16084Y-74900D01*
X-16899D01*
X-16915Y-74900D01*
X-16939Y-74776D01*
X-16939Y-74775D01*
X-16836Y-74624D01*
X-16833Y-74620D01*
X-16736Y-74476D01*
X-16701Y-74300D01*
X-16736Y-74124D01*
X-16836Y-73976D01*
X-16984Y-73876D01*
X-17160Y-73841D01*
X-17308Y-73715D01*
X-17309Y-73667D01*
X-17168Y-73525D01*
X-17075D01*
Y-72475D01*
X-18125D01*
Y-73525D01*
X-17977D01*
X-17925Y-73725D01*
X-18080Y-73847D01*
X-18110Y-73841D01*
X-18286Y-73876D01*
X-18434Y-73976D01*
X-18534Y-74124D01*
X-18569Y-74300D01*
X-18534Y-74476D01*
X-18434Y-74624D01*
X-18286Y-74724D01*
X-18110Y-74759D01*
X-17934Y-74724D01*
X-17872Y-74682D01*
X-17398D01*
X-17336Y-74724D01*
X-17205Y-74750D01*
X-17132Y-74840D01*
X-17122Y-74852D01*
X-17122Y-74852D01*
X-17084Y-74991D01*
X-17084D01*
X-17084Y-74991D01*
Y-75900D01*
X-17084D01*
Y-76075D01*
X-17084D01*
Y-77075D01*
X-16789D01*
Y-77121D01*
X-16768Y-77228D01*
X-16707Y-77319D01*
X-15991Y-78036D01*
X-16056Y-78253D01*
X-16065Y-78255D01*
X-16080Y-78255D01*
X-16915D01*
Y-78475D01*
X-17250D01*
Y-78025D01*
X-17495D01*
Y-77361D01*
X-17426Y-77314D01*
X-17326Y-77166D01*
X-17291Y-76990D01*
X-17326Y-76814D01*
X-17426Y-76666D01*
X-17574Y-76566D01*
X-17750Y-76531D01*
X-17926Y-76566D01*
X-18074Y-76666D01*
X-18174Y-76814D01*
X-18209Y-76990D01*
X-18174Y-77166D01*
X-18074Y-77314D01*
X-18005Y-77361D01*
Y-78025D01*
X-18250D01*
Y-79025D01*
X-18250Y-79175D01*
X-18250Y-79375D01*
Y-79958D01*
X-18444Y-80044D01*
X-18550Y-79959D01*
X-18550Y-79225D01*
X-18550Y-79025D01*
Y-78025D01*
X-18795D01*
Y-76081D01*
X-18726Y-76034D01*
X-18626Y-75886D01*
X-18591Y-75710D01*
X-18626Y-75534D01*
X-18726Y-75386D01*
X-18874Y-75286D01*
X-19050Y-75251D01*
X-19226Y-75286D01*
X-19374Y-75386D01*
X-19474Y-75534D01*
X-19509Y-75710D01*
X-19474Y-75886D01*
X-19374Y-76034D01*
X-19305Y-76081D01*
Y-78025D01*
X-19550D01*
Y-78475D01*
X-19885D01*
Y-78255D01*
X-20735D01*
Y-79105D01*
X-20735Y-79205D01*
X-20735Y-79380D01*
Y-79766D01*
X-20845Y-79820D01*
X-20935Y-79843D01*
X-21064Y-79756D01*
X-21240Y-79721D01*
X-21416Y-79756D01*
X-21564Y-79856D01*
X-21664Y-80004D01*
X-21699Y-80180D01*
X-21664Y-80356D01*
X-21564Y-80504D01*
X-21416Y-80604D01*
X-21240Y-80639D01*
X-21064Y-80604D01*
X-20916Y-80504D01*
X-20886Y-80460D01*
X-20650D01*
X-20543Y-80439D01*
X-20452Y-80378D01*
X-20328Y-80255D01*
X-19885D01*
Y-79405D01*
X-19885Y-79305D01*
X-19885Y-79185D01*
X-19838Y-79114D01*
X-19601Y-79083D01*
X-19587Y-79089D01*
X-19550Y-79126D01*
X-19550Y-79375D01*
Y-80375D01*
X-18885D01*
X-18505Y-80756D01*
Y-81225D01*
X-19575D01*
Y-81495D01*
X-19779D01*
X-19826Y-81426D01*
X-19974Y-81326D01*
X-20150Y-81291D01*
X-20326Y-81326D01*
X-20474Y-81426D01*
X-20574Y-81574D01*
X-20609Y-81750D01*
X-20574Y-81926D01*
X-20541Y-81975D01*
X-20575Y-82175D01*
X-20575Y-82175D01*
Y-83100D01*
X-20600D01*
Y-83525D01*
X-20150D01*
Y-83625D01*
X-20050D01*
Y-84150D01*
X-19775D01*
X-19700Y-84150D01*
X-19575Y-84298D01*
Y-85175D01*
X-18100D01*
Y-85200D01*
X-17850D01*
Y-84650D01*
X-17750D01*
Y-84550D01*
X-17400D01*
Y-84100D01*
X-17500Y-83941D01*
Y-83300D01*
X-18500D01*
Y-83100D01*
X-17500D01*
Y-82444D01*
X-17425Y-82275D01*
X-17425Y-82131D01*
Y-81225D01*
X-17495D01*
Y-80375D01*
X-17250D01*
Y-79375D01*
X-17250Y-79225D01*
Y-79126D01*
X-17213Y-79089D01*
X-16952D01*
X-16915Y-79126D01*
Y-79205D01*
X-16915Y-79380D01*
Y-80255D01*
X-16492D01*
X-16368Y-80378D01*
X-16277Y-80439D01*
X-16170Y-80460D01*
X-15954D01*
X-15924Y-80504D01*
X-15776Y-80604D01*
X-15600Y-80639D01*
X-15424Y-80604D01*
X-15276Y-80504D01*
X-15176Y-80356D01*
X-15141Y-80180D01*
X-15176Y-80004D01*
X-15276Y-79856D01*
X-15320Y-79826D01*
Y-78030D01*
X-15341Y-77923D01*
X-15402Y-77832D01*
X-16000Y-77234D01*
X-15982Y-77190D01*
X-15876Y-77075D01*
X-15734Y-77075D01*
X-14734D01*
Y-76830D01*
X-13125D01*
X-13027Y-76811D01*
X-12945Y-76755D01*
X-12666Y-76476D01*
X-12481Y-76553D01*
Y-85368D01*
X-12742Y-85630D01*
X-12878Y-85648D01*
X-13091Y-85736D01*
X-13274Y-85876D01*
X-13414Y-86059D01*
X-13502Y-86272D01*
X-13533Y-86500D01*
X-13502Y-86728D01*
X-13414Y-86941D01*
X-13274Y-87124D01*
X-13091Y-87264D01*
X-12878Y-87352D01*
X-12650Y-87383D01*
X-12422Y-87352D01*
X-12209Y-87264D01*
X-12026Y-87124D01*
X-11886Y-86941D01*
X-11798Y-86728D01*
X-11780Y-86592D01*
X-11319Y-86131D01*
X-11210Y-85990D01*
X-11142Y-85826D01*
X-11119Y-85650D01*
Y-76282D01*
X-10815Y-75978D01*
X-10630Y-76054D01*
Y-76609D01*
X-10714Y-76666D01*
X-10814Y-76814D01*
X-10849Y-76990D01*
X-10814Y-77166D01*
X-10714Y-77314D01*
X-10566Y-77414D01*
X-10390Y-77449D01*
X-10214Y-77414D01*
X-10066Y-77314D01*
X-9966Y-77166D01*
X-9931Y-76990D01*
X-9966Y-76814D01*
X-10066Y-76666D01*
X-10120Y-76629D01*
Y-64876D01*
X-9962Y-64753D01*
X-9920Y-64753D01*
X-9700Y-64782D01*
X-9635Y-64774D01*
X-9435Y-64945D01*
Y-81699D01*
X-9504Y-81746D01*
X-9604Y-81894D01*
X-9639Y-82070D01*
X-9604Y-82246D01*
X-9504Y-82394D01*
X-9435Y-82441D01*
Y-87822D01*
X-9514Y-87876D01*
X-9614Y-88024D01*
X-9649Y-88200D01*
X-9614Y-88376D01*
X-9514Y-88524D01*
X-9366Y-88624D01*
X-9190Y-88659D01*
X-9014Y-88624D01*
X-8866Y-88524D01*
X-8766Y-88376D01*
X-8731Y-88200D01*
X-8766Y-88024D01*
X-8866Y-87876D01*
X-8925Y-87836D01*
Y-83284D01*
X-8789Y-83222D01*
X-8725Y-83215D01*
X-7858Y-84083D01*
X-7865Y-84093D01*
X-7969Y-84342D01*
X-8004Y-84610D01*
X-7969Y-84878D01*
X-7865Y-85127D01*
X-7701Y-85341D01*
X-7487Y-85505D01*
X-7238Y-85609D01*
X-6970Y-85644D01*
X-6702Y-85609D01*
X-6453Y-85505D01*
X-6239Y-85341D01*
X-6075Y-85127D01*
X-5971Y-84878D01*
X-5936Y-84610D01*
X-5971Y-84342D01*
X-6075Y-84093D01*
X-6239Y-83879D01*
X-6453Y-83715D01*
X-6702Y-83611D01*
X-6970Y-83576D01*
X-7238Y-83611D01*
X-7487Y-83715D01*
X-7497Y-83722D01*
X-8305Y-82914D01*
Y-63512D01*
X-8194Y-63421D01*
X-7995Y-63495D01*
Y-65315D01*
X-5975D01*
Y-66115D01*
X-6175Y-66182D01*
X-6239Y-66099D01*
X-6453Y-65935D01*
X-6702Y-65831D01*
X-6970Y-65796D01*
X-7238Y-65831D01*
X-7487Y-65935D01*
X-7701Y-66099D01*
X-7865Y-66313D01*
X-7969Y-66562D01*
X-8004Y-66830D01*
X-7969Y-67098D01*
X-7865Y-67347D01*
X-7701Y-67561D01*
X-7487Y-67725D01*
X-7238Y-67829D01*
X-6970Y-67864D01*
X-6702Y-67829D01*
X-6453Y-67725D01*
X-6239Y-67561D01*
X-6175Y-67478D01*
X-5975Y-67545D01*
Y-68655D01*
X-6175Y-68722D01*
X-6239Y-68639D01*
X-6453Y-68475D01*
X-6702Y-68371D01*
X-6970Y-68336D01*
X-7238Y-68371D01*
X-7487Y-68475D01*
X-7701Y-68639D01*
X-7865Y-68853D01*
X-7969Y-69102D01*
X-8004Y-69370D01*
X-7969Y-69638D01*
X-7865Y-69887D01*
X-7701Y-70101D01*
X-7487Y-70265D01*
X-7238Y-70369D01*
X-6970Y-70404D01*
X-6702Y-70369D01*
X-6453Y-70265D01*
X-6239Y-70101D01*
X-6175Y-70018D01*
X-5975Y-70085D01*
Y-71195D01*
X-6175Y-71262D01*
X-6239Y-71179D01*
X-6453Y-71015D01*
X-6702Y-70911D01*
X-6970Y-70876D01*
X-7238Y-70911D01*
X-7487Y-71015D01*
X-7701Y-71179D01*
X-7865Y-71393D01*
X-7969Y-71642D01*
X-8004Y-71910D01*
X-7969Y-72178D01*
X-7865Y-72427D01*
X-7701Y-72641D01*
X-7487Y-72805D01*
X-7238Y-72909D01*
X-6970Y-72944D01*
X-6702Y-72909D01*
X-6453Y-72805D01*
X-6239Y-72641D01*
X-6175Y-72558D01*
X-5975Y-72625D01*
Y-73735D01*
X-6175Y-73802D01*
X-6239Y-73719D01*
X-6453Y-73555D01*
X-6702Y-73451D01*
X-6970Y-73416D01*
X-7238Y-73451D01*
X-7487Y-73555D01*
X-7701Y-73719D01*
X-7865Y-73933D01*
X-7969Y-74182D01*
X-8004Y-74450D01*
X-7969Y-74718D01*
X-7865Y-74967D01*
X-7701Y-75181D01*
X-7487Y-75345D01*
X-7238Y-75449D01*
X-6970Y-75484D01*
X-6702Y-75449D01*
X-6453Y-75345D01*
X-6239Y-75181D01*
X-6175Y-75098D01*
X-5975Y-75165D01*
Y-75700D01*
X-5955Y-75798D01*
X-5900Y-75880D01*
X-5318Y-76463D01*
X-5325Y-76473D01*
X-5429Y-76722D01*
X-5464Y-76990D01*
X-5429Y-77258D01*
X-5325Y-77507D01*
X-5161Y-77721D01*
X-4947Y-77885D01*
X-4698Y-77989D01*
X-4430Y-78024D01*
X-4162Y-77989D01*
X-3913Y-77885D01*
X-3699Y-77721D01*
X-3535Y-77507D01*
X-3431Y-77258D01*
X-3430Y-77246D01*
X-3230Y-77259D01*
Y-79261D01*
X-3430Y-79274D01*
X-3431Y-79262D01*
X-3535Y-79013D01*
X-3699Y-78799D01*
X-3913Y-78635D01*
X-4162Y-78531D01*
X-4430Y-78496D01*
X-4698Y-78531D01*
X-4947Y-78635D01*
X-5161Y-78799D01*
X-5325Y-79013D01*
X-5429Y-79262D01*
X-5464Y-79530D01*
X-5429Y-79798D01*
X-5325Y-80047D01*
X-5161Y-80261D01*
X-4947Y-80425D01*
X-4698Y-80529D01*
X-4430Y-80564D01*
X-4162Y-80529D01*
X-3913Y-80425D01*
X-3699Y-80261D01*
X-3535Y-80047D01*
X-3431Y-79798D01*
X-3430Y-79786D01*
X-3230Y-79799D01*
Y-81801D01*
X-3430Y-81814D01*
X-3431Y-81802D01*
X-3535Y-81553D01*
X-3699Y-81339D01*
X-3913Y-81175D01*
X-4162Y-81071D01*
X-4430Y-81036D01*
X-4698Y-81071D01*
X-4947Y-81175D01*
X-5161Y-81339D01*
X-5325Y-81553D01*
X-5429Y-81802D01*
X-5464Y-82070D01*
X-5429Y-82338D01*
X-5325Y-82587D01*
X-5161Y-82801D01*
X-4947Y-82965D01*
X-4698Y-83069D01*
X-4430Y-83104D01*
X-4162Y-83069D01*
X-3913Y-82965D01*
X-3699Y-82801D01*
X-3535Y-82587D01*
X-3431Y-82338D01*
X-3430Y-82326D01*
X-3230Y-82339D01*
Y-83049D01*
X-3903Y-83722D01*
X-3913Y-83715D01*
X-4162Y-83611D01*
X-4430Y-83576D01*
X-4698Y-83611D01*
X-4947Y-83715D01*
X-5161Y-83879D01*
X-5325Y-84093D01*
X-5429Y-84342D01*
X-5464Y-84610D01*
X-5429Y-84878D01*
X-5325Y-85127D01*
X-5161Y-85341D01*
X-4947Y-85505D01*
X-4698Y-85609D01*
X-4430Y-85644D01*
X-4162Y-85609D01*
X-3913Y-85505D01*
X-3699Y-85341D01*
X-3535Y-85127D01*
X-3431Y-84878D01*
X-3396Y-84610D01*
X-3431Y-84342D01*
X-3535Y-84093D01*
X-3542Y-84083D01*
X-2795Y-83335D01*
X-2740Y-83253D01*
X-2720Y-83155D01*
Y-50505D01*
X-2740Y-50407D01*
X-2795Y-50325D01*
X-3542Y-49577D01*
X-3535Y-49567D01*
X-3431Y-49318D01*
X-3396Y-49050D01*
X-3431Y-48782D01*
X-3535Y-48533D01*
X-3699Y-48319D01*
X-3913Y-48155D01*
X-4162Y-48051D01*
X-4430Y-48016D01*
X-4698Y-48051D01*
X-4947Y-48155D01*
X-5161Y-48319D01*
X-5265Y-48455D01*
X-5465Y-48387D01*
Y-47173D01*
X-5265Y-47105D01*
X-5161Y-47241D01*
X-4947Y-47405D01*
X-4698Y-47509D01*
X-4430Y-47544D01*
X-4162Y-47509D01*
X-3913Y-47405D01*
X-3699Y-47241D01*
X-3535Y-47027D01*
X-3431Y-46778D01*
X-3396Y-46510D01*
X-3431Y-46242D01*
X-3535Y-45993D01*
X-3699Y-45779D01*
X-3913Y-45615D01*
X-4162Y-45511D01*
X-4430Y-45476D01*
X-4698Y-45511D01*
X-4947Y-45615D01*
X-5161Y-45779D01*
X-5265Y-45915D01*
X-5465Y-45847D01*
Y-44633D01*
X-5265Y-44565D01*
X-5161Y-44701D01*
X-4947Y-44865D01*
X-4698Y-44969D01*
X-4430Y-45004D01*
X-4162Y-44969D01*
X-3913Y-44865D01*
X-3699Y-44701D01*
X-3535Y-44487D01*
X-3431Y-44238D01*
X-3396Y-43970D01*
X-3431Y-43702D01*
X-3535Y-43453D01*
X-3699Y-43239D01*
X-3913Y-43075D01*
X-4162Y-42971D01*
X-4430Y-42936D01*
X-4698Y-42971D01*
X-4947Y-43075D01*
X-5161Y-43239D01*
X-5265Y-43375D01*
X-5465Y-43307D01*
Y-42826D01*
X-4957Y-42318D01*
X-4947Y-42325D01*
X-4698Y-42429D01*
X-4430Y-42464D01*
X-4162Y-42429D01*
X-3913Y-42325D01*
X-3699Y-42161D01*
X-3535Y-41947D01*
X-3431Y-41698D01*
X-3396Y-41430D01*
X-3431Y-41162D01*
X-3535Y-40913D01*
X-3699Y-40699D01*
X-3913Y-40535D01*
X-4162Y-40431D01*
X-4430Y-40396D01*
X-4698Y-40431D01*
X-4947Y-40535D01*
X-5161Y-40699D01*
X-5325Y-40913D01*
X-5429Y-41162D01*
X-5464Y-41430D01*
X-5429Y-41698D01*
X-5325Y-41947D01*
X-5318Y-41957D01*
X-5900Y-42540D01*
X-5955Y-42622D01*
X-5975Y-42720D01*
Y-43255D01*
X-6175Y-43322D01*
X-6239Y-43239D01*
X-6453Y-43075D01*
X-6702Y-42971D01*
X-6970Y-42936D01*
X-7238Y-42971D01*
X-7487Y-43075D01*
X-7701Y-43239D01*
X-7865Y-43453D01*
X-7969Y-43702D01*
X-8004Y-43970D01*
X-7969Y-44238D01*
X-7865Y-44487D01*
X-7701Y-44701D01*
X-7487Y-44865D01*
X-7238Y-44969D01*
X-6970Y-45004D01*
X-6702Y-44969D01*
X-6453Y-44865D01*
X-6239Y-44701D01*
X-6175Y-44618D01*
X-5975Y-44685D01*
Y-45795D01*
X-6175Y-45862D01*
X-6239Y-45779D01*
X-6453Y-45615D01*
X-6702Y-45511D01*
X-6970Y-45476D01*
X-7238Y-45511D01*
X-7487Y-45615D01*
X-7701Y-45779D01*
X-7865Y-45993D01*
X-7969Y-46242D01*
X-8004Y-46510D01*
X-7969Y-46778D01*
X-7865Y-47027D01*
X-7701Y-47241D01*
X-7487Y-47405D01*
X-7238Y-47509D01*
X-6970Y-47544D01*
X-6702Y-47509D01*
X-6453Y-47405D01*
X-6239Y-47241D01*
X-6175Y-47158D01*
X-5975Y-47225D01*
Y-48335D01*
X-6175Y-48402D01*
X-6239Y-48319D01*
X-6453Y-48155D01*
X-6702Y-48051D01*
X-6970Y-48016D01*
X-7238Y-48051D01*
X-7487Y-48155D01*
X-7701Y-48319D01*
X-7865Y-48533D01*
X-7969Y-48782D01*
X-8004Y-49050D01*
X-7969Y-49318D01*
X-7865Y-49567D01*
X-7701Y-49781D01*
X-7487Y-49945D01*
X-7238Y-50049D01*
X-6970Y-50084D01*
X-6702Y-50049D01*
X-6453Y-49945D01*
X-6239Y-49781D01*
X-6175Y-49698D01*
X-5975Y-49765D01*
Y-50834D01*
X-6175Y-50901D01*
X-6221Y-50841D01*
X-6440Y-50673D01*
X-6696Y-50567D01*
X-6870Y-50544D01*
Y-51590D01*
Y-52636D01*
X-6696Y-52613D01*
X-6440Y-52507D01*
X-6221Y-52339D01*
X-6175Y-52279D01*
X-5975Y-52346D01*
Y-63265D01*
X-6715D01*
Y-54390D01*
X-6734Y-54292D01*
X-6790Y-54210D01*
X-8445Y-52554D01*
Y-38521D01*
X-8376Y-38474D01*
X-8276Y-38326D01*
X-8241Y-38150D01*
X-8276Y-37974D01*
X-8376Y-37826D01*
X-8524Y-37726D01*
X-8700Y-37691D01*
X-8819Y-37715D01*
X-9019Y-37600D01*
Y-33201D01*
X-8936Y-33093D01*
X-8848Y-32880D01*
X-8817Y-32651D01*
X-8848Y-32423D01*
X-8936Y-32210D01*
X-9076Y-32027D01*
X-9259Y-31887D01*
X-9472Y-31799D01*
X-9700Y-31769D01*
X-9795Y-31781D01*
X-9995Y-31624D01*
Y-30446D01*
X-9926Y-30399D01*
X-9826Y-30251D01*
X-9791Y-30075D01*
X-9826Y-29899D01*
X-9926Y-29751D01*
X-10074Y-29651D01*
X-10250Y-29616D01*
X-10426Y-29651D01*
X-10574Y-29751D01*
X-10674Y-29899D01*
X-10709Y-30075D01*
X-10678Y-30229D01*
X-10735Y-30320D01*
X-10811Y-30406D01*
X-10950Y-30387D01*
X-11178Y-30417D01*
X-11391Y-30506D01*
X-11574Y-30646D01*
X-11714Y-30829D01*
X-11802Y-31042D01*
X-11833Y-31270D01*
X-11802Y-31498D01*
X-11714Y-31711D01*
X-11691Y-31742D01*
Y-31852D01*
X-11800Y-31941D01*
X-11975Y-31976D01*
X-12124Y-32076D01*
X-12224Y-32224D01*
X-12259Y-32400D01*
X-12224Y-32576D01*
X-12124Y-32724D01*
X-12055Y-32771D01*
Y-45851D01*
X-12077Y-45870D01*
X-12255Y-45939D01*
X-12349Y-45876D01*
X-12525Y-45841D01*
X-12596Y-45855D01*
X-12796Y-45717D01*
Y-42346D01*
X-12726Y-42299D01*
X-12626Y-42151D01*
X-12591Y-41975D01*
X-12626Y-41799D01*
X-12726Y-41651D01*
X-12874Y-41551D01*
X-13050Y-41516D01*
X-13120Y-41530D01*
X-13320Y-41392D01*
Y-40517D01*
X-13120Y-40456D01*
X-13104Y-40479D01*
X-12956Y-40579D01*
X-12780Y-40614D01*
X-12604Y-40579D01*
X-12456Y-40479D01*
X-12356Y-40331D01*
X-12321Y-40155D01*
X-12356Y-39979D01*
X-12456Y-39831D01*
X-12525Y-39784D01*
Y-32695D01*
X-12545Y-32597D01*
X-12600Y-32515D01*
X-12632Y-32482D01*
X-12616Y-32400D01*
X-12651Y-32224D01*
X-12750Y-32076D01*
X-12899Y-31976D01*
X-13075Y-31941D01*
X-13250Y-31976D01*
X-13399Y-32076D01*
X-13499Y-32224D01*
X-13534Y-32400D01*
X-13499Y-32576D01*
X-13399Y-32724D01*
X-13250Y-32824D01*
X-13075Y-32859D01*
X-13035Y-32892D01*
Y-39138D01*
X-13235Y-39199D01*
X-13251Y-39176D01*
X-13399Y-39076D01*
X-13575Y-39041D01*
X-13751Y-39076D01*
X-13899Y-39176D01*
X-13999Y-39324D01*
X-14034Y-39500D01*
X-13999Y-39676D01*
X-13899Y-39824D01*
X-13830Y-39871D01*
Y-59704D01*
X-14805Y-60679D01*
X-18750D01*
Y-59640D01*
X-19060D01*
Y-59425D01*
X-18615D01*
Y-59230D01*
X-18440D01*
X-18333Y-59209D01*
X-18242Y-59148D01*
X-18027Y-58934D01*
X-17966Y-58843D01*
X-17945Y-58735D01*
Y-58301D01*
X-17669D01*
Y-57200D01*
X-17669Y-57189D01*
X-17669Y-57189D01*
X-17705Y-57015D01*
X-17705D01*
Y-55965D01*
X-18755D01*
Y-57015D01*
X-18755D01*
X-18781Y-57189D01*
X-18781Y-57189D01*
X-18781Y-57204D01*
Y-58301D01*
X-18781D01*
X-18788Y-58319D01*
X-18842Y-58328D01*
X-18879Y-58318D01*
X-19042Y-58160D01*
Y-57845D01*
X-19622D01*
X-20204D01*
Y-58250D01*
X-20204Y-58326D01*
X-20352Y-58450D01*
X-20971D01*
X-21098Y-58295D01*
X-20706Y-57902D01*
X-20645Y-57811D01*
X-20624Y-57704D01*
Y-52236D01*
X-20424Y-52217D01*
X-20414Y-52266D01*
X-20314Y-52414D01*
X-20166Y-52514D01*
X-19990Y-52549D01*
X-19814Y-52514D01*
X-19666Y-52414D01*
X-19566Y-52266D01*
X-19531Y-52090D01*
X-19566Y-51914D01*
X-19666Y-51766D01*
X-19710Y-51736D01*
Y-47504D01*
X-19666Y-47474D01*
X-19566Y-47326D01*
X-19531Y-47150D01*
X-19566Y-46974D01*
X-19666Y-46826D01*
X-19814Y-46726D01*
X-19990Y-46691D01*
X-20166Y-46726D01*
X-20314Y-46826D01*
X-20414Y-46974D01*
X-20424Y-47023D01*
X-20624Y-47004D01*
Y-45564D01*
X-20580Y-45534D01*
X-20480Y-45386D01*
X-20445Y-45210D01*
X-20480Y-45034D01*
X-20580Y-44886D01*
X-20728Y-44786D01*
X-20904Y-44751D01*
X-21080Y-44786D01*
X-21174Y-44849D01*
X-21353Y-44779D01*
X-21374Y-44760D01*
Y-44350D01*
X-21330Y-44320D01*
X-21230Y-44172D01*
X-21195Y-43996D01*
X-21230Y-43820D01*
X-21330Y-43672D01*
X-21478Y-43572D01*
X-21654Y-43537D01*
X-21762Y-43559D01*
X-21890Y-43390D01*
X-21880Y-43376D01*
X-21845Y-43200D01*
X-21880Y-43024D01*
X-21980Y-42876D01*
X-22128Y-42776D01*
X-22304Y-42741D01*
X-22480Y-42776D01*
X-22499Y-42789D01*
X-22699Y-42682D01*
Y-37299D01*
X-22626Y-37249D01*
X-22526Y-37101D01*
X-22491Y-36925D01*
X-22526Y-36749D01*
X-22626Y-36601D01*
X-22774Y-36501D01*
X-22950Y-36466D01*
X-23126Y-36501D01*
X-23274Y-36601D01*
X-23374Y-36749D01*
X-23409Y-36925D01*
X-23374Y-37101D01*
X-23274Y-37249D01*
X-23209Y-37293D01*
Y-41866D01*
X-23409Y-41886D01*
X-23426Y-41799D01*
X-23526Y-41651D01*
X-23620Y-41587D01*
Y-35221D01*
X-23551Y-35174D01*
X-23451Y-35026D01*
X-23429Y-34917D01*
X-23378Y-34833D01*
X-23229Y-34768D01*
X-23150Y-34784D01*
X-22974Y-34749D01*
X-22826Y-34649D01*
X-22799Y-34610D01*
X-22753Y-34585D01*
X-22553Y-34556D01*
X-22543Y-34559D01*
X-22534Y-34565D01*
X-22436Y-34585D01*
X-22321D01*
X-22274Y-34654D01*
X-22126Y-34754D01*
X-21950Y-34789D01*
X-21774Y-34754D01*
X-21626Y-34654D01*
X-21526Y-34506D01*
X-21491Y-34330D01*
X-21526Y-34154D01*
X-21626Y-34006D01*
X-21774Y-33906D01*
X-21920Y-33877D01*
X-21992Y-33775D01*
X-22031Y-33683D01*
X-22027Y-33677D01*
X-21992Y-33502D01*
X-22027Y-33326D01*
X-22105Y-33210D01*
X-22068Y-33087D01*
X-22017Y-33010D01*
X-21771D01*
X-21724Y-33079D01*
X-21576Y-33179D01*
X-21400Y-33214D01*
X-21224Y-33179D01*
X-21076Y-33079D01*
X-20976Y-32931D01*
X-20941Y-32755D01*
X-20976Y-32579D01*
X-21076Y-32431D01*
X-21224Y-32331D01*
X-21400Y-32296D01*
X-21576Y-32331D01*
X-21724Y-32431D01*
X-21771Y-32500D01*
X-22508D01*
X-22605Y-32520D01*
X-22688Y-32575D01*
X-22858Y-32745D01*
X-25285D01*
X-25407Y-32545D01*
X-25386Y-32440D01*
X-25421Y-32264D01*
X-25521Y-32116D01*
X-25590Y-32069D01*
Y-31255D01*
X-25610Y-31157D01*
X-25665Y-31075D01*
X-26140Y-30600D01*
X-26222Y-30545D01*
X-26201Y-30345D01*
X-21540D01*
X-21442Y-30325D01*
X-21360Y-30270D01*
X-20650Y-29560D01*
X-20595Y-29478D01*
X-20575Y-29380D01*
Y-29181D01*
X-20506Y-29134D01*
X-20406Y-28986D01*
X-20371Y-28810D01*
X-20406Y-28634D01*
X-20506Y-28486D01*
X-20654Y-28386D01*
X-20830Y-28351D01*
X-21006Y-28386D01*
X-21154Y-28486D01*
X-21254Y-28634D01*
X-21289Y-28810D01*
X-21254Y-28986D01*
X-21154Y-29134D01*
X-21164Y-29354D01*
X-21646Y-29835D01*
X-24023D01*
X-24100Y-29650D01*
X-23699Y-29249D01*
X-23476Y-29224D01*
X-23327Y-29323D01*
X-23151Y-29358D01*
X-22976Y-29323D01*
X-22827Y-29224D01*
X-22727Y-29075D01*
X-22692Y-28899D01*
X-22727Y-28724D01*
X-22827Y-28575D01*
X-22896Y-28528D01*
Y-26274D01*
X-22916Y-26176D01*
X-22971Y-26094D01*
X-23325Y-25740D01*
X-23407Y-25685D01*
X-23505Y-25665D01*
X-25654D01*
X-26131Y-25189D01*
X-26035Y-25004D01*
X-25859Y-24969D01*
X-25794Y-24925D01*
X-25663Y-24899D01*
X-25540Y-24974D01*
X-25499Y-25034D01*
X-25351Y-25134D01*
X-25175Y-25169D01*
X-24999Y-25134D01*
X-24851Y-25034D01*
X-24797Y-24955D01*
X-19457D01*
X-17242Y-27170D01*
X-17325Y-27370D01*
X-18661D01*
X-18707Y-27301D01*
X-18856Y-27201D01*
X-19032Y-27166D01*
X-19207Y-27201D01*
X-19356Y-27301D01*
X-19444Y-27433D01*
X-19582Y-27467D01*
X-19656Y-27477D01*
X-19804Y-27377D01*
X-19980Y-27342D01*
X-20156Y-27377D01*
X-20304Y-27477D01*
X-20404Y-27626D01*
X-20439Y-27801D01*
X-20404Y-27977D01*
X-20304Y-28126D01*
X-20156Y-28225D01*
X-19980Y-28260D01*
X-19924Y-28249D01*
X-19803Y-28429D01*
X-19814Y-28444D01*
X-19849Y-28620D01*
X-19814Y-28796D01*
X-19714Y-28944D01*
X-19566Y-29044D01*
X-19390Y-29079D01*
X-19214Y-29044D01*
X-19066Y-28944D01*
X-18966Y-28796D01*
X-18931Y-28620D01*
X-18942Y-28566D01*
X-18808Y-28415D01*
X-18571D01*
X-18544Y-28448D01*
X-18482Y-28615D01*
X-18549Y-28714D01*
X-18584Y-28890D01*
X-18549Y-29066D01*
X-18449Y-29214D01*
X-18385Y-29258D01*
Y-37012D01*
X-18572Y-37125D01*
X-18585Y-37124D01*
X-18750Y-37091D01*
X-18926Y-37126D01*
X-19074Y-37226D01*
X-19174Y-37374D01*
X-19209Y-37550D01*
X-19174Y-37726D01*
X-19074Y-37874D01*
X-19005Y-37921D01*
Y-51394D01*
X-19074Y-51441D01*
X-19174Y-51589D01*
X-19209Y-51765D01*
X-19174Y-51941D01*
X-19074Y-52089D01*
X-18926Y-52189D01*
X-18750Y-52224D01*
X-18574Y-52189D01*
X-18426Y-52089D01*
X-18326Y-51941D01*
X-18291Y-51765D01*
X-18326Y-51589D01*
X-18426Y-51441D01*
X-18495Y-51394D01*
Y-45063D01*
X-18308Y-44950D01*
X-18295Y-44951D01*
X-18130Y-44984D01*
X-17980Y-44954D01*
X-17920Y-44973D01*
X-17780Y-45073D01*
Y-50994D01*
X-17849Y-51041D01*
X-17949Y-51189D01*
X-17984Y-51365D01*
X-17949Y-51541D01*
X-17849Y-51689D01*
X-17701Y-51789D01*
X-17525Y-51824D01*
X-17349Y-51789D01*
X-17201Y-51689D01*
X-17101Y-51541D01*
X-17066Y-51365D01*
X-17101Y-51189D01*
X-17201Y-51041D01*
X-17270Y-50994D01*
Y-39261D01*
X-17201Y-39214D01*
X-17101Y-39066D01*
X-17066Y-38890D01*
X-17097Y-38733D01*
X-17034Y-38650D01*
X-16951Y-38579D01*
X-16800Y-38609D01*
X-16624Y-38574D01*
X-16476Y-38474D01*
X-16376Y-38326D01*
X-16341Y-38150D01*
X-16376Y-37974D01*
X-16476Y-37826D01*
X-16545Y-37779D01*
Y-32771D01*
X-16476Y-32724D01*
X-16376Y-32576D01*
X-16341Y-32400D01*
X-16376Y-32224D01*
X-16476Y-32076D01*
X-16624Y-31976D01*
X-16800Y-31941D01*
X-16976Y-31976D01*
X-17115Y-32069D01*
X-17168Y-32058D01*
X-17315Y-32001D01*
Y-31128D01*
X-17236Y-31074D01*
X-17136Y-30926D01*
X-17101Y-30750D01*
X-17136Y-30574D01*
X-17236Y-30426D01*
X-17384Y-30326D01*
X-17560Y-30291D01*
X-17675Y-30314D01*
X-17875Y-30197D01*
Y-29264D01*
X-17801Y-29214D01*
X-17754Y-29145D01*
X-9714D01*
X-9674Y-29204D01*
X-9526Y-29304D01*
X-9350Y-29339D01*
X-9174Y-29304D01*
X-9026Y-29204D01*
X-8926Y-29056D01*
X-8891Y-28880D01*
X-8926Y-28704D01*
X-9026Y-28556D01*
X-9174Y-28456D01*
X-9350Y-28421D01*
X-9526Y-28456D01*
X-9674Y-28556D01*
X-9728Y-28635D01*
X-15774D01*
X-15801Y-28602D01*
X-15863Y-28435D01*
X-15796Y-28336D01*
X-15761Y-28160D01*
X-15777Y-28080D01*
X-15644Y-27880D01*
X-8181D01*
X-7995Y-28065D01*
Y-29755D01*
X-7624D01*
X-7584Y-29955D01*
X-7701Y-30003D01*
X-8004Y-30236D01*
X-8237Y-30539D01*
X-8383Y-30891D01*
X-8433Y-31270D01*
X-8383Y-31649D01*
X-8237Y-32001D01*
X-8004Y-32304D01*
X-7701Y-32537D01*
X-7399Y-32662D01*
X-7378Y-32827D01*
X-7388Y-32874D01*
X-7487Y-32915D01*
X-7701Y-33079D01*
X-7865Y-33293D01*
X-7969Y-33542D01*
X-8004Y-33810D01*
X-7969Y-34078D01*
X-7865Y-34327D01*
X-7701Y-34541D01*
X-7487Y-34705D01*
X-7238Y-34809D01*
X-6970Y-34844D01*
X-6702Y-34809D01*
X-6453Y-34705D01*
X-6239Y-34541D01*
X-6075Y-34327D01*
X-5971Y-34078D01*
X-5936Y-33810D01*
X-5971Y-33542D01*
X-6075Y-33293D01*
X-6239Y-33079D01*
X-6453Y-32915D01*
X-6552Y-32874D01*
X-6562Y-32827D01*
X-6541Y-32662D01*
X-6239Y-32537D01*
X-5936Y-32304D01*
X-5826Y-32161D01*
X-5574D01*
X-5464Y-32304D01*
X-5161Y-32537D01*
X-4859Y-32662D01*
X-4838Y-32827D01*
X-4848Y-32874D01*
X-4947Y-32915D01*
X-5161Y-33079D01*
X-5325Y-33293D01*
X-5429Y-33542D01*
X-5464Y-33810D01*
X-5429Y-34078D01*
X-5325Y-34327D01*
X-5161Y-34541D01*
X-4947Y-34705D01*
X-4698Y-34809D01*
X-4430Y-34844D01*
X-4162Y-34809D01*
X-3913Y-34705D01*
X-3699Y-34541D01*
X-3535Y-34327D01*
X-3431Y-34078D01*
X-3396Y-33810D01*
X-3431Y-33542D01*
X-3535Y-33293D01*
X-3699Y-33079D01*
X-3913Y-32915D01*
X-4012Y-32874D01*
X-4022Y-32827D01*
X-4001Y-32662D01*
X-3699Y-32537D01*
X-3396Y-32304D01*
X-3163Y-32001D01*
X-3017Y-31649D01*
X-2967Y-31270D01*
X-3017Y-30891D01*
X-3163Y-30539D01*
X-3396Y-30236D01*
X-3699Y-30003D01*
X-3968Y-29892D01*
Y-29675D01*
X-3900Y-29647D01*
X-3681Y-29479D01*
X-3513Y-29260D01*
X-3407Y-29004D01*
X-3384Y-28830D01*
X-4430D01*
X-5476D01*
X-5453Y-29004D01*
X-5347Y-29260D01*
X-5179Y-29479D01*
X-4960Y-29647D01*
X-4892Y-29675D01*
Y-29892D01*
X-5161Y-30003D01*
X-5464Y-30236D01*
X-5574Y-30379D01*
X-5826D01*
X-5936Y-30236D01*
X-6239Y-30003D01*
X-6356Y-29955D01*
X-6316Y-29755D01*
X-5945D01*
Y-27705D01*
X-7634D01*
X-7783Y-27556D01*
X-7700Y-27356D01*
X-2776D01*
X-2679Y-27337D01*
X-2596Y-27282D01*
X-1720Y-26405D01*
X-1665Y-26323D01*
X-1645Y-26225D01*
Y-12271D01*
X-1576Y-12224D01*
X-1476Y-12076D01*
X-1441Y-11900D01*
X-1476Y-11724D01*
X-1576Y-11576D01*
X-1724Y-11476D01*
X-1900Y-11441D01*
X-2076Y-11476D01*
X-2224Y-11576D01*
X-2324Y-11724D01*
X-2359Y-11900D01*
X-2324Y-12076D01*
X-2224Y-12224D01*
X-2155Y-12271D01*
Y-26119D01*
X-2882Y-26847D01*
X-3629D01*
X-3689Y-26647D01*
X-3680Y-26640D01*
X-2980Y-25940D01*
X-2924Y-25858D01*
X-2905Y-25760D01*
Y-23561D01*
X-2727Y-23443D01*
X-2595Y-23244D01*
X-2548Y-23010D01*
X-2595Y-22776D01*
X-2727Y-22577D01*
X-2864Y-22486D01*
X-2870Y-22470D01*
Y-22280D01*
X-2864Y-22264D01*
X-2727Y-22173D01*
X-2595Y-21974D01*
X-2548Y-21740D01*
X-2595Y-21506D01*
X-2727Y-21307D01*
X-2926Y-21175D01*
X-3160Y-21128D01*
X-3394Y-21175D01*
X-3593Y-21307D01*
X-3668Y-21420D01*
X-3895Y-21415D01*
X-3979Y-21289D01*
X-4186Y-21151D01*
X-4330Y-21123D01*
Y-21740D01*
X-4530D01*
Y-21123D01*
X-4674Y-21151D01*
X-4881Y-21289D01*
X-4945Y-21386D01*
X-5185D01*
X-5249Y-21289D01*
X-5456Y-21151D01*
X-5600Y-21123D01*
Y-21740D01*
X-5800D01*
Y-21123D01*
X-5944Y-21151D01*
X-6151Y-21289D01*
X-6234Y-21415D01*
X-6462Y-21420D01*
X-6537Y-21307D01*
X-6736Y-21175D01*
X-6970Y-21128D01*
X-7204Y-21175D01*
X-7403Y-21307D01*
X-7478Y-21420D01*
X-7706Y-21415D01*
X-7789Y-21289D01*
X-7996Y-21151D01*
X-8140Y-21123D01*
Y-21740D01*
X-8240D01*
Y-21840D01*
X-8857D01*
X-8829Y-21984D01*
X-8691Y-22191D01*
X-8565Y-22274D01*
X-8560Y-22502D01*
X-8673Y-22577D01*
X-8805Y-22776D01*
X-8852Y-23010D01*
X-8805Y-23244D01*
X-8673Y-23443D01*
X-8474Y-23575D01*
X-8240Y-23622D01*
X-8006Y-23575D01*
X-7807Y-23443D01*
X-7716Y-23306D01*
X-7700Y-23300D01*
X-7510D01*
X-7494Y-23306D01*
X-7403Y-23443D01*
X-7204Y-23575D01*
X-6970Y-23622D01*
X-6736Y-23575D01*
X-6537Y-23443D01*
X-6446Y-23306D01*
X-6430Y-23300D01*
X-6240D01*
X-6224Y-23306D01*
X-6133Y-23443D01*
X-5934Y-23575D01*
X-5700Y-23622D01*
X-5466Y-23575D01*
X-5267Y-23443D01*
X-5176Y-23306D01*
X-5160Y-23300D01*
X-4970D01*
X-4954Y-23306D01*
X-4863Y-23443D01*
X-4685Y-23561D01*
Y-24644D01*
X-5316Y-25275D01*
X-17029D01*
X-17076Y-25206D01*
X-17224Y-25106D01*
X-17400Y-25071D01*
X-17547Y-25100D01*
X-17650Y-25036D01*
X-17724Y-24965D01*
X-17721Y-24950D01*
X-17756Y-24778D01*
X-17748Y-24767D01*
X-17609Y-24635D01*
X-17551Y-24674D01*
X-17375Y-24709D01*
X-17199Y-24674D01*
X-17051Y-24574D01*
X-16951Y-24426D01*
X-16916Y-24250D01*
X-16951Y-24074D01*
X-17051Y-23926D01*
X-17199Y-23826D01*
X-17375Y-23791D01*
X-17551Y-23826D01*
X-17699Y-23926D01*
X-17799Y-24074D01*
X-17807Y-24113D01*
X-17927Y-24157D01*
X-18020Y-24163D01*
X-20189Y-21995D01*
X-20272Y-21939D01*
X-20369Y-21920D01*
X-20671D01*
X-20723Y-21836D01*
X-20756Y-21720D01*
X-20676Y-21601D01*
X-20641Y-21425D01*
X-20673Y-21268D01*
X-20668Y-21237D01*
X-20557Y-21068D01*
X-16861D01*
X-15893Y-22036D01*
Y-23663D01*
X-15949Y-23701D01*
X-16049Y-23849D01*
X-16084Y-24025D01*
X-16049Y-24201D01*
X-15949Y-24349D01*
X-15801Y-24449D01*
X-15625Y-24484D01*
X-15449Y-24449D01*
X-15301Y-24349D01*
X-15201Y-24201D01*
X-15166Y-24025D01*
X-15201Y-23849D01*
X-15301Y-23701D01*
X-15357Y-23663D01*
Y-21925D01*
X-15378Y-21823D01*
X-15436Y-21736D01*
X-16561Y-20611D01*
X-16648Y-20553D01*
X-16617Y-20355D01*
X-15046D01*
X-14605Y-20796D01*
Y-23654D01*
X-14674Y-23701D01*
X-14774Y-23849D01*
X-14809Y-24025D01*
X-14774Y-24201D01*
X-14674Y-24349D01*
X-14525Y-24449D01*
X-14350Y-24484D01*
X-14174Y-24449D01*
X-14025Y-24349D01*
X-13926Y-24201D01*
X-13891Y-24025D01*
X-13926Y-23849D01*
X-14025Y-23701D01*
X-14095Y-23654D01*
Y-23098D01*
X-13895Y-23016D01*
X-13426Y-23485D01*
X-13399Y-23701D01*
X-13499Y-23849D01*
X-13534Y-24025D01*
X-13499Y-24201D01*
X-13399Y-24349D01*
X-13251Y-24449D01*
X-13075Y-24484D01*
X-12899Y-24449D01*
X-12751Y-24349D01*
X-12651Y-24201D01*
X-12616Y-24025D01*
X-12651Y-23849D01*
X-12751Y-23701D01*
X-12820Y-23654D01*
Y-23475D01*
X-12840Y-23377D01*
X-12895Y-23295D01*
X-13620Y-22569D01*
Y-20225D01*
X-13627Y-20192D01*
X-13442Y-20093D01*
X-12055Y-21481D01*
Y-23654D01*
X-12124Y-23701D01*
X-12224Y-23849D01*
X-12259Y-24025D01*
X-12224Y-24201D01*
X-12124Y-24349D01*
X-11976Y-24449D01*
X-11800Y-24484D01*
X-11624Y-24449D01*
X-11476Y-24349D01*
X-11458Y-24323D01*
X-11217D01*
X-11199Y-24349D01*
X-11051Y-24449D01*
X-10875Y-24484D01*
X-10699Y-24449D01*
X-10551Y-24349D01*
X-10451Y-24201D01*
X-10416Y-24025D01*
X-10451Y-23849D01*
X-10551Y-23701D01*
X-10620Y-23654D01*
Y-21350D01*
X-10640Y-21252D01*
X-10695Y-21170D01*
X-13095Y-18770D01*
X-13177Y-18715D01*
X-13275Y-18695D01*
X-18642D01*
X-18775Y-18495D01*
X-18748Y-18428D01*
X-18717Y-18200D01*
X-18748Y-17972D01*
X-18805Y-17833D01*
X-18639Y-17764D01*
X-18456Y-17624D01*
X-18316Y-17441D01*
X-18228Y-17228D01*
X-18200Y-17017D01*
X-18184Y-16990D01*
X-18014Y-16866D01*
X-17925Y-16884D01*
X-17749Y-16849D01*
X-17601Y-16749D01*
X-17501Y-16601D01*
X-17469Y-16437D01*
X-17283Y-16251D01*
X-11160D01*
X-11033Y-16226D01*
X-10926Y-16154D01*
X-9991Y-15219D01*
X-9919Y-15112D01*
X-9894Y-14985D01*
Y-12822D01*
X-9796Y-12676D01*
X-9761Y-12500D01*
X-9796Y-12324D01*
X-9894Y-12178D01*
Y-11141D01*
X-9694Y-10990D01*
X-9650Y-10999D01*
X-9474Y-10964D01*
X-9326Y-10864D01*
X-9274D01*
X-9126Y-10964D01*
X-8950Y-10999D01*
X-8774Y-10964D01*
X-8626Y-10864D01*
X-8526Y-10716D01*
X-8491Y-10540D01*
X-8526Y-10364D01*
X-8626Y-10216D01*
X-8774Y-10116D01*
X-8950Y-10081D01*
X-9020Y-9891D01*
Y-5400D01*
X-9041Y-5293D01*
X-9102Y-5202D01*
X-9520Y-4784D01*
Y-4325D01*
X-8372D01*
X-6230Y-6466D01*
Y-8659D01*
X-6748Y-9177D01*
X-6800Y-9166D01*
X-6976Y-9201D01*
X-7124Y-9301D01*
X-7224Y-9449D01*
X-7259Y-9625D01*
X-7224Y-9801D01*
X-7124Y-9949D01*
X-6976Y-10049D01*
X-6800Y-10084D01*
X-6624Y-10049D01*
X-6476Y-9949D01*
X-6376Y-9801D01*
X-6341Y-9625D01*
X-6352Y-9573D01*
X-5752Y-8973D01*
X-5691Y-8882D01*
X-5680Y-8829D01*
X-5480Y-8849D01*
Y-10046D01*
X-5524Y-10076D01*
X-5624Y-10224D01*
X-5659Y-10400D01*
X-5624Y-10576D01*
X-5524Y-10724D01*
X-5376Y-10824D01*
X-5200Y-10859D01*
X-5024Y-10824D01*
X-4876Y-10724D01*
X-4776Y-10576D01*
X-4741Y-10400D01*
X-4776Y-10224D01*
X-4876Y-10076D01*
X-4920Y-10046D01*
Y-6404D01*
X-4941Y-6296D01*
X-5002Y-6205D01*
X-6697Y-4510D01*
X-6621Y-4325D01*
X-6122D01*
X-4798Y-5648D01*
X-4707Y-5709D01*
X-4600Y-5730D01*
X-2216D01*
X-1480Y-6466D01*
Y-7596D01*
X-1524Y-7626D01*
X-1624Y-7774D01*
X-1659Y-7950D01*
X-1624Y-8126D01*
X-1524Y-8274D01*
X-1376Y-8374D01*
X-1200Y-8409D01*
X-1024Y-8374D01*
X-876Y-8274D01*
X-776Y-8126D01*
X-741Y-7950D01*
X-776Y-7774D01*
X-876Y-7626D01*
X-920Y-7596D01*
Y-6350D01*
X-920Y-6350D01*
X-941Y-6243D01*
X-1002Y-6152D01*
X-1902Y-5252D01*
X-1993Y-5191D01*
X-2100Y-5170D01*
X-4484D01*
X-5725Y-3928D01*
Y-2775D01*
X-7146D01*
X-7228Y-2575D01*
X-6878Y-2225D01*
X-5725D01*
Y-675D01*
X-5594Y-529D01*
X-529D01*
Y-99471D01*
D02*
G37*
G36*
X-21235Y-715D02*
X-20928Y-842D01*
X-20599Y-885D01*
X-20528Y-947D01*
Y-5475D01*
X-20515Y-5543D01*
X-20476Y-5601D01*
X-20418Y-5640D01*
X-20350Y-5653D01*
X-18592D01*
X-18558Y-5725D01*
X-18684Y-5925D01*
X-19455D01*
Y-6710D01*
X-19480Y-6900D01*
Y-6900D01*
X-19480Y-6900D01*
Y-7300D01*
X-19005D01*
Y-7400D01*
X-18905D01*
Y-7900D01*
X-18555D01*
Y-7900D01*
X-18205D01*
Y-7375D01*
X-18105D01*
Y-7275D01*
X-17655D01*
Y-6850D01*
X-17680D01*
Y-5925D01*
X-17771D01*
Y-5653D01*
X-17227D01*
X-17209Y-5650D01*
X-17192D01*
X-17176Y-5643D01*
X-17158Y-5640D01*
X-17144Y-5630D01*
X-17127Y-5623D01*
X-17115Y-5611D01*
X-17101Y-5602D01*
X-17002Y-5621D01*
X-17000D01*
Y-4742D01*
X-16800D01*
Y-5621D01*
X-16798D01*
X-16681Y-5598D01*
X-16581Y-5531D01*
X-16459Y-5574D01*
X-16352Y-5596D01*
X-16357Y-5775D01*
X-16329Y-5984D01*
X-16249Y-6178D01*
X-16121Y-6346D01*
X-15953Y-6474D01*
X-15759Y-6554D01*
X-15550Y-6582D01*
X-15341Y-6554D01*
X-15275Y-6527D01*
X-15209Y-6554D01*
X-15000Y-6582D01*
X-14831Y-6560D01*
X-14631Y-6672D01*
Y-7968D01*
X-14831Y-8093D01*
X-14980Y-8073D01*
X-15189Y-8101D01*
X-15255Y-8128D01*
X-15321Y-8101D01*
X-15530Y-8073D01*
X-15739Y-8101D01*
X-15933Y-8181D01*
X-16101Y-8309D01*
X-16229Y-8477D01*
X-16309Y-8671D01*
X-16337Y-8880D01*
X-16309Y-9089D01*
X-16229Y-9283D01*
X-16226Y-9287D01*
Y-12140D01*
X-16227D01*
X-16251Y-12325D01*
X-16322Y-12497D01*
X-16436Y-12644D01*
X-16583Y-12758D01*
X-16749Y-12827D01*
X-16940Y-12850D01*
X-16940Y-12850D01*
X-17455Y-12890D01*
X-17476Y-12886D01*
X-17626Y-12736D01*
X-17630Y-12724D01*
X-17663Y-12558D01*
X-17763Y-12410D01*
X-17827Y-12366D01*
Y-10803D01*
X-17758Y-10756D01*
X-17658Y-10608D01*
X-17623Y-10432D01*
X-17658Y-10256D01*
X-17758Y-10108D01*
X-17906Y-10008D01*
X-18082Y-9973D01*
X-18258Y-10008D01*
X-18406Y-10108D01*
X-18506Y-10256D01*
X-18541Y-10432D01*
X-18506Y-10608D01*
X-18406Y-10756D01*
X-18337Y-10803D01*
Y-12360D01*
X-18411Y-12410D01*
X-18511Y-12558D01*
X-18546Y-12734D01*
X-18511Y-12910D01*
X-18455Y-12993D01*
X-18473Y-13161D01*
X-18481Y-13188D01*
X-18506Y-13236D01*
X-18933Y-13497D01*
X-19337Y-13843D01*
X-19683Y-14247D01*
X-19961Y-14701D01*
X-20165Y-15192D01*
X-20289Y-15710D01*
X-20330Y-16240D01*
X-20326D01*
Y-17709D01*
X-20364Y-17759D01*
X-20435Y-17930D01*
X-20597Y-17937D01*
X-20640Y-17927D01*
X-20695Y-17845D01*
X-25521Y-13018D01*
X-25427Y-12837D01*
X-25423Y-12833D01*
X-25328D01*
X-25200Y-12859D01*
X-25072Y-12833D01*
X-24728D01*
X-24600Y-12859D01*
X-24424Y-12824D01*
X-24396Y-12805D01*
X-24225Y-12931D01*
X-24225Y-13046D01*
Y-13875D01*
X-23373D01*
X-23321Y-13964D01*
X-23290Y-14075D01*
X-23371Y-14196D01*
X-23406Y-14372D01*
X-23371Y-14548D01*
X-23271Y-14696D01*
X-23123Y-14796D01*
X-22947Y-14831D01*
X-22771Y-14796D01*
X-22623Y-14696D01*
X-22523Y-14548D01*
X-22488Y-14372D01*
X-22523Y-14196D01*
X-22604Y-14075D01*
X-22573Y-13964D01*
X-22521Y-13875D01*
X-21875D01*
Y-13873D01*
X-21675Y-13766D01*
X-21626Y-13799D01*
X-21450Y-13834D01*
X-21274Y-13799D01*
X-21126Y-13699D01*
X-21026Y-13551D01*
X-20991Y-13375D01*
X-21026Y-13199D01*
X-21126Y-13051D01*
X-21065Y-12851D01*
X-21046Y-12838D01*
X-21004Y-12828D01*
X-20850Y-12859D01*
X-20674Y-12824D01*
X-20526Y-12724D01*
X-20426Y-12576D01*
X-20391Y-12400D01*
X-20426Y-12224D01*
X-20526Y-12076D01*
X-20674Y-11976D01*
X-20850Y-11941D01*
X-21026Y-11976D01*
X-21224Y-11868D01*
X-21252Y-11826D01*
X-21402Y-11675D01*
X-21320Y-11475D01*
X-20460D01*
Y-10375D01*
Y-9125D01*
X-21360D01*
X-21410Y-9125D01*
Y-9125D01*
X-21560Y-9125D01*
Y-9125D01*
X-22560D01*
Y-9167D01*
X-22705Y-9300D01*
X-23720D01*
Y-8950D01*
X-23325D01*
Y-6350D01*
X-23720D01*
Y-3450D01*
X-23325D01*
Y-2430D01*
X-23180D01*
X-23073Y-2409D01*
X-22982Y-2348D01*
X-22802Y-2168D01*
X-22750Y-2179D01*
X-22574Y-2144D01*
X-22426Y-2044D01*
X-22326Y-1896D01*
X-22291Y-1720D01*
X-22326Y-1544D01*
X-22426Y-1396D01*
X-22574Y-1296D01*
X-22750Y-1261D01*
X-22926Y-1296D01*
X-23074Y-1396D01*
X-23125Y-1471D01*
X-23325Y-1411D01*
Y-850D01*
X-24675D01*
Y-3450D01*
X-24280D01*
Y-4700D01*
X-24302Y-4719D01*
X-24480Y-4789D01*
X-24574Y-4726D01*
X-24750Y-4691D01*
X-24926Y-4726D01*
X-25074Y-4826D01*
X-25174Y-4974D01*
X-25209Y-5150D01*
X-25174Y-5326D01*
X-25074Y-5474D01*
X-24926Y-5574D01*
X-24750Y-5609D01*
X-24574Y-5574D01*
X-24480Y-5511D01*
X-24302Y-5581D01*
X-24280Y-5600D01*
Y-6350D01*
X-24675D01*
Y-8531D01*
X-24734Y-8573D01*
X-24875Y-8619D01*
X-24984Y-8546D01*
X-25160Y-8511D01*
X-25336Y-8546D01*
X-25484Y-8646D01*
X-25584Y-8794D01*
X-25619Y-8970D01*
X-25584Y-9146D01*
X-25484Y-9294D01*
X-25336Y-9394D01*
X-25160Y-9429D01*
X-25055Y-9515D01*
Y-10300D01*
X-24881D01*
X-24720Y-10395D01*
Y-10745D01*
X-24195D01*
Y-10845D01*
X-24095D01*
Y-11295D01*
X-23670D01*
X-23513Y-11398D01*
Y-11774D01*
X-23839Y-12101D01*
X-23897Y-12188D01*
X-23918Y-12290D01*
Y-12734D01*
X-24059Y-12875D01*
X-24154Y-12875D01*
X-24184Y-12837D01*
X-24249Y-12685D01*
X-24240Y-12671D01*
X-24176Y-12576D01*
X-24141Y-12400D01*
X-24176Y-12224D01*
X-24276Y-12076D01*
X-24424Y-11976D01*
X-24600Y-11941D01*
X-24728Y-11967D01*
X-25072D01*
X-25200Y-11941D01*
X-25259Y-11953D01*
X-26544Y-10669D01*
X-26684Y-10575D01*
X-26850Y-10542D01*
X-32821D01*
X-33454Y-9908D01*
X-33388Y-9691D01*
X-33323Y-9678D01*
X-33172Y-9578D01*
X-33134Y-9520D01*
X-32902Y-9519D01*
X-32864Y-9574D01*
X-32716Y-9674D01*
X-32540Y-9709D01*
X-32364Y-9674D01*
X-32216Y-9574D01*
X-32116Y-9426D01*
X-32081Y-9250D01*
X-32116Y-9074D01*
X-32216Y-8926D01*
X-32364Y-8826D01*
X-32540Y-8791D01*
X-32716Y-8826D01*
X-32864Y-8926D01*
X-32902Y-8981D01*
X-33134Y-8980D01*
X-33172Y-8922D01*
X-33323Y-8822D01*
X-33500Y-8787D01*
X-33677Y-8822D01*
X-33828Y-8922D01*
X-33928Y-9073D01*
X-33963Y-9250D01*
X-34139Y-9394D01*
X-34150Y-9392D01*
X-36325D01*
X-36491Y-9425D01*
X-36579Y-9484D01*
X-36631Y-9519D01*
X-37505Y-10392D01*
X-37612Y-10372D01*
X-37705Y-10318D01*
Y-9925D01*
X-39755D01*
Y-11975D01*
X-39495D01*
Y-12229D01*
X-40270Y-13005D01*
X-40353Y-13129D01*
X-40353Y-13129D01*
X-40353Y-13129D01*
X-40382Y-13275D01*
Y-15536D01*
X-41254Y-16408D01*
X-41259Y-16405D01*
X-41508Y-16301D01*
X-41776Y-16266D01*
X-42044Y-16301D01*
X-42293Y-16405D01*
X-42507Y-16569D01*
X-42671Y-16783D01*
X-42775Y-17032D01*
X-42810Y-17300D01*
X-42775Y-17568D01*
X-42671Y-17817D01*
X-42516Y-18020D01*
X-42525Y-18071D01*
X-42590Y-18220D01*
X-47350D01*
X-47457Y-18241D01*
X-47548Y-18302D01*
X-49148Y-19902D01*
X-49209Y-19993D01*
X-49230Y-20100D01*
Y-33096D01*
X-49274Y-33126D01*
X-49374Y-33274D01*
X-49409Y-33450D01*
X-49374Y-33626D01*
X-49274Y-33774D01*
X-49126Y-33874D01*
X-48950Y-33909D01*
X-48774Y-33874D01*
X-48626Y-33774D01*
X-48526Y-33626D01*
X-48491Y-33450D01*
X-48526Y-33274D01*
X-48626Y-33126D01*
X-48670Y-33096D01*
Y-29985D01*
X-48470Y-29902D01*
X-48173Y-30198D01*
X-48184Y-30250D01*
X-48149Y-30426D01*
X-48049Y-30574D01*
X-47901Y-30674D01*
X-47725Y-30709D01*
X-47614Y-30687D01*
X-47414Y-30806D01*
Y-31496D01*
X-47458Y-31526D01*
X-47558Y-31674D01*
X-47593Y-31850D01*
X-47558Y-32026D01*
X-47458Y-32174D01*
X-47310Y-32274D01*
X-47134Y-32309D01*
X-46958Y-32274D01*
X-46810Y-32174D01*
X-46710Y-32026D01*
X-46675Y-31850D01*
X-46710Y-31674D01*
X-46810Y-31526D01*
X-46854Y-31496D01*
Y-27091D01*
X-46748Y-27037D01*
X-46654Y-27013D01*
X-46526Y-27099D01*
X-46350Y-27134D01*
X-46345Y-27133D01*
X-46247Y-27317D01*
X-46373Y-27444D01*
X-46434Y-27535D01*
X-46455Y-27642D01*
Y-34621D01*
X-46499Y-34651D01*
X-46599Y-34799D01*
X-46634Y-34975D01*
X-46599Y-35151D01*
X-46499Y-35299D01*
X-46351Y-35399D01*
X-46175Y-35434D01*
X-45999Y-35399D01*
X-45851Y-35299D01*
X-45751Y-35151D01*
X-45716Y-34975D01*
X-45751Y-34799D01*
X-45830Y-34681D01*
X-45820Y-34629D01*
X-45617Y-34588D01*
X-45605Y-34590D01*
X-45599Y-34599D01*
X-45451Y-34699D01*
X-45275Y-34734D01*
X-45153Y-34709D01*
X-45023Y-34818D01*
X-44992Y-34866D01*
X-45009Y-34950D01*
X-44974Y-35126D01*
X-44874Y-35274D01*
X-44726Y-35374D01*
X-44550Y-35409D01*
X-44463Y-35392D01*
X-44398Y-35435D01*
X-44300Y-35455D01*
X-37641D01*
X-37515Y-35655D01*
X-37534Y-35750D01*
X-37499Y-35926D01*
X-37400Y-36074D01*
X-37330Y-36121D01*
Y-39784D01*
X-37400Y-39831D01*
X-37429Y-39875D01*
X-45920D01*
X-46027Y-39896D01*
X-46118Y-39957D01*
X-46888Y-40727D01*
X-46949Y-40818D01*
X-46970Y-40925D01*
Y-44933D01*
X-47170Y-45001D01*
X-47249Y-44899D01*
X-47463Y-44735D01*
X-47700Y-44637D01*
Y-43520D01*
X-47676Y-43504D01*
X-47576Y-43356D01*
X-47541Y-43180D01*
X-47576Y-43004D01*
X-47676Y-42856D01*
X-47824Y-42756D01*
X-48000Y-42721D01*
X-48176Y-42756D01*
X-48324Y-42856D01*
X-48424Y-43004D01*
X-48459Y-43180D01*
X-48424Y-43356D01*
X-48324Y-43504D01*
X-48260Y-43547D01*
Y-44637D01*
X-48497Y-44735D01*
X-48711Y-44899D01*
X-48875Y-45113D01*
X-48979Y-45362D01*
X-49014Y-45630D01*
X-48979Y-45898D01*
X-48875Y-46147D01*
X-48711Y-46361D01*
X-48497Y-46525D01*
X-48248Y-46629D01*
X-47980Y-46664D01*
X-47712Y-46629D01*
X-47463Y-46525D01*
X-47249Y-46361D01*
X-47170Y-46259D01*
X-46970Y-46327D01*
Y-46920D01*
X-46949Y-47027D01*
X-46888Y-47118D01*
X-46341Y-47666D01*
X-46439Y-47902D01*
X-46474Y-48170D01*
X-46439Y-48438D01*
X-46335Y-48687D01*
X-46171Y-48901D01*
X-45957Y-49065D01*
X-45720Y-49163D01*
Y-51880D01*
X-45699Y-51987D01*
X-45638Y-52078D01*
X-44450Y-53266D01*
Y-53500D01*
X-46410D01*
Y-49460D01*
X-46431Y-49353D01*
X-46492Y-49262D01*
X-47079Y-48674D01*
X-46981Y-48438D01*
X-46946Y-48170D01*
X-46981Y-47902D01*
X-47085Y-47653D01*
X-47249Y-47439D01*
X-47463Y-47275D01*
X-47712Y-47171D01*
X-47980Y-47136D01*
X-48248Y-47171D01*
X-48497Y-47275D01*
X-48711Y-47439D01*
X-48750Y-47489D01*
X-48950Y-47421D01*
Y-46920D01*
X-48971Y-46813D01*
X-49032Y-46722D01*
X-49619Y-46134D01*
X-49521Y-45898D01*
X-49486Y-45630D01*
X-49521Y-45362D01*
X-49625Y-45113D01*
X-49789Y-44899D01*
X-50003Y-44735D01*
X-50252Y-44631D01*
X-50520Y-44596D01*
X-50788Y-44631D01*
X-51037Y-44735D01*
X-51251Y-44899D01*
X-51415Y-45113D01*
X-51519Y-45362D01*
X-51554Y-45630D01*
X-51519Y-45898D01*
X-51415Y-46147D01*
X-51251Y-46361D01*
X-51037Y-46525D01*
X-50788Y-46629D01*
X-50520Y-46664D01*
X-50252Y-46629D01*
X-50016Y-46531D01*
X-49510Y-47036D01*
Y-47473D01*
X-49710Y-47541D01*
X-49789Y-47439D01*
X-50003Y-47275D01*
X-50252Y-47171D01*
X-50520Y-47136D01*
X-50788Y-47171D01*
X-51037Y-47275D01*
X-51251Y-47439D01*
X-51310Y-47515D01*
X-51510Y-47447D01*
Y-46900D01*
X-51531Y-46793D01*
X-51592Y-46702D01*
X-51592Y-46702D01*
X-52159Y-46134D01*
X-52061Y-45898D01*
X-52026Y-45630D01*
X-52061Y-45362D01*
X-52165Y-45113D01*
X-52329Y-44899D01*
X-52543Y-44735D01*
X-52792Y-44631D01*
X-53060Y-44596D01*
X-53328Y-44631D01*
X-53577Y-44735D01*
X-53791Y-44899D01*
X-53850Y-44975D01*
X-54050Y-44907D01*
Y-44234D01*
X-54006Y-44204D01*
X-53906Y-44056D01*
X-53871Y-43880D01*
X-53906Y-43704D01*
X-54006Y-43556D01*
X-54154Y-43456D01*
X-54330Y-43421D01*
X-54506Y-43456D01*
X-54654Y-43556D01*
X-54754Y-43704D01*
X-54789Y-43880D01*
X-54754Y-44056D01*
X-54654Y-44204D01*
X-54610Y-44234D01*
Y-44907D01*
X-54810Y-44975D01*
X-54869Y-44899D01*
X-55083Y-44735D01*
X-55332Y-44631D01*
X-55600Y-44596D01*
X-55868Y-44631D01*
X-56117Y-44735D01*
X-56331Y-44899D01*
X-56495Y-45113D01*
X-56599Y-45362D01*
X-56634Y-45630D01*
X-56599Y-45898D01*
X-56501Y-46134D01*
X-56890Y-46523D01*
X-57090Y-46441D01*
Y-45730D01*
X-58040D01*
Y-46680D01*
X-57294D01*
X-57261Y-46702D01*
X-57146Y-46880D01*
X-57150Y-46900D01*
Y-47406D01*
X-57350Y-47474D01*
X-57391Y-47421D01*
X-57610Y-47253D01*
X-57866Y-47147D01*
X-58040Y-47124D01*
Y-48170D01*
Y-49216D01*
X-57866Y-49193D01*
X-57610Y-49087D01*
X-57391Y-48919D01*
X-57350Y-48866D01*
X-57150Y-48934D01*
Y-52080D01*
X-57129Y-52187D01*
X-57068Y-52278D01*
X-55820Y-53526D01*
Y-57006D01*
X-55864Y-57036D01*
X-55964Y-57184D01*
X-55999Y-57360D01*
X-55964Y-57536D01*
X-55864Y-57684D01*
X-55716Y-57784D01*
X-55540Y-57819D01*
X-55364Y-57784D01*
X-55216Y-57684D01*
X-55116Y-57536D01*
X-55081Y-57360D01*
X-55116Y-57184D01*
X-55216Y-57036D01*
X-55260Y-57006D01*
Y-53410D01*
X-55281Y-53303D01*
X-55342Y-53212D01*
X-56590Y-51964D01*
Y-48893D01*
X-56390Y-48825D01*
X-56331Y-48901D01*
X-56117Y-49065D01*
X-55868Y-49169D01*
X-55600Y-49204D01*
X-55332Y-49169D01*
X-55096Y-49071D01*
X-54402Y-49765D01*
X-54409Y-49800D01*
X-54374Y-49976D01*
X-54274Y-50124D01*
X-54126Y-50224D01*
X-53950Y-50259D01*
X-53774Y-50224D01*
X-53626Y-50124D01*
X-53526Y-49976D01*
X-53491Y-49800D01*
X-53526Y-49624D01*
X-53626Y-49476D01*
X-53774Y-49376D01*
X-53950Y-49341D01*
X-54019Y-49355D01*
X-54699Y-48674D01*
X-54601Y-48438D01*
X-54566Y-48170D01*
X-54601Y-47902D01*
X-54705Y-47653D01*
X-54869Y-47439D01*
X-55083Y-47275D01*
X-55332Y-47171D01*
X-55600Y-47136D01*
X-55868Y-47171D01*
X-56117Y-47275D01*
X-56331Y-47439D01*
X-56390Y-47515D01*
X-56590Y-47447D01*
Y-47016D01*
X-56104Y-46531D01*
X-55868Y-46629D01*
X-55600Y-46664D01*
X-55332Y-46629D01*
X-55083Y-46525D01*
X-54869Y-46361D01*
X-54810Y-46285D01*
X-54610Y-46353D01*
Y-46900D01*
X-54589Y-47007D01*
X-54528Y-47098D01*
X-53961Y-47666D01*
X-54059Y-47902D01*
X-54094Y-48170D01*
X-54059Y-48438D01*
X-53955Y-48687D01*
X-53791Y-48901D01*
X-53577Y-49065D01*
X-53328Y-49169D01*
X-53060Y-49204D01*
X-52792Y-49169D01*
X-52543Y-49065D01*
X-52329Y-48901D01*
X-52270Y-48825D01*
X-52070Y-48893D01*
Y-52136D01*
X-52114Y-52166D01*
X-52214Y-52314D01*
X-52249Y-52490D01*
X-52214Y-52666D01*
X-52114Y-52814D01*
X-51966Y-52914D01*
X-51790Y-52949D01*
X-51614Y-52914D01*
X-51466Y-52814D01*
X-51366Y-52666D01*
X-51331Y-52490D01*
X-51366Y-52314D01*
X-51466Y-52166D01*
X-51510Y-52136D01*
Y-48893D01*
X-51310Y-48825D01*
X-51251Y-48901D01*
X-51037Y-49065D01*
X-50788Y-49169D01*
X-50770Y-49171D01*
Y-51256D01*
X-50814Y-51286D01*
X-50914Y-51434D01*
X-50949Y-51610D01*
X-50914Y-51786D01*
X-50814Y-51934D01*
X-50770Y-51964D01*
Y-52410D01*
X-50749Y-52517D01*
X-50688Y-52608D01*
X-49981Y-53315D01*
X-50058Y-53500D01*
X-51570D01*
Y-55550D01*
X-50785D01*
Y-64964D01*
X-50854Y-65011D01*
X-50954Y-65159D01*
X-50989Y-65335D01*
X-50954Y-65511D01*
X-50854Y-65659D01*
Y-65826D01*
X-50954Y-65974D01*
X-50989Y-66150D01*
X-50954Y-66326D01*
X-50854Y-66474D01*
X-50800Y-66511D01*
Y-76355D01*
X-51545Y-76355D01*
X-51610Y-76182D01*
Y-75930D01*
X-54510D01*
Y-78830D01*
X-53766D01*
Y-85120D01*
X-53742Y-85303D01*
X-53671Y-85473D01*
X-53559Y-85619D01*
X-52409Y-86769D01*
X-52263Y-86881D01*
X-52093Y-86952D01*
X-51910Y-86976D01*
X-49284D01*
X-49272Y-87006D01*
X-49039Y-87309D01*
X-48736Y-87542D01*
X-48692Y-87560D01*
X-48731Y-87760D01*
X-55306D01*
Y-99471D01*
X-59471D01*
Y-529D01*
X-54311D01*
X-54069Y-715D01*
X-53762Y-842D01*
X-53433Y-885D01*
X-53362Y-947D01*
Y-5475D01*
X-53349Y-5543D01*
X-53310Y-5601D01*
X-53252Y-5640D01*
X-53184Y-5653D01*
X-52449D01*
X-52280Y-5728D01*
Y-6513D01*
X-52305Y-6703D01*
Y-6703D01*
X-52305Y-6703D01*
Y-7103D01*
X-51830D01*
Y-7203D01*
X-51730D01*
Y-7703D01*
X-51355D01*
Y-7703D01*
X-51030D01*
Y-7178D01*
X-50930D01*
Y-7078D01*
X-50480D01*
Y-6653D01*
X-50505D01*
Y-5728D01*
X-50336Y-5653D01*
X-50080D01*
X-50063Y-5650D01*
X-50045D01*
X-50029Y-5643D01*
X-50011Y-5640D01*
X-49997Y-5630D01*
X-49981Y-5623D01*
X-49968Y-5611D01*
X-49962Y-5607D01*
X-49850Y-5629D01*
X-49848D01*
Y-4750D01*
X-49648D01*
Y-5629D01*
X-49646D01*
X-49529Y-5606D01*
X-49429Y-5539D01*
X-49308Y-5582D01*
X-49306Y-5582D01*
X-49189Y-5736D01*
X-49184Y-5800D01*
X-49205Y-5960D01*
X-49177Y-6169D01*
X-49097Y-6363D01*
X-48969Y-6531D01*
X-48802Y-6659D01*
X-48607Y-6739D01*
X-48398Y-6767D01*
X-48189Y-6739D01*
X-48123Y-6712D01*
X-48057Y-6739D01*
X-47848Y-6767D01*
X-47639Y-6739D01*
X-47618Y-6731D01*
X-47418Y-6864D01*
Y-7225D01*
Y-8968D01*
X-47474Y-9006D01*
X-47574Y-9154D01*
X-47609Y-9330D01*
X-47574Y-9506D01*
X-47474Y-9654D01*
X-47326Y-9754D01*
X-47150Y-9789D01*
X-46974Y-9754D01*
X-46826Y-9654D01*
X-46726Y-9506D01*
X-46691Y-9330D01*
X-46726Y-9154D01*
X-46826Y-9006D01*
X-46878Y-8971D01*
Y-7495D01*
X-46116D01*
X-45975Y-7637D01*
X-45975Y-7900D01*
Y-8700D01*
X-44200D01*
Y-7915D01*
X-44175Y-7725D01*
X-44175Y-7560D01*
Y-7325D01*
X-44650D01*
Y-7225D01*
X-44750D01*
Y-6725D01*
X-45125D01*
Y-6750D01*
X-45975D01*
Y-6955D01*
X-46878D01*
Y-5843D01*
X-46816Y-5653D01*
X-43684D01*
X-43616Y-5640D01*
X-43558Y-5601D01*
X-43519Y-5543D01*
X-43506Y-5475D01*
X-43506Y-948D01*
X-43434Y-885D01*
X-43105Y-842D01*
X-42798Y-715D01*
X-42556Y-529D01*
X-21477D01*
X-21235Y-715D01*
D02*
G37*
G36*
X-3230Y-51859D02*
Y-63921D01*
X-3430Y-63961D01*
X-3513Y-63760D01*
X-3681Y-63541D01*
X-3900Y-63373D01*
X-4156Y-63267D01*
X-4330Y-63244D01*
Y-64290D01*
Y-65336D01*
X-4156Y-65313D01*
X-3900Y-65207D01*
X-3681Y-65039D01*
X-3513Y-64820D01*
X-3430Y-64619D01*
X-3230Y-64659D01*
Y-66561D01*
X-3430Y-66574D01*
X-3431Y-66562D01*
X-3535Y-66313D01*
X-3699Y-66099D01*
X-3913Y-65935D01*
X-4162Y-65831D01*
X-4430Y-65796D01*
X-4698Y-65831D01*
X-4947Y-65935D01*
X-5161Y-66099D01*
X-5265Y-66235D01*
X-5465Y-66167D01*
Y-64994D01*
X-5265Y-64927D01*
X-5179Y-65039D01*
X-4960Y-65207D01*
X-4704Y-65313D01*
X-4530Y-65336D01*
Y-64290D01*
Y-63244D01*
X-4704Y-63267D01*
X-4960Y-63373D01*
X-5179Y-63541D01*
X-5265Y-63653D01*
X-5465Y-63586D01*
Y-52253D01*
X-5265Y-52185D01*
X-5161Y-52321D01*
X-4947Y-52485D01*
X-4698Y-52589D01*
X-4430Y-52624D01*
X-4162Y-52589D01*
X-3913Y-52485D01*
X-3699Y-52321D01*
X-3535Y-52107D01*
X-3431Y-51858D01*
X-3430Y-51846D01*
X-3230Y-51859D01*
D02*
G37*
G36*
X-14024Y-11184D02*
X-13876Y-11284D01*
X-13700Y-11319D01*
X-13524Y-11284D01*
X-13376Y-11184D01*
X-13354Y-11153D01*
X-13162Y-11160D01*
X-13107Y-11340D01*
X-13192Y-11398D01*
X-13292Y-11546D01*
X-13327Y-11722D01*
X-13292Y-11898D01*
X-13192Y-12046D01*
X-13123Y-12093D01*
Y-13637D01*
X-13190Y-13683D01*
X-13290Y-13831D01*
X-13325Y-14007D01*
X-13290Y-14183D01*
X-13190Y-14331D01*
X-13042Y-14431D01*
X-12866Y-14466D01*
X-12690Y-14431D01*
X-12542Y-14331D01*
X-12442Y-14183D01*
X-12407Y-14007D01*
X-12442Y-13831D01*
X-12542Y-13683D01*
X-12613Y-13635D01*
Y-12093D01*
X-12544Y-12046D01*
X-12444Y-11898D01*
X-12409Y-11722D01*
X-12444Y-11546D01*
X-12544Y-11398D01*
X-12629Y-11340D01*
X-12568Y-11140D01*
X-10556D01*
Y-12193D01*
X-10644Y-12324D01*
X-10679Y-12500D01*
X-10644Y-12676D01*
X-10556Y-12807D01*
Y-14848D01*
X-11297Y-15589D01*
X-17420D01*
X-17547Y-15614D01*
X-17654Y-15686D01*
X-17937Y-15969D01*
X-18101Y-16001D01*
X-18249Y-16101D01*
X-18287Y-16157D01*
X-18498Y-16126D01*
X-18501Y-16124D01*
X-18537Y-16057D01*
X-18524Y-15925D01*
X-18432Y-15622D01*
X-18283Y-15343D01*
X-18082Y-15098D01*
X-17837Y-14897D01*
X-17558Y-14748D01*
X-17255Y-14656D01*
X-17133Y-14644D01*
X-16940Y-14628D01*
Y-14628D01*
X-16524Y-14595D01*
X-16119Y-14498D01*
X-15733Y-14338D01*
X-15378Y-14121D01*
X-15060Y-13850D01*
X-14789Y-13532D01*
X-14572Y-13177D01*
X-14412Y-12791D01*
X-14315Y-12386D01*
X-14282Y-11970D01*
X-14284D01*
Y-11156D01*
X-14084Y-11095D01*
X-14024Y-11184D01*
D02*
G37*
G36*
X-27533Y-55542D02*
X-27040Y-56034D01*
X-27040Y-56034D01*
X-26941Y-56101D01*
X-26824Y-56124D01*
X-26824Y-56124D01*
X-23848Y-56124D01*
X-23848Y-56124D01*
X-23731Y-56101D01*
X-23710Y-56087D01*
X-23510Y-56185D01*
Y-57070D01*
X-23510D01*
Y-57120D01*
X-23510D01*
Y-57436D01*
X-23865D01*
Y-56741D01*
X-25515D01*
Y-58144D01*
X-25940Y-58570D01*
X-26140Y-58487D01*
Y-57816D01*
X-26990D01*
Y-57716D01*
X-27090D01*
Y-56716D01*
X-27790D01*
X-27840Y-56716D01*
X-27990Y-56595D01*
Y-56436D01*
X-28490D01*
Y-56236D01*
X-27990D01*
Y-55742D01*
X-27855Y-55542D01*
X-27533Y-55542D01*
D02*
G37*
G36*
X-44135Y-662D02*
X-44093Y-689D01*
X-44050Y-714D01*
X-44006Y-737D01*
X-43962Y-759D01*
X-43917Y-779D01*
X-43870Y-797D01*
X-43824Y-813D01*
X-43776Y-827D01*
X-43728Y-840D01*
X-43684Y-850D01*
X-43684Y-5475D01*
X-46816D01*
X-46810Y-5466D01*
X-46800Y-5447D01*
X-46791Y-5427D01*
X-46783Y-5407D01*
X-46777Y-5386D01*
X-46773Y-5365D01*
X-46771Y-5343D01*
X-46770Y-5322D01*
Y-4795D01*
X-46768Y-4821D01*
X-46763Y-4856D01*
X-46757Y-4890D01*
X-46748Y-4925D01*
X-46738Y-4959D01*
X-46727Y-4992D01*
X-46713Y-5025D01*
X-46698Y-5057D01*
X-46681Y-5088D01*
X-46662Y-5118D01*
X-46642Y-5147D01*
X-46621Y-5175D01*
X-46598Y-5202D01*
X-46574Y-5227D01*
X-46548Y-5252D01*
X-46521Y-5275D01*
X-46493Y-5296D01*
X-46464Y-5316D01*
X-46434Y-5335D01*
X-46403Y-5352D01*
X-46371Y-5367D01*
X-46338Y-5380D01*
X-46305Y-5392D01*
X-46271Y-5402D01*
X-46237Y-5410D01*
X-46202Y-5417D01*
X-46167Y-5422D01*
X-46132Y-5424D01*
X-46096Y-5425D01*
X-46046D01*
Y-4750D01*
Y-4075D01*
X-46096D01*
X-46132Y-4076D01*
X-46167Y-4078D01*
X-46202Y-4083D01*
X-46237Y-4090D01*
X-46271Y-4098D01*
X-46305Y-4108D01*
X-46338Y-4120D01*
X-46371Y-4133D01*
X-46403Y-4148D01*
X-46434Y-4165D01*
X-46464Y-4184D01*
X-46493Y-4204D01*
X-46521Y-4225D01*
X-46548Y-4248D01*
X-46574Y-4273D01*
X-46598Y-4298D01*
X-46621Y-4325D01*
X-46642Y-4353D01*
X-46662Y-4382D01*
X-46681Y-4412D01*
X-46698Y-4443D01*
X-46713Y-4475D01*
X-46727Y-4508D01*
X-46738Y-4541D01*
X-46748Y-4575D01*
X-46757Y-4610D01*
X-46763Y-4644D01*
X-46768Y-4679D01*
X-46770Y-4705D01*
Y-4179D01*
X-46771Y-4157D01*
X-46773Y-4135D01*
X-46777Y-4114D01*
X-46783Y-4093D01*
X-46791Y-4073D01*
X-46800Y-4053D01*
X-46810Y-4034D01*
X-46823Y-4016D01*
X-46836Y-3999D01*
X-46851Y-3983D01*
X-46867Y-3968D01*
X-46884Y-3955D01*
X-46902Y-3942D01*
X-46921Y-3932D01*
X-46941Y-3923D01*
X-46961Y-3915D01*
X-46982Y-3909D01*
X-47003Y-3905D01*
X-47025Y-3903D01*
X-47047Y-3902D01*
X-47052D01*
X-47055Y-3893D01*
X-47071Y-3860D01*
X-47089Y-3828D01*
X-47108Y-3796D01*
X-47129Y-3766D01*
X-47151Y-3737D01*
X-47175Y-3709D01*
X-47200Y-3682D01*
X-47227Y-3657D01*
X-47255Y-3633D01*
X-47284Y-3611D01*
X-47314Y-3590D01*
X-47346Y-3571D01*
X-47378Y-3553D01*
X-47411Y-3537D01*
X-47445Y-3523D01*
X-47480Y-3511D01*
X-47515Y-3501D01*
X-47551Y-3492D01*
X-47587Y-3485D01*
X-47623Y-3481D01*
X-47660Y-3478D01*
X-47696Y-3477D01*
X-47900D01*
X-47936Y-3478D01*
X-47973Y-3481D01*
X-48009Y-3485D01*
X-48046Y-3492D01*
X-48081Y-3501D01*
X-48117Y-3511D01*
X-48123Y-3513D01*
X-48130Y-3511D01*
X-48165Y-3501D01*
X-48201Y-3492D01*
X-48237Y-3485D01*
X-48273Y-3481D01*
X-48310Y-3478D01*
X-48346Y-3477D01*
X-48550D01*
X-48586Y-3478D01*
X-48623Y-3481D01*
X-48659Y-3485D01*
X-48696Y-3492D01*
X-48731Y-3501D01*
X-48767Y-3511D01*
X-48801Y-3523D01*
X-48835Y-3537D01*
X-48868Y-3553D01*
X-48901Y-3571D01*
X-48932Y-3590D01*
X-48962Y-3611D01*
X-48991Y-3633D01*
X-49019Y-3657D01*
X-49046Y-3682D01*
X-49071Y-3709D01*
X-49095Y-3737D01*
X-49117Y-3766D01*
X-49138Y-3796D01*
X-49157Y-3828D01*
X-49175Y-3860D01*
X-49191Y-3893D01*
X-49194Y-3902D01*
X-49200D01*
X-49221Y-3903D01*
X-49243Y-3905D01*
X-49264Y-3909D01*
X-49285Y-3915D01*
X-49306Y-3923D01*
X-49325Y-3932D01*
X-49344Y-3942D01*
X-49362Y-3955D01*
X-49379Y-3968D01*
X-49395Y-3983D01*
X-49410Y-3999D01*
X-49423Y-4015D01*
X-49436Y-3999D01*
X-49451Y-3983D01*
X-49467Y-3968D01*
X-49484Y-3955D01*
X-49502Y-3942D01*
X-49521Y-3932D01*
X-49541Y-3923D01*
X-49561Y-3915D01*
X-49582Y-3909D01*
X-49603Y-3905D01*
X-49625Y-3903D01*
X-49646Y-3902D01*
X-49850D01*
X-49871Y-3903D01*
X-49893Y-3905D01*
X-49914Y-3909D01*
X-49935Y-3915D01*
X-49956Y-3923D01*
X-49975Y-3932D01*
X-49994Y-3942D01*
X-50012Y-3955D01*
X-50029Y-3968D01*
X-50045Y-3983D01*
X-50060Y-3999D01*
X-50074Y-4016D01*
X-50086Y-4034D01*
X-50096Y-4053D01*
X-50105Y-4073D01*
X-50113Y-4093D01*
X-50119Y-4114D01*
X-50123Y-4135D01*
X-50126Y-4157D01*
X-50126Y-4179D01*
Y-4705D01*
X-50128Y-4679D01*
X-50133Y-4644D01*
X-50139Y-4610D01*
X-50148Y-4575D01*
X-50158Y-4541D01*
X-50170Y-4508D01*
X-50183Y-4475D01*
X-50198Y-4443D01*
X-50215Y-4412D01*
X-50234Y-4382D01*
X-50254Y-4353D01*
X-50275Y-4325D01*
X-50298Y-4298D01*
X-50323Y-4273D01*
X-50348Y-4248D01*
X-50375Y-4225D01*
X-50403Y-4204D01*
X-50432Y-4184D01*
X-50462Y-4165D01*
X-50493Y-4148D01*
X-50525Y-4133D01*
X-50558Y-4120D01*
X-50591Y-4108D01*
X-50625Y-4098D01*
X-50660Y-4090D01*
X-50694Y-4083D01*
X-50729Y-4078D01*
X-50765Y-4076D01*
X-50800Y-4075D01*
X-50850D01*
Y-4750D01*
Y-5425D01*
X-50800D01*
X-50765Y-5424D01*
X-50729Y-5422D01*
X-50694Y-5417D01*
X-50660Y-5410D01*
X-50625Y-5402D01*
X-50591Y-5392D01*
X-50558Y-5380D01*
X-50525Y-5367D01*
X-50493Y-5352D01*
X-50462Y-5335D01*
X-50432Y-5316D01*
X-50403Y-5296D01*
X-50375Y-5275D01*
X-50348Y-5252D01*
X-50323Y-5227D01*
X-50298Y-5202D01*
X-50275Y-5175D01*
X-50254Y-5147D01*
X-50234Y-5118D01*
X-50215Y-5088D01*
X-50198Y-5057D01*
X-50183Y-5025D01*
X-50170Y-4992D01*
X-50158Y-4959D01*
X-50148Y-4925D01*
X-50139Y-4890D01*
X-50133Y-4856D01*
X-50128Y-4821D01*
X-50126Y-4795D01*
Y-5322D01*
X-50126Y-5343D01*
X-50123Y-5365D01*
X-50119Y-5386D01*
X-50113Y-5407D01*
X-50105Y-5427D01*
X-50096Y-5447D01*
X-50086Y-5466D01*
X-50080Y-5475D01*
X-53184D01*
Y-850D01*
X-53139Y-840D01*
X-53091Y-827D01*
X-53044Y-813D01*
X-52997Y-797D01*
X-52951Y-779D01*
X-52905Y-759D01*
X-52861Y-737D01*
X-52817Y-714D01*
X-52774Y-689D01*
X-52733Y-662D01*
X-52725Y-657D01*
X-44142D01*
X-44135Y-662D01*
D02*
G37*
G36*
X-33166Y-11375D02*
X-33000Y-11408D01*
X-32825D01*
Y-12775D01*
X-32305D01*
Y-13004D01*
X-33088Y-13788D01*
X-33170Y-13771D01*
X-33346Y-13806D01*
X-33494Y-13906D01*
X-33594Y-14054D01*
X-33629Y-14230D01*
X-33594Y-14406D01*
X-33494Y-14554D01*
X-33346Y-14654D01*
X-33170Y-14689D01*
X-32994Y-14654D01*
X-32846Y-14554D01*
X-32746Y-14406D01*
X-32711Y-14230D01*
X-32728Y-14148D01*
X-31870Y-13290D01*
X-31815Y-13208D01*
X-31795Y-13110D01*
Y-12775D01*
X-31275D01*
Y-11408D01*
X-30086D01*
X-29934Y-11608D01*
X-29943Y-11650D01*
X-29908Y-11826D01*
X-29808Y-11974D01*
X-29659Y-12074D01*
X-29484Y-12109D01*
X-29308Y-12074D01*
X-29159Y-11974D01*
X-29113Y-11905D01*
X-27356D01*
X-22220Y-17040D01*
X-22297Y-17225D01*
X-22622D01*
X-22976Y-16870D01*
X-22959Y-16783D01*
X-22994Y-16607D01*
X-23093Y-16459D01*
X-23242Y-16359D01*
X-23418Y-16324D01*
X-23594Y-16359D01*
X-23742Y-16459D01*
X-23842Y-16607D01*
X-23877Y-16783D01*
X-23842Y-16959D01*
X-23762Y-17078D01*
X-23795Y-17100D01*
X-23878Y-17224D01*
X-23879Y-17225D01*
X-27022D01*
Y-14968D01*
X-26822Y-14812D01*
X-26790Y-14819D01*
X-26614Y-14784D01*
X-26466Y-14684D01*
X-26366Y-14536D01*
X-26331Y-14360D01*
X-26366Y-14184D01*
X-26466Y-14036D01*
X-26614Y-13936D01*
X-26697Y-13920D01*
X-26791Y-13896D01*
X-26843Y-13708D01*
X-26841Y-13700D01*
X-26876Y-13524D01*
X-26976Y-13376D01*
X-27124Y-13276D01*
X-27300Y-13241D01*
X-27476Y-13276D01*
X-27614Y-13369D01*
X-30556D01*
X-30683Y-13394D01*
X-30790Y-13466D01*
X-36140Y-18815D01*
X-37721D01*
Y-20865D01*
X-36325D01*
X-36249Y-21050D01*
X-36544Y-21345D01*
X-37734D01*
X-40777Y-18302D01*
X-40868Y-18241D01*
X-40965Y-18222D01*
X-40989Y-18182D01*
X-41025Y-18085D01*
X-41036Y-18020D01*
X-40881Y-17817D01*
X-40777Y-17568D01*
X-40742Y-17300D01*
X-40777Y-17032D01*
X-40783Y-17019D01*
X-39730Y-15965D01*
X-39647Y-15841D01*
X-39618Y-15695D01*
Y-13433D01*
X-38842Y-12658D01*
X-38759Y-12534D01*
X-38759Y-12534D01*
X-38759Y-12534D01*
X-38730Y-12387D01*
Y-11975D01*
X-37971D01*
X-37888Y-12175D01*
X-38631Y-12919D01*
X-38725Y-13059D01*
X-38758Y-13225D01*
Y-15671D01*
X-38725Y-15837D01*
X-38631Y-15977D01*
X-37660Y-16949D01*
X-37695Y-17032D01*
X-37730Y-17300D01*
X-37695Y-17568D01*
X-37591Y-17817D01*
X-37427Y-18031D01*
X-37213Y-18195D01*
X-36964Y-18299D01*
X-36696Y-18334D01*
X-36428Y-18299D01*
X-36179Y-18195D01*
X-35965Y-18031D01*
X-35801Y-17817D01*
X-35697Y-17568D01*
X-35662Y-17300D01*
X-35697Y-17032D01*
X-35801Y-16783D01*
X-35965Y-16569D01*
X-36179Y-16405D01*
X-36428Y-16301D01*
X-36696Y-16266D01*
X-36964Y-16301D01*
X-37047Y-16336D01*
X-37892Y-15491D01*
Y-15056D01*
X-37695Y-15028D01*
X-37591Y-15277D01*
X-37427Y-15491D01*
X-37213Y-15655D01*
X-36964Y-15759D01*
X-36696Y-15794D01*
X-36428Y-15759D01*
X-36179Y-15655D01*
X-35965Y-15491D01*
X-35801Y-15277D01*
X-35697Y-15028D01*
X-35662Y-14760D01*
X-35697Y-14492D01*
X-35801Y-14243D01*
X-35965Y-14029D01*
X-36179Y-13865D01*
X-36428Y-13761D01*
X-36696Y-13726D01*
X-36964Y-13761D01*
X-37213Y-13865D01*
X-37427Y-14029D01*
X-37591Y-14243D01*
X-37695Y-14492D01*
X-37892Y-14464D01*
Y-13404D01*
X-37104Y-12617D01*
X-37073Y-12648D01*
X-36982Y-12709D01*
X-36875Y-12730D01*
X-36125D01*
Y-12925D01*
X-35225D01*
Y-12362D01*
X-35125Y-12280D01*
X-34925D01*
Y-12775D01*
X-33375D01*
Y-11476D01*
X-33175Y-11369D01*
X-33166Y-11375D01*
D02*
G37*
G36*
X-26885Y-24808D02*
Y-25050D01*
X-26865Y-25148D01*
X-26810Y-25230D01*
X-25940Y-26100D01*
X-25858Y-26155D01*
X-25760Y-26175D01*
X-23611D01*
X-23406Y-26379D01*
Y-26698D01*
X-23606Y-26805D01*
X-23649Y-26776D01*
X-23825Y-26741D01*
X-24001Y-26776D01*
X-24149Y-26876D01*
X-24249Y-27024D01*
X-24284Y-27200D01*
X-24249Y-27376D01*
X-24149Y-27524D01*
X-24080Y-27571D01*
Y-28909D01*
X-24576Y-29405D01*
X-25431D01*
X-25485Y-29295D01*
X-25508Y-29205D01*
X-25421Y-29076D01*
X-25386Y-28900D01*
X-25421Y-28724D01*
X-25521Y-28576D01*
X-25595Y-28526D01*
Y-27990D01*
X-25615Y-27892D01*
X-25670Y-27810D01*
X-27095Y-26384D01*
Y-24708D01*
X-27085Y-24701D01*
X-26885Y-24808D01*
D02*
G37*
G36*
X-9525Y-675D02*
Y-1828D01*
X-9998Y-2302D01*
X-10059Y-2393D01*
X-10080Y-2500D01*
Y-4900D01*
X-10059Y-5007D01*
X-9998Y-5098D01*
X-9580Y-5516D01*
Y-9891D01*
X-9590Y-9918D01*
X-9698Y-9949D01*
X-9894Y-9803D01*
Y-8400D01*
X-9919Y-8273D01*
X-9955Y-8219D01*
X-9991Y-8166D01*
X-10600Y-7556D01*
Y-6975D01*
X-11650D01*
Y-8025D01*
X-11650D01*
X-11650Y-8125D01*
X-11650D01*
Y-9050D01*
X-11675D01*
Y-9475D01*
X-10775D01*
Y-9050D01*
X-10800D01*
Y-8748D01*
X-10600Y-8641D01*
X-10556Y-8671D01*
Y-10580D01*
X-13346D01*
X-13376Y-10536D01*
X-13524Y-10436D01*
X-13700Y-10401D01*
X-13876Y-10436D01*
X-14024Y-10536D01*
X-14084Y-10625D01*
X-14284Y-10564D01*
Y-9916D01*
X-14124Y-9884D01*
X-13976Y-9784D01*
X-13876Y-9636D01*
X-13841Y-9460D01*
X-13876Y-9284D01*
X-13969Y-9146D01*
Y-7831D01*
X-13065D01*
X-13050Y-8025D01*
D01*
X-12950Y-8181D01*
Y-9050D01*
X-12975D01*
Y-9475D01*
X-12075D01*
Y-9050D01*
X-12100D01*
Y-8125D01*
X-12000Y-8025D01*
X-12000D01*
Y-6975D01*
X-13050D01*
Y-7169D01*
X-13969D01*
Y-5653D01*
X-10850D01*
X-10782Y-5640D01*
X-10724Y-5601D01*
X-10685Y-5543D01*
X-10672Y-5475D01*
X-10672Y-948D01*
X-10600Y-885D01*
X-10271Y-842D01*
X-9964Y-715D01*
X-9722Y-529D01*
X-9656D01*
X-9525Y-675D01*
D02*
G37*
G36*
X-11301Y-662D02*
X-11259Y-689D01*
X-11216Y-714D01*
X-11172Y-737D01*
X-11128Y-759D01*
X-11083Y-779D01*
X-11036Y-797D01*
X-10990Y-813D01*
X-10942Y-827D01*
X-10894Y-840D01*
X-10850Y-850D01*
X-10850Y-5475D01*
X-13973D01*
X-13962Y-5459D01*
X-13952Y-5440D01*
X-13943Y-5420D01*
X-13935Y-5399D01*
X-13929Y-5379D01*
X-13925Y-5357D01*
X-13922Y-5336D01*
X-13922Y-5314D01*
Y-4788D01*
X-13920Y-4813D01*
X-13915Y-4848D01*
X-13909Y-4883D01*
X-13900Y-4917D01*
X-13890Y-4951D01*
X-13878Y-4984D01*
X-13865Y-5017D01*
X-13850Y-5049D01*
X-13833Y-5080D01*
X-13814Y-5110D01*
X-13794Y-5139D01*
X-13773Y-5167D01*
X-13750Y-5194D01*
X-13726Y-5220D01*
X-13700Y-5244D01*
X-13673Y-5267D01*
X-13645Y-5289D01*
X-13616Y-5309D01*
X-13586Y-5327D01*
X-13555Y-5344D01*
X-13523Y-5359D01*
X-13490Y-5373D01*
X-13457Y-5385D01*
X-13423Y-5395D01*
X-13388Y-5403D01*
X-13354Y-5409D01*
X-13319Y-5414D01*
X-13283Y-5417D01*
X-13248Y-5418D01*
X-13198D01*
Y-4742D01*
Y-4067D01*
X-13248D01*
X-13283Y-4068D01*
X-13319Y-4071D01*
X-13354Y-4075D01*
X-13388Y-4082D01*
X-13423Y-4090D01*
X-13457Y-4100D01*
X-13490Y-4112D01*
X-13523Y-4126D01*
X-13555Y-4141D01*
X-13586Y-4158D01*
X-13616Y-4176D01*
X-13645Y-4196D01*
X-13673Y-4218D01*
X-13700Y-4241D01*
X-13726Y-4265D01*
X-13750Y-4291D01*
X-13773Y-4317D01*
X-13794Y-4346D01*
X-13814Y-4375D01*
X-13833Y-4405D01*
X-13850Y-4436D01*
X-13865Y-4468D01*
X-13878Y-4500D01*
X-13890Y-4534D01*
X-13900Y-4568D01*
X-13909Y-4602D01*
X-13915Y-4637D01*
X-13920Y-4672D01*
X-13922Y-4697D01*
Y-4171D01*
X-13922Y-4149D01*
X-13925Y-4128D01*
X-13929Y-4106D01*
X-13935Y-4085D01*
X-13943Y-4065D01*
X-13952Y-4045D01*
X-13962Y-4026D01*
X-13974Y-4008D01*
X-13988Y-3991D01*
X-14003Y-3975D01*
X-14019Y-3960D01*
X-14036Y-3947D01*
X-14054Y-3935D01*
X-14073Y-3924D01*
X-14092Y-3915D01*
X-14113Y-3908D01*
X-14134Y-3902D01*
X-14155Y-3898D01*
X-14177Y-3895D01*
X-14198Y-3894D01*
X-14204D01*
X-14207Y-3885D01*
X-14223Y-3852D01*
X-14241Y-3820D01*
X-14260Y-3789D01*
X-14281Y-3758D01*
X-14303Y-3729D01*
X-14327Y-3701D01*
X-14352Y-3675D01*
X-14379Y-3649D01*
X-14407Y-3625D01*
X-14436Y-3603D01*
X-14466Y-3582D01*
X-14497Y-3563D01*
X-14530Y-3546D01*
X-14563Y-3530D01*
X-14597Y-3516D01*
X-14632Y-3503D01*
X-14667Y-3493D01*
X-14702Y-3484D01*
X-14739Y-3478D01*
X-14775Y-3473D01*
X-14812Y-3470D01*
X-14848Y-3469D01*
X-15052D01*
X-15088Y-3470D01*
X-15125Y-3473D01*
X-15161Y-3478D01*
X-15198Y-3484D01*
X-15233Y-3493D01*
X-15268Y-3503D01*
X-15275Y-3506D01*
X-15282Y-3503D01*
X-15317Y-3493D01*
X-15352Y-3484D01*
X-15389Y-3478D01*
X-15425Y-3473D01*
X-15462Y-3470D01*
X-15498Y-3469D01*
X-15702D01*
X-15738Y-3470D01*
X-15775Y-3473D01*
X-15811Y-3478D01*
X-15848Y-3484D01*
X-15883Y-3493D01*
X-15918Y-3503D01*
X-15953Y-3516D01*
X-15987Y-3530D01*
X-16020Y-3546D01*
X-16053Y-3563D01*
X-16084Y-3582D01*
X-16114Y-3603D01*
X-16143Y-3625D01*
X-16171Y-3649D01*
X-16198Y-3675D01*
X-16223Y-3701D01*
X-16247Y-3729D01*
X-16269Y-3758D01*
X-16290Y-3789D01*
X-16309Y-3820D01*
X-16327Y-3852D01*
X-16343Y-3885D01*
X-16346Y-3894D01*
X-16352D01*
X-16373Y-3895D01*
X-16395Y-3898D01*
X-16416Y-3902D01*
X-16437Y-3908D01*
X-16458Y-3915D01*
X-16477Y-3924D01*
X-16496Y-3935D01*
X-16514Y-3947D01*
X-16531Y-3960D01*
X-16547Y-3975D01*
X-16562Y-3991D01*
X-16575Y-4007D01*
X-16588Y-3991D01*
X-16603Y-3975D01*
X-16619Y-3960D01*
X-16636Y-3947D01*
X-16654Y-3935D01*
X-16673Y-3924D01*
X-16692Y-3915D01*
X-16713Y-3908D01*
X-16734Y-3902D01*
X-16755Y-3898D01*
X-16777Y-3895D01*
X-16798Y-3894D01*
X-17002D01*
X-17023Y-3895D01*
X-17045Y-3898D01*
X-17066Y-3902D01*
X-17087Y-3908D01*
X-17108Y-3915D01*
X-17127Y-3924D01*
X-17146Y-3935D01*
X-17164Y-3947D01*
X-17181Y-3960D01*
X-17197Y-3975D01*
X-17212Y-3991D01*
X-17226Y-4008D01*
X-17238Y-4026D01*
X-17248Y-4045D01*
X-17257Y-4065D01*
X-17265Y-4085D01*
X-17271Y-4106D01*
X-17275Y-4128D01*
X-17278Y-4149D01*
X-17278Y-4171D01*
Y-4697D01*
X-17280Y-4672D01*
X-17285Y-4637D01*
X-17291Y-4602D01*
X-17300Y-4568D01*
X-17310Y-4534D01*
X-17322Y-4500D01*
X-17335Y-4468D01*
X-17350Y-4436D01*
X-17367Y-4405D01*
X-17386Y-4375D01*
X-17406Y-4346D01*
X-17427Y-4317D01*
X-17450Y-4291D01*
X-17474Y-4265D01*
X-17500Y-4241D01*
X-17527Y-4218D01*
X-17555Y-4196D01*
X-17584Y-4176D01*
X-17614Y-4158D01*
X-17645Y-4141D01*
X-17677Y-4126D01*
X-17710Y-4112D01*
X-17743Y-4100D01*
X-17777Y-4090D01*
X-17812Y-4082D01*
X-17846Y-4075D01*
X-17881Y-4071D01*
X-17917Y-4068D01*
X-17952Y-4067D01*
X-18002D01*
Y-4742D01*
Y-5418D01*
X-17952D01*
X-17917Y-5417D01*
X-17881Y-5414D01*
X-17846Y-5409D01*
X-17812Y-5403D01*
X-17777Y-5395D01*
X-17743Y-5385D01*
X-17710Y-5373D01*
X-17677Y-5359D01*
X-17645Y-5344D01*
X-17614Y-5327D01*
X-17584Y-5309D01*
X-17555Y-5289D01*
X-17527Y-5267D01*
X-17500Y-5244D01*
X-17474Y-5220D01*
X-17450Y-5194D01*
X-17427Y-5167D01*
X-17406Y-5139D01*
X-17386Y-5110D01*
X-17367Y-5080D01*
X-17350Y-5049D01*
X-17335Y-5017D01*
X-17322Y-4984D01*
X-17310Y-4951D01*
X-17300Y-4917D01*
X-17291Y-4883D01*
X-17285Y-4848D01*
X-17280Y-4813D01*
X-17278Y-4788D01*
Y-5314D01*
X-17278Y-5336D01*
X-17275Y-5357D01*
X-17271Y-5379D01*
X-17265Y-5399D01*
X-17257Y-5420D01*
X-17248Y-5440D01*
X-17238Y-5459D01*
X-17227Y-5475D01*
X-20350D01*
Y-850D01*
X-20305Y-840D01*
X-20257Y-827D01*
X-20209Y-813D01*
X-20163Y-797D01*
X-20117Y-779D01*
X-20071Y-759D01*
X-20027Y-737D01*
X-19983Y-714D01*
X-19940Y-689D01*
X-19899Y-662D01*
X-19891Y-657D01*
X-11308D01*
X-11301Y-662D01*
D02*
G37*
G36*
X-31231Y-17108D02*
X-31214Y-17196D01*
X-31114Y-17344D01*
X-31045Y-17391D01*
Y-20989D01*
X-31245Y-21079D01*
X-31324Y-21026D01*
X-31500Y-20991D01*
X-31676Y-21026D01*
X-31824Y-21126D01*
X-31924Y-21274D01*
X-31959Y-21450D01*
X-31924Y-21626D01*
X-31824Y-21774D01*
X-31676Y-21874D01*
X-31500Y-21909D01*
X-31324Y-21874D01*
X-31245Y-21821D01*
X-31045Y-21911D01*
Y-23104D01*
X-32990Y-25050D01*
X-33045Y-25132D01*
X-33065Y-25230D01*
Y-26239D01*
X-33134Y-26286D01*
X-33234Y-26434D01*
X-33269Y-26610D01*
X-33234Y-26786D01*
X-33134Y-26934D01*
X-32986Y-27034D01*
X-32810Y-27069D01*
X-32634Y-27034D01*
X-32550Y-26978D01*
X-32354Y-27063D01*
X-32350Y-27066D01*
Y-27750D01*
Y-28535D01*
X-32420Y-28581D01*
X-32519Y-28730D01*
X-32554Y-28906D01*
X-32519Y-29081D01*
X-32436Y-29205D01*
X-32465Y-29311D01*
X-32518Y-29405D01*
X-37691D01*
X-38089Y-29007D01*
X-38071Y-28920D01*
X-38106Y-28744D01*
X-38206Y-28596D01*
X-38354Y-28496D01*
X-38530Y-28461D01*
X-38706Y-28496D01*
X-38854Y-28596D01*
X-38954Y-28744D01*
X-38989Y-28920D01*
X-38975Y-28990D01*
X-39113Y-29190D01*
X-42605D01*
X-42703Y-29210D01*
X-42785Y-29265D01*
X-43650Y-30129D01*
X-43866Y-30156D01*
X-44014Y-30056D01*
X-44190Y-30021D01*
X-44366Y-30056D01*
X-44514Y-30156D01*
X-44614Y-30304D01*
X-44649Y-30480D01*
X-44614Y-30656D01*
X-44514Y-30804D01*
X-44366Y-30904D01*
X-44190Y-30939D01*
X-44014Y-30904D01*
X-43866Y-30804D01*
X-43819Y-30735D01*
X-43640D01*
X-43542Y-30715D01*
X-43460Y-30660D01*
X-42499Y-29700D01*
X-38851D01*
X-38280Y-30270D01*
X-38198Y-30325D01*
X-38181Y-30329D01*
X-38219Y-30525D01*
X-39819D01*
X-39866Y-30456D01*
X-40014Y-30356D01*
X-40190Y-30321D01*
X-40366Y-30356D01*
X-40514Y-30456D01*
X-40614Y-30604D01*
X-40649Y-30780D01*
X-40614Y-30956D01*
X-40514Y-31104D01*
X-40366Y-31204D01*
X-40190Y-31239D01*
X-40014Y-31204D01*
X-39866Y-31104D01*
X-39819Y-31035D01*
X-26426D01*
X-26100Y-31361D01*
Y-32069D01*
X-26169Y-32116D01*
X-26269Y-32264D01*
X-26304Y-32440D01*
X-26283Y-32545D01*
X-26405Y-32745D01*
X-42544D01*
X-43357Y-31932D01*
X-43341Y-31850D01*
X-43376Y-31674D01*
X-43476Y-31526D01*
X-43624Y-31426D01*
X-43800Y-31391D01*
X-43976Y-31426D01*
X-44124Y-31526D01*
X-44224Y-31674D01*
X-44259Y-31850D01*
X-44224Y-32026D01*
X-44166Y-32113D01*
X-44139Y-32250D01*
X-44166Y-32387D01*
X-44224Y-32474D01*
X-44259Y-32650D01*
X-44224Y-32826D01*
X-44124Y-32974D01*
Y-33126D01*
X-44224Y-33274D01*
X-44259Y-33450D01*
X-44224Y-33626D01*
X-44208Y-33649D01*
X-44201Y-33840D01*
X-44266Y-33895D01*
X-44349Y-33951D01*
X-44449Y-34099D01*
X-44484Y-34275D01*
X-44479Y-34301D01*
X-44519Y-34409D01*
X-44671Y-34450D01*
X-44822Y-34302D01*
X-44816Y-34275D01*
X-44851Y-34099D01*
X-44951Y-33951D01*
X-45005Y-33914D01*
Y-27612D01*
X-44338Y-26945D01*
X-44086D01*
X-44049Y-26999D01*
X-43901Y-27099D01*
X-43725Y-27134D01*
X-43549Y-27099D01*
X-43401Y-26999D01*
X-43349Y-26922D01*
X-43347Y-26921D01*
X-43128D01*
X-43126Y-26922D01*
X-43074Y-26999D01*
X-42926Y-27099D01*
X-42750Y-27134D01*
X-42574Y-27099D01*
X-42426Y-26999D01*
X-42326Y-26851D01*
X-42291Y-26675D01*
X-42326Y-26499D01*
X-42426Y-26351D01*
X-42574Y-26251D01*
X-42750Y-26216D01*
X-42926Y-26251D01*
X-43074Y-26351D01*
X-43126Y-26428D01*
X-43128Y-26429D01*
X-43347D01*
X-43349Y-26428D01*
X-43401Y-26351D01*
X-43549Y-26251D01*
X-43725Y-26216D01*
X-43901Y-26251D01*
X-44049Y-26351D01*
X-44074Y-26387D01*
X-44269Y-26379D01*
X-44341Y-26205D01*
X-44017Y-25880D01*
X-40054D01*
X-40024Y-25924D01*
X-39876Y-26024D01*
X-39700Y-26059D01*
X-39524Y-26024D01*
X-39376Y-25924D01*
X-39276Y-25776D01*
X-39241Y-25600D01*
X-39276Y-25424D01*
X-39339Y-25330D01*
X-39269Y-25152D01*
X-39250Y-25130D01*
X-34279D01*
X-34250Y-25174D01*
X-34101Y-25274D01*
X-33925Y-25309D01*
X-33750Y-25274D01*
X-33601Y-25174D01*
X-33501Y-25026D01*
X-33466Y-24850D01*
X-33501Y-24674D01*
X-33601Y-24526D01*
X-33750Y-24426D01*
X-33925Y-24391D01*
X-34101Y-24426D01*
X-34250Y-24526D01*
X-34279Y-24570D01*
X-36106D01*
X-36234Y-24370D01*
X-36216Y-24279D01*
X-36251Y-24103D01*
X-36351Y-23955D01*
X-36499Y-23855D01*
X-36675Y-23820D01*
X-36851Y-23855D01*
X-36999Y-23955D01*
X-37029Y-23999D01*
X-38047D01*
X-38076Y-23956D01*
X-38224Y-23856D01*
X-38400Y-23821D01*
X-38576Y-23856D01*
X-38724Y-23956D01*
X-38824Y-24104D01*
X-38859Y-24280D01*
X-38841Y-24370D01*
X-38970Y-24570D01*
X-45975D01*
X-46082Y-24591D01*
X-46173Y-24652D01*
X-47332Y-25811D01*
X-47393Y-25902D01*
X-47414Y-26009D01*
Y-29694D01*
X-47614Y-29813D01*
X-47725Y-29791D01*
X-47777Y-29802D01*
X-48140Y-29439D01*
Y-21011D01*
X-47634Y-20505D01*
X-44554D01*
X-44524Y-20549D01*
X-44376Y-20649D01*
X-44200Y-20684D01*
X-44024Y-20649D01*
X-43876Y-20549D01*
X-43776Y-20401D01*
X-43741Y-20225D01*
X-43776Y-20049D01*
X-43876Y-19901D01*
X-44024Y-19801D01*
X-44200Y-19766D01*
X-44376Y-19801D01*
X-44524Y-19901D01*
X-44554Y-19945D01*
X-47750D01*
X-47857Y-19966D01*
X-47948Y-20027D01*
X-48470Y-20548D01*
X-48670Y-20465D01*
Y-20216D01*
X-47234Y-18780D01*
X-42987D01*
X-42801Y-18815D01*
Y-20865D01*
X-40751D01*
Y-19382D01*
X-40566Y-19305D01*
X-38048Y-21823D01*
X-37957Y-21884D01*
X-37850Y-21905D01*
X-36427D01*
X-36320Y-21884D01*
X-36229Y-21823D01*
X-31440Y-17034D01*
X-31231Y-17108D01*
D02*
G37*
G36*
X-24320Y-34780D02*
X-24334Y-34850D01*
X-24299Y-35026D01*
X-24199Y-35174D01*
X-24130Y-35221D01*
Y-41621D01*
X-24174Y-41651D01*
X-24274Y-41799D01*
X-24309Y-41975D01*
X-24274Y-42151D01*
X-24174Y-42299D01*
X-24026Y-42399D01*
X-23850Y-42434D01*
X-23674Y-42399D01*
X-23526Y-42299D01*
X-23426Y-42151D01*
X-23409Y-42064D01*
X-23209Y-42084D01*
Y-49429D01*
X-23278Y-49476D01*
X-23378Y-49624D01*
X-23413Y-49800D01*
X-23378Y-49976D01*
X-23278Y-50124D01*
X-23130Y-50224D01*
X-22954Y-50259D01*
X-22872Y-50242D01*
X-22773Y-50427D01*
X-22978Y-50632D01*
X-23030Y-50621D01*
X-23206Y-50656D01*
X-23354Y-50756D01*
X-23454Y-50904D01*
X-23489Y-51080D01*
X-23454Y-51256D01*
X-23354Y-51404D01*
X-23206Y-51504D01*
X-23030Y-51539D01*
X-22854Y-51504D01*
X-22706Y-51404D01*
X-22606Y-51256D01*
X-22571Y-51080D01*
X-22582Y-51028D01*
X-22134Y-50581D01*
X-22020Y-50604D01*
X-21934Y-50656D01*
Y-51599D01*
X-22134Y-51706D01*
X-22194Y-51666D01*
X-22370Y-51631D01*
X-22546Y-51666D01*
X-22694Y-51766D01*
X-22794Y-51914D01*
X-22829Y-52090D01*
X-22794Y-52266D01*
X-22694Y-52414D01*
X-22668Y-52432D01*
X-22667Y-52629D01*
X-22699Y-52652D01*
X-22850Y-52693D01*
X-24160Y-51384D01*
Y-48304D01*
X-24116Y-48274D01*
X-24016Y-48126D01*
X-23981Y-47950D01*
X-24016Y-47774D01*
X-24116Y-47626D01*
X-24264Y-47526D01*
X-24440Y-47491D01*
X-24616Y-47526D01*
X-24764Y-47626D01*
X-24864Y-47774D01*
X-24899Y-47950D01*
X-24864Y-48126D01*
X-24764Y-48274D01*
X-24720Y-48304D01*
Y-51500D01*
X-24699Y-51607D01*
X-24638Y-51698D01*
X-23292Y-53045D01*
X-23293Y-53245D01*
X-23510D01*
Y-54395D01*
X-23510D01*
Y-54445D01*
X-23510D01*
Y-55047D01*
X-23975Y-55512D01*
X-26697Y-55512D01*
X-27118Y-55091D01*
X-27036Y-54891D01*
X-26165D01*
Y-52941D01*
X-26440D01*
X-26500Y-52741D01*
X-26476Y-52724D01*
X-26376Y-52576D01*
X-26341Y-52400D01*
X-26376Y-52224D01*
X-26476Y-52076D01*
X-26545Y-52029D01*
Y-36721D01*
X-26476Y-36674D01*
X-26376Y-36526D01*
X-26341Y-36350D01*
X-26376Y-36174D01*
X-26476Y-36026D01*
X-26624Y-35926D01*
X-26800Y-35891D01*
X-26976Y-35926D01*
X-27124Y-36026D01*
X-27224Y-36174D01*
X-27259Y-36350D01*
X-27224Y-36526D01*
X-27124Y-36674D01*
X-27055Y-36721D01*
Y-40392D01*
X-27255Y-40499D01*
X-27288Y-40476D01*
X-27464Y-40441D01*
X-27640Y-40476D01*
X-27788Y-40576D01*
X-27888Y-40724D01*
X-27895Y-40761D01*
X-28095Y-40741D01*
Y-36522D01*
X-28026Y-36476D01*
X-27926Y-36327D01*
X-27891Y-36151D01*
X-27926Y-35976D01*
X-28026Y-35827D01*
X-28174Y-35727D01*
X-28350Y-35692D01*
X-28526Y-35727D01*
X-28674Y-35827D01*
X-28774Y-35976D01*
X-28809Y-36151D01*
X-28774Y-36327D01*
X-28674Y-36476D01*
X-28605Y-36522D01*
Y-39833D01*
X-28805Y-39894D01*
X-28851Y-39826D01*
X-28999Y-39726D01*
X-29175Y-39691D01*
X-29351Y-39726D01*
X-29499Y-39826D01*
X-29565Y-39924D01*
X-29765Y-39863D01*
Y-36361D01*
X-29608Y-36208D01*
X-29432Y-36174D01*
X-29283Y-36074D01*
X-29184Y-35925D01*
X-29149Y-35750D01*
X-29168Y-35655D01*
X-29041Y-35455D01*
X-26900D01*
X-26802Y-35435D01*
X-26720Y-35380D01*
X-25919Y-34580D01*
X-24458D01*
X-24320Y-34780D01*
D02*
G37*
G36*
X-11795Y-66415D02*
X-11781Y-66426D01*
Y-74829D01*
X-11785Y-74832D01*
X-11985Y-74725D01*
Y-69825D01*
X-12005Y-69727D01*
X-12060Y-69645D01*
X-12330Y-69375D01*
X-12412Y-69320D01*
X-12510Y-69300D01*
X-14131D01*
X-14181Y-69226D01*
X-14329Y-69126D01*
X-14411Y-69110D01*
X-14391Y-68910D01*
X-14214D01*
Y-68804D01*
X-14079Y-68660D01*
X-13154D01*
Y-68685D01*
X-12729D01*
Y-68235D01*
Y-67785D01*
X-13154D01*
Y-67810D01*
X-14079D01*
X-14214Y-67666D01*
Y-67560D01*
X-16075D01*
X-16162Y-67519D01*
X-16272Y-67403D01*
X-16232Y-67218D01*
X-14109D01*
Y-67340D01*
X-13184D01*
Y-67365D01*
X-12759D01*
Y-66915D01*
X-12659D01*
Y-66815D01*
X-12134D01*
Y-66498D01*
X-12109Y-66481D01*
X-11981Y-66353D01*
X-11795Y-66415D01*
D02*
G37*
%LPC*%
G36*
X-20795Y-72470D02*
X-21195D01*
Y-73020D01*
X-20795D01*
Y-72470D01*
D02*
G37*
G36*
X-18666Y-72313D02*
X-19147D01*
Y-72794D01*
X-18666D01*
Y-72313D01*
D02*
G37*
G36*
X-19347D02*
X-19828D01*
Y-72794D01*
X-19347D01*
Y-72313D01*
D02*
G37*
G36*
X-20195Y-72470D02*
X-20595D01*
Y-73020D01*
X-20195D01*
Y-72470D01*
D02*
G37*
G36*
X-6970Y-78496D02*
X-7238Y-78531D01*
X-7487Y-78635D01*
X-7701Y-78799D01*
X-7865Y-79013D01*
X-7969Y-79262D01*
X-8004Y-79530D01*
X-7969Y-79798D01*
X-7865Y-80047D01*
X-7701Y-80261D01*
X-7487Y-80425D01*
X-7238Y-80529D01*
X-6970Y-80564D01*
X-6702Y-80529D01*
X-6453Y-80425D01*
X-6239Y-80261D01*
X-6075Y-80047D01*
X-5971Y-79798D01*
X-5936Y-79530D01*
X-5971Y-79262D01*
X-6075Y-79013D01*
X-6239Y-78799D01*
X-6453Y-78635D01*
X-6702Y-78531D01*
X-6970Y-78496D01*
D02*
G37*
G36*
X-35380Y-77480D02*
X-36330D01*
Y-78430D01*
X-35380D01*
Y-77480D01*
D02*
G37*
G36*
X-39335Y-76355D02*
X-41385D01*
Y-78405D01*
X-40640D01*
Y-80409D01*
X-40694Y-80446D01*
X-40794Y-80594D01*
X-40829Y-80770D01*
X-40794Y-80946D01*
X-40694Y-81094D01*
X-40546Y-81194D01*
X-40370Y-81229D01*
X-40194Y-81194D01*
X-40046Y-81094D01*
X-39946Y-80946D01*
X-39911Y-80770D01*
X-39946Y-80594D01*
X-40046Y-80446D01*
X-40080Y-80423D01*
Y-78405D01*
X-39335D01*
Y-76355D01*
D02*
G37*
G36*
X-35205Y-82689D02*
Y-83635D01*
X-34259D01*
X-34282Y-83461D01*
X-34388Y-83205D01*
X-34556Y-82986D01*
X-34775Y-82818D01*
X-35031Y-82712D01*
X-35205Y-82689D01*
D02*
G37*
G36*
X-6970Y-81036D02*
X-7238Y-81071D01*
X-7487Y-81175D01*
X-7701Y-81339D01*
X-7865Y-81553D01*
X-7969Y-81802D01*
X-8004Y-82070D01*
X-7969Y-82338D01*
X-7865Y-82587D01*
X-7701Y-82801D01*
X-7487Y-82965D01*
X-7238Y-83069D01*
X-6970Y-83104D01*
X-6702Y-83069D01*
X-6453Y-82965D01*
X-6239Y-82801D01*
X-6075Y-82587D01*
X-5971Y-82338D01*
X-5936Y-82070D01*
X-5971Y-81802D01*
X-6075Y-81553D01*
X-6239Y-81339D01*
X-6453Y-81175D01*
X-6702Y-81071D01*
X-6970Y-81036D01*
D02*
G37*
G36*
X-34230Y-77480D02*
X-35180D01*
Y-78430D01*
X-34230D01*
Y-77480D01*
D02*
G37*
G36*
X-19347Y-72994D02*
X-19828D01*
Y-73475D01*
X-19347D01*
Y-72994D01*
D02*
G37*
G36*
X-18666D02*
X-19147D01*
Y-73475D01*
X-18666D01*
Y-72994D01*
D02*
G37*
G36*
X-34230Y-76330D02*
X-35180D01*
Y-77280D01*
X-34230D01*
Y-76330D01*
D02*
G37*
G36*
X-6970Y-75956D02*
X-7238Y-75991D01*
X-7487Y-76095D01*
X-7701Y-76259D01*
X-7865Y-76473D01*
X-7969Y-76722D01*
X-8004Y-76990D01*
X-7969Y-77258D01*
X-7865Y-77507D01*
X-7701Y-77721D01*
X-7487Y-77885D01*
X-7238Y-77989D01*
X-6970Y-78024D01*
X-6702Y-77989D01*
X-6453Y-77885D01*
X-6239Y-77721D01*
X-6075Y-77507D01*
X-5971Y-77258D01*
X-5936Y-76990D01*
X-5971Y-76722D01*
X-6075Y-76473D01*
X-6239Y-76259D01*
X-6453Y-76095D01*
X-6702Y-75991D01*
X-6970Y-75956D01*
D02*
G37*
G36*
X-35380Y-76330D02*
X-36330D01*
Y-77280D01*
X-35380D01*
Y-76330D01*
D02*
G37*
G36*
X-14500Y-44066D02*
X-14676Y-44101D01*
X-14824Y-44201D01*
X-14924Y-44349D01*
X-14959Y-44525D01*
X-14924Y-44701D01*
X-14824Y-44849D01*
X-14755Y-44896D01*
Y-53349D01*
X-14860Y-53428D01*
X-14955Y-53470D01*
X-15100Y-53441D01*
X-15276Y-53476D01*
X-15424Y-53576D01*
X-15524Y-53724D01*
X-15559Y-53900D01*
X-15524Y-54076D01*
X-15424Y-54224D01*
X-15355Y-54271D01*
Y-59004D01*
X-15424Y-59051D01*
X-15524Y-59199D01*
X-15559Y-59375D01*
X-15524Y-59551D01*
X-15424Y-59699D01*
X-15276Y-59799D01*
X-15100Y-59834D01*
X-14924Y-59799D01*
X-14776Y-59699D01*
X-14676Y-59551D01*
X-14641Y-59375D01*
X-14676Y-59199D01*
X-14776Y-59051D01*
X-14777Y-59049D01*
X-14780Y-58887D01*
X-14609Y-58762D01*
X-14500Y-58784D01*
X-14324Y-58749D01*
X-14176Y-58649D01*
X-14076Y-58501D01*
X-14041Y-58325D01*
X-14076Y-58149D01*
X-14176Y-58001D01*
X-14245Y-57954D01*
Y-44896D01*
X-14176Y-44849D01*
X-14076Y-44701D01*
X-14041Y-44525D01*
X-14076Y-44349D01*
X-14176Y-44201D01*
X-14324Y-44101D01*
X-14500Y-44066D01*
D02*
G37*
G36*
X-7070Y-51690D02*
X-8016D01*
X-7993Y-51864D01*
X-7887Y-52120D01*
X-7719Y-52339D01*
X-7500Y-52507D01*
X-7244Y-52613D01*
X-7070Y-52636D01*
Y-51690D01*
D02*
G37*
G36*
X-34255Y-53475D02*
X-35205D01*
Y-54425D01*
X-34255D01*
Y-53475D01*
D02*
G37*
G36*
X-39314Y-48270D02*
X-40260D01*
Y-49216D01*
X-40086Y-49193D01*
X-39830Y-49087D01*
X-39611Y-48919D01*
X-39443Y-48700D01*
X-39337Y-48444D01*
X-39314Y-48270D01*
D02*
G37*
G36*
X-35280Y-47136D02*
X-35548Y-47171D01*
X-35797Y-47275D01*
X-36011Y-47439D01*
X-36175Y-47653D01*
X-36279Y-47902D01*
X-36314Y-48170D01*
X-36279Y-48438D01*
X-36175Y-48687D01*
X-36011Y-48901D01*
X-35797Y-49065D01*
X-35548Y-49169D01*
X-35280Y-49204D01*
X-35012Y-49169D01*
X-34763Y-49065D01*
X-34549Y-48901D01*
X-34385Y-48687D01*
X-34281Y-48438D01*
X-34246Y-48170D01*
X-34281Y-47902D01*
X-34385Y-47653D01*
X-34549Y-47439D01*
X-34763Y-47275D01*
X-35012Y-47171D01*
X-35280Y-47136D01*
D02*
G37*
G36*
X-7070Y-50544D02*
X-7244Y-50567D01*
X-7500Y-50673D01*
X-7719Y-50841D01*
X-7887Y-51060D01*
X-7993Y-51316D01*
X-8016Y-51490D01*
X-7070D01*
Y-50544D01*
D02*
G37*
G36*
X-33240Y-42133D02*
X-33417Y-42168D01*
X-33568Y-42269D01*
X-33668Y-42419D01*
X-33703Y-42596D01*
X-33668Y-42773D01*
X-33568Y-42924D01*
X-33520Y-42955D01*
Y-48641D01*
X-33568Y-48672D01*
X-33668Y-48823D01*
X-33703Y-49000D01*
X-33668Y-49177D01*
X-33568Y-49328D01*
X-33417Y-49428D01*
X-33240Y-49463D01*
X-33063Y-49428D01*
X-32912Y-49328D01*
X-32812Y-49177D01*
X-32777Y-49000D01*
X-32812Y-48823D01*
X-32912Y-48672D01*
X-32960Y-48641D01*
Y-42955D01*
X-32912Y-42924D01*
X-32812Y-42773D01*
X-32777Y-42596D01*
X-32812Y-42419D01*
X-32912Y-42269D01*
X-33063Y-42168D01*
X-33240Y-42133D01*
D02*
G37*
G36*
X-35405Y-53475D02*
X-36355D01*
Y-54425D01*
X-35405D01*
Y-53475D01*
D02*
G37*
G36*
X-19830Y-53581D02*
X-20006Y-53616D01*
X-20154Y-53716D01*
X-20254Y-53864D01*
X-20289Y-54040D01*
X-20254Y-54216D01*
X-20154Y-54364D01*
X-20123Y-54385D01*
Y-54580D01*
X-20154Y-54601D01*
X-20254Y-54750D01*
X-20289Y-54925D01*
X-20254Y-55101D01*
X-20154Y-55250D01*
X-20110Y-55279D01*
Y-55965D01*
X-20155D01*
X-20155Y-56984D01*
X-20204Y-57164D01*
X-20204Y-57195D01*
Y-57645D01*
X-19622D01*
X-19042D01*
Y-57189D01*
X-19041Y-57164D01*
X-19105Y-56990D01*
X-19105Y-56964D01*
Y-55965D01*
X-19550D01*
Y-55279D01*
X-19506Y-55250D01*
X-19406Y-55101D01*
X-19371Y-54925D01*
X-19406Y-54750D01*
X-19506Y-54601D01*
X-19537Y-54580D01*
Y-54386D01*
X-19506Y-54364D01*
X-19406Y-54216D01*
X-19371Y-54040D01*
X-19406Y-53864D01*
X-19506Y-53716D01*
X-19654Y-53616D01*
X-19830Y-53581D01*
D02*
G37*
G36*
X-34255Y-54625D02*
X-35205D01*
Y-55575D01*
X-34255D01*
Y-54625D01*
D02*
G37*
G36*
X-35405D02*
X-36355D01*
Y-55575D01*
X-35405D01*
Y-54625D01*
D02*
G37*
G36*
X-35405Y-82689D02*
X-35579Y-82712D01*
X-35835Y-82818D01*
X-36054Y-82986D01*
X-36222Y-83205D01*
X-36328Y-83461D01*
X-36351Y-83635D01*
X-35405D01*
Y-82689D01*
D02*
G37*
G36*
X-38890Y-91996D02*
X-39158Y-92031D01*
X-39407Y-92135D01*
X-39621Y-92299D01*
X-39785Y-92513D01*
X-39889Y-92762D01*
X-39924Y-93030D01*
X-39889Y-93298D01*
X-39785Y-93547D01*
X-39621Y-93761D01*
X-39407Y-93925D01*
X-39158Y-94029D01*
X-38890Y-94064D01*
X-38622Y-94029D01*
X-38373Y-93925D01*
X-38159Y-93761D01*
X-37995Y-93547D01*
X-37891Y-93298D01*
X-37856Y-93030D01*
X-37891Y-92762D01*
X-37995Y-92513D01*
X-38159Y-92299D01*
X-38373Y-92135D01*
X-38622Y-92031D01*
X-38890Y-91996D01*
D02*
G37*
G36*
X-36350D02*
X-36618Y-92031D01*
X-36867Y-92135D01*
X-37081Y-92299D01*
X-37245Y-92513D01*
X-37349Y-92762D01*
X-37384Y-93030D01*
X-37349Y-93298D01*
X-37245Y-93547D01*
X-37081Y-93761D01*
X-36867Y-93925D01*
X-36618Y-94029D01*
X-36350Y-94064D01*
X-36082Y-94029D01*
X-35833Y-93925D01*
X-35619Y-93761D01*
X-35455Y-93547D01*
X-35351Y-93298D01*
X-35316Y-93030D01*
X-35351Y-92762D01*
X-35455Y-92513D01*
X-35619Y-92299D01*
X-35833Y-92135D01*
X-36082Y-92031D01*
X-36350Y-91996D01*
D02*
G37*
G36*
X-40384Y-93130D02*
X-41330D01*
Y-94076D01*
X-41156Y-94053D01*
X-40900Y-93947D01*
X-40681Y-93779D01*
X-40513Y-93560D01*
X-40407Y-93304D01*
X-40384Y-93130D01*
D02*
G37*
G36*
X-18470Y-94524D02*
Y-95470D01*
X-17524D01*
X-17547Y-95296D01*
X-17653Y-95040D01*
X-17821Y-94821D01*
X-18040Y-94653D01*
X-18296Y-94547D01*
X-18470Y-94524D01*
D02*
G37*
G36*
X-41530Y-93130D02*
X-42476D01*
X-42453Y-93304D01*
X-42347Y-93560D01*
X-42179Y-93779D01*
X-41960Y-93947D01*
X-41704Y-94053D01*
X-41530Y-94076D01*
Y-93130D01*
D02*
G37*
G36*
X-33810Y-91996D02*
X-34078Y-92031D01*
X-34327Y-92135D01*
X-34541Y-92299D01*
X-34705Y-92513D01*
X-34809Y-92762D01*
X-34844Y-93030D01*
X-34809Y-93298D01*
X-34705Y-93547D01*
X-34541Y-93761D01*
X-34327Y-93925D01*
X-34078Y-94029D01*
X-33810Y-94064D01*
X-33542Y-94029D01*
X-33293Y-93925D01*
X-33079Y-93761D01*
X-32915Y-93547D01*
X-32811Y-93298D01*
X-32776Y-93030D01*
X-32811Y-92762D01*
X-32915Y-92513D01*
X-33079Y-92299D01*
X-33293Y-92135D01*
X-33542Y-92031D01*
X-33810Y-91996D01*
D02*
G37*
G36*
X-23650D02*
X-23918Y-92031D01*
X-24167Y-92135D01*
X-24381Y-92299D01*
X-24545Y-92513D01*
X-24649Y-92762D01*
X-24684Y-93030D01*
X-24649Y-93298D01*
X-24545Y-93547D01*
X-24381Y-93761D01*
X-24167Y-93925D01*
X-23918Y-94029D01*
X-23650Y-94064D01*
X-23382Y-94029D01*
X-23133Y-93925D01*
X-22919Y-93761D01*
X-22755Y-93547D01*
X-22651Y-93298D01*
X-22616Y-93030D01*
X-22651Y-92762D01*
X-22755Y-92513D01*
X-22919Y-92299D01*
X-23133Y-92135D01*
X-23382Y-92031D01*
X-23650Y-91996D01*
D02*
G37*
G36*
X-21110D02*
X-21378Y-92031D01*
X-21627Y-92135D01*
X-21841Y-92299D01*
X-22005Y-92513D01*
X-22109Y-92762D01*
X-22144Y-93030D01*
X-22109Y-93298D01*
X-22005Y-93547D01*
X-21841Y-93761D01*
X-21627Y-93925D01*
X-21378Y-94029D01*
X-21110Y-94064D01*
X-20842Y-94029D01*
X-20593Y-93925D01*
X-20379Y-93761D01*
X-20215Y-93547D01*
X-20111Y-93298D01*
X-20076Y-93030D01*
X-20111Y-92762D01*
X-20215Y-92513D01*
X-20379Y-92299D01*
X-20593Y-92135D01*
X-20842Y-92031D01*
X-21110Y-91996D01*
D02*
G37*
G36*
X-26190D02*
X-26458Y-92031D01*
X-26707Y-92135D01*
X-26921Y-92299D01*
X-27085Y-92513D01*
X-27189Y-92762D01*
X-27224Y-93030D01*
X-27189Y-93298D01*
X-27085Y-93547D01*
X-26921Y-93761D01*
X-26707Y-93925D01*
X-26458Y-94029D01*
X-26190Y-94064D01*
X-25922Y-94029D01*
X-25673Y-93925D01*
X-25459Y-93761D01*
X-25295Y-93547D01*
X-25191Y-93298D01*
X-25156Y-93030D01*
X-25191Y-92762D01*
X-25295Y-92513D01*
X-25459Y-92299D01*
X-25673Y-92135D01*
X-25922Y-92031D01*
X-26190Y-91996D01*
D02*
G37*
G36*
X-31270D02*
X-31538Y-92031D01*
X-31787Y-92135D01*
X-32001Y-92299D01*
X-32165Y-92513D01*
X-32269Y-92762D01*
X-32304Y-93030D01*
X-32269Y-93298D01*
X-32165Y-93547D01*
X-32001Y-93761D01*
X-31787Y-93925D01*
X-31538Y-94029D01*
X-31270Y-94064D01*
X-31002Y-94029D01*
X-30753Y-93925D01*
X-30539Y-93761D01*
X-30375Y-93547D01*
X-30271Y-93298D01*
X-30236Y-93030D01*
X-30271Y-92762D01*
X-30375Y-92513D01*
X-30539Y-92299D01*
X-30753Y-92135D01*
X-31002Y-92031D01*
X-31270Y-91996D01*
D02*
G37*
G36*
X-28730D02*
X-28998Y-92031D01*
X-29247Y-92135D01*
X-29461Y-92299D01*
X-29625Y-92513D01*
X-29729Y-92762D01*
X-29764Y-93030D01*
X-29729Y-93298D01*
X-29625Y-93547D01*
X-29461Y-93761D01*
X-29247Y-93925D01*
X-28998Y-94029D01*
X-28730Y-94064D01*
X-28462Y-94029D01*
X-28213Y-93925D01*
X-27999Y-93761D01*
X-27835Y-93547D01*
X-27731Y-93298D01*
X-27696Y-93030D01*
X-27731Y-92762D01*
X-27835Y-92513D01*
X-27999Y-92299D01*
X-28213Y-92135D01*
X-28462Y-92031D01*
X-28730Y-91996D01*
D02*
G37*
G36*
X-18670Y-94524D02*
X-18844Y-94547D01*
X-19100Y-94653D01*
X-19319Y-94821D01*
X-19487Y-95040D01*
X-19593Y-95296D01*
X-19616Y-95470D01*
X-18670D01*
Y-94524D01*
D02*
G37*
G36*
X-38890Y-94536D02*
X-39158Y-94571D01*
X-39407Y-94675D01*
X-39621Y-94839D01*
X-39785Y-95053D01*
X-39889Y-95302D01*
X-39924Y-95570D01*
X-39889Y-95838D01*
X-39785Y-96087D01*
X-39621Y-96301D01*
X-39407Y-96465D01*
X-39158Y-96569D01*
X-38890Y-96604D01*
X-38622Y-96569D01*
X-38373Y-96465D01*
X-38159Y-96301D01*
X-37995Y-96087D01*
X-37891Y-95838D01*
X-37856Y-95570D01*
X-37891Y-95302D01*
X-37995Y-95053D01*
X-38159Y-94839D01*
X-38373Y-94675D01*
X-38622Y-94571D01*
X-38890Y-94536D01*
D02*
G37*
G36*
X-36350D02*
X-36618Y-94571D01*
X-36867Y-94675D01*
X-37081Y-94839D01*
X-37245Y-95053D01*
X-37349Y-95302D01*
X-37384Y-95570D01*
X-37349Y-95838D01*
X-37245Y-96087D01*
X-37081Y-96301D01*
X-36867Y-96465D01*
X-36618Y-96569D01*
X-36350Y-96604D01*
X-36082Y-96569D01*
X-35833Y-96465D01*
X-35619Y-96301D01*
X-35455Y-96087D01*
X-35351Y-95838D01*
X-35316Y-95570D01*
X-35351Y-95302D01*
X-35455Y-95053D01*
X-35619Y-94839D01*
X-35833Y-94675D01*
X-36082Y-94571D01*
X-36350Y-94536D01*
D02*
G37*
G36*
X-41430D02*
X-41698Y-94571D01*
X-41947Y-94675D01*
X-42161Y-94839D01*
X-42325Y-95053D01*
X-42429Y-95302D01*
X-42464Y-95570D01*
X-42429Y-95838D01*
X-42325Y-96087D01*
X-42161Y-96301D01*
X-41947Y-96465D01*
X-41698Y-96569D01*
X-41430Y-96604D01*
X-41162Y-96569D01*
X-40913Y-96465D01*
X-40699Y-96301D01*
X-40535Y-96087D01*
X-40431Y-95838D01*
X-40396Y-95570D01*
X-40431Y-95302D01*
X-40535Y-95053D01*
X-40699Y-94839D01*
X-40913Y-94675D01*
X-41162Y-94571D01*
X-41430Y-94536D01*
D02*
G37*
G36*
X-18670Y-95670D02*
X-19616D01*
X-19593Y-95844D01*
X-19487Y-96100D01*
X-19319Y-96319D01*
X-19100Y-96487D01*
X-18844Y-96593D01*
X-18670Y-96616D01*
Y-95670D01*
D02*
G37*
G36*
X-17524D02*
X-18470D01*
Y-96616D01*
X-18296Y-96593D01*
X-18040Y-96487D01*
X-17821Y-96319D01*
X-17653Y-96100D01*
X-17547Y-95844D01*
X-17524Y-95670D01*
D02*
G37*
G36*
X-33810Y-94536D02*
X-34078Y-94571D01*
X-34327Y-94675D01*
X-34541Y-94839D01*
X-34705Y-95053D01*
X-34809Y-95302D01*
X-34844Y-95570D01*
X-34809Y-95838D01*
X-34705Y-96087D01*
X-34541Y-96301D01*
X-34327Y-96465D01*
X-34078Y-96569D01*
X-33810Y-96604D01*
X-33542Y-96569D01*
X-33293Y-96465D01*
X-33079Y-96301D01*
X-32915Y-96087D01*
X-32811Y-95838D01*
X-32776Y-95570D01*
X-32811Y-95302D01*
X-32915Y-95053D01*
X-33079Y-94839D01*
X-33293Y-94675D01*
X-33542Y-94571D01*
X-33810Y-94536D01*
D02*
G37*
G36*
X-23650D02*
X-23918Y-94571D01*
X-24167Y-94675D01*
X-24381Y-94839D01*
X-24545Y-95053D01*
X-24649Y-95302D01*
X-24684Y-95570D01*
X-24649Y-95838D01*
X-24545Y-96087D01*
X-24381Y-96301D01*
X-24167Y-96465D01*
X-23918Y-96569D01*
X-23650Y-96604D01*
X-23382Y-96569D01*
X-23133Y-96465D01*
X-22919Y-96301D01*
X-22755Y-96087D01*
X-22651Y-95838D01*
X-22616Y-95570D01*
X-22651Y-95302D01*
X-22755Y-95053D01*
X-22919Y-94839D01*
X-23133Y-94675D01*
X-23382Y-94571D01*
X-23650Y-94536D01*
D02*
G37*
G36*
X-21110D02*
X-21378Y-94571D01*
X-21627Y-94675D01*
X-21841Y-94839D01*
X-22005Y-95053D01*
X-22109Y-95302D01*
X-22144Y-95570D01*
X-22109Y-95838D01*
X-22005Y-96087D01*
X-21841Y-96301D01*
X-21627Y-96465D01*
X-21378Y-96569D01*
X-21110Y-96604D01*
X-20842Y-96569D01*
X-20593Y-96465D01*
X-20379Y-96301D01*
X-20215Y-96087D01*
X-20111Y-95838D01*
X-20076Y-95570D01*
X-20111Y-95302D01*
X-20215Y-95053D01*
X-20379Y-94839D01*
X-20593Y-94675D01*
X-20842Y-94571D01*
X-21110Y-94536D01*
D02*
G37*
G36*
X-26190D02*
X-26458Y-94571D01*
X-26707Y-94675D01*
X-26921Y-94839D01*
X-27085Y-95053D01*
X-27189Y-95302D01*
X-27224Y-95570D01*
X-27189Y-95838D01*
X-27085Y-96087D01*
X-26921Y-96301D01*
X-26707Y-96465D01*
X-26458Y-96569D01*
X-26190Y-96604D01*
X-25922Y-96569D01*
X-25673Y-96465D01*
X-25459Y-96301D01*
X-25295Y-96087D01*
X-25191Y-95838D01*
X-25156Y-95570D01*
X-25191Y-95302D01*
X-25295Y-95053D01*
X-25459Y-94839D01*
X-25673Y-94675D01*
X-25922Y-94571D01*
X-26190Y-94536D01*
D02*
G37*
G36*
X-31270D02*
X-31538Y-94571D01*
X-31787Y-94675D01*
X-32001Y-94839D01*
X-32165Y-95053D01*
X-32269Y-95302D01*
X-32304Y-95570D01*
X-32269Y-95838D01*
X-32165Y-96087D01*
X-32001Y-96301D01*
X-31787Y-96465D01*
X-31538Y-96569D01*
X-31270Y-96604D01*
X-31002Y-96569D01*
X-30753Y-96465D01*
X-30539Y-96301D01*
X-30375Y-96087D01*
X-30271Y-95838D01*
X-30236Y-95570D01*
X-30271Y-95302D01*
X-30375Y-95053D01*
X-30539Y-94839D01*
X-30753Y-94675D01*
X-31002Y-94571D01*
X-31270Y-94536D01*
D02*
G37*
G36*
X-28730D02*
X-28998Y-94571D01*
X-29247Y-94675D01*
X-29461Y-94839D01*
X-29625Y-95053D01*
X-29729Y-95302D01*
X-29764Y-95570D01*
X-29729Y-95838D01*
X-29625Y-96087D01*
X-29461Y-96301D01*
X-29247Y-96465D01*
X-28998Y-96569D01*
X-28730Y-96604D01*
X-28462Y-96569D01*
X-28213Y-96465D01*
X-27999Y-96301D01*
X-27835Y-96087D01*
X-27731Y-95838D01*
X-27696Y-95570D01*
X-27731Y-95302D01*
X-27835Y-95053D01*
X-27999Y-94839D01*
X-28213Y-94675D01*
X-28462Y-94571D01*
X-28730Y-94536D01*
D02*
G37*
G36*
X-17400Y-84750D02*
X-17650D01*
Y-85200D01*
X-17400D01*
Y-84750D01*
D02*
G37*
G36*
X-35405Y-83835D02*
X-36351D01*
X-36328Y-84009D01*
X-36222Y-84265D01*
X-36054Y-84484D01*
X-35835Y-84652D01*
X-35579Y-84758D01*
X-35405Y-84781D01*
Y-83835D01*
D02*
G37*
G36*
X-35205Y-85229D02*
Y-86175D01*
X-34259D01*
X-34282Y-86001D01*
X-34388Y-85745D01*
X-34556Y-85526D01*
X-34775Y-85358D01*
X-35031Y-85252D01*
X-35205Y-85229D01*
D02*
G37*
G36*
X-6870Y-86104D02*
Y-87050D01*
X-5924D01*
X-5947Y-86876D01*
X-6053Y-86620D01*
X-6221Y-86401D01*
X-6440Y-86233D01*
X-6696Y-86127D01*
X-6870Y-86104D01*
D02*
G37*
G36*
X-35405Y-85229D02*
X-35579Y-85252D01*
X-35835Y-85358D01*
X-36054Y-85526D01*
X-36222Y-85745D01*
X-36328Y-86001D01*
X-36351Y-86175D01*
X-35405D01*
Y-85229D01*
D02*
G37*
G36*
X-34259Y-83835D02*
X-35205D01*
Y-84781D01*
X-35031Y-84758D01*
X-34775Y-84652D01*
X-34556Y-84484D01*
X-34388Y-84265D01*
X-34282Y-84009D01*
X-34259Y-83835D01*
D02*
G37*
G36*
X-37845Y-82701D02*
X-38113Y-82736D01*
X-38362Y-82840D01*
X-38576Y-83004D01*
X-38740Y-83218D01*
X-38844Y-83467D01*
X-38879Y-83735D01*
X-38844Y-84003D01*
X-38740Y-84252D01*
X-38576Y-84466D01*
X-38362Y-84630D01*
X-38113Y-84734D01*
X-37845Y-84769D01*
X-37577Y-84734D01*
X-37328Y-84630D01*
X-37114Y-84466D01*
X-36950Y-84252D01*
X-36846Y-84003D01*
X-36811Y-83735D01*
X-36846Y-83467D01*
X-36950Y-83218D01*
X-37114Y-83004D01*
X-37328Y-82840D01*
X-37577Y-82736D01*
X-37845Y-82701D01*
D02*
G37*
G36*
X-20250Y-83725D02*
X-20600D01*
Y-84150D01*
X-20250D01*
Y-83725D01*
D02*
G37*
G36*
X-40385Y-82701D02*
X-40653Y-82736D01*
X-40902Y-82840D01*
X-41116Y-83004D01*
X-41280Y-83218D01*
X-41384Y-83467D01*
X-41419Y-83735D01*
X-41384Y-84003D01*
X-41280Y-84252D01*
X-41116Y-84466D01*
X-40902Y-84630D01*
X-40653Y-84734D01*
X-40385Y-84769D01*
X-40117Y-84734D01*
X-39868Y-84630D01*
X-39654Y-84466D01*
X-39490Y-84252D01*
X-39386Y-84003D01*
X-39351Y-83735D01*
X-39386Y-83467D01*
X-39490Y-83218D01*
X-39654Y-83004D01*
X-39868Y-82840D01*
X-40117Y-82736D01*
X-40385Y-82701D01*
D02*
G37*
G36*
X-45465D02*
X-45733Y-82736D01*
X-45982Y-82840D01*
X-46196Y-83004D01*
X-46360Y-83218D01*
X-46464Y-83467D01*
X-46499Y-83735D01*
X-46464Y-84003D01*
X-46360Y-84252D01*
X-46196Y-84466D01*
X-45982Y-84630D01*
X-45733Y-84734D01*
X-45465Y-84769D01*
X-45197Y-84734D01*
X-44948Y-84630D01*
X-44734Y-84466D01*
X-44570Y-84252D01*
X-44466Y-84003D01*
X-44431Y-83735D01*
X-44466Y-83467D01*
X-44570Y-83218D01*
X-44734Y-83004D01*
X-44948Y-82840D01*
X-45197Y-82736D01*
X-45465Y-82701D01*
D02*
G37*
G36*
X-42925D02*
X-43193Y-82736D01*
X-43442Y-82840D01*
X-43656Y-83004D01*
X-43820Y-83218D01*
X-43924Y-83467D01*
X-43959Y-83735D01*
X-43924Y-84003D01*
X-43820Y-84252D01*
X-43656Y-84466D01*
X-43442Y-84630D01*
X-43193Y-84734D01*
X-42925Y-84769D01*
X-42657Y-84734D01*
X-42408Y-84630D01*
X-42194Y-84466D01*
X-42030Y-84252D01*
X-41926Y-84003D01*
X-41891Y-83735D01*
X-41926Y-83467D01*
X-42030Y-83218D01*
X-42194Y-83004D01*
X-42408Y-82840D01*
X-42657Y-82736D01*
X-42925Y-82701D01*
D02*
G37*
G36*
X-7070Y-86104D02*
X-7244Y-86127D01*
X-7500Y-86233D01*
X-7719Y-86401D01*
X-7887Y-86620D01*
X-7993Y-86876D01*
X-8016Y-87050D01*
X-7070D01*
Y-86104D01*
D02*
G37*
G36*
X-5924Y-87250D02*
X-6870D01*
Y-88196D01*
X-6696Y-88173D01*
X-6440Y-88067D01*
X-6221Y-87899D01*
X-6053Y-87680D01*
X-5947Y-87424D01*
X-5924Y-87250D01*
D02*
G37*
G36*
X-7070D02*
X-8016D01*
X-7993Y-87424D01*
X-7887Y-87680D01*
X-7719Y-87899D01*
X-7500Y-88067D01*
X-7244Y-88173D01*
X-7070Y-88196D01*
Y-87250D01*
D02*
G37*
G36*
X-41330Y-91984D02*
Y-92930D01*
X-40384D01*
X-40407Y-92756D01*
X-40513Y-92500D01*
X-40681Y-92281D01*
X-40900Y-92113D01*
X-41156Y-92007D01*
X-41330Y-91984D01*
D02*
G37*
G36*
X-17545Y-92005D02*
X-19595D01*
Y-94055D01*
X-17545D01*
Y-92005D01*
D02*
G37*
G36*
X-41530Y-91984D02*
X-41704Y-92007D01*
X-41960Y-92113D01*
X-42179Y-92281D01*
X-42347Y-92500D01*
X-42453Y-92756D01*
X-42476Y-92930D01*
X-41530D01*
Y-91984D01*
D02*
G37*
G36*
X-4430Y-86116D02*
X-4698Y-86151D01*
X-4947Y-86255D01*
X-5161Y-86419D01*
X-5325Y-86633D01*
X-5429Y-86882D01*
X-5464Y-87150D01*
X-5429Y-87418D01*
X-5325Y-87667D01*
X-5161Y-87881D01*
X-4947Y-88045D01*
X-4698Y-88149D01*
X-4430Y-88184D01*
X-4162Y-88149D01*
X-3913Y-88045D01*
X-3699Y-87881D01*
X-3535Y-87667D01*
X-3431Y-87418D01*
X-3396Y-87150D01*
X-3431Y-86882D01*
X-3535Y-86633D01*
X-3699Y-86419D01*
X-3913Y-86255D01*
X-4162Y-86151D01*
X-4430Y-86116D01*
D02*
G37*
G36*
X-40385Y-85241D02*
X-40653Y-85276D01*
X-40902Y-85380D01*
X-41116Y-85544D01*
X-41280Y-85758D01*
X-41384Y-86007D01*
X-41419Y-86275D01*
X-41384Y-86543D01*
X-41280Y-86792D01*
X-41116Y-87006D01*
X-40902Y-87170D01*
X-40653Y-87274D01*
X-40385Y-87309D01*
X-40117Y-87274D01*
X-39868Y-87170D01*
X-39654Y-87006D01*
X-39490Y-86792D01*
X-39386Y-86543D01*
X-39351Y-86275D01*
X-39386Y-86007D01*
X-39490Y-85758D01*
X-39654Y-85544D01*
X-39868Y-85380D01*
X-40117Y-85276D01*
X-40385Y-85241D01*
D02*
G37*
G36*
X-37845D02*
X-38113Y-85276D01*
X-38362Y-85380D01*
X-38576Y-85544D01*
X-38740Y-85758D01*
X-38844Y-86007D01*
X-38879Y-86275D01*
X-38844Y-86543D01*
X-38740Y-86792D01*
X-38576Y-87006D01*
X-38362Y-87170D01*
X-38113Y-87274D01*
X-37845Y-87309D01*
X-37577Y-87274D01*
X-37328Y-87170D01*
X-37114Y-87006D01*
X-36950Y-86792D01*
X-36846Y-86543D01*
X-36811Y-86275D01*
X-36846Y-86007D01*
X-36950Y-85758D01*
X-37114Y-85544D01*
X-37328Y-85380D01*
X-37577Y-85276D01*
X-37845Y-85241D01*
D02*
G37*
G36*
X-42925D02*
X-43193Y-85276D01*
X-43442Y-85380D01*
X-43656Y-85544D01*
X-43820Y-85758D01*
X-43924Y-86007D01*
X-43959Y-86275D01*
X-43924Y-86543D01*
X-43820Y-86792D01*
X-43656Y-87006D01*
X-43442Y-87170D01*
X-43193Y-87274D01*
X-42925Y-87309D01*
X-42657Y-87274D01*
X-42408Y-87170D01*
X-42194Y-87006D01*
X-42030Y-86792D01*
X-41926Y-86543D01*
X-41891Y-86275D01*
X-41926Y-86007D01*
X-42030Y-85758D01*
X-42194Y-85544D01*
X-42408Y-85380D01*
X-42657Y-85276D01*
X-42925Y-85241D01*
D02*
G37*
G36*
X-35405Y-86375D02*
X-36351D01*
X-36328Y-86549D01*
X-36222Y-86805D01*
X-36054Y-87024D01*
X-35835Y-87192D01*
X-35579Y-87298D01*
X-35405Y-87321D01*
Y-86375D01*
D02*
G37*
G36*
X-34259D02*
X-35205D01*
Y-87321D01*
X-35031Y-87298D01*
X-34775Y-87192D01*
X-34556Y-87024D01*
X-34388Y-86805D01*
X-34282Y-86549D01*
X-34259Y-86375D01*
D02*
G37*
G36*
X-4430Y-37856D02*
X-4698Y-37891D01*
X-4947Y-37995D01*
X-5161Y-38159D01*
X-5325Y-38373D01*
X-5429Y-38622D01*
X-5464Y-38890D01*
X-5429Y-39158D01*
X-5325Y-39407D01*
X-5161Y-39621D01*
X-4947Y-39785D01*
X-4698Y-39889D01*
X-4430Y-39924D01*
X-4162Y-39889D01*
X-3913Y-39785D01*
X-3699Y-39621D01*
X-3535Y-39407D01*
X-3431Y-39158D01*
X-3396Y-38890D01*
X-3431Y-38622D01*
X-3535Y-38373D01*
X-3699Y-38159D01*
X-3913Y-37995D01*
X-4162Y-37891D01*
X-4430Y-37856D01*
D02*
G37*
G36*
X-15625Y-31941D02*
X-15800Y-31976D01*
X-15949Y-32076D01*
X-16049Y-32224D01*
X-16084Y-32400D01*
X-16049Y-32576D01*
X-15949Y-32724D01*
X-15880Y-32771D01*
Y-34129D01*
X-15949Y-34176D01*
X-16049Y-34324D01*
X-16084Y-34500D01*
X-16049Y-34676D01*
X-15949Y-34824D01*
X-15880Y-34871D01*
Y-39759D01*
X-16053Y-39818D01*
X-16080Y-39823D01*
X-16224Y-39726D01*
X-16400Y-39691D01*
X-16576Y-39726D01*
X-16724Y-39826D01*
X-16824Y-39974D01*
X-16859Y-40150D01*
X-16824Y-40326D01*
X-16724Y-40474D01*
X-16630Y-40538D01*
Y-58979D01*
X-16699Y-59026D01*
X-16799Y-59174D01*
X-16834Y-59350D01*
X-16799Y-59526D01*
X-16699Y-59674D01*
X-16551Y-59774D01*
X-16375Y-59809D01*
X-16199Y-59774D01*
X-16051Y-59674D01*
X-15951Y-59526D01*
X-15916Y-59350D01*
X-15951Y-59174D01*
X-16051Y-59026D01*
X-16120Y-58979D01*
Y-43629D01*
X-16035Y-43577D01*
X-15920Y-43544D01*
X-15800Y-43624D01*
X-15625Y-43659D01*
X-15449Y-43624D01*
X-15300Y-43524D01*
X-15201Y-43376D01*
X-15166Y-43200D01*
X-15201Y-43024D01*
X-15300Y-42876D01*
X-15370Y-42829D01*
Y-34871D01*
X-15300Y-34824D01*
X-15201Y-34676D01*
X-15166Y-34500D01*
X-15201Y-34324D01*
X-15300Y-34176D01*
X-15370Y-34129D01*
Y-32771D01*
X-15300Y-32724D01*
X-15201Y-32576D01*
X-15166Y-32400D01*
X-15201Y-32224D01*
X-15300Y-32076D01*
X-15449Y-31976D01*
X-15625Y-31941D01*
D02*
G37*
G36*
X-6970Y-37856D02*
X-7238Y-37891D01*
X-7487Y-37995D01*
X-7701Y-38159D01*
X-7865Y-38373D01*
X-7969Y-38622D01*
X-8004Y-38890D01*
X-7969Y-39158D01*
X-7865Y-39407D01*
X-7701Y-39621D01*
X-7487Y-39785D01*
X-7238Y-39889D01*
X-6970Y-39924D01*
X-6702Y-39889D01*
X-6453Y-39785D01*
X-6239Y-39621D01*
X-6075Y-39407D01*
X-5971Y-39158D01*
X-5936Y-38890D01*
X-5971Y-38622D01*
X-6075Y-38373D01*
X-6239Y-38159D01*
X-6453Y-37995D01*
X-6702Y-37891D01*
X-6970Y-37856D01*
D02*
G37*
G36*
X-33350Y-35692D02*
X-33526Y-35727D01*
X-33675Y-35827D01*
X-33774Y-35976D01*
X-33809Y-36151D01*
X-33774Y-36327D01*
X-33675Y-36476D01*
X-33600Y-36525D01*
Y-39129D01*
X-33669Y-39175D01*
X-33769Y-39324D01*
X-33804Y-39500D01*
X-33769Y-39675D01*
X-33669Y-39824D01*
X-33521Y-39924D01*
X-33345Y-39959D01*
X-33169Y-39924D01*
X-33021Y-39824D01*
X-32921Y-39675D01*
X-32886Y-39500D01*
X-32921Y-39324D01*
X-33021Y-39175D01*
X-33090Y-39129D01*
Y-36519D01*
X-33026Y-36476D01*
X-32926Y-36327D01*
X-32891Y-36151D01*
X-32926Y-35976D01*
X-33026Y-35827D01*
X-33175Y-35727D01*
X-33350Y-35692D01*
D02*
G37*
G36*
X-14350Y-31941D02*
X-14525Y-31976D01*
X-14674Y-32076D01*
X-14774Y-32224D01*
X-14809Y-32400D01*
X-14774Y-32576D01*
X-14674Y-32724D01*
X-14605Y-32771D01*
Y-34676D01*
X-14678Y-34726D01*
X-14778Y-34874D01*
X-14813Y-35050D01*
X-14778Y-35226D01*
X-14678Y-35374D01*
X-14605Y-35424D01*
Y-36554D01*
X-14674Y-36601D01*
X-14774Y-36749D01*
X-14809Y-36925D01*
X-14774Y-37101D01*
X-14674Y-37249D01*
X-14525Y-37349D01*
X-14350Y-37384D01*
X-14174Y-37349D01*
X-14025Y-37249D01*
X-13926Y-37101D01*
X-13891Y-36925D01*
X-13926Y-36749D01*
X-14025Y-36601D01*
X-14095Y-36554D01*
Y-35418D01*
X-14030Y-35374D01*
X-13930Y-35226D01*
X-13895Y-35050D01*
X-13930Y-34874D01*
X-14030Y-34726D01*
X-14095Y-34682D01*
Y-32771D01*
X-14025Y-32724D01*
X-13926Y-32576D01*
X-13891Y-32400D01*
X-13926Y-32224D01*
X-14025Y-32076D01*
X-14174Y-31976D01*
X-14350Y-31941D01*
D02*
G37*
G36*
X-19390Y-30321D02*
X-19566Y-30356D01*
X-19714Y-30456D01*
X-19814Y-30604D01*
X-19849Y-30780D01*
X-19814Y-30956D01*
X-19714Y-31104D01*
X-19645Y-31151D01*
Y-35347D01*
X-19724Y-35401D01*
X-19824Y-35549D01*
X-19859Y-35725D01*
X-19824Y-35901D01*
X-19724Y-36049D01*
X-19576Y-36149D01*
X-19400Y-36184D01*
X-19224Y-36149D01*
X-19076Y-36049D01*
X-18976Y-35901D01*
X-18941Y-35725D01*
X-18976Y-35549D01*
X-19076Y-35401D01*
X-19135Y-35361D01*
Y-31151D01*
X-19066Y-31104D01*
X-18966Y-30956D01*
X-18931Y-30780D01*
X-18966Y-30604D01*
X-19066Y-30456D01*
X-19214Y-30356D01*
X-19390Y-30321D01*
D02*
G37*
G36*
X-4430Y-35316D02*
X-4698Y-35351D01*
X-4947Y-35455D01*
X-5161Y-35619D01*
X-5325Y-35833D01*
X-5429Y-36082D01*
X-5464Y-36350D01*
X-5429Y-36618D01*
X-5325Y-36867D01*
X-5161Y-37081D01*
X-4947Y-37245D01*
X-4698Y-37349D01*
X-4430Y-37384D01*
X-4162Y-37349D01*
X-3913Y-37245D01*
X-3699Y-37081D01*
X-3535Y-36867D01*
X-3431Y-36618D01*
X-3396Y-36350D01*
X-3431Y-36082D01*
X-3535Y-35833D01*
X-3699Y-35619D01*
X-3913Y-35455D01*
X-4162Y-35351D01*
X-4430Y-35316D01*
D02*
G37*
G36*
X-6970D02*
X-7238Y-35351D01*
X-7487Y-35455D01*
X-7701Y-35619D01*
X-7865Y-35833D01*
X-7969Y-36082D01*
X-8004Y-36350D01*
X-7969Y-36618D01*
X-7865Y-36867D01*
X-7701Y-37081D01*
X-7487Y-37245D01*
X-7238Y-37349D01*
X-6970Y-37384D01*
X-6702Y-37349D01*
X-6453Y-37245D01*
X-6239Y-37081D01*
X-6075Y-36867D01*
X-5971Y-36618D01*
X-5936Y-36350D01*
X-5971Y-36082D01*
X-6075Y-35833D01*
X-6239Y-35619D01*
X-6453Y-35455D01*
X-6702Y-35351D01*
X-6970Y-35316D01*
D02*
G37*
G36*
X-39314Y-45730D02*
X-40260D01*
Y-46676D01*
X-40086Y-46653D01*
X-39830Y-46547D01*
X-39611Y-46379D01*
X-39443Y-46160D01*
X-39337Y-45904D01*
X-39314Y-45730D01*
D02*
G37*
G36*
X-37820Y-44596D02*
X-38088Y-44631D01*
X-38337Y-44735D01*
X-38551Y-44899D01*
X-38715Y-45113D01*
X-38819Y-45362D01*
X-38854Y-45630D01*
X-38819Y-45898D01*
X-38715Y-46147D01*
X-38551Y-46361D01*
X-38337Y-46525D01*
X-38088Y-46629D01*
X-37820Y-46664D01*
X-37552Y-46629D01*
X-37303Y-46525D01*
X-37089Y-46361D01*
X-36925Y-46147D01*
X-36821Y-45898D01*
X-36786Y-45630D01*
X-36821Y-45362D01*
X-36925Y-45113D01*
X-37089Y-44899D01*
X-37303Y-44735D01*
X-37552Y-44631D01*
X-37820Y-44596D01*
D02*
G37*
G36*
X-40460Y-45730D02*
X-41406D01*
X-41383Y-45904D01*
X-41277Y-46160D01*
X-41109Y-46379D01*
X-40890Y-46547D01*
X-40634Y-46653D01*
X-40460Y-46676D01*
Y-45730D01*
D02*
G37*
G36*
X-40260Y-47124D02*
Y-48070D01*
X-39314D01*
X-39337Y-47896D01*
X-39443Y-47640D01*
X-39611Y-47421D01*
X-39830Y-47253D01*
X-40086Y-47147D01*
X-40260Y-47124D01*
D02*
G37*
G36*
X-35280Y-44596D02*
X-35548Y-44631D01*
X-35797Y-44735D01*
X-36011Y-44899D01*
X-36175Y-45113D01*
X-36279Y-45362D01*
X-36314Y-45630D01*
X-36279Y-45898D01*
X-36175Y-46147D01*
X-36011Y-46361D01*
X-35797Y-46525D01*
X-35548Y-46629D01*
X-35280Y-46664D01*
X-35012Y-46629D01*
X-34763Y-46525D01*
X-34549Y-46361D01*
X-34385Y-46147D01*
X-34281Y-45898D01*
X-34246Y-45630D01*
X-34281Y-45362D01*
X-34385Y-45113D01*
X-34549Y-44899D01*
X-34763Y-44735D01*
X-35012Y-44631D01*
X-35280Y-44596D01*
D02*
G37*
G36*
X-40260Y-44584D02*
Y-45530D01*
X-39314D01*
X-39337Y-45356D01*
X-39443Y-45100D01*
X-39611Y-44881D01*
X-39830Y-44713D01*
X-40086Y-44607D01*
X-40260Y-44584D01*
D02*
G37*
G36*
X-6970Y-40396D02*
X-7238Y-40431D01*
X-7487Y-40535D01*
X-7701Y-40699D01*
X-7865Y-40913D01*
X-7969Y-41162D01*
X-8004Y-41430D01*
X-7969Y-41698D01*
X-7865Y-41947D01*
X-7701Y-42161D01*
X-7487Y-42325D01*
X-7238Y-42429D01*
X-6970Y-42464D01*
X-6702Y-42429D01*
X-6453Y-42325D01*
X-6239Y-42161D01*
X-6075Y-41947D01*
X-5971Y-41698D01*
X-5936Y-41430D01*
X-5971Y-41162D01*
X-6075Y-40913D01*
X-6239Y-40699D01*
X-6453Y-40535D01*
X-6702Y-40431D01*
X-6970Y-40396D01*
D02*
G37*
G36*
X-40460Y-44584D02*
X-40634Y-44607D01*
X-40890Y-44713D01*
X-41109Y-44881D01*
X-41277Y-45100D01*
X-41383Y-45356D01*
X-41406Y-45530D01*
X-40460D01*
Y-44584D01*
D02*
G37*
G36*
X-4530Y-12444D02*
X-4704Y-12467D01*
X-4960Y-12573D01*
X-5179Y-12741D01*
X-5347Y-12960D01*
X-5453Y-13216D01*
X-5476Y-13390D01*
X-4530D01*
Y-12444D01*
D02*
G37*
G36*
X-4330D02*
Y-13390D01*
X-3384D01*
X-3407Y-13216D01*
X-3513Y-12960D01*
X-3681Y-12741D01*
X-3900Y-12573D01*
X-4156Y-12467D01*
X-4330Y-12444D01*
D02*
G37*
G36*
X-3384Y-13590D02*
X-4330D01*
Y-14536D01*
X-4156Y-14513D01*
X-3900Y-14407D01*
X-3681Y-14239D01*
X-3513Y-14020D01*
X-3407Y-13764D01*
X-3384Y-13590D01*
D02*
G37*
G36*
X-4530D02*
X-5476D01*
X-5453Y-13764D01*
X-5347Y-14020D01*
X-5179Y-14239D01*
X-4960Y-14407D01*
X-4704Y-14513D01*
X-4530Y-14536D01*
Y-13590D01*
D02*
G37*
G36*
X-4530Y-27684D02*
X-4704Y-27707D01*
X-4960Y-27813D01*
X-5179Y-27981D01*
X-5347Y-28200D01*
X-5453Y-28456D01*
X-5476Y-28630D01*
X-4530D01*
Y-27684D01*
D02*
G37*
G36*
X-4330D02*
Y-28630D01*
X-3384D01*
X-3407Y-28456D01*
X-3513Y-28200D01*
X-3681Y-27981D01*
X-3900Y-27813D01*
X-4156Y-27707D01*
X-4330Y-27684D01*
D02*
G37*
G36*
X-8340Y-21123D02*
X-8484Y-21151D01*
X-8691Y-21289D01*
X-8829Y-21496D01*
X-8857Y-21640D01*
X-8340D01*
Y-21123D01*
D02*
G37*
G36*
X-7941Y-8216D02*
X-8117Y-8251D01*
X-8266Y-8351D01*
X-8365Y-8499D01*
X-8400Y-8675D01*
X-8365Y-8851D01*
X-8266Y-8999D01*
X-8222Y-9029D01*
Y-10875D01*
X-8568Y-11222D01*
X-8629Y-11313D01*
X-8650Y-11420D01*
Y-15624D01*
X-9756Y-16730D01*
X-15481D01*
X-15511Y-16686D01*
X-15659Y-16586D01*
X-15835Y-16551D01*
X-16011Y-16586D01*
X-16159Y-16686D01*
X-16259Y-16834D01*
X-16294Y-17010D01*
X-16259Y-17186D01*
X-16159Y-17334D01*
X-16011Y-17434D01*
X-15835Y-17469D01*
X-15659Y-17434D01*
X-15511Y-17334D01*
X-15481Y-17290D01*
X-9640D01*
X-9533Y-17269D01*
X-9442Y-17208D01*
X-8197Y-15963D01*
X-8087Y-15989D01*
X-8002Y-16044D01*
X-7969Y-16298D01*
X-7865Y-16547D01*
X-7701Y-16761D01*
X-7487Y-16925D01*
X-7238Y-17029D01*
X-6970Y-17064D01*
X-6702Y-17029D01*
X-6453Y-16925D01*
X-6239Y-16761D01*
X-6075Y-16547D01*
X-5971Y-16298D01*
X-5936Y-16030D01*
X-5971Y-15762D01*
X-6075Y-15513D01*
X-6239Y-15299D01*
X-6453Y-15135D01*
X-6702Y-15031D01*
X-6970Y-14996D01*
X-7238Y-15031D01*
X-7487Y-15135D01*
X-7701Y-15299D01*
X-7865Y-15513D01*
X-7890Y-15572D01*
X-8090Y-15532D01*
Y-14676D01*
X-7995Y-14515D01*
X-7890Y-14515D01*
X-5945D01*
Y-12465D01*
X-7890D01*
X-7995Y-12465D01*
X-8090Y-12304D01*
Y-11536D01*
X-7743Y-11189D01*
X-7682Y-11098D01*
X-7661Y-10991D01*
Y-9029D01*
X-7617Y-8999D01*
X-7517Y-8851D01*
X-7482Y-8675D01*
X-7517Y-8499D01*
X-7617Y-8351D01*
X-7766Y-8251D01*
X-7941Y-8216D01*
D02*
G37*
G36*
X-4430Y-14996D02*
X-4698Y-15031D01*
X-4947Y-15135D01*
X-5161Y-15299D01*
X-5325Y-15513D01*
X-5429Y-15762D01*
X-5464Y-16030D01*
X-5429Y-16298D01*
X-5325Y-16547D01*
X-5161Y-16761D01*
X-4947Y-16925D01*
X-4698Y-17029D01*
X-4430Y-17064D01*
X-4162Y-17029D01*
X-3913Y-16925D01*
X-3699Y-16761D01*
X-3535Y-16547D01*
X-3431Y-16298D01*
X-3396Y-16030D01*
X-3431Y-15762D01*
X-3535Y-15513D01*
X-3699Y-15299D01*
X-3913Y-15135D01*
X-4162Y-15031D01*
X-4430Y-14996D01*
D02*
G37*
G36*
X-58240Y-48270D02*
X-59186D01*
X-59163Y-48444D01*
X-59057Y-48700D01*
X-58889Y-48919D01*
X-58670Y-49087D01*
X-58414Y-49193D01*
X-58240Y-49216D01*
Y-48270D01*
D02*
G37*
G36*
X-56800Y-53616D02*
X-56976Y-53651D01*
X-57124Y-53751D01*
X-57224Y-53899D01*
X-57259Y-54075D01*
X-57224Y-54251D01*
X-57124Y-54399D01*
X-57055Y-54446D01*
Y-64977D01*
X-57127Y-65026D01*
X-57227Y-65174D01*
X-57262Y-65350D01*
X-57227Y-65526D01*
X-57127Y-65674D01*
X-56979Y-65774D01*
X-56803Y-65809D01*
X-56627Y-65774D01*
X-56479Y-65674D01*
X-56379Y-65526D01*
X-56344Y-65350D01*
X-56379Y-65174D01*
X-56479Y-65026D01*
X-56545Y-64981D01*
Y-54446D01*
X-56476Y-54399D01*
X-56376Y-54251D01*
X-56341Y-54075D01*
X-56376Y-53899D01*
X-56476Y-53751D01*
X-56624Y-53651D01*
X-56800Y-53616D01*
D02*
G37*
G36*
X-52060Y-53500D02*
X-54110D01*
Y-55550D01*
X-53315D01*
Y-63381D01*
X-53374Y-63421D01*
X-53474Y-63569D01*
X-53509Y-63745D01*
X-53474Y-63921D01*
X-53374Y-64069D01*
X-53226Y-64169D01*
X-53050Y-64204D01*
X-52874Y-64169D01*
X-52726Y-64069D01*
X-52626Y-63921D01*
X-52591Y-63745D01*
X-52626Y-63569D01*
X-52726Y-63421D01*
X-52805Y-63367D01*
Y-55550D01*
X-52060D01*
Y-53500D01*
D02*
G37*
G36*
X-58240Y-47124D02*
X-58414Y-47147D01*
X-58670Y-47253D01*
X-58889Y-47421D01*
X-59057Y-47640D01*
X-59163Y-47896D01*
X-59186Y-48070D01*
X-58240D01*
Y-47124D01*
D02*
G37*
G36*
X-27300Y-6325D02*
X-27900D01*
Y-7550D01*
X-27300D01*
Y-6325D01*
D02*
G37*
G36*
X-44175Y-6725D02*
X-44550D01*
Y-7125D01*
X-44175D01*
Y-6725D01*
D02*
G37*
G36*
X-35100Y-2250D02*
X-35700D01*
Y-3475D01*
X-35100D01*
Y-2250D01*
D02*
G37*
G36*
X-27300Y-7750D02*
X-27900D01*
Y-8975D01*
X-27300D01*
Y-7750D01*
D02*
G37*
G36*
X-17655Y-7475D02*
X-18005D01*
Y-7900D01*
X-17655D01*
Y-7475D01*
D02*
G37*
G36*
X-28100Y-7750D02*
X-28700D01*
Y-8975D01*
X-28100D01*
Y-7750D01*
D02*
G37*
G36*
X-35100D02*
X-35700D01*
Y-8975D01*
X-35100D01*
Y-7750D01*
D02*
G37*
G36*
X-34300D02*
X-34900D01*
Y-8975D01*
X-34300D01*
Y-7750D01*
D02*
G37*
G36*
X-19105Y-7500D02*
X-19480D01*
Y-7900D01*
X-19105D01*
Y-7500D01*
D02*
G37*
G36*
X-28100Y-6325D02*
X-28700D01*
Y-7550D01*
X-28100D01*
Y-6325D01*
D02*
G37*
G36*
X-34300D02*
X-34900D01*
Y-7550D01*
X-34300D01*
Y-6325D01*
D02*
G37*
G36*
X-35100D02*
X-35700D01*
Y-7550D01*
X-35100D01*
Y-6325D01*
D02*
G37*
G36*
X-51930Y-7303D02*
X-52305D01*
Y-7703D01*
X-51930D01*
Y-7303D01*
D02*
G37*
G36*
X-50480Y-7278D02*
X-50830D01*
Y-7703D01*
X-50480D01*
Y-7278D01*
D02*
G37*
G36*
X-27300Y-825D02*
X-27900D01*
Y-2050D01*
X-27300D01*
Y-825D01*
D02*
G37*
G36*
X-34300D02*
X-34900D01*
Y-2050D01*
X-34300D01*
Y-825D01*
D02*
G37*
G36*
X-35100D02*
X-35700D01*
Y-2050D01*
X-35100D01*
Y-825D01*
D02*
G37*
G36*
X-28100D02*
X-28700D01*
Y-2050D01*
X-28100D01*
Y-825D01*
D02*
G37*
G36*
X-30325Y-850D02*
X-31675D01*
Y-1592D01*
X-31736Y-1643D01*
X-31875Y-1718D01*
X-32010Y-1691D01*
X-32186Y-1726D01*
X-32334Y-1826D01*
X-32434Y-1974D01*
X-32469Y-2150D01*
X-32656Y-2232D01*
X-32776Y-2256D01*
X-32910Y-2346D01*
X-32924Y-2356D01*
X-33126Y-2356D01*
X-33140Y-2346D01*
X-33274Y-2256D01*
X-33450Y-2221D01*
X-33626Y-2256D01*
X-33774Y-2356D01*
X-33874Y-2504D01*
X-33909Y-2680D01*
X-33874Y-2856D01*
X-33774Y-3004D01*
X-33626Y-3104D01*
X-33450Y-3139D01*
X-33274Y-3104D01*
X-33140Y-3014D01*
X-33126Y-3004D01*
X-32924Y-3004D01*
X-32910Y-3014D01*
X-32776Y-3104D01*
X-32600Y-3139D01*
X-32424Y-3104D01*
X-32276Y-3004D01*
X-32176Y-2856D01*
X-32141Y-2680D01*
X-31954Y-2598D01*
X-31875Y-2582D01*
X-31736Y-2657D01*
X-31675Y-2708D01*
Y-3450D01*
X-31280D01*
Y-6350D01*
X-31675D01*
Y-8950D01*
X-31268D01*
Y-9400D01*
X-31625D01*
Y-10300D01*
X-30825D01*
X-30675Y-10300D01*
X-30475Y-10300D01*
X-29675D01*
X-29675Y-10300D01*
X-29475Y-10279D01*
X-29325Y-10309D01*
X-29149Y-10274D01*
X-29001Y-10174D01*
X-28901Y-10026D01*
X-28866Y-9850D01*
X-28901Y-9674D01*
X-29001Y-9526D01*
X-29149Y-9426D01*
X-29325Y-9391D01*
X-29475Y-9421D01*
X-29675Y-9400D01*
Y-9400D01*
X-30475D01*
X-30625Y-9400D01*
X-30732Y-9244D01*
Y-8950D01*
X-30325D01*
Y-6350D01*
X-30720D01*
Y-3450D01*
X-30325D01*
Y-850D01*
D02*
G37*
G36*
X-27300Y-2250D02*
X-27900D01*
Y-3475D01*
X-27300D01*
Y-2250D01*
D02*
G37*
G36*
X-34300D02*
X-34900D01*
Y-3475D01*
X-34300D01*
Y-2250D01*
D02*
G37*
G36*
X-28100D02*
X-28700D01*
Y-3475D01*
X-28100D01*
Y-2250D01*
D02*
G37*
G36*
X-38600Y-8441D02*
X-38776Y-8476D01*
X-38924Y-8576D01*
X-39024Y-8724D01*
X-39059Y-8900D01*
X-39024Y-9076D01*
X-38924Y-9224D01*
X-38776Y-9324D01*
X-38600Y-9359D01*
X-38424Y-9324D01*
X-38276Y-9224D01*
X-38176Y-9076D01*
X-38141Y-8900D01*
X-38176Y-8724D01*
X-38276Y-8576D01*
X-38424Y-8476D01*
X-38600Y-8441D01*
D02*
G37*
G36*
X-51325Y-40441D02*
X-51501Y-40476D01*
X-51649Y-40576D01*
X-51749Y-40724D01*
X-51784Y-40900D01*
X-51749Y-41076D01*
X-51649Y-41224D01*
X-51501Y-41324D01*
X-51325Y-41359D01*
X-51149Y-41324D01*
X-51001Y-41224D01*
X-50901Y-41076D01*
X-50866Y-40900D01*
X-50901Y-40724D01*
X-51001Y-40576D01*
X-51149Y-40476D01*
X-51325Y-40441D01*
D02*
G37*
G36*
X-52150Y-38941D02*
X-52326Y-38976D01*
X-52343Y-38988D01*
X-52500Y-39063D01*
X-52657Y-38988D01*
X-52674Y-38976D01*
X-52850Y-38941D01*
X-53026Y-38976D01*
X-53174Y-39076D01*
X-53274Y-39224D01*
X-53309Y-39400D01*
X-53274Y-39576D01*
X-53174Y-39724D01*
X-53026Y-39824D01*
X-52850Y-39859D01*
X-52674Y-39824D01*
X-52657Y-39812D01*
X-52500Y-39737D01*
X-52343Y-39812D01*
X-52326Y-39824D01*
X-52150Y-39859D01*
X-51974Y-39824D01*
X-51826Y-39724D01*
X-51726Y-39576D01*
X-51691Y-39400D01*
X-51726Y-39224D01*
X-51826Y-39076D01*
X-51974Y-38976D01*
X-52150Y-38941D01*
D02*
G37*
G36*
X-52750Y-32340D02*
X-52926Y-32375D01*
X-53074Y-32474D01*
X-53174Y-32623D01*
X-53209Y-32799D01*
X-53174Y-32974D01*
X-53074Y-33123D01*
X-52926Y-33222D01*
X-52750Y-33257D01*
X-52699Y-33247D01*
X-50830Y-35116D01*
Y-38246D01*
X-50874Y-38276D01*
X-50974Y-38424D01*
X-51009Y-38600D01*
X-50974Y-38776D01*
X-50874Y-38924D01*
X-50726Y-39024D01*
X-50550Y-39059D01*
X-50374Y-39024D01*
X-50226Y-38924D01*
X-50126Y-38776D01*
X-50091Y-38600D01*
X-50126Y-38424D01*
X-50226Y-38276D01*
X-50270Y-38246D01*
Y-35000D01*
X-50291Y-34893D01*
X-50352Y-34802D01*
X-52302Y-32852D01*
X-52291Y-32799D01*
X-52326Y-32623D01*
X-52426Y-32474D01*
X-52574Y-32375D01*
X-52750Y-32340D01*
D02*
G37*
G36*
X-58240Y-45730D02*
X-59190D01*
Y-46680D01*
X-58240D01*
Y-45730D01*
D02*
G37*
G36*
Y-44580D02*
X-59190D01*
Y-45530D01*
X-58240D01*
Y-44580D01*
D02*
G37*
G36*
X-57090D02*
X-58040D01*
Y-45530D01*
X-57090D01*
Y-44580D01*
D02*
G37*
G36*
X-55630Y-12906D02*
X-55806Y-12941D01*
X-55954Y-13041D01*
X-56054Y-13189D01*
X-56089Y-13365D01*
X-56078Y-13417D01*
X-56273Y-13612D01*
X-56334Y-13703D01*
X-56355Y-13810D01*
Y-19077D01*
X-56365Y-19092D01*
X-56386Y-19199D01*
X-56365Y-19306D01*
X-56304Y-19397D01*
X-53630Y-22071D01*
Y-26425D01*
X-53609Y-26532D01*
X-53548Y-26623D01*
X-51773Y-28398D01*
X-51784Y-28450D01*
X-51749Y-28626D01*
X-51649Y-28774D01*
X-51501Y-28874D01*
X-51325Y-28909D01*
X-51149Y-28874D01*
X-51001Y-28774D01*
X-50901Y-28626D01*
X-50866Y-28450D01*
X-50901Y-28274D01*
X-51001Y-28126D01*
X-51149Y-28026D01*
X-51325Y-27991D01*
X-51377Y-28002D01*
X-53070Y-26309D01*
Y-21955D01*
X-53091Y-21848D01*
X-53152Y-21757D01*
X-55795Y-19114D01*
Y-13960D01*
X-55638Y-13822D01*
X-55630Y-13824D01*
X-55454Y-13789D01*
X-55306Y-13689D01*
X-55206Y-13541D01*
X-55171Y-13365D01*
X-55206Y-13189D01*
X-55306Y-13041D01*
X-55454Y-12941D01*
X-55630Y-12906D01*
D02*
G37*
G36*
X-40245Y-9925D02*
X-42295D01*
Y-11975D01*
X-40245D01*
Y-9925D01*
D02*
G37*
G36*
X-24295Y-10945D02*
X-24720D01*
Y-11295D01*
X-24295D01*
Y-10945D01*
D02*
G37*
G36*
X-49950Y-26216D02*
X-50126Y-26251D01*
X-50274Y-26351D01*
X-50374Y-26499D01*
X-50409Y-26675D01*
X-50374Y-26851D01*
X-50274Y-26999D01*
X-50126Y-27099D01*
X-49950Y-27134D01*
X-49774Y-27099D01*
X-49626Y-26999D01*
X-49526Y-26851D01*
X-49491Y-26675D01*
X-49526Y-26499D01*
X-49626Y-26351D01*
X-49774Y-26251D01*
X-49950Y-26216D01*
D02*
G37*
G36*
X-50750Y-13181D02*
X-50926Y-13216D01*
X-51074Y-13316D01*
X-51174Y-13464D01*
X-51209Y-13640D01*
X-51174Y-13816D01*
X-51074Y-13964D01*
X-51030Y-13994D01*
Y-22286D01*
X-51230Y-22331D01*
X-51301Y-22226D01*
X-51449Y-22126D01*
X-51625Y-22091D01*
X-51801Y-22126D01*
X-51949Y-22226D01*
X-52049Y-22374D01*
X-52084Y-22550D01*
X-52049Y-22726D01*
X-51949Y-22874D01*
X-51801Y-22974D01*
X-51625Y-23009D01*
X-51449Y-22974D01*
X-51301Y-22874D01*
X-51230Y-22769D01*
X-51030Y-22814D01*
Y-23325D01*
X-51009Y-23432D01*
X-50948Y-23523D01*
X-50499Y-23973D01*
X-50509Y-24025D01*
X-50474Y-24201D01*
X-50374Y-24349D01*
X-50226Y-24449D01*
X-50050Y-24484D01*
X-49874Y-24449D01*
X-49726Y-24349D01*
X-49626Y-24201D01*
X-49591Y-24025D01*
X-49626Y-23849D01*
X-49726Y-23701D01*
X-49874Y-23601D01*
X-50050Y-23566D01*
X-50102Y-23576D01*
X-50470Y-23209D01*
Y-13994D01*
X-50426Y-13964D01*
X-50326Y-13816D01*
X-50291Y-13640D01*
X-50326Y-13464D01*
X-50426Y-13316D01*
X-50574Y-13216D01*
X-50750Y-13181D01*
D02*
G37*
G36*
X-55040Y-14211D02*
X-55216Y-14246D01*
X-55364Y-14346D01*
X-55464Y-14494D01*
X-55499Y-14670D01*
X-55464Y-14846D01*
X-55364Y-14994D01*
X-55216Y-15094D01*
X-55040Y-15129D01*
X-54864Y-15094D01*
X-54716Y-14994D01*
X-54616Y-14846D01*
X-54581Y-14670D01*
X-54616Y-14494D01*
X-54716Y-14346D01*
X-54864Y-14246D01*
X-55040Y-14211D01*
D02*
G37*
G36*
X-58073Y-13791D02*
X-58249Y-13826D01*
X-58398Y-13926D01*
X-58497Y-14074D01*
X-58532Y-14250D01*
X-58497Y-14426D01*
X-58398Y-14574D01*
X-58249Y-14674D01*
X-58073Y-14709D01*
X-57898Y-14674D01*
X-57749Y-14574D01*
X-57650Y-14426D01*
X-57615Y-14250D01*
X-57650Y-14074D01*
X-57749Y-13926D01*
X-57898Y-13826D01*
X-58073Y-13791D01*
D02*
G37*
G36*
X-41776Y-13726D02*
X-42044Y-13761D01*
X-42293Y-13865D01*
X-42507Y-14029D01*
X-42671Y-14243D01*
X-42775Y-14492D01*
X-42810Y-14760D01*
X-42775Y-15028D01*
X-42671Y-15277D01*
X-42507Y-15491D01*
X-42293Y-15655D01*
X-42044Y-15759D01*
X-41776Y-15794D01*
X-41508Y-15759D01*
X-41259Y-15655D01*
X-41045Y-15491D01*
X-40881Y-15277D01*
X-40777Y-15028D01*
X-40742Y-14760D01*
X-40777Y-14492D01*
X-40881Y-14243D01*
X-41045Y-14029D01*
X-41259Y-13865D01*
X-41508Y-13761D01*
X-41776Y-13726D01*
D02*
G37*
G36*
X-26890Y-56716D02*
Y-57616D01*
X-26140D01*
Y-56716D01*
X-26890D01*
D02*
G37*
G36*
X-45129Y-4850D02*
X-45846D01*
Y-5425D01*
X-45796D01*
X-45761Y-5424D01*
X-45726Y-5422D01*
X-45691Y-5417D01*
X-45656Y-5410D01*
X-45621Y-5402D01*
X-45588Y-5392D01*
X-45554Y-5380D01*
X-45522Y-5367D01*
X-45490Y-5352D01*
X-45459Y-5335D01*
X-45428Y-5316D01*
X-45399Y-5296D01*
X-45371Y-5275D01*
X-45344Y-5252D01*
X-45319Y-5227D01*
X-45294Y-5202D01*
X-45271Y-5175D01*
X-45250Y-5147D01*
X-45230Y-5118D01*
X-45211Y-5088D01*
X-45195Y-5057D01*
X-45179Y-5025D01*
X-45166Y-4992D01*
X-45154Y-4959D01*
X-45144Y-4925D01*
X-45136Y-4890D01*
X-45129Y-4856D01*
X-45129Y-4850D01*
D02*
G37*
G36*
X-51050D02*
X-51768D01*
X-51767Y-4856D01*
X-51760Y-4890D01*
X-51752Y-4925D01*
X-51742Y-4959D01*
X-51730Y-4992D01*
X-51717Y-5025D01*
X-51702Y-5057D01*
X-51685Y-5088D01*
X-51666Y-5118D01*
X-51646Y-5147D01*
X-51625Y-5175D01*
X-51602Y-5202D01*
X-51577Y-5227D01*
X-51552Y-5252D01*
X-51525Y-5275D01*
X-51497Y-5296D01*
X-51468Y-5316D01*
X-51438Y-5335D01*
X-51407Y-5352D01*
X-51375Y-5367D01*
X-51342Y-5380D01*
X-51309Y-5392D01*
X-51275Y-5402D01*
X-51240Y-5410D01*
X-51206Y-5417D01*
X-51171Y-5422D01*
X-51135Y-5424D01*
X-51100Y-5425D01*
X-51050D01*
Y-4850D01*
D02*
G37*
G36*
Y-4075D02*
X-51100D01*
X-51135Y-4076D01*
X-51171Y-4078D01*
X-51206Y-4083D01*
X-51240Y-4090D01*
X-51275Y-4098D01*
X-51309Y-4108D01*
X-51342Y-4120D01*
X-51375Y-4133D01*
X-51407Y-4148D01*
X-51438Y-4165D01*
X-51468Y-4184D01*
X-51497Y-4204D01*
X-51525Y-4225D01*
X-51552Y-4248D01*
X-51577Y-4273D01*
X-51602Y-4298D01*
X-51625Y-4325D01*
X-51646Y-4353D01*
X-51666Y-4382D01*
X-51685Y-4412D01*
X-51702Y-4443D01*
X-51717Y-4475D01*
X-51730Y-4508D01*
X-51742Y-4541D01*
X-51752Y-4575D01*
X-51760Y-4610D01*
X-51767Y-4644D01*
X-51768Y-4650D01*
X-51050D01*
Y-4075D01*
D02*
G37*
G36*
X-45796D02*
X-45846D01*
Y-4650D01*
X-45129D01*
X-45129Y-4644D01*
X-45136Y-4610D01*
X-45144Y-4575D01*
X-45154Y-4541D01*
X-45166Y-4508D01*
X-45179Y-4475D01*
X-45195Y-4443D01*
X-45211Y-4412D01*
X-45230Y-4382D01*
X-45250Y-4353D01*
X-45271Y-4325D01*
X-45294Y-4298D01*
X-45319Y-4273D01*
X-45344Y-4248D01*
X-45371Y-4225D01*
X-45399Y-4204D01*
X-45428Y-4184D01*
X-45459Y-4165D01*
X-45490Y-4148D01*
X-45522Y-4133D01*
X-45554Y-4120D01*
X-45588Y-4108D01*
X-45621Y-4098D01*
X-45656Y-4090D01*
X-45691Y-4083D01*
X-45726Y-4078D01*
X-45761Y-4076D01*
X-45796Y-4075D01*
D02*
G37*
G36*
X-45538Y-1070D02*
X-45963D01*
X-45990Y-1071D01*
X-46018Y-1074D01*
X-46046Y-1078D01*
X-46073Y-1084D01*
X-46099Y-1093D01*
X-46125Y-1102D01*
X-46151Y-1114D01*
X-46175Y-1127D01*
X-46199Y-1142D01*
X-46221Y-1158D01*
X-46243Y-1175D01*
X-46263Y-1194D01*
X-46282Y-1215D01*
X-46300Y-1236D01*
X-46316Y-1259D01*
X-46331Y-1283D01*
X-46344Y-1307D01*
X-46355Y-1332D01*
X-46365Y-1358D01*
X-46373Y-1385D01*
X-46380Y-1412D01*
X-46384Y-1440D01*
X-46387Y-1467D01*
X-46388Y-1495D01*
Y-1958D01*
X-45538D01*
Y-1070D01*
D02*
G37*
G36*
X-50933D02*
X-51358D01*
Y-1958D01*
X-50508D01*
Y-1495D01*
X-50509Y-1467D01*
X-50512Y-1440D01*
X-50517Y-1412D01*
X-50523Y-1385D01*
X-50531Y-1358D01*
X-50541Y-1332D01*
X-50552Y-1307D01*
X-50565Y-1283D01*
X-50580Y-1259D01*
X-50596Y-1236D01*
X-50614Y-1215D01*
X-50633Y-1194D01*
X-50653Y-1175D01*
X-50675Y-1158D01*
X-50697Y-1142D01*
X-50721Y-1127D01*
X-50745Y-1114D01*
X-50771Y-1102D01*
X-50797Y-1093D01*
X-50823Y-1084D01*
X-50851Y-1078D01*
X-50878Y-1074D01*
X-50906Y-1071D01*
X-50933Y-1070D01*
D02*
G37*
G36*
X-46606Y-997D02*
X-48301D01*
X-48318Y-998D01*
X-48335Y-1001D01*
X-48351Y-1005D01*
X-48368Y-1011D01*
X-48383Y-1018D01*
X-48398Y-1027D01*
X-48412Y-1037D01*
X-48424Y-1049D01*
X-48436Y-1061D01*
X-48446Y-1075D01*
X-48452Y-1085D01*
X-48457Y-1075D01*
X-48468Y-1061D01*
X-48479Y-1049D01*
X-48492Y-1037D01*
X-48506Y-1027D01*
X-48520Y-1018D01*
X-48536Y-1011D01*
X-48552Y-1005D01*
X-48569Y-1001D01*
X-48586Y-998D01*
X-48603Y-997D01*
D01*
X-48603D01*
X-50298D01*
X-50315Y-998D01*
X-50332Y-1001D01*
X-50349Y-1005D01*
X-50365Y-1011D01*
X-50381Y-1018D01*
X-50395Y-1027D01*
X-50409Y-1037D01*
X-50422Y-1049D01*
X-50434Y-1061D01*
X-50444Y-1075D01*
X-50453Y-1090D01*
X-50460Y-1106D01*
X-50466Y-1122D01*
X-50470Y-1138D01*
X-50472Y-1155D01*
X-50473Y-1173D01*
X-50473Y-2943D01*
D01*
D01*
Y-2943D01*
X-50472Y-2960D01*
X-50470Y-2977D01*
X-50466Y-2993D01*
X-50460Y-3010D01*
X-50453Y-3025D01*
X-50444Y-3040D01*
X-50434Y-3054D01*
X-50422Y-3067D01*
X-50409Y-3078D01*
X-50395Y-3088D01*
X-50381Y-3097D01*
X-50365Y-3104D01*
X-50349Y-3110D01*
X-50332Y-3114D01*
X-50315Y-3117D01*
X-50298Y-3118D01*
X-48603Y-3118D01*
X-48586Y-3117D01*
X-48569Y-3114D01*
X-48552Y-3110D01*
X-48536Y-3105D01*
X-48521Y-3097D01*
X-48506Y-3088D01*
X-48492Y-3078D01*
X-48479Y-3067D01*
X-48468Y-3054D01*
X-48457Y-3040D01*
X-48452Y-3031D01*
X-48446Y-3040D01*
X-48436Y-3054D01*
X-48424Y-3067D01*
X-48412Y-3078D01*
X-48398Y-3088D01*
X-48383Y-3097D01*
X-48368Y-3104D01*
X-48351Y-3110D01*
X-48335Y-3114D01*
X-48318Y-3117D01*
X-48301Y-3118D01*
X-46616D01*
X-46598Y-3117D01*
X-46581Y-3114D01*
X-46565Y-3110D01*
X-46549Y-3104D01*
X-46533Y-3097D01*
X-46518Y-3088D01*
X-46504Y-3078D01*
X-46492Y-3067D01*
X-46482Y-3057D01*
X-46470Y-3044D01*
X-46460Y-3030D01*
X-46451Y-3015D01*
X-46444Y-3000D01*
X-46438Y-2983D01*
X-46434Y-2967D01*
X-46431Y-2950D01*
X-46430Y-2933D01*
Y-1173D01*
X-46431Y-1155D01*
X-46434Y-1138D01*
X-46438Y-1122D01*
X-46444Y-1106D01*
X-46451Y-1090D01*
X-46460Y-1075D01*
X-46470Y-1061D01*
X-46482Y-1049D01*
X-46494Y-1037D01*
X-46508Y-1027D01*
X-46523Y-1018D01*
X-46539Y-1011D01*
X-46555Y-1005D01*
X-46571Y-1001D01*
X-46588Y-998D01*
X-46606Y-997D01*
D02*
G37*
G36*
X-51558Y-1070D02*
X-51982D01*
X-52010Y-1071D01*
X-52038Y-1074D01*
X-52065Y-1078D01*
X-52092Y-1084D01*
X-52119Y-1093D01*
X-52145Y-1102D01*
X-52170Y-1114D01*
X-52195Y-1127D01*
X-52206Y-1134D01*
X-52218Y-1139D01*
X-52248Y-1153D01*
X-52278Y-1170D01*
X-52307Y-1187D01*
X-52335Y-1207D01*
X-52362Y-1227D01*
X-52388Y-1249D01*
X-52413Y-1273D01*
X-52436Y-1298D01*
X-52459Y-1323D01*
X-52479Y-1350D01*
X-52499Y-1378D01*
X-52516Y-1408D01*
X-52533Y-1437D01*
X-52547Y-1468D01*
X-52560Y-1500D01*
X-52572Y-1532D01*
X-52581Y-1564D01*
X-52589Y-1597D01*
X-52595Y-1631D01*
X-52600Y-1665D01*
X-52603Y-1699D01*
X-52604Y-1733D01*
Y-1958D01*
X-51953D01*
Y-2158D01*
X-52604D01*
Y-2383D01*
X-52603Y-2417D01*
X-52600Y-2451D01*
X-52595Y-2484D01*
X-52589Y-2518D01*
X-52581Y-2551D01*
X-52572Y-2584D01*
X-52560Y-2616D01*
X-52547Y-2647D01*
X-52533Y-2678D01*
X-52516Y-2708D01*
X-52499Y-2737D01*
X-52479Y-2765D01*
X-52459Y-2792D01*
X-52436Y-2818D01*
X-52413Y-2842D01*
X-52388Y-2866D01*
X-52362Y-2888D01*
X-52335Y-2909D01*
X-52307Y-2928D01*
X-52278Y-2946D01*
X-52248Y-2962D01*
X-52218Y-2977D01*
X-52206Y-2982D01*
X-52195Y-2988D01*
X-52170Y-3001D01*
X-52145Y-3013D01*
X-52119Y-3023D01*
X-52092Y-3031D01*
X-52065Y-3037D01*
X-52038Y-3042D01*
X-52010Y-3044D01*
X-51982Y-3045D01*
X-51558D01*
Y-2058D01*
Y-1070D01*
D02*
G37*
G36*
X-50508Y-2158D02*
X-51358D01*
Y-3045D01*
X-50933D01*
X-50906Y-3044D01*
X-50878Y-3042D01*
X-50851Y-3037D01*
X-50823Y-3031D01*
X-50797Y-3023D01*
X-50771Y-3013D01*
X-50745Y-3001D01*
X-50721Y-2988D01*
X-50697Y-2974D01*
X-50675Y-2957D01*
X-50653Y-2940D01*
X-50633Y-2921D01*
X-50614Y-2900D01*
X-50596Y-2879D01*
X-50580Y-2856D01*
X-50565Y-2833D01*
X-50552Y-2808D01*
X-50541Y-2783D01*
X-50531Y-2757D01*
X-50523Y-2730D01*
X-50517Y-2703D01*
X-50512Y-2676D01*
X-50509Y-2648D01*
X-50508Y-2620D01*
Y-2158D01*
D02*
G37*
G36*
X-45538D02*
X-46388D01*
Y-2620D01*
X-46387Y-2648D01*
X-46384Y-2676D01*
X-46380Y-2703D01*
X-46373Y-2730D01*
X-46365Y-2757D01*
X-46355Y-2783D01*
X-46344Y-2808D01*
X-46331Y-2833D01*
X-46316Y-2856D01*
X-46300Y-2879D01*
X-46282Y-2900D01*
X-46263Y-2921D01*
X-46243Y-2940D01*
X-46221Y-2957D01*
X-46199Y-2974D01*
X-46175Y-2988D01*
X-46151Y-3001D01*
X-46125Y-3013D01*
X-46099Y-3023D01*
X-46073Y-3031D01*
X-46046Y-3037D01*
X-46018Y-3042D01*
X-45990Y-3044D01*
X-45963Y-3045D01*
X-45538D01*
Y-2158D01*
D02*
G37*
G36*
X-44914Y-1070D02*
X-45338D01*
Y-2058D01*
Y-3045D01*
X-44914D01*
X-44886Y-3044D01*
X-44858Y-3042D01*
X-44831Y-3037D01*
X-44804Y-3031D01*
X-44777Y-3023D01*
X-44751Y-3013D01*
X-44726Y-3001D01*
X-44701Y-2988D01*
X-44690Y-2982D01*
X-44678Y-2977D01*
X-44648Y-2962D01*
X-44618Y-2946D01*
X-44589Y-2928D01*
X-44561Y-2909D01*
X-44534Y-2888D01*
X-44508Y-2866D01*
X-44483Y-2842D01*
X-44460Y-2818D01*
X-44438Y-2792D01*
X-44417Y-2765D01*
X-44398Y-2737D01*
X-44380Y-2708D01*
X-44364Y-2678D01*
X-44349Y-2647D01*
X-44336Y-2616D01*
X-44324Y-2584D01*
X-44315Y-2551D01*
X-44307Y-2518D01*
X-44301Y-2484D01*
X-44296Y-2451D01*
X-44294Y-2417D01*
X-44293Y-2383D01*
Y-2158D01*
X-44943D01*
Y-1958D01*
X-44293D01*
Y-1733D01*
X-44294Y-1699D01*
X-44296Y-1665D01*
X-44301Y-1631D01*
X-44307Y-1597D01*
X-44315Y-1564D01*
X-44324Y-1532D01*
X-44336Y-1500D01*
X-44349Y-1468D01*
X-44364Y-1437D01*
X-44380Y-1408D01*
X-44398Y-1378D01*
X-44417Y-1350D01*
X-44438Y-1323D01*
X-44460Y-1298D01*
X-44483Y-1273D01*
X-44508Y-1249D01*
X-44534Y-1227D01*
X-44561Y-1207D01*
X-44589Y-1187D01*
X-44618Y-1170D01*
X-44648Y-1153D01*
X-44678Y-1139D01*
X-44690Y-1134D01*
X-44701Y-1127D01*
X-44726Y-1114D01*
X-44751Y-1102D01*
X-44777Y-1093D01*
X-44804Y-1084D01*
X-44831Y-1078D01*
X-44858Y-1074D01*
X-44886Y-1071D01*
X-44914Y-1070D01*
D02*
G37*
G36*
X-11325Y-9675D02*
X-11675D01*
Y-10100D01*
X-11325D01*
Y-9675D01*
D02*
G37*
G36*
X-10775D02*
X-11125D01*
Y-10100D01*
X-10775D01*
Y-9675D01*
D02*
G37*
G36*
X-12075D02*
X-12425D01*
Y-10100D01*
X-12075D01*
Y-9675D01*
D02*
G37*
G36*
X-12625D02*
X-12975D01*
Y-10100D01*
X-12625D01*
Y-9675D01*
D02*
G37*
G36*
X-18202Y-4842D02*
X-18920D01*
X-18919Y-4848D01*
X-18912Y-4883D01*
X-18904Y-4917D01*
X-18894Y-4951D01*
X-18882Y-4984D01*
X-18869Y-5017D01*
X-18854Y-5049D01*
X-18837Y-5080D01*
X-18818Y-5110D01*
X-18798Y-5139D01*
X-18777Y-5167D01*
X-18754Y-5194D01*
X-18729Y-5220D01*
X-18704Y-5244D01*
X-18677Y-5267D01*
X-18649Y-5289D01*
X-18620Y-5309D01*
X-18590Y-5327D01*
X-18558Y-5344D01*
X-18527Y-5359D01*
X-18494Y-5373D01*
X-18461Y-5385D01*
X-18427Y-5395D01*
X-18392Y-5403D01*
X-18358Y-5409D01*
X-18322Y-5414D01*
X-18287Y-5417D01*
X-18252Y-5418D01*
X-18202D01*
Y-4842D01*
D02*
G37*
G36*
X-12280D02*
X-12998D01*
Y-5418D01*
X-12948D01*
X-12913Y-5417D01*
X-12878Y-5414D01*
X-12842Y-5409D01*
X-12808Y-5403D01*
X-12773Y-5395D01*
X-12739Y-5385D01*
X-12706Y-5373D01*
X-12673Y-5359D01*
X-12642Y-5344D01*
X-12610Y-5327D01*
X-12580Y-5309D01*
X-12551Y-5289D01*
X-12523Y-5267D01*
X-12496Y-5244D01*
X-12471Y-5220D01*
X-12446Y-5194D01*
X-12423Y-5167D01*
X-12402Y-5139D01*
X-12382Y-5110D01*
X-12363Y-5080D01*
X-12346Y-5049D01*
X-12331Y-5017D01*
X-12318Y-4984D01*
X-12306Y-4951D01*
X-12296Y-4917D01*
X-12288Y-4883D01*
X-12281Y-4848D01*
X-12280Y-4842D01*
D02*
G37*
G36*
X-12948Y-4067D02*
X-12998D01*
Y-4642D01*
X-12280D01*
X-12281Y-4637D01*
X-12288Y-4602D01*
X-12296Y-4568D01*
X-12306Y-4534D01*
X-12318Y-4500D01*
X-12331Y-4468D01*
X-12346Y-4436D01*
X-12363Y-4405D01*
X-12382Y-4375D01*
X-12402Y-4346D01*
X-12423Y-4317D01*
X-12446Y-4291D01*
X-12471Y-4265D01*
X-12496Y-4241D01*
X-12523Y-4218D01*
X-12551Y-4196D01*
X-12580Y-4176D01*
X-12610Y-4158D01*
X-12642Y-4141D01*
X-12673Y-4126D01*
X-12706Y-4112D01*
X-12739Y-4100D01*
X-12773Y-4090D01*
X-12808Y-4082D01*
X-12842Y-4075D01*
X-12878Y-4071D01*
X-12913Y-4068D01*
X-12948Y-4067D01*
D02*
G37*
G36*
X-18202D02*
X-18252D01*
X-18287Y-4068D01*
X-18322Y-4071D01*
X-18358Y-4075D01*
X-18392Y-4082D01*
X-18427Y-4090D01*
X-18461Y-4100D01*
X-18494Y-4112D01*
X-18527Y-4126D01*
X-18558Y-4141D01*
X-18590Y-4158D01*
X-18620Y-4176D01*
X-18649Y-4196D01*
X-18677Y-4218D01*
X-18704Y-4241D01*
X-18729Y-4265D01*
X-18754Y-4291D01*
X-18777Y-4317D01*
X-18798Y-4346D01*
X-18818Y-4375D01*
X-18837Y-4405D01*
X-18854Y-4436D01*
X-18869Y-4468D01*
X-18882Y-4500D01*
X-18894Y-4534D01*
X-18904Y-4568D01*
X-18912Y-4602D01*
X-18919Y-4637D01*
X-18920Y-4642D01*
X-18202D01*
Y-4067D01*
D02*
G37*
G36*
X-13757Y-990D02*
X-15453D01*
X-15470Y-991D01*
X-15487Y-993D01*
X-15503Y-997D01*
X-15520Y-1003D01*
X-15535Y-1010D01*
X-15550Y-1019D01*
X-15564Y-1030D01*
X-15576Y-1041D01*
X-15588Y-1054D01*
X-15598Y-1068D01*
X-15604Y-1077D01*
X-15609Y-1068D01*
X-15620Y-1054D01*
X-15631Y-1041D01*
X-15644Y-1030D01*
X-15658Y-1019D01*
X-15672Y-1010D01*
X-15688Y-1003D01*
X-15704Y-997D01*
X-15721Y-993D01*
X-15738Y-991D01*
X-15755Y-990D01*
D01*
X-15755D01*
X-17450D01*
X-17467Y-991D01*
X-17484Y-993D01*
X-17501Y-997D01*
X-17517Y-1003D01*
X-17533Y-1010D01*
X-17547Y-1019D01*
X-17561Y-1030D01*
X-17574Y-1041D01*
X-17585Y-1054D01*
X-17596Y-1068D01*
X-17605Y-1082D01*
X-17612Y-1098D01*
X-17618Y-1114D01*
X-17622Y-1131D01*
X-17624Y-1148D01*
X-17625Y-1165D01*
X-17625Y-2935D01*
D01*
D01*
Y-2935D01*
X-17624Y-2952D01*
X-17622Y-2969D01*
X-17618Y-2986D01*
X-17612Y-3002D01*
X-17605Y-3018D01*
X-17596Y-3032D01*
X-17585Y-3046D01*
X-17574Y-3059D01*
X-17561Y-3070D01*
X-17547Y-3081D01*
X-17533Y-3090D01*
X-17517Y-3097D01*
X-17501Y-3103D01*
X-17484Y-3107D01*
X-17467Y-3109D01*
X-17450Y-3110D01*
X-15755Y-3110D01*
X-15738Y-3109D01*
X-15721Y-3107D01*
X-15704Y-3103D01*
X-15688Y-3097D01*
X-15672Y-3090D01*
X-15658Y-3081D01*
X-15644Y-3070D01*
X-15631Y-3059D01*
X-15620Y-3046D01*
X-15609Y-3032D01*
X-15604Y-3023D01*
X-15598Y-3032D01*
X-15588Y-3046D01*
X-15576Y-3059D01*
X-15564Y-3070D01*
X-15550Y-3081D01*
X-15535Y-3090D01*
X-15520Y-3097D01*
X-15503Y-3103D01*
X-15487Y-3107D01*
X-15470Y-3109D01*
X-15453Y-3110D01*
X-13767D01*
X-13750Y-3109D01*
X-13733Y-3107D01*
X-13717Y-3103D01*
X-13700Y-3097D01*
X-13685Y-3090D01*
X-13670Y-3081D01*
X-13656Y-3070D01*
X-13644Y-3059D01*
X-13634Y-3049D01*
X-13622Y-3036D01*
X-13612Y-3022D01*
X-13603Y-3008D01*
X-13596Y-2992D01*
X-13590Y-2976D01*
X-13586Y-2959D01*
X-13583Y-2942D01*
X-13582Y-2925D01*
Y-1165D01*
X-13583Y-1148D01*
X-13586Y-1131D01*
X-13590Y-1114D01*
X-13596Y-1098D01*
X-13603Y-1082D01*
X-13612Y-1068D01*
X-13622Y-1054D01*
X-13634Y-1041D01*
X-13646Y-1030D01*
X-13660Y-1019D01*
X-13675Y-1010D01*
X-13690Y-1003D01*
X-13707Y-997D01*
X-13723Y-993D01*
X-13740Y-991D01*
X-13757Y-990D01*
D02*
G37*
G36*
X-12690Y-1062D02*
X-13115D01*
X-13142Y-1063D01*
X-13170Y-1066D01*
X-13198Y-1071D01*
X-13225Y-1077D01*
X-13251Y-1085D01*
X-13277Y-1095D01*
X-13303Y-1106D01*
X-13327Y-1119D01*
X-13351Y-1134D01*
X-13373Y-1150D01*
X-13395Y-1168D01*
X-13415Y-1187D01*
X-13434Y-1207D01*
X-13452Y-1229D01*
X-13468Y-1251D01*
X-13483Y-1275D01*
X-13496Y-1299D01*
X-13507Y-1325D01*
X-13517Y-1351D01*
X-13525Y-1377D01*
X-13531Y-1404D01*
X-13536Y-1432D01*
X-13539Y-1460D01*
X-13540Y-1487D01*
Y-1950D01*
X-12690D01*
Y-1062D01*
D02*
G37*
G36*
X-18085D02*
X-18510D01*
Y-1950D01*
X-17660D01*
Y-1487D01*
X-17661Y-1460D01*
X-17664Y-1432D01*
X-17669Y-1404D01*
X-17675Y-1377D01*
X-17683Y-1351D01*
X-17693Y-1325D01*
X-17704Y-1299D01*
X-17717Y-1275D01*
X-17732Y-1251D01*
X-17748Y-1229D01*
X-17766Y-1207D01*
X-17785Y-1187D01*
X-17805Y-1168D01*
X-17827Y-1150D01*
X-17849Y-1134D01*
X-17873Y-1119D01*
X-17897Y-1106D01*
X-17923Y-1095D01*
X-17949Y-1085D01*
X-17975Y-1077D01*
X-18002Y-1071D01*
X-18030Y-1066D01*
X-18058Y-1063D01*
X-18085Y-1062D01*
D02*
G37*
G36*
X-12690Y-2150D02*
X-13540D01*
Y-2613D01*
X-13539Y-2640D01*
X-13536Y-2668D01*
X-13531Y-2696D01*
X-13525Y-2723D01*
X-13517Y-2749D01*
X-13507Y-2775D01*
X-13496Y-2801D01*
X-13483Y-2825D01*
X-13468Y-2849D01*
X-13452Y-2871D01*
X-13434Y-2893D01*
X-13415Y-2913D01*
X-13395Y-2932D01*
X-13373Y-2950D01*
X-13351Y-2966D01*
X-13327Y-2981D01*
X-13303Y-2994D01*
X-13277Y-3005D01*
X-13251Y-3015D01*
X-13225Y-3023D01*
X-13198Y-3029D01*
X-13170Y-3034D01*
X-13142Y-3037D01*
X-13115Y-3038D01*
X-12690D01*
Y-2150D01*
D02*
G37*
G36*
X-12066Y-1062D02*
X-12490D01*
Y-2050D01*
Y-3038D01*
X-12066D01*
X-12038Y-3037D01*
X-12010Y-3034D01*
X-11983Y-3029D01*
X-11956Y-3023D01*
X-11929Y-3015D01*
X-11903Y-3005D01*
X-11878Y-2994D01*
X-11853Y-2981D01*
X-11842Y-2974D01*
X-11830Y-2969D01*
X-11800Y-2954D01*
X-11770Y-2938D01*
X-11741Y-2920D01*
X-11713Y-2901D01*
X-11686Y-2880D01*
X-11660Y-2858D01*
X-11635Y-2835D01*
X-11612Y-2810D01*
X-11589Y-2784D01*
X-11569Y-2757D01*
X-11549Y-2729D01*
X-11532Y-2700D01*
X-11515Y-2670D01*
X-11501Y-2639D01*
X-11488Y-2608D01*
X-11476Y-2576D01*
X-11467Y-2543D01*
X-11459Y-2510D01*
X-11453Y-2477D01*
X-11448Y-2443D01*
X-11445Y-2409D01*
X-11445Y-2375D01*
Y-2150D01*
X-12095D01*
Y-1950D01*
X-11445D01*
Y-1725D01*
X-11445Y-1691D01*
X-11448Y-1657D01*
X-11453Y-1623D01*
X-11459Y-1590D01*
X-11467Y-1557D01*
X-11476Y-1524D01*
X-11488Y-1492D01*
X-11501Y-1461D01*
X-11515Y-1430D01*
X-11532Y-1400D01*
X-11549Y-1371D01*
X-11569Y-1343D01*
X-11589Y-1316D01*
X-11612Y-1290D01*
X-11635Y-1265D01*
X-11660Y-1242D01*
X-11686Y-1220D01*
X-11713Y-1199D01*
X-11741Y-1180D01*
X-11770Y-1162D01*
X-11800Y-1146D01*
X-11830Y-1131D01*
X-11842Y-1126D01*
X-11853Y-1119D01*
X-11878Y-1106D01*
X-11903Y-1095D01*
X-11929Y-1085D01*
X-11956Y-1077D01*
X-11983Y-1071D01*
X-12010Y-1066D01*
X-12038Y-1063D01*
X-12066Y-1062D01*
D02*
G37*
G36*
X-17660Y-2150D02*
X-18510D01*
Y-3038D01*
X-18085D01*
X-18058Y-3037D01*
X-18030Y-3034D01*
X-18002Y-3029D01*
X-17975Y-3023D01*
X-17949Y-3015D01*
X-17923Y-3005D01*
X-17897Y-2994D01*
X-17873Y-2981D01*
X-17849Y-2966D01*
X-17827Y-2950D01*
X-17805Y-2932D01*
X-17785Y-2913D01*
X-17766Y-2893D01*
X-17748Y-2871D01*
X-17732Y-2849D01*
X-17717Y-2825D01*
X-17704Y-2801D01*
X-17693Y-2775D01*
X-17683Y-2749D01*
X-17675Y-2723D01*
X-17669Y-2696D01*
X-17664Y-2668D01*
X-17661Y-2640D01*
X-17660Y-2613D01*
Y-2150D01*
D02*
G37*
G36*
X-18710Y-1062D02*
X-19134D01*
X-19162Y-1063D01*
X-19190Y-1066D01*
X-19217Y-1071D01*
X-19244Y-1077D01*
X-19271Y-1085D01*
X-19297Y-1095D01*
X-19322Y-1106D01*
X-19347Y-1119D01*
X-19358Y-1126D01*
X-19370Y-1131D01*
X-19400Y-1146D01*
X-19430Y-1162D01*
X-19459Y-1180D01*
X-19487Y-1199D01*
X-19514Y-1220D01*
X-19540Y-1242D01*
X-19565Y-1265D01*
X-19588Y-1290D01*
X-19611Y-1316D01*
X-19631Y-1343D01*
X-19651Y-1371D01*
X-19668Y-1400D01*
X-19685Y-1430D01*
X-19699Y-1461D01*
X-19712Y-1492D01*
X-19724Y-1524D01*
X-19733Y-1557D01*
X-19741Y-1590D01*
X-19747Y-1623D01*
X-19752Y-1657D01*
X-19755Y-1691D01*
X-19755Y-1725D01*
Y-1950D01*
X-19105D01*
Y-2150D01*
X-19755D01*
Y-2375D01*
X-19755Y-2409D01*
X-19752Y-2443D01*
X-19747Y-2477D01*
X-19741Y-2510D01*
X-19733Y-2543D01*
X-19724Y-2576D01*
X-19712Y-2608D01*
X-19699Y-2639D01*
X-19685Y-2670D01*
X-19668Y-2700D01*
X-19651Y-2729D01*
X-19631Y-2757D01*
X-19611Y-2784D01*
X-19588Y-2810D01*
X-19565Y-2835D01*
X-19540Y-2858D01*
X-19514Y-2880D01*
X-19487Y-2901D01*
X-19459Y-2920D01*
X-19430Y-2938D01*
X-19400Y-2954D01*
X-19370Y-2969D01*
X-19358Y-2974D01*
X-19347Y-2981D01*
X-19322Y-2994D01*
X-19297Y-3005D01*
X-19271Y-3015D01*
X-19244Y-3023D01*
X-19217Y-3029D01*
X-19190Y-3034D01*
X-19162Y-3037D01*
X-19134Y-3038D01*
X-18710D01*
Y-2050D01*
Y-1062D01*
D02*
G37*
G36*
X-38400Y-26991D02*
X-38576Y-27026D01*
X-38724Y-27126D01*
X-38824Y-27274D01*
X-38859Y-27450D01*
X-38824Y-27626D01*
X-38724Y-27774D01*
X-38576Y-27874D01*
X-38400Y-27909D01*
X-38224Y-27874D01*
X-38076Y-27774D01*
X-37976Y-27626D01*
X-37941Y-27450D01*
X-37976Y-27274D01*
X-38076Y-27126D01*
X-38224Y-27026D01*
X-38400Y-26991D01*
D02*
G37*
G36*
X-23840Y-52916D02*
X-24590D01*
Y-53816D01*
X-23840D01*
Y-52916D01*
D02*
G37*
G36*
X-24790D02*
X-25540D01*
Y-53816D01*
X-24790D01*
Y-52916D01*
D02*
G37*
G36*
X-25700Y-35266D02*
X-25876Y-35301D01*
X-26024Y-35401D01*
X-26124Y-35549D01*
X-26159Y-35725D01*
X-26124Y-35901D01*
X-26024Y-36049D01*
X-25955Y-36096D01*
Y-51229D01*
X-26024Y-51276D01*
X-26124Y-51424D01*
X-26159Y-51600D01*
X-26124Y-51776D01*
X-26024Y-51924D01*
X-25876Y-52024D01*
X-25700Y-52059D01*
X-25524Y-52024D01*
X-25376Y-51924D01*
X-25276Y-51776D01*
X-25241Y-51600D01*
X-25276Y-51424D01*
X-25376Y-51276D01*
X-25445Y-51229D01*
Y-36096D01*
X-25376Y-36049D01*
X-25276Y-35901D01*
X-25241Y-35725D01*
X-25276Y-35549D01*
X-25376Y-35401D01*
X-25524Y-35301D01*
X-25700Y-35266D01*
D02*
G37*
G36*
X-24790Y-54016D02*
X-25540D01*
Y-54916D01*
X-24790D01*
Y-54016D01*
D02*
G37*
G36*
X-23840D02*
X-24590D01*
Y-54916D01*
X-23840D01*
Y-54016D01*
D02*
G37*
G36*
X-12134Y-67015D02*
X-12559D01*
Y-67365D01*
X-12134D01*
Y-67015D01*
D02*
G37*
G36*
X-12104Y-68335D02*
X-12529D01*
Y-68685D01*
X-12104D01*
Y-68335D01*
D02*
G37*
G36*
Y-67785D02*
X-12529D01*
Y-68135D01*
X-12104D01*
Y-67785D01*
D02*
G37*
%LPD*%
D10*
X-16940Y-13550D02*
G03*
X-19630Y-16240I0J-2690D01*
G01*
X-16940Y-13550D02*
G03*
X-15530Y-12140I0J1410D01*
G01*
X-16940Y-13930D02*
G03*
X-19250Y-16240I0J-2310D01*
G01*
X-16940Y-13930D02*
G03*
X-14980Y-11970I0J1960D01*
G01*
X-47148Y-7225D02*
Y-4750D01*
Y-9328D02*
Y-7225D01*
X-45525D01*
X-47150Y-9330D02*
X-47148Y-9328D01*
X-47848Y-5960D02*
X-47798Y-5910D01*
Y-4750D01*
X-48448Y-5910D02*
X-48398Y-5960D01*
X-48448Y-5910D02*
Y-4750D01*
X-19630Y-18200D02*
Y-16240D01*
X-15530Y-12140D02*
Y-8880D01*
X-19250Y-17060D02*
Y-16240D01*
X-15065Y-8880D02*
X-14980D01*
Y-11970D02*
Y-8880D01*
X-44450Y-26675D02*
X-43725D01*
X-45275Y-27500D02*
X-44450Y-26675D01*
X-45275Y-34275D02*
Y-27500D01*
D11*
X-23010Y-56495D02*
D03*
Y-57695D02*
D03*
X-28520Y-53890D02*
D03*
Y-52690D02*
D03*
X-22060Y-10900D02*
D03*
Y-9700D02*
D03*
X-17750Y-78600D02*
D03*
Y-79800D02*
D03*
X-19050Y-78600D02*
D03*
Y-79800D02*
D03*
X-23010Y-53820D02*
D03*
Y-55020D02*
D03*
D12*
X-16850Y-66950D02*
D03*
X-18050D02*
D03*
X-16850Y-68100D02*
D03*
X-18050D02*
D03*
X-16509Y-75400D02*
D03*
X-15309D02*
D03*
X-16509Y-76575D02*
D03*
X-15309D02*
D03*
X-12150Y-65640D02*
D03*
X-13350D02*
D03*
X-22450Y-13375D02*
D03*
X-23650D02*
D03*
X-23280Y-9800D02*
D03*
X-24480D02*
D03*
D13*
X-16490Y-78730D02*
D03*
X-16490Y-79780D02*
D03*
X-20310Y-78730D02*
D03*
X-20310Y-79780D02*
D03*
D14*
X-28490Y-55236D02*
D03*
Y-56336D02*
D03*
X-28490Y-58831D02*
D03*
Y-57731D02*
D03*
X-23894Y-72325D02*
D03*
Y-71225D02*
D03*
X-20695Y-71270D02*
D03*
Y-72370D02*
D03*
X-24994Y-72325D02*
D03*
Y-71225D02*
D03*
X-20935Y-10850D02*
D03*
Y-9750D02*
D03*
D15*
X-12629Y-68235D02*
D03*
X-13579D02*
D03*
X-23245Y-10845D02*
D03*
X-24195D02*
D03*
X-12659Y-66915D02*
D03*
X-13609D02*
D03*
D16*
X-19240Y-58950D02*
D03*
X-20340D02*
D03*
D17*
X-17600Y-73000D02*
D03*
Y-71600D02*
D03*
D18*
X-18230Y-56490D02*
D03*
X-19630D02*
D03*
X-12525Y-7500D02*
D03*
X-11125D02*
D03*
D19*
X-18226Y-57745D02*
D03*
X-19622D02*
D03*
D20*
X-51830Y-6203D02*
D03*
Y-7203D02*
D03*
X-35675Y-12450D02*
D03*
Y-11450D02*
D03*
X-19005Y-6400D02*
D03*
Y-7400D02*
D03*
X-45525Y-7225D02*
D03*
Y-8225D02*
D03*
X-44650D02*
D03*
Y-7225D02*
D03*
D21*
X-50930Y-7178D02*
D03*
Y-6228D02*
D03*
X-18105Y-7375D02*
D03*
Y-6425D02*
D03*
X-12525Y-8625D02*
D03*
Y-9575D02*
D03*
X-11225Y-8625D02*
D03*
Y-9575D02*
D03*
X-20150Y-82675D02*
D03*
Y-83625D02*
D03*
D22*
X-31000Y-7650D02*
D03*
Y-2150D02*
D03*
X-35000D02*
D03*
Y-7650D02*
D03*
X-24000D02*
D03*
Y-2150D02*
D03*
X-28000D02*
D03*
Y-7650D02*
D03*
D23*
X-6500Y-3550D02*
D03*
Y-1450D02*
D03*
X-8750Y-3550D02*
D03*
Y-1450D02*
D03*
D24*
X-32050Y-12000D02*
D03*
X-34150D02*
D03*
D25*
X-12590Y-2050D02*
D03*
X-18610D02*
D03*
X-45438Y-2058D02*
D03*
X-51458D02*
D03*
D26*
X-14300Y-4742D02*
D03*
X-14950Y-4742D02*
D03*
X-16900Y-4742D02*
D03*
X-16250D02*
D03*
X-15600D02*
D03*
X-47148Y-4750D02*
D03*
X-47798Y-4750D02*
D03*
X-49748Y-4750D02*
D03*
X-49098D02*
D03*
X-48448D02*
D03*
D27*
X-30150Y-9850D02*
D03*
X-31150D02*
D03*
D28*
X-19247Y-71497D02*
D03*
Y-72894D02*
D03*
D29*
X-22330Y-75080D02*
D03*
X-24430D02*
D03*
D30*
X-18500Y-83200D02*
D03*
D31*
X-19250Y-84650D02*
D03*
X-18750D02*
D03*
X-18250D02*
D03*
X-17750D02*
D03*
Y-81750D02*
D03*
X-18250D02*
D03*
X-18750D02*
D03*
X-19250D02*
D03*
D32*
X-21240Y-69200D02*
D03*
X-22040D02*
D03*
X-22840D02*
D03*
X-23640D02*
D03*
X-24440D02*
D03*
X-25240D02*
D03*
X-26040D02*
D03*
X-26840D02*
D03*
X-26840Y-60700D02*
D03*
X-26040D02*
D03*
X-25240D02*
D03*
X-24440D02*
D03*
X-23640D02*
D03*
X-22840D02*
D03*
X-22040D02*
D03*
X-21240D02*
D03*
D33*
X-28290Y-67750D02*
D03*
Y-66950D02*
D03*
Y-66150D02*
D03*
Y-65350D02*
D03*
Y-64550D02*
D03*
Y-63750D02*
D03*
Y-62950D02*
D03*
Y-62150D02*
D03*
X-19790Y-62150D02*
D03*
Y-62950D02*
D03*
Y-63750D02*
D03*
Y-64550D02*
D03*
Y-65350D02*
D03*
Y-66150D02*
D03*
Y-66950D02*
D03*
Y-67750D02*
D03*
D34*
X-26990Y-53916D02*
D03*
Y-57716D02*
D03*
X-24690D02*
D03*
Y-53916D02*
D03*
D35*
X-15164Y-65635D02*
D03*
Y-68235D02*
D03*
D36*
X-51830Y-7178D02*
X-50048D01*
X-49748Y-6878D01*
X-18105Y-7375D02*
X-18080Y-7400D01*
X-16900D01*
X-18130D02*
X-18105Y-7375D01*
X-19005Y-7400D02*
X-18130D01*
X-44935Y-6190D02*
X-44650Y-6475D01*
Y-7225D02*
Y-6475D01*
X-45940Y-6190D02*
X-44935D01*
X-49748Y-6878D02*
Y-4750D01*
X-16900Y-7400D02*
X-16900Y-7400D01*
Y-4742D01*
X-21450Y-12400D02*
Y-12024D01*
X-22060Y-11414D02*
X-21450Y-12024D01*
X-22060Y-11414D02*
Y-10800D01*
X-19990Y-52090D02*
Y-47150D01*
X-22370Y-55855D02*
Y-52090D01*
X-23010Y-56495D02*
X-22370Y-55855D01*
X-21654Y-57654D02*
Y-43996D01*
X-23640Y-59640D02*
X-21654Y-57654D01*
X-24440Y-51500D02*
Y-47950D01*
Y-51500D02*
X-23010Y-52930D01*
Y-53820D02*
Y-52930D01*
X-22040Y-59650D02*
X-21340Y-58950D01*
X-22040Y-60700D02*
Y-59650D01*
X-50520Y-77380D02*
Y-66150D01*
X-49230Y-67760D02*
Y-53670D01*
X-50490Y-52410D02*
X-49230Y-53670D01*
X-50490Y-52410D02*
Y-51610D01*
X-42900Y-45630D02*
X-41640Y-46890D01*
Y-64100D02*
Y-46890D01*
X-42900Y-65360D02*
X-41640Y-64100D01*
X-42900Y-77380D02*
Y-65360D01*
X-45440Y-77380D02*
Y-73460D01*
X-44170Y-72190D01*
Y-53150D01*
X-45440Y-51880D02*
X-44170Y-53150D01*
X-45440Y-51880D02*
Y-48170D01*
X-33240Y-49000D02*
Y-42590D01*
X-51790Y-52490D02*
Y-46900D01*
X-53060Y-45630D02*
X-51790Y-46900D01*
X-49230Y-50380D02*
Y-46920D01*
X-50520Y-45630D02*
X-49230Y-46920D01*
X-47980Y-77380D02*
Y-69410D01*
X-46690Y-68120D01*
Y-49460D01*
X-47980Y-48170D02*
X-46690Y-49460D01*
X-55540Y-57360D02*
Y-53410D01*
X-56870Y-52080D02*
X-55540Y-53410D01*
X-56870Y-52080D02*
Y-46900D01*
X-55600Y-45630D01*
X-44700Y-50970D02*
Y-49990D01*
X-42900Y-48190D01*
Y-48170D01*
X-54330Y-46900D02*
Y-43880D01*
Y-46900D02*
X-53060Y-48170D01*
X-20904Y-45210D02*
Y-45100D01*
Y-57704D02*
Y-45210D01*
X-50520Y-48170D02*
X-50490Y-48200D01*
Y-51610D02*
Y-48200D01*
X-32095Y-56905D02*
Y-35750D01*
X-34520Y-59330D02*
X-32095Y-56905D01*
X-34520Y-73080D02*
Y-59330D01*
X-32430Y-66950D02*
X-28290D01*
X-32910Y-78325D02*
Y-74690D01*
X-34520Y-73080D02*
X-32910Y-74690D01*
X-33650Y-72740D02*
X-32070Y-74320D01*
X-33650Y-67780D02*
Y-59820D01*
Y-72740D02*
Y-67780D01*
Y-59820D02*
X-30855Y-57025D01*
Y-36151D01*
X-32430Y-66950D02*
Y-66935D01*
X-31320Y-64550D02*
X-28290D01*
Y-63725D02*
X-26800D01*
X-32480Y-63750D02*
X-32480Y-63750D01*
X-28290D01*
X-31330Y-62950D02*
X-31330Y-62950D01*
X-28290D01*
X-32487Y-61680D02*
X-30780D01*
X-30310Y-62150D01*
X-28290D01*
X-42900Y-62920D02*
Y-54520D01*
Y-50390D02*
X-42890Y-50380D01*
X-42900Y-54520D02*
Y-50390D01*
X-42920Y-62920D02*
X-42900D01*
X-22304Y-50354D02*
Y-43200D01*
X-23030Y-51080D02*
X-22304Y-50354D01*
X-24440Y-62790D02*
X-24440Y-62790D01*
X-24440Y-62790D02*
Y-60700D01*
X-23640D02*
Y-59640D01*
X-22840Y-59640D02*
X-20904Y-57704D01*
X-22840Y-60700D02*
Y-59640D01*
X-53970Y-49800D02*
X-53950D01*
X-55600Y-48170D02*
X-53970Y-49800D01*
X-55600Y-48880D02*
Y-48170D01*
X-25950Y-62790D02*
X-25240Y-62080D01*
Y-60700D01*
X-45000Y-40889D02*
X-35825D01*
X-45440Y-41329D02*
X-45000Y-40889D01*
X-45440Y-45630D02*
Y-41329D01*
X-45920Y-40155D02*
X-37075D01*
X-46690Y-40925D02*
X-45920Y-40155D01*
X-46690Y-46920D02*
Y-40925D01*
Y-46920D02*
X-45440Y-48170D01*
X-28569Y-58591D02*
X-28540D01*
X-26076Y-59030D02*
X-26040Y-59066D01*
X-28291Y-59030D02*
X-26076D01*
X-26040Y-60700D02*
Y-59066D01*
X-32070Y-79510D02*
Y-74320D01*
X-40360Y-80770D02*
Y-77380D01*
X-40370Y-80770D02*
X-40360D01*
X-47980Y-45630D02*
Y-43180D01*
X-51910Y-86270D02*
X-48000D01*
X-53060Y-85120D02*
X-51910Y-86270D01*
X-53060Y-85120D02*
Y-77380D01*
X-17600Y-74302D02*
Y-73200D01*
X-19830Y-54040D02*
X-19830Y-54040D01*
X-19830Y-54925D02*
Y-54040D01*
Y-56490D02*
Y-54925D01*
X-19770Y-60700D02*
X-19340Y-60270D01*
X-21240Y-60700D02*
X-19770D01*
X-11875Y-9575D02*
X-11225D01*
X-12525D02*
X-11875D01*
X-24000Y-2150D02*
X-23180D01*
X-22750Y-1720D01*
X-36040Y-2150D02*
X-35000D01*
X-24690Y-57716D02*
X-23140D01*
X-34125Y-24850D02*
X-34120Y-24855D01*
X-45975Y-24850D02*
X-34125D01*
X-28028Y-2178D02*
X-28000Y-2150D01*
X-28850Y-2178D02*
X-28028D01*
X-50750Y-23325D02*
X-50050Y-24025D01*
X-50750Y-23325D02*
Y-13640D01*
X-53350Y-26425D02*
X-51325Y-28450D01*
X-53350Y-26425D02*
Y-21955D01*
X-56106Y-19199D02*
X-53350Y-21955D01*
X-48420Y-29555D02*
X-47725Y-30250D01*
X-48420Y-20895D02*
X-47750Y-20225D01*
X-48420Y-29555D02*
Y-20895D01*
X-28175Y-14275D02*
X-27950Y-14500D01*
Y-16175D02*
Y-14500D01*
X-38399Y-24279D02*
X-36675D01*
X-44133Y-25600D02*
X-39700D01*
X-46175Y-27642D02*
X-44133Y-25600D01*
X-46175Y-34975D02*
Y-27642D01*
X-47134Y-26009D02*
X-45975Y-24850D01*
X-47134Y-31850D02*
Y-26009D01*
X-47750Y-20225D02*
X-44200D01*
X-24000Y-7650D02*
Y-2150D01*
X-31000Y-7650D02*
Y-2150D01*
X-50550Y-38600D02*
Y-35000D01*
X-52750Y-32800D02*
X-50550Y-35000D01*
X-52750Y-32800D02*
Y-32799D01*
X-8750Y-3550D02*
X-5950Y-6350D01*
Y-8775D02*
Y-6350D01*
X-6800Y-9625D02*
X-5950Y-8775D01*
X-28000Y-7650D02*
Y-2150D01*
X-35000Y-7650D02*
Y-2150D01*
X-30977Y-16175D02*
X-27950D01*
X-12625Y-8625D02*
X-12525D01*
X-7941Y-10991D02*
Y-8675D01*
X-11225Y-8625D02*
Y-7600D01*
X-11125Y-7500D01*
X-36875Y-12450D02*
X-35675D01*
X-12625Y-8725D02*
Y-8625D01*
X-37213Y-12112D02*
X-36875Y-12450D01*
X-19247Y-73935D02*
Y-72995D01*
X-26990Y-57716D02*
Y-57591D01*
X-24690Y-54066D02*
Y-53916D01*
X-28183Y-14275D02*
X-28175D01*
X-48950Y-33450D02*
Y-20100D01*
X-47350Y-18500D01*
X-40975D01*
X-37850Y-21625D01*
X-36427D01*
X-30977Y-16175D01*
X-9800Y-4900D02*
Y-2500D01*
X-8750Y-1450D01*
X-6500Y-3550D02*
Y-3550D01*
Y-3550D02*
X-4600Y-5450D01*
X-2100D01*
X-1200Y-6350D01*
Y-7950D02*
Y-6350D01*
X-5200Y-10400D02*
Y-6404D01*
X-7650Y-3954D02*
Y-2600D01*
Y-3954D02*
X-5200Y-6404D01*
X-8750Y-1450D02*
X-7650Y-2550D01*
Y-2600D02*
Y-2550D01*
Y-2600D02*
X-6500Y-1450D01*
X-8370Y-11420D02*
X-7941Y-10991D01*
X-35675Y-11450D02*
X-35125Y-12000D01*
X-34150D01*
X-32010Y-2150D02*
X-31000D01*
X-8370Y-15740D02*
Y-11420D01*
X-9640Y-17010D02*
X-8370Y-15740D01*
X-15835Y-17010D02*
X-9640D01*
X-9800Y-4900D02*
X-9300Y-5400D01*
Y-10200D02*
Y-5400D01*
X-9650Y-10540D02*
X-9310Y-10200D01*
X-9290D01*
X-8950Y-10540D01*
X-13700Y-10860D02*
X-10220D01*
X-56106Y-19199D02*
X-56075Y-19168D01*
Y-13810D01*
X-55630Y-13365D01*
X-20970Y-10800D02*
X-20970Y-10800D01*
X-22060Y-10800D02*
X-20970D01*
X-16540Y-79810D02*
Y-79780D01*
Y-79810D02*
X-16170Y-80180D01*
X-15600D01*
X-20650D02*
X-20250Y-79780D01*
X-21240Y-80180D02*
X-20650D01*
X-16509Y-76575D02*
Y-75400D01*
Y-77121D02*
Y-76575D01*
Y-77121D02*
X-15600Y-78030D01*
Y-80180D02*
Y-78030D01*
X-26040Y-59066D02*
X-24690Y-57716D01*
X-28490Y-57731D02*
X-27005D01*
X-26990Y-57716D01*
X-28490Y-57731D02*
Y-56336D01*
X-28490Y-56336D02*
X-28490Y-56336D01*
Y-58831D02*
X-28291Y-59030D01*
X-28520Y-52690D02*
X-27680D01*
X-27550Y-52820D01*
Y-53530D02*
Y-52820D01*
X-26040Y-69200D02*
Y-66937D01*
X-26050Y-66927D02*
X-26040Y-66937D01*
X-18230Y-56490D02*
X-18226Y-56495D01*
Y-57745D02*
Y-56495D01*
Y-58735D02*
Y-57745D01*
X-18440Y-58950D02*
X-18226Y-58735D01*
X-19340Y-58950D02*
X-18440D01*
X-19340Y-60270D02*
Y-58950D01*
X-21340D02*
X-20340D01*
X-24000Y-9320D02*
Y-7650D01*
X-24480Y-9800D02*
X-24000Y-9320D01*
X-20294Y-57745D02*
X-19622D01*
X-20340Y-57791D02*
X-20294Y-57745D01*
X-20340Y-58950D02*
Y-58950D01*
Y-57791D01*
X-25852Y-55118D02*
X-25742D01*
X-25936Y-56537D02*
X-25852D01*
X-20000Y-72894D02*
X-19247D01*
X-20000D02*
Y-72380D01*
X-20010Y-72370D02*
X-20000Y-72380D01*
X-20695Y-72370D02*
X-20010D01*
X-24940Y-11410D02*
Y-10841D01*
X-24195Y-10845D02*
Y-10841D01*
X-24940D02*
X-24195D01*
D37*
X-50950Y-6208D02*
X-50930Y-6228D01*
X-50950Y-6208D02*
Y-4750D01*
X-27339Y-72535D02*
Y-72396D01*
X-25240Y-70297D01*
Y-69200D01*
X-22330Y-75080D02*
Y-71539D01*
X-23640Y-70229D02*
X-22330Y-71539D01*
X-23640Y-70229D02*
Y-69200D01*
X-51830Y-6203D02*
X-50955D01*
X-18102Y-6425D02*
Y-4742D01*
X-18725Y-6400D02*
X-18700Y-6425D01*
X-18980D02*
X-18105D01*
X-14300Y-7500D02*
Y-4742D01*
Y-9460D02*
Y-7500D01*
X-12525D01*
X-14300Y-9460D02*
X-14300Y-9460D01*
X-51242Y-3588D02*
X-50948D01*
X-51458Y-3372D02*
X-51242Y-3588D01*
X-51458Y-3372D02*
Y-2058D01*
X-30556Y-13700D02*
X-27300D01*
X-36696Y-19840D02*
X-30556Y-13700D01*
X-12525Y-8625D02*
Y-7500D01*
X-11125D02*
X-10225Y-8400D01*
Y-14985D02*
Y-8400D01*
X-11160Y-15920D02*
X-10225Y-14985D01*
X-17420Y-15920D02*
X-11160D01*
X-17925Y-16425D02*
X-17420Y-15920D01*
X-12835Y-3580D02*
X-12590Y-3335D01*
Y-2050D01*
X-18610Y-3200D02*
Y-2050D01*
Y-3200D02*
X-18230Y-3580D01*
X-18102Y-4742D02*
Y-3582D01*
X-18100Y-3580D01*
X-18230D02*
X-18100D01*
X-13098Y-4742D02*
Y-3580D01*
X-18100D02*
X-13098D01*
X-12835D01*
X-45946Y-3588D02*
X-45683D01*
X-50948D02*
X-45946D01*
Y-4750D02*
Y-3588D01*
X-50950Y-3590D02*
X-50948Y-3588D01*
X-50950Y-4750D02*
Y-3590D01*
X-45438Y-3343D02*
Y-2058D01*
X-45683Y-3588D02*
X-45438Y-3343D01*
D38*
X-27339Y-75075D02*
X-27334Y-75080D01*
X-24430D01*
X-39120Y-49470D02*
X-37820Y-48170D01*
X-39120Y-59980D02*
Y-49470D01*
Y-59980D02*
X-37820Y-61280D01*
Y-77380D02*
Y-61280D01*
X-29360Y-81750D02*
X-29340Y-81770D01*
X-37310Y-81750D02*
X-29360D01*
X-37820Y-81240D02*
X-37310Y-81750D01*
X-37820Y-81240D02*
Y-77380D01*
X-29510Y-60080D02*
Y-55501D01*
Y-60080D02*
X-28890Y-60700D01*
X-26840D01*
X-12150Y-66090D02*
Y-65640D01*
X-12325Y-66265D02*
X-12150Y-66090D01*
X-22840Y-69955D02*
X-21425Y-71370D01*
X-22840Y-69955D02*
Y-69200D01*
X-24440D02*
Y-67500D01*
X-15164Y-68235D02*
X-13554D01*
X-13434Y-66265D02*
X-12325D01*
X-13584Y-66415D02*
X-13434Y-66265D01*
X-13584Y-66875D02*
Y-66415D01*
X-15164Y-65635D02*
X-13330Y-65640D01*
X-26824Y-55818D02*
X-23848Y-55818D01*
X-20695Y-71395D02*
X-17600D01*
X-27406Y-55236D02*
X-26824Y-55818D01*
X-21425Y-71370D02*
X-20695D01*
X-23848Y-55818D02*
X-23030Y-55000D01*
X-29510Y-55501D02*
X-29245Y-55236D01*
X-28490D01*
X-27406Y-55236D01*
X-28520Y-55206D02*
Y-53890D01*
Y-55206D02*
X-28490Y-55236D01*
X-24440Y-70679D02*
Y-69200D01*
Y-70679D02*
X-23894Y-71225D01*
X-24994D02*
X-24986D01*
X-24440Y-70679D01*
X-24430Y-75080D02*
Y-72861D01*
X-23894Y-72325D01*
X-24994D02*
X-24458Y-72861D01*
X-24430D01*
D39*
X-15000Y-4792D02*
X-14950Y-4742D01*
X-15000Y-5775D02*
Y-4792D01*
X-15600Y-4742D02*
X-15550Y-4792D01*
Y-5775D02*
Y-4792D01*
X-14350Y-19750D02*
X-13875Y-20225D01*
Y-22675D02*
Y-20225D01*
Y-22675D02*
X-13075Y-23475D01*
Y-24025D02*
Y-23475D01*
X-40330Y-30780D02*
X-40190D01*
X-26320D01*
X-25845Y-31255D01*
Y-32440D02*
Y-31255D01*
X-25700Y-51600D02*
Y-35725D01*
X-33650Y-67780D02*
X-28204D01*
X-31320Y-66150D02*
X-28290D01*
X-34591Y-42590D02*
Y-35750D01*
X-42900Y-43340D02*
X-42150Y-42590D01*
X-42900Y-45630D02*
Y-43340D01*
X-48000Y-43180D02*
X-47980D01*
X-40360Y-51030D02*
X-40360Y-51030D01*
Y-54520D02*
Y-51030D01*
Y-61680D02*
Y-54520D01*
X-53060Y-63715D02*
Y-54520D01*
X-19390Y-35725D02*
Y-30780D01*
X-13575Y-59810D02*
Y-39500D01*
X-14699Y-60934D02*
X-13575Y-59810D01*
X-18974Y-60934D02*
X-14699D01*
X-21465Y-19750D02*
X-14350D01*
X-23188Y-18027D02*
X-21465Y-19750D01*
X-23188Y-18027D02*
Y-18025D01*
X-26591Y-22306D02*
X-25906D01*
X-27631Y-23346D02*
X-26591Y-22306D01*
X-26163Y-23213D02*
Y-23212D01*
X-27350Y-24400D02*
X-26163Y-23213D01*
X-23505Y-25920D02*
X-23151Y-26274D01*
X-25760Y-25920D02*
X-23505D01*
X-26630Y-25050D02*
X-25760Y-25920D01*
X-26630Y-25050D02*
Y-24330D01*
X-19351Y-24700D02*
X-16950Y-27101D01*
X-25150Y-24700D02*
X-19351D01*
X-25180Y-24670D02*
X-25150Y-24700D01*
X-26630Y-24330D02*
X-25025Y-22725D01*
X-23421Y-16786D02*
X-20857Y-19350D01*
X-26800Y-52400D02*
Y-36350D01*
X-17750Y-78600D02*
X-17750Y-78600D01*
X-17750Y-78600D02*
Y-76990D01*
X-19050Y-78600D02*
X-19050Y-78600D01*
Y-75710D01*
X-11100Y-75300D02*
Y-64930D01*
X-11800Y-76000D02*
X-11100Y-75300D01*
X-11800Y-85650D02*
Y-76000D01*
X-12240Y-75690D02*
Y-69825D01*
X-13125Y-76575D02*
X-12240Y-75690D01*
X-15309Y-76575D02*
X-13125D01*
X-12510Y-69555D02*
X-12240Y-69825D01*
X-28316Y-67776D02*
X-28290Y-67750D01*
X-28313Y-66927D02*
X-28290Y-66950D01*
X-28316Y-65324D02*
X-28290Y-65350D01*
X-28320Y-64580D02*
X-28290Y-64550D01*
X-28313Y-62927D02*
X-28290Y-62950D01*
X-23525Y-17688D02*
Y-17370D01*
Y-17688D02*
X-23188Y-18025D01*
X-32810Y-26610D02*
Y-25230D01*
X-30790Y-23210D01*
Y-17020D01*
X-33170Y-14230D02*
X-32050Y-13110D01*
Y-12000D01*
X-9700Y-63750D02*
Y-32651D01*
Y-63750D02*
X-9700Y-63750D01*
X-11010Y-54310D02*
Y-31330D01*
X-11110Y-54410D02*
X-11010Y-54310D01*
X-11110Y-64920D02*
Y-54410D01*
Y-64920D02*
X-11100Y-64930D01*
X-11010Y-31330D02*
X-10950Y-31270D01*
X-12179Y-64920D02*
X-11100D01*
X-12700Y-64399D02*
X-12179Y-64920D01*
X-8560Y-63100D02*
Y-53650D01*
X-9200Y-53010D02*
X-8560Y-53650D01*
X-9200Y-53010D02*
Y-49000D01*
X-8560Y-83020D02*
X-6970Y-84610D01*
X-8560Y-83020D02*
Y-63100D01*
X-8700Y-52660D02*
Y-38150D01*
Y-52660D02*
X-6970Y-54390D01*
Y-64290D02*
Y-54390D01*
X-22436Y-34330D02*
X-21950D01*
X-22966Y-33800D02*
X-22436Y-34330D01*
X-23480Y-33800D02*
X-22966D01*
X-23680Y-33600D02*
X-23480Y-33800D01*
X-22508Y-32755D02*
X-21400D01*
X-22753Y-33000D02*
X-22508Y-32755D01*
X-44550Y-34950D02*
X-44300Y-35200D01*
X-26900D01*
X-44025Y-34275D02*
X-43725Y-33975D01*
X-28175D01*
X-13075Y-32400D02*
X-12780Y-32695D01*
Y-40155D02*
Y-32695D01*
X-30020Y-41470D02*
Y-36170D01*
X-29600Y-35750D01*
X-14350Y-24025D02*
Y-20690D01*
X-14940Y-20100D02*
X-14350Y-20690D01*
X-22450Y-20100D02*
X-14940D01*
X-23725Y-18825D02*
X-22450Y-20100D01*
X-23892Y-19475D02*
X-22567Y-20800D01*
X-25845Y-28900D02*
Y-28880D01*
X-25850Y-28875D02*
X-25845Y-28880D01*
X-27900Y-22725D02*
Y-22350D01*
X-28350Y-23175D02*
X-27900Y-22725D01*
X-28350Y-28500D02*
Y-23175D01*
X-29600Y-27750D02*
Y-23918D01*
X-30850Y-27750D02*
Y-24700D01*
X-32095Y-27750D02*
Y-25495D01*
X-30850Y-28500D02*
Y-27750D01*
X-29600Y-28900D02*
Y-27750D01*
X-32095Y-28906D02*
Y-27750D01*
X-33345Y-39500D02*
Y-36156D01*
X-33350Y-36151D02*
X-33345Y-36156D01*
X-28200Y-22500D02*
Y-22000D01*
X-28200Y-22500D02*
X-28200Y-22500D01*
X-28200Y-22518D02*
Y-22500D01*
X-29600Y-23918D02*
X-28200Y-22518D01*
X-28500Y-21650D02*
X-28500Y-22350D01*
X-30850Y-24700D02*
X-28500Y-22350D01*
X-32095Y-25495D02*
X-28825Y-22225D01*
Y-19886D01*
X-27114Y-18175D01*
X-25675D01*
X-4430Y-84610D02*
X-2975Y-83155D01*
Y-50505D01*
X-4430Y-49050D02*
X-2975Y-50505D01*
X-12525Y-54950D02*
Y-46301D01*
X-12526Y-46301D02*
X-12525Y-46301D01*
X-12526Y-46301D02*
X-12525Y-46300D01*
X-35825Y-40889D02*
Y-36150D01*
X-50530Y-65335D02*
Y-54500D01*
X-4430Y-82070D02*
X-4410Y-82050D01*
X-18180Y-24950D02*
Y-24364D01*
X-20369Y-22175D02*
X-18180Y-24364D01*
X-27900Y-22350D02*
X-25675Y-20125D01*
X-28200Y-22000D02*
X-26325Y-20125D01*
X-28500Y-21650D02*
X-25025Y-18175D01*
X-16950Y-27101D02*
X-2776D01*
X-23075Y-21425D02*
X-22366D01*
X-21616Y-22175D01*
X-20369D01*
X-45525Y-8225D02*
X-44650D01*
X-43800Y-31850D02*
X-42650Y-33000D01*
X-22753D01*
X-43800Y-32650D02*
X-43150Y-33300D01*
X-23129D01*
X-43800Y-33450D02*
X-43424D01*
X-43274Y-33600D01*
X-23680D01*
X-25025Y-19475D02*
X-23892D01*
X-20150Y-81750D02*
X-19250D01*
X-20150Y-82675D02*
Y-81750D01*
X-15625Y-34500D02*
Y-32400D01*
Y-43200D02*
Y-34500D01*
X-26163Y-23212D02*
X-25025Y-22075D01*
X-25906Y-22306D02*
X-25675Y-22075D01*
X-17750Y-81750D02*
Y-79800D01*
X-17750Y-79800D01*
X-19050Y-79850D02*
Y-79800D01*
Y-79850D02*
X-18250Y-80650D01*
Y-81750D02*
Y-80650D01*
Y-81750D02*
X-18250Y-81750D01*
X-17750Y-85550D02*
Y-84650D01*
Y-85550D02*
X-17750Y-85550D01*
X-20150Y-84400D02*
Y-83625D01*
Y-84400D02*
X-20150Y-84400D01*
X-16400Y-40150D02*
X-16375Y-40125D01*
X-37075Y-40155D02*
Y-35750D01*
X-22954Y-37129D02*
X-22950Y-36925D01*
X-22954Y-49800D02*
Y-37129D01*
X-16375Y-59350D02*
Y-40175D01*
X-16400Y-40150D02*
X-16375Y-40175D01*
X-42858Y-90283D02*
X-42525Y-89950D01*
X-45813Y-90283D02*
X-42858D01*
X-17525Y-51365D02*
Y-38890D01*
X-18750Y-51765D02*
Y-37550D01*
X-5720Y-75700D02*
Y-42720D01*
X-4430Y-41430D01*
X-11800Y-24025D02*
Y-21375D01*
X-2776Y-27101D02*
X-1900Y-26225D01*
Y-11900D01*
X-22450Y-13375D02*
X-21450D01*
X-11800Y-53875D02*
Y-32400D01*
X-11800Y-53875D02*
X-11800Y-53875D01*
X-15100Y-59375D02*
Y-53900D01*
X-14354Y-35050D02*
X-14350Y-35054D01*
Y-36925D02*
Y-35054D01*
Y-35046D02*
Y-32400D01*
X-14354Y-35050D02*
X-14350Y-35046D01*
X-10250Y-35725D02*
Y-30075D01*
X-5720Y-75700D02*
X-4430Y-76990D01*
X-19032Y-27625D02*
X-8075D01*
X-6970Y-28730D01*
X-20857Y-19350D02*
X-13825D01*
X-11800Y-21375D01*
X-30150Y-9850D02*
X-29325D01*
X-29325Y-9850D01*
X-20875Y-18450D02*
Y-18025D01*
Y-18450D02*
X-20375Y-18950D01*
X-13275D01*
X-10875Y-21350D01*
Y-24025D02*
Y-21350D01*
X-27250Y-11650D02*
X-20875Y-18025D01*
X-29484Y-11650D02*
X-27250D01*
X-23151Y-28899D02*
Y-26274D01*
X-14500Y-58325D02*
Y-44525D01*
X-13051Y-60253D02*
Y-41976D01*
X-13050Y-41975D01*
X-26025Y-34325D02*
X-23150D01*
X-26900Y-35200D02*
X-26025Y-34325D01*
X-16800Y-38150D02*
Y-32400D01*
X-12650Y-86500D02*
X-11800Y-85650D01*
X-23129Y-33300D02*
X-22927Y-33502D01*
X-22451D01*
X-28175Y-33975D02*
X-27950Y-34200D01*
X-27100D01*
X-29175Y-47950D02*
Y-40150D01*
X-28350Y-50380D02*
Y-42500D01*
Y-36151D01*
X-30010Y-51015D02*
X-30010Y-51025D01*
X-30020Y-41470D02*
X-30010Y-51015D01*
X-27464Y-47140D02*
Y-40900D01*
X-18125Y-28890D02*
X-9360D01*
X-9350Y-28880D01*
Y-26460D02*
X-3860D01*
X-3160Y-25760D01*
Y-23010D01*
X-18130Y-44525D02*
Y-28890D01*
X-17570Y-34850D02*
Y-30760D01*
X-17560Y-30750D01*
X-17400Y-25530D02*
X-5210D01*
X-4430Y-24750D01*
Y-23010D01*
X-23875Y-41975D02*
Y-34850D01*
X-19390Y-28620D02*
X-18930Y-28160D01*
X-16220D01*
X-41920Y-40900D02*
X-35836D01*
X-56800Y-65350D02*
Y-54075D01*
X-20250Y-78730D02*
X-19180D01*
X-19050Y-78600D01*
X-17620Y-78730D02*
X-16540D01*
X-17750Y-78600D02*
X-17620Y-78730D01*
X-9180Y-82070D02*
Y-60910D01*
X-9170Y-60900D01*
X-9180Y-88200D02*
Y-82070D01*
X-10375Y-76990D02*
Y-41450D01*
X-13120Y-74890D02*
Y-70620D01*
X-13630Y-75400D02*
X-13120Y-74890D01*
X-15309Y-75400D02*
X-13630D01*
X-44190Y-30480D02*
X-43640D01*
X-20830Y-29380D02*
Y-28810D01*
X-38530Y-28926D02*
X-37796Y-29660D01*
X-38745Y-29445D02*
X-38100Y-30090D01*
X-21540D01*
X-20830Y-29380D01*
X-27350Y-26490D02*
Y-24400D01*
Y-26490D02*
X-25850Y-27990D01*
Y-28875D02*
Y-27990D01*
X-27631Y-26839D02*
Y-23346D01*
Y-26839D02*
X-27100Y-27370D01*
Y-28900D02*
Y-27370D01*
X-37796Y-29660D02*
X-24470D01*
X-23825Y-29015D01*
Y-27200D01*
X-43640Y-30480D02*
X-42605Y-29445D01*
X-38745D01*
X-32440Y-65350D02*
X-28342D01*
X-28316Y-65324D01*
X-32320Y-68727D02*
X-28273D01*
X-27800Y-69200D01*
X-26840D01*
X-19790Y-66150D02*
X-17850D01*
X-16099Y-64399D01*
X-12700D01*
X-19790Y-65350D02*
X-18550D01*
X-17100Y-63900D01*
X-11800D01*
X-19790Y-64550D02*
X-18650D01*
X-17205Y-63105D01*
X-11790D01*
X-19790Y-62150D02*
Y-61750D01*
X-18974Y-60934D01*
X-19790Y-62950D02*
X-18750D01*
X-17350Y-61550D01*
X-14090D01*
X-13435Y-60895D01*
X-11850D01*
X-21240Y-69200D02*
X-19750D01*
X-19395Y-69555D01*
X-12510D01*
X-22040Y-70160D02*
Y-69200D01*
Y-70160D02*
X-21750Y-70450D01*
X-14650D01*
X-14450Y-70650D01*
X-13150D01*
X-13120Y-70620D01*
X-19790Y-66950D02*
X-18100D01*
X-18100Y-66950D01*
X-19790Y-67750D02*
X-18400D01*
X-18050Y-68100D01*
X-12868Y-14007D02*
Y-11722D01*
X-18121Y-10471D02*
X-18082Y-10432D01*
Y-12729D02*
Y-10432D01*
X-18087Y-12734D02*
X-18082Y-12729D01*
D40*
X-18110Y-74300D02*
X-17160D01*
X-41575Y-17270D02*
X-40000Y-15695D01*
Y-13275D01*
X-39112Y-12387D01*
Y-11332D01*
X-38730Y-10950D01*
D41*
X-11798Y-62228D02*
X-11790Y-62220D01*
X-29250Y-19725D02*
X-27290Y-17765D01*
Y-14360D01*
X-26790D01*
X-29250Y-21900D02*
Y-19725D01*
X-23125Y-10675D02*
Y-9825D01*
X-23100Y-9800D01*
X-31000Y-9700D02*
Y-7650D01*
X-31150Y-9850D02*
X-31000Y-9700D01*
X-15625Y-24025D02*
Y-21925D01*
X-22567Y-20800D02*
X-16750D01*
X-15625Y-21925D01*
X-23100Y-9800D02*
X-22060D01*
X-22060Y-9800D01*
X-23650Y-13324D02*
Y-12290D01*
X-21490Y-9700D02*
X-20975D01*
X-21590Y-9800D02*
X-21490Y-9700D01*
X-22060Y-9800D02*
X-21590D01*
X-19790Y-63750D02*
X-18655D01*
X-17133Y-62228D01*
X-11798D01*
X-16900Y-66950D02*
X-13584D01*
X-16850Y-68100D02*
X-15299D01*
X-15164Y-68235D01*
X-23650Y-12290D02*
X-23245Y-11885D01*
Y-10725D01*
D42*
X-25425Y-12400D02*
X-24600D01*
X-26850Y-10975D02*
X-25425Y-12400D01*
X-37225Y-10725D02*
X-36325Y-9825D01*
X-37225Y-12100D02*
Y-10725D01*
X-38325Y-13225D02*
X-37213Y-12112D01*
X-38325Y-15671D02*
Y-13225D01*
Y-15671D02*
X-36696Y-17300D01*
X-37225Y-12100D02*
X-37213Y-12112D01*
X-36325Y-9825D02*
X-34150D01*
X-33000Y-10975D01*
X-26850D01*
D43*
X-57650Y-97650D02*
D03*
X-2350D02*
D03*
X-57650Y-2350D02*
D03*
X-2350D02*
D03*
D44*
X-42900Y-77380D02*
D03*
X-40360D02*
D03*
X-35280D02*
D03*
X-37820D02*
D03*
X-47980D02*
D03*
X-45440D02*
D03*
X-50520D02*
D03*
X-53060D02*
D03*
X-18570Y-93030D02*
D03*
X-58140Y-45630D02*
D03*
X-48005Y-83735D02*
D03*
X-42925Y-54525D02*
D03*
X-40385D02*
D03*
X-35305D02*
D03*
X-37845D02*
D03*
X-48005D02*
D03*
X-45465D02*
D03*
X-50545D02*
D03*
X-53085D02*
D03*
X-38730Y-10950D02*
D03*
X-41270D02*
D03*
D45*
X-36696Y-19840D02*
D03*
X-6970Y-28730D02*
D03*
X-27339Y-75075D02*
D03*
X-41776Y-19840D02*
D03*
X-6970Y-13490D02*
D03*
Y-64290D02*
D03*
D46*
X-36696Y-17300D02*
D03*
Y-14760D02*
D03*
X-28730Y-95570D02*
D03*
X-18570D02*
D03*
X-21110D02*
D03*
Y-93030D02*
D03*
X-23650Y-95570D02*
D03*
Y-93030D02*
D03*
X-26190Y-95570D02*
D03*
Y-93030D02*
D03*
X-28730D02*
D03*
X-41430D02*
D03*
X-38890D02*
D03*
Y-95570D02*
D03*
X-36350Y-93030D02*
D03*
Y-95570D02*
D03*
X-33810Y-93030D02*
D03*
Y-95570D02*
D03*
X-31270D02*
D03*
Y-93030D02*
D03*
X-41430Y-95570D02*
D03*
X-4430Y-38890D02*
D03*
Y-28730D02*
D03*
Y-31270D02*
D03*
X-6970D02*
D03*
X-4430Y-33810D02*
D03*
X-6970D02*
D03*
X-4430Y-36350D02*
D03*
X-6970D02*
D03*
Y-38890D02*
D03*
Y-51590D02*
D03*
Y-49050D02*
D03*
X-4430D02*
D03*
X-6970Y-46510D02*
D03*
X-4430D02*
D03*
X-6970Y-43970D02*
D03*
X-4430D02*
D03*
Y-41430D02*
D03*
X-6970D02*
D03*
X-4430Y-51590D02*
D03*
X-47980Y-45630D02*
D03*
Y-48170D02*
D03*
X-50520Y-45630D02*
D03*
Y-48170D02*
D03*
X-53060Y-45630D02*
D03*
Y-48170D02*
D03*
X-55600Y-45630D02*
D03*
Y-48170D02*
D03*
X-58140D02*
D03*
X-45440D02*
D03*
X-42900D02*
D03*
Y-45630D02*
D03*
X-40360Y-48170D02*
D03*
Y-45630D02*
D03*
X-37820Y-48170D02*
D03*
Y-45630D02*
D03*
X-35280Y-48170D02*
D03*
Y-45630D02*
D03*
X-45440D02*
D03*
X-35305Y-83735D02*
D03*
Y-86275D02*
D03*
X-48005D02*
D03*
X-45465D02*
D03*
Y-83735D02*
D03*
X-42925Y-86275D02*
D03*
Y-83735D02*
D03*
X-40385Y-86275D02*
D03*
Y-83735D02*
D03*
X-37845Y-86275D02*
D03*
X-37845Y-83735D02*
D03*
X-27339Y-72535D02*
D03*
X-41776Y-17300D02*
D03*
Y-14760D02*
D03*
X-4430Y-13490D02*
D03*
Y-16030D02*
D03*
X-6970D02*
D03*
X-4430Y-74450D02*
D03*
Y-64290D02*
D03*
Y-66830D02*
D03*
X-6970D02*
D03*
X-4430Y-69370D02*
D03*
X-6970D02*
D03*
X-4430Y-71910D02*
D03*
X-6970D02*
D03*
Y-74450D02*
D03*
Y-87150D02*
D03*
Y-84610D02*
D03*
X-4430D02*
D03*
X-6970Y-82070D02*
D03*
X-4430D02*
D03*
X-6970Y-79530D02*
D03*
X-4430D02*
D03*
Y-76990D02*
D03*
X-6970D02*
D03*
X-4430Y-87150D02*
D03*
D47*
X-18102Y-4742D02*
D03*
X-50950Y-4750D02*
D03*
D48*
X-13098Y-4742D02*
D03*
X-45946Y-4750D02*
D03*
D49*
X-12095Y-2050D02*
D03*
X-19105D02*
D03*
X-44943Y-2058D02*
D03*
X-51953D02*
D03*
D50*
X-3160Y-21740D02*
D03*
X-4430D02*
D03*
X-5700D02*
D03*
X-6970D02*
D03*
Y-23010D02*
D03*
X-5700D02*
D03*
X-4430D02*
D03*
X-3160D02*
D03*
X-8240D02*
D03*
Y-21740D02*
D03*
D51*
X-50530Y-66150D02*
D03*
X-45940Y-6190D02*
D03*
X-47150Y-9330D02*
D03*
X-16900Y-7400D02*
D03*
X-14300Y-9460D02*
D03*
X-19600Y-18200D02*
D03*
X-19080Y-17000D02*
D03*
X-13100Y-22150D02*
D03*
X-15400Y-18350D02*
D03*
X-19990Y-47150D02*
D03*
Y-52090D02*
D03*
X-22370D02*
D03*
X-24440Y-47950D02*
D03*
X-29340Y-81770D02*
D03*
X-51790Y-52490D02*
D03*
X-49230Y-50380D02*
D03*
X-55540Y-57360D02*
D03*
X-44700Y-50970D02*
D03*
X-54330Y-43880D02*
D03*
X-50490Y-51610D02*
D03*
X-25700Y-51600D02*
D03*
X-34505Y-66935D02*
D03*
X-32430D02*
D03*
X-31320Y-66150D02*
D03*
X-32480Y-63750D02*
D03*
X-31330Y-62950D02*
D03*
X-26800Y-63725D02*
D03*
X-42890Y-50380D02*
D03*
X-42920Y-62920D02*
D03*
X-23030Y-51080D02*
D03*
X-24440Y-62790D02*
D03*
X-53950Y-49800D02*
D03*
X-25950Y-62790D02*
D03*
X-34590Y-42590D02*
D03*
X-42150D02*
D03*
X-32070Y-79510D02*
D03*
X-40370Y-80770D02*
D03*
X-48000Y-43180D02*
D03*
X-40360Y-51030D02*
D03*
Y-61680D02*
D03*
X-19400Y-35725D02*
D03*
X-11790Y-63105D02*
D03*
Y-62220D02*
D03*
X-56803Y-65350D02*
D03*
X-18625Y-17925D02*
D03*
X-29180Y-47950D02*
D03*
X-27464Y-40900D02*
D03*
X-27460Y-47140D02*
D03*
X-32320Y-68727D02*
D03*
X-17750Y-76990D02*
D03*
X-19050Y-75710D02*
D03*
X-31320Y-64550D02*
D03*
X-32440Y-65350D02*
D03*
X-32487Y-61680D02*
D03*
X-24440Y-67500D02*
D03*
X-22750Y-1720D02*
D03*
X-36040Y-2150D02*
D03*
X-32810Y-26610D02*
D03*
X-30790Y-17020D02*
D03*
X-33170Y-14230D02*
D03*
X-49890Y-18540D02*
D03*
X-52750Y-32799D02*
D03*
X-20830Y-28810D02*
D03*
X-38250Y-31970D02*
D03*
X-42635Y-39540D02*
D03*
X-53740Y-35050D02*
D03*
X-56760Y-14400D02*
D03*
X-28650Y-5700D02*
D03*
X-28850Y-2178D02*
D03*
X-12780Y-40155D02*
D03*
X-30020Y-41470D02*
D03*
X-6800Y-9625D02*
D03*
X-18125Y-22000D02*
D03*
X-50750Y-13640D02*
D03*
X-10390Y-76990D02*
D03*
X-26790Y-14360D02*
D03*
X-25160Y-8970D02*
D03*
X-29175Y-40150D02*
D03*
X-27100Y-34200D02*
D03*
X-25845Y-28900D02*
D03*
X-27100Y-28900D02*
D03*
X-28350Y-42500D02*
D03*
Y-36151D02*
D03*
X-26800Y-52400D02*
D03*
Y-36350D02*
D03*
X-13575Y-39500D02*
D03*
X-33345Y-39500D02*
D03*
X-28350Y-28500D02*
D03*
X-36675Y-24279D02*
D03*
X-44550Y-34950D02*
D03*
X-29608Y-35750D02*
D03*
X-29600Y-28900D02*
D03*
X-30855Y-36151D02*
D03*
X-30850Y-28500D02*
D03*
X-32095Y-28906D02*
D03*
X-12525Y-54950D02*
D03*
Y-46300D02*
D03*
X-44025Y-34275D02*
D03*
X-43725Y-26675D02*
D03*
X-45275Y-34275D02*
D03*
X-39700Y-25600D02*
D03*
X-33925Y-24850D02*
D03*
X-47134Y-31850D02*
D03*
X-44200Y-20225D02*
D03*
X-47725Y-30250D02*
D03*
X-14505Y-69550D02*
D03*
X-38400Y-24280D02*
D03*
X-22954Y-49800D02*
D03*
X-50530Y-65335D02*
D03*
X-53050Y-63745D02*
D03*
X-17375Y-24250D02*
D03*
X-25175Y-24710D02*
D03*
X-18180Y-24950D02*
D03*
X-31500Y-21450D02*
D03*
X-25650Y-27200D02*
D03*
X-32540Y-9250D02*
D03*
X-33450Y-2680D02*
D03*
X-11800Y-32400D02*
D03*
X-32010Y-2150D02*
D03*
X-45813Y-90283D02*
D03*
X-19247Y-73935D02*
D03*
X-46175Y-34975D02*
D03*
X-51325Y-28450D02*
D03*
X-50550Y-38600D02*
D03*
X-50050Y-24025D02*
D03*
X-43800Y-31850D02*
D03*
Y-32650D02*
D03*
Y-33450D02*
D03*
X-27300Y-13700D02*
D03*
X-21100Y-21425D02*
D03*
X-26035Y-24545D02*
D03*
X-13290Y-6500D02*
D03*
X-52025Y-15975D02*
D03*
X-51650Y-26250D02*
D03*
X-55550Y-17925D02*
D03*
X-23418Y-16783D02*
D03*
X-27950Y-16175D02*
D03*
X-7941Y-8675D02*
D03*
X-29330Y-21950D02*
D03*
X-20150Y-81750D02*
D03*
X-24600Y-12400D02*
D03*
X-21450Y-12400D02*
D03*
X-13075Y-32400D02*
D03*
X-11875Y-9575D02*
D03*
X-31950Y-5170D02*
D03*
X-29200Y-12310D02*
D03*
X-49730Y-6170D02*
D03*
X-52150Y-39400D02*
D03*
X-52850D02*
D03*
X-38400Y-27450D02*
D03*
X-42750Y-26675D02*
D03*
X-46350D02*
D03*
X-49950D02*
D03*
X-38450Y-34650D02*
D03*
Y-35750D02*
D03*
X-51325Y-40900D02*
D03*
X-17160Y-74300D02*
D03*
X-19830Y-54925D02*
D03*
X-19830Y-54040D02*
D03*
X-19980Y-27801D02*
D03*
X-33450Y-21825D02*
D03*
X-22150Y-15100D02*
D03*
X-26750D02*
D03*
X-28183Y-14275D02*
D03*
X-43746Y-21825D02*
D03*
X-47300D02*
D03*
X-50125Y-21100D02*
D03*
X-56500Y-21850D02*
D03*
X-56850Y-31650D02*
D03*
X-51625Y-22550D02*
D03*
X-58073Y-14250D02*
D03*
X-55550Y-11465D02*
D03*
X-55040Y-14670D02*
D03*
X-31600Y-22375D02*
D03*
X-39000Y-22675D02*
D03*
X-22750Y-2825D02*
D03*
X-21850Y-8200D02*
D03*
X-24750Y-5150D02*
D03*
X-21654Y-43996D02*
D03*
X-20904Y-45210D02*
D03*
X-22304Y-43200D02*
D03*
X-34591Y-35750D02*
D03*
X-48950Y-33450D02*
D03*
X-47675Y-42325D02*
D03*
X-47650Y-40400D02*
D03*
X-38600Y-8900D02*
D03*
X-14350Y-32400D02*
D03*
X-16400Y-40150D02*
D03*
X-14354Y-35050D02*
D03*
X-35836Y-40900D02*
D03*
X-15625Y-34500D02*
D03*
Y-32400D02*
D03*
Y-43200D02*
D03*
X-15100Y-53900D02*
D03*
X-18500Y-83200D02*
D03*
X-20150Y-84400D02*
D03*
X-17750Y-85550D02*
D03*
X-9180Y-82070D02*
D03*
X-8560Y-63100D02*
D03*
X-9200Y-49000D02*
D03*
X-10950Y-31270D02*
D03*
X-11800Y-63900D02*
D03*
X-9700Y-63900D02*
D03*
X-9700Y-32651D02*
D03*
X-35825Y-36150D02*
D03*
X-37075Y-35750D02*
D03*
Y-40155D02*
D03*
X-9650Y-10540D02*
D03*
X-1200Y-7950D02*
D03*
X-3900Y-6850D02*
D03*
X-5200Y-10400D02*
D03*
X-25200Y-12400D02*
D03*
X-20850Y-12400D02*
D03*
X-32910Y-78325D02*
D03*
X-33350Y-36151D02*
D03*
X-32095Y-35750D02*
D03*
X-12650Y-86500D02*
D03*
X-22950Y-36925D02*
D03*
X-14350D02*
D03*
X-10375Y-41450D02*
D03*
X-9190Y-88200D02*
D03*
X-42525Y-89950D02*
D03*
X-16375Y-59350D02*
D03*
X-17525Y-51365D02*
D03*
Y-38890D02*
D03*
X-18750Y-51765D02*
D03*
X-11850Y-60895D02*
D03*
X-950Y-11100D02*
D03*
X-11800Y-24025D02*
D03*
X-13075D02*
D03*
X-14350Y-24025D02*
D03*
X-22947Y-14372D02*
D03*
X-17925Y-16425D02*
D03*
X-15835Y-17010D02*
D03*
X-21450Y-13375D02*
D03*
X-11800Y-53875D02*
D03*
X-15100Y-59375D02*
D03*
X-18750Y-37550D02*
D03*
X-25700Y-35725D02*
D03*
X-10250Y-30075D02*
D03*
Y-35725D02*
D03*
X-15625Y-24025D02*
D03*
X-19032Y-27625D02*
D03*
X-15900Y-20700D02*
D03*
X-29325Y-9850D02*
D03*
X-10875Y-24025D02*
D03*
X-29484Y-11650D02*
D03*
X-1900Y-11900D02*
D03*
X-23825Y-27200D02*
D03*
X-23151Y-28899D02*
D03*
X-25845Y-32440D02*
D03*
X-22451Y-33502D02*
D03*
X-21950Y-34330D02*
D03*
X-21400Y-32755D02*
D03*
X-14500Y-58325D02*
D03*
Y-44525D02*
D03*
X-18130D02*
D03*
X-18125Y-28890D02*
D03*
X-13051Y-60253D02*
D03*
X-13050Y-41975D02*
D03*
X-23850D02*
D03*
X-23150Y-34325D02*
D03*
X-23875Y-34850D02*
D03*
X-16800Y-32400D02*
D03*
Y-38150D02*
D03*
X-8700D02*
D03*
X-38530Y-28920D02*
D03*
X-40000Y-2409D02*
D03*
X-30010Y-51015D02*
D03*
X-28360Y-50380D02*
D03*
X-30020Y-43180D02*
D03*
X-9200Y-15320D02*
D03*
X-8950Y-10540D02*
D03*
X-10220Y-12500D02*
D03*
X-13700Y-10860D02*
D03*
X-55630Y-13365D02*
D03*
X-9350Y-28880D02*
D03*
Y-26460D02*
D03*
X-17570Y-34850D02*
D03*
X-17560Y-30750D02*
D03*
X-17400Y-25530D02*
D03*
X-40190Y-30780D02*
D03*
X-19390D02*
D03*
Y-28620D02*
D03*
X-16220Y-28160D02*
D03*
X-56800Y-54075D02*
D03*
X-15600Y-80180D02*
D03*
X-21240D02*
D03*
X-9170Y-60900D02*
D03*
X-18110Y-74300D02*
D03*
X-13120Y-70620D02*
D03*
X-44190Y-30480D02*
D03*
X-26050Y-66927D02*
D03*
X-32600Y-2680D02*
D03*
X-24940Y-11410D02*
D03*
X-12868Y-11722D02*
D03*
X-12866Y-14007D02*
D03*
X-18087Y-12734D02*
D03*
X-18082Y-10432D02*
D03*
X-25852Y-55118D02*
D03*
Y-56537D02*
D03*
X-12627Y-68988D02*
D03*
X-12848Y-15015D02*
D03*
X-26725Y-7350D02*
D03*
Y-8150D02*
D03*
D52*
X-14980Y-8880D02*
D03*
X-15530D02*
D03*
X-25025Y-22725D02*
D03*
Y-22075D02*
D03*
X-25675Y-22075D02*
D03*
X-23725Y-22075D02*
D03*
X-24775Y-24175D02*
D03*
X-26325Y-20125D02*
D03*
X-25675D02*
D03*
X-23075Y-21425D02*
D03*
X-25025Y-20775D02*
D03*
Y-19475D02*
D03*
X-23725Y-18825D02*
D03*
X-23525Y-17370D02*
D03*
X-25675Y-18175D02*
D03*
X-25025D02*
D03*
X-23725D02*
D03*
X-23075Y-18825D02*
D03*
X-26350Y-22700D02*
D03*
X-25025Y-20125D02*
D03*
Y-21425D02*
D03*
X-26975Y-18825D02*
D03*
X-15550Y-5775D02*
D03*
X-15000D02*
D03*
X-48398Y-5960D02*
D03*
X-47848D02*
D03*
D53*
X-33240Y-49000D02*
D03*
Y-42596D02*
D03*
X-49230Y-67760D02*
D03*
X-31950Y-6640D02*
D03*
X-33500Y-9250D02*
D03*
M02*
