G04 Layer_Color=8388736*
%FSLAX43Y43*%
%MOMM*%
G71*
G01*
G75*
%ADD51C,0.550*%
%ADD106R,1.950X0.850*%
%ADD107R,0.750X0.900*%
%ADD108R,0.900X0.750*%
%ADD109R,0.600X0.700*%
%ADD110R,0.700X1.000*%
%ADD111R,0.750X0.600*%
%ADD112R,1.000X0.700*%
%ADD113R,0.800X0.800*%
%ADD114R,0.800X0.800*%
%ADD115R,0.862X0.862*%
%ADD116R,0.650X0.700*%
%ADD117R,0.600X0.750*%
%ADD118R,1.100X2.350*%
%ADD119R,1.300X1.300*%
%ADD120R,1.300X1.300*%
G04:AMPARAMS|DCode=121|XSize=1.599mm|YSize=1.675mm|CornerRadius=0.275mm|HoleSize=0mm|Usage=FLASHONLY|Rotation=180.000|XOffset=0mm|YOffset=0mm|HoleType=Round|Shape=RoundedRectangle|*
%AMROUNDEDRECTD121*
21,1,1.599,1.125,0,0,180.0*
21,1,1.049,1.675,0,0,180.0*
1,1,0.550,-0.525,0.563*
1,1,0.550,0.525,0.563*
1,1,0.550,0.525,-0.563*
1,1,0.550,-0.525,-0.563*
%
%ADD121ROUNDEDRECTD121*%
G04:AMPARAMS|DCode=122|XSize=0.559mm|YSize=1.499mm|CornerRadius=0.178mm|HoleSize=0mm|Usage=FLASHONLY|Rotation=180.000|XOffset=0mm|YOffset=0mm|HoleType=Round|Shape=RoundedRectangle|*
%AMROUNDEDRECTD122*
21,1,0.559,1.143,0,0,180.0*
21,1,0.203,1.499,0,0,180.0*
1,1,0.356,-0.102,0.572*
1,1,0.356,0.102,0.572*
1,1,0.356,0.102,-0.572*
1,1,0.356,-0.102,-0.572*
%
%ADD122ROUNDEDRECTD122*%
%ADD123R,0.700X0.650*%
%ADD124R,0.862X0.862*%
%ADD125R,1.400X3.500*%
%ADD126R,1.750X1.550*%
%ADD127R,0.450X0.850*%
%ADD128O,0.600X1.700*%
%ADD129O,1.700X0.600*%
%ADD130R,1.400X1.700*%
%ADD131R,1.650X1.100*%
%ADD132C,3.700*%
%ADD133R,1.800X1.800*%
%ADD134R,1.800X1.800*%
%ADD135C,1.800*%
%ADD136O,1.350X1.050*%
G04:AMPARAMS|DCode=137|XSize=1.35mm|YSize=1.05mm|CornerRadius=0.525mm|HoleSize=0mm|Usage=FLASHONLY|Rotation=180.000|XOffset=0mm|YOffset=0mm|HoleType=Round|Shape=RoundedRectangle|*
%AMROUNDEDRECTD137*
21,1,1.350,0.000,0,0,180.0*
21,1,0.300,1.050,0,0,180.0*
1,1,1.050,-0.150,0.000*
1,1,1.050,0.150,0.000*
1,1,1.050,0.150,0.000*
1,1,1.050,-0.150,0.000*
%
%ADD137ROUNDEDRECTD137*%
%ADD138O,1.000X1.650*%
%ADD139C,0.950*%
D51*
X-26725Y-7350D02*
D03*
Y-8150D02*
D03*
D106*
X-18500Y-84650D02*
D03*
X-18500Y-81750D02*
D03*
D107*
X-23010Y-56495D02*
D03*
Y-57695D02*
D03*
X-28520Y-53890D02*
D03*
Y-52690D02*
D03*
X-22060Y-10900D02*
D03*
Y-9700D02*
D03*
X-17750Y-78600D02*
D03*
Y-79800D02*
D03*
X-19050Y-78600D02*
D03*
Y-79800D02*
D03*
X-23010Y-53820D02*
D03*
Y-55020D02*
D03*
D108*
X-16850Y-66950D02*
D03*
X-18050D02*
D03*
X-16850Y-68100D02*
D03*
X-18050D02*
D03*
X-16509Y-75400D02*
D03*
X-15309D02*
D03*
X-16509Y-76575D02*
D03*
X-15309D02*
D03*
X-12150Y-65640D02*
D03*
X-13350D02*
D03*
X-22450Y-13375D02*
D03*
X-23650D02*
D03*
X-23280Y-9800D02*
D03*
X-24480D02*
D03*
D109*
X-16490Y-78730D02*
D03*
X-16490Y-79780D02*
D03*
X-20310Y-78730D02*
D03*
X-20310Y-79780D02*
D03*
D110*
X-28490Y-55236D02*
D03*
Y-56336D02*
D03*
X-28490Y-58831D02*
D03*
Y-57731D02*
D03*
X-23894Y-72325D02*
D03*
Y-71225D02*
D03*
X-20695Y-71270D02*
D03*
Y-72370D02*
D03*
X-24994Y-72325D02*
D03*
Y-71225D02*
D03*
X-20935Y-10850D02*
D03*
Y-9750D02*
D03*
D111*
X-12629Y-68235D02*
D03*
X-13579D02*
D03*
X-23245Y-10845D02*
D03*
X-24195D02*
D03*
X-12659Y-66915D02*
D03*
X-13609D02*
D03*
D112*
X-19240Y-58950D02*
D03*
X-20340D02*
D03*
D113*
X-17600Y-73000D02*
D03*
Y-71600D02*
D03*
D114*
X-18230Y-56490D02*
D03*
X-19630D02*
D03*
X-12525Y-7500D02*
D03*
X-11125D02*
D03*
D115*
X-18226Y-57745D02*
D03*
X-19622D02*
D03*
D116*
X-51830Y-6203D02*
D03*
Y-7203D02*
D03*
X-35675Y-12450D02*
D03*
Y-11450D02*
D03*
X-19005Y-6400D02*
D03*
Y-7400D02*
D03*
X-45525Y-7225D02*
D03*
Y-8225D02*
D03*
X-44650D02*
D03*
Y-7225D02*
D03*
D117*
X-50930Y-7178D02*
D03*
Y-6228D02*
D03*
X-18105Y-7375D02*
D03*
Y-6425D02*
D03*
X-12525Y-8625D02*
D03*
Y-9575D02*
D03*
X-11225Y-8625D02*
D03*
Y-9575D02*
D03*
X-20150Y-82675D02*
D03*
Y-83625D02*
D03*
D118*
X-31000Y-7650D02*
D03*
Y-2150D02*
D03*
X-35000D02*
D03*
Y-7650D02*
D03*
X-24000D02*
D03*
Y-2150D02*
D03*
X-28000D02*
D03*
Y-7650D02*
D03*
D119*
X-6500Y-3550D02*
D03*
Y-1450D02*
D03*
X-8750Y-3550D02*
D03*
Y-1450D02*
D03*
D120*
X-32050Y-12000D02*
D03*
X-34150D02*
D03*
D121*
X-12590Y-2050D02*
D03*
X-18610D02*
D03*
X-45438Y-2058D02*
D03*
X-51458D02*
D03*
D122*
X-14300Y-4742D02*
D03*
X-14950Y-4742D02*
D03*
X-16900Y-4742D02*
D03*
X-16250D02*
D03*
X-15600D02*
D03*
X-47148Y-4750D02*
D03*
X-47798Y-4750D02*
D03*
X-49748Y-4750D02*
D03*
X-49098D02*
D03*
X-48448D02*
D03*
D123*
X-30150Y-9850D02*
D03*
X-31150D02*
D03*
D124*
X-19247Y-71497D02*
D03*
Y-72894D02*
D03*
D125*
X-22330Y-75080D02*
D03*
X-24430D02*
D03*
D126*
X-18500Y-83200D02*
D03*
D127*
X-19250Y-84650D02*
D03*
X-18750D02*
D03*
X-18250D02*
D03*
X-17750D02*
D03*
Y-81750D02*
D03*
X-18250D02*
D03*
X-18750D02*
D03*
X-19250D02*
D03*
D128*
X-21240Y-69200D02*
D03*
X-22040D02*
D03*
X-22840D02*
D03*
X-23640D02*
D03*
X-24440D02*
D03*
X-25240D02*
D03*
X-26040D02*
D03*
X-26840D02*
D03*
X-26840Y-60700D02*
D03*
X-26040D02*
D03*
X-25240D02*
D03*
X-24440D02*
D03*
X-23640D02*
D03*
X-22840D02*
D03*
X-22040D02*
D03*
X-21240D02*
D03*
D129*
X-28290Y-67750D02*
D03*
Y-66950D02*
D03*
Y-66150D02*
D03*
Y-65350D02*
D03*
Y-64550D02*
D03*
Y-63750D02*
D03*
Y-62950D02*
D03*
Y-62150D02*
D03*
X-19790Y-62150D02*
D03*
Y-62950D02*
D03*
Y-63750D02*
D03*
Y-64550D02*
D03*
Y-65350D02*
D03*
Y-66150D02*
D03*
Y-66950D02*
D03*
Y-67750D02*
D03*
D130*
X-26990Y-53916D02*
D03*
Y-57716D02*
D03*
X-24690D02*
D03*
Y-53916D02*
D03*
D131*
X-15164Y-65635D02*
D03*
Y-68235D02*
D03*
D132*
X-57650Y-97650D02*
D03*
X-2350D02*
D03*
X-57650Y-2350D02*
D03*
X-2350D02*
D03*
D133*
X-42900Y-77380D02*
D03*
X-40360D02*
D03*
X-35280D02*
D03*
X-37820D02*
D03*
X-47980D02*
D03*
X-45440D02*
D03*
X-50520D02*
D03*
X-53060D02*
D03*
X-18570Y-93030D02*
D03*
X-58140Y-45630D02*
D03*
X-48005Y-83735D02*
D03*
X-42925Y-54525D02*
D03*
X-40385D02*
D03*
X-35305D02*
D03*
X-37845D02*
D03*
X-48005D02*
D03*
X-45465D02*
D03*
X-50545D02*
D03*
X-53085D02*
D03*
X-38730Y-10950D02*
D03*
X-41270D02*
D03*
D134*
X-36696Y-19840D02*
D03*
X-6970Y-28730D02*
D03*
X-27339Y-75075D02*
D03*
X-41776Y-19840D02*
D03*
X-6970Y-13490D02*
D03*
Y-64290D02*
D03*
D135*
X-36696Y-17300D02*
D03*
Y-14760D02*
D03*
X-28730Y-95570D02*
D03*
X-18570D02*
D03*
X-21110D02*
D03*
Y-93030D02*
D03*
X-23650Y-95570D02*
D03*
Y-93030D02*
D03*
X-26190Y-95570D02*
D03*
Y-93030D02*
D03*
X-28730D02*
D03*
X-41430D02*
D03*
X-38890D02*
D03*
Y-95570D02*
D03*
X-36350Y-93030D02*
D03*
Y-95570D02*
D03*
X-33810Y-93030D02*
D03*
Y-95570D02*
D03*
X-31270D02*
D03*
Y-93030D02*
D03*
X-41430Y-95570D02*
D03*
X-4430Y-38890D02*
D03*
Y-28730D02*
D03*
Y-31270D02*
D03*
X-6970D02*
D03*
X-4430Y-33810D02*
D03*
X-6970D02*
D03*
X-4430Y-36350D02*
D03*
X-6970D02*
D03*
Y-38890D02*
D03*
Y-51590D02*
D03*
Y-49050D02*
D03*
X-4430D02*
D03*
X-6970Y-46510D02*
D03*
X-4430D02*
D03*
X-6970Y-43970D02*
D03*
X-4430D02*
D03*
Y-41430D02*
D03*
X-6970D02*
D03*
X-4430Y-51590D02*
D03*
X-47980Y-45630D02*
D03*
Y-48170D02*
D03*
X-50520Y-45630D02*
D03*
Y-48170D02*
D03*
X-53060Y-45630D02*
D03*
Y-48170D02*
D03*
X-55600Y-45630D02*
D03*
Y-48170D02*
D03*
X-58140D02*
D03*
X-45440D02*
D03*
X-42900D02*
D03*
Y-45630D02*
D03*
X-40360Y-48170D02*
D03*
Y-45630D02*
D03*
X-37820Y-48170D02*
D03*
Y-45630D02*
D03*
X-35280Y-48170D02*
D03*
Y-45630D02*
D03*
X-45440D02*
D03*
X-35305Y-83735D02*
D03*
Y-86275D02*
D03*
X-48005D02*
D03*
X-45465D02*
D03*
Y-83735D02*
D03*
X-42925Y-86275D02*
D03*
Y-83735D02*
D03*
X-40385Y-86275D02*
D03*
Y-83735D02*
D03*
X-37845Y-86275D02*
D03*
X-37845Y-83735D02*
D03*
X-27339Y-72535D02*
D03*
X-41776Y-17300D02*
D03*
Y-14760D02*
D03*
X-4430Y-13490D02*
D03*
Y-16030D02*
D03*
X-6970D02*
D03*
X-4430Y-74450D02*
D03*
Y-64290D02*
D03*
Y-66830D02*
D03*
X-6970D02*
D03*
X-4430Y-69370D02*
D03*
X-6970D02*
D03*
X-4430Y-71910D02*
D03*
X-6970D02*
D03*
Y-74450D02*
D03*
Y-87150D02*
D03*
Y-84610D02*
D03*
X-4430D02*
D03*
X-6970Y-82070D02*
D03*
X-4430D02*
D03*
X-6970Y-79530D02*
D03*
X-4430D02*
D03*
Y-76990D02*
D03*
X-6970D02*
D03*
X-4430Y-87150D02*
D03*
D136*
X-18102Y-4742D02*
D03*
X-50950Y-4750D02*
D03*
D137*
X-13098Y-4742D02*
D03*
X-45946Y-4750D02*
D03*
D138*
X-12095Y-2050D02*
D03*
X-19105D02*
D03*
X-44943Y-2058D02*
D03*
X-51953D02*
D03*
D139*
X-3160Y-21740D02*
D03*
X-4430D02*
D03*
X-5700D02*
D03*
X-6970D02*
D03*
Y-23010D02*
D03*
X-5700D02*
D03*
X-4430D02*
D03*
X-3160D02*
D03*
X-8240D02*
D03*
Y-21740D02*
D03*
M02*
