G04 Layer_Physical_Order=2*
G04 Layer_Color=32768*
%FSLAX43Y43*%
%MOMM*%
G71*
G01*
G75*
%ADD42C,0.500*%
%ADD54C,1.600*%
G04:AMPARAMS|DCode=55|XSize=2.524mm|YSize=2.524mm|CornerRadius=0mm|HoleSize=0mm|Usage=FLASHONLY|Rotation=0.000|XOffset=0mm|YOffset=0mm|HoleType=Round|Shape=Relief|Width=0.254mm|Gap=0.254mm|Entries=4|*
%AMTHD55*
7,0,0,2.524,2.016,0.254,45*
%
%ADD55THD55*%
%ADD56C,1.620*%
G04:AMPARAMS|DCode=57|XSize=2.544mm|YSize=2.544mm|CornerRadius=0mm|HoleSize=0mm|Usage=FLASHONLY|Rotation=0.000|XOffset=0mm|YOffset=0mm|HoleType=Round|Shape=Relief|Width=0.254mm|Gap=0.254mm|Entries=4|*
%AMTHD57*
7,0,0,2.544,2.036,0.254,45*
%
%ADD57THD57*%
%ADD58O,1.450X1.150*%
%ADD59O,1.100X1.750*%
%ADD60C,1.250*%
G04:AMPARAMS|DCode=61|XSize=2.174mm|YSize=2.174mm|CornerRadius=0mm|HoleSize=0mm|Usage=FLASHONLY|Rotation=0.000|XOffset=0mm|YOffset=0mm|HoleType=Round|Shape=Relief|Width=0.254mm|Gap=0.254mm|Entries=4|*
%AMTHD61*
7,0,0,2.174,1.666,0.254,45*
%
%ADD61THD61*%
%ADD62C,0.850*%
%ADD63C,0.800*%
%ADD64C,0.879*%
G36*
X-43313Y-99783D02*
X-55313D01*
Y-87783D01*
X-43313D01*
Y-99783D01*
D02*
G37*
G36*
X-44416Y1139D02*
X-44277Y1081D01*
X-44152Y998D01*
X-44046Y892D01*
X-43963Y767D01*
X-43905Y628D01*
X-43876Y481D01*
Y406D01*
Y331D01*
X-43905Y184D01*
X-43963Y45D01*
X-44046Y-80D01*
X-44152Y-186D01*
X-44277Y-269D01*
X-44416Y-327D01*
X-44563Y-356D01*
X-52333D01*
X-52480Y-327D01*
X-52619Y-269D01*
X-52744Y-186D01*
X-52850Y-80D01*
X-52933Y45D01*
X-52991Y184D01*
X-53020Y331D01*
Y406D01*
Y481D01*
X-52991Y628D01*
X-52933Y767D01*
X-52850Y892D01*
X-52744Y998D01*
X-52619Y1081D01*
X-52480Y1139D01*
X-52333Y1168D01*
X-44563D01*
X-44416Y1139D01*
D02*
G37*
G36*
X-11568Y1147D02*
X-11429Y1089D01*
X-11304Y1006D01*
X-11198Y900D01*
X-11115Y775D01*
X-11057Y636D01*
X-11028Y489D01*
Y414D01*
Y339D01*
X-11057Y192D01*
X-11115Y53D01*
X-11198Y-72D01*
X-11304Y-178D01*
X-11429Y-261D01*
X-11568Y-319D01*
X-11715Y-348D01*
X-19485D01*
X-19632Y-319D01*
X-19771Y-261D01*
X-19896Y-178D01*
X-20002Y-72D01*
X-20085Y53D01*
X-20143Y192D01*
X-20172Y339D01*
Y414D01*
Y489D01*
X-20143Y636D01*
X-20085Y775D01*
X-20002Y900D01*
X-19896Y1006D01*
X-19771Y1089D01*
X-19632Y1147D01*
X-19485Y1176D01*
X-11715D01*
X-11568Y1147D01*
D02*
G37*
%LPC*%
G36*
X-45313Y-89783D02*
X-53313D01*
Y-97783D01*
X-45313D01*
Y-89783D01*
D02*
G37*
%LPD*%
D42*
X-60000Y-100000D02*
X0D01*
Y0D01*
X-9825D02*
X0D01*
X-20600Y-350D02*
X-10600D01*
X-60000Y-100000D02*
Y0D01*
X-54209Y-1D01*
X-54133Y-79D01*
X-53956Y-208D01*
X-53757Y-298D01*
X-53543Y-344D01*
X-53434Y-350D01*
X-43434D02*
X-43325Y-344D01*
X-43111Y-298D01*
X-42912Y-208D01*
X-42735Y-79D01*
X-42659Y0D01*
X-21375Y-1D01*
X-21299Y-79D01*
X-21122Y-208D01*
X-20923Y-298D01*
X-20709Y-344D01*
X-20600Y-350D01*
X-10600D02*
X-10491Y-344D01*
X-10277Y-298D01*
X-10078Y-208D01*
X-9901Y-79D01*
X-9825Y0D01*
X-53434Y-350D02*
X-52362D01*
X-52333Y-356D01*
X-44563D01*
X-44534Y-350D01*
X-43434D01*
D54*
X-42900Y-77380D02*
D03*
X-40360D02*
D03*
X-37820D02*
D03*
X-47980D02*
D03*
X-45440D02*
D03*
X-50520D02*
D03*
X-53060D02*
D03*
X-47980Y-45630D02*
D03*
Y-48170D02*
D03*
X-50520Y-45630D02*
D03*
Y-48170D02*
D03*
X-53060Y-45630D02*
D03*
Y-48170D02*
D03*
X-55600Y-45630D02*
D03*
Y-48170D02*
D03*
X-45440D02*
D03*
X-42900D02*
D03*
Y-45630D02*
D03*
X-37820Y-48170D02*
D03*
Y-45630D02*
D03*
X-35280Y-48170D02*
D03*
Y-45630D02*
D03*
X-45440D02*
D03*
X-48005Y-83735D02*
D03*
X-48005Y-86275D02*
D03*
X-45465D02*
D03*
Y-83735D02*
D03*
X-42925Y-86275D02*
D03*
Y-83735D02*
D03*
X-40385Y-86275D02*
D03*
Y-83735D02*
D03*
X-37845Y-86275D02*
D03*
X-37845Y-83735D02*
D03*
X-42925Y-54525D02*
D03*
X-40385D02*
D03*
X-37845D02*
D03*
X-48005D02*
D03*
X-45465D02*
D03*
X-50545D02*
D03*
X-53085D02*
D03*
D55*
X-35280Y-77380D02*
D03*
X-58140Y-48170D02*
D03*
Y-45630D02*
D03*
X-40360Y-48170D02*
D03*
Y-45630D02*
D03*
X-35305Y-83735D02*
D03*
Y-86275D02*
D03*
X-35305Y-54525D02*
D03*
D56*
X-36696Y-19840D02*
D03*
Y-17300D02*
D03*
Y-14760D02*
D03*
X-28730Y-95570D02*
D03*
X-21110D02*
D03*
Y-93030D02*
D03*
X-23650Y-95570D02*
D03*
Y-93030D02*
D03*
X-26190Y-95570D02*
D03*
Y-93030D02*
D03*
X-28730D02*
D03*
X-38890D02*
D03*
Y-95570D02*
D03*
X-36350Y-93030D02*
D03*
Y-95570D02*
D03*
X-33810Y-93030D02*
D03*
Y-95570D02*
D03*
X-31270D02*
D03*
Y-93030D02*
D03*
X-41430Y-95570D02*
D03*
X-18570Y-93030D02*
D03*
X-4430Y-38890D02*
D03*
Y-31270D02*
D03*
X-6970D02*
D03*
X-4430Y-33810D02*
D03*
X-6970D02*
D03*
X-4430Y-36350D02*
D03*
X-6970D02*
D03*
Y-38890D02*
D03*
Y-49050D02*
D03*
X-4430D02*
D03*
X-6970Y-46510D02*
D03*
X-4430D02*
D03*
X-6970Y-43970D02*
D03*
X-4430D02*
D03*
Y-41430D02*
D03*
X-6970D02*
D03*
X-4430Y-51590D02*
D03*
X-6970Y-28730D02*
D03*
X-38730Y-10950D02*
D03*
X-41270D02*
D03*
X-27339Y-72535D02*
D03*
Y-75075D02*
D03*
X-41776Y-19840D02*
D03*
Y-17300D02*
D03*
Y-14760D02*
D03*
X-4430Y-16030D02*
D03*
X-6970D02*
D03*
Y-13490D02*
D03*
X-4430Y-74450D02*
D03*
Y-66830D02*
D03*
X-6970D02*
D03*
X-4430Y-69370D02*
D03*
X-6970D02*
D03*
X-4430Y-71910D02*
D03*
X-6970D02*
D03*
Y-74450D02*
D03*
Y-84610D02*
D03*
X-4430D02*
D03*
X-6970Y-82070D02*
D03*
X-4430D02*
D03*
X-6970Y-79530D02*
D03*
X-4430D02*
D03*
Y-76990D02*
D03*
X-6970D02*
D03*
X-4430Y-87150D02*
D03*
X-6970Y-64290D02*
D03*
D57*
X-18570Y-95570D02*
D03*
X-41430Y-93030D02*
D03*
X-4430Y-28730D02*
D03*
X-6970Y-51590D02*
D03*
X-4430Y-13490D02*
D03*
Y-64290D02*
D03*
X-6970Y-87150D02*
D03*
D58*
X-18102Y-4742D02*
D03*
X-13098D02*
D03*
X-50950Y-4750D02*
D03*
X-45946D02*
D03*
D59*
X-12095Y-2050D02*
D03*
X-19105D02*
D03*
X-44943Y-2058D02*
D03*
X-51953D02*
D03*
D60*
X-3160Y-21740D02*
D03*
X-6970D02*
D03*
Y-23010D02*
D03*
X-5700D02*
D03*
X-4430D02*
D03*
X-3160D02*
D03*
X-8240D02*
D03*
D61*
X-4430Y-21740D02*
D03*
X-5700D02*
D03*
X-8240D02*
D03*
D62*
X-50530Y-66150D02*
D03*
X-47150Y-9330D02*
D03*
X-14300Y-9460D02*
D03*
X-19600Y-18200D02*
D03*
X-19080Y-17000D02*
D03*
X-19990Y-47150D02*
D03*
Y-52090D02*
D03*
X-22370D02*
D03*
X-24440Y-47950D02*
D03*
X-29340Y-81770D02*
D03*
X-51790Y-52490D02*
D03*
X-49230Y-50380D02*
D03*
X-55540Y-57360D02*
D03*
X-44700Y-50970D02*
D03*
X-54330Y-43880D02*
D03*
X-50490Y-51610D02*
D03*
X-25700Y-51600D02*
D03*
X-34505Y-66935D02*
D03*
X-32430D02*
D03*
X-31320Y-66150D02*
D03*
X-32480Y-63750D02*
D03*
X-31330Y-62950D02*
D03*
X-26800Y-63725D02*
D03*
X-42890Y-50380D02*
D03*
X-42920Y-62920D02*
D03*
X-23030Y-51080D02*
D03*
X-24440Y-62790D02*
D03*
X-53950Y-49800D02*
D03*
X-25950Y-62790D02*
D03*
X-34590Y-42590D02*
D03*
X-42150D02*
D03*
X-32070Y-79510D02*
D03*
X-40370Y-80770D02*
D03*
X-48000Y-43180D02*
D03*
X-40360Y-51030D02*
D03*
Y-61680D02*
D03*
X-19400Y-35725D02*
D03*
X-11790Y-63105D02*
D03*
Y-62220D02*
D03*
X-56803Y-65350D02*
D03*
X-29180Y-47950D02*
D03*
X-27464Y-40900D02*
D03*
X-27460Y-47140D02*
D03*
X-32320Y-68727D02*
D03*
X-17750Y-76990D02*
D03*
X-19050Y-75710D02*
D03*
X-31320Y-64550D02*
D03*
X-32440Y-65350D02*
D03*
X-32487Y-61680D02*
D03*
X-22750Y-1720D02*
D03*
X-32810Y-26610D02*
D03*
X-30790Y-17020D02*
D03*
X-33170Y-14230D02*
D03*
X-52750Y-32799D02*
D03*
X-20830Y-28810D02*
D03*
X-12780Y-40155D02*
D03*
X-30020Y-41470D02*
D03*
X-6800Y-9625D02*
D03*
X-50750Y-13640D02*
D03*
X-10390Y-76990D02*
D03*
X-26790Y-14360D02*
D03*
X-25160Y-8970D02*
D03*
X-29175Y-40150D02*
D03*
X-27100Y-34200D02*
D03*
X-25845Y-28900D02*
D03*
X-27100Y-28900D02*
D03*
X-28350Y-42500D02*
D03*
Y-36151D02*
D03*
X-26800Y-52400D02*
D03*
Y-36350D02*
D03*
X-13575Y-39500D02*
D03*
X-33345Y-39500D02*
D03*
X-28350Y-28500D02*
D03*
X-36675Y-24279D02*
D03*
X-44550Y-34950D02*
D03*
X-29608Y-35750D02*
D03*
X-29600Y-28900D02*
D03*
X-30855Y-36151D02*
D03*
X-30850Y-28500D02*
D03*
X-32095Y-28906D02*
D03*
X-12525Y-54950D02*
D03*
Y-46300D02*
D03*
X-44025Y-34275D02*
D03*
X-43725Y-26675D02*
D03*
X-45275Y-34275D02*
D03*
X-39700Y-25600D02*
D03*
X-33925Y-24850D02*
D03*
X-47134Y-31850D02*
D03*
X-44200Y-20225D02*
D03*
X-47725Y-30250D02*
D03*
X-14505Y-69550D02*
D03*
X-38400Y-24280D02*
D03*
X-22954Y-49800D02*
D03*
X-50530Y-65335D02*
D03*
X-53050Y-63745D02*
D03*
X-17375Y-24250D02*
D03*
X-25175Y-24710D02*
D03*
X-18180Y-24950D02*
D03*
X-31500Y-21450D02*
D03*
X-32540Y-9250D02*
D03*
X-33450Y-2680D02*
D03*
X-11800Y-32400D02*
D03*
X-32010Y-2150D02*
D03*
X-46175Y-34975D02*
D03*
X-51325Y-28450D02*
D03*
X-50550Y-38600D02*
D03*
X-50050Y-24025D02*
D03*
X-43800Y-31850D02*
D03*
Y-32650D02*
D03*
Y-33450D02*
D03*
X-27300Y-13700D02*
D03*
X-21100Y-21425D02*
D03*
X-26035Y-24545D02*
D03*
X-23418Y-16783D02*
D03*
X-27950Y-16175D02*
D03*
X-7941Y-8675D02*
D03*
X-29330Y-21950D02*
D03*
X-20150Y-81750D02*
D03*
X-24600Y-12400D02*
D03*
X-21450Y-12400D02*
D03*
X-13075Y-32400D02*
D03*
X-52150Y-39400D02*
D03*
X-52850D02*
D03*
X-38400Y-27450D02*
D03*
X-42750Y-26675D02*
D03*
X-46350D02*
D03*
X-49950D02*
D03*
X-38450Y-34650D02*
D03*
X-51325Y-40900D02*
D03*
X-17160Y-74300D02*
D03*
X-19830Y-54925D02*
D03*
X-19830Y-54040D02*
D03*
X-19980Y-27801D02*
D03*
X-28183Y-14275D02*
D03*
X-51625Y-22550D02*
D03*
X-58073Y-14250D02*
D03*
X-55040Y-14670D02*
D03*
X-24750Y-5150D02*
D03*
X-21654Y-43996D02*
D03*
X-20904Y-45210D02*
D03*
X-22304Y-43200D02*
D03*
X-34591Y-35750D02*
D03*
X-48950Y-33450D02*
D03*
X-38600Y-8900D02*
D03*
X-14350Y-32400D02*
D03*
X-16400Y-40150D02*
D03*
X-14354Y-35050D02*
D03*
X-35836Y-40900D02*
D03*
X-15625Y-34500D02*
D03*
Y-32400D02*
D03*
Y-43200D02*
D03*
X-15100Y-53900D02*
D03*
X-9180Y-82070D02*
D03*
X-8560Y-63100D02*
D03*
X-9200Y-49000D02*
D03*
X-10950Y-31270D02*
D03*
X-11800Y-63900D02*
D03*
X-9700Y-63900D02*
D03*
X-9700Y-32651D02*
D03*
X-35825Y-36150D02*
D03*
X-37075Y-35750D02*
D03*
Y-40155D02*
D03*
X-9650Y-10540D02*
D03*
X-1200Y-7950D02*
D03*
X-5200Y-10400D02*
D03*
X-25200Y-12400D02*
D03*
X-20850Y-12400D02*
D03*
X-32910Y-78325D02*
D03*
X-33350Y-36151D02*
D03*
X-32095Y-35750D02*
D03*
X-12650Y-86500D02*
D03*
X-22950Y-36925D02*
D03*
X-14350D02*
D03*
X-10375Y-41450D02*
D03*
X-9190Y-88200D02*
D03*
X-42525Y-89950D02*
D03*
X-16375Y-59350D02*
D03*
X-17525Y-51365D02*
D03*
Y-38890D02*
D03*
X-18750Y-51765D02*
D03*
X-11850Y-60895D02*
D03*
X-11800Y-24025D02*
D03*
X-13075D02*
D03*
X-14350Y-24025D02*
D03*
X-22947Y-14372D02*
D03*
X-17925Y-16425D02*
D03*
X-15835Y-17010D02*
D03*
X-21450Y-13375D02*
D03*
X-11800Y-53875D02*
D03*
X-15100Y-59375D02*
D03*
X-18750Y-37550D02*
D03*
X-25700Y-35725D02*
D03*
X-10250Y-30075D02*
D03*
Y-35725D02*
D03*
X-15625Y-24025D02*
D03*
X-19032Y-27625D02*
D03*
X-29325Y-9850D02*
D03*
X-10875Y-24025D02*
D03*
X-29484Y-11650D02*
D03*
X-1900Y-11900D02*
D03*
X-23825Y-27200D02*
D03*
X-23151Y-28899D02*
D03*
X-25845Y-32440D02*
D03*
X-22451Y-33502D02*
D03*
X-21950Y-34330D02*
D03*
X-21400Y-32755D02*
D03*
X-14500Y-58325D02*
D03*
Y-44525D02*
D03*
X-18130D02*
D03*
X-18125Y-28890D02*
D03*
X-13051Y-60253D02*
D03*
X-13050Y-41975D02*
D03*
X-23850D02*
D03*
X-23150Y-34325D02*
D03*
X-23875Y-34850D02*
D03*
X-16800Y-32400D02*
D03*
Y-38150D02*
D03*
X-8700D02*
D03*
X-38530Y-28920D02*
D03*
X-30010Y-51015D02*
D03*
X-28360Y-50380D02*
D03*
X-30020Y-43180D02*
D03*
X-8950Y-10540D02*
D03*
X-10220Y-12500D02*
D03*
X-13700Y-10860D02*
D03*
X-55630Y-13365D02*
D03*
X-9350Y-28880D02*
D03*
Y-26460D02*
D03*
X-17570Y-34850D02*
D03*
X-17560Y-30750D02*
D03*
X-17400Y-25530D02*
D03*
X-40190Y-30780D02*
D03*
X-19390D02*
D03*
Y-28620D02*
D03*
X-16220Y-28160D02*
D03*
X-56800Y-54075D02*
D03*
X-15600Y-80180D02*
D03*
X-21240D02*
D03*
X-9170Y-60900D02*
D03*
X-18110Y-74300D02*
D03*
X-13120Y-70620D02*
D03*
X-44190Y-30480D02*
D03*
X-26050Y-66927D02*
D03*
X-32600Y-2680D02*
D03*
X-12868Y-11722D02*
D03*
X-12866Y-14007D02*
D03*
X-18087Y-12734D02*
D03*
X-18082Y-10432D02*
D03*
D63*
X-14980Y-8880D02*
D03*
X-15530D02*
D03*
X-25025Y-22725D02*
D03*
Y-22075D02*
D03*
X-25675Y-22075D02*
D03*
X-26325Y-20125D02*
D03*
X-25675D02*
D03*
X-23075Y-21425D02*
D03*
X-25025Y-19475D02*
D03*
X-23725Y-18825D02*
D03*
X-23525Y-17370D02*
D03*
X-25675Y-18175D02*
D03*
X-25025D02*
D03*
X-23725D02*
D03*
X-25025Y-20125D02*
D03*
Y-21425D02*
D03*
X-15550Y-5775D02*
D03*
X-15000D02*
D03*
X-48398Y-5960D02*
D03*
X-47848D02*
D03*
D64*
X-33240Y-49000D02*
D03*
Y-42596D02*
D03*
X-49230Y-67760D02*
D03*
X-33500Y-9250D02*
D03*
M02*
