G04 Layer_Color=8421504*
%FSLAX43Y43*%
%MOMM*%
G71*
G01*
G75*
%ADD11R,0.650X0.800*%
%ADD12R,0.800X0.650*%
%ADD13R,0.500X0.600*%
%ADD14R,0.600X0.900*%
%ADD15R,0.650X0.500*%
%ADD16R,0.900X0.600*%
%ADD17R,0.700X0.700*%
%ADD18R,0.700X0.700*%
%ADD19R,0.762X0.762*%
%ADD20R,0.550X0.600*%
%ADD21R,0.500X0.650*%
%ADD22R,1.000X2.250*%
%ADD23R,1.200X1.200*%
%ADD24R,1.200X1.200*%
%ADD27R,0.600X0.550*%
%ADD28R,0.762X0.762*%
%ADD29R,1.300X3.400*%
%ADD31R,0.300X0.700*%
%ADD32O,0.500X1.600*%
%ADD33O,1.600X0.500*%
%ADD34R,1.300X1.600*%
%ADD35R,1.550X1.000*%
%ADD50C,0.850*%
%ADD99R,2.100X2.100*%
%ADD100R,2.100X2.100*%
%ADD101R,1.750X1.750*%
%ADD102R,1.700X1.700*%
G04:AMPARAMS|DCode=103|XSize=1.397mm|YSize=1.473mm|CornerRadius=0.174mm|HoleSize=0mm|Usage=FLASHONLY|Rotation=180.000|XOffset=0mm|YOffset=0mm|HoleType=Round|Shape=RoundedRectangle|*
%AMROUNDEDRECTD103*
21,1,1.397,1.125,0,0,180.0*
21,1,1.049,1.473,0,0,180.0*
1,1,0.348,-0.525,0.563*
1,1,0.348,0.525,0.563*
1,1,0.348,0.525,-0.563*
1,1,0.348,-0.525,-0.563*
%
%ADD103ROUNDEDRECTD103*%
G04:AMPARAMS|DCode=104|XSize=0.315mm|YSize=1.255mm|CornerRadius=0.056mm|HoleSize=0mm|Usage=FLASHONLY|Rotation=180.000|XOffset=0mm|YOffset=0mm|HoleType=Round|Shape=RoundedRectangle|*
%AMROUNDEDRECTD104*
21,1,0.315,1.143,0,0,180.0*
21,1,0.203,1.255,0,0,180.0*
1,1,0.112,-0.102,0.572*
1,1,0.112,0.102,0.572*
1,1,0.112,0.102,-0.572*
1,1,0.112,-0.102,-0.572*
%
%ADD104ROUNDEDRECTD104*%
%ADD105R,1.550X1.350*%
D11*
X-23010Y-56495D02*
D03*
Y-57695D02*
D03*
X-28520Y-53890D02*
D03*
Y-52690D02*
D03*
X-22060Y-10900D02*
D03*
Y-9700D02*
D03*
X-17750Y-78600D02*
D03*
Y-79800D02*
D03*
X-19050Y-78600D02*
D03*
Y-79800D02*
D03*
X-23010Y-53820D02*
D03*
Y-55020D02*
D03*
D12*
X-16850Y-66950D02*
D03*
X-18050D02*
D03*
X-16850Y-68100D02*
D03*
X-18050D02*
D03*
X-16509Y-75400D02*
D03*
X-15309D02*
D03*
X-16509Y-76575D02*
D03*
X-15309D02*
D03*
X-12150Y-65640D02*
D03*
X-13350D02*
D03*
X-22450Y-13375D02*
D03*
X-23650D02*
D03*
X-23280Y-9800D02*
D03*
X-24480D02*
D03*
D13*
X-16490Y-78730D02*
D03*
X-16490Y-79780D02*
D03*
X-20310Y-78730D02*
D03*
X-20310Y-79780D02*
D03*
D14*
X-28490Y-55236D02*
D03*
Y-56336D02*
D03*
X-28490Y-58831D02*
D03*
Y-57731D02*
D03*
X-23894Y-72325D02*
D03*
Y-71225D02*
D03*
X-20695Y-71270D02*
D03*
Y-72370D02*
D03*
X-24994Y-72325D02*
D03*
Y-71225D02*
D03*
X-20935Y-10850D02*
D03*
Y-9750D02*
D03*
D15*
X-12629Y-68235D02*
D03*
X-13579D02*
D03*
X-23245Y-10845D02*
D03*
X-24195D02*
D03*
X-12659Y-66915D02*
D03*
X-13609D02*
D03*
D16*
X-19240Y-58950D02*
D03*
X-20340D02*
D03*
D17*
X-17600Y-73000D02*
D03*
Y-71600D02*
D03*
D18*
X-18230Y-56490D02*
D03*
X-19630D02*
D03*
X-12525Y-7500D02*
D03*
X-11125D02*
D03*
D19*
X-18226Y-57745D02*
D03*
X-19622D02*
D03*
D20*
X-51830Y-6203D02*
D03*
Y-7203D02*
D03*
X-35675Y-12450D02*
D03*
Y-11450D02*
D03*
X-19005Y-6400D02*
D03*
Y-7400D02*
D03*
X-45525Y-7225D02*
D03*
Y-8225D02*
D03*
X-44650D02*
D03*
Y-7225D02*
D03*
D21*
X-50930Y-7178D02*
D03*
Y-6228D02*
D03*
X-18105Y-7375D02*
D03*
Y-6425D02*
D03*
X-12525Y-8625D02*
D03*
Y-9575D02*
D03*
X-11225Y-8625D02*
D03*
Y-9575D02*
D03*
X-20150Y-82675D02*
D03*
Y-83625D02*
D03*
D22*
X-31000Y-7650D02*
D03*
Y-2150D02*
D03*
X-35000D02*
D03*
Y-7650D02*
D03*
X-24000D02*
D03*
Y-2150D02*
D03*
X-28000D02*
D03*
Y-7650D02*
D03*
D23*
X-6500Y-3550D02*
D03*
Y-1450D02*
D03*
X-8750Y-3550D02*
D03*
Y-1450D02*
D03*
D24*
X-32050Y-12000D02*
D03*
X-34150D02*
D03*
D27*
X-30150Y-9850D02*
D03*
X-31150D02*
D03*
D28*
X-19247Y-71497D02*
D03*
Y-72894D02*
D03*
D29*
X-22330Y-75080D02*
D03*
X-24430D02*
D03*
D31*
X-19250Y-84650D02*
D03*
X-18750D02*
D03*
X-18250D02*
D03*
X-17750D02*
D03*
Y-81750D02*
D03*
X-18250D02*
D03*
X-18750D02*
D03*
X-19250D02*
D03*
D32*
X-21240Y-69200D02*
D03*
X-22040D02*
D03*
X-22840D02*
D03*
X-23640D02*
D03*
X-24440D02*
D03*
X-25240D02*
D03*
X-26040D02*
D03*
X-26840D02*
D03*
X-26840Y-60700D02*
D03*
X-26040D02*
D03*
X-25240D02*
D03*
X-24440D02*
D03*
X-23640D02*
D03*
X-22840D02*
D03*
X-22040D02*
D03*
X-21240D02*
D03*
D33*
X-28290Y-67750D02*
D03*
Y-66950D02*
D03*
Y-66150D02*
D03*
Y-65350D02*
D03*
Y-64550D02*
D03*
Y-63750D02*
D03*
Y-62950D02*
D03*
Y-62150D02*
D03*
X-19790Y-62150D02*
D03*
Y-62950D02*
D03*
Y-63750D02*
D03*
Y-64550D02*
D03*
Y-65350D02*
D03*
Y-66150D02*
D03*
Y-66950D02*
D03*
Y-67750D02*
D03*
D34*
X-26990Y-53916D02*
D03*
Y-57716D02*
D03*
X-24690D02*
D03*
Y-53916D02*
D03*
D35*
X-15164Y-65635D02*
D03*
Y-68235D02*
D03*
D50*
X-8240Y-23010D02*
D03*
X-6970D02*
D03*
X-5700D02*
D03*
X-4430D02*
D03*
X-3160D02*
D03*
Y-21740D02*
D03*
X-4430D02*
D03*
X-5700D02*
D03*
X-6970D02*
D03*
X-8240D02*
D03*
X-8240Y-23010D02*
D03*
Y-21740D02*
D03*
X-6970Y-23010D02*
D03*
Y-21740D02*
D03*
X-5700Y-23010D02*
D03*
Y-21740D02*
D03*
X-4430Y-23010D02*
D03*
Y-21740D02*
D03*
X-3160Y-23010D02*
D03*
Y-21740D02*
D03*
D99*
X-35280Y-77380D02*
D03*
X-37820D02*
D03*
X-40360D02*
D03*
X-42900D02*
D03*
X-45440D02*
D03*
X-47980D02*
D03*
X-50520D02*
D03*
X-53060D02*
D03*
X-36696Y-19840D02*
D03*
Y-17300D02*
D03*
Y-14760D02*
D03*
X-4430Y-38890D02*
D03*
X-6970D02*
D03*
X-4430Y-36350D02*
D03*
X-6970D02*
D03*
X-4430Y-33810D02*
D03*
X-6970D02*
D03*
X-4430Y-31270D02*
D03*
X-6970D02*
D03*
X-4430Y-28730D02*
D03*
X-6970Y-41430D02*
D03*
X-4430D02*
D03*
X-6970Y-43970D02*
D03*
X-4430D02*
D03*
X-6970Y-46510D02*
D03*
X-4430D02*
D03*
X-6970Y-49050D02*
D03*
X-4430D02*
D03*
X-6970Y-51590D02*
D03*
X-4430D02*
D03*
X-6970Y-28730D02*
D03*
X-35305Y-54525D02*
D03*
X-37845D02*
D03*
X-40385D02*
D03*
X-42925D02*
D03*
X-45465D02*
D03*
X-48005D02*
D03*
X-50545D02*
D03*
X-53085D02*
D03*
X-27339Y-75075D02*
D03*
Y-72535D02*
D03*
X-41776Y-19840D02*
D03*
Y-17300D02*
D03*
Y-14760D02*
D03*
X-4430Y-16030D02*
D03*
X-6970D02*
D03*
X-4430Y-13490D02*
D03*
X-6970D02*
D03*
X-4430Y-74450D02*
D03*
X-6970D02*
D03*
X-4430Y-71910D02*
D03*
X-6970D02*
D03*
X-4430Y-69370D02*
D03*
X-6970D02*
D03*
X-4430Y-66830D02*
D03*
X-6970D02*
D03*
X-4430Y-64290D02*
D03*
X-6970Y-76990D02*
D03*
X-4430D02*
D03*
X-6970Y-79530D02*
D03*
X-4430D02*
D03*
X-6970Y-82070D02*
D03*
X-4430D02*
D03*
X-6970Y-84610D02*
D03*
X-4430D02*
D03*
X-6970Y-87150D02*
D03*
X-4430D02*
D03*
X-6970Y-64290D02*
D03*
D100*
X-28730Y-95570D02*
D03*
Y-93030D02*
D03*
X-26190Y-95570D02*
D03*
Y-93030D02*
D03*
X-23650Y-95570D02*
D03*
Y-93030D02*
D03*
X-21110Y-95570D02*
D03*
Y-93030D02*
D03*
X-18570Y-95570D02*
D03*
X-31270Y-93030D02*
D03*
Y-95570D02*
D03*
X-33810Y-93030D02*
D03*
Y-95570D02*
D03*
X-36350Y-93030D02*
D03*
Y-95570D02*
D03*
X-38890Y-93030D02*
D03*
Y-95570D02*
D03*
X-41430Y-93030D02*
D03*
Y-95570D02*
D03*
X-18570Y-93030D02*
D03*
X-35280Y-48170D02*
D03*
Y-45630D02*
D03*
X-37820D02*
D03*
Y-48170D02*
D03*
X-40360D02*
D03*
Y-45630D02*
D03*
X-42900D02*
D03*
Y-48170D02*
D03*
X-45440Y-45630D02*
D03*
Y-48170D02*
D03*
X-47980D02*
D03*
Y-45630D02*
D03*
X-50520D02*
D03*
Y-48170D02*
D03*
X-58140Y-45630D02*
D03*
X-55600D02*
D03*
X-53060D02*
D03*
Y-48170D02*
D03*
X-55600D02*
D03*
X-58140D02*
D03*
D101*
X-35305Y-83735D02*
D03*
Y-86275D02*
D03*
X-37845D02*
D03*
X-37845Y-83735D02*
D03*
X-40385Y-86275D02*
D03*
Y-83735D02*
D03*
X-42925Y-86275D02*
D03*
Y-83735D02*
D03*
X-45465Y-86275D02*
D03*
Y-83735D02*
D03*
X-48005Y-86275D02*
D03*
X-48005Y-83735D02*
D03*
D102*
X-41270Y-10950D02*
D03*
X-38730D02*
D03*
D103*
X-12590Y-2050D02*
D03*
X-18610D02*
D03*
X-45438Y-2058D02*
D03*
X-51458D02*
D03*
D104*
X-14300Y-4742D02*
D03*
X-14950Y-4742D02*
D03*
X-16900Y-4742D02*
D03*
X-16250D02*
D03*
X-15600D02*
D03*
X-47148Y-4750D02*
D03*
X-47798Y-4750D02*
D03*
X-49748Y-4750D02*
D03*
X-49098D02*
D03*
X-48448D02*
D03*
D105*
X-18500Y-83200D02*
D03*
M02*
