G04 #@! TF.GenerationSoftware,KiCad,Pcbnew,5.1.6-c6e7f7d~87~ubuntu18.04.1*
G04 #@! TF.CreationDate,2021-01-02T21:50:31-05:00*
G04 #@! TF.ProjectId,dicecalc,64696365-6361-46c6-932e-6b696361645f,rev?*
G04 #@! TF.SameCoordinates,Original*
G04 #@! TF.FileFunction,Legend,Bot*
G04 #@! TF.FilePolarity,Positive*
%FSLAX46Y46*%
G04 Gerber Fmt 4.6, Leading zero omitted, Abs format (unit mm)*
G04 Created by KiCad (PCBNEW 5.1.6-c6e7f7d~87~ubuntu18.04.1) date 2021-01-02 21:50:31*
%MOMM*%
%LPD*%
G01*
G04 APERTURE LIST*
%ADD10C,0.120000*%
%ADD11C,0.150000*%
G04 APERTURE END LIST*
D10*
X88728733Y-155610000D02*
X89071267Y-155610000D01*
X88728733Y-154590000D02*
X89071267Y-154590000D01*
X88728733Y-142590000D02*
X89071267Y-142590000D01*
X88728733Y-143610000D02*
X89071267Y-143610000D01*
X99071267Y-143610000D02*
X98728733Y-143610000D01*
X99071267Y-142590000D02*
X98728733Y-142590000D01*
X109071267Y-143610000D02*
X108728733Y-143610000D01*
X109071267Y-142590000D02*
X108728733Y-142590000D01*
X88728733Y-130590000D02*
X89071267Y-130590000D01*
X88728733Y-131610000D02*
X89071267Y-131610000D01*
X99071267Y-131610000D02*
X98728733Y-131610000D01*
X99071267Y-130590000D02*
X98728733Y-130590000D01*
X109071267Y-131610000D02*
X108728733Y-131610000D01*
X109071267Y-130590000D02*
X108728733Y-130590000D01*
X88728733Y-118590000D02*
X89071267Y-118590000D01*
X88728733Y-119610000D02*
X89071267Y-119610000D01*
X98728733Y-119610000D02*
X99071267Y-119610000D01*
X98728733Y-118590000D02*
X99071267Y-118590000D01*
X109071267Y-118590000D02*
X108728733Y-118590000D01*
X109071267Y-119610000D02*
X108728733Y-119610000D01*
X119071267Y-142590000D02*
X118728733Y-142590000D01*
X119071267Y-143610000D02*
X118728733Y-143610000D01*
X119071267Y-130590000D02*
X118728733Y-130590000D01*
X119071267Y-131610000D02*
X118728733Y-131610000D01*
X119071267Y-119610000D02*
X118728733Y-119610000D01*
X119071267Y-118590000D02*
X118728733Y-118590000D01*
X119071267Y-106590000D02*
X118728733Y-106590000D01*
X119071267Y-107610000D02*
X118728733Y-107610000D01*
X109071267Y-95610000D02*
X108728733Y-95610000D01*
X109071267Y-94590000D02*
X108728733Y-94590000D01*
X78728733Y-106590000D02*
X79071267Y-106590000D01*
X78728733Y-107610000D02*
X79071267Y-107610000D01*
X88728733Y-106590000D02*
X89071267Y-106590000D01*
X88728733Y-107610000D02*
X89071267Y-107610000D01*
X98728733Y-107610000D02*
X99071267Y-107610000D01*
X98728733Y-106590000D02*
X99071267Y-106590000D01*
X109071267Y-107610000D02*
X108728733Y-107610000D01*
X109071267Y-106590000D02*
X108728733Y-106590000D01*
X78728733Y-95610000D02*
X79071267Y-95610000D01*
X78728733Y-94590000D02*
X79071267Y-94590000D01*
X88728733Y-95610000D02*
X89071267Y-95610000D01*
X88728733Y-94590000D02*
X89071267Y-94590000D01*
X98728733Y-94590000D02*
X99071267Y-94590000D01*
X98728733Y-95610000D02*
X99071267Y-95610000D01*
X119071267Y-155610000D02*
X118728733Y-155610000D01*
X119071267Y-154590000D02*
X118728733Y-154590000D01*
X119071267Y-95610000D02*
X118728733Y-95610000D01*
X119071267Y-94590000D02*
X118728733Y-94590000D01*
X99071267Y-154590000D02*
X98728733Y-154590000D01*
X99071267Y-155610000D02*
X98728733Y-155610000D01*
X109071267Y-154590000D02*
X108728733Y-154590000D01*
X109071267Y-155610000D02*
X108728733Y-155610000D01*
X78728733Y-119610000D02*
X79071267Y-119610000D01*
X78728733Y-118590000D02*
X79071267Y-118590000D01*
X78728733Y-131610000D02*
X79071267Y-131610000D01*
X78728733Y-130590000D02*
X79071267Y-130590000D01*
X78728733Y-143610000D02*
X79071267Y-143610000D01*
X78728733Y-142590000D02*
X79071267Y-142590000D01*
X78728733Y-155610000D02*
X79071267Y-155610000D01*
X78728733Y-154590000D02*
X79071267Y-154590000D01*
X88728733Y-151610000D02*
X89071267Y-151610000D01*
X88728733Y-150590000D02*
X89071267Y-150590000D01*
X88728733Y-138590000D02*
X89071267Y-138590000D01*
X88728733Y-139610000D02*
X89071267Y-139610000D01*
X99071267Y-139610000D02*
X98728733Y-139610000D01*
X99071267Y-138590000D02*
X98728733Y-138590000D01*
X109071267Y-139610000D02*
X108728733Y-139610000D01*
X109071267Y-138590000D02*
X108728733Y-138590000D01*
X88728733Y-127610000D02*
X89071267Y-127610000D01*
X88728733Y-126590000D02*
X89071267Y-126590000D01*
X89071267Y-153610000D02*
X88728733Y-153610000D01*
X89071267Y-152590000D02*
X88728733Y-152590000D01*
X89071267Y-140590000D02*
X88728733Y-140590000D01*
X89071267Y-141610000D02*
X88728733Y-141610000D01*
X98728733Y-141610000D02*
X99071267Y-141610000D01*
X98728733Y-140590000D02*
X99071267Y-140590000D01*
X108728733Y-141610000D02*
X109071267Y-141610000D01*
X108728733Y-140590000D02*
X109071267Y-140590000D01*
X89071267Y-129610000D02*
X88728733Y-129610000D01*
X89071267Y-128590000D02*
X88728733Y-128590000D01*
X99071267Y-126590000D02*
X98728733Y-126590000D01*
X99071267Y-127610000D02*
X98728733Y-127610000D01*
X109071267Y-126590000D02*
X108728733Y-126590000D01*
X109071267Y-127610000D02*
X108728733Y-127610000D01*
X88728733Y-115610000D02*
X89071267Y-115610000D01*
X88728733Y-114590000D02*
X89071267Y-114590000D01*
X98728733Y-115610000D02*
X99071267Y-115610000D01*
X98728733Y-114590000D02*
X99071267Y-114590000D01*
X109071267Y-114590000D02*
X108728733Y-114590000D01*
X109071267Y-115610000D02*
X108728733Y-115610000D01*
X98728733Y-128590000D02*
X99071267Y-128590000D01*
X98728733Y-129610000D02*
X99071267Y-129610000D01*
X108728733Y-128590000D02*
X109071267Y-128590000D01*
X108728733Y-129610000D02*
X109071267Y-129610000D01*
X89071267Y-117610000D02*
X88728733Y-117610000D01*
X89071267Y-116590000D02*
X88728733Y-116590000D01*
X99071267Y-117610000D02*
X98728733Y-117610000D01*
X99071267Y-116590000D02*
X98728733Y-116590000D01*
X108728733Y-116590000D02*
X109071267Y-116590000D01*
X108728733Y-117610000D02*
X109071267Y-117610000D01*
X119071267Y-138590000D02*
X118728733Y-138590000D01*
X119071267Y-139610000D02*
X118728733Y-139610000D01*
X119071267Y-126590000D02*
X118728733Y-126590000D01*
X119071267Y-127610000D02*
X118728733Y-127610000D01*
X119071267Y-114590000D02*
X118728733Y-114590000D01*
X119071267Y-115610000D02*
X118728733Y-115610000D01*
X119071267Y-102590000D02*
X118728733Y-102590000D01*
X119071267Y-103610000D02*
X118728733Y-103610000D01*
X109071267Y-90590000D02*
X108728733Y-90590000D01*
X109071267Y-91610000D02*
X108728733Y-91610000D01*
X118728733Y-140590000D02*
X119071267Y-140590000D01*
X118728733Y-141610000D02*
X119071267Y-141610000D01*
X118728733Y-128590000D02*
X119071267Y-128590000D01*
X118728733Y-129610000D02*
X119071267Y-129610000D01*
X118728733Y-116590000D02*
X119071267Y-116590000D01*
X118728733Y-117610000D02*
X119071267Y-117610000D01*
X118728733Y-104590000D02*
X119071267Y-104590000D01*
X118728733Y-105610000D02*
X119071267Y-105610000D01*
X108728733Y-92590000D02*
X109071267Y-92590000D01*
X108728733Y-93610000D02*
X109071267Y-93610000D01*
X78728733Y-103610000D02*
X79071267Y-103610000D01*
X78728733Y-102590000D02*
X79071267Y-102590000D01*
X88728733Y-102590000D02*
X89071267Y-102590000D01*
X88728733Y-103610000D02*
X89071267Y-103610000D01*
X98728733Y-102590000D02*
X99071267Y-102590000D01*
X98728733Y-103610000D02*
X99071267Y-103610000D01*
X109071267Y-103610000D02*
X108728733Y-103610000D01*
X109071267Y-102590000D02*
X108728733Y-102590000D01*
X78728733Y-90590000D02*
X79071267Y-90590000D01*
X78728733Y-91610000D02*
X79071267Y-91610000D01*
X79071267Y-105610000D02*
X78728733Y-105610000D01*
X79071267Y-104590000D02*
X78728733Y-104590000D01*
X89071267Y-104590000D02*
X88728733Y-104590000D01*
X89071267Y-105610000D02*
X88728733Y-105610000D01*
X99071267Y-104590000D02*
X98728733Y-104590000D01*
X99071267Y-105610000D02*
X98728733Y-105610000D01*
X108728733Y-105610000D02*
X109071267Y-105610000D01*
X108728733Y-104590000D02*
X109071267Y-104590000D01*
X79071267Y-92590000D02*
X78728733Y-92590000D01*
X79071267Y-93610000D02*
X78728733Y-93610000D01*
X88728733Y-90590000D02*
X89071267Y-90590000D01*
X88728733Y-91610000D02*
X89071267Y-91610000D01*
X98728733Y-90590000D02*
X99071267Y-90590000D01*
X98728733Y-91610000D02*
X99071267Y-91610000D01*
X119071267Y-151610000D02*
X118728733Y-151610000D01*
X119071267Y-150590000D02*
X118728733Y-150590000D01*
X119071267Y-91610000D02*
X118728733Y-91610000D01*
X119071267Y-90590000D02*
X118728733Y-90590000D01*
X99071267Y-151610000D02*
X98728733Y-151610000D01*
X99071267Y-150590000D02*
X98728733Y-150590000D01*
X89071267Y-92590000D02*
X88728733Y-92590000D01*
X89071267Y-93610000D02*
X88728733Y-93610000D01*
X99071267Y-92590000D02*
X98728733Y-92590000D01*
X99071267Y-93610000D02*
X98728733Y-93610000D01*
X118728733Y-153610000D02*
X119071267Y-153610000D01*
X118728733Y-152590000D02*
X119071267Y-152590000D01*
X118728733Y-93610000D02*
X119071267Y-93610000D01*
X118728733Y-92590000D02*
X119071267Y-92590000D01*
X98728733Y-153610000D02*
X99071267Y-153610000D01*
X98728733Y-152590000D02*
X99071267Y-152590000D01*
X109071267Y-151610000D02*
X108728733Y-151610000D01*
X109071267Y-150590000D02*
X108728733Y-150590000D01*
X78728733Y-114590000D02*
X79071267Y-114590000D01*
X78728733Y-115610000D02*
X79071267Y-115610000D01*
X78728733Y-126590000D02*
X79071267Y-126590000D01*
X78728733Y-127610000D02*
X79071267Y-127610000D01*
X78728733Y-139610000D02*
X79071267Y-139610000D01*
X78728733Y-138590000D02*
X79071267Y-138590000D01*
X78728733Y-151610000D02*
X79071267Y-151610000D01*
X78728733Y-150590000D02*
X79071267Y-150590000D01*
X108728733Y-153610000D02*
X109071267Y-153610000D01*
X108728733Y-152590000D02*
X109071267Y-152590000D01*
X79071267Y-116590000D02*
X78728733Y-116590000D01*
X79071267Y-117610000D02*
X78728733Y-117610000D01*
X79071267Y-128590000D02*
X78728733Y-128590000D01*
X79071267Y-129610000D02*
X78728733Y-129610000D01*
X79071267Y-141610000D02*
X78728733Y-141610000D01*
X79071267Y-140590000D02*
X78728733Y-140590000D01*
X79071267Y-153610000D02*
X78728733Y-153610000D01*
X79071267Y-152590000D02*
X78728733Y-152590000D01*
X134500000Y-118390000D02*
X133390000Y-118390000D01*
X133390000Y-118390000D02*
X133390000Y-119720000D01*
X144590000Y-118390000D02*
X144590000Y-143910000D01*
X144590000Y-143910000D02*
X135960000Y-143910000D01*
X135960000Y-118390000D02*
X135960000Y-143910000D01*
X144590000Y-118390000D02*
X135960000Y-118390000D01*
X144590000Y-141310000D02*
X135960000Y-141310000D01*
X144590000Y-138770000D02*
X135960000Y-138770000D01*
X144590000Y-136230000D02*
X135960000Y-136230000D01*
X144590000Y-133690000D02*
X135960000Y-133690000D01*
X144590000Y-131150000D02*
X135960000Y-131150000D01*
X144590000Y-128610000D02*
X135960000Y-128610000D01*
X144590000Y-126070000D02*
X135960000Y-126070000D01*
X144590000Y-123530000D02*
X135960000Y-123530000D01*
X144590000Y-120990000D02*
X135960000Y-120990000D01*
X135960000Y-142940000D02*
X135550000Y-142940000D01*
X135960000Y-142220000D02*
X135550000Y-142220000D01*
X135960000Y-140400000D02*
X135550000Y-140400000D01*
X135960000Y-139680000D02*
X135550000Y-139680000D01*
X135960000Y-137860000D02*
X135550000Y-137860000D01*
X135960000Y-137140000D02*
X135550000Y-137140000D01*
X135960000Y-135320000D02*
X135550000Y-135320000D01*
X135960000Y-134600000D02*
X135550000Y-134600000D01*
X135960000Y-132780000D02*
X135550000Y-132780000D01*
X135960000Y-132060000D02*
X135550000Y-132060000D01*
X135960000Y-130240000D02*
X135550000Y-130240000D01*
X135960000Y-129520000D02*
X135550000Y-129520000D01*
X135960000Y-127700000D02*
X135550000Y-127700000D01*
X135960000Y-126980000D02*
X135550000Y-126980000D01*
X135960000Y-125160000D02*
X135550000Y-125160000D01*
X135960000Y-124440000D02*
X135550000Y-124440000D01*
X135960000Y-122620000D02*
X135550000Y-122620000D01*
X135960000Y-121900000D02*
X135550000Y-121900000D01*
X135960000Y-120080000D02*
X135610000Y-120080000D01*
X135960000Y-119360000D02*
X135610000Y-119360000D01*
X144590000Y-120871900D02*
X135960000Y-120871900D01*
X144590000Y-120753805D02*
X135960000Y-120753805D01*
X144590000Y-120635710D02*
X135960000Y-120635710D01*
X144590000Y-120517615D02*
X135960000Y-120517615D01*
X144590000Y-120399520D02*
X135960000Y-120399520D01*
X144590000Y-120281425D02*
X135960000Y-120281425D01*
X144590000Y-120163330D02*
X135960000Y-120163330D01*
X144590000Y-120045235D02*
X135960000Y-120045235D01*
X144590000Y-119927140D02*
X135960000Y-119927140D01*
X144590000Y-119809045D02*
X135960000Y-119809045D01*
X144590000Y-119690950D02*
X135960000Y-119690950D01*
X144590000Y-119572855D02*
X135960000Y-119572855D01*
X144590000Y-119454760D02*
X135960000Y-119454760D01*
X144590000Y-119336665D02*
X135960000Y-119336665D01*
X144590000Y-119218570D02*
X135960000Y-119218570D01*
X144590000Y-119100475D02*
X135960000Y-119100475D01*
X144590000Y-118982380D02*
X135960000Y-118982380D01*
X144590000Y-118864285D02*
X135960000Y-118864285D01*
X144590000Y-118746190D02*
X135960000Y-118746190D01*
X144590000Y-118628095D02*
X135960000Y-118628095D01*
X144590000Y-118510000D02*
X135960000Y-118510000D01*
D11*
X86066666Y-155457142D02*
X86114285Y-155504761D01*
X86257142Y-155552380D01*
X86352380Y-155552380D01*
X86495238Y-155504761D01*
X86590476Y-155409523D01*
X86638095Y-155314285D01*
X86685714Y-155123809D01*
X86685714Y-154980952D01*
X86638095Y-154790476D01*
X86590476Y-154695238D01*
X86495238Y-154600000D01*
X86352380Y-154552380D01*
X86257142Y-154552380D01*
X86114285Y-154600000D01*
X86066666Y-154647619D01*
X85114285Y-155552380D02*
X85685714Y-155552380D01*
X85400000Y-155552380D02*
X85400000Y-154552380D01*
X85495238Y-154695238D01*
X85590476Y-154790476D01*
X85685714Y-154838095D01*
X86066666Y-143457142D02*
X86114285Y-143504761D01*
X86257142Y-143552380D01*
X86352380Y-143552380D01*
X86495238Y-143504761D01*
X86590476Y-143409523D01*
X86638095Y-143314285D01*
X86685714Y-143123809D01*
X86685714Y-142980952D01*
X86638095Y-142790476D01*
X86590476Y-142695238D01*
X86495238Y-142600000D01*
X86352380Y-142552380D01*
X86257142Y-142552380D01*
X86114285Y-142600000D01*
X86066666Y-142647619D01*
X85685714Y-142647619D02*
X85638095Y-142600000D01*
X85542857Y-142552380D01*
X85304761Y-142552380D01*
X85209523Y-142600000D01*
X85161904Y-142647619D01*
X85114285Y-142742857D01*
X85114285Y-142838095D01*
X85161904Y-142980952D01*
X85733333Y-143552380D01*
X85114285Y-143552380D01*
X96066666Y-143457142D02*
X96114285Y-143504761D01*
X96257142Y-143552380D01*
X96352380Y-143552380D01*
X96495238Y-143504761D01*
X96590476Y-143409523D01*
X96638095Y-143314285D01*
X96685714Y-143123809D01*
X96685714Y-142980952D01*
X96638095Y-142790476D01*
X96590476Y-142695238D01*
X96495238Y-142600000D01*
X96352380Y-142552380D01*
X96257142Y-142552380D01*
X96114285Y-142600000D01*
X96066666Y-142647619D01*
X95733333Y-142552380D02*
X95114285Y-142552380D01*
X95447619Y-142933333D01*
X95304761Y-142933333D01*
X95209523Y-142980952D01*
X95161904Y-143028571D01*
X95114285Y-143123809D01*
X95114285Y-143361904D01*
X95161904Y-143457142D01*
X95209523Y-143504761D01*
X95304761Y-143552380D01*
X95590476Y-143552380D01*
X95685714Y-143504761D01*
X95733333Y-143457142D01*
X106066666Y-143457142D02*
X106114285Y-143504761D01*
X106257142Y-143552380D01*
X106352380Y-143552380D01*
X106495238Y-143504761D01*
X106590476Y-143409523D01*
X106638095Y-143314285D01*
X106685714Y-143123809D01*
X106685714Y-142980952D01*
X106638095Y-142790476D01*
X106590476Y-142695238D01*
X106495238Y-142600000D01*
X106352380Y-142552380D01*
X106257142Y-142552380D01*
X106114285Y-142600000D01*
X106066666Y-142647619D01*
X105209523Y-142885714D02*
X105209523Y-143552380D01*
X105447619Y-142504761D02*
X105685714Y-143219047D01*
X105066666Y-143219047D01*
X86066666Y-131457142D02*
X86114285Y-131504761D01*
X86257142Y-131552380D01*
X86352380Y-131552380D01*
X86495238Y-131504761D01*
X86590476Y-131409523D01*
X86638095Y-131314285D01*
X86685714Y-131123809D01*
X86685714Y-130980952D01*
X86638095Y-130790476D01*
X86590476Y-130695238D01*
X86495238Y-130600000D01*
X86352380Y-130552380D01*
X86257142Y-130552380D01*
X86114285Y-130600000D01*
X86066666Y-130647619D01*
X85161904Y-130552380D02*
X85638095Y-130552380D01*
X85685714Y-131028571D01*
X85638095Y-130980952D01*
X85542857Y-130933333D01*
X85304761Y-130933333D01*
X85209523Y-130980952D01*
X85161904Y-131028571D01*
X85114285Y-131123809D01*
X85114285Y-131361904D01*
X85161904Y-131457142D01*
X85209523Y-131504761D01*
X85304761Y-131552380D01*
X85542857Y-131552380D01*
X85638095Y-131504761D01*
X85685714Y-131457142D01*
X96066666Y-131457142D02*
X96114285Y-131504761D01*
X96257142Y-131552380D01*
X96352380Y-131552380D01*
X96495238Y-131504761D01*
X96590476Y-131409523D01*
X96638095Y-131314285D01*
X96685714Y-131123809D01*
X96685714Y-130980952D01*
X96638095Y-130790476D01*
X96590476Y-130695238D01*
X96495238Y-130600000D01*
X96352380Y-130552380D01*
X96257142Y-130552380D01*
X96114285Y-130600000D01*
X96066666Y-130647619D01*
X95209523Y-130552380D02*
X95400000Y-130552380D01*
X95495238Y-130600000D01*
X95542857Y-130647619D01*
X95638095Y-130790476D01*
X95685714Y-130980952D01*
X95685714Y-131361904D01*
X95638095Y-131457142D01*
X95590476Y-131504761D01*
X95495238Y-131552380D01*
X95304761Y-131552380D01*
X95209523Y-131504761D01*
X95161904Y-131457142D01*
X95114285Y-131361904D01*
X95114285Y-131123809D01*
X95161904Y-131028571D01*
X95209523Y-130980952D01*
X95304761Y-130933333D01*
X95495238Y-130933333D01*
X95590476Y-130980952D01*
X95638095Y-131028571D01*
X95685714Y-131123809D01*
X106066666Y-131457142D02*
X106114285Y-131504761D01*
X106257142Y-131552380D01*
X106352380Y-131552380D01*
X106495238Y-131504761D01*
X106590476Y-131409523D01*
X106638095Y-131314285D01*
X106685714Y-131123809D01*
X106685714Y-130980952D01*
X106638095Y-130790476D01*
X106590476Y-130695238D01*
X106495238Y-130600000D01*
X106352380Y-130552380D01*
X106257142Y-130552380D01*
X106114285Y-130600000D01*
X106066666Y-130647619D01*
X105733333Y-130552380D02*
X105066666Y-130552380D01*
X105495238Y-131552380D01*
X86066666Y-119457142D02*
X86114285Y-119504761D01*
X86257142Y-119552380D01*
X86352380Y-119552380D01*
X86495238Y-119504761D01*
X86590476Y-119409523D01*
X86638095Y-119314285D01*
X86685714Y-119123809D01*
X86685714Y-118980952D01*
X86638095Y-118790476D01*
X86590476Y-118695238D01*
X86495238Y-118600000D01*
X86352380Y-118552380D01*
X86257142Y-118552380D01*
X86114285Y-118600000D01*
X86066666Y-118647619D01*
X85495238Y-118980952D02*
X85590476Y-118933333D01*
X85638095Y-118885714D01*
X85685714Y-118790476D01*
X85685714Y-118742857D01*
X85638095Y-118647619D01*
X85590476Y-118600000D01*
X85495238Y-118552380D01*
X85304761Y-118552380D01*
X85209523Y-118600000D01*
X85161904Y-118647619D01*
X85114285Y-118742857D01*
X85114285Y-118790476D01*
X85161904Y-118885714D01*
X85209523Y-118933333D01*
X85304761Y-118980952D01*
X85495238Y-118980952D01*
X85590476Y-119028571D01*
X85638095Y-119076190D01*
X85685714Y-119171428D01*
X85685714Y-119361904D01*
X85638095Y-119457142D01*
X85590476Y-119504761D01*
X85495238Y-119552380D01*
X85304761Y-119552380D01*
X85209523Y-119504761D01*
X85161904Y-119457142D01*
X85114285Y-119361904D01*
X85114285Y-119171428D01*
X85161904Y-119076190D01*
X85209523Y-119028571D01*
X85304761Y-118980952D01*
X96066666Y-119457142D02*
X96114285Y-119504761D01*
X96257142Y-119552380D01*
X96352380Y-119552380D01*
X96495238Y-119504761D01*
X96590476Y-119409523D01*
X96638095Y-119314285D01*
X96685714Y-119123809D01*
X96685714Y-118980952D01*
X96638095Y-118790476D01*
X96590476Y-118695238D01*
X96495238Y-118600000D01*
X96352380Y-118552380D01*
X96257142Y-118552380D01*
X96114285Y-118600000D01*
X96066666Y-118647619D01*
X95590476Y-119552380D02*
X95400000Y-119552380D01*
X95304761Y-119504761D01*
X95257142Y-119457142D01*
X95161904Y-119314285D01*
X95114285Y-119123809D01*
X95114285Y-118742857D01*
X95161904Y-118647619D01*
X95209523Y-118600000D01*
X95304761Y-118552380D01*
X95495238Y-118552380D01*
X95590476Y-118600000D01*
X95638095Y-118647619D01*
X95685714Y-118742857D01*
X95685714Y-118980952D01*
X95638095Y-119076190D01*
X95590476Y-119123809D01*
X95495238Y-119171428D01*
X95304761Y-119171428D01*
X95209523Y-119123809D01*
X95161904Y-119076190D01*
X95114285Y-118980952D01*
X106042857Y-119457142D02*
X106090476Y-119504761D01*
X106233333Y-119552380D01*
X106328571Y-119552380D01*
X106471428Y-119504761D01*
X106566666Y-119409523D01*
X106614285Y-119314285D01*
X106661904Y-119123809D01*
X106661904Y-118980952D01*
X106614285Y-118790476D01*
X106566666Y-118695238D01*
X106471428Y-118600000D01*
X106328571Y-118552380D01*
X106233333Y-118552380D01*
X106090476Y-118600000D01*
X106042857Y-118647619D01*
X105090476Y-119552380D02*
X105661904Y-119552380D01*
X105376190Y-119552380D02*
X105376190Y-118552380D01*
X105471428Y-118695238D01*
X105566666Y-118790476D01*
X105661904Y-118838095D01*
X104471428Y-118552380D02*
X104376190Y-118552380D01*
X104280952Y-118600000D01*
X104233333Y-118647619D01*
X104185714Y-118742857D01*
X104138095Y-118933333D01*
X104138095Y-119171428D01*
X104185714Y-119361904D01*
X104233333Y-119457142D01*
X104280952Y-119504761D01*
X104376190Y-119552380D01*
X104471428Y-119552380D01*
X104566666Y-119504761D01*
X104614285Y-119457142D01*
X104661904Y-119361904D01*
X104709523Y-119171428D01*
X104709523Y-118933333D01*
X104661904Y-118742857D01*
X104614285Y-118647619D01*
X104566666Y-118600000D01*
X104471428Y-118552380D01*
X116042857Y-143457142D02*
X116090476Y-143504761D01*
X116233333Y-143552380D01*
X116328571Y-143552380D01*
X116471428Y-143504761D01*
X116566666Y-143409523D01*
X116614285Y-143314285D01*
X116661904Y-143123809D01*
X116661904Y-142980952D01*
X116614285Y-142790476D01*
X116566666Y-142695238D01*
X116471428Y-142600000D01*
X116328571Y-142552380D01*
X116233333Y-142552380D01*
X116090476Y-142600000D01*
X116042857Y-142647619D01*
X115090476Y-143552380D02*
X115661904Y-143552380D01*
X115376190Y-143552380D02*
X115376190Y-142552380D01*
X115471428Y-142695238D01*
X115566666Y-142790476D01*
X115661904Y-142838095D01*
X114138095Y-143552380D02*
X114709523Y-143552380D01*
X114423809Y-143552380D02*
X114423809Y-142552380D01*
X114519047Y-142695238D01*
X114614285Y-142790476D01*
X114709523Y-142838095D01*
X116042857Y-131457142D02*
X116090476Y-131504761D01*
X116233333Y-131552380D01*
X116328571Y-131552380D01*
X116471428Y-131504761D01*
X116566666Y-131409523D01*
X116614285Y-131314285D01*
X116661904Y-131123809D01*
X116661904Y-130980952D01*
X116614285Y-130790476D01*
X116566666Y-130695238D01*
X116471428Y-130600000D01*
X116328571Y-130552380D01*
X116233333Y-130552380D01*
X116090476Y-130600000D01*
X116042857Y-130647619D01*
X115090476Y-131552380D02*
X115661904Y-131552380D01*
X115376190Y-131552380D02*
X115376190Y-130552380D01*
X115471428Y-130695238D01*
X115566666Y-130790476D01*
X115661904Y-130838095D01*
X114709523Y-130647619D02*
X114661904Y-130600000D01*
X114566666Y-130552380D01*
X114328571Y-130552380D01*
X114233333Y-130600000D01*
X114185714Y-130647619D01*
X114138095Y-130742857D01*
X114138095Y-130838095D01*
X114185714Y-130980952D01*
X114757142Y-131552380D01*
X114138095Y-131552380D01*
X116042857Y-119457142D02*
X116090476Y-119504761D01*
X116233333Y-119552380D01*
X116328571Y-119552380D01*
X116471428Y-119504761D01*
X116566666Y-119409523D01*
X116614285Y-119314285D01*
X116661904Y-119123809D01*
X116661904Y-118980952D01*
X116614285Y-118790476D01*
X116566666Y-118695238D01*
X116471428Y-118600000D01*
X116328571Y-118552380D01*
X116233333Y-118552380D01*
X116090476Y-118600000D01*
X116042857Y-118647619D01*
X115090476Y-119552380D02*
X115661904Y-119552380D01*
X115376190Y-119552380D02*
X115376190Y-118552380D01*
X115471428Y-118695238D01*
X115566666Y-118790476D01*
X115661904Y-118838095D01*
X114757142Y-118552380D02*
X114138095Y-118552380D01*
X114471428Y-118933333D01*
X114328571Y-118933333D01*
X114233333Y-118980952D01*
X114185714Y-119028571D01*
X114138095Y-119123809D01*
X114138095Y-119361904D01*
X114185714Y-119457142D01*
X114233333Y-119504761D01*
X114328571Y-119552380D01*
X114614285Y-119552380D01*
X114709523Y-119504761D01*
X114757142Y-119457142D01*
X116042857Y-107457142D02*
X116090476Y-107504761D01*
X116233333Y-107552380D01*
X116328571Y-107552380D01*
X116471428Y-107504761D01*
X116566666Y-107409523D01*
X116614285Y-107314285D01*
X116661904Y-107123809D01*
X116661904Y-106980952D01*
X116614285Y-106790476D01*
X116566666Y-106695238D01*
X116471428Y-106600000D01*
X116328571Y-106552380D01*
X116233333Y-106552380D01*
X116090476Y-106600000D01*
X116042857Y-106647619D01*
X115090476Y-107552380D02*
X115661904Y-107552380D01*
X115376190Y-107552380D02*
X115376190Y-106552380D01*
X115471428Y-106695238D01*
X115566666Y-106790476D01*
X115661904Y-106838095D01*
X114233333Y-106885714D02*
X114233333Y-107552380D01*
X114471428Y-106504761D02*
X114709523Y-107219047D01*
X114090476Y-107219047D01*
X106042857Y-95457142D02*
X106090476Y-95504761D01*
X106233333Y-95552380D01*
X106328571Y-95552380D01*
X106471428Y-95504761D01*
X106566666Y-95409523D01*
X106614285Y-95314285D01*
X106661904Y-95123809D01*
X106661904Y-94980952D01*
X106614285Y-94790476D01*
X106566666Y-94695238D01*
X106471428Y-94600000D01*
X106328571Y-94552380D01*
X106233333Y-94552380D01*
X106090476Y-94600000D01*
X106042857Y-94647619D01*
X105090476Y-95552380D02*
X105661904Y-95552380D01*
X105376190Y-95552380D02*
X105376190Y-94552380D01*
X105471428Y-94695238D01*
X105566666Y-94790476D01*
X105661904Y-94838095D01*
X104185714Y-94552380D02*
X104661904Y-94552380D01*
X104709523Y-95028571D01*
X104661904Y-94980952D01*
X104566666Y-94933333D01*
X104328571Y-94933333D01*
X104233333Y-94980952D01*
X104185714Y-95028571D01*
X104138095Y-95123809D01*
X104138095Y-95361904D01*
X104185714Y-95457142D01*
X104233333Y-95504761D01*
X104328571Y-95552380D01*
X104566666Y-95552380D01*
X104661904Y-95504761D01*
X104709523Y-95457142D01*
X76042857Y-107457142D02*
X76090476Y-107504761D01*
X76233333Y-107552380D01*
X76328571Y-107552380D01*
X76471428Y-107504761D01*
X76566666Y-107409523D01*
X76614285Y-107314285D01*
X76661904Y-107123809D01*
X76661904Y-106980952D01*
X76614285Y-106790476D01*
X76566666Y-106695238D01*
X76471428Y-106600000D01*
X76328571Y-106552380D01*
X76233333Y-106552380D01*
X76090476Y-106600000D01*
X76042857Y-106647619D01*
X75090476Y-107552380D02*
X75661904Y-107552380D01*
X75376190Y-107552380D02*
X75376190Y-106552380D01*
X75471428Y-106695238D01*
X75566666Y-106790476D01*
X75661904Y-106838095D01*
X74233333Y-106552380D02*
X74423809Y-106552380D01*
X74519047Y-106600000D01*
X74566666Y-106647619D01*
X74661904Y-106790476D01*
X74709523Y-106980952D01*
X74709523Y-107361904D01*
X74661904Y-107457142D01*
X74614285Y-107504761D01*
X74519047Y-107552380D01*
X74328571Y-107552380D01*
X74233333Y-107504761D01*
X74185714Y-107457142D01*
X74138095Y-107361904D01*
X74138095Y-107123809D01*
X74185714Y-107028571D01*
X74233333Y-106980952D01*
X74328571Y-106933333D01*
X74519047Y-106933333D01*
X74614285Y-106980952D01*
X74661904Y-107028571D01*
X74709523Y-107123809D01*
X86042857Y-107457142D02*
X86090476Y-107504761D01*
X86233333Y-107552380D01*
X86328571Y-107552380D01*
X86471428Y-107504761D01*
X86566666Y-107409523D01*
X86614285Y-107314285D01*
X86661904Y-107123809D01*
X86661904Y-106980952D01*
X86614285Y-106790476D01*
X86566666Y-106695238D01*
X86471428Y-106600000D01*
X86328571Y-106552380D01*
X86233333Y-106552380D01*
X86090476Y-106600000D01*
X86042857Y-106647619D01*
X85090476Y-107552380D02*
X85661904Y-107552380D01*
X85376190Y-107552380D02*
X85376190Y-106552380D01*
X85471428Y-106695238D01*
X85566666Y-106790476D01*
X85661904Y-106838095D01*
X84757142Y-106552380D02*
X84090476Y-106552380D01*
X84519047Y-107552380D01*
X96042857Y-107457142D02*
X96090476Y-107504761D01*
X96233333Y-107552380D01*
X96328571Y-107552380D01*
X96471428Y-107504761D01*
X96566666Y-107409523D01*
X96614285Y-107314285D01*
X96661904Y-107123809D01*
X96661904Y-106980952D01*
X96614285Y-106790476D01*
X96566666Y-106695238D01*
X96471428Y-106600000D01*
X96328571Y-106552380D01*
X96233333Y-106552380D01*
X96090476Y-106600000D01*
X96042857Y-106647619D01*
X95090476Y-107552380D02*
X95661904Y-107552380D01*
X95376190Y-107552380D02*
X95376190Y-106552380D01*
X95471428Y-106695238D01*
X95566666Y-106790476D01*
X95661904Y-106838095D01*
X94519047Y-106980952D02*
X94614285Y-106933333D01*
X94661904Y-106885714D01*
X94709523Y-106790476D01*
X94709523Y-106742857D01*
X94661904Y-106647619D01*
X94614285Y-106600000D01*
X94519047Y-106552380D01*
X94328571Y-106552380D01*
X94233333Y-106600000D01*
X94185714Y-106647619D01*
X94138095Y-106742857D01*
X94138095Y-106790476D01*
X94185714Y-106885714D01*
X94233333Y-106933333D01*
X94328571Y-106980952D01*
X94519047Y-106980952D01*
X94614285Y-107028571D01*
X94661904Y-107076190D01*
X94709523Y-107171428D01*
X94709523Y-107361904D01*
X94661904Y-107457142D01*
X94614285Y-107504761D01*
X94519047Y-107552380D01*
X94328571Y-107552380D01*
X94233333Y-107504761D01*
X94185714Y-107457142D01*
X94138095Y-107361904D01*
X94138095Y-107171428D01*
X94185714Y-107076190D01*
X94233333Y-107028571D01*
X94328571Y-106980952D01*
X106042857Y-107457142D02*
X106090476Y-107504761D01*
X106233333Y-107552380D01*
X106328571Y-107552380D01*
X106471428Y-107504761D01*
X106566666Y-107409523D01*
X106614285Y-107314285D01*
X106661904Y-107123809D01*
X106661904Y-106980952D01*
X106614285Y-106790476D01*
X106566666Y-106695238D01*
X106471428Y-106600000D01*
X106328571Y-106552380D01*
X106233333Y-106552380D01*
X106090476Y-106600000D01*
X106042857Y-106647619D01*
X105090476Y-107552380D02*
X105661904Y-107552380D01*
X105376190Y-107552380D02*
X105376190Y-106552380D01*
X105471428Y-106695238D01*
X105566666Y-106790476D01*
X105661904Y-106838095D01*
X104614285Y-107552380D02*
X104423809Y-107552380D01*
X104328571Y-107504761D01*
X104280952Y-107457142D01*
X104185714Y-107314285D01*
X104138095Y-107123809D01*
X104138095Y-106742857D01*
X104185714Y-106647619D01*
X104233333Y-106600000D01*
X104328571Y-106552380D01*
X104519047Y-106552380D01*
X104614285Y-106600000D01*
X104661904Y-106647619D01*
X104709523Y-106742857D01*
X104709523Y-106980952D01*
X104661904Y-107076190D01*
X104614285Y-107123809D01*
X104519047Y-107171428D01*
X104328571Y-107171428D01*
X104233333Y-107123809D01*
X104185714Y-107076190D01*
X104138095Y-106980952D01*
X76042857Y-95457142D02*
X76090476Y-95504761D01*
X76233333Y-95552380D01*
X76328571Y-95552380D01*
X76471428Y-95504761D01*
X76566666Y-95409523D01*
X76614285Y-95314285D01*
X76661904Y-95123809D01*
X76661904Y-94980952D01*
X76614285Y-94790476D01*
X76566666Y-94695238D01*
X76471428Y-94600000D01*
X76328571Y-94552380D01*
X76233333Y-94552380D01*
X76090476Y-94600000D01*
X76042857Y-94647619D01*
X75661904Y-94647619D02*
X75614285Y-94600000D01*
X75519047Y-94552380D01*
X75280952Y-94552380D01*
X75185714Y-94600000D01*
X75138095Y-94647619D01*
X75090476Y-94742857D01*
X75090476Y-94838095D01*
X75138095Y-94980952D01*
X75709523Y-95552380D01*
X75090476Y-95552380D01*
X74471428Y-94552380D02*
X74376190Y-94552380D01*
X74280952Y-94600000D01*
X74233333Y-94647619D01*
X74185714Y-94742857D01*
X74138095Y-94933333D01*
X74138095Y-95171428D01*
X74185714Y-95361904D01*
X74233333Y-95457142D01*
X74280952Y-95504761D01*
X74376190Y-95552380D01*
X74471428Y-95552380D01*
X74566666Y-95504761D01*
X74614285Y-95457142D01*
X74661904Y-95361904D01*
X74709523Y-95171428D01*
X74709523Y-94933333D01*
X74661904Y-94742857D01*
X74614285Y-94647619D01*
X74566666Y-94600000D01*
X74471428Y-94552380D01*
X86042857Y-95457142D02*
X86090476Y-95504761D01*
X86233333Y-95552380D01*
X86328571Y-95552380D01*
X86471428Y-95504761D01*
X86566666Y-95409523D01*
X86614285Y-95314285D01*
X86661904Y-95123809D01*
X86661904Y-94980952D01*
X86614285Y-94790476D01*
X86566666Y-94695238D01*
X86471428Y-94600000D01*
X86328571Y-94552380D01*
X86233333Y-94552380D01*
X86090476Y-94600000D01*
X86042857Y-94647619D01*
X85661904Y-94647619D02*
X85614285Y-94600000D01*
X85519047Y-94552380D01*
X85280952Y-94552380D01*
X85185714Y-94600000D01*
X85138095Y-94647619D01*
X85090476Y-94742857D01*
X85090476Y-94838095D01*
X85138095Y-94980952D01*
X85709523Y-95552380D01*
X85090476Y-95552380D01*
X84138095Y-95552380D02*
X84709523Y-95552380D01*
X84423809Y-95552380D02*
X84423809Y-94552380D01*
X84519047Y-94695238D01*
X84614285Y-94790476D01*
X84709523Y-94838095D01*
X96042857Y-95457142D02*
X96090476Y-95504761D01*
X96233333Y-95552380D01*
X96328571Y-95552380D01*
X96471428Y-95504761D01*
X96566666Y-95409523D01*
X96614285Y-95314285D01*
X96661904Y-95123809D01*
X96661904Y-94980952D01*
X96614285Y-94790476D01*
X96566666Y-94695238D01*
X96471428Y-94600000D01*
X96328571Y-94552380D01*
X96233333Y-94552380D01*
X96090476Y-94600000D01*
X96042857Y-94647619D01*
X95661904Y-94647619D02*
X95614285Y-94600000D01*
X95519047Y-94552380D01*
X95280952Y-94552380D01*
X95185714Y-94600000D01*
X95138095Y-94647619D01*
X95090476Y-94742857D01*
X95090476Y-94838095D01*
X95138095Y-94980952D01*
X95709523Y-95552380D01*
X95090476Y-95552380D01*
X94709523Y-94647619D02*
X94661904Y-94600000D01*
X94566666Y-94552380D01*
X94328571Y-94552380D01*
X94233333Y-94600000D01*
X94185714Y-94647619D01*
X94138095Y-94742857D01*
X94138095Y-94838095D01*
X94185714Y-94980952D01*
X94757142Y-95552380D01*
X94138095Y-95552380D01*
X116042857Y-155457142D02*
X116090476Y-155504761D01*
X116233333Y-155552380D01*
X116328571Y-155552380D01*
X116471428Y-155504761D01*
X116566666Y-155409523D01*
X116614285Y-155314285D01*
X116661904Y-155123809D01*
X116661904Y-154980952D01*
X116614285Y-154790476D01*
X116566666Y-154695238D01*
X116471428Y-154600000D01*
X116328571Y-154552380D01*
X116233333Y-154552380D01*
X116090476Y-154600000D01*
X116042857Y-154647619D01*
X115661904Y-154647619D02*
X115614285Y-154600000D01*
X115519047Y-154552380D01*
X115280952Y-154552380D01*
X115185714Y-154600000D01*
X115138095Y-154647619D01*
X115090476Y-154742857D01*
X115090476Y-154838095D01*
X115138095Y-154980952D01*
X115709523Y-155552380D01*
X115090476Y-155552380D01*
X114757142Y-154552380D02*
X114138095Y-154552380D01*
X114471428Y-154933333D01*
X114328571Y-154933333D01*
X114233333Y-154980952D01*
X114185714Y-155028571D01*
X114138095Y-155123809D01*
X114138095Y-155361904D01*
X114185714Y-155457142D01*
X114233333Y-155504761D01*
X114328571Y-155552380D01*
X114614285Y-155552380D01*
X114709523Y-155504761D01*
X114757142Y-155457142D01*
X116042857Y-95457142D02*
X116090476Y-95504761D01*
X116233333Y-95552380D01*
X116328571Y-95552380D01*
X116471428Y-95504761D01*
X116566666Y-95409523D01*
X116614285Y-95314285D01*
X116661904Y-95123809D01*
X116661904Y-94980952D01*
X116614285Y-94790476D01*
X116566666Y-94695238D01*
X116471428Y-94600000D01*
X116328571Y-94552380D01*
X116233333Y-94552380D01*
X116090476Y-94600000D01*
X116042857Y-94647619D01*
X115661904Y-94647619D02*
X115614285Y-94600000D01*
X115519047Y-94552380D01*
X115280952Y-94552380D01*
X115185714Y-94600000D01*
X115138095Y-94647619D01*
X115090476Y-94742857D01*
X115090476Y-94838095D01*
X115138095Y-94980952D01*
X115709523Y-95552380D01*
X115090476Y-95552380D01*
X114233333Y-94885714D02*
X114233333Y-95552380D01*
X114471428Y-94504761D02*
X114709523Y-95219047D01*
X114090476Y-95219047D01*
X96042857Y-155457142D02*
X96090476Y-155504761D01*
X96233333Y-155552380D01*
X96328571Y-155552380D01*
X96471428Y-155504761D01*
X96566666Y-155409523D01*
X96614285Y-155314285D01*
X96661904Y-155123809D01*
X96661904Y-154980952D01*
X96614285Y-154790476D01*
X96566666Y-154695238D01*
X96471428Y-154600000D01*
X96328571Y-154552380D01*
X96233333Y-154552380D01*
X96090476Y-154600000D01*
X96042857Y-154647619D01*
X95661904Y-154647619D02*
X95614285Y-154600000D01*
X95519047Y-154552380D01*
X95280952Y-154552380D01*
X95185714Y-154600000D01*
X95138095Y-154647619D01*
X95090476Y-154742857D01*
X95090476Y-154838095D01*
X95138095Y-154980952D01*
X95709523Y-155552380D01*
X95090476Y-155552380D01*
X94185714Y-154552380D02*
X94661904Y-154552380D01*
X94709523Y-155028571D01*
X94661904Y-154980952D01*
X94566666Y-154933333D01*
X94328571Y-154933333D01*
X94233333Y-154980952D01*
X94185714Y-155028571D01*
X94138095Y-155123809D01*
X94138095Y-155361904D01*
X94185714Y-155457142D01*
X94233333Y-155504761D01*
X94328571Y-155552380D01*
X94566666Y-155552380D01*
X94661904Y-155504761D01*
X94709523Y-155457142D01*
X106042857Y-155457142D02*
X106090476Y-155504761D01*
X106233333Y-155552380D01*
X106328571Y-155552380D01*
X106471428Y-155504761D01*
X106566666Y-155409523D01*
X106614285Y-155314285D01*
X106661904Y-155123809D01*
X106661904Y-154980952D01*
X106614285Y-154790476D01*
X106566666Y-154695238D01*
X106471428Y-154600000D01*
X106328571Y-154552380D01*
X106233333Y-154552380D01*
X106090476Y-154600000D01*
X106042857Y-154647619D01*
X105661904Y-154647619D02*
X105614285Y-154600000D01*
X105519047Y-154552380D01*
X105280952Y-154552380D01*
X105185714Y-154600000D01*
X105138095Y-154647619D01*
X105090476Y-154742857D01*
X105090476Y-154838095D01*
X105138095Y-154980952D01*
X105709523Y-155552380D01*
X105090476Y-155552380D01*
X104233333Y-154552380D02*
X104423809Y-154552380D01*
X104519047Y-154600000D01*
X104566666Y-154647619D01*
X104661904Y-154790476D01*
X104709523Y-154980952D01*
X104709523Y-155361904D01*
X104661904Y-155457142D01*
X104614285Y-155504761D01*
X104519047Y-155552380D01*
X104328571Y-155552380D01*
X104233333Y-155504761D01*
X104185714Y-155457142D01*
X104138095Y-155361904D01*
X104138095Y-155123809D01*
X104185714Y-155028571D01*
X104233333Y-154980952D01*
X104328571Y-154933333D01*
X104519047Y-154933333D01*
X104614285Y-154980952D01*
X104661904Y-155028571D01*
X104709523Y-155123809D01*
X76042857Y-119457142D02*
X76090476Y-119504761D01*
X76233333Y-119552380D01*
X76328571Y-119552380D01*
X76471428Y-119504761D01*
X76566666Y-119409523D01*
X76614285Y-119314285D01*
X76661904Y-119123809D01*
X76661904Y-118980952D01*
X76614285Y-118790476D01*
X76566666Y-118695238D01*
X76471428Y-118600000D01*
X76328571Y-118552380D01*
X76233333Y-118552380D01*
X76090476Y-118600000D01*
X76042857Y-118647619D01*
X75661904Y-118647619D02*
X75614285Y-118600000D01*
X75519047Y-118552380D01*
X75280952Y-118552380D01*
X75185714Y-118600000D01*
X75138095Y-118647619D01*
X75090476Y-118742857D01*
X75090476Y-118838095D01*
X75138095Y-118980952D01*
X75709523Y-119552380D01*
X75090476Y-119552380D01*
X74757142Y-118552380D02*
X74090476Y-118552380D01*
X74519047Y-119552380D01*
X76042857Y-131457142D02*
X76090476Y-131504761D01*
X76233333Y-131552380D01*
X76328571Y-131552380D01*
X76471428Y-131504761D01*
X76566666Y-131409523D01*
X76614285Y-131314285D01*
X76661904Y-131123809D01*
X76661904Y-130980952D01*
X76614285Y-130790476D01*
X76566666Y-130695238D01*
X76471428Y-130600000D01*
X76328571Y-130552380D01*
X76233333Y-130552380D01*
X76090476Y-130600000D01*
X76042857Y-130647619D01*
X75661904Y-130647619D02*
X75614285Y-130600000D01*
X75519047Y-130552380D01*
X75280952Y-130552380D01*
X75185714Y-130600000D01*
X75138095Y-130647619D01*
X75090476Y-130742857D01*
X75090476Y-130838095D01*
X75138095Y-130980952D01*
X75709523Y-131552380D01*
X75090476Y-131552380D01*
X74519047Y-130980952D02*
X74614285Y-130933333D01*
X74661904Y-130885714D01*
X74709523Y-130790476D01*
X74709523Y-130742857D01*
X74661904Y-130647619D01*
X74614285Y-130600000D01*
X74519047Y-130552380D01*
X74328571Y-130552380D01*
X74233333Y-130600000D01*
X74185714Y-130647619D01*
X74138095Y-130742857D01*
X74138095Y-130790476D01*
X74185714Y-130885714D01*
X74233333Y-130933333D01*
X74328571Y-130980952D01*
X74519047Y-130980952D01*
X74614285Y-131028571D01*
X74661904Y-131076190D01*
X74709523Y-131171428D01*
X74709523Y-131361904D01*
X74661904Y-131457142D01*
X74614285Y-131504761D01*
X74519047Y-131552380D01*
X74328571Y-131552380D01*
X74233333Y-131504761D01*
X74185714Y-131457142D01*
X74138095Y-131361904D01*
X74138095Y-131171428D01*
X74185714Y-131076190D01*
X74233333Y-131028571D01*
X74328571Y-130980952D01*
X76042857Y-143457142D02*
X76090476Y-143504761D01*
X76233333Y-143552380D01*
X76328571Y-143552380D01*
X76471428Y-143504761D01*
X76566666Y-143409523D01*
X76614285Y-143314285D01*
X76661904Y-143123809D01*
X76661904Y-142980952D01*
X76614285Y-142790476D01*
X76566666Y-142695238D01*
X76471428Y-142600000D01*
X76328571Y-142552380D01*
X76233333Y-142552380D01*
X76090476Y-142600000D01*
X76042857Y-142647619D01*
X75661904Y-142647619D02*
X75614285Y-142600000D01*
X75519047Y-142552380D01*
X75280952Y-142552380D01*
X75185714Y-142600000D01*
X75138095Y-142647619D01*
X75090476Y-142742857D01*
X75090476Y-142838095D01*
X75138095Y-142980952D01*
X75709523Y-143552380D01*
X75090476Y-143552380D01*
X74614285Y-143552380D02*
X74423809Y-143552380D01*
X74328571Y-143504761D01*
X74280952Y-143457142D01*
X74185714Y-143314285D01*
X74138095Y-143123809D01*
X74138095Y-142742857D01*
X74185714Y-142647619D01*
X74233333Y-142600000D01*
X74328571Y-142552380D01*
X74519047Y-142552380D01*
X74614285Y-142600000D01*
X74661904Y-142647619D01*
X74709523Y-142742857D01*
X74709523Y-142980952D01*
X74661904Y-143076190D01*
X74614285Y-143123809D01*
X74519047Y-143171428D01*
X74328571Y-143171428D01*
X74233333Y-143123809D01*
X74185714Y-143076190D01*
X74138095Y-142980952D01*
X76042857Y-155457142D02*
X76090476Y-155504761D01*
X76233333Y-155552380D01*
X76328571Y-155552380D01*
X76471428Y-155504761D01*
X76566666Y-155409523D01*
X76614285Y-155314285D01*
X76661904Y-155123809D01*
X76661904Y-154980952D01*
X76614285Y-154790476D01*
X76566666Y-154695238D01*
X76471428Y-154600000D01*
X76328571Y-154552380D01*
X76233333Y-154552380D01*
X76090476Y-154600000D01*
X76042857Y-154647619D01*
X75709523Y-154552380D02*
X75090476Y-154552380D01*
X75423809Y-154933333D01*
X75280952Y-154933333D01*
X75185714Y-154980952D01*
X75138095Y-155028571D01*
X75090476Y-155123809D01*
X75090476Y-155361904D01*
X75138095Y-155457142D01*
X75185714Y-155504761D01*
X75280952Y-155552380D01*
X75566666Y-155552380D01*
X75661904Y-155504761D01*
X75709523Y-155457142D01*
X74471428Y-154552380D02*
X74376190Y-154552380D01*
X74280952Y-154600000D01*
X74233333Y-154647619D01*
X74185714Y-154742857D01*
X74138095Y-154933333D01*
X74138095Y-155171428D01*
X74185714Y-155361904D01*
X74233333Y-155457142D01*
X74280952Y-155504761D01*
X74376190Y-155552380D01*
X74471428Y-155552380D01*
X74566666Y-155504761D01*
X74614285Y-155457142D01*
X74661904Y-155361904D01*
X74709523Y-155171428D01*
X74709523Y-154933333D01*
X74661904Y-154742857D01*
X74614285Y-154647619D01*
X74566666Y-154600000D01*
X74471428Y-154552380D01*
X86066666Y-151552380D02*
X86400000Y-151076190D01*
X86638095Y-151552380D02*
X86638095Y-150552380D01*
X86257142Y-150552380D01*
X86161904Y-150600000D01*
X86114285Y-150647619D01*
X86066666Y-150742857D01*
X86066666Y-150885714D01*
X86114285Y-150980952D01*
X86161904Y-151028571D01*
X86257142Y-151076190D01*
X86638095Y-151076190D01*
X85114285Y-151552380D02*
X85685714Y-151552380D01*
X85400000Y-151552380D02*
X85400000Y-150552380D01*
X85495238Y-150695238D01*
X85590476Y-150790476D01*
X85685714Y-150838095D01*
X86066666Y-139552380D02*
X86400000Y-139076190D01*
X86638095Y-139552380D02*
X86638095Y-138552380D01*
X86257142Y-138552380D01*
X86161904Y-138600000D01*
X86114285Y-138647619D01*
X86066666Y-138742857D01*
X86066666Y-138885714D01*
X86114285Y-138980952D01*
X86161904Y-139028571D01*
X86257142Y-139076190D01*
X86638095Y-139076190D01*
X85685714Y-138647619D02*
X85638095Y-138600000D01*
X85542857Y-138552380D01*
X85304761Y-138552380D01*
X85209523Y-138600000D01*
X85161904Y-138647619D01*
X85114285Y-138742857D01*
X85114285Y-138838095D01*
X85161904Y-138980952D01*
X85733333Y-139552380D01*
X85114285Y-139552380D01*
X96066666Y-139552380D02*
X96400000Y-139076190D01*
X96638095Y-139552380D02*
X96638095Y-138552380D01*
X96257142Y-138552380D01*
X96161904Y-138600000D01*
X96114285Y-138647619D01*
X96066666Y-138742857D01*
X96066666Y-138885714D01*
X96114285Y-138980952D01*
X96161904Y-139028571D01*
X96257142Y-139076190D01*
X96638095Y-139076190D01*
X95733333Y-138552380D02*
X95114285Y-138552380D01*
X95447619Y-138933333D01*
X95304761Y-138933333D01*
X95209523Y-138980952D01*
X95161904Y-139028571D01*
X95114285Y-139123809D01*
X95114285Y-139361904D01*
X95161904Y-139457142D01*
X95209523Y-139504761D01*
X95304761Y-139552380D01*
X95590476Y-139552380D01*
X95685714Y-139504761D01*
X95733333Y-139457142D01*
X106066666Y-139552380D02*
X106400000Y-139076190D01*
X106638095Y-139552380D02*
X106638095Y-138552380D01*
X106257142Y-138552380D01*
X106161904Y-138600000D01*
X106114285Y-138647619D01*
X106066666Y-138742857D01*
X106066666Y-138885714D01*
X106114285Y-138980952D01*
X106161904Y-139028571D01*
X106257142Y-139076190D01*
X106638095Y-139076190D01*
X105209523Y-138885714D02*
X105209523Y-139552380D01*
X105447619Y-138504761D02*
X105685714Y-139219047D01*
X105066666Y-139219047D01*
X86066666Y-127552380D02*
X86400000Y-127076190D01*
X86638095Y-127552380D02*
X86638095Y-126552380D01*
X86257142Y-126552380D01*
X86161904Y-126600000D01*
X86114285Y-126647619D01*
X86066666Y-126742857D01*
X86066666Y-126885714D01*
X86114285Y-126980952D01*
X86161904Y-127028571D01*
X86257142Y-127076190D01*
X86638095Y-127076190D01*
X85161904Y-126552380D02*
X85638095Y-126552380D01*
X85685714Y-127028571D01*
X85638095Y-126980952D01*
X85542857Y-126933333D01*
X85304761Y-126933333D01*
X85209523Y-126980952D01*
X85161904Y-127028571D01*
X85114285Y-127123809D01*
X85114285Y-127361904D01*
X85161904Y-127457142D01*
X85209523Y-127504761D01*
X85304761Y-127552380D01*
X85542857Y-127552380D01*
X85638095Y-127504761D01*
X85685714Y-127457142D01*
X86066666Y-153552380D02*
X86400000Y-153076190D01*
X86638095Y-153552380D02*
X86638095Y-152552380D01*
X86257142Y-152552380D01*
X86161904Y-152600000D01*
X86114285Y-152647619D01*
X86066666Y-152742857D01*
X86066666Y-152885714D01*
X86114285Y-152980952D01*
X86161904Y-153028571D01*
X86257142Y-153076190D01*
X86638095Y-153076190D01*
X85209523Y-152552380D02*
X85400000Y-152552380D01*
X85495238Y-152600000D01*
X85542857Y-152647619D01*
X85638095Y-152790476D01*
X85685714Y-152980952D01*
X85685714Y-153361904D01*
X85638095Y-153457142D01*
X85590476Y-153504761D01*
X85495238Y-153552380D01*
X85304761Y-153552380D01*
X85209523Y-153504761D01*
X85161904Y-153457142D01*
X85114285Y-153361904D01*
X85114285Y-153123809D01*
X85161904Y-153028571D01*
X85209523Y-152980952D01*
X85304761Y-152933333D01*
X85495238Y-152933333D01*
X85590476Y-152980952D01*
X85638095Y-153028571D01*
X85685714Y-153123809D01*
X86066666Y-141552380D02*
X86400000Y-141076190D01*
X86638095Y-141552380D02*
X86638095Y-140552380D01*
X86257142Y-140552380D01*
X86161904Y-140600000D01*
X86114285Y-140647619D01*
X86066666Y-140742857D01*
X86066666Y-140885714D01*
X86114285Y-140980952D01*
X86161904Y-141028571D01*
X86257142Y-141076190D01*
X86638095Y-141076190D01*
X85733333Y-140552380D02*
X85066666Y-140552380D01*
X85495238Y-141552380D01*
X96066666Y-141552380D02*
X96400000Y-141076190D01*
X96638095Y-141552380D02*
X96638095Y-140552380D01*
X96257142Y-140552380D01*
X96161904Y-140600000D01*
X96114285Y-140647619D01*
X96066666Y-140742857D01*
X96066666Y-140885714D01*
X96114285Y-140980952D01*
X96161904Y-141028571D01*
X96257142Y-141076190D01*
X96638095Y-141076190D01*
X95495238Y-140980952D02*
X95590476Y-140933333D01*
X95638095Y-140885714D01*
X95685714Y-140790476D01*
X95685714Y-140742857D01*
X95638095Y-140647619D01*
X95590476Y-140600000D01*
X95495238Y-140552380D01*
X95304761Y-140552380D01*
X95209523Y-140600000D01*
X95161904Y-140647619D01*
X95114285Y-140742857D01*
X95114285Y-140790476D01*
X95161904Y-140885714D01*
X95209523Y-140933333D01*
X95304761Y-140980952D01*
X95495238Y-140980952D01*
X95590476Y-141028571D01*
X95638095Y-141076190D01*
X95685714Y-141171428D01*
X95685714Y-141361904D01*
X95638095Y-141457142D01*
X95590476Y-141504761D01*
X95495238Y-141552380D01*
X95304761Y-141552380D01*
X95209523Y-141504761D01*
X95161904Y-141457142D01*
X95114285Y-141361904D01*
X95114285Y-141171428D01*
X95161904Y-141076190D01*
X95209523Y-141028571D01*
X95304761Y-140980952D01*
X106066666Y-141552380D02*
X106400000Y-141076190D01*
X106638095Y-141552380D02*
X106638095Y-140552380D01*
X106257142Y-140552380D01*
X106161904Y-140600000D01*
X106114285Y-140647619D01*
X106066666Y-140742857D01*
X106066666Y-140885714D01*
X106114285Y-140980952D01*
X106161904Y-141028571D01*
X106257142Y-141076190D01*
X106638095Y-141076190D01*
X105590476Y-141552380D02*
X105400000Y-141552380D01*
X105304761Y-141504761D01*
X105257142Y-141457142D01*
X105161904Y-141314285D01*
X105114285Y-141123809D01*
X105114285Y-140742857D01*
X105161904Y-140647619D01*
X105209523Y-140600000D01*
X105304761Y-140552380D01*
X105495238Y-140552380D01*
X105590476Y-140600000D01*
X105638095Y-140647619D01*
X105685714Y-140742857D01*
X105685714Y-140980952D01*
X105638095Y-141076190D01*
X105590476Y-141123809D01*
X105495238Y-141171428D01*
X105304761Y-141171428D01*
X105209523Y-141123809D01*
X105161904Y-141076190D01*
X105114285Y-140980952D01*
X86042857Y-129552380D02*
X86376190Y-129076190D01*
X86614285Y-129552380D02*
X86614285Y-128552380D01*
X86233333Y-128552380D01*
X86138095Y-128600000D01*
X86090476Y-128647619D01*
X86042857Y-128742857D01*
X86042857Y-128885714D01*
X86090476Y-128980952D01*
X86138095Y-129028571D01*
X86233333Y-129076190D01*
X86614285Y-129076190D01*
X85090476Y-129552380D02*
X85661904Y-129552380D01*
X85376190Y-129552380D02*
X85376190Y-128552380D01*
X85471428Y-128695238D01*
X85566666Y-128790476D01*
X85661904Y-128838095D01*
X84471428Y-128552380D02*
X84376190Y-128552380D01*
X84280952Y-128600000D01*
X84233333Y-128647619D01*
X84185714Y-128742857D01*
X84138095Y-128933333D01*
X84138095Y-129171428D01*
X84185714Y-129361904D01*
X84233333Y-129457142D01*
X84280952Y-129504761D01*
X84376190Y-129552380D01*
X84471428Y-129552380D01*
X84566666Y-129504761D01*
X84614285Y-129457142D01*
X84661904Y-129361904D01*
X84709523Y-129171428D01*
X84709523Y-128933333D01*
X84661904Y-128742857D01*
X84614285Y-128647619D01*
X84566666Y-128600000D01*
X84471428Y-128552380D01*
X96042857Y-127552380D02*
X96376190Y-127076190D01*
X96614285Y-127552380D02*
X96614285Y-126552380D01*
X96233333Y-126552380D01*
X96138095Y-126600000D01*
X96090476Y-126647619D01*
X96042857Y-126742857D01*
X96042857Y-126885714D01*
X96090476Y-126980952D01*
X96138095Y-127028571D01*
X96233333Y-127076190D01*
X96614285Y-127076190D01*
X95090476Y-127552380D02*
X95661904Y-127552380D01*
X95376190Y-127552380D02*
X95376190Y-126552380D01*
X95471428Y-126695238D01*
X95566666Y-126790476D01*
X95661904Y-126838095D01*
X94138095Y-127552380D02*
X94709523Y-127552380D01*
X94423809Y-127552380D02*
X94423809Y-126552380D01*
X94519047Y-126695238D01*
X94614285Y-126790476D01*
X94709523Y-126838095D01*
X106042857Y-127552380D02*
X106376190Y-127076190D01*
X106614285Y-127552380D02*
X106614285Y-126552380D01*
X106233333Y-126552380D01*
X106138095Y-126600000D01*
X106090476Y-126647619D01*
X106042857Y-126742857D01*
X106042857Y-126885714D01*
X106090476Y-126980952D01*
X106138095Y-127028571D01*
X106233333Y-127076190D01*
X106614285Y-127076190D01*
X105090476Y-127552380D02*
X105661904Y-127552380D01*
X105376190Y-127552380D02*
X105376190Y-126552380D01*
X105471428Y-126695238D01*
X105566666Y-126790476D01*
X105661904Y-126838095D01*
X104709523Y-126647619D02*
X104661904Y-126600000D01*
X104566666Y-126552380D01*
X104328571Y-126552380D01*
X104233333Y-126600000D01*
X104185714Y-126647619D01*
X104138095Y-126742857D01*
X104138095Y-126838095D01*
X104185714Y-126980952D01*
X104757142Y-127552380D01*
X104138095Y-127552380D01*
X86042857Y-115552380D02*
X86376190Y-115076190D01*
X86614285Y-115552380D02*
X86614285Y-114552380D01*
X86233333Y-114552380D01*
X86138095Y-114600000D01*
X86090476Y-114647619D01*
X86042857Y-114742857D01*
X86042857Y-114885714D01*
X86090476Y-114980952D01*
X86138095Y-115028571D01*
X86233333Y-115076190D01*
X86614285Y-115076190D01*
X85090476Y-115552380D02*
X85661904Y-115552380D01*
X85376190Y-115552380D02*
X85376190Y-114552380D01*
X85471428Y-114695238D01*
X85566666Y-114790476D01*
X85661904Y-114838095D01*
X84757142Y-114552380D02*
X84138095Y-114552380D01*
X84471428Y-114933333D01*
X84328571Y-114933333D01*
X84233333Y-114980952D01*
X84185714Y-115028571D01*
X84138095Y-115123809D01*
X84138095Y-115361904D01*
X84185714Y-115457142D01*
X84233333Y-115504761D01*
X84328571Y-115552380D01*
X84614285Y-115552380D01*
X84709523Y-115504761D01*
X84757142Y-115457142D01*
X96042857Y-115552380D02*
X96376190Y-115076190D01*
X96614285Y-115552380D02*
X96614285Y-114552380D01*
X96233333Y-114552380D01*
X96138095Y-114600000D01*
X96090476Y-114647619D01*
X96042857Y-114742857D01*
X96042857Y-114885714D01*
X96090476Y-114980952D01*
X96138095Y-115028571D01*
X96233333Y-115076190D01*
X96614285Y-115076190D01*
X95090476Y-115552380D02*
X95661904Y-115552380D01*
X95376190Y-115552380D02*
X95376190Y-114552380D01*
X95471428Y-114695238D01*
X95566666Y-114790476D01*
X95661904Y-114838095D01*
X94233333Y-114885714D02*
X94233333Y-115552380D01*
X94471428Y-114504761D02*
X94709523Y-115219047D01*
X94090476Y-115219047D01*
X106042857Y-115552380D02*
X106376190Y-115076190D01*
X106614285Y-115552380D02*
X106614285Y-114552380D01*
X106233333Y-114552380D01*
X106138095Y-114600000D01*
X106090476Y-114647619D01*
X106042857Y-114742857D01*
X106042857Y-114885714D01*
X106090476Y-114980952D01*
X106138095Y-115028571D01*
X106233333Y-115076190D01*
X106614285Y-115076190D01*
X105090476Y-115552380D02*
X105661904Y-115552380D01*
X105376190Y-115552380D02*
X105376190Y-114552380D01*
X105471428Y-114695238D01*
X105566666Y-114790476D01*
X105661904Y-114838095D01*
X104185714Y-114552380D02*
X104661904Y-114552380D01*
X104709523Y-115028571D01*
X104661904Y-114980952D01*
X104566666Y-114933333D01*
X104328571Y-114933333D01*
X104233333Y-114980952D01*
X104185714Y-115028571D01*
X104138095Y-115123809D01*
X104138095Y-115361904D01*
X104185714Y-115457142D01*
X104233333Y-115504761D01*
X104328571Y-115552380D01*
X104566666Y-115552380D01*
X104661904Y-115504761D01*
X104709523Y-115457142D01*
X96042857Y-129552380D02*
X96376190Y-129076190D01*
X96614285Y-129552380D02*
X96614285Y-128552380D01*
X96233333Y-128552380D01*
X96138095Y-128600000D01*
X96090476Y-128647619D01*
X96042857Y-128742857D01*
X96042857Y-128885714D01*
X96090476Y-128980952D01*
X96138095Y-129028571D01*
X96233333Y-129076190D01*
X96614285Y-129076190D01*
X95090476Y-129552380D02*
X95661904Y-129552380D01*
X95376190Y-129552380D02*
X95376190Y-128552380D01*
X95471428Y-128695238D01*
X95566666Y-128790476D01*
X95661904Y-128838095D01*
X94233333Y-128552380D02*
X94423809Y-128552380D01*
X94519047Y-128600000D01*
X94566666Y-128647619D01*
X94661904Y-128790476D01*
X94709523Y-128980952D01*
X94709523Y-129361904D01*
X94661904Y-129457142D01*
X94614285Y-129504761D01*
X94519047Y-129552380D01*
X94328571Y-129552380D01*
X94233333Y-129504761D01*
X94185714Y-129457142D01*
X94138095Y-129361904D01*
X94138095Y-129123809D01*
X94185714Y-129028571D01*
X94233333Y-128980952D01*
X94328571Y-128933333D01*
X94519047Y-128933333D01*
X94614285Y-128980952D01*
X94661904Y-129028571D01*
X94709523Y-129123809D01*
X106042857Y-129552380D02*
X106376190Y-129076190D01*
X106614285Y-129552380D02*
X106614285Y-128552380D01*
X106233333Y-128552380D01*
X106138095Y-128600000D01*
X106090476Y-128647619D01*
X106042857Y-128742857D01*
X106042857Y-128885714D01*
X106090476Y-128980952D01*
X106138095Y-129028571D01*
X106233333Y-129076190D01*
X106614285Y-129076190D01*
X105090476Y-129552380D02*
X105661904Y-129552380D01*
X105376190Y-129552380D02*
X105376190Y-128552380D01*
X105471428Y-128695238D01*
X105566666Y-128790476D01*
X105661904Y-128838095D01*
X104757142Y-128552380D02*
X104090476Y-128552380D01*
X104519047Y-129552380D01*
X86042857Y-117552380D02*
X86376190Y-117076190D01*
X86614285Y-117552380D02*
X86614285Y-116552380D01*
X86233333Y-116552380D01*
X86138095Y-116600000D01*
X86090476Y-116647619D01*
X86042857Y-116742857D01*
X86042857Y-116885714D01*
X86090476Y-116980952D01*
X86138095Y-117028571D01*
X86233333Y-117076190D01*
X86614285Y-117076190D01*
X85090476Y-117552380D02*
X85661904Y-117552380D01*
X85376190Y-117552380D02*
X85376190Y-116552380D01*
X85471428Y-116695238D01*
X85566666Y-116790476D01*
X85661904Y-116838095D01*
X84519047Y-116980952D02*
X84614285Y-116933333D01*
X84661904Y-116885714D01*
X84709523Y-116790476D01*
X84709523Y-116742857D01*
X84661904Y-116647619D01*
X84614285Y-116600000D01*
X84519047Y-116552380D01*
X84328571Y-116552380D01*
X84233333Y-116600000D01*
X84185714Y-116647619D01*
X84138095Y-116742857D01*
X84138095Y-116790476D01*
X84185714Y-116885714D01*
X84233333Y-116933333D01*
X84328571Y-116980952D01*
X84519047Y-116980952D01*
X84614285Y-117028571D01*
X84661904Y-117076190D01*
X84709523Y-117171428D01*
X84709523Y-117361904D01*
X84661904Y-117457142D01*
X84614285Y-117504761D01*
X84519047Y-117552380D01*
X84328571Y-117552380D01*
X84233333Y-117504761D01*
X84185714Y-117457142D01*
X84138095Y-117361904D01*
X84138095Y-117171428D01*
X84185714Y-117076190D01*
X84233333Y-117028571D01*
X84328571Y-116980952D01*
X96042857Y-117552380D02*
X96376190Y-117076190D01*
X96614285Y-117552380D02*
X96614285Y-116552380D01*
X96233333Y-116552380D01*
X96138095Y-116600000D01*
X96090476Y-116647619D01*
X96042857Y-116742857D01*
X96042857Y-116885714D01*
X96090476Y-116980952D01*
X96138095Y-117028571D01*
X96233333Y-117076190D01*
X96614285Y-117076190D01*
X95090476Y-117552380D02*
X95661904Y-117552380D01*
X95376190Y-117552380D02*
X95376190Y-116552380D01*
X95471428Y-116695238D01*
X95566666Y-116790476D01*
X95661904Y-116838095D01*
X94614285Y-117552380D02*
X94423809Y-117552380D01*
X94328571Y-117504761D01*
X94280952Y-117457142D01*
X94185714Y-117314285D01*
X94138095Y-117123809D01*
X94138095Y-116742857D01*
X94185714Y-116647619D01*
X94233333Y-116600000D01*
X94328571Y-116552380D01*
X94519047Y-116552380D01*
X94614285Y-116600000D01*
X94661904Y-116647619D01*
X94709523Y-116742857D01*
X94709523Y-116980952D01*
X94661904Y-117076190D01*
X94614285Y-117123809D01*
X94519047Y-117171428D01*
X94328571Y-117171428D01*
X94233333Y-117123809D01*
X94185714Y-117076190D01*
X94138095Y-116980952D01*
X106042857Y-117552380D02*
X106376190Y-117076190D01*
X106614285Y-117552380D02*
X106614285Y-116552380D01*
X106233333Y-116552380D01*
X106138095Y-116600000D01*
X106090476Y-116647619D01*
X106042857Y-116742857D01*
X106042857Y-116885714D01*
X106090476Y-116980952D01*
X106138095Y-117028571D01*
X106233333Y-117076190D01*
X106614285Y-117076190D01*
X105661904Y-116647619D02*
X105614285Y-116600000D01*
X105519047Y-116552380D01*
X105280952Y-116552380D01*
X105185714Y-116600000D01*
X105138095Y-116647619D01*
X105090476Y-116742857D01*
X105090476Y-116838095D01*
X105138095Y-116980952D01*
X105709523Y-117552380D01*
X105090476Y-117552380D01*
X104471428Y-116552380D02*
X104376190Y-116552380D01*
X104280952Y-116600000D01*
X104233333Y-116647619D01*
X104185714Y-116742857D01*
X104138095Y-116933333D01*
X104138095Y-117171428D01*
X104185714Y-117361904D01*
X104233333Y-117457142D01*
X104280952Y-117504761D01*
X104376190Y-117552380D01*
X104471428Y-117552380D01*
X104566666Y-117504761D01*
X104614285Y-117457142D01*
X104661904Y-117361904D01*
X104709523Y-117171428D01*
X104709523Y-116933333D01*
X104661904Y-116742857D01*
X104614285Y-116647619D01*
X104566666Y-116600000D01*
X104471428Y-116552380D01*
X116042857Y-139552380D02*
X116376190Y-139076190D01*
X116614285Y-139552380D02*
X116614285Y-138552380D01*
X116233333Y-138552380D01*
X116138095Y-138600000D01*
X116090476Y-138647619D01*
X116042857Y-138742857D01*
X116042857Y-138885714D01*
X116090476Y-138980952D01*
X116138095Y-139028571D01*
X116233333Y-139076190D01*
X116614285Y-139076190D01*
X115661904Y-138647619D02*
X115614285Y-138600000D01*
X115519047Y-138552380D01*
X115280952Y-138552380D01*
X115185714Y-138600000D01*
X115138095Y-138647619D01*
X115090476Y-138742857D01*
X115090476Y-138838095D01*
X115138095Y-138980952D01*
X115709523Y-139552380D01*
X115090476Y-139552380D01*
X114138095Y-139552380D02*
X114709523Y-139552380D01*
X114423809Y-139552380D02*
X114423809Y-138552380D01*
X114519047Y-138695238D01*
X114614285Y-138790476D01*
X114709523Y-138838095D01*
X116042857Y-127552380D02*
X116376190Y-127076190D01*
X116614285Y-127552380D02*
X116614285Y-126552380D01*
X116233333Y-126552380D01*
X116138095Y-126600000D01*
X116090476Y-126647619D01*
X116042857Y-126742857D01*
X116042857Y-126885714D01*
X116090476Y-126980952D01*
X116138095Y-127028571D01*
X116233333Y-127076190D01*
X116614285Y-127076190D01*
X115661904Y-126647619D02*
X115614285Y-126600000D01*
X115519047Y-126552380D01*
X115280952Y-126552380D01*
X115185714Y-126600000D01*
X115138095Y-126647619D01*
X115090476Y-126742857D01*
X115090476Y-126838095D01*
X115138095Y-126980952D01*
X115709523Y-127552380D01*
X115090476Y-127552380D01*
X114709523Y-126647619D02*
X114661904Y-126600000D01*
X114566666Y-126552380D01*
X114328571Y-126552380D01*
X114233333Y-126600000D01*
X114185714Y-126647619D01*
X114138095Y-126742857D01*
X114138095Y-126838095D01*
X114185714Y-126980952D01*
X114757142Y-127552380D01*
X114138095Y-127552380D01*
X116042857Y-115552380D02*
X116376190Y-115076190D01*
X116614285Y-115552380D02*
X116614285Y-114552380D01*
X116233333Y-114552380D01*
X116138095Y-114600000D01*
X116090476Y-114647619D01*
X116042857Y-114742857D01*
X116042857Y-114885714D01*
X116090476Y-114980952D01*
X116138095Y-115028571D01*
X116233333Y-115076190D01*
X116614285Y-115076190D01*
X115661904Y-114647619D02*
X115614285Y-114600000D01*
X115519047Y-114552380D01*
X115280952Y-114552380D01*
X115185714Y-114600000D01*
X115138095Y-114647619D01*
X115090476Y-114742857D01*
X115090476Y-114838095D01*
X115138095Y-114980952D01*
X115709523Y-115552380D01*
X115090476Y-115552380D01*
X114757142Y-114552380D02*
X114138095Y-114552380D01*
X114471428Y-114933333D01*
X114328571Y-114933333D01*
X114233333Y-114980952D01*
X114185714Y-115028571D01*
X114138095Y-115123809D01*
X114138095Y-115361904D01*
X114185714Y-115457142D01*
X114233333Y-115504761D01*
X114328571Y-115552380D01*
X114614285Y-115552380D01*
X114709523Y-115504761D01*
X114757142Y-115457142D01*
X116042857Y-103552380D02*
X116376190Y-103076190D01*
X116614285Y-103552380D02*
X116614285Y-102552380D01*
X116233333Y-102552380D01*
X116138095Y-102600000D01*
X116090476Y-102647619D01*
X116042857Y-102742857D01*
X116042857Y-102885714D01*
X116090476Y-102980952D01*
X116138095Y-103028571D01*
X116233333Y-103076190D01*
X116614285Y-103076190D01*
X115661904Y-102647619D02*
X115614285Y-102600000D01*
X115519047Y-102552380D01*
X115280952Y-102552380D01*
X115185714Y-102600000D01*
X115138095Y-102647619D01*
X115090476Y-102742857D01*
X115090476Y-102838095D01*
X115138095Y-102980952D01*
X115709523Y-103552380D01*
X115090476Y-103552380D01*
X114233333Y-102885714D02*
X114233333Y-103552380D01*
X114471428Y-102504761D02*
X114709523Y-103219047D01*
X114090476Y-103219047D01*
X106042857Y-91552380D02*
X106376190Y-91076190D01*
X106614285Y-91552380D02*
X106614285Y-90552380D01*
X106233333Y-90552380D01*
X106138095Y-90600000D01*
X106090476Y-90647619D01*
X106042857Y-90742857D01*
X106042857Y-90885714D01*
X106090476Y-90980952D01*
X106138095Y-91028571D01*
X106233333Y-91076190D01*
X106614285Y-91076190D01*
X105661904Y-90647619D02*
X105614285Y-90600000D01*
X105519047Y-90552380D01*
X105280952Y-90552380D01*
X105185714Y-90600000D01*
X105138095Y-90647619D01*
X105090476Y-90742857D01*
X105090476Y-90838095D01*
X105138095Y-90980952D01*
X105709523Y-91552380D01*
X105090476Y-91552380D01*
X104185714Y-90552380D02*
X104661904Y-90552380D01*
X104709523Y-91028571D01*
X104661904Y-90980952D01*
X104566666Y-90933333D01*
X104328571Y-90933333D01*
X104233333Y-90980952D01*
X104185714Y-91028571D01*
X104138095Y-91123809D01*
X104138095Y-91361904D01*
X104185714Y-91457142D01*
X104233333Y-91504761D01*
X104328571Y-91552380D01*
X104566666Y-91552380D01*
X104661904Y-91504761D01*
X104709523Y-91457142D01*
X116042857Y-141552380D02*
X116376190Y-141076190D01*
X116614285Y-141552380D02*
X116614285Y-140552380D01*
X116233333Y-140552380D01*
X116138095Y-140600000D01*
X116090476Y-140647619D01*
X116042857Y-140742857D01*
X116042857Y-140885714D01*
X116090476Y-140980952D01*
X116138095Y-141028571D01*
X116233333Y-141076190D01*
X116614285Y-141076190D01*
X115661904Y-140647619D02*
X115614285Y-140600000D01*
X115519047Y-140552380D01*
X115280952Y-140552380D01*
X115185714Y-140600000D01*
X115138095Y-140647619D01*
X115090476Y-140742857D01*
X115090476Y-140838095D01*
X115138095Y-140980952D01*
X115709523Y-141552380D01*
X115090476Y-141552380D01*
X114233333Y-140552380D02*
X114423809Y-140552380D01*
X114519047Y-140600000D01*
X114566666Y-140647619D01*
X114661904Y-140790476D01*
X114709523Y-140980952D01*
X114709523Y-141361904D01*
X114661904Y-141457142D01*
X114614285Y-141504761D01*
X114519047Y-141552380D01*
X114328571Y-141552380D01*
X114233333Y-141504761D01*
X114185714Y-141457142D01*
X114138095Y-141361904D01*
X114138095Y-141123809D01*
X114185714Y-141028571D01*
X114233333Y-140980952D01*
X114328571Y-140933333D01*
X114519047Y-140933333D01*
X114614285Y-140980952D01*
X114661904Y-141028571D01*
X114709523Y-141123809D01*
X116042857Y-129552380D02*
X116376190Y-129076190D01*
X116614285Y-129552380D02*
X116614285Y-128552380D01*
X116233333Y-128552380D01*
X116138095Y-128600000D01*
X116090476Y-128647619D01*
X116042857Y-128742857D01*
X116042857Y-128885714D01*
X116090476Y-128980952D01*
X116138095Y-129028571D01*
X116233333Y-129076190D01*
X116614285Y-129076190D01*
X115661904Y-128647619D02*
X115614285Y-128600000D01*
X115519047Y-128552380D01*
X115280952Y-128552380D01*
X115185714Y-128600000D01*
X115138095Y-128647619D01*
X115090476Y-128742857D01*
X115090476Y-128838095D01*
X115138095Y-128980952D01*
X115709523Y-129552380D01*
X115090476Y-129552380D01*
X114757142Y-128552380D02*
X114090476Y-128552380D01*
X114519047Y-129552380D01*
X116042857Y-117552380D02*
X116376190Y-117076190D01*
X116614285Y-117552380D02*
X116614285Y-116552380D01*
X116233333Y-116552380D01*
X116138095Y-116600000D01*
X116090476Y-116647619D01*
X116042857Y-116742857D01*
X116042857Y-116885714D01*
X116090476Y-116980952D01*
X116138095Y-117028571D01*
X116233333Y-117076190D01*
X116614285Y-117076190D01*
X115661904Y-116647619D02*
X115614285Y-116600000D01*
X115519047Y-116552380D01*
X115280952Y-116552380D01*
X115185714Y-116600000D01*
X115138095Y-116647619D01*
X115090476Y-116742857D01*
X115090476Y-116838095D01*
X115138095Y-116980952D01*
X115709523Y-117552380D01*
X115090476Y-117552380D01*
X114519047Y-116980952D02*
X114614285Y-116933333D01*
X114661904Y-116885714D01*
X114709523Y-116790476D01*
X114709523Y-116742857D01*
X114661904Y-116647619D01*
X114614285Y-116600000D01*
X114519047Y-116552380D01*
X114328571Y-116552380D01*
X114233333Y-116600000D01*
X114185714Y-116647619D01*
X114138095Y-116742857D01*
X114138095Y-116790476D01*
X114185714Y-116885714D01*
X114233333Y-116933333D01*
X114328571Y-116980952D01*
X114519047Y-116980952D01*
X114614285Y-117028571D01*
X114661904Y-117076190D01*
X114709523Y-117171428D01*
X114709523Y-117361904D01*
X114661904Y-117457142D01*
X114614285Y-117504761D01*
X114519047Y-117552380D01*
X114328571Y-117552380D01*
X114233333Y-117504761D01*
X114185714Y-117457142D01*
X114138095Y-117361904D01*
X114138095Y-117171428D01*
X114185714Y-117076190D01*
X114233333Y-117028571D01*
X114328571Y-116980952D01*
X116042857Y-105552380D02*
X116376190Y-105076190D01*
X116614285Y-105552380D02*
X116614285Y-104552380D01*
X116233333Y-104552380D01*
X116138095Y-104600000D01*
X116090476Y-104647619D01*
X116042857Y-104742857D01*
X116042857Y-104885714D01*
X116090476Y-104980952D01*
X116138095Y-105028571D01*
X116233333Y-105076190D01*
X116614285Y-105076190D01*
X115661904Y-104647619D02*
X115614285Y-104600000D01*
X115519047Y-104552380D01*
X115280952Y-104552380D01*
X115185714Y-104600000D01*
X115138095Y-104647619D01*
X115090476Y-104742857D01*
X115090476Y-104838095D01*
X115138095Y-104980952D01*
X115709523Y-105552380D01*
X115090476Y-105552380D01*
X114614285Y-105552380D02*
X114423809Y-105552380D01*
X114328571Y-105504761D01*
X114280952Y-105457142D01*
X114185714Y-105314285D01*
X114138095Y-105123809D01*
X114138095Y-104742857D01*
X114185714Y-104647619D01*
X114233333Y-104600000D01*
X114328571Y-104552380D01*
X114519047Y-104552380D01*
X114614285Y-104600000D01*
X114661904Y-104647619D01*
X114709523Y-104742857D01*
X114709523Y-104980952D01*
X114661904Y-105076190D01*
X114614285Y-105123809D01*
X114519047Y-105171428D01*
X114328571Y-105171428D01*
X114233333Y-105123809D01*
X114185714Y-105076190D01*
X114138095Y-104980952D01*
X106042857Y-93552380D02*
X106376190Y-93076190D01*
X106614285Y-93552380D02*
X106614285Y-92552380D01*
X106233333Y-92552380D01*
X106138095Y-92600000D01*
X106090476Y-92647619D01*
X106042857Y-92742857D01*
X106042857Y-92885714D01*
X106090476Y-92980952D01*
X106138095Y-93028571D01*
X106233333Y-93076190D01*
X106614285Y-93076190D01*
X105709523Y-92552380D02*
X105090476Y-92552380D01*
X105423809Y-92933333D01*
X105280952Y-92933333D01*
X105185714Y-92980952D01*
X105138095Y-93028571D01*
X105090476Y-93123809D01*
X105090476Y-93361904D01*
X105138095Y-93457142D01*
X105185714Y-93504761D01*
X105280952Y-93552380D01*
X105566666Y-93552380D01*
X105661904Y-93504761D01*
X105709523Y-93457142D01*
X104471428Y-92552380D02*
X104376190Y-92552380D01*
X104280952Y-92600000D01*
X104233333Y-92647619D01*
X104185714Y-92742857D01*
X104138095Y-92933333D01*
X104138095Y-93171428D01*
X104185714Y-93361904D01*
X104233333Y-93457142D01*
X104280952Y-93504761D01*
X104376190Y-93552380D01*
X104471428Y-93552380D01*
X104566666Y-93504761D01*
X104614285Y-93457142D01*
X104661904Y-93361904D01*
X104709523Y-93171428D01*
X104709523Y-92933333D01*
X104661904Y-92742857D01*
X104614285Y-92647619D01*
X104566666Y-92600000D01*
X104471428Y-92552380D01*
X76042857Y-103552380D02*
X76376190Y-103076190D01*
X76614285Y-103552380D02*
X76614285Y-102552380D01*
X76233333Y-102552380D01*
X76138095Y-102600000D01*
X76090476Y-102647619D01*
X76042857Y-102742857D01*
X76042857Y-102885714D01*
X76090476Y-102980952D01*
X76138095Y-103028571D01*
X76233333Y-103076190D01*
X76614285Y-103076190D01*
X75709523Y-102552380D02*
X75090476Y-102552380D01*
X75423809Y-102933333D01*
X75280952Y-102933333D01*
X75185714Y-102980952D01*
X75138095Y-103028571D01*
X75090476Y-103123809D01*
X75090476Y-103361904D01*
X75138095Y-103457142D01*
X75185714Y-103504761D01*
X75280952Y-103552380D01*
X75566666Y-103552380D01*
X75661904Y-103504761D01*
X75709523Y-103457142D01*
X74138095Y-103552380D02*
X74709523Y-103552380D01*
X74423809Y-103552380D02*
X74423809Y-102552380D01*
X74519047Y-102695238D01*
X74614285Y-102790476D01*
X74709523Y-102838095D01*
X86042857Y-103552380D02*
X86376190Y-103076190D01*
X86614285Y-103552380D02*
X86614285Y-102552380D01*
X86233333Y-102552380D01*
X86138095Y-102600000D01*
X86090476Y-102647619D01*
X86042857Y-102742857D01*
X86042857Y-102885714D01*
X86090476Y-102980952D01*
X86138095Y-103028571D01*
X86233333Y-103076190D01*
X86614285Y-103076190D01*
X85709523Y-102552380D02*
X85090476Y-102552380D01*
X85423809Y-102933333D01*
X85280952Y-102933333D01*
X85185714Y-102980952D01*
X85138095Y-103028571D01*
X85090476Y-103123809D01*
X85090476Y-103361904D01*
X85138095Y-103457142D01*
X85185714Y-103504761D01*
X85280952Y-103552380D01*
X85566666Y-103552380D01*
X85661904Y-103504761D01*
X85709523Y-103457142D01*
X84709523Y-102647619D02*
X84661904Y-102600000D01*
X84566666Y-102552380D01*
X84328571Y-102552380D01*
X84233333Y-102600000D01*
X84185714Y-102647619D01*
X84138095Y-102742857D01*
X84138095Y-102838095D01*
X84185714Y-102980952D01*
X84757142Y-103552380D01*
X84138095Y-103552380D01*
X96042857Y-103552380D02*
X96376190Y-103076190D01*
X96614285Y-103552380D02*
X96614285Y-102552380D01*
X96233333Y-102552380D01*
X96138095Y-102600000D01*
X96090476Y-102647619D01*
X96042857Y-102742857D01*
X96042857Y-102885714D01*
X96090476Y-102980952D01*
X96138095Y-103028571D01*
X96233333Y-103076190D01*
X96614285Y-103076190D01*
X95709523Y-102552380D02*
X95090476Y-102552380D01*
X95423809Y-102933333D01*
X95280952Y-102933333D01*
X95185714Y-102980952D01*
X95138095Y-103028571D01*
X95090476Y-103123809D01*
X95090476Y-103361904D01*
X95138095Y-103457142D01*
X95185714Y-103504761D01*
X95280952Y-103552380D01*
X95566666Y-103552380D01*
X95661904Y-103504761D01*
X95709523Y-103457142D01*
X94757142Y-102552380D02*
X94138095Y-102552380D01*
X94471428Y-102933333D01*
X94328571Y-102933333D01*
X94233333Y-102980952D01*
X94185714Y-103028571D01*
X94138095Y-103123809D01*
X94138095Y-103361904D01*
X94185714Y-103457142D01*
X94233333Y-103504761D01*
X94328571Y-103552380D01*
X94614285Y-103552380D01*
X94709523Y-103504761D01*
X94757142Y-103457142D01*
X106042857Y-103552380D02*
X106376190Y-103076190D01*
X106614285Y-103552380D02*
X106614285Y-102552380D01*
X106233333Y-102552380D01*
X106138095Y-102600000D01*
X106090476Y-102647619D01*
X106042857Y-102742857D01*
X106042857Y-102885714D01*
X106090476Y-102980952D01*
X106138095Y-103028571D01*
X106233333Y-103076190D01*
X106614285Y-103076190D01*
X105709523Y-102552380D02*
X105090476Y-102552380D01*
X105423809Y-102933333D01*
X105280952Y-102933333D01*
X105185714Y-102980952D01*
X105138095Y-103028571D01*
X105090476Y-103123809D01*
X105090476Y-103361904D01*
X105138095Y-103457142D01*
X105185714Y-103504761D01*
X105280952Y-103552380D01*
X105566666Y-103552380D01*
X105661904Y-103504761D01*
X105709523Y-103457142D01*
X104233333Y-102885714D02*
X104233333Y-103552380D01*
X104471428Y-102504761D02*
X104709523Y-103219047D01*
X104090476Y-103219047D01*
X76042857Y-91552380D02*
X76376190Y-91076190D01*
X76614285Y-91552380D02*
X76614285Y-90552380D01*
X76233333Y-90552380D01*
X76138095Y-90600000D01*
X76090476Y-90647619D01*
X76042857Y-90742857D01*
X76042857Y-90885714D01*
X76090476Y-90980952D01*
X76138095Y-91028571D01*
X76233333Y-91076190D01*
X76614285Y-91076190D01*
X75709523Y-90552380D02*
X75090476Y-90552380D01*
X75423809Y-90933333D01*
X75280952Y-90933333D01*
X75185714Y-90980952D01*
X75138095Y-91028571D01*
X75090476Y-91123809D01*
X75090476Y-91361904D01*
X75138095Y-91457142D01*
X75185714Y-91504761D01*
X75280952Y-91552380D01*
X75566666Y-91552380D01*
X75661904Y-91504761D01*
X75709523Y-91457142D01*
X74185714Y-90552380D02*
X74661904Y-90552380D01*
X74709523Y-91028571D01*
X74661904Y-90980952D01*
X74566666Y-90933333D01*
X74328571Y-90933333D01*
X74233333Y-90980952D01*
X74185714Y-91028571D01*
X74138095Y-91123809D01*
X74138095Y-91361904D01*
X74185714Y-91457142D01*
X74233333Y-91504761D01*
X74328571Y-91552380D01*
X74566666Y-91552380D01*
X74661904Y-91504761D01*
X74709523Y-91457142D01*
X76042857Y-105552380D02*
X76376190Y-105076190D01*
X76614285Y-105552380D02*
X76614285Y-104552380D01*
X76233333Y-104552380D01*
X76138095Y-104600000D01*
X76090476Y-104647619D01*
X76042857Y-104742857D01*
X76042857Y-104885714D01*
X76090476Y-104980952D01*
X76138095Y-105028571D01*
X76233333Y-105076190D01*
X76614285Y-105076190D01*
X75709523Y-104552380D02*
X75090476Y-104552380D01*
X75423809Y-104933333D01*
X75280952Y-104933333D01*
X75185714Y-104980952D01*
X75138095Y-105028571D01*
X75090476Y-105123809D01*
X75090476Y-105361904D01*
X75138095Y-105457142D01*
X75185714Y-105504761D01*
X75280952Y-105552380D01*
X75566666Y-105552380D01*
X75661904Y-105504761D01*
X75709523Y-105457142D01*
X74233333Y-104552380D02*
X74423809Y-104552380D01*
X74519047Y-104600000D01*
X74566666Y-104647619D01*
X74661904Y-104790476D01*
X74709523Y-104980952D01*
X74709523Y-105361904D01*
X74661904Y-105457142D01*
X74614285Y-105504761D01*
X74519047Y-105552380D01*
X74328571Y-105552380D01*
X74233333Y-105504761D01*
X74185714Y-105457142D01*
X74138095Y-105361904D01*
X74138095Y-105123809D01*
X74185714Y-105028571D01*
X74233333Y-104980952D01*
X74328571Y-104933333D01*
X74519047Y-104933333D01*
X74614285Y-104980952D01*
X74661904Y-105028571D01*
X74709523Y-105123809D01*
X86042857Y-105552380D02*
X86376190Y-105076190D01*
X86614285Y-105552380D02*
X86614285Y-104552380D01*
X86233333Y-104552380D01*
X86138095Y-104600000D01*
X86090476Y-104647619D01*
X86042857Y-104742857D01*
X86042857Y-104885714D01*
X86090476Y-104980952D01*
X86138095Y-105028571D01*
X86233333Y-105076190D01*
X86614285Y-105076190D01*
X85709523Y-104552380D02*
X85090476Y-104552380D01*
X85423809Y-104933333D01*
X85280952Y-104933333D01*
X85185714Y-104980952D01*
X85138095Y-105028571D01*
X85090476Y-105123809D01*
X85090476Y-105361904D01*
X85138095Y-105457142D01*
X85185714Y-105504761D01*
X85280952Y-105552380D01*
X85566666Y-105552380D01*
X85661904Y-105504761D01*
X85709523Y-105457142D01*
X84757142Y-104552380D02*
X84090476Y-104552380D01*
X84519047Y-105552380D01*
X96042857Y-105552380D02*
X96376190Y-105076190D01*
X96614285Y-105552380D02*
X96614285Y-104552380D01*
X96233333Y-104552380D01*
X96138095Y-104600000D01*
X96090476Y-104647619D01*
X96042857Y-104742857D01*
X96042857Y-104885714D01*
X96090476Y-104980952D01*
X96138095Y-105028571D01*
X96233333Y-105076190D01*
X96614285Y-105076190D01*
X95709523Y-104552380D02*
X95090476Y-104552380D01*
X95423809Y-104933333D01*
X95280952Y-104933333D01*
X95185714Y-104980952D01*
X95138095Y-105028571D01*
X95090476Y-105123809D01*
X95090476Y-105361904D01*
X95138095Y-105457142D01*
X95185714Y-105504761D01*
X95280952Y-105552380D01*
X95566666Y-105552380D01*
X95661904Y-105504761D01*
X95709523Y-105457142D01*
X94519047Y-104980952D02*
X94614285Y-104933333D01*
X94661904Y-104885714D01*
X94709523Y-104790476D01*
X94709523Y-104742857D01*
X94661904Y-104647619D01*
X94614285Y-104600000D01*
X94519047Y-104552380D01*
X94328571Y-104552380D01*
X94233333Y-104600000D01*
X94185714Y-104647619D01*
X94138095Y-104742857D01*
X94138095Y-104790476D01*
X94185714Y-104885714D01*
X94233333Y-104933333D01*
X94328571Y-104980952D01*
X94519047Y-104980952D01*
X94614285Y-105028571D01*
X94661904Y-105076190D01*
X94709523Y-105171428D01*
X94709523Y-105361904D01*
X94661904Y-105457142D01*
X94614285Y-105504761D01*
X94519047Y-105552380D01*
X94328571Y-105552380D01*
X94233333Y-105504761D01*
X94185714Y-105457142D01*
X94138095Y-105361904D01*
X94138095Y-105171428D01*
X94185714Y-105076190D01*
X94233333Y-105028571D01*
X94328571Y-104980952D01*
X106042857Y-105552380D02*
X106376190Y-105076190D01*
X106614285Y-105552380D02*
X106614285Y-104552380D01*
X106233333Y-104552380D01*
X106138095Y-104600000D01*
X106090476Y-104647619D01*
X106042857Y-104742857D01*
X106042857Y-104885714D01*
X106090476Y-104980952D01*
X106138095Y-105028571D01*
X106233333Y-105076190D01*
X106614285Y-105076190D01*
X105709523Y-104552380D02*
X105090476Y-104552380D01*
X105423809Y-104933333D01*
X105280952Y-104933333D01*
X105185714Y-104980952D01*
X105138095Y-105028571D01*
X105090476Y-105123809D01*
X105090476Y-105361904D01*
X105138095Y-105457142D01*
X105185714Y-105504761D01*
X105280952Y-105552380D01*
X105566666Y-105552380D01*
X105661904Y-105504761D01*
X105709523Y-105457142D01*
X104614285Y-105552380D02*
X104423809Y-105552380D01*
X104328571Y-105504761D01*
X104280952Y-105457142D01*
X104185714Y-105314285D01*
X104138095Y-105123809D01*
X104138095Y-104742857D01*
X104185714Y-104647619D01*
X104233333Y-104600000D01*
X104328571Y-104552380D01*
X104519047Y-104552380D01*
X104614285Y-104600000D01*
X104661904Y-104647619D01*
X104709523Y-104742857D01*
X104709523Y-104980952D01*
X104661904Y-105076190D01*
X104614285Y-105123809D01*
X104519047Y-105171428D01*
X104328571Y-105171428D01*
X104233333Y-105123809D01*
X104185714Y-105076190D01*
X104138095Y-104980952D01*
X76042857Y-93552380D02*
X76376190Y-93076190D01*
X76614285Y-93552380D02*
X76614285Y-92552380D01*
X76233333Y-92552380D01*
X76138095Y-92600000D01*
X76090476Y-92647619D01*
X76042857Y-92742857D01*
X76042857Y-92885714D01*
X76090476Y-92980952D01*
X76138095Y-93028571D01*
X76233333Y-93076190D01*
X76614285Y-93076190D01*
X75185714Y-92885714D02*
X75185714Y-93552380D01*
X75423809Y-92504761D02*
X75661904Y-93219047D01*
X75042857Y-93219047D01*
X74471428Y-92552380D02*
X74376190Y-92552380D01*
X74280952Y-92600000D01*
X74233333Y-92647619D01*
X74185714Y-92742857D01*
X74138095Y-92933333D01*
X74138095Y-93171428D01*
X74185714Y-93361904D01*
X74233333Y-93457142D01*
X74280952Y-93504761D01*
X74376190Y-93552380D01*
X74471428Y-93552380D01*
X74566666Y-93504761D01*
X74614285Y-93457142D01*
X74661904Y-93361904D01*
X74709523Y-93171428D01*
X74709523Y-92933333D01*
X74661904Y-92742857D01*
X74614285Y-92647619D01*
X74566666Y-92600000D01*
X74471428Y-92552380D01*
X86042857Y-91552380D02*
X86376190Y-91076190D01*
X86614285Y-91552380D02*
X86614285Y-90552380D01*
X86233333Y-90552380D01*
X86138095Y-90600000D01*
X86090476Y-90647619D01*
X86042857Y-90742857D01*
X86042857Y-90885714D01*
X86090476Y-90980952D01*
X86138095Y-91028571D01*
X86233333Y-91076190D01*
X86614285Y-91076190D01*
X85185714Y-90885714D02*
X85185714Y-91552380D01*
X85423809Y-90504761D02*
X85661904Y-91219047D01*
X85042857Y-91219047D01*
X84138095Y-91552380D02*
X84709523Y-91552380D01*
X84423809Y-91552380D02*
X84423809Y-90552380D01*
X84519047Y-90695238D01*
X84614285Y-90790476D01*
X84709523Y-90838095D01*
X96042857Y-91552380D02*
X96376190Y-91076190D01*
X96614285Y-91552380D02*
X96614285Y-90552380D01*
X96233333Y-90552380D01*
X96138095Y-90600000D01*
X96090476Y-90647619D01*
X96042857Y-90742857D01*
X96042857Y-90885714D01*
X96090476Y-90980952D01*
X96138095Y-91028571D01*
X96233333Y-91076190D01*
X96614285Y-91076190D01*
X95185714Y-90885714D02*
X95185714Y-91552380D01*
X95423809Y-90504761D02*
X95661904Y-91219047D01*
X95042857Y-91219047D01*
X94709523Y-90647619D02*
X94661904Y-90600000D01*
X94566666Y-90552380D01*
X94328571Y-90552380D01*
X94233333Y-90600000D01*
X94185714Y-90647619D01*
X94138095Y-90742857D01*
X94138095Y-90838095D01*
X94185714Y-90980952D01*
X94757142Y-91552380D01*
X94138095Y-91552380D01*
X116042857Y-151552380D02*
X116376190Y-151076190D01*
X116614285Y-151552380D02*
X116614285Y-150552380D01*
X116233333Y-150552380D01*
X116138095Y-150600000D01*
X116090476Y-150647619D01*
X116042857Y-150742857D01*
X116042857Y-150885714D01*
X116090476Y-150980952D01*
X116138095Y-151028571D01*
X116233333Y-151076190D01*
X116614285Y-151076190D01*
X115185714Y-150885714D02*
X115185714Y-151552380D01*
X115423809Y-150504761D02*
X115661904Y-151219047D01*
X115042857Y-151219047D01*
X114757142Y-150552380D02*
X114138095Y-150552380D01*
X114471428Y-150933333D01*
X114328571Y-150933333D01*
X114233333Y-150980952D01*
X114185714Y-151028571D01*
X114138095Y-151123809D01*
X114138095Y-151361904D01*
X114185714Y-151457142D01*
X114233333Y-151504761D01*
X114328571Y-151552380D01*
X114614285Y-151552380D01*
X114709523Y-151504761D01*
X114757142Y-151457142D01*
X116042857Y-91552380D02*
X116376190Y-91076190D01*
X116614285Y-91552380D02*
X116614285Y-90552380D01*
X116233333Y-90552380D01*
X116138095Y-90600000D01*
X116090476Y-90647619D01*
X116042857Y-90742857D01*
X116042857Y-90885714D01*
X116090476Y-90980952D01*
X116138095Y-91028571D01*
X116233333Y-91076190D01*
X116614285Y-91076190D01*
X115185714Y-90885714D02*
X115185714Y-91552380D01*
X115423809Y-90504761D02*
X115661904Y-91219047D01*
X115042857Y-91219047D01*
X114233333Y-90885714D02*
X114233333Y-91552380D01*
X114471428Y-90504761D02*
X114709523Y-91219047D01*
X114090476Y-91219047D01*
X96042857Y-151552380D02*
X96376190Y-151076190D01*
X96614285Y-151552380D02*
X96614285Y-150552380D01*
X96233333Y-150552380D01*
X96138095Y-150600000D01*
X96090476Y-150647619D01*
X96042857Y-150742857D01*
X96042857Y-150885714D01*
X96090476Y-150980952D01*
X96138095Y-151028571D01*
X96233333Y-151076190D01*
X96614285Y-151076190D01*
X95185714Y-150885714D02*
X95185714Y-151552380D01*
X95423809Y-150504761D02*
X95661904Y-151219047D01*
X95042857Y-151219047D01*
X94185714Y-150552380D02*
X94661904Y-150552380D01*
X94709523Y-151028571D01*
X94661904Y-150980952D01*
X94566666Y-150933333D01*
X94328571Y-150933333D01*
X94233333Y-150980952D01*
X94185714Y-151028571D01*
X94138095Y-151123809D01*
X94138095Y-151361904D01*
X94185714Y-151457142D01*
X94233333Y-151504761D01*
X94328571Y-151552380D01*
X94566666Y-151552380D01*
X94661904Y-151504761D01*
X94709523Y-151457142D01*
X86042857Y-93552380D02*
X86376190Y-93076190D01*
X86614285Y-93552380D02*
X86614285Y-92552380D01*
X86233333Y-92552380D01*
X86138095Y-92600000D01*
X86090476Y-92647619D01*
X86042857Y-92742857D01*
X86042857Y-92885714D01*
X86090476Y-92980952D01*
X86138095Y-93028571D01*
X86233333Y-93076190D01*
X86614285Y-93076190D01*
X85185714Y-92885714D02*
X85185714Y-93552380D01*
X85423809Y-92504761D02*
X85661904Y-93219047D01*
X85042857Y-93219047D01*
X84233333Y-92552380D02*
X84423809Y-92552380D01*
X84519047Y-92600000D01*
X84566666Y-92647619D01*
X84661904Y-92790476D01*
X84709523Y-92980952D01*
X84709523Y-93361904D01*
X84661904Y-93457142D01*
X84614285Y-93504761D01*
X84519047Y-93552380D01*
X84328571Y-93552380D01*
X84233333Y-93504761D01*
X84185714Y-93457142D01*
X84138095Y-93361904D01*
X84138095Y-93123809D01*
X84185714Y-93028571D01*
X84233333Y-92980952D01*
X84328571Y-92933333D01*
X84519047Y-92933333D01*
X84614285Y-92980952D01*
X84661904Y-93028571D01*
X84709523Y-93123809D01*
X96042857Y-93552380D02*
X96376190Y-93076190D01*
X96614285Y-93552380D02*
X96614285Y-92552380D01*
X96233333Y-92552380D01*
X96138095Y-92600000D01*
X96090476Y-92647619D01*
X96042857Y-92742857D01*
X96042857Y-92885714D01*
X96090476Y-92980952D01*
X96138095Y-93028571D01*
X96233333Y-93076190D01*
X96614285Y-93076190D01*
X95185714Y-92885714D02*
X95185714Y-93552380D01*
X95423809Y-92504761D02*
X95661904Y-93219047D01*
X95042857Y-93219047D01*
X94757142Y-92552380D02*
X94090476Y-92552380D01*
X94519047Y-93552380D01*
X116042857Y-153552380D02*
X116376190Y-153076190D01*
X116614285Y-153552380D02*
X116614285Y-152552380D01*
X116233333Y-152552380D01*
X116138095Y-152600000D01*
X116090476Y-152647619D01*
X116042857Y-152742857D01*
X116042857Y-152885714D01*
X116090476Y-152980952D01*
X116138095Y-153028571D01*
X116233333Y-153076190D01*
X116614285Y-153076190D01*
X115185714Y-152885714D02*
X115185714Y-153552380D01*
X115423809Y-152504761D02*
X115661904Y-153219047D01*
X115042857Y-153219047D01*
X114519047Y-152980952D02*
X114614285Y-152933333D01*
X114661904Y-152885714D01*
X114709523Y-152790476D01*
X114709523Y-152742857D01*
X114661904Y-152647619D01*
X114614285Y-152600000D01*
X114519047Y-152552380D01*
X114328571Y-152552380D01*
X114233333Y-152600000D01*
X114185714Y-152647619D01*
X114138095Y-152742857D01*
X114138095Y-152790476D01*
X114185714Y-152885714D01*
X114233333Y-152933333D01*
X114328571Y-152980952D01*
X114519047Y-152980952D01*
X114614285Y-153028571D01*
X114661904Y-153076190D01*
X114709523Y-153171428D01*
X114709523Y-153361904D01*
X114661904Y-153457142D01*
X114614285Y-153504761D01*
X114519047Y-153552380D01*
X114328571Y-153552380D01*
X114233333Y-153504761D01*
X114185714Y-153457142D01*
X114138095Y-153361904D01*
X114138095Y-153171428D01*
X114185714Y-153076190D01*
X114233333Y-153028571D01*
X114328571Y-152980952D01*
X116042857Y-93552380D02*
X116376190Y-93076190D01*
X116614285Y-93552380D02*
X116614285Y-92552380D01*
X116233333Y-92552380D01*
X116138095Y-92600000D01*
X116090476Y-92647619D01*
X116042857Y-92742857D01*
X116042857Y-92885714D01*
X116090476Y-92980952D01*
X116138095Y-93028571D01*
X116233333Y-93076190D01*
X116614285Y-93076190D01*
X115185714Y-92885714D02*
X115185714Y-93552380D01*
X115423809Y-92504761D02*
X115661904Y-93219047D01*
X115042857Y-93219047D01*
X114614285Y-93552380D02*
X114423809Y-93552380D01*
X114328571Y-93504761D01*
X114280952Y-93457142D01*
X114185714Y-93314285D01*
X114138095Y-93123809D01*
X114138095Y-92742857D01*
X114185714Y-92647619D01*
X114233333Y-92600000D01*
X114328571Y-92552380D01*
X114519047Y-92552380D01*
X114614285Y-92600000D01*
X114661904Y-92647619D01*
X114709523Y-92742857D01*
X114709523Y-92980952D01*
X114661904Y-93076190D01*
X114614285Y-93123809D01*
X114519047Y-93171428D01*
X114328571Y-93171428D01*
X114233333Y-93123809D01*
X114185714Y-93076190D01*
X114138095Y-92980952D01*
X96042857Y-153552380D02*
X96376190Y-153076190D01*
X96614285Y-153552380D02*
X96614285Y-152552380D01*
X96233333Y-152552380D01*
X96138095Y-152600000D01*
X96090476Y-152647619D01*
X96042857Y-152742857D01*
X96042857Y-152885714D01*
X96090476Y-152980952D01*
X96138095Y-153028571D01*
X96233333Y-153076190D01*
X96614285Y-153076190D01*
X95138095Y-152552380D02*
X95614285Y-152552380D01*
X95661904Y-153028571D01*
X95614285Y-152980952D01*
X95519047Y-152933333D01*
X95280952Y-152933333D01*
X95185714Y-152980952D01*
X95138095Y-153028571D01*
X95090476Y-153123809D01*
X95090476Y-153361904D01*
X95138095Y-153457142D01*
X95185714Y-153504761D01*
X95280952Y-153552380D01*
X95519047Y-153552380D01*
X95614285Y-153504761D01*
X95661904Y-153457142D01*
X94471428Y-152552380D02*
X94376190Y-152552380D01*
X94280952Y-152600000D01*
X94233333Y-152647619D01*
X94185714Y-152742857D01*
X94138095Y-152933333D01*
X94138095Y-153171428D01*
X94185714Y-153361904D01*
X94233333Y-153457142D01*
X94280952Y-153504761D01*
X94376190Y-153552380D01*
X94471428Y-153552380D01*
X94566666Y-153504761D01*
X94614285Y-153457142D01*
X94661904Y-153361904D01*
X94709523Y-153171428D01*
X94709523Y-152933333D01*
X94661904Y-152742857D01*
X94614285Y-152647619D01*
X94566666Y-152600000D01*
X94471428Y-152552380D01*
X106042857Y-151552380D02*
X106376190Y-151076190D01*
X106614285Y-151552380D02*
X106614285Y-150552380D01*
X106233333Y-150552380D01*
X106138095Y-150600000D01*
X106090476Y-150647619D01*
X106042857Y-150742857D01*
X106042857Y-150885714D01*
X106090476Y-150980952D01*
X106138095Y-151028571D01*
X106233333Y-151076190D01*
X106614285Y-151076190D01*
X105138095Y-150552380D02*
X105614285Y-150552380D01*
X105661904Y-151028571D01*
X105614285Y-150980952D01*
X105519047Y-150933333D01*
X105280952Y-150933333D01*
X105185714Y-150980952D01*
X105138095Y-151028571D01*
X105090476Y-151123809D01*
X105090476Y-151361904D01*
X105138095Y-151457142D01*
X105185714Y-151504761D01*
X105280952Y-151552380D01*
X105519047Y-151552380D01*
X105614285Y-151504761D01*
X105661904Y-151457142D01*
X104138095Y-151552380D02*
X104709523Y-151552380D01*
X104423809Y-151552380D02*
X104423809Y-150552380D01*
X104519047Y-150695238D01*
X104614285Y-150790476D01*
X104709523Y-150838095D01*
X76042857Y-115552380D02*
X76376190Y-115076190D01*
X76614285Y-115552380D02*
X76614285Y-114552380D01*
X76233333Y-114552380D01*
X76138095Y-114600000D01*
X76090476Y-114647619D01*
X76042857Y-114742857D01*
X76042857Y-114885714D01*
X76090476Y-114980952D01*
X76138095Y-115028571D01*
X76233333Y-115076190D01*
X76614285Y-115076190D01*
X75138095Y-114552380D02*
X75614285Y-114552380D01*
X75661904Y-115028571D01*
X75614285Y-114980952D01*
X75519047Y-114933333D01*
X75280952Y-114933333D01*
X75185714Y-114980952D01*
X75138095Y-115028571D01*
X75090476Y-115123809D01*
X75090476Y-115361904D01*
X75138095Y-115457142D01*
X75185714Y-115504761D01*
X75280952Y-115552380D01*
X75519047Y-115552380D01*
X75614285Y-115504761D01*
X75661904Y-115457142D01*
X74709523Y-114647619D02*
X74661904Y-114600000D01*
X74566666Y-114552380D01*
X74328571Y-114552380D01*
X74233333Y-114600000D01*
X74185714Y-114647619D01*
X74138095Y-114742857D01*
X74138095Y-114838095D01*
X74185714Y-114980952D01*
X74757142Y-115552380D01*
X74138095Y-115552380D01*
X76042857Y-127552380D02*
X76376190Y-127076190D01*
X76614285Y-127552380D02*
X76614285Y-126552380D01*
X76233333Y-126552380D01*
X76138095Y-126600000D01*
X76090476Y-126647619D01*
X76042857Y-126742857D01*
X76042857Y-126885714D01*
X76090476Y-126980952D01*
X76138095Y-127028571D01*
X76233333Y-127076190D01*
X76614285Y-127076190D01*
X75138095Y-126552380D02*
X75614285Y-126552380D01*
X75661904Y-127028571D01*
X75614285Y-126980952D01*
X75519047Y-126933333D01*
X75280952Y-126933333D01*
X75185714Y-126980952D01*
X75138095Y-127028571D01*
X75090476Y-127123809D01*
X75090476Y-127361904D01*
X75138095Y-127457142D01*
X75185714Y-127504761D01*
X75280952Y-127552380D01*
X75519047Y-127552380D01*
X75614285Y-127504761D01*
X75661904Y-127457142D01*
X74757142Y-126552380D02*
X74138095Y-126552380D01*
X74471428Y-126933333D01*
X74328571Y-126933333D01*
X74233333Y-126980952D01*
X74185714Y-127028571D01*
X74138095Y-127123809D01*
X74138095Y-127361904D01*
X74185714Y-127457142D01*
X74233333Y-127504761D01*
X74328571Y-127552380D01*
X74614285Y-127552380D01*
X74709523Y-127504761D01*
X74757142Y-127457142D01*
X76042857Y-139552380D02*
X76376190Y-139076190D01*
X76614285Y-139552380D02*
X76614285Y-138552380D01*
X76233333Y-138552380D01*
X76138095Y-138600000D01*
X76090476Y-138647619D01*
X76042857Y-138742857D01*
X76042857Y-138885714D01*
X76090476Y-138980952D01*
X76138095Y-139028571D01*
X76233333Y-139076190D01*
X76614285Y-139076190D01*
X75138095Y-138552380D02*
X75614285Y-138552380D01*
X75661904Y-139028571D01*
X75614285Y-138980952D01*
X75519047Y-138933333D01*
X75280952Y-138933333D01*
X75185714Y-138980952D01*
X75138095Y-139028571D01*
X75090476Y-139123809D01*
X75090476Y-139361904D01*
X75138095Y-139457142D01*
X75185714Y-139504761D01*
X75280952Y-139552380D01*
X75519047Y-139552380D01*
X75614285Y-139504761D01*
X75661904Y-139457142D01*
X74233333Y-138885714D02*
X74233333Y-139552380D01*
X74471428Y-138504761D02*
X74709523Y-139219047D01*
X74090476Y-139219047D01*
X76042857Y-151552380D02*
X76376190Y-151076190D01*
X76614285Y-151552380D02*
X76614285Y-150552380D01*
X76233333Y-150552380D01*
X76138095Y-150600000D01*
X76090476Y-150647619D01*
X76042857Y-150742857D01*
X76042857Y-150885714D01*
X76090476Y-150980952D01*
X76138095Y-151028571D01*
X76233333Y-151076190D01*
X76614285Y-151076190D01*
X75138095Y-150552380D02*
X75614285Y-150552380D01*
X75661904Y-151028571D01*
X75614285Y-150980952D01*
X75519047Y-150933333D01*
X75280952Y-150933333D01*
X75185714Y-150980952D01*
X75138095Y-151028571D01*
X75090476Y-151123809D01*
X75090476Y-151361904D01*
X75138095Y-151457142D01*
X75185714Y-151504761D01*
X75280952Y-151552380D01*
X75519047Y-151552380D01*
X75614285Y-151504761D01*
X75661904Y-151457142D01*
X74185714Y-150552380D02*
X74661904Y-150552380D01*
X74709523Y-151028571D01*
X74661904Y-150980952D01*
X74566666Y-150933333D01*
X74328571Y-150933333D01*
X74233333Y-150980952D01*
X74185714Y-151028571D01*
X74138095Y-151123809D01*
X74138095Y-151361904D01*
X74185714Y-151457142D01*
X74233333Y-151504761D01*
X74328571Y-151552380D01*
X74566666Y-151552380D01*
X74661904Y-151504761D01*
X74709523Y-151457142D01*
X106042857Y-153552380D02*
X106376190Y-153076190D01*
X106614285Y-153552380D02*
X106614285Y-152552380D01*
X106233333Y-152552380D01*
X106138095Y-152600000D01*
X106090476Y-152647619D01*
X106042857Y-152742857D01*
X106042857Y-152885714D01*
X106090476Y-152980952D01*
X106138095Y-153028571D01*
X106233333Y-153076190D01*
X106614285Y-153076190D01*
X105138095Y-152552380D02*
X105614285Y-152552380D01*
X105661904Y-153028571D01*
X105614285Y-152980952D01*
X105519047Y-152933333D01*
X105280952Y-152933333D01*
X105185714Y-152980952D01*
X105138095Y-153028571D01*
X105090476Y-153123809D01*
X105090476Y-153361904D01*
X105138095Y-153457142D01*
X105185714Y-153504761D01*
X105280952Y-153552380D01*
X105519047Y-153552380D01*
X105614285Y-153504761D01*
X105661904Y-153457142D01*
X104233333Y-152552380D02*
X104423809Y-152552380D01*
X104519047Y-152600000D01*
X104566666Y-152647619D01*
X104661904Y-152790476D01*
X104709523Y-152980952D01*
X104709523Y-153361904D01*
X104661904Y-153457142D01*
X104614285Y-153504761D01*
X104519047Y-153552380D01*
X104328571Y-153552380D01*
X104233333Y-153504761D01*
X104185714Y-153457142D01*
X104138095Y-153361904D01*
X104138095Y-153123809D01*
X104185714Y-153028571D01*
X104233333Y-152980952D01*
X104328571Y-152933333D01*
X104519047Y-152933333D01*
X104614285Y-152980952D01*
X104661904Y-153028571D01*
X104709523Y-153123809D01*
X76042857Y-117552380D02*
X76376190Y-117076190D01*
X76614285Y-117552380D02*
X76614285Y-116552380D01*
X76233333Y-116552380D01*
X76138095Y-116600000D01*
X76090476Y-116647619D01*
X76042857Y-116742857D01*
X76042857Y-116885714D01*
X76090476Y-116980952D01*
X76138095Y-117028571D01*
X76233333Y-117076190D01*
X76614285Y-117076190D01*
X75138095Y-116552380D02*
X75614285Y-116552380D01*
X75661904Y-117028571D01*
X75614285Y-116980952D01*
X75519047Y-116933333D01*
X75280952Y-116933333D01*
X75185714Y-116980952D01*
X75138095Y-117028571D01*
X75090476Y-117123809D01*
X75090476Y-117361904D01*
X75138095Y-117457142D01*
X75185714Y-117504761D01*
X75280952Y-117552380D01*
X75519047Y-117552380D01*
X75614285Y-117504761D01*
X75661904Y-117457142D01*
X74757142Y-116552380D02*
X74090476Y-116552380D01*
X74519047Y-117552380D01*
X76042857Y-129552380D02*
X76376190Y-129076190D01*
X76614285Y-129552380D02*
X76614285Y-128552380D01*
X76233333Y-128552380D01*
X76138095Y-128600000D01*
X76090476Y-128647619D01*
X76042857Y-128742857D01*
X76042857Y-128885714D01*
X76090476Y-128980952D01*
X76138095Y-129028571D01*
X76233333Y-129076190D01*
X76614285Y-129076190D01*
X75138095Y-128552380D02*
X75614285Y-128552380D01*
X75661904Y-129028571D01*
X75614285Y-128980952D01*
X75519047Y-128933333D01*
X75280952Y-128933333D01*
X75185714Y-128980952D01*
X75138095Y-129028571D01*
X75090476Y-129123809D01*
X75090476Y-129361904D01*
X75138095Y-129457142D01*
X75185714Y-129504761D01*
X75280952Y-129552380D01*
X75519047Y-129552380D01*
X75614285Y-129504761D01*
X75661904Y-129457142D01*
X74519047Y-128980952D02*
X74614285Y-128933333D01*
X74661904Y-128885714D01*
X74709523Y-128790476D01*
X74709523Y-128742857D01*
X74661904Y-128647619D01*
X74614285Y-128600000D01*
X74519047Y-128552380D01*
X74328571Y-128552380D01*
X74233333Y-128600000D01*
X74185714Y-128647619D01*
X74138095Y-128742857D01*
X74138095Y-128790476D01*
X74185714Y-128885714D01*
X74233333Y-128933333D01*
X74328571Y-128980952D01*
X74519047Y-128980952D01*
X74614285Y-129028571D01*
X74661904Y-129076190D01*
X74709523Y-129171428D01*
X74709523Y-129361904D01*
X74661904Y-129457142D01*
X74614285Y-129504761D01*
X74519047Y-129552380D01*
X74328571Y-129552380D01*
X74233333Y-129504761D01*
X74185714Y-129457142D01*
X74138095Y-129361904D01*
X74138095Y-129171428D01*
X74185714Y-129076190D01*
X74233333Y-129028571D01*
X74328571Y-128980952D01*
X76042857Y-141552380D02*
X76376190Y-141076190D01*
X76614285Y-141552380D02*
X76614285Y-140552380D01*
X76233333Y-140552380D01*
X76138095Y-140600000D01*
X76090476Y-140647619D01*
X76042857Y-140742857D01*
X76042857Y-140885714D01*
X76090476Y-140980952D01*
X76138095Y-141028571D01*
X76233333Y-141076190D01*
X76614285Y-141076190D01*
X75138095Y-140552380D02*
X75614285Y-140552380D01*
X75661904Y-141028571D01*
X75614285Y-140980952D01*
X75519047Y-140933333D01*
X75280952Y-140933333D01*
X75185714Y-140980952D01*
X75138095Y-141028571D01*
X75090476Y-141123809D01*
X75090476Y-141361904D01*
X75138095Y-141457142D01*
X75185714Y-141504761D01*
X75280952Y-141552380D01*
X75519047Y-141552380D01*
X75614285Y-141504761D01*
X75661904Y-141457142D01*
X74614285Y-141552380D02*
X74423809Y-141552380D01*
X74328571Y-141504761D01*
X74280952Y-141457142D01*
X74185714Y-141314285D01*
X74138095Y-141123809D01*
X74138095Y-140742857D01*
X74185714Y-140647619D01*
X74233333Y-140600000D01*
X74328571Y-140552380D01*
X74519047Y-140552380D01*
X74614285Y-140600000D01*
X74661904Y-140647619D01*
X74709523Y-140742857D01*
X74709523Y-140980952D01*
X74661904Y-141076190D01*
X74614285Y-141123809D01*
X74519047Y-141171428D01*
X74328571Y-141171428D01*
X74233333Y-141123809D01*
X74185714Y-141076190D01*
X74138095Y-140980952D01*
X76042857Y-153552380D02*
X76376190Y-153076190D01*
X76614285Y-153552380D02*
X76614285Y-152552380D01*
X76233333Y-152552380D01*
X76138095Y-152600000D01*
X76090476Y-152647619D01*
X76042857Y-152742857D01*
X76042857Y-152885714D01*
X76090476Y-152980952D01*
X76138095Y-153028571D01*
X76233333Y-153076190D01*
X76614285Y-153076190D01*
X75185714Y-152552380D02*
X75376190Y-152552380D01*
X75471428Y-152600000D01*
X75519047Y-152647619D01*
X75614285Y-152790476D01*
X75661904Y-152980952D01*
X75661904Y-153361904D01*
X75614285Y-153457142D01*
X75566666Y-153504761D01*
X75471428Y-153552380D01*
X75280952Y-153552380D01*
X75185714Y-153504761D01*
X75138095Y-153457142D01*
X75090476Y-153361904D01*
X75090476Y-153123809D01*
X75138095Y-153028571D01*
X75185714Y-152980952D01*
X75280952Y-152933333D01*
X75471428Y-152933333D01*
X75566666Y-152980952D01*
X75614285Y-153028571D01*
X75661904Y-153123809D01*
X74471428Y-152552380D02*
X74376190Y-152552380D01*
X74280952Y-152600000D01*
X74233333Y-152647619D01*
X74185714Y-152742857D01*
X74138095Y-152933333D01*
X74138095Y-153171428D01*
X74185714Y-153361904D01*
X74233333Y-153457142D01*
X74280952Y-153504761D01*
X74376190Y-153552380D01*
X74471428Y-153552380D01*
X74566666Y-153504761D01*
X74614285Y-153457142D01*
X74661904Y-153361904D01*
X74709523Y-153171428D01*
X74709523Y-152933333D01*
X74661904Y-152742857D01*
X74614285Y-152647619D01*
X74566666Y-152600000D01*
X74471428Y-152552380D01*
X139213333Y-116402380D02*
X139213333Y-117116666D01*
X139260952Y-117259523D01*
X139356190Y-117354761D01*
X139499047Y-117402380D01*
X139594285Y-117402380D01*
X138260952Y-116402380D02*
X138737142Y-116402380D01*
X138784761Y-116878571D01*
X138737142Y-116830952D01*
X138641904Y-116783333D01*
X138403809Y-116783333D01*
X138308571Y-116830952D01*
X138260952Y-116878571D01*
X138213333Y-116973809D01*
X138213333Y-117211904D01*
X138260952Y-117307142D01*
X138308571Y-117354761D01*
X138403809Y-117402380D01*
X138641904Y-117402380D01*
X138737142Y-117354761D01*
X138784761Y-117307142D01*
M02*
