M48
INCH,TZ
T1C0.0157
T2C0.0394
%
G90
G05
T1
X28150Y-54134
X28189Y-48543
X28307Y-52598
X28307Y-59488
X28701Y-46220
X28976Y-57244
X30157Y-42165
X30197Y-55157
X30709Y-49488
X30748Y-35079
X30748Y-44567
X30748Y-58740
X30787Y-39803
X30827Y-61654
X30866Y-52402
X31063Y-38228
X31181Y-57126
X31260Y-35276
X31260Y-40000
X31260Y-44724
X31260Y-47677
X31260Y-49449
X31260Y-54173
X31260Y-58898
X31299Y-42953
X31299Y-61654
X31929Y-53071
X32441Y-57795
X32480Y-37441
X32480Y-38740
X32480Y-46890
X32480Y-51614
X32480Y-56339
X33031Y-36654
X33031Y-41378
X33031Y-46102
X33031Y-50827
X33031Y-55551
X33031Y-60276
X33976Y-50039
X34685Y-35079
X34685Y-39803
X34685Y-44528
X34685Y-53976
X34685Y-58701
X34685Y-61850
X34724Y-38228
X34724Y-42953
X34724Y-47677
X34724Y-52402
X34724Y-57126
X35197Y-35276
X35197Y-40000
X35197Y-44724
X35197Y-49449
X35197Y-54173
X35197Y-58898
X35236Y-42953
X35236Y-47677
X35236Y-52402
X35236Y-57126
X35236Y-61850
X35276Y-38228
X36339Y-53150
X36378Y-38858
X36378Y-57913
X36417Y-37362
X36417Y-43543
X36417Y-46929
X36417Y-49921
X36969Y-36654
X36969Y-41378
X36969Y-46102
X36969Y-50827
X36969Y-55551
X36969Y-60276
X37520Y-49921
X37559Y-53189
X37638Y-57913
X38622Y-35079
X38622Y-44528
X38622Y-47677
X38661Y-38228
X38661Y-39803
X38661Y-42953
X38701Y-52402
X38701Y-57126
X38701Y-61850
X38740Y-49449
X38740Y-54173
X38740Y-58898
X39134Y-35276
X39134Y-40000
X39134Y-44724
X39134Y-49055
X39173Y-38228
X39173Y-42953
X39173Y-47677
X39213Y-52402
X39213Y-57126
X39213Y-61850
X39252Y-53976
X39252Y-58701
X40315Y-39016
X40354Y-37244
X40354Y-43740
X40354Y-47008
X40906Y-36654
X40906Y-41378
X40906Y-46102
X40906Y-50827
X40906Y-55551
X40906Y-60276
X41457Y-37283
X41457Y-43740
X41457Y-46890
X41457Y-49882
X41496Y-39016
X41575Y-57795
X41614Y-53071
X42638Y-42953
X42638Y-47677
X42638Y-52402
X42638Y-57126
X42638Y-62126
X42677Y-35276
X42677Y-38228
X42677Y-40000
X42677Y-44724
X42677Y-49449
X42677Y-54173
X42677Y-58898
X43110Y-62126
X43150Y-42953
X43150Y-47677
X43150Y-49252
X43150Y-52402
X43150Y-57126
X43189Y-35079
X43189Y-39803
X43189Y-44528
X43189Y-58701
X43819Y-37520
X43819Y-54724
X44843Y-36654
X44843Y-41378
X44843Y-46102
X44843Y-50827
X44843Y-55551
X44843Y-60276
X45354Y-61024
X45394Y-49921
X45551Y-43622
X46575Y-38228
X46575Y-42953
X46575Y-47677
X46575Y-52402
X46575Y-57126
X46614Y-35276
X46614Y-40000
X46614Y-44724
X46614Y-49449
X46614Y-54173
X46614Y-58898
X47047Y-52402
X47087Y-35079
X47087Y-39803
X47087Y-49252
X47087Y-57126
X47126Y-54016
X47165Y-44724
X47677Y-62598
X47717Y-37559
X47717Y-46890
X47756Y-42126
X47795Y-59449
X48898Y-46299
X49370Y-47559
X49370Y-52717
X49409Y-58622
X52126Y-48622
X52126Y-51142
T2
X52953Y-47134
X52953Y-48134
X52953Y-49134
X52953Y-50134
X52953Y-51134
X52953Y-52134
X52953Y-53134
X52953Y-54134
X52953Y-55134
X52953Y-56134
X50354Y-44134
X50354Y-45134
X50354Y-46134
X50354Y-47134
X50354Y-48134
X50354Y-49134
X50354Y-50134
X50354Y-51134
X50354Y-52134
X50354Y-53134
X50354Y-54134
X50354Y-55134
X50354Y-56134
X50354Y-57134
X50354Y-58134
X50354Y-59134
X50354Y-60134
X50354Y-61134
X50354Y-62134
X26339Y-44134
X26339Y-45134
X26339Y-46134
X26339Y-47134
X26339Y-48134
X26339Y-49134
X26339Y-50134
X26339Y-51134
X26339Y-52134
X26339Y-53134
X26339Y-54134
X26339Y-55134
X26339Y-56134
X26339Y-57134
X26339Y-58134
X26339Y-59134
X26339Y-60134
X26339Y-61134
X26339Y-62134
X27339Y-44134
X27339Y-45134
X27339Y-46134
X27339Y-47134
X27339Y-48134
X27339Y-49134
X27339Y-50134
X27339Y-51134
X27339Y-52134
X27339Y-53134
X27339Y-54134
X27339Y-55134
X27339Y-56134
X27339Y-57134
X27339Y-58134
X27339Y-59134
X27339Y-60134
X27339Y-61134
X27339Y-62134
X51354Y-44134
X51354Y-45134
X51354Y-46134
X51354Y-47134
X51354Y-48134
X51354Y-49134
X51354Y-50134
X51354Y-51134
X51354Y-52134
X51354Y-53134
X51354Y-54134
X51354Y-55134
X51354Y-56134
X51354Y-57134
X51354Y-58134
X51354Y-59134
X51354Y-60134
X51354Y-61134
X51354Y-62134
T0
M30
