G04 #@! TF.GenerationSoftware,KiCad,Pcbnew,5.1.6-c6e7f7d~87~ubuntu18.04.1*
G04 #@! TF.CreationDate,2021-01-02T21:50:31-05:00*
G04 #@! TF.ProjectId,dicecalc,64696365-6361-46c6-932e-6b696361645f,rev?*
G04 #@! TF.SameCoordinates,Original*
G04 #@! TF.FileFunction,Paste,Top*
G04 #@! TF.FilePolarity,Positive*
%FSLAX46Y46*%
G04 Gerber Fmt 4.6, Leading zero omitted, Abs format (unit mm)*
G04 Created by KiCad (PCBNEW 5.1.6-c6e7f7d~87~ubuntu18.04.1) date 2021-01-02 21:50:31*
%MOMM*%
%LPD*%
G01*
G04 APERTURE LIST*
%ADD10R,1.300000X1.550000*%
G04 APERTURE END LIST*
D10*
X116650000Y-145075000D03*
X121150000Y-145075000D03*
X121150000Y-137125000D03*
X116650000Y-137125000D03*
X91150000Y-157075000D03*
X86650000Y-157075000D03*
X86650000Y-149125000D03*
X91150000Y-149125000D03*
X91150000Y-137125000D03*
X86650000Y-137125000D03*
X86650000Y-145075000D03*
X91150000Y-145075000D03*
X96650000Y-145075000D03*
X101150000Y-145075000D03*
X101150000Y-137125000D03*
X96650000Y-137125000D03*
X106650000Y-145075000D03*
X111150000Y-145075000D03*
X111150000Y-137125000D03*
X106650000Y-137125000D03*
X91150000Y-125125000D03*
X86650000Y-125125000D03*
X86650000Y-133075000D03*
X91150000Y-133075000D03*
X96650000Y-125125000D03*
X101150000Y-125125000D03*
X101150000Y-133075000D03*
X96650000Y-133075000D03*
X106650000Y-133075000D03*
X111150000Y-133075000D03*
X111150000Y-125125000D03*
X106650000Y-125125000D03*
X91150000Y-113125000D03*
X86650000Y-113125000D03*
X86650000Y-121075000D03*
X91150000Y-121075000D03*
X101150000Y-113125000D03*
X96650000Y-113125000D03*
X96650000Y-121075000D03*
X101150000Y-121075000D03*
X106650000Y-113125000D03*
X111150000Y-113125000D03*
X111150000Y-121075000D03*
X106650000Y-121075000D03*
X116650000Y-133075000D03*
X121150000Y-133075000D03*
X121150000Y-125125000D03*
X116650000Y-125125000D03*
X116650000Y-113125000D03*
X121150000Y-113125000D03*
X121150000Y-121075000D03*
X116650000Y-121075000D03*
X116650000Y-101125000D03*
X121150000Y-101125000D03*
X121150000Y-109075000D03*
X116650000Y-109075000D03*
X106650000Y-89125000D03*
X111150000Y-89125000D03*
X111150000Y-97075000D03*
X106650000Y-97075000D03*
X81150000Y-101125000D03*
X76650000Y-101125000D03*
X76650000Y-109075000D03*
X81150000Y-109075000D03*
X91150000Y-101125000D03*
X86650000Y-101125000D03*
X86650000Y-109075000D03*
X91150000Y-109075000D03*
X101150000Y-101125000D03*
X96650000Y-101125000D03*
X96650000Y-109075000D03*
X101150000Y-109075000D03*
X106650000Y-109075000D03*
X111150000Y-109075000D03*
X111150000Y-101125000D03*
X106650000Y-101125000D03*
X81150000Y-97075000D03*
X76650000Y-97075000D03*
X76650000Y-89125000D03*
X81150000Y-89125000D03*
X91150000Y-97075000D03*
X86650000Y-97075000D03*
X86650000Y-89125000D03*
X91150000Y-89125000D03*
X101150000Y-89125000D03*
X96650000Y-89125000D03*
X96650000Y-97075000D03*
X101150000Y-97075000D03*
X116650000Y-149125000D03*
X121150000Y-149125000D03*
X121150000Y-157075000D03*
X116650000Y-157075000D03*
X116650000Y-97075000D03*
X121150000Y-97075000D03*
X121150000Y-89125000D03*
X116650000Y-89125000D03*
X96650000Y-149125000D03*
X101150000Y-149125000D03*
X101150000Y-157075000D03*
X96650000Y-157075000D03*
X106650000Y-149125000D03*
X111150000Y-149125000D03*
X111150000Y-157075000D03*
X106650000Y-157075000D03*
X81150000Y-121075000D03*
X76650000Y-121075000D03*
X76650000Y-113125000D03*
X81150000Y-113125000D03*
X81150000Y-133075000D03*
X76650000Y-133075000D03*
X76650000Y-125125000D03*
X81150000Y-125125000D03*
X81150000Y-145075000D03*
X76650000Y-145075000D03*
X76650000Y-137125000D03*
X81150000Y-137125000D03*
X81150000Y-157075000D03*
X76650000Y-157075000D03*
X76650000Y-149125000D03*
X81150000Y-149125000D03*
M02*
