M48
INCH,TZ
T1C0.0157
T2C0.0197
T3C0.0315
T4C0.0394
%
G90
G05
T1
X63386Y-45669
X63386Y-53346
X63976Y-47520
X64016Y-53307
X64567Y-45276
X64606Y-48465
X64764Y-53937
X64882Y-48189
X65118Y-47913
X65236Y-50354
X65748Y-45472
X65748Y-48819
X65945Y-44882
X65945Y-51378
X65945Y-53346
X66339Y-52559
X66486Y-52018
X66535Y-49016
X67126Y-54528
X67165Y-46535
X67165Y-52165
X67323Y-50000
X68268Y-54173
X68504Y-52362
X68701Y-53346
X68898Y-54331
X69094Y-47441
X69094Y-50787
X69291Y-48819
X69685Y-45276
X70394Y-54331
X70472Y-52362
T2
X65748Y-50787
X69685Y-48031
X65748Y-53937
T3
X65748Y-49606
X68748Y-49606
X65748Y-55118
X68748Y-55118
T4
X63386Y-46850
X63386Y-47850
X63386Y-48850
X63386Y-49850
T0
M30
