G04 #@! TF.GenerationSoftware,KiCad,Pcbnew,5.1.6-c6e7f7d~87~ubuntu18.04.1*
G04 #@! TF.CreationDate,2021-01-03T20:00:45-05:00*
G04 #@! TF.ProjectId,entropy,656e7472-6f70-4792-9e6b-696361645f70,rev?*
G04 #@! TF.SameCoordinates,Original*
G04 #@! TF.FileFunction,Copper,L2,Bot*
G04 #@! TF.FilePolarity,Positive*
%FSLAX46Y46*%
G04 Gerber Fmt 4.6, Leading zero omitted, Abs format (unit mm)*
G04 Created by KiCad (PCBNEW 5.1.6-c6e7f7d~87~ubuntu18.04.1) date 2021-01-03 20:00:45*
%MOMM*%
%LPD*%
G01*
G04 APERTURE LIST*
G04 #@! TA.AperFunction,ComponentPad*
%ADD10R,1.600000X1.600000*%
G04 #@! TD*
G04 #@! TA.AperFunction,ComponentPad*
%ADD11O,1.600000X1.600000*%
G04 #@! TD*
G04 #@! TA.AperFunction,ComponentPad*
%ADD12R,1.700000X1.700000*%
G04 #@! TD*
G04 #@! TA.AperFunction,ComponentPad*
%ADD13O,1.700000X1.700000*%
G04 #@! TD*
G04 #@! TA.AperFunction,ComponentPad*
%ADD14C,1.000000*%
G04 #@! TD*
G04 #@! TA.AperFunction,ViaPad*
%ADD15C,0.800000*%
G04 #@! TD*
G04 #@! TA.AperFunction,Conductor*
%ADD16C,0.600000*%
G04 #@! TD*
G04 #@! TA.AperFunction,Conductor*
%ADD17C,0.254000*%
G04 #@! TD*
G04 APERTURE END LIST*
D10*
X167000000Y-140000000D03*
D11*
X174620000Y-140000000D03*
X174620000Y-126000000D03*
D10*
X167000000Y-126000000D03*
D12*
X161000000Y-119000000D03*
D13*
X161000000Y-121540000D03*
X161000000Y-124080000D03*
X161000000Y-126620000D03*
D14*
X167000000Y-137000000D03*
X167000000Y-129000000D03*
X177000000Y-122000000D03*
D15*
X170600000Y-118200000D03*
X167500000Y-114000000D03*
X177000000Y-115000000D03*
X175500000Y-120500000D03*
X164000000Y-115000000D03*
X161000000Y-116000000D03*
X175500000Y-129000000D03*
X176000000Y-124000000D03*
X171000000Y-127000000D03*
X167000000Y-124000000D03*
X161000000Y-135500000D03*
X164500000Y-137000000D03*
X167500000Y-135500000D03*
X168500000Y-133500000D03*
X170500000Y-138500000D03*
X175000000Y-138000000D03*
X174500000Y-135500000D03*
X174000000Y-133000000D03*
X179000000Y-133000000D03*
X167500000Y-130500000D03*
X165700000Y-127900000D03*
X170600000Y-132500000D03*
X178800000Y-138000000D03*
X173400000Y-137600000D03*
X165400000Y-121700000D03*
X164800000Y-122400000D03*
X164100000Y-123100000D03*
X162500000Y-120700000D03*
X168875000Y-132125000D03*
X169000000Y-124500000D03*
X167000000Y-115500000D03*
X162600000Y-135400000D03*
D16*
X161000000Y-121540000D02*
X161660000Y-121540000D01*
X161660000Y-121540000D02*
X162500000Y-120700000D01*
X162500000Y-120700000D02*
X162500000Y-120700000D01*
X168875000Y-132125000D02*
X168875000Y-124625000D01*
X168875000Y-124625000D02*
X169000000Y-124500000D01*
X161000000Y-124080000D02*
X167000000Y-118080000D01*
X167000000Y-118080000D02*
X167000000Y-115500000D01*
X161000000Y-133800000D02*
X161000000Y-133000000D01*
X162600000Y-135400000D02*
X161000000Y-133800000D01*
X161000000Y-126620000D02*
X161000000Y-133000000D01*
D17*
G36*
X180840000Y-141840000D02*
G01*
X159160000Y-141840000D01*
X159160000Y-139200000D01*
X165561928Y-139200000D01*
X165561928Y-140800000D01*
X165574188Y-140924482D01*
X165610498Y-141044180D01*
X165669463Y-141154494D01*
X165748815Y-141251185D01*
X165845506Y-141330537D01*
X165955820Y-141389502D01*
X166075518Y-141425812D01*
X166200000Y-141438072D01*
X167800000Y-141438072D01*
X167924482Y-141425812D01*
X168044180Y-141389502D01*
X168154494Y-141330537D01*
X168251185Y-141251185D01*
X168330537Y-141154494D01*
X168389502Y-141044180D01*
X168425812Y-140924482D01*
X168438072Y-140800000D01*
X168438072Y-139858665D01*
X173185000Y-139858665D01*
X173185000Y-140141335D01*
X173240147Y-140418574D01*
X173348320Y-140679727D01*
X173505363Y-140914759D01*
X173705241Y-141114637D01*
X173940273Y-141271680D01*
X174201426Y-141379853D01*
X174478665Y-141435000D01*
X174761335Y-141435000D01*
X175038574Y-141379853D01*
X175299727Y-141271680D01*
X175534759Y-141114637D01*
X175734637Y-140914759D01*
X175891680Y-140679727D01*
X175999853Y-140418574D01*
X176055000Y-140141335D01*
X176055000Y-139858665D01*
X175999853Y-139581426D01*
X175891680Y-139320273D01*
X175734637Y-139085241D01*
X175534759Y-138885363D01*
X175299727Y-138728320D01*
X175038574Y-138620147D01*
X174761335Y-138565000D01*
X174478665Y-138565000D01*
X174201426Y-138620147D01*
X173940273Y-138728320D01*
X173705241Y-138885363D01*
X173505363Y-139085241D01*
X173348320Y-139320273D01*
X173240147Y-139581426D01*
X173185000Y-139858665D01*
X168438072Y-139858665D01*
X168438072Y-139200000D01*
X168425812Y-139075518D01*
X168389502Y-138955820D01*
X168330537Y-138845506D01*
X168251185Y-138748815D01*
X168154494Y-138669463D01*
X168044180Y-138610498D01*
X167924482Y-138574188D01*
X167800000Y-138561928D01*
X166200000Y-138561928D01*
X166075518Y-138574188D01*
X165955820Y-138610498D01*
X165845506Y-138669463D01*
X165748815Y-138748815D01*
X165669463Y-138845506D01*
X165610498Y-138955820D01*
X165574188Y-139075518D01*
X165561928Y-139200000D01*
X159160000Y-139200000D01*
X159160000Y-136888212D01*
X165865000Y-136888212D01*
X165865000Y-137111788D01*
X165908617Y-137331067D01*
X165994176Y-137537624D01*
X166118388Y-137723520D01*
X166276480Y-137881612D01*
X166462376Y-138005824D01*
X166668933Y-138091383D01*
X166888212Y-138135000D01*
X167111788Y-138135000D01*
X167331067Y-138091383D01*
X167537624Y-138005824D01*
X167723520Y-137881612D01*
X167881612Y-137723520D01*
X168005824Y-137537624D01*
X168091383Y-137331067D01*
X168135000Y-137111788D01*
X168135000Y-136888212D01*
X168091383Y-136668933D01*
X168005824Y-136462376D01*
X167881612Y-136276480D01*
X167723520Y-136118388D01*
X167537624Y-135994176D01*
X167331067Y-135908617D01*
X167111788Y-135865000D01*
X166888212Y-135865000D01*
X166668933Y-135908617D01*
X166462376Y-135994176D01*
X166276480Y-136118388D01*
X166118388Y-136276480D01*
X165994176Y-136462376D01*
X165908617Y-136668933D01*
X165865000Y-136888212D01*
X159160000Y-136888212D01*
X159160000Y-118150000D01*
X159511928Y-118150000D01*
X159511928Y-119850000D01*
X159524188Y-119974482D01*
X159560498Y-120094180D01*
X159619463Y-120204494D01*
X159698815Y-120301185D01*
X159795506Y-120380537D01*
X159905820Y-120439502D01*
X159986466Y-120463966D01*
X159902412Y-120539731D01*
X159728359Y-120773080D01*
X159603175Y-121035901D01*
X159558524Y-121183110D01*
X159679845Y-121413000D01*
X160873000Y-121413000D01*
X160873000Y-121393000D01*
X161127000Y-121393000D01*
X161127000Y-121413000D01*
X161147000Y-121413000D01*
X161147000Y-121667000D01*
X161127000Y-121667000D01*
X161127000Y-121687000D01*
X160873000Y-121687000D01*
X160873000Y-121667000D01*
X159679845Y-121667000D01*
X159558524Y-121896890D01*
X159603175Y-122044099D01*
X159728359Y-122306920D01*
X159902412Y-122540269D01*
X160118645Y-122735178D01*
X160235534Y-122804805D01*
X160053368Y-122926525D01*
X159846525Y-123133368D01*
X159684010Y-123376589D01*
X159572068Y-123646842D01*
X159515000Y-123933740D01*
X159515000Y-124226260D01*
X159572068Y-124513158D01*
X159684010Y-124783411D01*
X159846525Y-125026632D01*
X160053368Y-125233475D01*
X160227760Y-125350000D01*
X160053368Y-125466525D01*
X159846525Y-125673368D01*
X159684010Y-125916589D01*
X159572068Y-126186842D01*
X159515000Y-126473740D01*
X159515000Y-126766260D01*
X159572068Y-127053158D01*
X159684010Y-127323411D01*
X159846525Y-127566632D01*
X160053368Y-127773475D01*
X160065000Y-127781247D01*
X160065001Y-132954058D01*
X160065000Y-132954068D01*
X160065000Y-133754068D01*
X160060476Y-133800000D01*
X160065000Y-133845931D01*
X160078529Y-133983291D01*
X160131993Y-134159539D01*
X160218814Y-134321971D01*
X160335656Y-134464344D01*
X160371341Y-134493630D01*
X161622569Y-135744858D01*
X161682795Y-135890256D01*
X161796063Y-136059774D01*
X161940226Y-136203937D01*
X162109744Y-136317205D01*
X162298102Y-136395226D01*
X162498061Y-136435000D01*
X162701939Y-136435000D01*
X162901898Y-136395226D01*
X163090256Y-136317205D01*
X163259774Y-136203937D01*
X163403937Y-136059774D01*
X163517205Y-135890256D01*
X163595226Y-135701898D01*
X163635000Y-135501939D01*
X163635000Y-135298061D01*
X163595226Y-135098102D01*
X163517205Y-134909744D01*
X163403937Y-134740226D01*
X163259774Y-134596063D01*
X163090256Y-134482795D01*
X162944858Y-134422569D01*
X161935000Y-133412711D01*
X161935000Y-127781247D01*
X161946632Y-127773475D01*
X162153475Y-127566632D01*
X162315990Y-127323411D01*
X162427932Y-127053158D01*
X162485000Y-126766260D01*
X162485000Y-126473740D01*
X162427932Y-126186842D01*
X162315990Y-125916589D01*
X162153475Y-125673368D01*
X161946632Y-125466525D01*
X161772240Y-125350000D01*
X161946632Y-125233475D01*
X161980107Y-125200000D01*
X165561928Y-125200000D01*
X165561928Y-126800000D01*
X165574188Y-126924482D01*
X165610498Y-127044180D01*
X165669463Y-127154494D01*
X165748815Y-127251185D01*
X165845506Y-127330537D01*
X165955820Y-127389502D01*
X166075518Y-127425812D01*
X166200000Y-127438072D01*
X167800000Y-127438072D01*
X167924482Y-127425812D01*
X167940001Y-127421104D01*
X167940001Y-128363864D01*
X167881612Y-128276480D01*
X167723520Y-128118388D01*
X167537624Y-127994176D01*
X167331067Y-127908617D01*
X167111788Y-127865000D01*
X166888212Y-127865000D01*
X166668933Y-127908617D01*
X166462376Y-127994176D01*
X166276480Y-128118388D01*
X166118388Y-128276480D01*
X165994176Y-128462376D01*
X165908617Y-128668933D01*
X165865000Y-128888212D01*
X165865000Y-129111788D01*
X165908617Y-129331067D01*
X165994176Y-129537624D01*
X166118388Y-129723520D01*
X166276480Y-129881612D01*
X166462376Y-130005824D01*
X166668933Y-130091383D01*
X166888212Y-130135000D01*
X167111788Y-130135000D01*
X167331067Y-130091383D01*
X167537624Y-130005824D01*
X167723520Y-129881612D01*
X167881612Y-129723520D01*
X167940000Y-129636136D01*
X167940000Y-131677704D01*
X167879774Y-131823102D01*
X167840000Y-132023061D01*
X167840000Y-132226939D01*
X167879774Y-132426898D01*
X167957795Y-132615256D01*
X168071063Y-132784774D01*
X168215226Y-132928937D01*
X168384744Y-133042205D01*
X168573102Y-133120226D01*
X168773061Y-133160000D01*
X168976939Y-133160000D01*
X169176898Y-133120226D01*
X169365256Y-133042205D01*
X169534774Y-132928937D01*
X169678937Y-132784774D01*
X169792205Y-132615256D01*
X169870226Y-132426898D01*
X169910000Y-132226939D01*
X169910000Y-132023061D01*
X169870226Y-131823102D01*
X169810000Y-131677705D01*
X169810000Y-125858665D01*
X173185000Y-125858665D01*
X173185000Y-126141335D01*
X173240147Y-126418574D01*
X173348320Y-126679727D01*
X173505363Y-126914759D01*
X173705241Y-127114637D01*
X173940273Y-127271680D01*
X174201426Y-127379853D01*
X174478665Y-127435000D01*
X174761335Y-127435000D01*
X175038574Y-127379853D01*
X175299727Y-127271680D01*
X175534759Y-127114637D01*
X175734637Y-126914759D01*
X175891680Y-126679727D01*
X175999853Y-126418574D01*
X176055000Y-126141335D01*
X176055000Y-125858665D01*
X175999853Y-125581426D01*
X175891680Y-125320273D01*
X175734637Y-125085241D01*
X175534759Y-124885363D01*
X175299727Y-124728320D01*
X175038574Y-124620147D01*
X174761335Y-124565000D01*
X174478665Y-124565000D01*
X174201426Y-124620147D01*
X173940273Y-124728320D01*
X173705241Y-124885363D01*
X173505363Y-125085241D01*
X173348320Y-125320273D01*
X173240147Y-125581426D01*
X173185000Y-125858665D01*
X169810000Y-125858665D01*
X169810000Y-125150700D01*
X169917205Y-124990256D01*
X169995226Y-124801898D01*
X170035000Y-124601939D01*
X170035000Y-124398061D01*
X169995226Y-124198102D01*
X169917205Y-124009744D01*
X169803937Y-123840226D01*
X169659774Y-123696063D01*
X169490256Y-123582795D01*
X169301898Y-123504774D01*
X169101939Y-123465000D01*
X168898061Y-123465000D01*
X168698102Y-123504774D01*
X168509744Y-123582795D01*
X168340226Y-123696063D01*
X168196063Y-123840226D01*
X168082795Y-124009744D01*
X168004774Y-124198102D01*
X167965000Y-124398061D01*
X167965000Y-124403894D01*
X167953529Y-124441709D01*
X167940017Y-124578900D01*
X167924482Y-124574188D01*
X167800000Y-124561928D01*
X166200000Y-124561928D01*
X166075518Y-124574188D01*
X165955820Y-124610498D01*
X165845506Y-124669463D01*
X165748815Y-124748815D01*
X165669463Y-124845506D01*
X165610498Y-124955820D01*
X165574188Y-125075518D01*
X165561928Y-125200000D01*
X161980107Y-125200000D01*
X162153475Y-125026632D01*
X162315990Y-124783411D01*
X162427932Y-124513158D01*
X162485000Y-124226260D01*
X162485000Y-123933740D01*
X162482271Y-123920019D01*
X164514078Y-121888212D01*
X175865000Y-121888212D01*
X175865000Y-122111788D01*
X175908617Y-122331067D01*
X175994176Y-122537624D01*
X176118388Y-122723520D01*
X176276480Y-122881612D01*
X176462376Y-123005824D01*
X176668933Y-123091383D01*
X176888212Y-123135000D01*
X177111788Y-123135000D01*
X177331067Y-123091383D01*
X177537624Y-123005824D01*
X177723520Y-122881612D01*
X177881612Y-122723520D01*
X178005824Y-122537624D01*
X178091383Y-122331067D01*
X178135000Y-122111788D01*
X178135000Y-121888212D01*
X178091383Y-121668933D01*
X178005824Y-121462376D01*
X177881612Y-121276480D01*
X177723520Y-121118388D01*
X177537624Y-120994176D01*
X177331067Y-120908617D01*
X177111788Y-120865000D01*
X176888212Y-120865000D01*
X176668933Y-120908617D01*
X176462376Y-120994176D01*
X176276480Y-121118388D01*
X176118388Y-121276480D01*
X175994176Y-121462376D01*
X175908617Y-121668933D01*
X175865000Y-121888212D01*
X164514078Y-121888212D01*
X167628666Y-118773624D01*
X167664344Y-118744344D01*
X167781186Y-118601972D01*
X167868007Y-118439540D01*
X167921471Y-118263292D01*
X167921471Y-118263291D01*
X167939524Y-118080001D01*
X167935000Y-118034069D01*
X167935000Y-115947295D01*
X167995226Y-115801898D01*
X168035000Y-115601939D01*
X168035000Y-115398061D01*
X167995226Y-115198102D01*
X167917205Y-115009744D01*
X167803937Y-114840226D01*
X167659774Y-114696063D01*
X167490256Y-114582795D01*
X167301898Y-114504774D01*
X167101939Y-114465000D01*
X166898061Y-114465000D01*
X166698102Y-114504774D01*
X166509744Y-114582795D01*
X166340226Y-114696063D01*
X166196063Y-114840226D01*
X166082795Y-115009744D01*
X166004774Y-115198102D01*
X165965000Y-115398061D01*
X165965000Y-115601939D01*
X166004774Y-115801898D01*
X166065001Y-115947297D01*
X166065000Y-117692710D01*
X162344713Y-121412998D01*
X162320156Y-121412998D01*
X162441476Y-121183110D01*
X162396825Y-121035901D01*
X162271641Y-120773080D01*
X162097588Y-120539731D01*
X162013534Y-120463966D01*
X162094180Y-120439502D01*
X162204494Y-120380537D01*
X162301185Y-120301185D01*
X162380537Y-120204494D01*
X162439502Y-120094180D01*
X162475812Y-119974482D01*
X162488072Y-119850000D01*
X162488072Y-118150000D01*
X162475812Y-118025518D01*
X162439502Y-117905820D01*
X162380537Y-117795506D01*
X162301185Y-117698815D01*
X162204494Y-117619463D01*
X162094180Y-117560498D01*
X161974482Y-117524188D01*
X161850000Y-117511928D01*
X160150000Y-117511928D01*
X160025518Y-117524188D01*
X159905820Y-117560498D01*
X159795506Y-117619463D01*
X159698815Y-117698815D01*
X159619463Y-117795506D01*
X159560498Y-117905820D01*
X159524188Y-118025518D01*
X159511928Y-118150000D01*
X159160000Y-118150000D01*
X159160000Y-113660000D01*
X180840001Y-113660000D01*
X180840000Y-141840000D01*
G37*
X180840000Y-141840000D02*
X159160000Y-141840000D01*
X159160000Y-139200000D01*
X165561928Y-139200000D01*
X165561928Y-140800000D01*
X165574188Y-140924482D01*
X165610498Y-141044180D01*
X165669463Y-141154494D01*
X165748815Y-141251185D01*
X165845506Y-141330537D01*
X165955820Y-141389502D01*
X166075518Y-141425812D01*
X166200000Y-141438072D01*
X167800000Y-141438072D01*
X167924482Y-141425812D01*
X168044180Y-141389502D01*
X168154494Y-141330537D01*
X168251185Y-141251185D01*
X168330537Y-141154494D01*
X168389502Y-141044180D01*
X168425812Y-140924482D01*
X168438072Y-140800000D01*
X168438072Y-139858665D01*
X173185000Y-139858665D01*
X173185000Y-140141335D01*
X173240147Y-140418574D01*
X173348320Y-140679727D01*
X173505363Y-140914759D01*
X173705241Y-141114637D01*
X173940273Y-141271680D01*
X174201426Y-141379853D01*
X174478665Y-141435000D01*
X174761335Y-141435000D01*
X175038574Y-141379853D01*
X175299727Y-141271680D01*
X175534759Y-141114637D01*
X175734637Y-140914759D01*
X175891680Y-140679727D01*
X175999853Y-140418574D01*
X176055000Y-140141335D01*
X176055000Y-139858665D01*
X175999853Y-139581426D01*
X175891680Y-139320273D01*
X175734637Y-139085241D01*
X175534759Y-138885363D01*
X175299727Y-138728320D01*
X175038574Y-138620147D01*
X174761335Y-138565000D01*
X174478665Y-138565000D01*
X174201426Y-138620147D01*
X173940273Y-138728320D01*
X173705241Y-138885363D01*
X173505363Y-139085241D01*
X173348320Y-139320273D01*
X173240147Y-139581426D01*
X173185000Y-139858665D01*
X168438072Y-139858665D01*
X168438072Y-139200000D01*
X168425812Y-139075518D01*
X168389502Y-138955820D01*
X168330537Y-138845506D01*
X168251185Y-138748815D01*
X168154494Y-138669463D01*
X168044180Y-138610498D01*
X167924482Y-138574188D01*
X167800000Y-138561928D01*
X166200000Y-138561928D01*
X166075518Y-138574188D01*
X165955820Y-138610498D01*
X165845506Y-138669463D01*
X165748815Y-138748815D01*
X165669463Y-138845506D01*
X165610498Y-138955820D01*
X165574188Y-139075518D01*
X165561928Y-139200000D01*
X159160000Y-139200000D01*
X159160000Y-136888212D01*
X165865000Y-136888212D01*
X165865000Y-137111788D01*
X165908617Y-137331067D01*
X165994176Y-137537624D01*
X166118388Y-137723520D01*
X166276480Y-137881612D01*
X166462376Y-138005824D01*
X166668933Y-138091383D01*
X166888212Y-138135000D01*
X167111788Y-138135000D01*
X167331067Y-138091383D01*
X167537624Y-138005824D01*
X167723520Y-137881612D01*
X167881612Y-137723520D01*
X168005824Y-137537624D01*
X168091383Y-137331067D01*
X168135000Y-137111788D01*
X168135000Y-136888212D01*
X168091383Y-136668933D01*
X168005824Y-136462376D01*
X167881612Y-136276480D01*
X167723520Y-136118388D01*
X167537624Y-135994176D01*
X167331067Y-135908617D01*
X167111788Y-135865000D01*
X166888212Y-135865000D01*
X166668933Y-135908617D01*
X166462376Y-135994176D01*
X166276480Y-136118388D01*
X166118388Y-136276480D01*
X165994176Y-136462376D01*
X165908617Y-136668933D01*
X165865000Y-136888212D01*
X159160000Y-136888212D01*
X159160000Y-118150000D01*
X159511928Y-118150000D01*
X159511928Y-119850000D01*
X159524188Y-119974482D01*
X159560498Y-120094180D01*
X159619463Y-120204494D01*
X159698815Y-120301185D01*
X159795506Y-120380537D01*
X159905820Y-120439502D01*
X159986466Y-120463966D01*
X159902412Y-120539731D01*
X159728359Y-120773080D01*
X159603175Y-121035901D01*
X159558524Y-121183110D01*
X159679845Y-121413000D01*
X160873000Y-121413000D01*
X160873000Y-121393000D01*
X161127000Y-121393000D01*
X161127000Y-121413000D01*
X161147000Y-121413000D01*
X161147000Y-121667000D01*
X161127000Y-121667000D01*
X161127000Y-121687000D01*
X160873000Y-121687000D01*
X160873000Y-121667000D01*
X159679845Y-121667000D01*
X159558524Y-121896890D01*
X159603175Y-122044099D01*
X159728359Y-122306920D01*
X159902412Y-122540269D01*
X160118645Y-122735178D01*
X160235534Y-122804805D01*
X160053368Y-122926525D01*
X159846525Y-123133368D01*
X159684010Y-123376589D01*
X159572068Y-123646842D01*
X159515000Y-123933740D01*
X159515000Y-124226260D01*
X159572068Y-124513158D01*
X159684010Y-124783411D01*
X159846525Y-125026632D01*
X160053368Y-125233475D01*
X160227760Y-125350000D01*
X160053368Y-125466525D01*
X159846525Y-125673368D01*
X159684010Y-125916589D01*
X159572068Y-126186842D01*
X159515000Y-126473740D01*
X159515000Y-126766260D01*
X159572068Y-127053158D01*
X159684010Y-127323411D01*
X159846525Y-127566632D01*
X160053368Y-127773475D01*
X160065000Y-127781247D01*
X160065001Y-132954058D01*
X160065000Y-132954068D01*
X160065000Y-133754068D01*
X160060476Y-133800000D01*
X160065000Y-133845931D01*
X160078529Y-133983291D01*
X160131993Y-134159539D01*
X160218814Y-134321971D01*
X160335656Y-134464344D01*
X160371341Y-134493630D01*
X161622569Y-135744858D01*
X161682795Y-135890256D01*
X161796063Y-136059774D01*
X161940226Y-136203937D01*
X162109744Y-136317205D01*
X162298102Y-136395226D01*
X162498061Y-136435000D01*
X162701939Y-136435000D01*
X162901898Y-136395226D01*
X163090256Y-136317205D01*
X163259774Y-136203937D01*
X163403937Y-136059774D01*
X163517205Y-135890256D01*
X163595226Y-135701898D01*
X163635000Y-135501939D01*
X163635000Y-135298061D01*
X163595226Y-135098102D01*
X163517205Y-134909744D01*
X163403937Y-134740226D01*
X163259774Y-134596063D01*
X163090256Y-134482795D01*
X162944858Y-134422569D01*
X161935000Y-133412711D01*
X161935000Y-127781247D01*
X161946632Y-127773475D01*
X162153475Y-127566632D01*
X162315990Y-127323411D01*
X162427932Y-127053158D01*
X162485000Y-126766260D01*
X162485000Y-126473740D01*
X162427932Y-126186842D01*
X162315990Y-125916589D01*
X162153475Y-125673368D01*
X161946632Y-125466525D01*
X161772240Y-125350000D01*
X161946632Y-125233475D01*
X161980107Y-125200000D01*
X165561928Y-125200000D01*
X165561928Y-126800000D01*
X165574188Y-126924482D01*
X165610498Y-127044180D01*
X165669463Y-127154494D01*
X165748815Y-127251185D01*
X165845506Y-127330537D01*
X165955820Y-127389502D01*
X166075518Y-127425812D01*
X166200000Y-127438072D01*
X167800000Y-127438072D01*
X167924482Y-127425812D01*
X167940001Y-127421104D01*
X167940001Y-128363864D01*
X167881612Y-128276480D01*
X167723520Y-128118388D01*
X167537624Y-127994176D01*
X167331067Y-127908617D01*
X167111788Y-127865000D01*
X166888212Y-127865000D01*
X166668933Y-127908617D01*
X166462376Y-127994176D01*
X166276480Y-128118388D01*
X166118388Y-128276480D01*
X165994176Y-128462376D01*
X165908617Y-128668933D01*
X165865000Y-128888212D01*
X165865000Y-129111788D01*
X165908617Y-129331067D01*
X165994176Y-129537624D01*
X166118388Y-129723520D01*
X166276480Y-129881612D01*
X166462376Y-130005824D01*
X166668933Y-130091383D01*
X166888212Y-130135000D01*
X167111788Y-130135000D01*
X167331067Y-130091383D01*
X167537624Y-130005824D01*
X167723520Y-129881612D01*
X167881612Y-129723520D01*
X167940000Y-129636136D01*
X167940000Y-131677704D01*
X167879774Y-131823102D01*
X167840000Y-132023061D01*
X167840000Y-132226939D01*
X167879774Y-132426898D01*
X167957795Y-132615256D01*
X168071063Y-132784774D01*
X168215226Y-132928937D01*
X168384744Y-133042205D01*
X168573102Y-133120226D01*
X168773061Y-133160000D01*
X168976939Y-133160000D01*
X169176898Y-133120226D01*
X169365256Y-133042205D01*
X169534774Y-132928937D01*
X169678937Y-132784774D01*
X169792205Y-132615256D01*
X169870226Y-132426898D01*
X169910000Y-132226939D01*
X169910000Y-132023061D01*
X169870226Y-131823102D01*
X169810000Y-131677705D01*
X169810000Y-125858665D01*
X173185000Y-125858665D01*
X173185000Y-126141335D01*
X173240147Y-126418574D01*
X173348320Y-126679727D01*
X173505363Y-126914759D01*
X173705241Y-127114637D01*
X173940273Y-127271680D01*
X174201426Y-127379853D01*
X174478665Y-127435000D01*
X174761335Y-127435000D01*
X175038574Y-127379853D01*
X175299727Y-127271680D01*
X175534759Y-127114637D01*
X175734637Y-126914759D01*
X175891680Y-126679727D01*
X175999853Y-126418574D01*
X176055000Y-126141335D01*
X176055000Y-125858665D01*
X175999853Y-125581426D01*
X175891680Y-125320273D01*
X175734637Y-125085241D01*
X175534759Y-124885363D01*
X175299727Y-124728320D01*
X175038574Y-124620147D01*
X174761335Y-124565000D01*
X174478665Y-124565000D01*
X174201426Y-124620147D01*
X173940273Y-124728320D01*
X173705241Y-124885363D01*
X173505363Y-125085241D01*
X173348320Y-125320273D01*
X173240147Y-125581426D01*
X173185000Y-125858665D01*
X169810000Y-125858665D01*
X169810000Y-125150700D01*
X169917205Y-124990256D01*
X169995226Y-124801898D01*
X170035000Y-124601939D01*
X170035000Y-124398061D01*
X169995226Y-124198102D01*
X169917205Y-124009744D01*
X169803937Y-123840226D01*
X169659774Y-123696063D01*
X169490256Y-123582795D01*
X169301898Y-123504774D01*
X169101939Y-123465000D01*
X168898061Y-123465000D01*
X168698102Y-123504774D01*
X168509744Y-123582795D01*
X168340226Y-123696063D01*
X168196063Y-123840226D01*
X168082795Y-124009744D01*
X168004774Y-124198102D01*
X167965000Y-124398061D01*
X167965000Y-124403894D01*
X167953529Y-124441709D01*
X167940017Y-124578900D01*
X167924482Y-124574188D01*
X167800000Y-124561928D01*
X166200000Y-124561928D01*
X166075518Y-124574188D01*
X165955820Y-124610498D01*
X165845506Y-124669463D01*
X165748815Y-124748815D01*
X165669463Y-124845506D01*
X165610498Y-124955820D01*
X165574188Y-125075518D01*
X165561928Y-125200000D01*
X161980107Y-125200000D01*
X162153475Y-125026632D01*
X162315990Y-124783411D01*
X162427932Y-124513158D01*
X162485000Y-124226260D01*
X162485000Y-123933740D01*
X162482271Y-123920019D01*
X164514078Y-121888212D01*
X175865000Y-121888212D01*
X175865000Y-122111788D01*
X175908617Y-122331067D01*
X175994176Y-122537624D01*
X176118388Y-122723520D01*
X176276480Y-122881612D01*
X176462376Y-123005824D01*
X176668933Y-123091383D01*
X176888212Y-123135000D01*
X177111788Y-123135000D01*
X177331067Y-123091383D01*
X177537624Y-123005824D01*
X177723520Y-122881612D01*
X177881612Y-122723520D01*
X178005824Y-122537624D01*
X178091383Y-122331067D01*
X178135000Y-122111788D01*
X178135000Y-121888212D01*
X178091383Y-121668933D01*
X178005824Y-121462376D01*
X177881612Y-121276480D01*
X177723520Y-121118388D01*
X177537624Y-120994176D01*
X177331067Y-120908617D01*
X177111788Y-120865000D01*
X176888212Y-120865000D01*
X176668933Y-120908617D01*
X176462376Y-120994176D01*
X176276480Y-121118388D01*
X176118388Y-121276480D01*
X175994176Y-121462376D01*
X175908617Y-121668933D01*
X175865000Y-121888212D01*
X164514078Y-121888212D01*
X167628666Y-118773624D01*
X167664344Y-118744344D01*
X167781186Y-118601972D01*
X167868007Y-118439540D01*
X167921471Y-118263292D01*
X167921471Y-118263291D01*
X167939524Y-118080001D01*
X167935000Y-118034069D01*
X167935000Y-115947295D01*
X167995226Y-115801898D01*
X168035000Y-115601939D01*
X168035000Y-115398061D01*
X167995226Y-115198102D01*
X167917205Y-115009744D01*
X167803937Y-114840226D01*
X167659774Y-114696063D01*
X167490256Y-114582795D01*
X167301898Y-114504774D01*
X167101939Y-114465000D01*
X166898061Y-114465000D01*
X166698102Y-114504774D01*
X166509744Y-114582795D01*
X166340226Y-114696063D01*
X166196063Y-114840226D01*
X166082795Y-115009744D01*
X166004774Y-115198102D01*
X165965000Y-115398061D01*
X165965000Y-115601939D01*
X166004774Y-115801898D01*
X166065001Y-115947297D01*
X166065000Y-117692710D01*
X162344713Y-121412998D01*
X162320156Y-121412998D01*
X162441476Y-121183110D01*
X162396825Y-121035901D01*
X162271641Y-120773080D01*
X162097588Y-120539731D01*
X162013534Y-120463966D01*
X162094180Y-120439502D01*
X162204494Y-120380537D01*
X162301185Y-120301185D01*
X162380537Y-120204494D01*
X162439502Y-120094180D01*
X162475812Y-119974482D01*
X162488072Y-119850000D01*
X162488072Y-118150000D01*
X162475812Y-118025518D01*
X162439502Y-117905820D01*
X162380537Y-117795506D01*
X162301185Y-117698815D01*
X162204494Y-117619463D01*
X162094180Y-117560498D01*
X161974482Y-117524188D01*
X161850000Y-117511928D01*
X160150000Y-117511928D01*
X160025518Y-117524188D01*
X159905820Y-117560498D01*
X159795506Y-117619463D01*
X159698815Y-117698815D01*
X159619463Y-117795506D01*
X159560498Y-117905820D01*
X159524188Y-118025518D01*
X159511928Y-118150000D01*
X159160000Y-118150000D01*
X159160000Y-113660000D01*
X180840001Y-113660000D01*
X180840000Y-141840000D01*
M02*
