G04 #@! TF.GenerationSoftware,KiCad,Pcbnew,5.1.6-c6e7f7d~87~ubuntu18.04.1*
G04 #@! TF.CreationDate,2021-01-03T20:00:45-05:00*
G04 #@! TF.ProjectId,entropy,656e7472-6f70-4792-9e6b-696361645f70,rev?*
G04 #@! TF.SameCoordinates,Original*
G04 #@! TF.FileFunction,Copper,L1,Top*
G04 #@! TF.FilePolarity,Positive*
%FSLAX46Y46*%
G04 Gerber Fmt 4.6, Leading zero omitted, Abs format (unit mm)*
G04 Created by KiCad (PCBNEW 5.1.6-c6e7f7d~87~ubuntu18.04.1) date 2021-01-03 20:00:45*
%MOMM*%
%LPD*%
G01*
G04 APERTURE LIST*
G04 #@! TA.AperFunction,SMDPad,CuDef*
%ADD10R,0.900000X1.200000*%
G04 #@! TD*
G04 #@! TA.AperFunction,SMDPad,CuDef*
%ADD11R,1.200000X0.900000*%
G04 #@! TD*
G04 #@! TA.AperFunction,ComponentPad*
%ADD12R,1.600000X1.600000*%
G04 #@! TD*
G04 #@! TA.AperFunction,ComponentPad*
%ADD13O,1.600000X1.600000*%
G04 #@! TD*
G04 #@! TA.AperFunction,ComponentPad*
%ADD14R,1.700000X1.700000*%
G04 #@! TD*
G04 #@! TA.AperFunction,ComponentPad*
%ADD15O,1.700000X1.700000*%
G04 #@! TD*
G04 #@! TA.AperFunction,ComponentPad*
%ADD16C,1.000000*%
G04 #@! TD*
G04 #@! TA.AperFunction,SMDPad,CuDef*
%ADD17R,1.060000X0.650000*%
G04 #@! TD*
G04 #@! TA.AperFunction,SMDPad,CuDef*
%ADD18R,0.650000X1.060000*%
G04 #@! TD*
G04 #@! TA.AperFunction,ViaPad*
%ADD19C,0.800000*%
G04 #@! TD*
G04 #@! TA.AperFunction,Conductor*
%ADD20C,0.600000*%
G04 #@! TD*
G04 #@! TA.AperFunction,Conductor*
%ADD21C,0.254000*%
G04 #@! TD*
G04 APERTURE END LIST*
G04 #@! TA.AperFunction,SMDPad,CuDef*
G36*
G01*
X164450001Y-117550000D02*
X163549999Y-117550000D01*
G75*
G02*
X163300000Y-117300001I0J249999D01*
G01*
X163300000Y-116649999D01*
G75*
G02*
X163549999Y-116400000I249999J0D01*
G01*
X164450001Y-116400000D01*
G75*
G02*
X164700000Y-116649999I0J-249999D01*
G01*
X164700000Y-117300001D01*
G75*
G02*
X164450001Y-117550000I-249999J0D01*
G01*
G37*
G04 #@! TD.AperFunction*
G04 #@! TA.AperFunction,SMDPad,CuDef*
G36*
G01*
X164450001Y-119600000D02*
X163549999Y-119600000D01*
G75*
G02*
X163300000Y-119350001I0J249999D01*
G01*
X163300000Y-118699999D01*
G75*
G02*
X163549999Y-118450000I249999J0D01*
G01*
X164450001Y-118450000D01*
G75*
G02*
X164700000Y-118699999I0J-249999D01*
G01*
X164700000Y-119350001D01*
G75*
G02*
X164450001Y-119600000I-249999J0D01*
G01*
G37*
G04 #@! TD.AperFunction*
G04 #@! TA.AperFunction,SMDPad,CuDef*
G36*
G01*
X174737500Y-117650000D02*
X174262500Y-117650000D01*
G75*
G02*
X174025000Y-117412500I0J237500D01*
G01*
X174025000Y-116837500D01*
G75*
G02*
X174262500Y-116600000I237500J0D01*
G01*
X174737500Y-116600000D01*
G75*
G02*
X174975000Y-116837500I0J-237500D01*
G01*
X174975000Y-117412500D01*
G75*
G02*
X174737500Y-117650000I-237500J0D01*
G01*
G37*
G04 #@! TD.AperFunction*
G04 #@! TA.AperFunction,SMDPad,CuDef*
G36*
G01*
X174737500Y-119400000D02*
X174262500Y-119400000D01*
G75*
G02*
X174025000Y-119162500I0J237500D01*
G01*
X174025000Y-118587500D01*
G75*
G02*
X174262500Y-118350000I237500J0D01*
G01*
X174737500Y-118350000D01*
G75*
G02*
X174975000Y-118587500I0J-237500D01*
G01*
X174975000Y-119162500D01*
G75*
G02*
X174737500Y-119400000I-237500J0D01*
G01*
G37*
G04 #@! TD.AperFunction*
G04 #@! TA.AperFunction,SMDPad,CuDef*
G36*
G01*
X177450001Y-119600000D02*
X176549999Y-119600000D01*
G75*
G02*
X176300000Y-119350001I0J249999D01*
G01*
X176300000Y-118699999D01*
G75*
G02*
X176549999Y-118450000I249999J0D01*
G01*
X177450001Y-118450000D01*
G75*
G02*
X177700000Y-118699999I0J-249999D01*
G01*
X177700000Y-119350001D01*
G75*
G02*
X177450001Y-119600000I-249999J0D01*
G01*
G37*
G04 #@! TD.AperFunction*
G04 #@! TA.AperFunction,SMDPad,CuDef*
G36*
G01*
X177450001Y-117550000D02*
X176549999Y-117550000D01*
G75*
G02*
X176300000Y-117300001I0J249999D01*
G01*
X176300000Y-116649999D01*
G75*
G02*
X176549999Y-116400000I249999J0D01*
G01*
X177450001Y-116400000D01*
G75*
G02*
X177700000Y-116649999I0J-249999D01*
G01*
X177700000Y-117300001D01*
G75*
G02*
X177450001Y-117550000I-249999J0D01*
G01*
G37*
G04 #@! TD.AperFunction*
G04 #@! TA.AperFunction,SMDPad,CuDef*
G36*
G01*
X175762500Y-131600000D02*
X176237500Y-131600000D01*
G75*
G02*
X176475000Y-131837500I0J-237500D01*
G01*
X176475000Y-132412500D01*
G75*
G02*
X176237500Y-132650000I-237500J0D01*
G01*
X175762500Y-132650000D01*
G75*
G02*
X175525000Y-132412500I0J237500D01*
G01*
X175525000Y-131837500D01*
G75*
G02*
X175762500Y-131600000I237500J0D01*
G01*
G37*
G04 #@! TD.AperFunction*
G04 #@! TA.AperFunction,SMDPad,CuDef*
G36*
G01*
X175762500Y-133350000D02*
X176237500Y-133350000D01*
G75*
G02*
X176475000Y-133587500I0J-237500D01*
G01*
X176475000Y-134162500D01*
G75*
G02*
X176237500Y-134400000I-237500J0D01*
G01*
X175762500Y-134400000D01*
G75*
G02*
X175525000Y-134162500I0J237500D01*
G01*
X175525000Y-133587500D01*
G75*
G02*
X175762500Y-133350000I237500J0D01*
G01*
G37*
G04 #@! TD.AperFunction*
G04 #@! TA.AperFunction,SMDPad,CuDef*
G36*
G01*
X166762500Y-131600000D02*
X167237500Y-131600000D01*
G75*
G02*
X167475000Y-131837500I0J-237500D01*
G01*
X167475000Y-132412500D01*
G75*
G02*
X167237500Y-132650000I-237500J0D01*
G01*
X166762500Y-132650000D01*
G75*
G02*
X166525000Y-132412500I0J237500D01*
G01*
X166525000Y-131837500D01*
G75*
G02*
X166762500Y-131600000I237500J0D01*
G01*
G37*
G04 #@! TD.AperFunction*
G04 #@! TA.AperFunction,SMDPad,CuDef*
G36*
G01*
X166762500Y-133350000D02*
X167237500Y-133350000D01*
G75*
G02*
X167475000Y-133587500I0J-237500D01*
G01*
X167475000Y-134162500D01*
G75*
G02*
X167237500Y-134400000I-237500J0D01*
G01*
X166762500Y-134400000D01*
G75*
G02*
X166525000Y-134162500I0J237500D01*
G01*
X166525000Y-133587500D01*
G75*
G02*
X166762500Y-133350000I237500J0D01*
G01*
G37*
G04 #@! TD.AperFunction*
G04 #@! TA.AperFunction,SMDPad,CuDef*
G36*
G01*
X160762500Y-133350000D02*
X161237500Y-133350000D01*
G75*
G02*
X161475000Y-133587500I0J-237500D01*
G01*
X161475000Y-134162500D01*
G75*
G02*
X161237500Y-134400000I-237500J0D01*
G01*
X160762500Y-134400000D01*
G75*
G02*
X160525000Y-134162500I0J237500D01*
G01*
X160525000Y-133587500D01*
G75*
G02*
X160762500Y-133350000I237500J0D01*
G01*
G37*
G04 #@! TD.AperFunction*
G04 #@! TA.AperFunction,SMDPad,CuDef*
G36*
G01*
X160762500Y-131600000D02*
X161237500Y-131600000D01*
G75*
G02*
X161475000Y-131837500I0J-237500D01*
G01*
X161475000Y-132412500D01*
G75*
G02*
X161237500Y-132650000I-237500J0D01*
G01*
X160762500Y-132650000D01*
G75*
G02*
X160525000Y-132412500I0J237500D01*
G01*
X160525000Y-131837500D01*
G75*
G02*
X160762500Y-131600000I237500J0D01*
G01*
G37*
G04 #@! TD.AperFunction*
D10*
X171350000Y-122000000D03*
X174650000Y-122000000D03*
D11*
X179000000Y-134650000D03*
X179000000Y-131350000D03*
D12*
X167000000Y-140000000D03*
D13*
X174620000Y-140000000D03*
X174620000Y-126000000D03*
D12*
X167000000Y-126000000D03*
D14*
X161000000Y-119000000D03*
D15*
X161000000Y-121540000D03*
X161000000Y-124080000D03*
X161000000Y-126620000D03*
G04 #@! TA.AperFunction,SMDPad,CuDef*
G36*
G01*
X166400000Y-122450001D02*
X166400000Y-121549999D01*
G75*
G02*
X166649999Y-121300000I249999J0D01*
G01*
X167300001Y-121300000D01*
G75*
G02*
X167550000Y-121549999I0J-249999D01*
G01*
X167550000Y-122450001D01*
G75*
G02*
X167300001Y-122700000I-249999J0D01*
G01*
X166649999Y-122700000D01*
G75*
G02*
X166400000Y-122450001I0J249999D01*
G01*
G37*
G04 #@! TD.AperFunction*
G04 #@! TA.AperFunction,SMDPad,CuDef*
G36*
G01*
X168450000Y-122450001D02*
X168450000Y-121549999D01*
G75*
G02*
X168699999Y-121300000I249999J0D01*
G01*
X169350001Y-121300000D01*
G75*
G02*
X169600000Y-121549999I0J-249999D01*
G01*
X169600000Y-122450001D01*
G75*
G02*
X169350001Y-122700000I-249999J0D01*
G01*
X168699999Y-122700000D01*
G75*
G02*
X168450000Y-122450001I0J249999D01*
G01*
G37*
G04 #@! TD.AperFunction*
G04 #@! TA.AperFunction,SMDPad,CuDef*
G36*
G01*
X172237500Y-119400000D02*
X171762500Y-119400000D01*
G75*
G02*
X171525000Y-119162500I0J237500D01*
G01*
X171525000Y-118587500D01*
G75*
G02*
X171762500Y-118350000I237500J0D01*
G01*
X172237500Y-118350000D01*
G75*
G02*
X172475000Y-118587500I0J-237500D01*
G01*
X172475000Y-119162500D01*
G75*
G02*
X172237500Y-119400000I-237500J0D01*
G01*
G37*
G04 #@! TD.AperFunction*
G04 #@! TA.AperFunction,SMDPad,CuDef*
G36*
G01*
X172237500Y-117650000D02*
X171762500Y-117650000D01*
G75*
G02*
X171525000Y-117412500I0J237500D01*
G01*
X171525000Y-116837500D01*
G75*
G02*
X171762500Y-116600000I237500J0D01*
G01*
X172237500Y-116600000D01*
G75*
G02*
X172475000Y-116837500I0J-237500D01*
G01*
X172475000Y-117412500D01*
G75*
G02*
X172237500Y-117650000I-237500J0D01*
G01*
G37*
G04 #@! TD.AperFunction*
G04 #@! TA.AperFunction,SMDPad,CuDef*
G36*
G01*
X169650000Y-114762500D02*
X169650000Y-115237500D01*
G75*
G02*
X169412500Y-115475000I-237500J0D01*
G01*
X168837500Y-115475000D01*
G75*
G02*
X168600000Y-115237500I0J237500D01*
G01*
X168600000Y-114762500D01*
G75*
G02*
X168837500Y-114525000I237500J0D01*
G01*
X169412500Y-114525000D01*
G75*
G02*
X169650000Y-114762500I0J-237500D01*
G01*
G37*
G04 #@! TD.AperFunction*
G04 #@! TA.AperFunction,SMDPad,CuDef*
G36*
G01*
X171400000Y-114762500D02*
X171400000Y-115237500D01*
G75*
G02*
X171162500Y-115475000I-237500J0D01*
G01*
X170587500Y-115475000D01*
G75*
G02*
X170350000Y-115237500I0J237500D01*
G01*
X170350000Y-114762500D01*
G75*
G02*
X170587500Y-114525000I237500J0D01*
G01*
X171162500Y-114525000D01*
G75*
G02*
X171400000Y-114762500I0J-237500D01*
G01*
G37*
G04 #@! TD.AperFunction*
G04 #@! TA.AperFunction,SMDPad,CuDef*
G36*
G01*
X178762500Y-128350000D02*
X179237500Y-128350000D01*
G75*
G02*
X179475000Y-128587500I0J-237500D01*
G01*
X179475000Y-129162500D01*
G75*
G02*
X179237500Y-129400000I-237500J0D01*
G01*
X178762500Y-129400000D01*
G75*
G02*
X178525000Y-129162500I0J237500D01*
G01*
X178525000Y-128587500D01*
G75*
G02*
X178762500Y-128350000I237500J0D01*
G01*
G37*
G04 #@! TD.AperFunction*
G04 #@! TA.AperFunction,SMDPad,CuDef*
G36*
G01*
X178762500Y-126600000D02*
X179237500Y-126600000D01*
G75*
G02*
X179475000Y-126837500I0J-237500D01*
G01*
X179475000Y-127412500D01*
G75*
G02*
X179237500Y-127650000I-237500J0D01*
G01*
X178762500Y-127650000D01*
G75*
G02*
X178525000Y-127412500I0J237500D01*
G01*
X178525000Y-126837500D01*
G75*
G02*
X178762500Y-126600000I237500J0D01*
G01*
G37*
G04 #@! TD.AperFunction*
G04 #@! TA.AperFunction,SMDPad,CuDef*
G36*
G01*
X177237500Y-140400000D02*
X176762500Y-140400000D01*
G75*
G02*
X176525000Y-140162500I0J237500D01*
G01*
X176525000Y-139587500D01*
G75*
G02*
X176762500Y-139350000I237500J0D01*
G01*
X177237500Y-139350000D01*
G75*
G02*
X177475000Y-139587500I0J-237500D01*
G01*
X177475000Y-140162500D01*
G75*
G02*
X177237500Y-140400000I-237500J0D01*
G01*
G37*
G04 #@! TD.AperFunction*
G04 #@! TA.AperFunction,SMDPad,CuDef*
G36*
G01*
X177237500Y-138650000D02*
X176762500Y-138650000D01*
G75*
G02*
X176525000Y-138412500I0J237500D01*
G01*
X176525000Y-137837500D01*
G75*
G02*
X176762500Y-137600000I237500J0D01*
G01*
X177237500Y-137600000D01*
G75*
G02*
X177475000Y-137837500I0J-237500D01*
G01*
X177475000Y-138412500D01*
G75*
G02*
X177237500Y-138650000I-237500J0D01*
G01*
G37*
G04 #@! TD.AperFunction*
G04 #@! TA.AperFunction,SMDPad,CuDef*
G36*
G01*
X176762500Y-125600000D02*
X177237500Y-125600000D01*
G75*
G02*
X177475000Y-125837500I0J-237500D01*
G01*
X177475000Y-126412500D01*
G75*
G02*
X177237500Y-126650000I-237500J0D01*
G01*
X176762500Y-126650000D01*
G75*
G02*
X176525000Y-126412500I0J237500D01*
G01*
X176525000Y-125837500D01*
G75*
G02*
X176762500Y-125600000I237500J0D01*
G01*
G37*
G04 #@! TD.AperFunction*
G04 #@! TA.AperFunction,SMDPad,CuDef*
G36*
G01*
X176762500Y-127350000D02*
X177237500Y-127350000D01*
G75*
G02*
X177475000Y-127587500I0J-237500D01*
G01*
X177475000Y-128162500D01*
G75*
G02*
X177237500Y-128400000I-237500J0D01*
G01*
X176762500Y-128400000D01*
G75*
G02*
X176525000Y-128162500I0J237500D01*
G01*
X176525000Y-127587500D01*
G75*
G02*
X176762500Y-127350000I237500J0D01*
G01*
G37*
G04 #@! TD.AperFunction*
D16*
X167000000Y-137000000D03*
X167000000Y-129000000D03*
D17*
X169100000Y-118950000D03*
X169100000Y-118000000D03*
X169100000Y-117050000D03*
X166900000Y-117050000D03*
X166900000Y-118950000D03*
G04 #@! TA.AperFunction,SMDPad,CuDef*
G36*
G01*
X169245000Y-136450000D02*
X168945000Y-136450000D01*
G75*
G02*
X168795000Y-136300000I0J150000D01*
G01*
X168795000Y-134650000D01*
G75*
G02*
X168945000Y-134500000I150000J0D01*
G01*
X169245000Y-134500000D01*
G75*
G02*
X169395000Y-134650000I0J-150000D01*
G01*
X169395000Y-136300000D01*
G75*
G02*
X169245000Y-136450000I-150000J0D01*
G01*
G37*
G04 #@! TD.AperFunction*
G04 #@! TA.AperFunction,SMDPad,CuDef*
G36*
G01*
X170515000Y-136450000D02*
X170215000Y-136450000D01*
G75*
G02*
X170065000Y-136300000I0J150000D01*
G01*
X170065000Y-134650000D01*
G75*
G02*
X170215000Y-134500000I150000J0D01*
G01*
X170515000Y-134500000D01*
G75*
G02*
X170665000Y-134650000I0J-150000D01*
G01*
X170665000Y-136300000D01*
G75*
G02*
X170515000Y-136450000I-150000J0D01*
G01*
G37*
G04 #@! TD.AperFunction*
G04 #@! TA.AperFunction,SMDPad,CuDef*
G36*
G01*
X171785000Y-136450000D02*
X171485000Y-136450000D01*
G75*
G02*
X171335000Y-136300000I0J150000D01*
G01*
X171335000Y-134650000D01*
G75*
G02*
X171485000Y-134500000I150000J0D01*
G01*
X171785000Y-134500000D01*
G75*
G02*
X171935000Y-134650000I0J-150000D01*
G01*
X171935000Y-136300000D01*
G75*
G02*
X171785000Y-136450000I-150000J0D01*
G01*
G37*
G04 #@! TD.AperFunction*
G04 #@! TA.AperFunction,SMDPad,CuDef*
G36*
G01*
X173055000Y-136450000D02*
X172755000Y-136450000D01*
G75*
G02*
X172605000Y-136300000I0J150000D01*
G01*
X172605000Y-134650000D01*
G75*
G02*
X172755000Y-134500000I150000J0D01*
G01*
X173055000Y-134500000D01*
G75*
G02*
X173205000Y-134650000I0J-150000D01*
G01*
X173205000Y-136300000D01*
G75*
G02*
X173055000Y-136450000I-150000J0D01*
G01*
G37*
G04 #@! TD.AperFunction*
G04 #@! TA.AperFunction,SMDPad,CuDef*
G36*
G01*
X173055000Y-131500000D02*
X172755000Y-131500000D01*
G75*
G02*
X172605000Y-131350000I0J150000D01*
G01*
X172605000Y-129700000D01*
G75*
G02*
X172755000Y-129550000I150000J0D01*
G01*
X173055000Y-129550000D01*
G75*
G02*
X173205000Y-129700000I0J-150000D01*
G01*
X173205000Y-131350000D01*
G75*
G02*
X173055000Y-131500000I-150000J0D01*
G01*
G37*
G04 #@! TD.AperFunction*
G04 #@! TA.AperFunction,SMDPad,CuDef*
G36*
G01*
X171785000Y-131500000D02*
X171485000Y-131500000D01*
G75*
G02*
X171335000Y-131350000I0J150000D01*
G01*
X171335000Y-129700000D01*
G75*
G02*
X171485000Y-129550000I150000J0D01*
G01*
X171785000Y-129550000D01*
G75*
G02*
X171935000Y-129700000I0J-150000D01*
G01*
X171935000Y-131350000D01*
G75*
G02*
X171785000Y-131500000I-150000J0D01*
G01*
G37*
G04 #@! TD.AperFunction*
G04 #@! TA.AperFunction,SMDPad,CuDef*
G36*
G01*
X170515000Y-131500000D02*
X170215000Y-131500000D01*
G75*
G02*
X170065000Y-131350000I0J150000D01*
G01*
X170065000Y-129700000D01*
G75*
G02*
X170215000Y-129550000I150000J0D01*
G01*
X170515000Y-129550000D01*
G75*
G02*
X170665000Y-129700000I0J-150000D01*
G01*
X170665000Y-131350000D01*
G75*
G02*
X170515000Y-131500000I-150000J0D01*
G01*
G37*
G04 #@! TD.AperFunction*
G04 #@! TA.AperFunction,SMDPad,CuDef*
G36*
G01*
X169245000Y-131500000D02*
X168945000Y-131500000D01*
G75*
G02*
X168795000Y-131350000I0J150000D01*
G01*
X168795000Y-129700000D01*
G75*
G02*
X168945000Y-129550000I150000J0D01*
G01*
X169245000Y-129550000D01*
G75*
G02*
X169395000Y-129700000I0J-150000D01*
G01*
X169395000Y-131350000D01*
G75*
G02*
X169245000Y-131500000I-150000J0D01*
G01*
G37*
G04 #@! TD.AperFunction*
D18*
X163050000Y-134100000D03*
X164000000Y-134100000D03*
X164950000Y-134100000D03*
X164950000Y-131900000D03*
X163050000Y-131900000D03*
D16*
X177000000Y-122000000D03*
D19*
X170600000Y-118200000D03*
X167500000Y-114000000D03*
X177000000Y-115000000D03*
X175500000Y-120500000D03*
X164000000Y-115000000D03*
X161000000Y-116000000D03*
X175500000Y-129000000D03*
X176000000Y-124000000D03*
X171000000Y-127000000D03*
X167000000Y-124000000D03*
X161000000Y-135500000D03*
X164500000Y-137000000D03*
X167500000Y-135500000D03*
X168500000Y-133500000D03*
X170500000Y-138500000D03*
X175000000Y-138000000D03*
X174500000Y-135500000D03*
X174000000Y-133000000D03*
X179000000Y-133000000D03*
X167500000Y-130500000D03*
X165700000Y-127900000D03*
X170600000Y-132500000D03*
X178800000Y-138000000D03*
X173400000Y-137600000D03*
X165400000Y-121700000D03*
X164800000Y-122400000D03*
X164100000Y-123100000D03*
X162500000Y-120700000D03*
X168875000Y-132125000D03*
X169000000Y-124500000D03*
X167000000Y-115500000D03*
X162600000Y-135400000D03*
D20*
X169100000Y-118000000D02*
X171000000Y-118000000D01*
X164000000Y-134100000D02*
X164000000Y-136000000D01*
X164075000Y-118950000D02*
X164000000Y-119025000D01*
X166900000Y-118950000D02*
X164075000Y-118950000D01*
X166900000Y-121925000D02*
X166975000Y-122000000D01*
X166900000Y-118950000D02*
X166900000Y-121925000D01*
X163975000Y-119000000D02*
X164000000Y-119025000D01*
X161000000Y-119000000D02*
X163975000Y-119000000D01*
X162825000Y-132125000D02*
X163050000Y-131900000D01*
X161000000Y-132125000D02*
X162825000Y-132125000D01*
X163050000Y-130450000D02*
X163050000Y-131900000D01*
X166975000Y-122000000D02*
X164500000Y-124475000D01*
X164500000Y-129000000D02*
X163050000Y-130450000D01*
X164500000Y-124475000D02*
X164500000Y-129000000D01*
X172000000Y-117125000D02*
X174500000Y-117125000D01*
X171925000Y-117050000D02*
X172000000Y-117125000D01*
X170875000Y-116975000D02*
X170950000Y-117050000D01*
X170875000Y-115000000D02*
X170875000Y-116975000D01*
X169100000Y-117050000D02*
X170950000Y-117050000D01*
X170950000Y-117050000D02*
X171925000Y-117050000D01*
X167000000Y-132125000D02*
X168875000Y-132125000D01*
X169095000Y-131905000D02*
X169095000Y-130525000D01*
X168875000Y-132125000D02*
X169095000Y-131905000D01*
X179000000Y-127125000D02*
X179000000Y-124350000D01*
X174650000Y-122000000D02*
X177000000Y-122000000D01*
X179000000Y-124000000D02*
X179000000Y-124350000D01*
X177000000Y-122000000D02*
X179000000Y-124000000D01*
X172000000Y-118875000D02*
X174500000Y-118875000D01*
X176850000Y-118875000D02*
X177000000Y-119025000D01*
X174500000Y-118875000D02*
X176850000Y-118875000D01*
X177000000Y-119025000D02*
X177000000Y-122000000D01*
X172150000Y-124500000D02*
X174650000Y-122000000D01*
X169000000Y-124500000D02*
X172150000Y-124500000D01*
X179000000Y-128875000D02*
X179000000Y-131350000D01*
X176775000Y-131350000D02*
X176000000Y-132125000D01*
X179000000Y-131350000D02*
X176775000Y-131350000D01*
X174400000Y-130525000D02*
X176000000Y-132125000D01*
X172905000Y-130525000D02*
X174400000Y-130525000D01*
X171635000Y-135475000D02*
X171635000Y-133365000D01*
X172905000Y-132095000D02*
X172905000Y-130525000D01*
X171635000Y-133365000D02*
X172905000Y-132095000D01*
X169100000Y-121925000D02*
X169025000Y-122000000D01*
X169100000Y-118950000D02*
X169100000Y-121925000D01*
X169025000Y-122000000D02*
X171350000Y-122000000D01*
X169095000Y-137905000D02*
X167000000Y-140000000D01*
X169095000Y-135475000D02*
X169095000Y-137905000D01*
X167000000Y-137000000D02*
X167000000Y-140000000D01*
X164950000Y-134950000D02*
X167000000Y-137000000D01*
X164950000Y-134100000D02*
X164950000Y-134950000D01*
X173915000Y-140000000D02*
X174620000Y-140000000D01*
X170365000Y-136450000D02*
X173915000Y-140000000D01*
X170365000Y-135475000D02*
X170365000Y-136450000D01*
X176875000Y-140000000D02*
X177000000Y-139875000D01*
X174620000Y-140000000D02*
X176875000Y-140000000D01*
X171635000Y-128985000D02*
X174620000Y-126000000D01*
X171635000Y-130525000D02*
X171635000Y-128985000D01*
X176875000Y-126000000D02*
X177000000Y-126125000D01*
X174620000Y-126000000D02*
X176875000Y-126000000D01*
X170365000Y-129365000D02*
X167000000Y-126000000D01*
X170365000Y-130525000D02*
X170365000Y-129365000D01*
X167000000Y-129000000D02*
X167000000Y-126000000D01*
X164950000Y-131050000D02*
X167000000Y-129000000D01*
X164950000Y-131900000D02*
X164950000Y-131050000D01*
X167000000Y-116950000D02*
X166900000Y-117050000D01*
X167000000Y-115500000D02*
X167000000Y-116950000D01*
X163000000Y-134150000D02*
X163050000Y-134100000D01*
X163050000Y-134100000D02*
X163050000Y-134950000D01*
X163050000Y-134950000D02*
X162600000Y-135400000D01*
D21*
G36*
X180840000Y-141840000D02*
G01*
X159160000Y-141840000D01*
X159160000Y-134400000D01*
X159886928Y-134400000D01*
X159899188Y-134524482D01*
X159935498Y-134644180D01*
X159994463Y-134754494D01*
X160073815Y-134851185D01*
X160170506Y-134930537D01*
X160280820Y-134989502D01*
X160400518Y-135025812D01*
X160525000Y-135038072D01*
X160714250Y-135035000D01*
X160873000Y-134876250D01*
X160873000Y-134002000D01*
X160048750Y-134002000D01*
X159890000Y-134160750D01*
X159886928Y-134400000D01*
X159160000Y-134400000D01*
X159160000Y-123933740D01*
X159515000Y-123933740D01*
X159515000Y-124226260D01*
X159572068Y-124513158D01*
X159684010Y-124783411D01*
X159846525Y-125026632D01*
X160053368Y-125233475D01*
X160227760Y-125350000D01*
X160053368Y-125466525D01*
X159846525Y-125673368D01*
X159684010Y-125916589D01*
X159572068Y-126186842D01*
X159515000Y-126473740D01*
X159515000Y-126766260D01*
X159572068Y-127053158D01*
X159684010Y-127323411D01*
X159846525Y-127566632D01*
X160053368Y-127773475D01*
X160296589Y-127935990D01*
X160566842Y-128047932D01*
X160853740Y-128105000D01*
X161146260Y-128105000D01*
X161433158Y-128047932D01*
X161703411Y-127935990D01*
X161946632Y-127773475D01*
X162153475Y-127566632D01*
X162315990Y-127323411D01*
X162427932Y-127053158D01*
X162485000Y-126766260D01*
X162485000Y-126473740D01*
X162427932Y-126186842D01*
X162315990Y-125916589D01*
X162153475Y-125673368D01*
X161946632Y-125466525D01*
X161772240Y-125350000D01*
X161946632Y-125233475D01*
X162153475Y-125026632D01*
X162315990Y-124783411D01*
X162427932Y-124513158D01*
X162485000Y-124226260D01*
X162485000Y-123933740D01*
X162427932Y-123646842D01*
X162315990Y-123376589D01*
X162153475Y-123133368D01*
X161946632Y-122926525D01*
X161764466Y-122804805D01*
X161881355Y-122735178D01*
X162097588Y-122540269D01*
X162271641Y-122306920D01*
X162396825Y-122044099D01*
X162441476Y-121896890D01*
X162320155Y-121667000D01*
X161127000Y-121667000D01*
X161127000Y-121687000D01*
X160873000Y-121687000D01*
X160873000Y-121667000D01*
X159679845Y-121667000D01*
X159558524Y-121896890D01*
X159603175Y-122044099D01*
X159728359Y-122306920D01*
X159902412Y-122540269D01*
X160118645Y-122735178D01*
X160235534Y-122804805D01*
X160053368Y-122926525D01*
X159846525Y-123133368D01*
X159684010Y-123376589D01*
X159572068Y-123646842D01*
X159515000Y-123933740D01*
X159160000Y-123933740D01*
X159160000Y-118150000D01*
X159511928Y-118150000D01*
X159511928Y-119850000D01*
X159524188Y-119974482D01*
X159560498Y-120094180D01*
X159619463Y-120204494D01*
X159698815Y-120301185D01*
X159795506Y-120380537D01*
X159905820Y-120439502D01*
X159986466Y-120463966D01*
X159902412Y-120539731D01*
X159728359Y-120773080D01*
X159603175Y-121035901D01*
X159558524Y-121183110D01*
X159679845Y-121413000D01*
X160873000Y-121413000D01*
X160873000Y-121393000D01*
X161127000Y-121393000D01*
X161127000Y-121413000D01*
X162320155Y-121413000D01*
X162441476Y-121183110D01*
X162396825Y-121035901D01*
X162271641Y-120773080D01*
X162097588Y-120539731D01*
X162013534Y-120463966D01*
X162094180Y-120439502D01*
X162204494Y-120380537D01*
X162301185Y-120301185D01*
X162380537Y-120204494D01*
X162439502Y-120094180D01*
X162475812Y-119974482D01*
X162479701Y-119935000D01*
X162886780Y-119935000D01*
X162922038Y-119977962D01*
X163056613Y-120088405D01*
X163210149Y-120170472D01*
X163376745Y-120221008D01*
X163549999Y-120238072D01*
X164450001Y-120238072D01*
X164623255Y-120221008D01*
X164789851Y-120170472D01*
X164943387Y-120088405D01*
X165077962Y-119977962D01*
X165154254Y-119885000D01*
X165965000Y-119885000D01*
X165965001Y-120991538D01*
X165911595Y-121056613D01*
X165829528Y-121210149D01*
X165778992Y-121376745D01*
X165761928Y-121549999D01*
X165761928Y-121890783D01*
X163871341Y-123781370D01*
X163835656Y-123810656D01*
X163718814Y-123953029D01*
X163631993Y-124115461D01*
X163598383Y-124226260D01*
X163578529Y-124291709D01*
X163560476Y-124475000D01*
X163565000Y-124520932D01*
X163565001Y-128612710D01*
X162421341Y-129756370D01*
X162385656Y-129785656D01*
X162268814Y-129928029D01*
X162181993Y-130090461D01*
X162138752Y-130233007D01*
X162128529Y-130266709D01*
X162110476Y-130450000D01*
X162115000Y-130495932D01*
X162115001Y-131190000D01*
X161822046Y-131190000D01*
X161723942Y-131109488D01*
X161572567Y-131028577D01*
X161408316Y-130978752D01*
X161237500Y-130961928D01*
X160762500Y-130961928D01*
X160591684Y-130978752D01*
X160427433Y-131028577D01*
X160276058Y-131109488D01*
X160143377Y-131218377D01*
X160034488Y-131351058D01*
X159953577Y-131502433D01*
X159903752Y-131666684D01*
X159886928Y-131837500D01*
X159886928Y-132412500D01*
X159903752Y-132583316D01*
X159953577Y-132747567D01*
X160034488Y-132898942D01*
X160054099Y-132922839D01*
X159994463Y-132995506D01*
X159935498Y-133105820D01*
X159899188Y-133225518D01*
X159886928Y-133350000D01*
X159890000Y-133589250D01*
X160048750Y-133748000D01*
X160873000Y-133748000D01*
X160873000Y-133728000D01*
X161127000Y-133728000D01*
X161127000Y-133748000D01*
X161147000Y-133748000D01*
X161147000Y-134002000D01*
X161127000Y-134002000D01*
X161127000Y-134876250D01*
X161285750Y-135035000D01*
X161475000Y-135038072D01*
X161599482Y-135025812D01*
X161639781Y-135013587D01*
X161604774Y-135098102D01*
X161565000Y-135298061D01*
X161565000Y-135501939D01*
X161604774Y-135701898D01*
X161682795Y-135890256D01*
X161796063Y-136059774D01*
X161940226Y-136203937D01*
X162109744Y-136317205D01*
X162298102Y-136395226D01*
X162498061Y-136435000D01*
X162701939Y-136435000D01*
X162901898Y-136395226D01*
X163090256Y-136317205D01*
X163259774Y-136203937D01*
X163403937Y-136059774D01*
X163517205Y-135890256D01*
X163577431Y-135744858D01*
X163678659Y-135643630D01*
X163714344Y-135614344D01*
X163831186Y-135471972D01*
X163918007Y-135309540D01*
X163955253Y-135186757D01*
X163971471Y-135133293D01*
X163989524Y-134950001D01*
X163985000Y-134904069D01*
X163985000Y-134806607D01*
X164000000Y-134757159D01*
X164015000Y-134806607D01*
X164015000Y-134904068D01*
X164010476Y-134950000D01*
X164028529Y-135133291D01*
X164053834Y-135216709D01*
X164081994Y-135309540D01*
X164168815Y-135471972D01*
X164285657Y-135614344D01*
X164321336Y-135643625D01*
X165883747Y-137206036D01*
X165908617Y-137331067D01*
X165994176Y-137537624D01*
X166065000Y-137643620D01*
X166065001Y-138577378D01*
X165955820Y-138610498D01*
X165845506Y-138669463D01*
X165748815Y-138748815D01*
X165669463Y-138845506D01*
X165610498Y-138955820D01*
X165574188Y-139075518D01*
X165561928Y-139200000D01*
X165561928Y-140800000D01*
X165574188Y-140924482D01*
X165610498Y-141044180D01*
X165669463Y-141154494D01*
X165748815Y-141251185D01*
X165845506Y-141330537D01*
X165955820Y-141389502D01*
X166075518Y-141425812D01*
X166200000Y-141438072D01*
X167800000Y-141438072D01*
X167924482Y-141425812D01*
X168044180Y-141389502D01*
X168154494Y-141330537D01*
X168251185Y-141251185D01*
X168330537Y-141154494D01*
X168389502Y-141044180D01*
X168425812Y-140924482D01*
X168438072Y-140800000D01*
X168438072Y-139884217D01*
X169723664Y-138598626D01*
X169759344Y-138569344D01*
X169876186Y-138426972D01*
X169963007Y-138264540D01*
X170002302Y-138135000D01*
X170016471Y-138088293D01*
X170034524Y-137905001D01*
X170030000Y-137859069D01*
X170030000Y-137437289D01*
X173221374Y-140628664D01*
X173250656Y-140664344D01*
X173393028Y-140781186D01*
X173428937Y-140800380D01*
X173505363Y-140914759D01*
X173705241Y-141114637D01*
X173940273Y-141271680D01*
X174201426Y-141379853D01*
X174478665Y-141435000D01*
X174761335Y-141435000D01*
X175038574Y-141379853D01*
X175299727Y-141271680D01*
X175534759Y-141114637D01*
X175714396Y-140935000D01*
X176359290Y-140935000D01*
X176427433Y-140971423D01*
X176591684Y-141021248D01*
X176762500Y-141038072D01*
X177237500Y-141038072D01*
X177408316Y-141021248D01*
X177572567Y-140971423D01*
X177723942Y-140890512D01*
X177856623Y-140781623D01*
X177965512Y-140648942D01*
X178046423Y-140497567D01*
X178096248Y-140333316D01*
X178113072Y-140162500D01*
X178113072Y-139587500D01*
X178096248Y-139416684D01*
X178046423Y-139252433D01*
X177965512Y-139101058D01*
X177945901Y-139077161D01*
X178005537Y-139004494D01*
X178064502Y-138894180D01*
X178100812Y-138774482D01*
X178113072Y-138650000D01*
X178110000Y-138410750D01*
X177951250Y-138252000D01*
X177127000Y-138252000D01*
X177127000Y-138272000D01*
X176873000Y-138272000D01*
X176873000Y-138252000D01*
X176048750Y-138252000D01*
X175890000Y-138410750D01*
X175886928Y-138650000D01*
X175899188Y-138774482D01*
X175935498Y-138894180D01*
X175994463Y-139004494D01*
X176044119Y-139065000D01*
X175714396Y-139065000D01*
X175534759Y-138885363D01*
X175299727Y-138728320D01*
X175038574Y-138620147D01*
X174761335Y-138565000D01*
X174478665Y-138565000D01*
X174201426Y-138620147D01*
X173958189Y-138720899D01*
X172837290Y-137600000D01*
X175886928Y-137600000D01*
X175890000Y-137839250D01*
X176048750Y-137998000D01*
X176873000Y-137998000D01*
X176873000Y-137123750D01*
X177127000Y-137123750D01*
X177127000Y-137998000D01*
X177951250Y-137998000D01*
X178110000Y-137839250D01*
X178113072Y-137600000D01*
X178100812Y-137475518D01*
X178064502Y-137355820D01*
X178005537Y-137245506D01*
X177926185Y-137148815D01*
X177829494Y-137069463D01*
X177719180Y-137010498D01*
X177599482Y-136974188D01*
X177475000Y-136961928D01*
X177285750Y-136965000D01*
X177127000Y-137123750D01*
X176873000Y-137123750D01*
X176714250Y-136965000D01*
X176525000Y-136961928D01*
X176400518Y-136974188D01*
X176280820Y-137010498D01*
X176170506Y-137069463D01*
X176073815Y-137148815D01*
X175994463Y-137245506D01*
X175935498Y-137355820D01*
X175899188Y-137475518D01*
X175886928Y-137600000D01*
X172837290Y-137600000D01*
X172203095Y-136965806D01*
X172220936Y-136956270D01*
X172250506Y-136980537D01*
X172360820Y-137039502D01*
X172480518Y-137075812D01*
X172605000Y-137088072D01*
X172619250Y-137085000D01*
X172778000Y-136926250D01*
X172778000Y-135602000D01*
X173032000Y-135602000D01*
X173032000Y-136926250D01*
X173190750Y-137085000D01*
X173205000Y-137088072D01*
X173329482Y-137075812D01*
X173449180Y-137039502D01*
X173559494Y-136980537D01*
X173656185Y-136901185D01*
X173735537Y-136804494D01*
X173794502Y-136694180D01*
X173830812Y-136574482D01*
X173843072Y-136450000D01*
X173840000Y-135760750D01*
X173681250Y-135602000D01*
X173032000Y-135602000D01*
X172778000Y-135602000D01*
X172758000Y-135602000D01*
X172758000Y-135348000D01*
X172778000Y-135348000D01*
X172778000Y-134023750D01*
X173032000Y-134023750D01*
X173032000Y-135348000D01*
X173681250Y-135348000D01*
X173840000Y-135189250D01*
X173840397Y-135100000D01*
X177761928Y-135100000D01*
X177774188Y-135224482D01*
X177810498Y-135344180D01*
X177869463Y-135454494D01*
X177948815Y-135551185D01*
X178045506Y-135630537D01*
X178155820Y-135689502D01*
X178275518Y-135725812D01*
X178400000Y-135738072D01*
X178714250Y-135735000D01*
X178873000Y-135576250D01*
X178873000Y-134777000D01*
X179127000Y-134777000D01*
X179127000Y-135576250D01*
X179285750Y-135735000D01*
X179600000Y-135738072D01*
X179724482Y-135725812D01*
X179844180Y-135689502D01*
X179954494Y-135630537D01*
X180051185Y-135551185D01*
X180130537Y-135454494D01*
X180189502Y-135344180D01*
X180225812Y-135224482D01*
X180238072Y-135100000D01*
X180235000Y-134935750D01*
X180076250Y-134777000D01*
X179127000Y-134777000D01*
X178873000Y-134777000D01*
X177923750Y-134777000D01*
X177765000Y-134935750D01*
X177761928Y-135100000D01*
X173840397Y-135100000D01*
X173843072Y-134500000D01*
X173833224Y-134400000D01*
X174886928Y-134400000D01*
X174899188Y-134524482D01*
X174935498Y-134644180D01*
X174994463Y-134754494D01*
X175073815Y-134851185D01*
X175170506Y-134930537D01*
X175280820Y-134989502D01*
X175400518Y-135025812D01*
X175525000Y-135038072D01*
X175714250Y-135035000D01*
X175873000Y-134876250D01*
X175873000Y-134002000D01*
X176127000Y-134002000D01*
X176127000Y-134876250D01*
X176285750Y-135035000D01*
X176475000Y-135038072D01*
X176599482Y-135025812D01*
X176719180Y-134989502D01*
X176829494Y-134930537D01*
X176926185Y-134851185D01*
X177005537Y-134754494D01*
X177064502Y-134644180D01*
X177100812Y-134524482D01*
X177113072Y-134400000D01*
X177110504Y-134200000D01*
X177761928Y-134200000D01*
X177765000Y-134364250D01*
X177923750Y-134523000D01*
X178873000Y-134523000D01*
X178873000Y-133723750D01*
X179127000Y-133723750D01*
X179127000Y-134523000D01*
X180076250Y-134523000D01*
X180235000Y-134364250D01*
X180238072Y-134200000D01*
X180225812Y-134075518D01*
X180189502Y-133955820D01*
X180130537Y-133845506D01*
X180051185Y-133748815D01*
X179954494Y-133669463D01*
X179844180Y-133610498D01*
X179724482Y-133574188D01*
X179600000Y-133561928D01*
X179285750Y-133565000D01*
X179127000Y-133723750D01*
X178873000Y-133723750D01*
X178714250Y-133565000D01*
X178400000Y-133561928D01*
X178275518Y-133574188D01*
X178155820Y-133610498D01*
X178045506Y-133669463D01*
X177948815Y-133748815D01*
X177869463Y-133845506D01*
X177810498Y-133955820D01*
X177774188Y-134075518D01*
X177761928Y-134200000D01*
X177110504Y-134200000D01*
X177110000Y-134160750D01*
X176951250Y-134002000D01*
X176127000Y-134002000D01*
X175873000Y-134002000D01*
X175048750Y-134002000D01*
X174890000Y-134160750D01*
X174886928Y-134400000D01*
X173833224Y-134400000D01*
X173830812Y-134375518D01*
X173794502Y-134255820D01*
X173735537Y-134145506D01*
X173656185Y-134048815D01*
X173559494Y-133969463D01*
X173449180Y-133910498D01*
X173329482Y-133874188D01*
X173205000Y-133861928D01*
X173190750Y-133865000D01*
X173032000Y-134023750D01*
X172778000Y-134023750D01*
X172619250Y-133865000D01*
X172605000Y-133861928D01*
X172570000Y-133865375D01*
X172570000Y-133752289D01*
X173533665Y-132788625D01*
X173569344Y-132759344D01*
X173686186Y-132616972D01*
X173773007Y-132454540D01*
X173826471Y-132278292D01*
X173827143Y-132271471D01*
X173844524Y-132095001D01*
X173840000Y-132049069D01*
X173840000Y-131460000D01*
X174012711Y-131460000D01*
X174886928Y-132334217D01*
X174886928Y-132412500D01*
X174903752Y-132583316D01*
X174953577Y-132747567D01*
X175034488Y-132898942D01*
X175054099Y-132922839D01*
X174994463Y-132995506D01*
X174935498Y-133105820D01*
X174899188Y-133225518D01*
X174886928Y-133350000D01*
X174890000Y-133589250D01*
X175048750Y-133748000D01*
X175873000Y-133748000D01*
X175873000Y-133728000D01*
X176127000Y-133728000D01*
X176127000Y-133748000D01*
X176951250Y-133748000D01*
X177110000Y-133589250D01*
X177113072Y-133350000D01*
X177100812Y-133225518D01*
X177064502Y-133105820D01*
X177005537Y-132995506D01*
X176945901Y-132922839D01*
X176965512Y-132898942D01*
X177046423Y-132747567D01*
X177096248Y-132583316D01*
X177113072Y-132412500D01*
X177113072Y-132334218D01*
X177162290Y-132285000D01*
X177990019Y-132285000D01*
X178045506Y-132330537D01*
X178155820Y-132389502D01*
X178275518Y-132425812D01*
X178400000Y-132438072D01*
X179600000Y-132438072D01*
X179724482Y-132425812D01*
X179844180Y-132389502D01*
X179954494Y-132330537D01*
X180051185Y-132251185D01*
X180130537Y-132154494D01*
X180189502Y-132044180D01*
X180225812Y-131924482D01*
X180238072Y-131800000D01*
X180238072Y-130900000D01*
X180225812Y-130775518D01*
X180189502Y-130655820D01*
X180130537Y-130545506D01*
X180051185Y-130448815D01*
X179954494Y-130369463D01*
X179935000Y-130359043D01*
X179935000Y-129686121D01*
X179965512Y-129648942D01*
X180046423Y-129497567D01*
X180096248Y-129333316D01*
X180113072Y-129162500D01*
X180113072Y-128587500D01*
X180096248Y-128416684D01*
X180046423Y-128252433D01*
X179965512Y-128101058D01*
X179882575Y-128000000D01*
X179965512Y-127898942D01*
X180046423Y-127747567D01*
X180096248Y-127583316D01*
X180113072Y-127412500D01*
X180113072Y-126837500D01*
X180096248Y-126666684D01*
X180046423Y-126502433D01*
X179965512Y-126351058D01*
X179935000Y-126313879D01*
X179935000Y-124045931D01*
X179939524Y-123999999D01*
X179921471Y-123816707D01*
X179884874Y-123696063D01*
X179868007Y-123640460D01*
X179781186Y-123478028D01*
X179664344Y-123335656D01*
X179628666Y-123306376D01*
X178116253Y-121793964D01*
X178091383Y-121668933D01*
X178005824Y-121462376D01*
X177935000Y-121356381D01*
X177935000Y-120092888D01*
X177943387Y-120088405D01*
X178077962Y-119977962D01*
X178188405Y-119843387D01*
X178270472Y-119689851D01*
X178321008Y-119523255D01*
X178338072Y-119350001D01*
X178338072Y-118699999D01*
X178321008Y-118526745D01*
X178270472Y-118360149D01*
X178188405Y-118206613D01*
X178077962Y-118072038D01*
X178071406Y-118066658D01*
X178151185Y-118001185D01*
X178230537Y-117904494D01*
X178289502Y-117794180D01*
X178325812Y-117674482D01*
X178338072Y-117550000D01*
X178335000Y-117260750D01*
X178176250Y-117102000D01*
X177127000Y-117102000D01*
X177127000Y-117122000D01*
X176873000Y-117122000D01*
X176873000Y-117102000D01*
X175823750Y-117102000D01*
X175665000Y-117260750D01*
X175661928Y-117550000D01*
X175674188Y-117674482D01*
X175710498Y-117794180D01*
X175769463Y-117904494D01*
X175798602Y-117940000D01*
X175431816Y-117940000D01*
X175465512Y-117898942D01*
X175546423Y-117747567D01*
X175596248Y-117583316D01*
X175613072Y-117412500D01*
X175613072Y-116837500D01*
X175596248Y-116666684D01*
X175546423Y-116502433D01*
X175491672Y-116400000D01*
X175661928Y-116400000D01*
X175665000Y-116689250D01*
X175823750Y-116848000D01*
X176873000Y-116848000D01*
X176873000Y-115923750D01*
X177127000Y-115923750D01*
X177127000Y-116848000D01*
X178176250Y-116848000D01*
X178335000Y-116689250D01*
X178338072Y-116400000D01*
X178325812Y-116275518D01*
X178289502Y-116155820D01*
X178230537Y-116045506D01*
X178151185Y-115948815D01*
X178054494Y-115869463D01*
X177944180Y-115810498D01*
X177824482Y-115774188D01*
X177700000Y-115761928D01*
X177285750Y-115765000D01*
X177127000Y-115923750D01*
X176873000Y-115923750D01*
X176714250Y-115765000D01*
X176300000Y-115761928D01*
X176175518Y-115774188D01*
X176055820Y-115810498D01*
X175945506Y-115869463D01*
X175848815Y-115948815D01*
X175769463Y-116045506D01*
X175710498Y-116155820D01*
X175674188Y-116275518D01*
X175661928Y-116400000D01*
X175491672Y-116400000D01*
X175465512Y-116351058D01*
X175356623Y-116218377D01*
X175223942Y-116109488D01*
X175072567Y-116028577D01*
X174908316Y-115978752D01*
X174737500Y-115961928D01*
X174262500Y-115961928D01*
X174091684Y-115978752D01*
X173927433Y-116028577D01*
X173776058Y-116109488D01*
X173677954Y-116190000D01*
X172822046Y-116190000D01*
X172723942Y-116109488D01*
X172572567Y-116028577D01*
X172408316Y-115978752D01*
X172237500Y-115961928D01*
X171810000Y-115961928D01*
X171810000Y-115822046D01*
X171890512Y-115723942D01*
X171971423Y-115572567D01*
X172021248Y-115408316D01*
X172038072Y-115237500D01*
X172038072Y-114762500D01*
X172021248Y-114591684D01*
X171971423Y-114427433D01*
X171890512Y-114276058D01*
X171781623Y-114143377D01*
X171648942Y-114034488D01*
X171497567Y-113953577D01*
X171333316Y-113903752D01*
X171162500Y-113886928D01*
X170587500Y-113886928D01*
X170416684Y-113903752D01*
X170252433Y-113953577D01*
X170101058Y-114034488D01*
X170077161Y-114054099D01*
X170004494Y-113994463D01*
X169894180Y-113935498D01*
X169774482Y-113899188D01*
X169650000Y-113886928D01*
X169410750Y-113890000D01*
X169252000Y-114048750D01*
X169252000Y-114873000D01*
X169272000Y-114873000D01*
X169272000Y-115127000D01*
X169252000Y-115127000D01*
X169252000Y-115147000D01*
X168998000Y-115147000D01*
X168998000Y-115127000D01*
X168123750Y-115127000D01*
X168004753Y-115245997D01*
X167995226Y-115198102D01*
X167917205Y-115009744D01*
X167803937Y-114840226D01*
X167659774Y-114696063D01*
X167490256Y-114582795D01*
X167350728Y-114525000D01*
X167961928Y-114525000D01*
X167965000Y-114714250D01*
X168123750Y-114873000D01*
X168998000Y-114873000D01*
X168998000Y-114048750D01*
X168839250Y-113890000D01*
X168600000Y-113886928D01*
X168475518Y-113899188D01*
X168355820Y-113935498D01*
X168245506Y-113994463D01*
X168148815Y-114073815D01*
X168069463Y-114170506D01*
X168010498Y-114280820D01*
X167974188Y-114400518D01*
X167961928Y-114525000D01*
X167350728Y-114525000D01*
X167301898Y-114504774D01*
X167101939Y-114465000D01*
X166898061Y-114465000D01*
X166698102Y-114504774D01*
X166509744Y-114582795D01*
X166340226Y-114696063D01*
X166196063Y-114840226D01*
X166082795Y-115009744D01*
X166004774Y-115198102D01*
X165965000Y-115398061D01*
X165965000Y-115601939D01*
X166004774Y-115801898D01*
X166065000Y-115947296D01*
X166065000Y-116168007D01*
X166015506Y-116194463D01*
X165918815Y-116273815D01*
X165839463Y-116370506D01*
X165780498Y-116480820D01*
X165744188Y-116600518D01*
X165731928Y-116725000D01*
X165731928Y-117375000D01*
X165744188Y-117499482D01*
X165780498Y-117619180D01*
X165839463Y-117729494D01*
X165918815Y-117826185D01*
X166015506Y-117905537D01*
X166125820Y-117964502D01*
X166242841Y-118000000D01*
X166193393Y-118015000D01*
X165134351Y-118015000D01*
X165151185Y-118001185D01*
X165230537Y-117904494D01*
X165289502Y-117794180D01*
X165325812Y-117674482D01*
X165338072Y-117550000D01*
X165335000Y-117260750D01*
X165176250Y-117102000D01*
X164127000Y-117102000D01*
X164127000Y-117122000D01*
X163873000Y-117122000D01*
X163873000Y-117102000D01*
X162823750Y-117102000D01*
X162665000Y-117260750D01*
X162661928Y-117550000D01*
X162674188Y-117674482D01*
X162710498Y-117794180D01*
X162769463Y-117904494D01*
X162848815Y-118001185D01*
X162926574Y-118065000D01*
X162479701Y-118065000D01*
X162475812Y-118025518D01*
X162439502Y-117905820D01*
X162380537Y-117795506D01*
X162301185Y-117698815D01*
X162204494Y-117619463D01*
X162094180Y-117560498D01*
X161974482Y-117524188D01*
X161850000Y-117511928D01*
X160150000Y-117511928D01*
X160025518Y-117524188D01*
X159905820Y-117560498D01*
X159795506Y-117619463D01*
X159698815Y-117698815D01*
X159619463Y-117795506D01*
X159560498Y-117905820D01*
X159524188Y-118025518D01*
X159511928Y-118150000D01*
X159160000Y-118150000D01*
X159160000Y-116400000D01*
X162661928Y-116400000D01*
X162665000Y-116689250D01*
X162823750Y-116848000D01*
X163873000Y-116848000D01*
X163873000Y-115923750D01*
X164127000Y-115923750D01*
X164127000Y-116848000D01*
X165176250Y-116848000D01*
X165335000Y-116689250D01*
X165338072Y-116400000D01*
X165325812Y-116275518D01*
X165289502Y-116155820D01*
X165230537Y-116045506D01*
X165151185Y-115948815D01*
X165054494Y-115869463D01*
X164944180Y-115810498D01*
X164824482Y-115774188D01*
X164700000Y-115761928D01*
X164285750Y-115765000D01*
X164127000Y-115923750D01*
X163873000Y-115923750D01*
X163714250Y-115765000D01*
X163300000Y-115761928D01*
X163175518Y-115774188D01*
X163055820Y-115810498D01*
X162945506Y-115869463D01*
X162848815Y-115948815D01*
X162769463Y-116045506D01*
X162710498Y-116155820D01*
X162674188Y-116275518D01*
X162661928Y-116400000D01*
X159160000Y-116400000D01*
X159160000Y-113660000D01*
X180840001Y-113660000D01*
X180840000Y-141840000D01*
G37*
X180840000Y-141840000D02*
X159160000Y-141840000D01*
X159160000Y-134400000D01*
X159886928Y-134400000D01*
X159899188Y-134524482D01*
X159935498Y-134644180D01*
X159994463Y-134754494D01*
X160073815Y-134851185D01*
X160170506Y-134930537D01*
X160280820Y-134989502D01*
X160400518Y-135025812D01*
X160525000Y-135038072D01*
X160714250Y-135035000D01*
X160873000Y-134876250D01*
X160873000Y-134002000D01*
X160048750Y-134002000D01*
X159890000Y-134160750D01*
X159886928Y-134400000D01*
X159160000Y-134400000D01*
X159160000Y-123933740D01*
X159515000Y-123933740D01*
X159515000Y-124226260D01*
X159572068Y-124513158D01*
X159684010Y-124783411D01*
X159846525Y-125026632D01*
X160053368Y-125233475D01*
X160227760Y-125350000D01*
X160053368Y-125466525D01*
X159846525Y-125673368D01*
X159684010Y-125916589D01*
X159572068Y-126186842D01*
X159515000Y-126473740D01*
X159515000Y-126766260D01*
X159572068Y-127053158D01*
X159684010Y-127323411D01*
X159846525Y-127566632D01*
X160053368Y-127773475D01*
X160296589Y-127935990D01*
X160566842Y-128047932D01*
X160853740Y-128105000D01*
X161146260Y-128105000D01*
X161433158Y-128047932D01*
X161703411Y-127935990D01*
X161946632Y-127773475D01*
X162153475Y-127566632D01*
X162315990Y-127323411D01*
X162427932Y-127053158D01*
X162485000Y-126766260D01*
X162485000Y-126473740D01*
X162427932Y-126186842D01*
X162315990Y-125916589D01*
X162153475Y-125673368D01*
X161946632Y-125466525D01*
X161772240Y-125350000D01*
X161946632Y-125233475D01*
X162153475Y-125026632D01*
X162315990Y-124783411D01*
X162427932Y-124513158D01*
X162485000Y-124226260D01*
X162485000Y-123933740D01*
X162427932Y-123646842D01*
X162315990Y-123376589D01*
X162153475Y-123133368D01*
X161946632Y-122926525D01*
X161764466Y-122804805D01*
X161881355Y-122735178D01*
X162097588Y-122540269D01*
X162271641Y-122306920D01*
X162396825Y-122044099D01*
X162441476Y-121896890D01*
X162320155Y-121667000D01*
X161127000Y-121667000D01*
X161127000Y-121687000D01*
X160873000Y-121687000D01*
X160873000Y-121667000D01*
X159679845Y-121667000D01*
X159558524Y-121896890D01*
X159603175Y-122044099D01*
X159728359Y-122306920D01*
X159902412Y-122540269D01*
X160118645Y-122735178D01*
X160235534Y-122804805D01*
X160053368Y-122926525D01*
X159846525Y-123133368D01*
X159684010Y-123376589D01*
X159572068Y-123646842D01*
X159515000Y-123933740D01*
X159160000Y-123933740D01*
X159160000Y-118150000D01*
X159511928Y-118150000D01*
X159511928Y-119850000D01*
X159524188Y-119974482D01*
X159560498Y-120094180D01*
X159619463Y-120204494D01*
X159698815Y-120301185D01*
X159795506Y-120380537D01*
X159905820Y-120439502D01*
X159986466Y-120463966D01*
X159902412Y-120539731D01*
X159728359Y-120773080D01*
X159603175Y-121035901D01*
X159558524Y-121183110D01*
X159679845Y-121413000D01*
X160873000Y-121413000D01*
X160873000Y-121393000D01*
X161127000Y-121393000D01*
X161127000Y-121413000D01*
X162320155Y-121413000D01*
X162441476Y-121183110D01*
X162396825Y-121035901D01*
X162271641Y-120773080D01*
X162097588Y-120539731D01*
X162013534Y-120463966D01*
X162094180Y-120439502D01*
X162204494Y-120380537D01*
X162301185Y-120301185D01*
X162380537Y-120204494D01*
X162439502Y-120094180D01*
X162475812Y-119974482D01*
X162479701Y-119935000D01*
X162886780Y-119935000D01*
X162922038Y-119977962D01*
X163056613Y-120088405D01*
X163210149Y-120170472D01*
X163376745Y-120221008D01*
X163549999Y-120238072D01*
X164450001Y-120238072D01*
X164623255Y-120221008D01*
X164789851Y-120170472D01*
X164943387Y-120088405D01*
X165077962Y-119977962D01*
X165154254Y-119885000D01*
X165965000Y-119885000D01*
X165965001Y-120991538D01*
X165911595Y-121056613D01*
X165829528Y-121210149D01*
X165778992Y-121376745D01*
X165761928Y-121549999D01*
X165761928Y-121890783D01*
X163871341Y-123781370D01*
X163835656Y-123810656D01*
X163718814Y-123953029D01*
X163631993Y-124115461D01*
X163598383Y-124226260D01*
X163578529Y-124291709D01*
X163560476Y-124475000D01*
X163565000Y-124520932D01*
X163565001Y-128612710D01*
X162421341Y-129756370D01*
X162385656Y-129785656D01*
X162268814Y-129928029D01*
X162181993Y-130090461D01*
X162138752Y-130233007D01*
X162128529Y-130266709D01*
X162110476Y-130450000D01*
X162115000Y-130495932D01*
X162115001Y-131190000D01*
X161822046Y-131190000D01*
X161723942Y-131109488D01*
X161572567Y-131028577D01*
X161408316Y-130978752D01*
X161237500Y-130961928D01*
X160762500Y-130961928D01*
X160591684Y-130978752D01*
X160427433Y-131028577D01*
X160276058Y-131109488D01*
X160143377Y-131218377D01*
X160034488Y-131351058D01*
X159953577Y-131502433D01*
X159903752Y-131666684D01*
X159886928Y-131837500D01*
X159886928Y-132412500D01*
X159903752Y-132583316D01*
X159953577Y-132747567D01*
X160034488Y-132898942D01*
X160054099Y-132922839D01*
X159994463Y-132995506D01*
X159935498Y-133105820D01*
X159899188Y-133225518D01*
X159886928Y-133350000D01*
X159890000Y-133589250D01*
X160048750Y-133748000D01*
X160873000Y-133748000D01*
X160873000Y-133728000D01*
X161127000Y-133728000D01*
X161127000Y-133748000D01*
X161147000Y-133748000D01*
X161147000Y-134002000D01*
X161127000Y-134002000D01*
X161127000Y-134876250D01*
X161285750Y-135035000D01*
X161475000Y-135038072D01*
X161599482Y-135025812D01*
X161639781Y-135013587D01*
X161604774Y-135098102D01*
X161565000Y-135298061D01*
X161565000Y-135501939D01*
X161604774Y-135701898D01*
X161682795Y-135890256D01*
X161796063Y-136059774D01*
X161940226Y-136203937D01*
X162109744Y-136317205D01*
X162298102Y-136395226D01*
X162498061Y-136435000D01*
X162701939Y-136435000D01*
X162901898Y-136395226D01*
X163090256Y-136317205D01*
X163259774Y-136203937D01*
X163403937Y-136059774D01*
X163517205Y-135890256D01*
X163577431Y-135744858D01*
X163678659Y-135643630D01*
X163714344Y-135614344D01*
X163831186Y-135471972D01*
X163918007Y-135309540D01*
X163955253Y-135186757D01*
X163971471Y-135133293D01*
X163989524Y-134950001D01*
X163985000Y-134904069D01*
X163985000Y-134806607D01*
X164000000Y-134757159D01*
X164015000Y-134806607D01*
X164015000Y-134904068D01*
X164010476Y-134950000D01*
X164028529Y-135133291D01*
X164053834Y-135216709D01*
X164081994Y-135309540D01*
X164168815Y-135471972D01*
X164285657Y-135614344D01*
X164321336Y-135643625D01*
X165883747Y-137206036D01*
X165908617Y-137331067D01*
X165994176Y-137537624D01*
X166065000Y-137643620D01*
X166065001Y-138577378D01*
X165955820Y-138610498D01*
X165845506Y-138669463D01*
X165748815Y-138748815D01*
X165669463Y-138845506D01*
X165610498Y-138955820D01*
X165574188Y-139075518D01*
X165561928Y-139200000D01*
X165561928Y-140800000D01*
X165574188Y-140924482D01*
X165610498Y-141044180D01*
X165669463Y-141154494D01*
X165748815Y-141251185D01*
X165845506Y-141330537D01*
X165955820Y-141389502D01*
X166075518Y-141425812D01*
X166200000Y-141438072D01*
X167800000Y-141438072D01*
X167924482Y-141425812D01*
X168044180Y-141389502D01*
X168154494Y-141330537D01*
X168251185Y-141251185D01*
X168330537Y-141154494D01*
X168389502Y-141044180D01*
X168425812Y-140924482D01*
X168438072Y-140800000D01*
X168438072Y-139884217D01*
X169723664Y-138598626D01*
X169759344Y-138569344D01*
X169876186Y-138426972D01*
X169963007Y-138264540D01*
X170002302Y-138135000D01*
X170016471Y-138088293D01*
X170034524Y-137905001D01*
X170030000Y-137859069D01*
X170030000Y-137437289D01*
X173221374Y-140628664D01*
X173250656Y-140664344D01*
X173393028Y-140781186D01*
X173428937Y-140800380D01*
X173505363Y-140914759D01*
X173705241Y-141114637D01*
X173940273Y-141271680D01*
X174201426Y-141379853D01*
X174478665Y-141435000D01*
X174761335Y-141435000D01*
X175038574Y-141379853D01*
X175299727Y-141271680D01*
X175534759Y-141114637D01*
X175714396Y-140935000D01*
X176359290Y-140935000D01*
X176427433Y-140971423D01*
X176591684Y-141021248D01*
X176762500Y-141038072D01*
X177237500Y-141038072D01*
X177408316Y-141021248D01*
X177572567Y-140971423D01*
X177723942Y-140890512D01*
X177856623Y-140781623D01*
X177965512Y-140648942D01*
X178046423Y-140497567D01*
X178096248Y-140333316D01*
X178113072Y-140162500D01*
X178113072Y-139587500D01*
X178096248Y-139416684D01*
X178046423Y-139252433D01*
X177965512Y-139101058D01*
X177945901Y-139077161D01*
X178005537Y-139004494D01*
X178064502Y-138894180D01*
X178100812Y-138774482D01*
X178113072Y-138650000D01*
X178110000Y-138410750D01*
X177951250Y-138252000D01*
X177127000Y-138252000D01*
X177127000Y-138272000D01*
X176873000Y-138272000D01*
X176873000Y-138252000D01*
X176048750Y-138252000D01*
X175890000Y-138410750D01*
X175886928Y-138650000D01*
X175899188Y-138774482D01*
X175935498Y-138894180D01*
X175994463Y-139004494D01*
X176044119Y-139065000D01*
X175714396Y-139065000D01*
X175534759Y-138885363D01*
X175299727Y-138728320D01*
X175038574Y-138620147D01*
X174761335Y-138565000D01*
X174478665Y-138565000D01*
X174201426Y-138620147D01*
X173958189Y-138720899D01*
X172837290Y-137600000D01*
X175886928Y-137600000D01*
X175890000Y-137839250D01*
X176048750Y-137998000D01*
X176873000Y-137998000D01*
X176873000Y-137123750D01*
X177127000Y-137123750D01*
X177127000Y-137998000D01*
X177951250Y-137998000D01*
X178110000Y-137839250D01*
X178113072Y-137600000D01*
X178100812Y-137475518D01*
X178064502Y-137355820D01*
X178005537Y-137245506D01*
X177926185Y-137148815D01*
X177829494Y-137069463D01*
X177719180Y-137010498D01*
X177599482Y-136974188D01*
X177475000Y-136961928D01*
X177285750Y-136965000D01*
X177127000Y-137123750D01*
X176873000Y-137123750D01*
X176714250Y-136965000D01*
X176525000Y-136961928D01*
X176400518Y-136974188D01*
X176280820Y-137010498D01*
X176170506Y-137069463D01*
X176073815Y-137148815D01*
X175994463Y-137245506D01*
X175935498Y-137355820D01*
X175899188Y-137475518D01*
X175886928Y-137600000D01*
X172837290Y-137600000D01*
X172203095Y-136965806D01*
X172220936Y-136956270D01*
X172250506Y-136980537D01*
X172360820Y-137039502D01*
X172480518Y-137075812D01*
X172605000Y-137088072D01*
X172619250Y-137085000D01*
X172778000Y-136926250D01*
X172778000Y-135602000D01*
X173032000Y-135602000D01*
X173032000Y-136926250D01*
X173190750Y-137085000D01*
X173205000Y-137088072D01*
X173329482Y-137075812D01*
X173449180Y-137039502D01*
X173559494Y-136980537D01*
X173656185Y-136901185D01*
X173735537Y-136804494D01*
X173794502Y-136694180D01*
X173830812Y-136574482D01*
X173843072Y-136450000D01*
X173840000Y-135760750D01*
X173681250Y-135602000D01*
X173032000Y-135602000D01*
X172778000Y-135602000D01*
X172758000Y-135602000D01*
X172758000Y-135348000D01*
X172778000Y-135348000D01*
X172778000Y-134023750D01*
X173032000Y-134023750D01*
X173032000Y-135348000D01*
X173681250Y-135348000D01*
X173840000Y-135189250D01*
X173840397Y-135100000D01*
X177761928Y-135100000D01*
X177774188Y-135224482D01*
X177810498Y-135344180D01*
X177869463Y-135454494D01*
X177948815Y-135551185D01*
X178045506Y-135630537D01*
X178155820Y-135689502D01*
X178275518Y-135725812D01*
X178400000Y-135738072D01*
X178714250Y-135735000D01*
X178873000Y-135576250D01*
X178873000Y-134777000D01*
X179127000Y-134777000D01*
X179127000Y-135576250D01*
X179285750Y-135735000D01*
X179600000Y-135738072D01*
X179724482Y-135725812D01*
X179844180Y-135689502D01*
X179954494Y-135630537D01*
X180051185Y-135551185D01*
X180130537Y-135454494D01*
X180189502Y-135344180D01*
X180225812Y-135224482D01*
X180238072Y-135100000D01*
X180235000Y-134935750D01*
X180076250Y-134777000D01*
X179127000Y-134777000D01*
X178873000Y-134777000D01*
X177923750Y-134777000D01*
X177765000Y-134935750D01*
X177761928Y-135100000D01*
X173840397Y-135100000D01*
X173843072Y-134500000D01*
X173833224Y-134400000D01*
X174886928Y-134400000D01*
X174899188Y-134524482D01*
X174935498Y-134644180D01*
X174994463Y-134754494D01*
X175073815Y-134851185D01*
X175170506Y-134930537D01*
X175280820Y-134989502D01*
X175400518Y-135025812D01*
X175525000Y-135038072D01*
X175714250Y-135035000D01*
X175873000Y-134876250D01*
X175873000Y-134002000D01*
X176127000Y-134002000D01*
X176127000Y-134876250D01*
X176285750Y-135035000D01*
X176475000Y-135038072D01*
X176599482Y-135025812D01*
X176719180Y-134989502D01*
X176829494Y-134930537D01*
X176926185Y-134851185D01*
X177005537Y-134754494D01*
X177064502Y-134644180D01*
X177100812Y-134524482D01*
X177113072Y-134400000D01*
X177110504Y-134200000D01*
X177761928Y-134200000D01*
X177765000Y-134364250D01*
X177923750Y-134523000D01*
X178873000Y-134523000D01*
X178873000Y-133723750D01*
X179127000Y-133723750D01*
X179127000Y-134523000D01*
X180076250Y-134523000D01*
X180235000Y-134364250D01*
X180238072Y-134200000D01*
X180225812Y-134075518D01*
X180189502Y-133955820D01*
X180130537Y-133845506D01*
X180051185Y-133748815D01*
X179954494Y-133669463D01*
X179844180Y-133610498D01*
X179724482Y-133574188D01*
X179600000Y-133561928D01*
X179285750Y-133565000D01*
X179127000Y-133723750D01*
X178873000Y-133723750D01*
X178714250Y-133565000D01*
X178400000Y-133561928D01*
X178275518Y-133574188D01*
X178155820Y-133610498D01*
X178045506Y-133669463D01*
X177948815Y-133748815D01*
X177869463Y-133845506D01*
X177810498Y-133955820D01*
X177774188Y-134075518D01*
X177761928Y-134200000D01*
X177110504Y-134200000D01*
X177110000Y-134160750D01*
X176951250Y-134002000D01*
X176127000Y-134002000D01*
X175873000Y-134002000D01*
X175048750Y-134002000D01*
X174890000Y-134160750D01*
X174886928Y-134400000D01*
X173833224Y-134400000D01*
X173830812Y-134375518D01*
X173794502Y-134255820D01*
X173735537Y-134145506D01*
X173656185Y-134048815D01*
X173559494Y-133969463D01*
X173449180Y-133910498D01*
X173329482Y-133874188D01*
X173205000Y-133861928D01*
X173190750Y-133865000D01*
X173032000Y-134023750D01*
X172778000Y-134023750D01*
X172619250Y-133865000D01*
X172605000Y-133861928D01*
X172570000Y-133865375D01*
X172570000Y-133752289D01*
X173533665Y-132788625D01*
X173569344Y-132759344D01*
X173686186Y-132616972D01*
X173773007Y-132454540D01*
X173826471Y-132278292D01*
X173827143Y-132271471D01*
X173844524Y-132095001D01*
X173840000Y-132049069D01*
X173840000Y-131460000D01*
X174012711Y-131460000D01*
X174886928Y-132334217D01*
X174886928Y-132412500D01*
X174903752Y-132583316D01*
X174953577Y-132747567D01*
X175034488Y-132898942D01*
X175054099Y-132922839D01*
X174994463Y-132995506D01*
X174935498Y-133105820D01*
X174899188Y-133225518D01*
X174886928Y-133350000D01*
X174890000Y-133589250D01*
X175048750Y-133748000D01*
X175873000Y-133748000D01*
X175873000Y-133728000D01*
X176127000Y-133728000D01*
X176127000Y-133748000D01*
X176951250Y-133748000D01*
X177110000Y-133589250D01*
X177113072Y-133350000D01*
X177100812Y-133225518D01*
X177064502Y-133105820D01*
X177005537Y-132995506D01*
X176945901Y-132922839D01*
X176965512Y-132898942D01*
X177046423Y-132747567D01*
X177096248Y-132583316D01*
X177113072Y-132412500D01*
X177113072Y-132334218D01*
X177162290Y-132285000D01*
X177990019Y-132285000D01*
X178045506Y-132330537D01*
X178155820Y-132389502D01*
X178275518Y-132425812D01*
X178400000Y-132438072D01*
X179600000Y-132438072D01*
X179724482Y-132425812D01*
X179844180Y-132389502D01*
X179954494Y-132330537D01*
X180051185Y-132251185D01*
X180130537Y-132154494D01*
X180189502Y-132044180D01*
X180225812Y-131924482D01*
X180238072Y-131800000D01*
X180238072Y-130900000D01*
X180225812Y-130775518D01*
X180189502Y-130655820D01*
X180130537Y-130545506D01*
X180051185Y-130448815D01*
X179954494Y-130369463D01*
X179935000Y-130359043D01*
X179935000Y-129686121D01*
X179965512Y-129648942D01*
X180046423Y-129497567D01*
X180096248Y-129333316D01*
X180113072Y-129162500D01*
X180113072Y-128587500D01*
X180096248Y-128416684D01*
X180046423Y-128252433D01*
X179965512Y-128101058D01*
X179882575Y-128000000D01*
X179965512Y-127898942D01*
X180046423Y-127747567D01*
X180096248Y-127583316D01*
X180113072Y-127412500D01*
X180113072Y-126837500D01*
X180096248Y-126666684D01*
X180046423Y-126502433D01*
X179965512Y-126351058D01*
X179935000Y-126313879D01*
X179935000Y-124045931D01*
X179939524Y-123999999D01*
X179921471Y-123816707D01*
X179884874Y-123696063D01*
X179868007Y-123640460D01*
X179781186Y-123478028D01*
X179664344Y-123335656D01*
X179628666Y-123306376D01*
X178116253Y-121793964D01*
X178091383Y-121668933D01*
X178005824Y-121462376D01*
X177935000Y-121356381D01*
X177935000Y-120092888D01*
X177943387Y-120088405D01*
X178077962Y-119977962D01*
X178188405Y-119843387D01*
X178270472Y-119689851D01*
X178321008Y-119523255D01*
X178338072Y-119350001D01*
X178338072Y-118699999D01*
X178321008Y-118526745D01*
X178270472Y-118360149D01*
X178188405Y-118206613D01*
X178077962Y-118072038D01*
X178071406Y-118066658D01*
X178151185Y-118001185D01*
X178230537Y-117904494D01*
X178289502Y-117794180D01*
X178325812Y-117674482D01*
X178338072Y-117550000D01*
X178335000Y-117260750D01*
X178176250Y-117102000D01*
X177127000Y-117102000D01*
X177127000Y-117122000D01*
X176873000Y-117122000D01*
X176873000Y-117102000D01*
X175823750Y-117102000D01*
X175665000Y-117260750D01*
X175661928Y-117550000D01*
X175674188Y-117674482D01*
X175710498Y-117794180D01*
X175769463Y-117904494D01*
X175798602Y-117940000D01*
X175431816Y-117940000D01*
X175465512Y-117898942D01*
X175546423Y-117747567D01*
X175596248Y-117583316D01*
X175613072Y-117412500D01*
X175613072Y-116837500D01*
X175596248Y-116666684D01*
X175546423Y-116502433D01*
X175491672Y-116400000D01*
X175661928Y-116400000D01*
X175665000Y-116689250D01*
X175823750Y-116848000D01*
X176873000Y-116848000D01*
X176873000Y-115923750D01*
X177127000Y-115923750D01*
X177127000Y-116848000D01*
X178176250Y-116848000D01*
X178335000Y-116689250D01*
X178338072Y-116400000D01*
X178325812Y-116275518D01*
X178289502Y-116155820D01*
X178230537Y-116045506D01*
X178151185Y-115948815D01*
X178054494Y-115869463D01*
X177944180Y-115810498D01*
X177824482Y-115774188D01*
X177700000Y-115761928D01*
X177285750Y-115765000D01*
X177127000Y-115923750D01*
X176873000Y-115923750D01*
X176714250Y-115765000D01*
X176300000Y-115761928D01*
X176175518Y-115774188D01*
X176055820Y-115810498D01*
X175945506Y-115869463D01*
X175848815Y-115948815D01*
X175769463Y-116045506D01*
X175710498Y-116155820D01*
X175674188Y-116275518D01*
X175661928Y-116400000D01*
X175491672Y-116400000D01*
X175465512Y-116351058D01*
X175356623Y-116218377D01*
X175223942Y-116109488D01*
X175072567Y-116028577D01*
X174908316Y-115978752D01*
X174737500Y-115961928D01*
X174262500Y-115961928D01*
X174091684Y-115978752D01*
X173927433Y-116028577D01*
X173776058Y-116109488D01*
X173677954Y-116190000D01*
X172822046Y-116190000D01*
X172723942Y-116109488D01*
X172572567Y-116028577D01*
X172408316Y-115978752D01*
X172237500Y-115961928D01*
X171810000Y-115961928D01*
X171810000Y-115822046D01*
X171890512Y-115723942D01*
X171971423Y-115572567D01*
X172021248Y-115408316D01*
X172038072Y-115237500D01*
X172038072Y-114762500D01*
X172021248Y-114591684D01*
X171971423Y-114427433D01*
X171890512Y-114276058D01*
X171781623Y-114143377D01*
X171648942Y-114034488D01*
X171497567Y-113953577D01*
X171333316Y-113903752D01*
X171162500Y-113886928D01*
X170587500Y-113886928D01*
X170416684Y-113903752D01*
X170252433Y-113953577D01*
X170101058Y-114034488D01*
X170077161Y-114054099D01*
X170004494Y-113994463D01*
X169894180Y-113935498D01*
X169774482Y-113899188D01*
X169650000Y-113886928D01*
X169410750Y-113890000D01*
X169252000Y-114048750D01*
X169252000Y-114873000D01*
X169272000Y-114873000D01*
X169272000Y-115127000D01*
X169252000Y-115127000D01*
X169252000Y-115147000D01*
X168998000Y-115147000D01*
X168998000Y-115127000D01*
X168123750Y-115127000D01*
X168004753Y-115245997D01*
X167995226Y-115198102D01*
X167917205Y-115009744D01*
X167803937Y-114840226D01*
X167659774Y-114696063D01*
X167490256Y-114582795D01*
X167350728Y-114525000D01*
X167961928Y-114525000D01*
X167965000Y-114714250D01*
X168123750Y-114873000D01*
X168998000Y-114873000D01*
X168998000Y-114048750D01*
X168839250Y-113890000D01*
X168600000Y-113886928D01*
X168475518Y-113899188D01*
X168355820Y-113935498D01*
X168245506Y-113994463D01*
X168148815Y-114073815D01*
X168069463Y-114170506D01*
X168010498Y-114280820D01*
X167974188Y-114400518D01*
X167961928Y-114525000D01*
X167350728Y-114525000D01*
X167301898Y-114504774D01*
X167101939Y-114465000D01*
X166898061Y-114465000D01*
X166698102Y-114504774D01*
X166509744Y-114582795D01*
X166340226Y-114696063D01*
X166196063Y-114840226D01*
X166082795Y-115009744D01*
X166004774Y-115198102D01*
X165965000Y-115398061D01*
X165965000Y-115601939D01*
X166004774Y-115801898D01*
X166065000Y-115947296D01*
X166065000Y-116168007D01*
X166015506Y-116194463D01*
X165918815Y-116273815D01*
X165839463Y-116370506D01*
X165780498Y-116480820D01*
X165744188Y-116600518D01*
X165731928Y-116725000D01*
X165731928Y-117375000D01*
X165744188Y-117499482D01*
X165780498Y-117619180D01*
X165839463Y-117729494D01*
X165918815Y-117826185D01*
X166015506Y-117905537D01*
X166125820Y-117964502D01*
X166242841Y-118000000D01*
X166193393Y-118015000D01*
X165134351Y-118015000D01*
X165151185Y-118001185D01*
X165230537Y-117904494D01*
X165289502Y-117794180D01*
X165325812Y-117674482D01*
X165338072Y-117550000D01*
X165335000Y-117260750D01*
X165176250Y-117102000D01*
X164127000Y-117102000D01*
X164127000Y-117122000D01*
X163873000Y-117122000D01*
X163873000Y-117102000D01*
X162823750Y-117102000D01*
X162665000Y-117260750D01*
X162661928Y-117550000D01*
X162674188Y-117674482D01*
X162710498Y-117794180D01*
X162769463Y-117904494D01*
X162848815Y-118001185D01*
X162926574Y-118065000D01*
X162479701Y-118065000D01*
X162475812Y-118025518D01*
X162439502Y-117905820D01*
X162380537Y-117795506D01*
X162301185Y-117698815D01*
X162204494Y-117619463D01*
X162094180Y-117560498D01*
X161974482Y-117524188D01*
X161850000Y-117511928D01*
X160150000Y-117511928D01*
X160025518Y-117524188D01*
X159905820Y-117560498D01*
X159795506Y-117619463D01*
X159698815Y-117698815D01*
X159619463Y-117795506D01*
X159560498Y-117905820D01*
X159524188Y-118025518D01*
X159511928Y-118150000D01*
X159160000Y-118150000D01*
X159160000Y-116400000D01*
X162661928Y-116400000D01*
X162665000Y-116689250D01*
X162823750Y-116848000D01*
X163873000Y-116848000D01*
X163873000Y-115923750D01*
X164127000Y-115923750D01*
X164127000Y-116848000D01*
X165176250Y-116848000D01*
X165335000Y-116689250D01*
X165338072Y-116400000D01*
X165325812Y-116275518D01*
X165289502Y-116155820D01*
X165230537Y-116045506D01*
X165151185Y-115948815D01*
X165054494Y-115869463D01*
X164944180Y-115810498D01*
X164824482Y-115774188D01*
X164700000Y-115761928D01*
X164285750Y-115765000D01*
X164127000Y-115923750D01*
X163873000Y-115923750D01*
X163714250Y-115765000D01*
X163300000Y-115761928D01*
X163175518Y-115774188D01*
X163055820Y-115810498D01*
X162945506Y-115869463D01*
X162848815Y-115948815D01*
X162769463Y-116045506D01*
X162710498Y-116155820D01*
X162674188Y-116275518D01*
X162661928Y-116400000D01*
X159160000Y-116400000D01*
X159160000Y-113660000D01*
X180840001Y-113660000D01*
X180840000Y-141840000D01*
G36*
X171047171Y-132005258D02*
G01*
X171183418Y-132078084D01*
X171331255Y-132122929D01*
X171485000Y-132138072D01*
X171539639Y-132138072D01*
X171006336Y-132671375D01*
X170970657Y-132700656D01*
X170853815Y-132843028D01*
X170766994Y-133005460D01*
X170713529Y-133181709D01*
X170695476Y-133365000D01*
X170700001Y-133410942D01*
X170700001Y-133886552D01*
X170668745Y-133877071D01*
X170515000Y-133861928D01*
X170215000Y-133861928D01*
X170061255Y-133877071D01*
X169913418Y-133921916D01*
X169777171Y-133994742D01*
X169730000Y-134033454D01*
X169682829Y-133994742D01*
X169546582Y-133921916D01*
X169398745Y-133877071D01*
X169245000Y-133861928D01*
X168945000Y-133861928D01*
X168791255Y-133877071D01*
X168643418Y-133921916D01*
X168507171Y-133994742D01*
X168387749Y-134092749D01*
X168289742Y-134212171D01*
X168216916Y-134348418D01*
X168172071Y-134496255D01*
X168156928Y-134650000D01*
X168156928Y-136300000D01*
X168160000Y-136331193D01*
X168160001Y-137517709D01*
X167935000Y-137742710D01*
X167935000Y-137643619D01*
X168005824Y-137537624D01*
X168091383Y-137331067D01*
X168135000Y-137111788D01*
X168135000Y-136888212D01*
X168091383Y-136668933D01*
X168005824Y-136462376D01*
X167881612Y-136276480D01*
X167723520Y-136118388D01*
X167537624Y-135994176D01*
X167331067Y-135908617D01*
X167206036Y-135883747D01*
X166325277Y-135002988D01*
X166400518Y-135025812D01*
X166525000Y-135038072D01*
X166714250Y-135035000D01*
X166873000Y-134876250D01*
X166873000Y-134002000D01*
X167127000Y-134002000D01*
X167127000Y-134876250D01*
X167285750Y-135035000D01*
X167475000Y-135038072D01*
X167599482Y-135025812D01*
X167719180Y-134989502D01*
X167829494Y-134930537D01*
X167926185Y-134851185D01*
X168005537Y-134754494D01*
X168064502Y-134644180D01*
X168100812Y-134524482D01*
X168113072Y-134400000D01*
X168110000Y-134160750D01*
X167951250Y-134002000D01*
X167127000Y-134002000D01*
X166873000Y-134002000D01*
X166853000Y-134002000D01*
X166853000Y-133748000D01*
X166873000Y-133748000D01*
X166873000Y-133728000D01*
X167127000Y-133728000D01*
X167127000Y-133748000D01*
X167951250Y-133748000D01*
X168110000Y-133589250D01*
X168113072Y-133350000D01*
X168100812Y-133225518D01*
X168064502Y-133105820D01*
X168040010Y-133060000D01*
X168427705Y-133060000D01*
X168573102Y-133120226D01*
X168773061Y-133160000D01*
X168976939Y-133160000D01*
X169176898Y-133120226D01*
X169365256Y-133042205D01*
X169534774Y-132928937D01*
X169678937Y-132784774D01*
X169792205Y-132615256D01*
X169864090Y-132441710D01*
X169876186Y-132426972D01*
X169963007Y-132264540D01*
X170010623Y-132107570D01*
X170061255Y-132122929D01*
X170215000Y-132138072D01*
X170515000Y-132138072D01*
X170668745Y-132122929D01*
X170816582Y-132078084D01*
X170952829Y-132005258D01*
X171000000Y-131966546D01*
X171047171Y-132005258D01*
G37*
X171047171Y-132005258D02*
X171183418Y-132078084D01*
X171331255Y-132122929D01*
X171485000Y-132138072D01*
X171539639Y-132138072D01*
X171006336Y-132671375D01*
X170970657Y-132700656D01*
X170853815Y-132843028D01*
X170766994Y-133005460D01*
X170713529Y-133181709D01*
X170695476Y-133365000D01*
X170700001Y-133410942D01*
X170700001Y-133886552D01*
X170668745Y-133877071D01*
X170515000Y-133861928D01*
X170215000Y-133861928D01*
X170061255Y-133877071D01*
X169913418Y-133921916D01*
X169777171Y-133994742D01*
X169730000Y-134033454D01*
X169682829Y-133994742D01*
X169546582Y-133921916D01*
X169398745Y-133877071D01*
X169245000Y-133861928D01*
X168945000Y-133861928D01*
X168791255Y-133877071D01*
X168643418Y-133921916D01*
X168507171Y-133994742D01*
X168387749Y-134092749D01*
X168289742Y-134212171D01*
X168216916Y-134348418D01*
X168172071Y-134496255D01*
X168156928Y-134650000D01*
X168156928Y-136300000D01*
X168160000Y-136331193D01*
X168160001Y-137517709D01*
X167935000Y-137742710D01*
X167935000Y-137643619D01*
X168005824Y-137537624D01*
X168091383Y-137331067D01*
X168135000Y-137111788D01*
X168135000Y-136888212D01*
X168091383Y-136668933D01*
X168005824Y-136462376D01*
X167881612Y-136276480D01*
X167723520Y-136118388D01*
X167537624Y-135994176D01*
X167331067Y-135908617D01*
X167206036Y-135883747D01*
X166325277Y-135002988D01*
X166400518Y-135025812D01*
X166525000Y-135038072D01*
X166714250Y-135035000D01*
X166873000Y-134876250D01*
X166873000Y-134002000D01*
X167127000Y-134002000D01*
X167127000Y-134876250D01*
X167285750Y-135035000D01*
X167475000Y-135038072D01*
X167599482Y-135025812D01*
X167719180Y-134989502D01*
X167829494Y-134930537D01*
X167926185Y-134851185D01*
X168005537Y-134754494D01*
X168064502Y-134644180D01*
X168100812Y-134524482D01*
X168113072Y-134400000D01*
X168110000Y-134160750D01*
X167951250Y-134002000D01*
X167127000Y-134002000D01*
X166873000Y-134002000D01*
X166853000Y-134002000D01*
X166853000Y-133748000D01*
X166873000Y-133748000D01*
X166873000Y-133728000D01*
X167127000Y-133728000D01*
X167127000Y-133748000D01*
X167951250Y-133748000D01*
X168110000Y-133589250D01*
X168113072Y-133350000D01*
X168100812Y-133225518D01*
X168064502Y-133105820D01*
X168040010Y-133060000D01*
X168427705Y-133060000D01*
X168573102Y-133120226D01*
X168773061Y-133160000D01*
X168976939Y-133160000D01*
X169176898Y-133120226D01*
X169365256Y-133042205D01*
X169534774Y-132928937D01*
X169678937Y-132784774D01*
X169792205Y-132615256D01*
X169864090Y-132441710D01*
X169876186Y-132426972D01*
X169963007Y-132264540D01*
X170010623Y-132107570D01*
X170061255Y-132122929D01*
X170215000Y-132138072D01*
X170515000Y-132138072D01*
X170668745Y-132122929D01*
X170816582Y-132078084D01*
X170952829Y-132005258D01*
X171000000Y-131966546D01*
X171047171Y-132005258D01*
G36*
X168648182Y-128970471D02*
G01*
X168643418Y-128971916D01*
X168507171Y-129044742D01*
X168387749Y-129142749D01*
X168289742Y-129262171D01*
X168216916Y-129398418D01*
X168172071Y-129546255D01*
X168156928Y-129700000D01*
X168156928Y-131190000D01*
X167822046Y-131190000D01*
X167723942Y-131109488D01*
X167572567Y-131028577D01*
X167408316Y-130978752D01*
X167237500Y-130961928D01*
X166762500Y-130961928D01*
X166591684Y-130978752D01*
X166427433Y-131028577D01*
X166276058Y-131109488D01*
X166143377Y-131218377D01*
X166034488Y-131351058D01*
X165953577Y-131502433D01*
X165913072Y-131635960D01*
X165913072Y-131409217D01*
X167206036Y-130116253D01*
X167331067Y-130091383D01*
X167537624Y-130005824D01*
X167723520Y-129881612D01*
X167881612Y-129723520D01*
X168005824Y-129537624D01*
X168091383Y-129331067D01*
X168135000Y-129111788D01*
X168135000Y-128888212D01*
X168091383Y-128668933D01*
X168005824Y-128462376D01*
X167935000Y-128356381D01*
X167935000Y-128257289D01*
X168648182Y-128970471D01*
G37*
X168648182Y-128970471D02*
X168643418Y-128971916D01*
X168507171Y-129044742D01*
X168387749Y-129142749D01*
X168289742Y-129262171D01*
X168216916Y-129398418D01*
X168172071Y-129546255D01*
X168156928Y-129700000D01*
X168156928Y-131190000D01*
X167822046Y-131190000D01*
X167723942Y-131109488D01*
X167572567Y-131028577D01*
X167408316Y-130978752D01*
X167237500Y-130961928D01*
X166762500Y-130961928D01*
X166591684Y-130978752D01*
X166427433Y-131028577D01*
X166276058Y-131109488D01*
X166143377Y-131218377D01*
X166034488Y-131351058D01*
X165953577Y-131502433D01*
X165913072Y-131635960D01*
X165913072Y-131409217D01*
X167206036Y-130116253D01*
X167331067Y-130091383D01*
X167537624Y-130005824D01*
X167723520Y-129881612D01*
X167881612Y-129723520D01*
X168005824Y-129537624D01*
X168091383Y-129331067D01*
X168135000Y-129111788D01*
X168135000Y-128888212D01*
X168091383Y-128668933D01*
X168005824Y-128462376D01*
X167935000Y-128356381D01*
X167935000Y-128257289D01*
X168648182Y-128970471D01*
G36*
X175994463Y-126995506D02*
G01*
X175935498Y-127105820D01*
X175899188Y-127225518D01*
X175886928Y-127350000D01*
X175890000Y-127589250D01*
X176048750Y-127748000D01*
X176873000Y-127748000D01*
X176873000Y-127728000D01*
X177127000Y-127728000D01*
X177127000Y-127748000D01*
X177147000Y-127748000D01*
X177147000Y-128002000D01*
X177127000Y-128002000D01*
X177127000Y-128876250D01*
X177285750Y-129035000D01*
X177475000Y-129038072D01*
X177599482Y-129025812D01*
X177719180Y-128989502D01*
X177829494Y-128930537D01*
X177886928Y-128883402D01*
X177886928Y-129162500D01*
X177903752Y-129333316D01*
X177953577Y-129497567D01*
X178034488Y-129648942D01*
X178065000Y-129686121D01*
X178065001Y-130359043D01*
X178045506Y-130369463D01*
X177990019Y-130415000D01*
X176820935Y-130415000D01*
X176775000Y-130410476D01*
X176591708Y-130428528D01*
X176415459Y-130481993D01*
X176358880Y-130512235D01*
X176253028Y-130568814D01*
X176110656Y-130685656D01*
X176081374Y-130721336D01*
X176000000Y-130802711D01*
X175093630Y-129896341D01*
X175064344Y-129860656D01*
X174921972Y-129743814D01*
X174759540Y-129656993D01*
X174583292Y-129603529D01*
X174445932Y-129590000D01*
X174400000Y-129585476D01*
X174354068Y-129590000D01*
X173832238Y-129590000D01*
X173827929Y-129546255D01*
X173783084Y-129398418D01*
X173710258Y-129262171D01*
X173612251Y-129142749D01*
X173492829Y-129044742D01*
X173356582Y-128971916D01*
X173208745Y-128927071D01*
X173055000Y-128911928D01*
X173030361Y-128911928D01*
X173542289Y-128400000D01*
X175886928Y-128400000D01*
X175899188Y-128524482D01*
X175935498Y-128644180D01*
X175994463Y-128754494D01*
X176073815Y-128851185D01*
X176170506Y-128930537D01*
X176280820Y-128989502D01*
X176400518Y-129025812D01*
X176525000Y-129038072D01*
X176714250Y-129035000D01*
X176873000Y-128876250D01*
X176873000Y-128002000D01*
X176048750Y-128002000D01*
X175890000Y-128160750D01*
X175886928Y-128400000D01*
X173542289Y-128400000D01*
X174507290Y-127435000D01*
X174761335Y-127435000D01*
X175038574Y-127379853D01*
X175299727Y-127271680D01*
X175534759Y-127114637D01*
X175714396Y-126935000D01*
X176044119Y-126935000D01*
X175994463Y-126995506D01*
G37*
X175994463Y-126995506D02*
X175935498Y-127105820D01*
X175899188Y-127225518D01*
X175886928Y-127350000D01*
X175890000Y-127589250D01*
X176048750Y-127748000D01*
X176873000Y-127748000D01*
X176873000Y-127728000D01*
X177127000Y-127728000D01*
X177127000Y-127748000D01*
X177147000Y-127748000D01*
X177147000Y-128002000D01*
X177127000Y-128002000D01*
X177127000Y-128876250D01*
X177285750Y-129035000D01*
X177475000Y-129038072D01*
X177599482Y-129025812D01*
X177719180Y-128989502D01*
X177829494Y-128930537D01*
X177886928Y-128883402D01*
X177886928Y-129162500D01*
X177903752Y-129333316D01*
X177953577Y-129497567D01*
X178034488Y-129648942D01*
X178065000Y-129686121D01*
X178065001Y-130359043D01*
X178045506Y-130369463D01*
X177990019Y-130415000D01*
X176820935Y-130415000D01*
X176775000Y-130410476D01*
X176591708Y-130428528D01*
X176415459Y-130481993D01*
X176358880Y-130512235D01*
X176253028Y-130568814D01*
X176110656Y-130685656D01*
X176081374Y-130721336D01*
X176000000Y-130802711D01*
X175093630Y-129896341D01*
X175064344Y-129860656D01*
X174921972Y-129743814D01*
X174759540Y-129656993D01*
X174583292Y-129603529D01*
X174445932Y-129590000D01*
X174400000Y-129585476D01*
X174354068Y-129590000D01*
X173832238Y-129590000D01*
X173827929Y-129546255D01*
X173783084Y-129398418D01*
X173710258Y-129262171D01*
X173612251Y-129142749D01*
X173492829Y-129044742D01*
X173356582Y-128971916D01*
X173208745Y-128927071D01*
X173055000Y-128911928D01*
X173030361Y-128911928D01*
X173542289Y-128400000D01*
X175886928Y-128400000D01*
X175899188Y-128524482D01*
X175935498Y-128644180D01*
X175994463Y-128754494D01*
X176073815Y-128851185D01*
X176170506Y-128930537D01*
X176280820Y-128989502D01*
X176400518Y-129025812D01*
X176525000Y-129038072D01*
X176714250Y-129035000D01*
X176873000Y-128876250D01*
X176873000Y-128002000D01*
X176048750Y-128002000D01*
X175890000Y-128160750D01*
X175886928Y-128400000D01*
X173542289Y-128400000D01*
X174507290Y-127435000D01*
X174761335Y-127435000D01*
X175038574Y-127379853D01*
X175299727Y-127271680D01*
X175534759Y-127114637D01*
X175714396Y-126935000D01*
X176044119Y-126935000D01*
X175994463Y-126995506D01*
G36*
X170949999Y-117989524D02*
G01*
X170995931Y-117985000D01*
X171105114Y-117985000D01*
X171117425Y-118000000D01*
X171034488Y-118101058D01*
X170953577Y-118252433D01*
X170903752Y-118416684D01*
X170886928Y-118587500D01*
X170886928Y-119162500D01*
X170903752Y-119333316D01*
X170953577Y-119497567D01*
X171034488Y-119648942D01*
X171143377Y-119781623D01*
X171276058Y-119890512D01*
X171427433Y-119971423D01*
X171591684Y-120021248D01*
X171762500Y-120038072D01*
X172237500Y-120038072D01*
X172408316Y-120021248D01*
X172572567Y-119971423D01*
X172723942Y-119890512D01*
X172822046Y-119810000D01*
X173677954Y-119810000D01*
X173776058Y-119890512D01*
X173927433Y-119971423D01*
X174091684Y-120021248D01*
X174262500Y-120038072D01*
X174737500Y-120038072D01*
X174908316Y-120021248D01*
X175072567Y-119971423D01*
X175223942Y-119890512D01*
X175322046Y-119810000D01*
X175793749Y-119810000D01*
X175811595Y-119843387D01*
X175922038Y-119977962D01*
X176056613Y-120088405D01*
X176065000Y-120092888D01*
X176065001Y-121065000D01*
X175640957Y-121065000D01*
X175630537Y-121045506D01*
X175551185Y-120948815D01*
X175454494Y-120869463D01*
X175344180Y-120810498D01*
X175224482Y-120774188D01*
X175100000Y-120761928D01*
X174200000Y-120761928D01*
X174075518Y-120774188D01*
X173955820Y-120810498D01*
X173845506Y-120869463D01*
X173748815Y-120948815D01*
X173669463Y-121045506D01*
X173610498Y-121155820D01*
X173574188Y-121275518D01*
X173561928Y-121400000D01*
X173561928Y-121765783D01*
X171762711Y-123565000D01*
X169447295Y-123565000D01*
X169301898Y-123504774D01*
X169101939Y-123465000D01*
X168898061Y-123465000D01*
X168698102Y-123504774D01*
X168509744Y-123582795D01*
X168340226Y-123696063D01*
X168196063Y-123840226D01*
X168082795Y-124009744D01*
X168004774Y-124198102D01*
X167965000Y-124398061D01*
X167965000Y-124586479D01*
X167924482Y-124574188D01*
X167800000Y-124561928D01*
X166200000Y-124561928D01*
X166075518Y-124574188D01*
X165955820Y-124610498D01*
X165845506Y-124669463D01*
X165748815Y-124748815D01*
X165669463Y-124845506D01*
X165610498Y-124955820D01*
X165574188Y-125075518D01*
X165561928Y-125200000D01*
X165561928Y-126800000D01*
X165574188Y-126924482D01*
X165610498Y-127044180D01*
X165669463Y-127154494D01*
X165748815Y-127251185D01*
X165845506Y-127330537D01*
X165955820Y-127389502D01*
X166065001Y-127422622D01*
X166065000Y-128356380D01*
X165994176Y-128462376D01*
X165908617Y-128668933D01*
X165883747Y-128793964D01*
X165389708Y-129288003D01*
X165421472Y-129183292D01*
X165439524Y-129000000D01*
X165435000Y-128954065D01*
X165435000Y-124862289D01*
X166959217Y-123338072D01*
X167300001Y-123338072D01*
X167473255Y-123321008D01*
X167639851Y-123270472D01*
X167793387Y-123188405D01*
X167927962Y-123077962D01*
X168000000Y-122990184D01*
X168072038Y-123077962D01*
X168206613Y-123188405D01*
X168360149Y-123270472D01*
X168526745Y-123321008D01*
X168699999Y-123338072D01*
X169350001Y-123338072D01*
X169523255Y-123321008D01*
X169689851Y-123270472D01*
X169843387Y-123188405D01*
X169977962Y-123077962D01*
X170088405Y-122943387D01*
X170092888Y-122935000D01*
X170359043Y-122935000D01*
X170369463Y-122954494D01*
X170448815Y-123051185D01*
X170545506Y-123130537D01*
X170655820Y-123189502D01*
X170775518Y-123225812D01*
X170900000Y-123238072D01*
X171800000Y-123238072D01*
X171924482Y-123225812D01*
X172044180Y-123189502D01*
X172154494Y-123130537D01*
X172251185Y-123051185D01*
X172330537Y-122954494D01*
X172389502Y-122844180D01*
X172425812Y-122724482D01*
X172438072Y-122600000D01*
X172438072Y-121400000D01*
X172425812Y-121275518D01*
X172389502Y-121155820D01*
X172330537Y-121045506D01*
X172251185Y-120948815D01*
X172154494Y-120869463D01*
X172044180Y-120810498D01*
X171924482Y-120774188D01*
X171800000Y-120761928D01*
X170900000Y-120761928D01*
X170775518Y-120774188D01*
X170655820Y-120810498D01*
X170545506Y-120869463D01*
X170448815Y-120948815D01*
X170369463Y-121045506D01*
X170359043Y-121065000D01*
X170092888Y-121065000D01*
X170088405Y-121056613D01*
X170035000Y-120991539D01*
X170035000Y-119764088D01*
X170081185Y-119726185D01*
X170160537Y-119629494D01*
X170219502Y-119519180D01*
X170255812Y-119399482D01*
X170268072Y-119275000D01*
X170268072Y-118625000D01*
X170255812Y-118500518D01*
X170248071Y-118475000D01*
X170255812Y-118449482D01*
X170268072Y-118325000D01*
X170265000Y-118285750D01*
X170106250Y-118127000D01*
X170024141Y-118127000D01*
X169984494Y-118094463D01*
X169874180Y-118035498D01*
X169757159Y-118000000D01*
X169806607Y-117985000D01*
X170904067Y-117985000D01*
X170949999Y-117989524D01*
G37*
X170949999Y-117989524D02*
X170995931Y-117985000D01*
X171105114Y-117985000D01*
X171117425Y-118000000D01*
X171034488Y-118101058D01*
X170953577Y-118252433D01*
X170903752Y-118416684D01*
X170886928Y-118587500D01*
X170886928Y-119162500D01*
X170903752Y-119333316D01*
X170953577Y-119497567D01*
X171034488Y-119648942D01*
X171143377Y-119781623D01*
X171276058Y-119890512D01*
X171427433Y-119971423D01*
X171591684Y-120021248D01*
X171762500Y-120038072D01*
X172237500Y-120038072D01*
X172408316Y-120021248D01*
X172572567Y-119971423D01*
X172723942Y-119890512D01*
X172822046Y-119810000D01*
X173677954Y-119810000D01*
X173776058Y-119890512D01*
X173927433Y-119971423D01*
X174091684Y-120021248D01*
X174262500Y-120038072D01*
X174737500Y-120038072D01*
X174908316Y-120021248D01*
X175072567Y-119971423D01*
X175223942Y-119890512D01*
X175322046Y-119810000D01*
X175793749Y-119810000D01*
X175811595Y-119843387D01*
X175922038Y-119977962D01*
X176056613Y-120088405D01*
X176065000Y-120092888D01*
X176065001Y-121065000D01*
X175640957Y-121065000D01*
X175630537Y-121045506D01*
X175551185Y-120948815D01*
X175454494Y-120869463D01*
X175344180Y-120810498D01*
X175224482Y-120774188D01*
X175100000Y-120761928D01*
X174200000Y-120761928D01*
X174075518Y-120774188D01*
X173955820Y-120810498D01*
X173845506Y-120869463D01*
X173748815Y-120948815D01*
X173669463Y-121045506D01*
X173610498Y-121155820D01*
X173574188Y-121275518D01*
X173561928Y-121400000D01*
X173561928Y-121765783D01*
X171762711Y-123565000D01*
X169447295Y-123565000D01*
X169301898Y-123504774D01*
X169101939Y-123465000D01*
X168898061Y-123465000D01*
X168698102Y-123504774D01*
X168509744Y-123582795D01*
X168340226Y-123696063D01*
X168196063Y-123840226D01*
X168082795Y-124009744D01*
X168004774Y-124198102D01*
X167965000Y-124398061D01*
X167965000Y-124586479D01*
X167924482Y-124574188D01*
X167800000Y-124561928D01*
X166200000Y-124561928D01*
X166075518Y-124574188D01*
X165955820Y-124610498D01*
X165845506Y-124669463D01*
X165748815Y-124748815D01*
X165669463Y-124845506D01*
X165610498Y-124955820D01*
X165574188Y-125075518D01*
X165561928Y-125200000D01*
X165561928Y-126800000D01*
X165574188Y-126924482D01*
X165610498Y-127044180D01*
X165669463Y-127154494D01*
X165748815Y-127251185D01*
X165845506Y-127330537D01*
X165955820Y-127389502D01*
X166065001Y-127422622D01*
X166065000Y-128356380D01*
X165994176Y-128462376D01*
X165908617Y-128668933D01*
X165883747Y-128793964D01*
X165389708Y-129288003D01*
X165421472Y-129183292D01*
X165439524Y-129000000D01*
X165435000Y-128954065D01*
X165435000Y-124862289D01*
X166959217Y-123338072D01*
X167300001Y-123338072D01*
X167473255Y-123321008D01*
X167639851Y-123270472D01*
X167793387Y-123188405D01*
X167927962Y-123077962D01*
X168000000Y-122990184D01*
X168072038Y-123077962D01*
X168206613Y-123188405D01*
X168360149Y-123270472D01*
X168526745Y-123321008D01*
X168699999Y-123338072D01*
X169350001Y-123338072D01*
X169523255Y-123321008D01*
X169689851Y-123270472D01*
X169843387Y-123188405D01*
X169977962Y-123077962D01*
X170088405Y-122943387D01*
X170092888Y-122935000D01*
X170359043Y-122935000D01*
X170369463Y-122954494D01*
X170448815Y-123051185D01*
X170545506Y-123130537D01*
X170655820Y-123189502D01*
X170775518Y-123225812D01*
X170900000Y-123238072D01*
X171800000Y-123238072D01*
X171924482Y-123225812D01*
X172044180Y-123189502D01*
X172154494Y-123130537D01*
X172251185Y-123051185D01*
X172330537Y-122954494D01*
X172389502Y-122844180D01*
X172425812Y-122724482D01*
X172438072Y-122600000D01*
X172438072Y-121400000D01*
X172425812Y-121275518D01*
X172389502Y-121155820D01*
X172330537Y-121045506D01*
X172251185Y-120948815D01*
X172154494Y-120869463D01*
X172044180Y-120810498D01*
X171924482Y-120774188D01*
X171800000Y-120761928D01*
X170900000Y-120761928D01*
X170775518Y-120774188D01*
X170655820Y-120810498D01*
X170545506Y-120869463D01*
X170448815Y-120948815D01*
X170369463Y-121045506D01*
X170359043Y-121065000D01*
X170092888Y-121065000D01*
X170088405Y-121056613D01*
X170035000Y-120991539D01*
X170035000Y-119764088D01*
X170081185Y-119726185D01*
X170160537Y-119629494D01*
X170219502Y-119519180D01*
X170255812Y-119399482D01*
X170268072Y-119275000D01*
X170268072Y-118625000D01*
X170255812Y-118500518D01*
X170248071Y-118475000D01*
X170255812Y-118449482D01*
X170268072Y-118325000D01*
X170265000Y-118285750D01*
X170106250Y-118127000D01*
X170024141Y-118127000D01*
X169984494Y-118094463D01*
X169874180Y-118035498D01*
X169757159Y-118000000D01*
X169806607Y-117985000D01*
X170904067Y-117985000D01*
X170949999Y-117989524D01*
G36*
X176462376Y-123005824D02*
G01*
X176668933Y-123091383D01*
X176793964Y-123116253D01*
X178065000Y-124387290D01*
X178065000Y-124395932D01*
X178065001Y-124395942D01*
X178065001Y-125563675D01*
X178046423Y-125502433D01*
X177965512Y-125351058D01*
X177856623Y-125218377D01*
X177723942Y-125109488D01*
X177572567Y-125028577D01*
X177408316Y-124978752D01*
X177237500Y-124961928D01*
X176762500Y-124961928D01*
X176591684Y-124978752D01*
X176427433Y-125028577D01*
X176359290Y-125065000D01*
X175714396Y-125065000D01*
X175534759Y-124885363D01*
X175299727Y-124728320D01*
X175038574Y-124620147D01*
X174761335Y-124565000D01*
X174478665Y-124565000D01*
X174201426Y-124620147D01*
X173940273Y-124728320D01*
X173705241Y-124885363D01*
X173505363Y-125085241D01*
X173348320Y-125320273D01*
X173240147Y-125581426D01*
X173185000Y-125858665D01*
X173185000Y-126112710D01*
X171006336Y-128291375D01*
X170970657Y-128320656D01*
X170853815Y-128463028D01*
X170829955Y-128507666D01*
X168438072Y-126115783D01*
X168438072Y-125369315D01*
X168509744Y-125417205D01*
X168698102Y-125495226D01*
X168898061Y-125535000D01*
X169101939Y-125535000D01*
X169301898Y-125495226D01*
X169447295Y-125435000D01*
X172104068Y-125435000D01*
X172150000Y-125439524D01*
X172195932Y-125435000D01*
X172333292Y-125421471D01*
X172509540Y-125368007D01*
X172671972Y-125281186D01*
X172814344Y-125164344D01*
X172843630Y-125128659D01*
X174734217Y-123238072D01*
X175100000Y-123238072D01*
X175224482Y-123225812D01*
X175344180Y-123189502D01*
X175454494Y-123130537D01*
X175551185Y-123051185D01*
X175630537Y-122954494D01*
X175640957Y-122935000D01*
X176356381Y-122935000D01*
X176462376Y-123005824D01*
G37*
X176462376Y-123005824D02*
X176668933Y-123091383D01*
X176793964Y-123116253D01*
X178065000Y-124387290D01*
X178065000Y-124395932D01*
X178065001Y-124395942D01*
X178065001Y-125563675D01*
X178046423Y-125502433D01*
X177965512Y-125351058D01*
X177856623Y-125218377D01*
X177723942Y-125109488D01*
X177572567Y-125028577D01*
X177408316Y-124978752D01*
X177237500Y-124961928D01*
X176762500Y-124961928D01*
X176591684Y-124978752D01*
X176427433Y-125028577D01*
X176359290Y-125065000D01*
X175714396Y-125065000D01*
X175534759Y-124885363D01*
X175299727Y-124728320D01*
X175038574Y-124620147D01*
X174761335Y-124565000D01*
X174478665Y-124565000D01*
X174201426Y-124620147D01*
X173940273Y-124728320D01*
X173705241Y-124885363D01*
X173505363Y-125085241D01*
X173348320Y-125320273D01*
X173240147Y-125581426D01*
X173185000Y-125858665D01*
X173185000Y-126112710D01*
X171006336Y-128291375D01*
X170970657Y-128320656D01*
X170853815Y-128463028D01*
X170829955Y-128507666D01*
X168438072Y-126115783D01*
X168438072Y-125369315D01*
X168509744Y-125417205D01*
X168698102Y-125495226D01*
X168898061Y-125535000D01*
X169101939Y-125535000D01*
X169301898Y-125495226D01*
X169447295Y-125435000D01*
X172104068Y-125435000D01*
X172150000Y-125439524D01*
X172195932Y-125435000D01*
X172333292Y-125421471D01*
X172509540Y-125368007D01*
X172671972Y-125281186D01*
X172814344Y-125164344D01*
X172843630Y-125128659D01*
X174734217Y-123238072D01*
X175100000Y-123238072D01*
X175224482Y-123225812D01*
X175344180Y-123189502D01*
X175454494Y-123130537D01*
X175551185Y-123051185D01*
X175630537Y-122954494D01*
X175640957Y-122935000D01*
X176356381Y-122935000D01*
X176462376Y-123005824D01*
M02*
