G04 #@! TF.GenerationSoftware,KiCad,Pcbnew,5.1.6-c6e7f7d~87~ubuntu18.04.1*
G04 #@! TF.CreationDate,2021-01-03T20:00:45-05:00*
G04 #@! TF.ProjectId,entropy,656e7472-6f70-4792-9e6b-696361645f70,rev?*
G04 #@! TF.SameCoordinates,Original*
G04 #@! TF.FileFunction,Soldermask,Top*
G04 #@! TF.FilePolarity,Negative*
%FSLAX46Y46*%
G04 Gerber Fmt 4.6, Leading zero omitted, Abs format (unit mm)*
G04 Created by KiCad (PCBNEW 5.1.6-c6e7f7d~87~ubuntu18.04.1) date 2021-01-03 20:00:45*
%MOMM*%
%LPD*%
G01*
G04 APERTURE LIST*
%ADD10R,1.000000X1.300000*%
%ADD11R,1.300000X1.000000*%
%ADD12R,1.700000X1.700000*%
%ADD13O,1.700000X1.700000*%
%ADD14R,1.800000X1.800000*%
%ADD15O,1.800000X1.800000*%
%ADD16C,1.100000*%
%ADD17R,1.160000X0.750000*%
%ADD18R,0.750000X1.160000*%
G04 APERTURE END LIST*
G36*
G01*
X164478262Y-117600000D02*
X163521738Y-117600000D01*
G75*
G02*
X163250000Y-117328262I0J271738D01*
G01*
X163250000Y-116621738D01*
G75*
G02*
X163521738Y-116350000I271738J0D01*
G01*
X164478262Y-116350000D01*
G75*
G02*
X164750000Y-116621738I0J-271738D01*
G01*
X164750000Y-117328262D01*
G75*
G02*
X164478262Y-117600000I-271738J0D01*
G01*
G37*
G36*
G01*
X164478262Y-119650000D02*
X163521738Y-119650000D01*
G75*
G02*
X163250000Y-119378262I0J271738D01*
G01*
X163250000Y-118671738D01*
G75*
G02*
X163521738Y-118400000I271738J0D01*
G01*
X164478262Y-118400000D01*
G75*
G02*
X164750000Y-118671738I0J-271738D01*
G01*
X164750000Y-119378262D01*
G75*
G02*
X164478262Y-119650000I-271738J0D01*
G01*
G37*
G36*
G01*
X174762500Y-117700000D02*
X174237500Y-117700000D01*
G75*
G02*
X173975000Y-117437500I0J262500D01*
G01*
X173975000Y-116812500D01*
G75*
G02*
X174237500Y-116550000I262500J0D01*
G01*
X174762500Y-116550000D01*
G75*
G02*
X175025000Y-116812500I0J-262500D01*
G01*
X175025000Y-117437500D01*
G75*
G02*
X174762500Y-117700000I-262500J0D01*
G01*
G37*
G36*
G01*
X174762500Y-119450000D02*
X174237500Y-119450000D01*
G75*
G02*
X173975000Y-119187500I0J262500D01*
G01*
X173975000Y-118562500D01*
G75*
G02*
X174237500Y-118300000I262500J0D01*
G01*
X174762500Y-118300000D01*
G75*
G02*
X175025000Y-118562500I0J-262500D01*
G01*
X175025000Y-119187500D01*
G75*
G02*
X174762500Y-119450000I-262500J0D01*
G01*
G37*
G36*
G01*
X177478262Y-119650000D02*
X176521738Y-119650000D01*
G75*
G02*
X176250000Y-119378262I0J271738D01*
G01*
X176250000Y-118671738D01*
G75*
G02*
X176521738Y-118400000I271738J0D01*
G01*
X177478262Y-118400000D01*
G75*
G02*
X177750000Y-118671738I0J-271738D01*
G01*
X177750000Y-119378262D01*
G75*
G02*
X177478262Y-119650000I-271738J0D01*
G01*
G37*
G36*
G01*
X177478262Y-117600000D02*
X176521738Y-117600000D01*
G75*
G02*
X176250000Y-117328262I0J271738D01*
G01*
X176250000Y-116621738D01*
G75*
G02*
X176521738Y-116350000I271738J0D01*
G01*
X177478262Y-116350000D01*
G75*
G02*
X177750000Y-116621738I0J-271738D01*
G01*
X177750000Y-117328262D01*
G75*
G02*
X177478262Y-117600000I-271738J0D01*
G01*
G37*
G36*
G01*
X175737500Y-131550000D02*
X176262500Y-131550000D01*
G75*
G02*
X176525000Y-131812500I0J-262500D01*
G01*
X176525000Y-132437500D01*
G75*
G02*
X176262500Y-132700000I-262500J0D01*
G01*
X175737500Y-132700000D01*
G75*
G02*
X175475000Y-132437500I0J262500D01*
G01*
X175475000Y-131812500D01*
G75*
G02*
X175737500Y-131550000I262500J0D01*
G01*
G37*
G36*
G01*
X175737500Y-133300000D02*
X176262500Y-133300000D01*
G75*
G02*
X176525000Y-133562500I0J-262500D01*
G01*
X176525000Y-134187500D01*
G75*
G02*
X176262500Y-134450000I-262500J0D01*
G01*
X175737500Y-134450000D01*
G75*
G02*
X175475000Y-134187500I0J262500D01*
G01*
X175475000Y-133562500D01*
G75*
G02*
X175737500Y-133300000I262500J0D01*
G01*
G37*
G36*
G01*
X166737500Y-131550000D02*
X167262500Y-131550000D01*
G75*
G02*
X167525000Y-131812500I0J-262500D01*
G01*
X167525000Y-132437500D01*
G75*
G02*
X167262500Y-132700000I-262500J0D01*
G01*
X166737500Y-132700000D01*
G75*
G02*
X166475000Y-132437500I0J262500D01*
G01*
X166475000Y-131812500D01*
G75*
G02*
X166737500Y-131550000I262500J0D01*
G01*
G37*
G36*
G01*
X166737500Y-133300000D02*
X167262500Y-133300000D01*
G75*
G02*
X167525000Y-133562500I0J-262500D01*
G01*
X167525000Y-134187500D01*
G75*
G02*
X167262500Y-134450000I-262500J0D01*
G01*
X166737500Y-134450000D01*
G75*
G02*
X166475000Y-134187500I0J262500D01*
G01*
X166475000Y-133562500D01*
G75*
G02*
X166737500Y-133300000I262500J0D01*
G01*
G37*
G36*
G01*
X160737500Y-133300000D02*
X161262500Y-133300000D01*
G75*
G02*
X161525000Y-133562500I0J-262500D01*
G01*
X161525000Y-134187500D01*
G75*
G02*
X161262500Y-134450000I-262500J0D01*
G01*
X160737500Y-134450000D01*
G75*
G02*
X160475000Y-134187500I0J262500D01*
G01*
X160475000Y-133562500D01*
G75*
G02*
X160737500Y-133300000I262500J0D01*
G01*
G37*
G36*
G01*
X160737500Y-131550000D02*
X161262500Y-131550000D01*
G75*
G02*
X161525000Y-131812500I0J-262500D01*
G01*
X161525000Y-132437500D01*
G75*
G02*
X161262500Y-132700000I-262500J0D01*
G01*
X160737500Y-132700000D01*
G75*
G02*
X160475000Y-132437500I0J262500D01*
G01*
X160475000Y-131812500D01*
G75*
G02*
X160737500Y-131550000I262500J0D01*
G01*
G37*
D10*
X171350000Y-122000000D03*
X174650000Y-122000000D03*
D11*
X179000000Y-134650000D03*
X179000000Y-131350000D03*
D12*
X167000000Y-140000000D03*
D13*
X174620000Y-140000000D03*
X174620000Y-126000000D03*
D12*
X167000000Y-126000000D03*
D14*
X161000000Y-119000000D03*
D15*
X161000000Y-121540000D03*
X161000000Y-124080000D03*
X161000000Y-126620000D03*
G36*
G01*
X166350000Y-122478262D02*
X166350000Y-121521738D01*
G75*
G02*
X166621738Y-121250000I271738J0D01*
G01*
X167328262Y-121250000D01*
G75*
G02*
X167600000Y-121521738I0J-271738D01*
G01*
X167600000Y-122478262D01*
G75*
G02*
X167328262Y-122750000I-271738J0D01*
G01*
X166621738Y-122750000D01*
G75*
G02*
X166350000Y-122478262I0J271738D01*
G01*
G37*
G36*
G01*
X168400000Y-122478262D02*
X168400000Y-121521738D01*
G75*
G02*
X168671738Y-121250000I271738J0D01*
G01*
X169378262Y-121250000D01*
G75*
G02*
X169650000Y-121521738I0J-271738D01*
G01*
X169650000Y-122478262D01*
G75*
G02*
X169378262Y-122750000I-271738J0D01*
G01*
X168671738Y-122750000D01*
G75*
G02*
X168400000Y-122478262I0J271738D01*
G01*
G37*
G36*
G01*
X172262500Y-119450000D02*
X171737500Y-119450000D01*
G75*
G02*
X171475000Y-119187500I0J262500D01*
G01*
X171475000Y-118562500D01*
G75*
G02*
X171737500Y-118300000I262500J0D01*
G01*
X172262500Y-118300000D01*
G75*
G02*
X172525000Y-118562500I0J-262500D01*
G01*
X172525000Y-119187500D01*
G75*
G02*
X172262500Y-119450000I-262500J0D01*
G01*
G37*
G36*
G01*
X172262500Y-117700000D02*
X171737500Y-117700000D01*
G75*
G02*
X171475000Y-117437500I0J262500D01*
G01*
X171475000Y-116812500D01*
G75*
G02*
X171737500Y-116550000I262500J0D01*
G01*
X172262500Y-116550000D01*
G75*
G02*
X172525000Y-116812500I0J-262500D01*
G01*
X172525000Y-117437500D01*
G75*
G02*
X172262500Y-117700000I-262500J0D01*
G01*
G37*
G36*
G01*
X169700000Y-114737500D02*
X169700000Y-115262500D01*
G75*
G02*
X169437500Y-115525000I-262500J0D01*
G01*
X168812500Y-115525000D01*
G75*
G02*
X168550000Y-115262500I0J262500D01*
G01*
X168550000Y-114737500D01*
G75*
G02*
X168812500Y-114475000I262500J0D01*
G01*
X169437500Y-114475000D01*
G75*
G02*
X169700000Y-114737500I0J-262500D01*
G01*
G37*
G36*
G01*
X171450000Y-114737500D02*
X171450000Y-115262500D01*
G75*
G02*
X171187500Y-115525000I-262500J0D01*
G01*
X170562500Y-115525000D01*
G75*
G02*
X170300000Y-115262500I0J262500D01*
G01*
X170300000Y-114737500D01*
G75*
G02*
X170562500Y-114475000I262500J0D01*
G01*
X171187500Y-114475000D01*
G75*
G02*
X171450000Y-114737500I0J-262500D01*
G01*
G37*
G36*
G01*
X178737500Y-128300000D02*
X179262500Y-128300000D01*
G75*
G02*
X179525000Y-128562500I0J-262500D01*
G01*
X179525000Y-129187500D01*
G75*
G02*
X179262500Y-129450000I-262500J0D01*
G01*
X178737500Y-129450000D01*
G75*
G02*
X178475000Y-129187500I0J262500D01*
G01*
X178475000Y-128562500D01*
G75*
G02*
X178737500Y-128300000I262500J0D01*
G01*
G37*
G36*
G01*
X178737500Y-126550000D02*
X179262500Y-126550000D01*
G75*
G02*
X179525000Y-126812500I0J-262500D01*
G01*
X179525000Y-127437500D01*
G75*
G02*
X179262500Y-127700000I-262500J0D01*
G01*
X178737500Y-127700000D01*
G75*
G02*
X178475000Y-127437500I0J262500D01*
G01*
X178475000Y-126812500D01*
G75*
G02*
X178737500Y-126550000I262500J0D01*
G01*
G37*
G36*
G01*
X177262500Y-140450000D02*
X176737500Y-140450000D01*
G75*
G02*
X176475000Y-140187500I0J262500D01*
G01*
X176475000Y-139562500D01*
G75*
G02*
X176737500Y-139300000I262500J0D01*
G01*
X177262500Y-139300000D01*
G75*
G02*
X177525000Y-139562500I0J-262500D01*
G01*
X177525000Y-140187500D01*
G75*
G02*
X177262500Y-140450000I-262500J0D01*
G01*
G37*
G36*
G01*
X177262500Y-138700000D02*
X176737500Y-138700000D01*
G75*
G02*
X176475000Y-138437500I0J262500D01*
G01*
X176475000Y-137812500D01*
G75*
G02*
X176737500Y-137550000I262500J0D01*
G01*
X177262500Y-137550000D01*
G75*
G02*
X177525000Y-137812500I0J-262500D01*
G01*
X177525000Y-138437500D01*
G75*
G02*
X177262500Y-138700000I-262500J0D01*
G01*
G37*
G36*
G01*
X176737500Y-125550000D02*
X177262500Y-125550000D01*
G75*
G02*
X177525000Y-125812500I0J-262500D01*
G01*
X177525000Y-126437500D01*
G75*
G02*
X177262500Y-126700000I-262500J0D01*
G01*
X176737500Y-126700000D01*
G75*
G02*
X176475000Y-126437500I0J262500D01*
G01*
X176475000Y-125812500D01*
G75*
G02*
X176737500Y-125550000I262500J0D01*
G01*
G37*
G36*
G01*
X176737500Y-127300000D02*
X177262500Y-127300000D01*
G75*
G02*
X177525000Y-127562500I0J-262500D01*
G01*
X177525000Y-128187500D01*
G75*
G02*
X177262500Y-128450000I-262500J0D01*
G01*
X176737500Y-128450000D01*
G75*
G02*
X176475000Y-128187500I0J262500D01*
G01*
X176475000Y-127562500D01*
G75*
G02*
X176737500Y-127300000I262500J0D01*
G01*
G37*
D16*
X167000000Y-137000000D03*
X167000000Y-129000000D03*
D17*
X169100000Y-118950000D03*
X169100000Y-118000000D03*
X169100000Y-117050000D03*
X166900000Y-117050000D03*
X166900000Y-118950000D03*
G36*
G01*
X169270000Y-136500000D02*
X168920000Y-136500000D01*
G75*
G02*
X168745000Y-136325000I0J175000D01*
G01*
X168745000Y-134625000D01*
G75*
G02*
X168920000Y-134450000I175000J0D01*
G01*
X169270000Y-134450000D01*
G75*
G02*
X169445000Y-134625000I0J-175000D01*
G01*
X169445000Y-136325000D01*
G75*
G02*
X169270000Y-136500000I-175000J0D01*
G01*
G37*
G36*
G01*
X170540000Y-136500000D02*
X170190000Y-136500000D01*
G75*
G02*
X170015000Y-136325000I0J175000D01*
G01*
X170015000Y-134625000D01*
G75*
G02*
X170190000Y-134450000I175000J0D01*
G01*
X170540000Y-134450000D01*
G75*
G02*
X170715000Y-134625000I0J-175000D01*
G01*
X170715000Y-136325000D01*
G75*
G02*
X170540000Y-136500000I-175000J0D01*
G01*
G37*
G36*
G01*
X171810000Y-136500000D02*
X171460000Y-136500000D01*
G75*
G02*
X171285000Y-136325000I0J175000D01*
G01*
X171285000Y-134625000D01*
G75*
G02*
X171460000Y-134450000I175000J0D01*
G01*
X171810000Y-134450000D01*
G75*
G02*
X171985000Y-134625000I0J-175000D01*
G01*
X171985000Y-136325000D01*
G75*
G02*
X171810000Y-136500000I-175000J0D01*
G01*
G37*
G36*
G01*
X173080000Y-136500000D02*
X172730000Y-136500000D01*
G75*
G02*
X172555000Y-136325000I0J175000D01*
G01*
X172555000Y-134625000D01*
G75*
G02*
X172730000Y-134450000I175000J0D01*
G01*
X173080000Y-134450000D01*
G75*
G02*
X173255000Y-134625000I0J-175000D01*
G01*
X173255000Y-136325000D01*
G75*
G02*
X173080000Y-136500000I-175000J0D01*
G01*
G37*
G36*
G01*
X173080000Y-131550000D02*
X172730000Y-131550000D01*
G75*
G02*
X172555000Y-131375000I0J175000D01*
G01*
X172555000Y-129675000D01*
G75*
G02*
X172730000Y-129500000I175000J0D01*
G01*
X173080000Y-129500000D01*
G75*
G02*
X173255000Y-129675000I0J-175000D01*
G01*
X173255000Y-131375000D01*
G75*
G02*
X173080000Y-131550000I-175000J0D01*
G01*
G37*
G36*
G01*
X171810000Y-131550000D02*
X171460000Y-131550000D01*
G75*
G02*
X171285000Y-131375000I0J175000D01*
G01*
X171285000Y-129675000D01*
G75*
G02*
X171460000Y-129500000I175000J0D01*
G01*
X171810000Y-129500000D01*
G75*
G02*
X171985000Y-129675000I0J-175000D01*
G01*
X171985000Y-131375000D01*
G75*
G02*
X171810000Y-131550000I-175000J0D01*
G01*
G37*
G36*
G01*
X170540000Y-131550000D02*
X170190000Y-131550000D01*
G75*
G02*
X170015000Y-131375000I0J175000D01*
G01*
X170015000Y-129675000D01*
G75*
G02*
X170190000Y-129500000I175000J0D01*
G01*
X170540000Y-129500000D01*
G75*
G02*
X170715000Y-129675000I0J-175000D01*
G01*
X170715000Y-131375000D01*
G75*
G02*
X170540000Y-131550000I-175000J0D01*
G01*
G37*
G36*
G01*
X169270000Y-131550000D02*
X168920000Y-131550000D01*
G75*
G02*
X168745000Y-131375000I0J175000D01*
G01*
X168745000Y-129675000D01*
G75*
G02*
X168920000Y-129500000I175000J0D01*
G01*
X169270000Y-129500000D01*
G75*
G02*
X169445000Y-129675000I0J-175000D01*
G01*
X169445000Y-131375000D01*
G75*
G02*
X169270000Y-131550000I-175000J0D01*
G01*
G37*
D18*
X163050000Y-134100000D03*
X164000000Y-134100000D03*
X164950000Y-134100000D03*
X164950000Y-131900000D03*
X163050000Y-131900000D03*
D16*
X177000000Y-122000000D03*
M02*
