G04 #@! TF.GenerationSoftware,KiCad,Pcbnew,5.1.6-c6e7f7d~87~ubuntu18.04.1*
G04 #@! TF.CreationDate,2021-01-03T20:00:45-05:00*
G04 #@! TF.ProjectId,entropy,656e7472-6f70-4792-9e6b-696361645f70,rev?*
G04 #@! TF.SameCoordinates,Original*
G04 #@! TF.FileFunction,Legend,Top*
G04 #@! TF.FilePolarity,Positive*
%FSLAX46Y46*%
G04 Gerber Fmt 4.6, Leading zero omitted, Abs format (unit mm)*
G04 Created by KiCad (PCBNEW 5.1.6-c6e7f7d~87~ubuntu18.04.1) date 2021-01-03 20:00:45*
%MOMM*%
%LPD*%
G01*
G04 APERTURE LIST*
%ADD10C,0.150000*%
%ADD11C,0.120000*%
G04 APERTURE END LIST*
D10*
X163000000Y-126052380D02*
X163190476Y-126052380D01*
X163285714Y-126100000D01*
X163380952Y-126195238D01*
X163428571Y-126385714D01*
X163428571Y-126719047D01*
X163380952Y-126909523D01*
X163285714Y-127004761D01*
X163190476Y-127052380D01*
X163000000Y-127052380D01*
X162904761Y-127004761D01*
X162809523Y-126909523D01*
X162761904Y-126719047D01*
X162761904Y-126385714D01*
X162809523Y-126195238D01*
X162904761Y-126100000D01*
X163000000Y-126052380D01*
X163857142Y-126052380D02*
X163857142Y-126861904D01*
X163904761Y-126957142D01*
X163952380Y-127004761D01*
X164047619Y-127052380D01*
X164238095Y-127052380D01*
X164333333Y-127004761D01*
X164380952Y-126957142D01*
X164428571Y-126861904D01*
X164428571Y-126052380D01*
X164761904Y-126052380D02*
X165333333Y-126052380D01*
X165047619Y-127052380D02*
X165047619Y-126052380D01*
X162861904Y-124028571D02*
X163195238Y-124028571D01*
X163338095Y-124552380D02*
X162861904Y-124552380D01*
X162861904Y-123552380D01*
X163338095Y-123552380D01*
X163766666Y-124552380D02*
X163766666Y-123552380D01*
X164338095Y-124552380D01*
X164338095Y-123552380D01*
X163338095Y-121100000D02*
X163242857Y-121052380D01*
X163100000Y-121052380D01*
X162957142Y-121100000D01*
X162861904Y-121195238D01*
X162814285Y-121290476D01*
X162766666Y-121480952D01*
X162766666Y-121623809D01*
X162814285Y-121814285D01*
X162861904Y-121909523D01*
X162957142Y-122004761D01*
X163100000Y-122052380D01*
X163195238Y-122052380D01*
X163338095Y-122004761D01*
X163385714Y-121957142D01*
X163385714Y-121623809D01*
X163195238Y-121623809D01*
X163814285Y-122052380D02*
X163814285Y-121052380D01*
X164385714Y-122052380D01*
X164385714Y-121052380D01*
X164861904Y-122052380D02*
X164861904Y-121052380D01*
X165100000Y-121052380D01*
X165242857Y-121100000D01*
X165338095Y-121195238D01*
X165385714Y-121290476D01*
X165433333Y-121480952D01*
X165433333Y-121623809D01*
X165385714Y-121814285D01*
X165338095Y-121909523D01*
X165242857Y-122004761D01*
X165100000Y-122052380D01*
X164861904Y-122052380D01*
D11*
X163290000Y-118261252D02*
X163290000Y-117738748D01*
X164710000Y-118261252D02*
X164710000Y-117738748D01*
X173990000Y-118171267D02*
X173990000Y-117828733D01*
X175010000Y-118171267D02*
X175010000Y-117828733D01*
X177710000Y-118261252D02*
X177710000Y-117738748D01*
X176290000Y-118261252D02*
X176290000Y-117738748D01*
X175490000Y-132828733D02*
X175490000Y-133171267D01*
X176510000Y-132828733D02*
X176510000Y-133171267D01*
X166490000Y-132828733D02*
X166490000Y-133171267D01*
X167510000Y-132828733D02*
X167510000Y-133171267D01*
X161510000Y-132828733D02*
X161510000Y-133171267D01*
X160490000Y-132828733D02*
X160490000Y-133171267D01*
X175250000Y-123000000D02*
X175250000Y-121000000D01*
X175250000Y-121000000D02*
X171350000Y-121000000D01*
X175250000Y-123000000D02*
X171350000Y-123000000D01*
X178000000Y-135250000D02*
X178000000Y-131350000D01*
X180000000Y-135250000D02*
X180000000Y-131350000D01*
X178000000Y-135250000D02*
X180000000Y-135250000D01*
X169290000Y-138880000D02*
X169290000Y-141120000D01*
X169530000Y-138880000D02*
X169530000Y-141120000D01*
X169410000Y-138880000D02*
X169410000Y-141120000D01*
X173580000Y-140000000D02*
X172930000Y-140000000D01*
X168040000Y-140000000D02*
X168690000Y-140000000D01*
X172930000Y-138880000D02*
X168690000Y-138880000D01*
X172930000Y-141120000D02*
X172930000Y-138880000D01*
X168690000Y-141120000D02*
X172930000Y-141120000D01*
X168690000Y-138880000D02*
X168690000Y-141120000D01*
X168690000Y-124880000D02*
X168690000Y-127120000D01*
X168690000Y-127120000D02*
X172930000Y-127120000D01*
X172930000Y-127120000D02*
X172930000Y-124880000D01*
X172930000Y-124880000D02*
X168690000Y-124880000D01*
X168040000Y-126000000D02*
X168690000Y-126000000D01*
X173580000Y-126000000D02*
X172930000Y-126000000D01*
X169410000Y-124880000D02*
X169410000Y-127120000D01*
X169530000Y-124880000D02*
X169530000Y-127120000D01*
X169290000Y-124880000D02*
X169290000Y-127120000D01*
X161000000Y-117670000D02*
X162330000Y-117670000D01*
X162330000Y-117670000D02*
X162330000Y-119000000D01*
X162330000Y-120270000D02*
X162330000Y-127950000D01*
X159670000Y-127950000D02*
X162330000Y-127950000D01*
X159670000Y-120270000D02*
X159670000Y-127950000D01*
X159670000Y-120270000D02*
X162330000Y-120270000D01*
X167738748Y-122710000D02*
X168261252Y-122710000D01*
X167738748Y-121290000D02*
X168261252Y-121290000D01*
X172510000Y-118171267D02*
X172510000Y-117828733D01*
X171490000Y-118171267D02*
X171490000Y-117828733D01*
X170171267Y-115510000D02*
X169828733Y-115510000D01*
X170171267Y-114490000D02*
X169828733Y-114490000D01*
X179510000Y-127828733D02*
X179510000Y-128171267D01*
X178490000Y-127828733D02*
X178490000Y-128171267D01*
X177510000Y-139171267D02*
X177510000Y-138828733D01*
X176490000Y-139171267D02*
X176490000Y-138828733D01*
X176490000Y-126828733D02*
X176490000Y-127171267D01*
X177510000Y-126828733D02*
X177510000Y-127171267D01*
X167700000Y-137000000D02*
G75*
G03*
X167700000Y-137000000I-700000J0D01*
G01*
X167700000Y-129000000D02*
G75*
G03*
X167700000Y-129000000I-700000J0D01*
G01*
X167100000Y-119610000D02*
X169550000Y-119610000D01*
X168900000Y-116390000D02*
X167100000Y-116390000D01*
X168440000Y-133000000D02*
X168440000Y-136450000D01*
X168440000Y-133000000D02*
X168440000Y-131050000D01*
X173560000Y-133000000D02*
X173560000Y-134950000D01*
X173560000Y-133000000D02*
X173560000Y-131050000D01*
X162390000Y-132100000D02*
X162390000Y-134550000D01*
X165610000Y-133900000D02*
X165610000Y-132100000D01*
X177700000Y-122000000D02*
G75*
G03*
X177700000Y-122000000I-700000J0D01*
G01*
D10*
X163933333Y-115557142D02*
X163885714Y-115604761D01*
X163742857Y-115652380D01*
X163647619Y-115652380D01*
X163504761Y-115604761D01*
X163409523Y-115509523D01*
X163361904Y-115414285D01*
X163314285Y-115223809D01*
X163314285Y-115080952D01*
X163361904Y-114890476D01*
X163409523Y-114795238D01*
X163504761Y-114700000D01*
X163647619Y-114652380D01*
X163742857Y-114652380D01*
X163885714Y-114700000D01*
X163933333Y-114747619D01*
X164885714Y-115652380D02*
X164314285Y-115652380D01*
X164600000Y-115652380D02*
X164600000Y-114652380D01*
X164504761Y-114795238D01*
X164409523Y-114890476D01*
X164314285Y-114938095D01*
X174333333Y-115657142D02*
X174285714Y-115704761D01*
X174142857Y-115752380D01*
X174047619Y-115752380D01*
X173904761Y-115704761D01*
X173809523Y-115609523D01*
X173761904Y-115514285D01*
X173714285Y-115323809D01*
X173714285Y-115180952D01*
X173761904Y-114990476D01*
X173809523Y-114895238D01*
X173904761Y-114800000D01*
X174047619Y-114752380D01*
X174142857Y-114752380D01*
X174285714Y-114800000D01*
X174333333Y-114847619D01*
X174714285Y-114847619D02*
X174761904Y-114800000D01*
X174857142Y-114752380D01*
X175095238Y-114752380D01*
X175190476Y-114800000D01*
X175238095Y-114847619D01*
X175285714Y-114942857D01*
X175285714Y-115038095D01*
X175238095Y-115180952D01*
X174666666Y-115752380D01*
X175285714Y-115752380D01*
X176833333Y-115657142D02*
X176785714Y-115704761D01*
X176642857Y-115752380D01*
X176547619Y-115752380D01*
X176404761Y-115704761D01*
X176309523Y-115609523D01*
X176261904Y-115514285D01*
X176214285Y-115323809D01*
X176214285Y-115180952D01*
X176261904Y-114990476D01*
X176309523Y-114895238D01*
X176404761Y-114800000D01*
X176547619Y-114752380D01*
X176642857Y-114752380D01*
X176785714Y-114800000D01*
X176833333Y-114847619D01*
X177166666Y-114752380D02*
X177785714Y-114752380D01*
X177452380Y-115133333D01*
X177595238Y-115133333D01*
X177690476Y-115180952D01*
X177738095Y-115228571D01*
X177785714Y-115323809D01*
X177785714Y-115561904D01*
X177738095Y-115657142D01*
X177690476Y-115704761D01*
X177595238Y-115752380D01*
X177309523Y-115752380D01*
X177214285Y-115704761D01*
X177166666Y-115657142D01*
X176357142Y-135966666D02*
X176404761Y-136014285D01*
X176452380Y-136157142D01*
X176452380Y-136252380D01*
X176404761Y-136395238D01*
X176309523Y-136490476D01*
X176214285Y-136538095D01*
X176023809Y-136585714D01*
X175880952Y-136585714D01*
X175690476Y-136538095D01*
X175595238Y-136490476D01*
X175500000Y-136395238D01*
X175452380Y-136252380D01*
X175452380Y-136157142D01*
X175500000Y-136014285D01*
X175547619Y-135966666D01*
X175785714Y-135109523D02*
X176452380Y-135109523D01*
X175404761Y-135347619D02*
X176119047Y-135585714D01*
X176119047Y-134966666D01*
X166833333Y-131057142D02*
X166785714Y-131104761D01*
X166642857Y-131152380D01*
X166547619Y-131152380D01*
X166404761Y-131104761D01*
X166309523Y-131009523D01*
X166261904Y-130914285D01*
X166214285Y-130723809D01*
X166214285Y-130580952D01*
X166261904Y-130390476D01*
X166309523Y-130295238D01*
X166404761Y-130200000D01*
X166547619Y-130152380D01*
X166642857Y-130152380D01*
X166785714Y-130200000D01*
X166833333Y-130247619D01*
X167738095Y-130152380D02*
X167261904Y-130152380D01*
X167214285Y-130628571D01*
X167261904Y-130580952D01*
X167357142Y-130533333D01*
X167595238Y-130533333D01*
X167690476Y-130580952D01*
X167738095Y-130628571D01*
X167785714Y-130723809D01*
X167785714Y-130961904D01*
X167738095Y-131057142D01*
X167690476Y-131104761D01*
X167595238Y-131152380D01*
X167357142Y-131152380D01*
X167261904Y-131104761D01*
X167214285Y-131057142D01*
X161357142Y-130366666D02*
X161404761Y-130414285D01*
X161452380Y-130557142D01*
X161452380Y-130652380D01*
X161404761Y-130795238D01*
X161309523Y-130890476D01*
X161214285Y-130938095D01*
X161023809Y-130985714D01*
X160880952Y-130985714D01*
X160690476Y-130938095D01*
X160595238Y-130890476D01*
X160500000Y-130795238D01*
X160452380Y-130652380D01*
X160452380Y-130557142D01*
X160500000Y-130414285D01*
X160547619Y-130366666D01*
X160452380Y-129509523D02*
X160452380Y-129700000D01*
X160500000Y-129795238D01*
X160547619Y-129842857D01*
X160690476Y-129938095D01*
X160880952Y-129985714D01*
X161261904Y-129985714D01*
X161357142Y-129938095D01*
X161404761Y-129890476D01*
X161452380Y-129795238D01*
X161452380Y-129604761D01*
X161404761Y-129509523D01*
X161357142Y-129461904D01*
X161261904Y-129414285D01*
X161023809Y-129414285D01*
X160928571Y-129461904D01*
X160880952Y-129509523D01*
X160833333Y-129604761D01*
X160833333Y-129795238D01*
X160880952Y-129890476D01*
X160928571Y-129938095D01*
X161023809Y-129985714D01*
X172361904Y-122452380D02*
X172361904Y-121452380D01*
X172600000Y-121452380D01*
X172742857Y-121500000D01*
X172838095Y-121595238D01*
X172885714Y-121690476D01*
X172933333Y-121880952D01*
X172933333Y-122023809D01*
X172885714Y-122214285D01*
X172838095Y-122309523D01*
X172742857Y-122404761D01*
X172600000Y-122452380D01*
X172361904Y-122452380D01*
X173885714Y-122452380D02*
X173314285Y-122452380D01*
X173600000Y-122452380D02*
X173600000Y-121452380D01*
X173504761Y-121595238D01*
X173409523Y-121690476D01*
X173314285Y-121738095D01*
X179452380Y-133738095D02*
X178452380Y-133738095D01*
X178452380Y-133500000D01*
X178500000Y-133357142D01*
X178595238Y-133261904D01*
X178690476Y-133214285D01*
X178880952Y-133166666D01*
X179023809Y-133166666D01*
X179214285Y-133214285D01*
X179309523Y-133261904D01*
X179404761Y-133357142D01*
X179452380Y-133500000D01*
X179452380Y-133738095D01*
X178547619Y-132785714D02*
X178500000Y-132738095D01*
X178452380Y-132642857D01*
X178452380Y-132404761D01*
X178500000Y-132309523D01*
X178547619Y-132261904D01*
X178642857Y-132214285D01*
X178738095Y-132214285D01*
X178880952Y-132261904D01*
X179452380Y-132833333D01*
X179452380Y-132214285D01*
X170361904Y-140452380D02*
X170361904Y-139452380D01*
X170600000Y-139452380D01*
X170742857Y-139500000D01*
X170838095Y-139595238D01*
X170885714Y-139690476D01*
X170933333Y-139880952D01*
X170933333Y-140023809D01*
X170885714Y-140214285D01*
X170838095Y-140309523D01*
X170742857Y-140404761D01*
X170600000Y-140452380D01*
X170361904Y-140452380D01*
X171266666Y-139452380D02*
X171885714Y-139452380D01*
X171552380Y-139833333D01*
X171695238Y-139833333D01*
X171790476Y-139880952D01*
X171838095Y-139928571D01*
X171885714Y-140023809D01*
X171885714Y-140261904D01*
X171838095Y-140357142D01*
X171790476Y-140404761D01*
X171695238Y-140452380D01*
X171409523Y-140452380D01*
X171314285Y-140404761D01*
X171266666Y-140357142D01*
X170461904Y-126452380D02*
X170461904Y-125452380D01*
X170700000Y-125452380D01*
X170842857Y-125500000D01*
X170938095Y-125595238D01*
X170985714Y-125690476D01*
X171033333Y-125880952D01*
X171033333Y-126023809D01*
X170985714Y-126214285D01*
X170938095Y-126309523D01*
X170842857Y-126404761D01*
X170700000Y-126452380D01*
X170461904Y-126452380D01*
X171890476Y-125785714D02*
X171890476Y-126452380D01*
X171652380Y-125404761D02*
X171414285Y-126119047D01*
X172033333Y-126119047D01*
X160666666Y-116352380D02*
X160666666Y-117066666D01*
X160619047Y-117209523D01*
X160523809Y-117304761D01*
X160380952Y-117352380D01*
X160285714Y-117352380D01*
X161666666Y-117352380D02*
X161095238Y-117352380D01*
X161380952Y-117352380D02*
X161380952Y-116352380D01*
X161285714Y-116495238D01*
X161190476Y-116590476D01*
X161095238Y-116638095D01*
X167733333Y-124052380D02*
X167257142Y-124052380D01*
X167257142Y-123052380D01*
X168590476Y-124052380D02*
X168019047Y-124052380D01*
X168304761Y-124052380D02*
X168304761Y-123052380D01*
X168209523Y-123195238D01*
X168114285Y-123290476D01*
X168019047Y-123338095D01*
X171833333Y-120752380D02*
X171500000Y-120276190D01*
X171261904Y-120752380D02*
X171261904Y-119752380D01*
X171642857Y-119752380D01*
X171738095Y-119800000D01*
X171785714Y-119847619D01*
X171833333Y-119942857D01*
X171833333Y-120085714D01*
X171785714Y-120180952D01*
X171738095Y-120228571D01*
X171642857Y-120276190D01*
X171261904Y-120276190D01*
X172785714Y-120752380D02*
X172214285Y-120752380D01*
X172500000Y-120752380D02*
X172500000Y-119752380D01*
X172404761Y-119895238D01*
X172309523Y-119990476D01*
X172214285Y-120038095D01*
X167133333Y-115452380D02*
X166800000Y-114976190D01*
X166561904Y-115452380D02*
X166561904Y-114452380D01*
X166942857Y-114452380D01*
X167038095Y-114500000D01*
X167085714Y-114547619D01*
X167133333Y-114642857D01*
X167133333Y-114785714D01*
X167085714Y-114880952D01*
X167038095Y-114928571D01*
X166942857Y-114976190D01*
X166561904Y-114976190D01*
X167514285Y-114547619D02*
X167561904Y-114500000D01*
X167657142Y-114452380D01*
X167895238Y-114452380D01*
X167990476Y-114500000D01*
X168038095Y-114547619D01*
X168085714Y-114642857D01*
X168085714Y-114738095D01*
X168038095Y-114880952D01*
X167466666Y-115452380D01*
X168085714Y-115452380D01*
X179452380Y-125466666D02*
X178976190Y-125800000D01*
X179452380Y-126038095D02*
X178452380Y-126038095D01*
X178452380Y-125657142D01*
X178500000Y-125561904D01*
X178547619Y-125514285D01*
X178642857Y-125466666D01*
X178785714Y-125466666D01*
X178880952Y-125514285D01*
X178928571Y-125561904D01*
X178976190Y-125657142D01*
X178976190Y-126038095D01*
X178452380Y-125133333D02*
X178452380Y-124514285D01*
X178833333Y-124847619D01*
X178833333Y-124704761D01*
X178880952Y-124609523D01*
X178928571Y-124561904D01*
X179023809Y-124514285D01*
X179261904Y-124514285D01*
X179357142Y-124561904D01*
X179404761Y-124609523D01*
X179452380Y-124704761D01*
X179452380Y-124990476D01*
X179404761Y-125085714D01*
X179357142Y-125133333D01*
X178952380Y-139166666D02*
X178476190Y-139500000D01*
X178952380Y-139738095D02*
X177952380Y-139738095D01*
X177952380Y-139357142D01*
X178000000Y-139261904D01*
X178047619Y-139214285D01*
X178142857Y-139166666D01*
X178285714Y-139166666D01*
X178380952Y-139214285D01*
X178428571Y-139261904D01*
X178476190Y-139357142D01*
X178476190Y-139738095D01*
X178285714Y-138309523D02*
X178952380Y-138309523D01*
X177904761Y-138547619D02*
X178619047Y-138785714D01*
X178619047Y-138166666D01*
X177552380Y-124566666D02*
X177076190Y-124900000D01*
X177552380Y-125138095D02*
X176552380Y-125138095D01*
X176552380Y-124757142D01*
X176600000Y-124661904D01*
X176647619Y-124614285D01*
X176742857Y-124566666D01*
X176885714Y-124566666D01*
X176980952Y-124614285D01*
X177028571Y-124661904D01*
X177076190Y-124757142D01*
X177076190Y-125138095D01*
X176552380Y-123661904D02*
X176552380Y-124138095D01*
X177028571Y-124185714D01*
X176980952Y-124138095D01*
X176933333Y-124042857D01*
X176933333Y-123804761D01*
X176980952Y-123709523D01*
X177028571Y-123661904D01*
X177123809Y-123614285D01*
X177361904Y-123614285D01*
X177457142Y-123661904D01*
X177504761Y-123709523D01*
X177552380Y-123804761D01*
X177552380Y-124042857D01*
X177504761Y-124138095D01*
X177457142Y-124185714D01*
X163538095Y-136552380D02*
X164109523Y-136552380D01*
X163823809Y-137552380D02*
X163823809Y-136552380D01*
X164442857Y-137552380D02*
X164442857Y-136552380D01*
X164823809Y-136552380D01*
X164919047Y-136600000D01*
X164966666Y-136647619D01*
X165014285Y-136742857D01*
X165014285Y-136885714D01*
X164966666Y-136980952D01*
X164919047Y-137028571D01*
X164823809Y-137076190D01*
X164442857Y-137076190D01*
X165395238Y-136647619D02*
X165442857Y-136600000D01*
X165538095Y-136552380D01*
X165776190Y-136552380D01*
X165871428Y-136600000D01*
X165919047Y-136647619D01*
X165966666Y-136742857D01*
X165966666Y-136838095D01*
X165919047Y-136980952D01*
X165347619Y-137552380D01*
X165966666Y-137552380D01*
X165738095Y-127004380D02*
X166309523Y-127004380D01*
X166023809Y-128004380D02*
X166023809Y-127004380D01*
X166642857Y-128004380D02*
X166642857Y-127004380D01*
X167023809Y-127004380D01*
X167119047Y-127052000D01*
X167166666Y-127099619D01*
X167214285Y-127194857D01*
X167214285Y-127337714D01*
X167166666Y-127432952D01*
X167119047Y-127480571D01*
X167023809Y-127528190D01*
X166642857Y-127528190D01*
X167547619Y-127004380D02*
X168166666Y-127004380D01*
X167833333Y-127385333D01*
X167976190Y-127385333D01*
X168071428Y-127432952D01*
X168119047Y-127480571D01*
X168166666Y-127575809D01*
X168166666Y-127813904D01*
X168119047Y-127909142D01*
X168071428Y-127956761D01*
X167976190Y-128004380D01*
X167690476Y-128004380D01*
X167595238Y-127956761D01*
X167547619Y-127909142D01*
X167238095Y-119852380D02*
X167238095Y-120661904D01*
X167285714Y-120757142D01*
X167333333Y-120804761D01*
X167428571Y-120852380D01*
X167619047Y-120852380D01*
X167714285Y-120804761D01*
X167761904Y-120757142D01*
X167809523Y-120661904D01*
X167809523Y-119852380D01*
X168809523Y-120852380D02*
X168238095Y-120852380D01*
X168523809Y-120852380D02*
X168523809Y-119852380D01*
X168428571Y-119995238D01*
X168333333Y-120090476D01*
X168238095Y-120138095D01*
X170238095Y-132452380D02*
X170238095Y-133261904D01*
X170285714Y-133357142D01*
X170333333Y-133404761D01*
X170428571Y-133452380D01*
X170619047Y-133452380D01*
X170714285Y-133404761D01*
X170761904Y-133357142D01*
X170809523Y-133261904D01*
X170809523Y-132452380D01*
X171238095Y-132547619D02*
X171285714Y-132500000D01*
X171380952Y-132452380D01*
X171619047Y-132452380D01*
X171714285Y-132500000D01*
X171761904Y-132547619D01*
X171809523Y-132642857D01*
X171809523Y-132738095D01*
X171761904Y-132880952D01*
X171190476Y-133452380D01*
X171809523Y-133452380D01*
X163238095Y-129652380D02*
X163238095Y-130461904D01*
X163285714Y-130557142D01*
X163333333Y-130604761D01*
X163428571Y-130652380D01*
X163619047Y-130652380D01*
X163714285Y-130604761D01*
X163761904Y-130557142D01*
X163809523Y-130461904D01*
X163809523Y-129652380D01*
X164190476Y-129652380D02*
X164809523Y-129652380D01*
X164476190Y-130033333D01*
X164619047Y-130033333D01*
X164714285Y-130080952D01*
X164761904Y-130128571D01*
X164809523Y-130223809D01*
X164809523Y-130461904D01*
X164761904Y-130557142D01*
X164714285Y-130604761D01*
X164619047Y-130652380D01*
X164333333Y-130652380D01*
X164238095Y-130604761D01*
X164190476Y-130557142D01*
X178138095Y-121452380D02*
X178709523Y-121452380D01*
X178423809Y-122452380D02*
X178423809Y-121452380D01*
X179042857Y-122452380D02*
X179042857Y-121452380D01*
X179423809Y-121452380D01*
X179519047Y-121500000D01*
X179566666Y-121547619D01*
X179614285Y-121642857D01*
X179614285Y-121785714D01*
X179566666Y-121880952D01*
X179519047Y-121928571D01*
X179423809Y-121976190D01*
X179042857Y-121976190D01*
X180566666Y-122452380D02*
X179995238Y-122452380D01*
X180280952Y-122452380D02*
X180280952Y-121452380D01*
X180185714Y-121595238D01*
X180090476Y-121690476D01*
X179995238Y-121738095D01*
M02*
