M48
INCH,TZ
T1C0.0157
T2C0.0197
T3C0.0394
%
G90
G05
T1
X52756Y-24409
X52756Y-32283
X53400Y-27900
X54100Y-27100
X54144Y-30456
X54400Y-26100
X54750Y-27500
X55100Y-25400
X55300Y-29800
X55800Y-24800
X56250Y-31250
X57200Y-25800
X57200Y-29700
X58200Y-28400
X58300Y-25400
X58300Y-29600
X58344Y-30456
X58600Y-27600
X60100Y-28500
X60800Y-24800
X61024Y-24409
X61024Y-32283
T2
X60750Y-29000
T3
X53386Y-25250
X53386Y-26250
X53386Y-27250
T0
M30
