G04 #@! TF.GenerationSoftware,KiCad,Pcbnew,(5.1.10)-1*
G04 #@! TF.CreationDate,2021-07-21T20:41:20-04:00*
G04 #@! TF.ProjectId,entropy r2,656e7472-6f70-4792-9072-322e6b696361,rev?*
G04 #@! TF.SameCoordinates,Original*
G04 #@! TF.FileFunction,Soldermask,Top*
G04 #@! TF.FilePolarity,Negative*
%FSLAX46Y46*%
G04 Gerber Fmt 4.6, Leading zero omitted, Abs format (unit mm)*
G04 Created by KiCad (PCBNEW (5.1.10)-1) date 2021-07-21 20:41:20*
%MOMM*%
%LPD*%
G01*
G04 APERTURE LIST*
%ADD10O,1.700000X1.700000*%
%ADD11R,1.700000X1.700000*%
%ADD12R,1.200000X0.900000*%
%ADD13C,1.000000*%
%ADD14R,0.700000X1.000000*%
%ADD15R,1.060000X0.650000*%
%ADD16R,0.300000X0.800000*%
G04 APERTURE END LIST*
D10*
X135600000Y-69215000D03*
X135600000Y-66675000D03*
D11*
X135600000Y-64135000D03*
D12*
X149860000Y-67690000D03*
X149860000Y-64390000D03*
D13*
X154305000Y-73660000D03*
G36*
G01*
X146447500Y-72895000D02*
X146922500Y-72895000D01*
G75*
G02*
X147160000Y-73132500I0J-237500D01*
G01*
X147160000Y-73707500D01*
G75*
G02*
X146922500Y-73945000I-237500J0D01*
G01*
X146447500Y-73945000D01*
G75*
G02*
X146210000Y-73707500I0J237500D01*
G01*
X146210000Y-73132500D01*
G75*
G02*
X146447500Y-72895000I237500J0D01*
G01*
G37*
G36*
G01*
X146447500Y-74645000D02*
X146922500Y-74645000D01*
G75*
G02*
X147160000Y-74882500I0J-237500D01*
G01*
X147160000Y-75457500D01*
G75*
G02*
X146922500Y-75695000I-237500J0D01*
G01*
X146447500Y-75695000D01*
G75*
G02*
X146210000Y-75457500I0J237500D01*
G01*
X146210000Y-74882500D01*
G75*
G02*
X146447500Y-74645000I237500J0D01*
G01*
G37*
G36*
G01*
X134857500Y-81283000D02*
X134382500Y-81283000D01*
G75*
G02*
X134145000Y-81045500I0J237500D01*
G01*
X134145000Y-80470500D01*
G75*
G02*
X134382500Y-80233000I237500J0D01*
G01*
X134857500Y-80233000D01*
G75*
G02*
X135095000Y-80470500I0J-237500D01*
G01*
X135095000Y-81045500D01*
G75*
G02*
X134857500Y-81283000I-237500J0D01*
G01*
G37*
G36*
G01*
X134857500Y-79533000D02*
X134382500Y-79533000D01*
G75*
G02*
X134145000Y-79295500I0J237500D01*
G01*
X134145000Y-78720500D01*
G75*
G02*
X134382500Y-78483000I237500J0D01*
G01*
X134857500Y-78483000D01*
G75*
G02*
X135095000Y-78720500I0J-237500D01*
G01*
X135095000Y-79295500D01*
G75*
G02*
X134857500Y-79533000I-237500J0D01*
G01*
G37*
G36*
G01*
X141875500Y-70073000D02*
X142350500Y-70073000D01*
G75*
G02*
X142588000Y-70310500I0J-237500D01*
G01*
X142588000Y-70885500D01*
G75*
G02*
X142350500Y-71123000I-237500J0D01*
G01*
X141875500Y-71123000D01*
G75*
G02*
X141638000Y-70885500I0J237500D01*
G01*
X141638000Y-70310500D01*
G75*
G02*
X141875500Y-70073000I237500J0D01*
G01*
G37*
G36*
G01*
X141875500Y-68323000D02*
X142350500Y-68323000D01*
G75*
G02*
X142588000Y-68560500I0J-237500D01*
G01*
X142588000Y-69135500D01*
G75*
G02*
X142350500Y-69373000I-237500J0D01*
G01*
X141875500Y-69373000D01*
G75*
G02*
X141638000Y-69135500I0J237500D01*
G01*
X141638000Y-68560500D01*
G75*
G02*
X141875500Y-68323000I237500J0D01*
G01*
G37*
G36*
G01*
X142182001Y-65082000D02*
X141281999Y-65082000D01*
G75*
G02*
X141032000Y-64832001I0J249999D01*
G01*
X141032000Y-64181999D01*
G75*
G02*
X141281999Y-63932000I249999J0D01*
G01*
X142182001Y-63932000D01*
G75*
G02*
X142432000Y-64181999I0J-249999D01*
G01*
X142432000Y-64832001D01*
G75*
G02*
X142182001Y-65082000I-249999J0D01*
G01*
G37*
G36*
G01*
X142182001Y-67132000D02*
X141281999Y-67132000D01*
G75*
G02*
X141032000Y-66882001I0J249999D01*
G01*
X141032000Y-66231999D01*
G75*
G02*
X141281999Y-65982000I249999J0D01*
G01*
X142182001Y-65982000D01*
G75*
G02*
X142432000Y-66231999I0J-249999D01*
G01*
X142432000Y-66882001D01*
G75*
G02*
X142182001Y-67132000I-249999J0D01*
G01*
G37*
G36*
G01*
X151621500Y-79483000D02*
X151146500Y-79483000D01*
G75*
G02*
X150909000Y-79245500I0J237500D01*
G01*
X150909000Y-78670500D01*
G75*
G02*
X151146500Y-78433000I237500J0D01*
G01*
X151621500Y-78433000D01*
G75*
G02*
X151859000Y-78670500I0J-237500D01*
G01*
X151859000Y-79245500D01*
G75*
G02*
X151621500Y-79483000I-237500J0D01*
G01*
G37*
G36*
G01*
X151621500Y-81233000D02*
X151146500Y-81233000D01*
G75*
G02*
X150909000Y-80995500I0J237500D01*
G01*
X150909000Y-80420500D01*
G75*
G02*
X151146500Y-80183000I237500J0D01*
G01*
X151621500Y-80183000D01*
G75*
G02*
X151859000Y-80420500I0J-237500D01*
G01*
X151859000Y-80995500D01*
G75*
G02*
X151621500Y-81233000I-237500J0D01*
G01*
G37*
G36*
G01*
X154577500Y-68460000D02*
X154102500Y-68460000D01*
G75*
G02*
X153865000Y-68222500I0J237500D01*
G01*
X153865000Y-67647500D01*
G75*
G02*
X154102500Y-67410000I237500J0D01*
G01*
X154577500Y-67410000D01*
G75*
G02*
X154815000Y-67647500I0J-237500D01*
G01*
X154815000Y-68222500D01*
G75*
G02*
X154577500Y-68460000I-237500J0D01*
G01*
G37*
G36*
G01*
X154577500Y-66710000D02*
X154102500Y-66710000D01*
G75*
G02*
X153865000Y-66472500I0J237500D01*
G01*
X153865000Y-65897500D01*
G75*
G02*
X154102500Y-65660000I237500J0D01*
G01*
X154577500Y-65660000D01*
G75*
G02*
X154815000Y-65897500I0J-237500D01*
G01*
X154815000Y-66472500D01*
G75*
G02*
X154577500Y-66710000I-237500J0D01*
G01*
G37*
G36*
G01*
X153000000Y-69649999D02*
X153000000Y-70550001D01*
G75*
G02*
X152750001Y-70800000I-249999J0D01*
G01*
X152099999Y-70800000D01*
G75*
G02*
X151850000Y-70550001I0J249999D01*
G01*
X151850000Y-69649999D01*
G75*
G02*
X152099999Y-69400000I249999J0D01*
G01*
X152750001Y-69400000D01*
G75*
G02*
X153000000Y-69649999I0J-249999D01*
G01*
G37*
G36*
G01*
X150950000Y-69649999D02*
X150950000Y-70550001D01*
G75*
G02*
X150700001Y-70800000I-249999J0D01*
G01*
X150049999Y-70800000D01*
G75*
G02*
X149800000Y-70550001I0J249999D01*
G01*
X149800000Y-69649999D01*
G75*
G02*
X150049999Y-69400000I249999J0D01*
G01*
X150700001Y-69400000D01*
G75*
G02*
X150950000Y-69649999I0J-249999D01*
G01*
G37*
G36*
G01*
X143688000Y-70046001D02*
X143688000Y-69145999D01*
G75*
G02*
X143937999Y-68896000I249999J0D01*
G01*
X144588001Y-68896000D01*
G75*
G02*
X144838000Y-69145999I0J-249999D01*
G01*
X144838000Y-70046001D01*
G75*
G02*
X144588001Y-70296000I-249999J0D01*
G01*
X143937999Y-70296000D01*
G75*
G02*
X143688000Y-70046001I0J249999D01*
G01*
G37*
G36*
G01*
X145738000Y-70046001D02*
X145738000Y-69145999D01*
G75*
G02*
X145987999Y-68896000I249999J0D01*
G01*
X146638001Y-68896000D01*
G75*
G02*
X146888000Y-69145999I0J-249999D01*
G01*
X146888000Y-70046001D01*
G75*
G02*
X146638001Y-70296000I-249999J0D01*
G01*
X145987999Y-70296000D01*
G75*
G02*
X145738000Y-70046001I0J249999D01*
G01*
G37*
D14*
X136586000Y-72233000D03*
X135636000Y-72233000D03*
X134686000Y-72233000D03*
X134686000Y-74833000D03*
X136586000Y-74833000D03*
X135636000Y-74833000D03*
X142875000Y-78075000D03*
X141925000Y-78075000D03*
X143825000Y-78075000D03*
X143825000Y-80675000D03*
X142875000Y-80675000D03*
X141925000Y-80675000D03*
X151297201Y-72233000D03*
X150347201Y-72233000D03*
X149397201Y-72233000D03*
X149397201Y-74833000D03*
X151297201Y-74833000D03*
X150347201Y-74833000D03*
G36*
G01*
X135286000Y-76978500D02*
X135286000Y-77453500D01*
G75*
G02*
X135048500Y-77691000I-237500J0D01*
G01*
X134473500Y-77691000D01*
G75*
G02*
X134236000Y-77453500I0J237500D01*
G01*
X134236000Y-76978500D01*
G75*
G02*
X134473500Y-76741000I237500J0D01*
G01*
X135048500Y-76741000D01*
G75*
G02*
X135286000Y-76978500I0J-237500D01*
G01*
G37*
G36*
G01*
X137036000Y-76978500D02*
X137036000Y-77453500D01*
G75*
G02*
X136798500Y-77691000I-237500J0D01*
G01*
X136223500Y-77691000D01*
G75*
G02*
X135986000Y-77453500I0J237500D01*
G01*
X135986000Y-76978500D01*
G75*
G02*
X136223500Y-76741000I237500J0D01*
G01*
X136798500Y-76741000D01*
G75*
G02*
X137036000Y-76978500I0J-237500D01*
G01*
G37*
G36*
G01*
X136414500Y-78483000D02*
X136889500Y-78483000D01*
G75*
G02*
X137127000Y-78720500I0J-237500D01*
G01*
X137127000Y-79295500D01*
G75*
G02*
X136889500Y-79533000I-237500J0D01*
G01*
X136414500Y-79533000D01*
G75*
G02*
X136177000Y-79295500I0J237500D01*
G01*
X136177000Y-78720500D01*
G75*
G02*
X136414500Y-78483000I237500J0D01*
G01*
G37*
G36*
G01*
X136414500Y-80233000D02*
X136889500Y-80233000D01*
G75*
G02*
X137127000Y-80470500I0J-237500D01*
G01*
X137127000Y-81045500D01*
G75*
G02*
X136889500Y-81283000I-237500J0D01*
G01*
X136414500Y-81283000D01*
G75*
G02*
X136177000Y-81045500I0J237500D01*
G01*
X136177000Y-80470500D01*
G75*
G02*
X136414500Y-80233000I237500J0D01*
G01*
G37*
G36*
G01*
X138827500Y-72895000D02*
X139302500Y-72895000D01*
G75*
G02*
X139540000Y-73132500I0J-237500D01*
G01*
X139540000Y-73707500D01*
G75*
G02*
X139302500Y-73945000I-237500J0D01*
G01*
X138827500Y-73945000D01*
G75*
G02*
X138590000Y-73707500I0J237500D01*
G01*
X138590000Y-73132500D01*
G75*
G02*
X138827500Y-72895000I237500J0D01*
G01*
G37*
G36*
G01*
X138827500Y-74645000D02*
X139302500Y-74645000D01*
G75*
G02*
X139540000Y-74882500I0J-237500D01*
G01*
X139540000Y-75457500D01*
G75*
G02*
X139302500Y-75695000I-237500J0D01*
G01*
X138827500Y-75695000D01*
G75*
G02*
X138590000Y-75457500I0J237500D01*
G01*
X138590000Y-74882500D01*
G75*
G02*
X138827500Y-74645000I237500J0D01*
G01*
G37*
G36*
G01*
X138446500Y-78582000D02*
X138921500Y-78582000D01*
G75*
G02*
X139159000Y-78819500I0J-237500D01*
G01*
X139159000Y-79394500D01*
G75*
G02*
X138921500Y-79632000I-237500J0D01*
G01*
X138446500Y-79632000D01*
G75*
G02*
X138209000Y-79394500I0J237500D01*
G01*
X138209000Y-78819500D01*
G75*
G02*
X138446500Y-78582000I237500J0D01*
G01*
G37*
G36*
G01*
X138446500Y-76832000D02*
X138921500Y-76832000D01*
G75*
G02*
X139159000Y-77069500I0J-237500D01*
G01*
X139159000Y-77644500D01*
G75*
G02*
X138921500Y-77882000I-237500J0D01*
G01*
X138446500Y-77882000D01*
G75*
G02*
X138209000Y-77644500I0J237500D01*
G01*
X138209000Y-77069500D01*
G75*
G02*
X138446500Y-76832000I237500J0D01*
G01*
G37*
G36*
G01*
X140445500Y-79632000D02*
X139970500Y-79632000D01*
G75*
G02*
X139733000Y-79394500I0J237500D01*
G01*
X139733000Y-78819500D01*
G75*
G02*
X139970500Y-78582000I237500J0D01*
G01*
X140445500Y-78582000D01*
G75*
G02*
X140683000Y-78819500I0J-237500D01*
G01*
X140683000Y-79394500D01*
G75*
G02*
X140445500Y-79632000I-237500J0D01*
G01*
G37*
G36*
G01*
X140445500Y-77882000D02*
X139970500Y-77882000D01*
G75*
G02*
X139733000Y-77644500I0J237500D01*
G01*
X139733000Y-77069500D01*
G75*
G02*
X139970500Y-76832000I237500J0D01*
G01*
X140445500Y-76832000D01*
G75*
G02*
X140683000Y-77069500I0J-237500D01*
G01*
X140683000Y-77644500D01*
G75*
G02*
X140445500Y-77882000I-237500J0D01*
G01*
G37*
G36*
G01*
X150718000Y-77453500D02*
X150718000Y-76978500D01*
G75*
G02*
X150955500Y-76741000I237500J0D01*
G01*
X151530500Y-76741000D01*
G75*
G02*
X151768000Y-76978500I0J-237500D01*
G01*
X151768000Y-77453500D01*
G75*
G02*
X151530500Y-77691000I-237500J0D01*
G01*
X150955500Y-77691000D01*
G75*
G02*
X150718000Y-77453500I0J237500D01*
G01*
G37*
G36*
G01*
X148968000Y-77453500D02*
X148968000Y-76978500D01*
G75*
G02*
X149205500Y-76741000I237500J0D01*
G01*
X149780500Y-76741000D01*
G75*
G02*
X150018000Y-76978500I0J-237500D01*
G01*
X150018000Y-77453500D01*
G75*
G02*
X149780500Y-77691000I-237500J0D01*
G01*
X149205500Y-77691000D01*
G75*
G02*
X148968000Y-77453500I0J237500D01*
G01*
G37*
G36*
G01*
X149114500Y-80183000D02*
X149589500Y-80183000D01*
G75*
G02*
X149827000Y-80420500I0J-237500D01*
G01*
X149827000Y-80995500D01*
G75*
G02*
X149589500Y-81233000I-237500J0D01*
G01*
X149114500Y-81233000D01*
G75*
G02*
X148877000Y-80995500I0J237500D01*
G01*
X148877000Y-80420500D01*
G75*
G02*
X149114500Y-80183000I237500J0D01*
G01*
G37*
G36*
G01*
X149114500Y-78433000D02*
X149589500Y-78433000D01*
G75*
G02*
X149827000Y-78670500I0J-237500D01*
G01*
X149827000Y-79245500D01*
G75*
G02*
X149589500Y-79483000I-237500J0D01*
G01*
X149114500Y-79483000D01*
G75*
G02*
X148877000Y-79245500I0J237500D01*
G01*
X148877000Y-78670500D01*
G75*
G02*
X149114500Y-78433000I237500J0D01*
G01*
G37*
G36*
G01*
X152737500Y-66720000D02*
X152262500Y-66720000D01*
G75*
G02*
X152025000Y-66482500I0J237500D01*
G01*
X152025000Y-65907500D01*
G75*
G02*
X152262500Y-65670000I237500J0D01*
G01*
X152737500Y-65670000D01*
G75*
G02*
X152975000Y-65907500I0J-237500D01*
G01*
X152975000Y-66482500D01*
G75*
G02*
X152737500Y-66720000I-237500J0D01*
G01*
G37*
G36*
G01*
X152737500Y-68470000D02*
X152262500Y-68470000D01*
G75*
G02*
X152025000Y-68232500I0J237500D01*
G01*
X152025000Y-67657500D01*
G75*
G02*
X152262500Y-67420000I237500J0D01*
G01*
X152737500Y-67420000D01*
G75*
G02*
X152975000Y-67657500I0J-237500D01*
G01*
X152975000Y-68232500D01*
G75*
G02*
X152737500Y-68470000I-237500J0D01*
G01*
G37*
G36*
G01*
X152016000Y-64753500D02*
X152016000Y-64278500D01*
G75*
G02*
X152253500Y-64041000I237500J0D01*
G01*
X152828500Y-64041000D01*
G75*
G02*
X153066000Y-64278500I0J-237500D01*
G01*
X153066000Y-64753500D01*
G75*
G02*
X152828500Y-64991000I-237500J0D01*
G01*
X152253500Y-64991000D01*
G75*
G02*
X152016000Y-64753500I0J237500D01*
G01*
G37*
G36*
G01*
X153766000Y-64753500D02*
X153766000Y-64278500D01*
G75*
G02*
X154003500Y-64041000I237500J0D01*
G01*
X154578500Y-64041000D01*
G75*
G02*
X154816000Y-64278500I0J-237500D01*
G01*
X154816000Y-64753500D01*
G75*
G02*
X154578500Y-64991000I-237500J0D01*
G01*
X154003500Y-64991000D01*
G75*
G02*
X153766000Y-64753500I0J237500D01*
G01*
G37*
G36*
G01*
X154577500Y-71930000D02*
X154102500Y-71930000D01*
G75*
G02*
X153865000Y-71692500I0J237500D01*
G01*
X153865000Y-71117500D01*
G75*
G02*
X154102500Y-70880000I237500J0D01*
G01*
X154577500Y-70880000D01*
G75*
G02*
X154815000Y-71117500I0J-237500D01*
G01*
X154815000Y-71692500D01*
G75*
G02*
X154577500Y-71930000I-237500J0D01*
G01*
G37*
G36*
G01*
X154577500Y-70180000D02*
X154102500Y-70180000D01*
G75*
G02*
X153865000Y-69942500I0J237500D01*
G01*
X153865000Y-69367500D01*
G75*
G02*
X154102500Y-69130000I237500J0D01*
G01*
X154577500Y-69130000D01*
G75*
G02*
X154815000Y-69367500I0J-237500D01*
G01*
X154815000Y-69942500D01*
G75*
G02*
X154577500Y-70180000I-237500J0D01*
G01*
G37*
G36*
G01*
X147082500Y-76832000D02*
X147557500Y-76832000D01*
G75*
G02*
X147795000Y-77069500I0J-237500D01*
G01*
X147795000Y-77644500D01*
G75*
G02*
X147557500Y-77882000I-237500J0D01*
G01*
X147082500Y-77882000D01*
G75*
G02*
X146845000Y-77644500I0J237500D01*
G01*
X146845000Y-77069500D01*
G75*
G02*
X147082500Y-76832000I237500J0D01*
G01*
G37*
G36*
G01*
X147082500Y-78582000D02*
X147557500Y-78582000D01*
G75*
G02*
X147795000Y-78819500I0J-237500D01*
G01*
X147795000Y-79394500D01*
G75*
G02*
X147557500Y-79632000I-237500J0D01*
G01*
X147082500Y-79632000D01*
G75*
G02*
X146845000Y-79394500I0J237500D01*
G01*
X146845000Y-78819500D01*
G75*
G02*
X147082500Y-78582000I237500J0D01*
G01*
G37*
G36*
G01*
X146033500Y-77882000D02*
X145558500Y-77882000D01*
G75*
G02*
X145321000Y-77644500I0J237500D01*
G01*
X145321000Y-77069500D01*
G75*
G02*
X145558500Y-76832000I237500J0D01*
G01*
X146033500Y-76832000D01*
G75*
G02*
X146271000Y-77069500I0J-237500D01*
G01*
X146271000Y-77644500D01*
G75*
G02*
X146033500Y-77882000I-237500J0D01*
G01*
G37*
G36*
G01*
X146033500Y-79632000D02*
X145558500Y-79632000D01*
G75*
G02*
X145321000Y-79394500I0J237500D01*
G01*
X145321000Y-78819500D01*
G75*
G02*
X145558500Y-78582000I237500J0D01*
G01*
X146033500Y-78582000D01*
G75*
G02*
X146271000Y-78819500I0J-237500D01*
G01*
X146271000Y-79394500D01*
G75*
G02*
X146033500Y-79632000I-237500J0D01*
G01*
G37*
D15*
X141775000Y-73345000D03*
X141775000Y-74295000D03*
X141775000Y-75245000D03*
X143975000Y-75245000D03*
X143975000Y-73345000D03*
D16*
X138823000Y-71273000D03*
X139323000Y-71273000D03*
X139823000Y-71273000D03*
X140323000Y-71273000D03*
X140323000Y-68173000D03*
X139823000Y-68173000D03*
X139323000Y-68173000D03*
X138823000Y-68173000D03*
D15*
X144442000Y-66482000D03*
X144442000Y-64582000D03*
X146642000Y-64582000D03*
X146642000Y-65532000D03*
X146642000Y-66482000D03*
M02*
