G04 #@! TF.GenerationSoftware,KiCad,Pcbnew,(5.1.10)-1*
G04 #@! TF.CreationDate,2021-07-21T20:41:20-04:00*
G04 #@! TF.ProjectId,entropy r2,656e7472-6f70-4792-9072-322e6b696361,rev?*
G04 #@! TF.SameCoordinates,Original*
G04 #@! TF.FileFunction,Copper,L2,Bot*
G04 #@! TF.FilePolarity,Positive*
%FSLAX46Y46*%
G04 Gerber Fmt 4.6, Leading zero omitted, Abs format (unit mm)*
G04 Created by KiCad (PCBNEW (5.1.10)-1) date 2021-07-21 20:41:20*
%MOMM*%
%LPD*%
G01*
G04 APERTURE LIST*
G04 #@! TA.AperFunction,ComponentPad*
%ADD10O,1.700000X1.700000*%
G04 #@! TD*
G04 #@! TA.AperFunction,ComponentPad*
%ADD11R,1.700000X1.700000*%
G04 #@! TD*
G04 #@! TA.AperFunction,ComponentPad*
%ADD12C,1.000000*%
G04 #@! TD*
G04 #@! TA.AperFunction,ViaPad*
%ADD13C,0.800000*%
G04 #@! TD*
G04 #@! TA.AperFunction,Conductor*
%ADD14C,0.609600*%
G04 #@! TD*
G04 #@! TA.AperFunction,Conductor*
%ADD15C,0.254000*%
G04 #@! TD*
G04 #@! TA.AperFunction,Conductor*
%ADD16C,0.100000*%
G04 #@! TD*
G04 APERTURE END LIST*
D10*
X135600000Y-69215000D03*
X135600000Y-66675000D03*
D11*
X135600000Y-64135000D03*
D12*
X154305000Y-73660000D03*
D13*
X139065000Y-69850000D03*
X148082000Y-64516000D03*
X141732000Y-62992000D03*
X142875000Y-79375000D03*
X140462000Y-75692000D03*
X145288000Y-75438000D03*
X148082000Y-75184000D03*
X154432000Y-62992000D03*
X148844000Y-70104000D03*
X152654000Y-72390000D03*
X147828000Y-72136000D03*
X135636000Y-70866000D03*
X145288000Y-65532000D03*
X137414000Y-68834000D03*
X139954000Y-64516000D03*
X138176000Y-66294000D03*
X134000000Y-62000000D03*
X155000000Y-62000000D03*
X134000000Y-82000000D03*
X155000000Y-82000000D03*
X137527000Y-77357000D03*
X148195000Y-77357000D03*
D14*
X137527000Y-77357000D02*
X142889000Y-77357000D01*
X142889000Y-77357000D02*
X148195000Y-77357000D01*
X142889000Y-77357000D02*
X142889000Y-76214000D01*
X145443000Y-73660000D02*
X142889000Y-76214000D01*
X154305000Y-73660000D02*
X145443000Y-73660000D01*
D15*
X155114994Y-61419222D02*
X155225614Y-61452620D01*
X155327639Y-61506868D01*
X155417179Y-61579895D01*
X155490833Y-61668925D01*
X155545792Y-61770572D01*
X155579960Y-61880949D01*
X155594000Y-62014528D01*
X155594001Y-81980136D01*
X155580778Y-82114994D01*
X155547379Y-82225615D01*
X155493132Y-82327639D01*
X155420106Y-82417179D01*
X155331072Y-82490834D01*
X155229428Y-82545792D01*
X155119051Y-82579960D01*
X154985472Y-82594000D01*
X134019854Y-82594000D01*
X133885006Y-82580778D01*
X133774385Y-82547379D01*
X133672361Y-82493132D01*
X133582821Y-82420106D01*
X133509166Y-82331072D01*
X133454208Y-82229428D01*
X133420040Y-82119051D01*
X133406000Y-81985472D01*
X133406000Y-77280078D01*
X136746000Y-77280078D01*
X136746000Y-77433922D01*
X136776013Y-77584809D01*
X136834887Y-77726942D01*
X136920358Y-77854859D01*
X137029141Y-77963642D01*
X137157058Y-78049113D01*
X137299191Y-78107987D01*
X137450078Y-78138000D01*
X137603922Y-78138000D01*
X137754809Y-78107987D01*
X137896942Y-78049113D01*
X137906390Y-78042800D01*
X142855311Y-78042800D01*
X142889000Y-78046118D01*
X142922688Y-78042800D01*
X147815610Y-78042800D01*
X147825058Y-78049113D01*
X147967191Y-78107987D01*
X148118078Y-78138000D01*
X148271922Y-78138000D01*
X148422809Y-78107987D01*
X148564942Y-78049113D01*
X148692859Y-77963642D01*
X148801642Y-77854859D01*
X148887113Y-77726942D01*
X148945987Y-77584809D01*
X148976000Y-77433922D01*
X148976000Y-77280078D01*
X148945987Y-77129191D01*
X148887113Y-76987058D01*
X148801642Y-76859141D01*
X148692859Y-76750358D01*
X148564942Y-76664887D01*
X148422809Y-76606013D01*
X148271922Y-76576000D01*
X148118078Y-76576000D01*
X147967191Y-76606013D01*
X147825058Y-76664887D01*
X147815610Y-76671200D01*
X143574800Y-76671200D01*
X143574800Y-76498067D01*
X145727068Y-74345800D01*
X153745613Y-74345800D01*
X153887690Y-74440732D01*
X154048022Y-74507144D01*
X154218229Y-74541000D01*
X154391771Y-74541000D01*
X154561978Y-74507144D01*
X154722310Y-74440732D01*
X154866605Y-74344318D01*
X154989318Y-74221605D01*
X155085732Y-74077310D01*
X155152144Y-73916978D01*
X155186000Y-73746771D01*
X155186000Y-73573229D01*
X155152144Y-73403022D01*
X155085732Y-73242690D01*
X154989318Y-73098395D01*
X154866605Y-72975682D01*
X154722310Y-72879268D01*
X154561978Y-72812856D01*
X154391771Y-72779000D01*
X154218229Y-72779000D01*
X154048022Y-72812856D01*
X153887690Y-72879268D01*
X153745613Y-72974200D01*
X145476678Y-72974200D01*
X145442999Y-72970883D01*
X145409320Y-72974200D01*
X145409311Y-72974200D01*
X145308560Y-72984123D01*
X145179286Y-73023338D01*
X145075529Y-73078797D01*
X145060145Y-73087020D01*
X145046285Y-73098395D01*
X144955720Y-73172720D01*
X144934247Y-73198885D01*
X142427886Y-75705247D01*
X142401721Y-75726720D01*
X142380248Y-75752885D01*
X142380245Y-75752888D01*
X142316020Y-75831147D01*
X142252339Y-75950286D01*
X142213124Y-76079560D01*
X142199883Y-76214000D01*
X142203201Y-76247688D01*
X142203201Y-76671200D01*
X137906390Y-76671200D01*
X137896942Y-76664887D01*
X137754809Y-76606013D01*
X137603922Y-76576000D01*
X137450078Y-76576000D01*
X137299191Y-76606013D01*
X137157058Y-76664887D01*
X137029141Y-76750358D01*
X136920358Y-76859141D01*
X136834887Y-76987058D01*
X136776013Y-77129191D01*
X136746000Y-77280078D01*
X133406000Y-77280078D01*
X133406000Y-67031890D01*
X134158524Y-67031890D01*
X134203175Y-67179099D01*
X134328359Y-67441920D01*
X134502412Y-67675269D01*
X134718645Y-67870178D01*
X134968748Y-68019157D01*
X135131168Y-68076772D01*
X135016903Y-68124102D01*
X134815283Y-68258820D01*
X134643820Y-68430283D01*
X134509102Y-68631903D01*
X134416307Y-68855931D01*
X134369000Y-69093757D01*
X134369000Y-69336243D01*
X134416307Y-69574069D01*
X134509102Y-69798097D01*
X134643820Y-69999717D01*
X134815283Y-70171180D01*
X135016903Y-70305898D01*
X135240931Y-70398693D01*
X135478757Y-70446000D01*
X135721243Y-70446000D01*
X135959069Y-70398693D01*
X136183097Y-70305898D01*
X136384717Y-70171180D01*
X136556180Y-69999717D01*
X136690898Y-69798097D01*
X136783693Y-69574069D01*
X136831000Y-69336243D01*
X136831000Y-69093757D01*
X136783693Y-68855931D01*
X136690898Y-68631903D01*
X136556180Y-68430283D01*
X136384717Y-68258820D01*
X136183097Y-68124102D01*
X136068832Y-68076772D01*
X136231252Y-68019157D01*
X136481355Y-67870178D01*
X136697588Y-67675269D01*
X136871641Y-67441920D01*
X136996825Y-67179099D01*
X137041476Y-67031890D01*
X136920155Y-66802000D01*
X135727000Y-66802000D01*
X135727000Y-66822000D01*
X135473000Y-66822000D01*
X135473000Y-66802000D01*
X134279845Y-66802000D01*
X134158524Y-67031890D01*
X133406000Y-67031890D01*
X133406000Y-66318110D01*
X134158524Y-66318110D01*
X134279845Y-66548000D01*
X135473000Y-66548000D01*
X135473000Y-66528000D01*
X135727000Y-66528000D01*
X135727000Y-66548000D01*
X136920155Y-66548000D01*
X137041476Y-66318110D01*
X136996825Y-66170901D01*
X136871641Y-65908080D01*
X136697588Y-65674731D01*
X136481355Y-65479822D01*
X136293367Y-65367843D01*
X136450000Y-65367843D01*
X136524689Y-65360487D01*
X136596508Y-65338701D01*
X136662696Y-65303322D01*
X136720711Y-65255711D01*
X136768322Y-65197696D01*
X136803701Y-65131508D01*
X136825487Y-65059689D01*
X136832843Y-64985000D01*
X136832843Y-63285000D01*
X136825487Y-63210311D01*
X136803701Y-63138492D01*
X136768322Y-63072304D01*
X136720711Y-63014289D01*
X136662696Y-62966678D01*
X136596508Y-62931299D01*
X136524689Y-62909513D01*
X136450000Y-62902157D01*
X134750000Y-62902157D01*
X134675311Y-62909513D01*
X134603492Y-62931299D01*
X134537304Y-62966678D01*
X134479289Y-63014289D01*
X134431678Y-63072304D01*
X134396299Y-63138492D01*
X134374513Y-63210311D01*
X134367157Y-63285000D01*
X134367157Y-64985000D01*
X134374513Y-65059689D01*
X134396299Y-65131508D01*
X134431678Y-65197696D01*
X134479289Y-65255711D01*
X134537304Y-65303322D01*
X134603492Y-65338701D01*
X134675311Y-65360487D01*
X134750000Y-65367843D01*
X134906633Y-65367843D01*
X134718645Y-65479822D01*
X134502412Y-65674731D01*
X134328359Y-65908080D01*
X134203175Y-66170901D01*
X134158524Y-66318110D01*
X133406000Y-66318110D01*
X133406000Y-62019854D01*
X133419222Y-61885006D01*
X133452620Y-61774386D01*
X133506868Y-61672361D01*
X133579895Y-61582821D01*
X133668925Y-61509167D01*
X133770572Y-61454208D01*
X133880949Y-61420040D01*
X134014528Y-61406000D01*
X154980146Y-61406000D01*
X155114994Y-61419222D01*
G04 #@! TA.AperFunction,Conductor*
D16*
G36*
X155114994Y-61419222D02*
G01*
X155225614Y-61452620D01*
X155327639Y-61506868D01*
X155417179Y-61579895D01*
X155490833Y-61668925D01*
X155545792Y-61770572D01*
X155579960Y-61880949D01*
X155594000Y-62014528D01*
X155594001Y-81980136D01*
X155580778Y-82114994D01*
X155547379Y-82225615D01*
X155493132Y-82327639D01*
X155420106Y-82417179D01*
X155331072Y-82490834D01*
X155229428Y-82545792D01*
X155119051Y-82579960D01*
X154985472Y-82594000D01*
X134019854Y-82594000D01*
X133885006Y-82580778D01*
X133774385Y-82547379D01*
X133672361Y-82493132D01*
X133582821Y-82420106D01*
X133509166Y-82331072D01*
X133454208Y-82229428D01*
X133420040Y-82119051D01*
X133406000Y-81985472D01*
X133406000Y-77280078D01*
X136746000Y-77280078D01*
X136746000Y-77433922D01*
X136776013Y-77584809D01*
X136834887Y-77726942D01*
X136920358Y-77854859D01*
X137029141Y-77963642D01*
X137157058Y-78049113D01*
X137299191Y-78107987D01*
X137450078Y-78138000D01*
X137603922Y-78138000D01*
X137754809Y-78107987D01*
X137896942Y-78049113D01*
X137906390Y-78042800D01*
X142855311Y-78042800D01*
X142889000Y-78046118D01*
X142922688Y-78042800D01*
X147815610Y-78042800D01*
X147825058Y-78049113D01*
X147967191Y-78107987D01*
X148118078Y-78138000D01*
X148271922Y-78138000D01*
X148422809Y-78107987D01*
X148564942Y-78049113D01*
X148692859Y-77963642D01*
X148801642Y-77854859D01*
X148887113Y-77726942D01*
X148945987Y-77584809D01*
X148976000Y-77433922D01*
X148976000Y-77280078D01*
X148945987Y-77129191D01*
X148887113Y-76987058D01*
X148801642Y-76859141D01*
X148692859Y-76750358D01*
X148564942Y-76664887D01*
X148422809Y-76606013D01*
X148271922Y-76576000D01*
X148118078Y-76576000D01*
X147967191Y-76606013D01*
X147825058Y-76664887D01*
X147815610Y-76671200D01*
X143574800Y-76671200D01*
X143574800Y-76498067D01*
X145727068Y-74345800D01*
X153745613Y-74345800D01*
X153887690Y-74440732D01*
X154048022Y-74507144D01*
X154218229Y-74541000D01*
X154391771Y-74541000D01*
X154561978Y-74507144D01*
X154722310Y-74440732D01*
X154866605Y-74344318D01*
X154989318Y-74221605D01*
X155085732Y-74077310D01*
X155152144Y-73916978D01*
X155186000Y-73746771D01*
X155186000Y-73573229D01*
X155152144Y-73403022D01*
X155085732Y-73242690D01*
X154989318Y-73098395D01*
X154866605Y-72975682D01*
X154722310Y-72879268D01*
X154561978Y-72812856D01*
X154391771Y-72779000D01*
X154218229Y-72779000D01*
X154048022Y-72812856D01*
X153887690Y-72879268D01*
X153745613Y-72974200D01*
X145476678Y-72974200D01*
X145442999Y-72970883D01*
X145409320Y-72974200D01*
X145409311Y-72974200D01*
X145308560Y-72984123D01*
X145179286Y-73023338D01*
X145075529Y-73078797D01*
X145060145Y-73087020D01*
X145046285Y-73098395D01*
X144955720Y-73172720D01*
X144934247Y-73198885D01*
X142427886Y-75705247D01*
X142401721Y-75726720D01*
X142380248Y-75752885D01*
X142380245Y-75752888D01*
X142316020Y-75831147D01*
X142252339Y-75950286D01*
X142213124Y-76079560D01*
X142199883Y-76214000D01*
X142203201Y-76247688D01*
X142203201Y-76671200D01*
X137906390Y-76671200D01*
X137896942Y-76664887D01*
X137754809Y-76606013D01*
X137603922Y-76576000D01*
X137450078Y-76576000D01*
X137299191Y-76606013D01*
X137157058Y-76664887D01*
X137029141Y-76750358D01*
X136920358Y-76859141D01*
X136834887Y-76987058D01*
X136776013Y-77129191D01*
X136746000Y-77280078D01*
X133406000Y-77280078D01*
X133406000Y-67031890D01*
X134158524Y-67031890D01*
X134203175Y-67179099D01*
X134328359Y-67441920D01*
X134502412Y-67675269D01*
X134718645Y-67870178D01*
X134968748Y-68019157D01*
X135131168Y-68076772D01*
X135016903Y-68124102D01*
X134815283Y-68258820D01*
X134643820Y-68430283D01*
X134509102Y-68631903D01*
X134416307Y-68855931D01*
X134369000Y-69093757D01*
X134369000Y-69336243D01*
X134416307Y-69574069D01*
X134509102Y-69798097D01*
X134643820Y-69999717D01*
X134815283Y-70171180D01*
X135016903Y-70305898D01*
X135240931Y-70398693D01*
X135478757Y-70446000D01*
X135721243Y-70446000D01*
X135959069Y-70398693D01*
X136183097Y-70305898D01*
X136384717Y-70171180D01*
X136556180Y-69999717D01*
X136690898Y-69798097D01*
X136783693Y-69574069D01*
X136831000Y-69336243D01*
X136831000Y-69093757D01*
X136783693Y-68855931D01*
X136690898Y-68631903D01*
X136556180Y-68430283D01*
X136384717Y-68258820D01*
X136183097Y-68124102D01*
X136068832Y-68076772D01*
X136231252Y-68019157D01*
X136481355Y-67870178D01*
X136697588Y-67675269D01*
X136871641Y-67441920D01*
X136996825Y-67179099D01*
X137041476Y-67031890D01*
X136920155Y-66802000D01*
X135727000Y-66802000D01*
X135727000Y-66822000D01*
X135473000Y-66822000D01*
X135473000Y-66802000D01*
X134279845Y-66802000D01*
X134158524Y-67031890D01*
X133406000Y-67031890D01*
X133406000Y-66318110D01*
X134158524Y-66318110D01*
X134279845Y-66548000D01*
X135473000Y-66548000D01*
X135473000Y-66528000D01*
X135727000Y-66528000D01*
X135727000Y-66548000D01*
X136920155Y-66548000D01*
X137041476Y-66318110D01*
X136996825Y-66170901D01*
X136871641Y-65908080D01*
X136697588Y-65674731D01*
X136481355Y-65479822D01*
X136293367Y-65367843D01*
X136450000Y-65367843D01*
X136524689Y-65360487D01*
X136596508Y-65338701D01*
X136662696Y-65303322D01*
X136720711Y-65255711D01*
X136768322Y-65197696D01*
X136803701Y-65131508D01*
X136825487Y-65059689D01*
X136832843Y-64985000D01*
X136832843Y-63285000D01*
X136825487Y-63210311D01*
X136803701Y-63138492D01*
X136768322Y-63072304D01*
X136720711Y-63014289D01*
X136662696Y-62966678D01*
X136596508Y-62931299D01*
X136524689Y-62909513D01*
X136450000Y-62902157D01*
X134750000Y-62902157D01*
X134675311Y-62909513D01*
X134603492Y-62931299D01*
X134537304Y-62966678D01*
X134479289Y-63014289D01*
X134431678Y-63072304D01*
X134396299Y-63138492D01*
X134374513Y-63210311D01*
X134367157Y-63285000D01*
X134367157Y-64985000D01*
X134374513Y-65059689D01*
X134396299Y-65131508D01*
X134431678Y-65197696D01*
X134479289Y-65255711D01*
X134537304Y-65303322D01*
X134603492Y-65338701D01*
X134675311Y-65360487D01*
X134750000Y-65367843D01*
X134906633Y-65367843D01*
X134718645Y-65479822D01*
X134502412Y-65674731D01*
X134328359Y-65908080D01*
X134203175Y-66170901D01*
X134158524Y-66318110D01*
X133406000Y-66318110D01*
X133406000Y-62019854D01*
X133419222Y-61885006D01*
X133452620Y-61774386D01*
X133506868Y-61672361D01*
X133579895Y-61582821D01*
X133668925Y-61509167D01*
X133770572Y-61454208D01*
X133880949Y-61420040D01*
X134014528Y-61406000D01*
X154980146Y-61406000D01*
X155114994Y-61419222D01*
G37*
G04 #@! TD.AperFunction*
M02*
